<?xml version="1.0" standalone="no"?>
<!DOCTYPE svg PUBLIC "-//W3C//DTD SVG 1.1//EN" "http://www.w3.org/Graphics/SVG/1.1/DTD/svg11.dtd" >
<svg xmlns="http://www.w3.org/2000/svg" xmlns:xlink="http://www.w3.org/1999/xlink" version="1.1">
<metadata>
Created by FontForge 20170731 at Thu Jul 22 10:07:58 2021
 By Aleksey,,,
Copyright (c) 2019 by Mathieu Desjardins. All rights reserved.
</metadata>
<defs>
<font id="EditorialNew-Ultralight" horiz-adv-x="1925" >
  <font-face 
    font-family="Editorial New Ultralight"
    font-weight="200"
    font-stretch="normal"
    units-per-em="2048"
    panose-1="0 0 3 0 0 0 0 0 0 0"
    ascent="1638"
    descent="-410"
    x-height="1071"
    cap-height="1638"
    bbox="-686 -614 2687 2251"
    underline-thickness="51"
    underline-position="-220"
    unicode-range="U+0020-277F"
  />
<missing-glyph horiz-adv-x="1146" 
d="M940 1679v-2293h-727v2293h727zM764 1526h-379v-76h150v-84h-152v-76h381v76h-152v84h152v76zM612 1229h-229v-238h381v78h-152v160zM535 1151v-82h-76v82h76zM764 930h-381v-76h152v-86h-152v-76h229v162h152v76zM764 793h-76v-152h-305v-78h381v230zM764 512h-229v-129
h77v53h76v-108h-229v184h-76v-260h381v260zM764 115h-381v-258h381v258zM688 39v-107h-229v107h229zM764 -197h-381v-75h160l-160 -109v-76h381v76h-234l160 109h74v75z" />
    <glyph glyph-name="f_f" unicode="ff" horiz-adv-x="1110" 
d="M1030 1679q100 0 171 -61.5t71 -134.5q0 -41 -21.5 -63.5t-54.5 -22.5q-76 0 -82 82q0 26 -3 44.5t-12 40.5t-31.5 34t-57.5 12q-53 0 -88.5 -24.5t-54 -72t-26 -104.5t-7.5 -135v-203h188v-70h-188v-804q0 -41 4 -65t14.5 -43.5t33.5 -28.5t56.5 -13t87.5 -4v-43h-444
v43q88 0 111.5 28.5t23.5 125.5v804h-397v-804q0 -68 13.5 -98t54 -43t130.5 -13v-43h-444v43q87 0 110 28t23 126v804h-133v70h133v59q0 245 70.5 376.5t230.5 131.5q103 0 169.5 -60.5t66.5 -133.5v-4q64 239 282 239zM721 1071v119q0 120 18 211q-18 -37 -61 -37
q-33 0 -53.5 19t-20.5 57q-1 23 -2 36t-7 33t-16.5 31.5t-30.5 20t-48 8.5q-52 0 -88 -27t-54.5 -78t-26 -109.5t-7.5 -135.5v-148h397z" />
    <glyph glyph-name="f_f_i" unicode="ffi" horiz-adv-x="1554" 
d="M1380 197q0 -98 23 -126t110 -28v-43h-380v43q87 0 110 28t23 126v669q0 29 -1 44t-6.5 35.5t-16 30.5t-31.5 17.5t-52 7.5h-323v-804q0 -52 5.5 -78.5t27 -45.5t58.5 -24.5t105 -5.5v-43h-444v43q88 0 111.5 28.5t23.5 125.5v804h-397v-804q0 -68 13.5 -98t54 -43
t130.5 -13v-43h-446v43q87 0 110 28t23 126v804h-133v70h133v59q0 244 71 376t230 132q104 0 171 -60.5t67 -133.5v-4q64 239 282 239q100 0 171 -61.5t71 -134.5q0 -41 -22 -63.5t-56 -22.5q-33 0 -55 20t-25 62q0 26 -3 44.5t-12 40.5t-31.5 34t-57.5 12
q-53 0 -88.5 -24.5t-54 -72t-26 -104.5t-7.5 -135v-203h360q83 0 160 41l24 -25v-890zM723 1071v119q0 120 18 211q-18 -37 -61 -37q-33 0 -54 19t-22 57q0 22 -1 36t-6.5 33.5t-16 31t-30.5 20t-48 8.5q-52 0 -88 -27t-54.5 -78t-26 -109.5t-7.5 -135.5v-148h397z" />
    <glyph glyph-name="f_i" unicode="fi" horiz-adv-x="1044" 
d="M868 197q0 -98 23.5 -126t112.5 -28v-43h-383v43q89 0 112 28t23 126v669q0 29 -1 44t-6.5 35.5t-16 30.5t-31.5 17.5t-52 7.5h-325v-804q0 -68 13.5 -98t54 -43t130.5 -13v-43h-444v43q87 0 110 28t23 126v804h-133v70h133v119q0 240 73.5 364.5t235.5 124.5
q100 0 171 -61.5t71 -134.5q0 -41 -21.5 -63.5t-54.5 -22.5q-34 0 -56.5 20t-23.5 62q-1 22 -2 35.5t-7.5 34t-16.5 32t-30.5 20.5t-49.5 9q-53 0 -88.5 -24.5t-54 -72t-26 -104.5t-7.5 -135v-203h362q83 0 160 41l22 -25v-890z" />
    <glyph glyph-name="f_l" unicode="fl" horiz-adv-x="1013" 
d="M838 197q0 -98 23 -126t112 -28v-43h-383v43q89 0 112 28t23 126v1210q-20 -10 -39 -10q-34 0 -56.5 20t-23.5 62q-1 22 -2 35.5t-7.5 34t-16.5 32t-30.5 20.5t-49.5 9q-53 0 -88.5 -24.5t-54 -72t-26 -104.5t-7.5 -135v-203h190v-70h-190v-804q0 -68 13.5 -98t54 -43
t130.5 -13v-43h-444v43q87 0 110 28t23 126v804h-133v70h133v119q0 240 73.5 364.5t235.5 124.5q73 0 133.5 -35.5t89.5 -89.5l72 84l23 -22v-1419z" />
    <glyph glyph-name=".notdef" horiz-adv-x="1146" 
d="M940 1679v-2293h-727v2293h727zM764 1526h-379v-76h150v-84h-152v-76h381v76h-152v84h152v76zM612 1229h-229v-238h381v78h-152v160zM535 1151v-82h-76v82h76zM764 930h-381v-76h152v-86h-152v-76h229v162h152v76zM764 793h-76v-152h-305v-78h381v230zM764 512h-229v-129
h77v53h76v-108h-229v184h-76v-260h381v260zM764 115h-381v-258h381v258zM688 39v-107h-229v107h229zM764 -197h-381v-75h160l-160 -109v-76h381v76h-234l160 109h74v75z" />
    <glyph glyph-name=".null" horiz-adv-x="0" 
 />
    <glyph glyph-name="nonmarkingreturn" horiz-adv-x="682" 
 />
    <glyph glyph-name="space" unicode=" " horiz-adv-x="415" 
 />
    <glyph glyph-name="exclam" unicode="!" horiz-adv-x="397" 
d="M121 1522q0 87 19.5 122t58.5 35t58 -35t19 -122q0 -101 -25 -461.5t-28 -665.5h-45q-3 306 -30 666.5t-27 460.5zM199 -41q-39 0 -67 27.5t-28 66.5q0 40 27.5 68.5t67.5 28.5q38 0 66 -28.5t28 -68.5q0 -38 -28 -66t-66 -28z" />
    <glyph glyph-name="quotedbl" unicode="&#x22;" horiz-adv-x="643" 
d="M102 1573q0 106 70 106q72 0 72 -106q0 -55 -7 -118t-20 -154.5t-20 -163.5h-43q-7 71 -29.5 218.5t-22.5 217.5zM399 1573q0 106 70 106q72 0 72 -106q0 -55 -7 -118t-20 -154.5t-20 -163.5h-43q-7 71 -29.5 218.5t-22.5 217.5z" />
    <glyph glyph-name="numbersign" unicode="#" horiz-adv-x="1730" 
d="M1593 1124h-327l-166 -573h350v-86h-375l-145 -506h-88l145 506h-446l-146 -506h-90l146 506h-312v86h336l166 573h-358v86h383l135 469h90l-135 -469h446l135 469h88l-135 -469h303v-86zM1012 551l166 573h-447l-166 -573h447z" />
    <glyph glyph-name="dollar" unicode="$" horiz-adv-x="1044" 
d="M942 346q0 -89 -32 -163t-86 -121.5t-123.5 -74t-147.5 -28.5v-133h-64v135q-205 12 -387 143v363h43q0 -418 344 -436v725q-14 11 -67 57q-120 105 -180 171t-91.5 135.5t-31.5 154.5q0 154 106 238.5t264 84.5v129h64v-133q184 -17 326 -131v-266h-43q0 169 -74 245.5
t-209 84.5v-639l2 -2q186 -161 237 -214q109 -111 136 -214q14 -51 14 -111zM231 1298q0 -43 15.5 -84.5t34 -71t60 -71t67 -63.5t81.5 -68v588q-124 -4 -191 -68.5t-67 -161.5zM553 29q127 7 201.5 86.5t74.5 201.5q0 49 -20 97t-61 98t-84.5 91.5t-110.5 98.5v-673z" />
    <glyph glyph-name="percent" unicode="%" horiz-adv-x="1499" 
d="M358 850q-111 0 -183.5 120t-72.5 294q0 175 72.5 295t183.5 120q108 0 181 -120.5t73 -294.5q0 -173 -73 -293.5t-181 -120.5zM1221 1638h73l-1018 -1638h-73zM358 911q40 0 70 28t47 78t25 111.5t8 135.5q0 158 -36 256t-114 98q-151 0 -151 -354q0 -158 35.5 -255.5
t115.5 -97.5zM1143 -41q-111 0 -183.5 120t-72.5 294q0 177 72.5 297.5t183.5 120.5q108 0 181 -121t73 -297q0 -173 -73 -293.5t-181 -120.5zM1143 20q40 0 69.5 28t46 78t24 111t7.5 136q0 356 -147 356q-152 0 -152 -356q0 -75 8 -136t25 -111t47 -78t72 -28z" />
    <glyph glyph-name="ampersand" unicode="&#x26;" horiz-adv-x="1509" 
d="M1364 285h43q-59 -326 -270 -326q-136 0 -271 156q-163 -156 -383 -156q-167 0 -274 100t-107 275q0 69 17.5 132.5t46 114.5t75 105.5t93 96.5t112.5 96q-98 276 -98 452q0 169 95 269t247 100q135 0 204 -80t69 -199q0 -86 -43.5 -170t-111.5 -155t-179 -162l-56 -45
q50 -129 127 -281q107 -206 203 -340q122 169 199 441q27 92 10 119.5t-113 27.5v43h387v-43q-108 0 -147 -26.5t-65 -118.5q-96 -329 -226 -502q127 -156 230 -156q136 0 186 232zM471 1343q0 -141 78 -382q6 6 19 15.5t14 10.5q160 129 232.5 229.5t72.5 204.5
q0 53 -17 98t-61 78t-109 33q-74 0 -127.5 -43t-77.5 -106.5t-24 -137.5zM520 29q162 0 303 141q-101 128 -239 395q-64 121 -109 238q-122 -112 -180.5 -219t-58.5 -242q0 -148 77.5 -230.5t206.5 -82.5z" />
    <glyph glyph-name="quotesingle" unicode="'" horiz-adv-x="380" 
d="M121 1573q0 106 69 106q72 0 72 -106q0 -55 -7 -118t-20 -154.5t-20 -163.5h-43q-8 68 -22.5 162.5t-21.5 156t-7 117.5z" />
    <glyph glyph-name="parenleft" unicode="(" horiz-adv-x="702" 
d="M641 -571v-43q-256 197 -397.5 493.5t-141.5 652.5q0 369 131 671.5t373 475.5v-43q-182 -179 -276 -467.5t-94 -636.5q0 -324 105 -616t300 -487z" />
    <glyph glyph-name="parenright" unicode=")" horiz-adv-x="702" 
d="M61 -571q195 195 300.5 487.5t105.5 615.5q0 347 -94.5 636t-276.5 468v43q243 -173 373.5 -475t130.5 -672q0 -356 -141 -652.5t-398 -493.5v43z" />
    <glyph glyph-name="asterisk" unicode="*" horiz-adv-x="917" 
d="M768 1182q33 -19 43.5 -46t-6.5 -55q-15 -29 -45 -34.5t-62 14.5q-28 17 -55.5 47.5t-68 70t-101.5 76.5q2 -91 28.5 -174.5t26.5 -117.5q0 -38 -18.5 -60t-50.5 -22t-51 22t-19 60q0 33 14 72t29 95t17 127q-61 -37 -103 -77t-70 -71t-57 -48q-32 -20 -61.5 -14.5
t-44.5 34.5q-17 28 -7 55t44 46q28 16 69 23.5t97.5 23t119.5 49.5q-82 45 -170 64.5t-116 35.5q-34 19 -44 46.5t7 56.5q15 28 44.5 33.5t61.5 -13.5q24 -15 47 -39t41 -47t55.5 -56t86.5 -63q-2 73 -17 130t-29 97t-14 74q0 38 19 60t51 22t50.5 -22t18.5 -60
q0 -33 -13 -72.5t-26.5 -96.5t-15.5 -130q61 38 101 79t67.5 73.5t56.5 50.5q32 19 62 13.5t45 -33.5q17 -30 6.5 -57t-43.5 -46q-28 -16 -116.5 -35.5t-170.5 -64.5q63 -34 119.5 -49.5t98 -23t69.5 -23.5z" />
    <glyph glyph-name="plus" unicode="+" horiz-adv-x="1003" 
d="M102 500v106h349v346h106v-346h344v-106h-344v-346h-106v346h-349z" />
    <glyph glyph-name="comma" unicode="," horiz-adv-x="425" 
d="M180 -41q-34 0 -56 26.5t-22 63.5q0 46 29.5 73.5t73.5 27.5q47 0 83 -40.5t36 -107.5q0 -207 -220 -328v43q67 39 112.5 97.5t45.5 124.5q0 43 -20 43q-4 0 -22.5 -11.5t-39.5 -11.5z" />
    <glyph glyph-name="hyphen" unicode="-" horiz-adv-x="849" 
d="M102 500v106h646v-106h-646z" />
    <glyph glyph-name="period" unicode="." horiz-adv-x="395" 
d="M197 -41q-38 0 -66.5 28t-28.5 66q0 40 28.5 68.5t66.5 28.5q40 0 68 -28.5t28 -68.5q0 -38 -28 -66t-68 -28z" />
    <glyph glyph-name="slash" unicode="/" horiz-adv-x="626" 
d="M537 1679h90l-537 -1679h-90z" />
    <glyph glyph-name="zero" unicode="0" horiz-adv-x="1067" 
d="M532 -41q-106 0 -189.5 67t-135 185.5t-78.5 272.5t-27 335t27 335t78.5 272.5t135 185.5t189.5 67q142 0 241.5 -117.5t145.5 -308t46 -434.5t-46 -434.5t-145.5 -308t-241.5 -117.5zM532 29q78 0 137 60.5t93.5 169.5t51.5 249t17 311q0 172 -17 312t-51.5 249
t-93.5 169.5t-137 60.5t-136 -60.5t-92.5 -169.5t-51 -249t-16.5 -312q0 -171 16.5 -311t51 -249t92.5 -169.5t136 -60.5z" />
    <glyph glyph-name="one" unicode="1" horiz-adv-x="589" 
d="M352 197q0 -98 23 -126t112 -28v-43h-387v43q87 0 110 28t23 126v1210q0 86 -7 101q-11 22 -58 -1q-24 -12 -70 -41l-24 37l184 115l72 43l22 -23v-1441z" />
    <glyph glyph-name="two" unicode="2" horiz-adv-x="993" 
d="M690 115q94 0 132.5 34.5t72.5 145.5l43 -12l-59 -193l-29 -90h-830v43q95 100 166 178t149.5 171.5t134.5 171t108.5 165t85 166t52 163t19.5 165.5q0 70 -13.5 129t-42.5 108t-81 77t-123 28q-164 0 -254.5 -135.5t-93.5 -360.5h-43q0 280 113.5 445t322.5 165
q86 0 153 -32.5t108 -89.5t62 -130.5t21 -158.5q0 -120 -43.5 -251.5t-110 -246t-163.5 -238t-184 -217t-193 -194.5v-6h520z" />
    <glyph glyph-name="three" unicode="3" horiz-adv-x="897" 
d="M61 94q0 26 18.5 41t47.5 15q27 0 46.5 -14t43.5 -42q30 -33 67 -49t97 -16q56 0 109 23t97.5 68.5t71.5 122.5t27 175q0 94 -22 167.5t-58 120.5t-87.5 78t-106 44t-117.5 16v43q150 55 234.5 159t84.5 259q0 114 -58 192t-167 78q-216 0 -278 -262h-43
q24 179 120.5 272.5t239.5 93.5q135 0 224 -98.5t89 -263.5q0 -269 -280 -414v-6q162 -26 258 -140.5t96 -305.5q0 -109 -38 -202t-102 -156t-149.5 -98.5t-179.5 -35.5q-70 0 -135 16.5t-107.5 48.5t-42.5 70z" />
    <glyph glyph-name="four" unicode="4" horiz-adv-x="1013" 
d="M68 469v98l600 1071h102v-1071h160v-98h-160v-272q0 -98 23 -126t112 -28v-43h-387v43q87 0 110 28t23 126v272h-583zM147 567h504v918l-504 -912v-6z" />
    <glyph glyph-name="five" unicode="5" horiz-adv-x="905" 
d="M57 88q0 59 62 59q15 0 28.5 -7t18.5 -12t19.5 -23.5t17.5 -22.5q42 -53 147 -53q45 0 89 20t86 63.5t74 106t51.5 155.5t19.5 204q0 228 -73.5 336t-201.5 108q-115 0 -202 -84l-60 45l133 655h502l-29 -114h-426l-100 -496l8 -6q90 90 225 90q111 0 193.5 -70t123 -182
t40.5 -246q0 -151 -38.5 -276t-104.5 -207t-154 -127t-187 -45q-106 0 -184 37t-78 92z" />
    <glyph glyph-name="six" unicode="6" horiz-adv-x="1007" 
d="M584 1112q84 0 150.5 -43.5t107.5 -118t62.5 -168t21.5 -198.5q0 -114 -24.5 -222t-72.5 -199.5t-128.5 -147.5t-182.5 -56q-130 0 -226.5 93.5t-144.5 255.5t-45 368q3 176 50 337t136 298t233 234.5t327 133.5v-43q-132 -38 -236 -112.5t-172.5 -174t-110.5 -206
t-65 -228.5h2q49 86 132 141.5t186 55.5zM522 29q88 0 149.5 67t91.5 184t30 275q0 95 -13.5 178t-42 154.5t-80.5 113t-122 41.5q-75 0 -148.5 -49t-134.5 -147q-12 -84 -16 -199q-5 -276 71.5 -447t214.5 -171z" />
    <glyph glyph-name="seven" unicode="7" horiz-adv-x="974" 
d="M403 -18l-88 22l433 1514v6h-490q-50 0 -78.5 -6.5t-51.5 -31t-37 -65.5t-28 -116l-43 8l46 231l18 94h795z" />
    <glyph glyph-name="eight" unicode="8" horiz-adv-x="968" 
d="M561 915q152 -132 229.5 -264t77.5 -280q0 -184 -107.5 -298t-277.5 -114q-119 0 -208 55.5t-133 144.5t-44 197q0 145 81.5 269t234.5 256q-145 135 -210 233.5t-65 216.5q0 152 99.5 250t253.5 98t244.5 -97.5t90.5 -240.5q0 -53 -13.5 -100.5t-32.5 -83.5t-58 -80.5
t-71.5 -75t-92.5 -83.5zM258 1346q0 -88 55 -171.5t195 -211.5q124 117 170.5 200t46.5 183q0 113 -62.5 188.5t-168.5 75.5q-105 0 -170.5 -74t-65.5 -190zM492 29q118 0 188 87.5t70 239.5q0 124 -71 234.5t-216 243.5q-262 -241 -262 -478q0 -134 79 -230.5t212 -96.5z
" />
    <glyph glyph-name="nine" unicode="9" horiz-adv-x="1007" 
d="M489 1679q130 0 226.5 -92.5t145 -254.5t44.5 -369q-2 -140 -31.5 -271t-89.5 -252t-146 -217t-208.5 -165.5t-269.5 -98.5v43q106 31 195 86.5t152 124t111.5 154.5t78 172.5t48.5 183.5h-4q-47 -85 -130 -140t-185 -55q-85 0 -152 43.5t-108 118t-62.5 168t-21.5 199.5
q0 90 15 176.5t47.5 168t79 142.5t115 98t150.5 37zM772 991q4 180 -28.5 319.5t-99.5 219.5t-159 80q-88 0 -149.5 -67t-91 -184t-29.5 -276q0 -75 8 -142.5t27 -131.5t48 -110.5t74.5 -74.5t102.5 -28q158 0 283 199q11 91 14 196z" />
    <glyph glyph-name="colon" unicode=":" horiz-adv-x="395" 
d="M197 903q-39 0 -67 28.5t-28 67.5q0 38 28.5 66.5t66.5 28.5q39 0 67.5 -28t28.5 -67q0 -40 -28 -68t-68 -28zM197 -41q-38 0 -66.5 28t-28.5 66q0 40 28.5 68.5t66.5 28.5q40 0 68 -28.5t28 -68.5q0 -38 -28 -66t-68 -28z" />
    <glyph glyph-name="semicolon" unicode=";" horiz-adv-x="425" 
d="M215 903q-40 0 -68 28t-28 68q0 39 28.5 67t67.5 28q38 0 66 -28.5t28 -66.5q0 -40 -28 -68t-66 -28zM180 -41q-34 0 -56 26.5t-22 63.5q0 46 29.5 73.5t73.5 27.5q47 0 83 -40.5t36 -107.5q0 -207 -220 -328v43q67 39 112.5 97.5t45.5 124.5q0 43 -20 43
q-4 0 -22.5 -11.5t-39.5 -11.5z" />
    <glyph glyph-name="less" unicode="&#x3c;" horiz-adv-x="860" 
d="M758 264l-660 219v150l660 221v-113l-570 -180v-6l570 -180v-111z" />
    <glyph glyph-name="equal" unicode="=" horiz-adv-x="849" 
d="M102 672v104h646v-104h-646zM102 330v104h646v-104h-646z" />
    <glyph glyph-name="greater" unicode="&#x3e;" horiz-adv-x="866" 
d="M102 264v111l570 180v6l-570 180v113l662 -221v-150z" />
    <glyph glyph-name="question" unicode="?" horiz-adv-x="851" 
d="M623 1358q0 116 -53.5 184t-155.5 68q-92 0 -142.5 -56t-50.5 -129q0 -43 16 -71.5t32 -51.5t16 -53q0 -32 -18.5 -48.5t-51.5 -16.5q-47 0 -80 52t-33 140q0 126 86.5 214.5t237.5 88.5q148 0 236 -87t88 -218q0 -71 -18 -133.5t-46.5 -112.5t-63.5 -100.5t-70 -110.5
t-63.5 -130t-46.5 -171t-18 -221h-45q0 152 18 274t45 194.5t59 139t59 112.5t45 109t18 134zM401 -41q-38 0 -66 28t-28 66q0 40 28 68.5t66 28.5q40 0 67.5 -28.5t27.5 -68.5q0 -39 -28 -66.5t-67 -27.5z" />
    <glyph glyph-name="at" unicode="@" horiz-adv-x="2127" 
d="M129 698q32 161 102 302t167 246.5t214.5 181.5t249 114.5t266.5 38.5q108 0 205 -22.5t174 -63.5t143 -97.5t112.5 -125.5t82 -148t50.5 -163.5t18.5 -172.5t-12.5 -176q-25 -155 -83.5 -281.5t-135 -206t-162 -122.5t-170.5 -43q-40 0 -70.5 9t-48.5 21t-29 33
t-15.5 38t-4 42.5t2 39.5t5.5 36l6 33h-8q-87 -129 -169.5 -190.5t-187.5 -61.5q-77 0 -134.5 42.5t-85.5 114t-35 166t16 199.5q26 126 77.5 239t120.5 199t158 136.5t182 50.5q148 0 201 -158h4l29 146l109 14l-166 -887q-21 -92 -4.5 -142t83.5 -50q57 0 123.5 36.5
t131 105.5t117.5 184.5t77 256.5q12 70 13 141t-9 141.5t-31 138t-54.5 129.5t-77 116t-101 98t-124.5 75.5t-149.5 49t-173.5 17.5q-170 0 -322.5 -61.5t-269 -171t-199.5 -260t-122 -327.5q-30 -137 -31.5 -267.5t25 -244.5t76 -213.5t124.5 -177t168.5 -133.5
t209.5 -85.5t245 -29.5q146 0 274 32t225.5 85.5t180.5 130.5t142 161t106 183h65q-48 -110 -111.5 -204.5t-153 -178.5t-195.5 -143.5t-242.5 -94t-290.5 -34.5q-161 0 -303 42.5t-251.5 120.5t-192.5 187.5t-127 244.5t-54.5 291.5t25.5 327.5zM705 535q-41 -218 6.5 -348
t179.5 -130q103 0 181.5 65.5t144.5 176.5l69 385q28 161 -14.5 256.5t-145.5 95.5q-66 0 -126.5 -29t-106.5 -78t-84.5 -114t-64 -135.5t-39.5 -144.5z" />
    <glyph glyph-name="A" unicode="A" horiz-adv-x="1425" 
d="M1212 186q29 -90 66 -116.5t127 -26.5v-43h-490v43q140 0 164 27t-10 116l-108 344h-570l-106 -344q-34 -89 -10 -116t165 -27v-43h-420v43q90 0 127 26.5t66 116.5l467 1500h61zM412 600h528l-262 838h-6z" />
    <glyph glyph-name="B" unicode="B" horiz-adv-x="1161" 
d="M41 0v43q76 0 117 5.5t63.5 25.5t27.5 45.5t5 77.5v1245q0 52 -5 77.5t-28 45t-63.5 25t-116.5 5.5v43h528q101 0 183.5 -24.5t145.5 -74t97.5 -130t34.5 -186.5q0 -158 -93.5 -258t-246.5 -119v-6q183 -12 297.5 -124.5t114.5 -281.5q0 -96 -30 -171.5t-80.5 -124
t-122.5 -80.5t-150.5 -45t-169.5 -13h-508zM381 885q78 -11 174 -11q65 0 124.5 21t109 63t79 112.5t29.5 160.5q0 88 -29.5 155t-79 106t-108.5 58t-125 19q-99 0 -174 -21v-663zM381 90q81 -20 158 -20q66 0 124 9.5t115.5 34.5t98.5 65t66.5 105t25.5 150q0 84 -29 151
t-73 107.5t-101 66.5t-109 36t-102 10q-103 0 -174 -10v-705z" />
    <glyph glyph-name="C" unicode="C" horiz-adv-x="1271" 
d="M80 819q0 180 43 337.5t121 273t193 182.5t253 67q72 0 137 -18.5t102 -41.5t70 -41.5t48 -18.5q21 0 28.5 18.5t7.5 81.5h43l31 -563h-43q-51 514 -407 514q-149 0 -262 -107t-170.5 -285t-57.5 -399q0 -220 57.5 -397.5t169.5 -283t261 -105.5q192 0 320.5 171.5
t162.5 457.5h43q-19 -157 -61.5 -283.5t-109 -221.5t-163.5 -146.5t-217 -51.5q-137 0 -251 66.5t-190 183t-117.5 273.5t-41.5 337z" />
    <glyph glyph-name="D" unicode="D" horiz-adv-x="1462" 
d="M41 0v43q76 0 117 5.5t63.5 25.5t27.5 45.5t5 77.5v1245q0 52 -5 77.5t-28 45t-63.5 25t-116.5 5.5v43h559q173 0 317 -55.5t247 -159t160.5 -258.5t57.5 -346q0 -190 -59.5 -345.5t-164.5 -258.5t-248 -159t-310 -56h-559zM600 70q295 0 470 204t175 545t-175 545.5
t-470 204.5q-141 0 -219 -37v-1426q76 -36 219 -36z" />
    <glyph glyph-name="E" unicode="E" horiz-adv-x="1196" 
d="M1047 1638l4 -41l34 -317l-43 -4q-11 102 -22.5 157.5t-34 87.5t-49.5 40t-78 8h-477v-674h315q42 0 64.5 4t42.5 16t28 39t12.5 68t4.5 108h45v-540h-45q0 67 -4.5 108t-12.5 68t-28 39t-42.5 16t-64.5 4h-315v-639q0 -72 18 -94t78 -22h402q67 0 103.5 23.5t70.5 96
t80 232.5l43 -12l-111 -373l-10 -37h-1014v43q76 0 117 5.5t63.5 25.5t27.5 45.5t5 77.5v1245q0 52 -5 77.5t-28 45t-63.5 25t-116.5 5.5v43h1006z" />
    <glyph glyph-name="F" unicode="F" horiz-adv-x="1177" 
d="M1122 1638l2 -41l31 -317l-43 -4q-6 69 -13 114.5t-17.5 79.5t-22 52.5t-31.5 29.5t-41 14t-55 3h-551v-725h328q42 0 64.5 4t42 16t27.5 39t12.5 67.5t4.5 108.5h43v-538h-43q0 83 -5 127.5t-24.5 69.5t-44.5 30.5t-77 5.5h-328v-577q0 -52 5 -77.5t27.5 -45.5
t63.5 -25.5t117 -5.5v-43h-553v43q76 0 117 5.5t63.5 25.5t27.5 45.5t5 77.5v1245q0 52 -5 77.5t-28 45t-63.5 25t-116.5 5.5v43h1081z" />
    <glyph glyph-name="G" unicode="G" horiz-adv-x="1470" 
d="M80 817q0 143 28 272.5t84 237t135 186t187.5 122.5t235.5 44q91 0 166 -18t112 -40t68.5 -40t46.5 -18q21 0 28 17.5t7 78.5h43l30 -563h-43q-27 266 -130.5 390t-317.5 124q-133 0 -238 -62t-171 -170.5t-100 -251t-34 -309.5q0 -169 34 -309t103 -248.5t183.5 -169.5
t265.5 -61q117 0 209 40.5t147 98.5v487q0 35 -4 55t-18.5 39.5t-40 29t-73 17t-111 9.5t-160.5 2v43h675v-43q-89 0 -112 -27.5t-23 -124.5v-501q-106 -101 -226 -148t-273 -47q-176 0 -314 66.5t-224 184t-130.5 271.5t-44.5 336z" />
    <glyph glyph-name="H" unicode="H" horiz-adv-x="1400" 
d="M1360 1595q-61 0 -98.5 -4.5t-62 -13t-35.5 -28.5t-15 -43t-4 -64v-1245q0 -41 4 -64.5t15 -43.5t35.5 -28.5t62 -13t98.5 -4.5v-43h-553v43q75 0 116 5.5t63.5 25t28 45.5t5.5 78v641h-639v-641q0 -52 5 -77.5t27.5 -45.5t63.5 -25.5t117 -5.5v-43h-553v43q76 0 117 5.5
t63.5 25.5t27.5 45.5t5 77.5v1245q0 52 -5 77.5t-28 45t-63.5 25t-116.5 5.5v43h553v-43q-76 0 -116.5 -5.5t-63.5 -25t-28 -45t-5 -77.5v-535h639v535q0 52 -5.5 77.5t-28 45t-63.5 25t-116 5.5v43h553v-43z" />
    <glyph glyph-name="I" unicode="I" horiz-adv-x="634" 
d="M254 1442q0 52 -5 77.5t-28 45t-63.5 25t-116.5 5.5v43h553v-43q-76 0 -116.5 -5.5t-63.5 -25t-28 -45t-5 -77.5v-1245q0 -52 5 -77.5t27.5 -45.5t63.5 -25.5t117 -5.5v-43h-553v43q76 0 117 5.5t63.5 25.5t27.5 45.5t5 77.5v1245z" />
    <glyph glyph-name="J" unicode="J" horiz-adv-x="761" 
d="M381 387v1055q0 52 -5.5 77.5t-28 45t-63.5 25t-116 5.5v43h553v-43q-61 0 -98.5 -4.5t-62 -13t-35.5 -28.5t-15 -43t-4 -64v-979q0 -274 -56.5 -389t-183.5 -115q-116 0 -170.5 62.5t-54.5 150.5q0 42 23 65t55 23q33 0 54.5 -20t21.5 -60q0 -9 -1 -26.5t-1 -29.5t1 -28
t5 -26.5t11 -20.5t20 -15t30 -5q39 0 63.5 24t37 75t16.5 110t4 149z" />
    <glyph glyph-name="K" unicode="K" horiz-adv-x="1495" 
d="M252 1442q0 52 -5 77.5t-28 45t-63.5 25t-116.5 5.5v43h553v-43q-76 0 -116.5 -5.5t-63.5 -25t-28 -45t-5 -77.5v-1245q0 -52 5 -77.5t27.5 -45.5t63.5 -25.5t117 -5.5v-43h-553v43q76 0 117 5.5t63.5 25.5t27.5 45.5t5 77.5v1245zM1196 152q57 -69 109 -89t149 -20v-43
h-483v43q116 0 121 17.5t-62 91.5l-577 696l522 639q53 65 58 75q10 22 -20 28q-25 5 -102 5v43h410v-43q-97 0 -148 -19.5t-108 -88.5l-477 -588z" />
    <glyph glyph-name="L" unicode="L" horiz-adv-x="1181" 
d="M594 1638v-43q-76 0 -116.5 -5.5t-63.5 -25t-28 -45t-5 -77.5v-1249q0 -77 20 -100t86 -23h373q51 0 80 10.5t57.5 51t51 111.5t53.5 201l43 -10l-96 -399l-9 -35h-999v43q76 0 117 5.5t63.5 25.5t27.5 45.5t5 77.5v1245q0 52 -5 77.5t-28 45t-63.5 25t-116.5 5.5v43h553
z" />
    <glyph glyph-name="M" unicode="M" horiz-adv-x="1816" 
d="M903 203h6l490 1435h377v-43q-75 0 -116 -5.5t-63.5 -25t-28 -45t-5.5 -77.5v-1245q0 -52 5.5 -78t28 -45.5t63.5 -25t116 -5.5v-43h-553v43q61 0 98.5 4.5t62 13t35.5 28.5t15 43.5t4 64.5v1323h-6l-531 -1567h-61l-514 1546h-7l5 -1302q0 -42 3.5 -64.5t14.5 -43
t35.5 -28.5t61.5 -12.5t98 -3.5v-45h-496v43q76 0 117 5.5t63.5 25.5t27.5 45.5t5 77.5v1245q0 52 -5 77.5t-28 45t-63.5 25t-116.5 5.5v43h381z" />
    <glyph glyph-name="N" unicode="N" horiz-adv-x="1525" 
d="M1485 1638v-43q-76 0 -116.5 -5.5t-63.5 -25t-28 -45t-5 -77.5v-1489h-62l-886 1444v-1200q0 -52 5.5 -78t28 -45.5t63.5 -25t116 -5.5v-43h-496v43q76 0 117 5.5t63.5 25.5t27.5 45.5t5 77.5v1310q-41 54 -85.5 71t-127.5 17v43h291l864 -1402h6v1206q0 52 -5.5 77.5
t-28 45t-63.5 25t-116 5.5v43h496z" />
    <glyph glyph-name="O" unicode="O" horiz-adv-x="1355" 
d="M678 -41q-137 0 -251 68t-189 185t-116.5 273t-41.5 334t41.5 334t116.5 273t189 185t251 68q138 0 252 -68t189 -185t116 -273t41 -334t-41 -334t-116 -273t-189 -185t-252 -68zM748 29q139 13 234.5 123t134 293t18.5 415q-31 352 -174.5 561t-352.5 191
q-139 -13 -235 -123.5t-135 -294.5t-19 -416q20 -231 91 -404.5t184.5 -265t253.5 -79.5z" />
    <glyph glyph-name="P" unicode="P" horiz-adv-x="1187" 
d="M41 0v43q76 0 117 5.5t63.5 25.5t27.5 45.5t5 77.5v1245q0 52 -5 77.5t-28 45t-63.5 25t-116.5 5.5v43h545q239 0 381.5 -117.5t142.5 -344.5q0 -110 -36 -197t-99 -142t-145 -83.5t-177 -28.5q-126 0 -272 39v-567q0 -52 5 -77.5t27.5 -45.5t63.5 -25.5t117 -5.5v-43
h-553zM631 795q150 0 246 101t96 280q0 189 -110.5 291t-278.5 102q-113 0 -203 -37v-698q128 -39 250 -39z" />
    <glyph glyph-name="Q" unicode="Q" horiz-adv-x="1337" 
d="M1407 -160l27 -43q-81 -75 -154 -113t-154 -38q-49 0 -94.5 14t-83.5 33.5t-77.5 39.5t-93 34t-115.5 14q-60 0 -124 -13t-190 -51l-31 107q220 64 375 135h-14q-137 0 -251 68t-189 185t-116.5 273t-41.5 334t41.5 334t116.5 273t189 185t251 68q138 0 252 -68t189 -185
t116 -273t41 -334q0 -248 -77 -449.5t-218 -308.5q-175 -140 -473 -229l2 -8q118 26 199 26q66 0 127.5 -19t101.5 -42t94 -42t107 -19q74 0 131 25t137 87zM219 778q20 -231 91 -404.5t184.5 -265t253.5 -79.5q139 13 234.5 123t134 293t18.5 415q-31 352 -174.5 561
t-352.5 191q-139 -13 -235 -123.5t-135 -294.5t-19 -416z" />
    <glyph glyph-name="R" unicode="R" horiz-adv-x="1216" 
d="M954 174q41 -82 86 -106.5t138 -24.5v-43h-156q-29 0 -45 1t-34 5t-29 11.5t-24.5 21.5t-24.5 34t-25 50l-348 682h-52h-59v-608q0 -52 5 -77.5t27.5 -45.5t63.5 -25.5t117 -5.5v-43h-553v43q76 0 117 5.5t63.5 25.5t27.5 45.5t5 77.5v1245q0 52 -5 77.5t-28 45t-63.5 25
t-116.5 5.5v43h518q218 0 341.5 -104t123.5 -301q0 -374 -455 -422h2v-6q85 -40 146 -164zM440 874q57 -1 111.5 6t118.5 30.5t111 61.5t78.5 106t31.5 157q0 160 -93 247t-241 87q-110 0 -176 -37v-658h59z" />
    <glyph glyph-name="S" unicode="S" horiz-adv-x="1093" 
d="M123 -2v584h43q1 -125 34 -230.5t88.5 -175t127 -108.5t149.5 -39q135 0 214 82.5t79 218.5q0 29 -6.5 58.5t-15.5 55t-28 55t-33.5 51t-44 52t-48 49.5t-55.5 52t-56.5 49.5t-62.5 52.5t-62 53q-69 61 -102 91t-79 76t-66 75.5t-41.5 70.5t-29 81.5t-7.5 88.5
q0 156 103.5 247t267.5 91q62 0 116.5 -16t90 -38.5t62.5 -45.5t46.5 -39t30.5 -16q10 0 15 7t8 32.5t3 76.5h45v-475h-45q-2 194 -105 319.5t-261 125.5q-130 0 -196 -70t-66 -168q0 -44 16 -88t35.5 -76t60.5 -75.5t66 -66.5t79.5 -69.5t75.5 -64.5q185 -164 215 -193
q119 -116 158 -215q31 -78 31 -180q0 -90 -33 -164.5t-88.5 -121.5t-124.5 -73t-143 -26q-69 0 -127 16.5t-95 40t-65.5 47t-50.5 40t-37 16.5q-25 0 -34 -26.5t-9 -94.5h-43z" />
    <glyph glyph-name="T" unicode="T" horiz-adv-x="1255" 
d="M1163 1597l29 -325l-43 -4q-10 105 -20.5 162t-32.5 90t-49 41t-78 8h-279v-1372q0 -52 5.5 -78t28 -45.5t63.5 -25t116 -5.5v-43h-553v43q61 0 98.5 4.5t62 13t35.5 28.5t15 43.5t4 64.5v1372h-280q-51 0 -78 -8t-49 -41t-33 -89.5t-21 -162.5l-43 4l31 325l4 41h1063z
" />
    <glyph glyph-name="U" unicode="U" horiz-adv-x="1540" 
d="M1217 1442q0 52 -5 77.5t-28 45t-63.5 25t-116.5 5.5v43h495v-43q-75 0 -116 -5.5t-63.5 -25t-28 -45t-5.5 -77.5v-957q0 -80 -13 -150.5t-47 -141t-87 -121t-140.5 -82t-199.5 -31.5q-122 0 -217 29.5t-156 79t-100.5 119t-55.5 144.5t-16 161v950q0 52 -5 77.5t-28 45
t-63.5 25t-116.5 5.5v43h553v-43q-76 0 -116.5 -5.5t-63.5 -25t-28 -45t-5 -77.5v-957q0 -235 106 -345.5t320 -110.5q193 0 301.5 113t108.5 343v957z" />
    <glyph glyph-name="V" unicode="V" horiz-adv-x="1425" 
d="M748 201h6l387 1251q34 89 9.5 116t-165.5 27v43h420v-43q-90 0 -127 -26.5t-66 -116.5l-464 -1499h-62l-473 1499q-27 89 -64.5 116t-128.5 27v43h492v-43q-141 0 -165.5 -27t9.5 -116z" />
    <glyph glyph-name="W" unicode="W" horiz-adv-x="1777" 
d="M1757 1638v-43q-90 0 -124 -27.5t-56 -119.5l-365 -1495h-61l-244 985l-272 -985h-55l-377 1495q-23 93 -58 120t-125 27v43h488v-43q-140 0 -167 -28t1 -119l301 -1204h6l225 829l-92 375q-22 92 -56 119.5t-124 27.5v43h488v-43q-140 0 -167.5 -28t1.5 -119l290 -1192
h7l286 1192q8 35 11.5 53.5t1 38t-12.5 28t-32 16t-54 9.5t-82 2v43h418z" />
    <glyph glyph-name="X" unicode="X" horiz-adv-x="1476" 
d="M1202 168q45 -78 92.5 -101.5t141.5 -23.5v-43h-506v43q135 0 152.5 20.5t-30.5 91.5q-3 4 -4.5 7t-3.5 6l-337 573l-340 -573q-41 -69 -43 -85q-4 -24 31 -33q33 -7 126 -7v-43h-430v43q94 0 141.5 23.5t92.5 101.5l381 643l-392 659q-45 78 -92 101.5t-141 23.5v43h506
v-43q-136 0 -153.5 -21t31.5 -92q5 -8 7 -12l311 -526l312 526q41 69 43 85q4 24 -32 32q-32 8 -126 8v43h430v-43q-94 0 -141 -23.5t-92 -101.5l-353 -596z" />
    <glyph glyph-name="Y" unicode="Y" horiz-adv-x="1306" 
d="M737 197q0 -52 5 -77.5t27.5 -45.5t63.5 -25.5t117 -5.5v-43h-553v43q76 0 117 5.5t63.5 25.5t27.5 45.5t5 77.5v524l-368 741q-41 84 -85 108.5t-137 24.5v43h502v-43q-138 0 -157 -22.5t26 -101.5q1 -3 2 -5l2 -4l312 -631h6l282 629q45 85 25.5 110t-158.5 25v43h424
v-43q-92 0 -134 -25.5t-81 -109.5l-334 -739v-524z" />
    <glyph glyph-name="Z" unicode="Z" horiz-adv-x="1081" 
d="M1004 1638l-779 -1568h543q34 0 55.5 4t42.5 17.5t34 35.5t27 63.5t24.5 96t23.5 137.5l43 -6l-60 -383l-6 -35h-891v43l762 1526h-485q-41 0 -64.5 -5t-43.5 -19.5t-30 -47t-16 -80.5t-8 -127l-45 2l10 303l2 43h861z" />
    <glyph glyph-name="bracketleft" unicode="[" horiz-adv-x="505" 
d="M444 1610h-208v-2155h208v-69h-342v2293h342v-69z" />
    <glyph glyph-name="backslash" unicode="\" horiz-adv-x="600" 
d="M63 1679l537 -1679h-88l-539 1679h90z" />
    <glyph glyph-name="bracketright" unicode="]" horiz-adv-x="505" 
d="M403 1679v-2293h-342v69h209v2155h-209v69h342z" />
    <glyph glyph-name="asciicircum" unicode="^" horiz-adv-x="1103" 
d="M102 817l387 821h121l391 -821h-116l-332 711h-6l-328 -711h-117z" />
    <glyph glyph-name="underscore" unicode="_" horiz-adv-x="1433" 
d="M1434 -262h-1434v78h1434v-78z" />
    <glyph glyph-name="grave" unicode="`" horiz-adv-x="481" 
d="M381 1280h-68l-233 367h164z" />
    <glyph glyph-name="a" unicode="a" horiz-adv-x="856" 
d="M793 133h43q-12 -45 -21.5 -70t-26 -52.5t-40.5 -39.5t-58 -12q-125 0 -125 176v39h-4q-12 -21 -18.5 -32t-24.5 -37t-32.5 -42t-39.5 -38t-49 -34.5t-56.5 -22t-66.5 -9.5q-104 0 -158.5 68t-54.5 184q0 40 7.5 76t17.5 65t31 57.5t38 49t48 43.5t51.5 37.5t59.5 35
t60 31t64 31.5q22 11 33 16l94 45v103q0 48 -2.5 80.5t-12.5 67.5t-28 56t-50.5 34.5t-78.5 13.5q-69 0 -115.5 -30t-46.5 -79q0 -24 19.5 -63t19.5 -62q0 -28 -19.5 -44.5t-53.5 -16.5q-39 0 -60.5 33.5t-21.5 95.5q0 102 80.5 163.5t207.5 61.5q277 0 277 -317v-666
q0 -56 7.5 -78t33.5 -22q22 0 36 22t36 82zM319 61q66 0 119.5 41t126.5 138v393l-92 -45q-68 -34 -117.5 -67.5t-91 -76t-63 -95t-21.5 -113.5q0 -85 36 -130t103 -45z" />
    <glyph glyph-name="b" unicode="b" horiz-adv-x="944" 
d="M164 106v1336v13v40t-1.5 29.5t-4 23t-7.5 13.5t-12 7t-19 -2t-26 -7l-35 -15l-18 39l213 96l22 -22v-742h9q136 197 282 197q134 0 215.5 -138t81.5 -370q0 -172 -43 -317.5t-128.5 -236.5t-198.5 -91q-64 0 -128.5 24.5t-102 49.5t-99.5 73zM276 162q110 -133 209 -133
q67 0 117.5 45.5t79 122.5t42 164.5t13.5 183.5q0 234 -55 351.5t-154 117.5q-42 0 -79 -14t-70 -42.5t-54 -51.5t-49 -60v-684z" />
    <glyph glyph-name="c" unicode="c" horiz-adv-x="800" 
d="M565 856q-4 186 -119 186q-118 0 -178.5 -131.5t-60.5 -365.5q0 -223 71.5 -355.5t196.5 -132.5q87 0 145 83.5t97 279.5h43q-25 -228 -107.5 -344.5t-216.5 -116.5q-113 0 -194.5 72t-121.5 196t-40 287q0 271 102.5 434.5t272.5 163.5q63 0 116 -26t84.5 -66.5
t48.5 -84.5t17 -85q0 -92 -74 -92q-79 0 -82 98z" />
    <glyph glyph-name="d" unicode="d" horiz-adv-x="956" 
d="M895 94l18 -39l-213 -96l-22 23v174h-8q-64 -101 -124.5 -149t-139.5 -48q-156 0 -241 146t-85 387q0 99 13 189t42 169t71 137t103.5 91.5t136.5 33.5q70 0 128.5 -38t99.5 -97h4v465v13v40t-1.5 29.5t-4 23t-7.5 13.5t-12 7t-19 -2t-26 -7l-35 -15l-18 39l213 96
l23 -22v-1460v-16v-39t1.5 -29.5t4 -22.5t7.5 -12.5t12 -7t19 1.5t26 7t34 15zM678 242v420q0 176 -59 278t-158 102q-71 0 -122.5 -43.5t-79 -118.5t-40 -159.5t-12.5 -181.5q0 -145 24 -252t76.5 -170.5t130.5 -63.5q35 0 67 12t53.5 27t46.5 45t37.5 49t35.5 56z" />
    <glyph glyph-name="e" unicode="e" horiz-adv-x="817" 
d="M694 436h43q-24 -233 -112 -355t-213 -122q-158 0 -245 156t-87 417q0 160 40 290t121 210t189 80q141 0 222 -140t81 -372h-532v-45q0 -134 27.5 -244.5t82.5 -179t129 -68.5q83 0 150.5 88.5t103.5 284.5zM424 1042q-93 0 -149 -103.5t-70 -268.5h407q0 73 -10 137
t-31.5 118t-59 85.5t-87.5 31.5z" />
    <glyph glyph-name="f" unicode="f" horiz-adv-x="600" 
d="M520 1679q100 0 171 -61.5t71 -134.5q0 -41 -21.5 -63.5t-54.5 -22.5q-34 0 -56.5 20t-23.5 62q-1 22 -2 35.5t-7.5 34t-16.5 32t-30.5 20.5t-49.5 9q-53 0 -88.5 -24.5t-54 -72t-26 -104.5t-7.5 -135v-203h190v-70h-190v-804q0 -68 13.5 -98t54 -43t130.5 -13v-43h-444
v43q87 0 110 28t23 126v804h-133v70h133v119q0 240 73.5 364.5t235.5 124.5z" />
    <glyph glyph-name="g" unicode="g" horiz-adv-x="942" 
d="M494 133q99 0 173.5 -12t133 -40t89 -77.5t30.5 -120.5q0 -99 -69.5 -185.5t-190.5 -138t-263 -51.5q-76 0 -141.5 14.5t-119.5 43.5t-85 79t-31 115q0 84 49 154t148 147q-98 42 -98 138q0 51 31 96.5t92 103.5q-59 53 -92 135.5t-33 182.5q0 174 92.5 284.5
t234.5 110.5q104 0 181 -59q128 59 235 59q62 0 62 -47q0 -26 -17.5 -35.5t-52.5 -9.5q-96 0 -170 -21l-12 11q100 -115 100 -293q0 -173 -93.5 -284t-232.5 -111q-91 0 -168 49q-42 -40 -61.5 -69t-19.5 -60q0 -56 65 -82.5t234 -26.5zM416 1042q-100 -7 -145 -96t-33 -248
q13 -156 74.5 -236t158.5 -71q99 7 145.5 97t32.5 245q-15 157 -74.5 237.5t-158.5 71.5zM436 -385q189 0 301.5 64.5t112.5 183.5q0 50 -26 83.5t-77.5 50.5t-112.5 23.5t-147 6.5q-144 0 -225 20q-85 -72 -119 -127t-34 -113q0 -88 85 -140t242 -52z" />
    <glyph glyph-name="h" unicode="h" horiz-adv-x="964" 
d="M307 1657v-735h6q129 190 275 190q200 0 200 -274v-641q0 -98 23.5 -126t112.5 -28v-43h-379v43q86 0 108.5 28t22.5 126v641q0 182 -123 182q-112 0 -246 -168v-655q0 -98 22.5 -126t106.5 -28v-43h-377v43q87 0 110.5 28.5t23.5 125.5v1245v13v40t-1.5 29.5t-4 23
t-7.5 13t-12 7t-19 -2t-26 -7.5t-35 -16l-18 41l213 96z" />
    <glyph glyph-name="i" unicode="i" horiz-adv-x="481" 
d="M233 1491q-40 0 -67 27t-27 67q0 39 27.5 66.5t66.5 27.5q38 0 66.5 -28t28.5 -66q0 -39 -28 -66.5t-67 -27.5zM307 197q0 -98 23 -126t110 -28v-43h-381v43q87 0 110.5 28.5t23.5 125.5v677v13v39t-1.5 29.5t-4 23t-7.5 13t-12 7t-19 -1.5t-26 -7l-35 -15l-18 39l213 98
l24 -25v-890z" />
    <glyph glyph-name="j" unicode="j" horiz-adv-x="454" 
d="M236 1491q-40 0 -68.5 27.5t-28.5 66.5q0 38 28.5 66t68.5 28q38 0 66 -28t28 -66q0 -39 -27.5 -66.5t-66.5 -27.5zM217 1073l72 33l22 -23v-1196q0 -379 -221 -379q-89 0 -138.5 48.5t-49.5 111.5q0 36 22 57t56 21q36 0 57 -22t22 -64q0 -28 2 -42.5t14.5 -27
t37.5 -12.5q15 0 27 6t21 19.5t15.5 29t10.5 41t6.5 48t3.5 57t1.5 61.5t0.5 68v960v13v40t-1.5 29.5t-4 23t-8 13.5t-12.5 7.5t-19 -2t-26.5 -7.5t-35.5 -16l-18 41z" />
    <glyph glyph-name="k" unicode="k" horiz-adv-x="956" 
d="M307 197q0 -98 23 -126t110 -28v-43h-381v43q87 0 110.5 28.5t23.5 125.5v1245v13v40t-1.5 29.5t-4 23t-7.5 13t-12 7t-19 -2t-26 -7.5t-35 -16l-18 41l213 96l24 -22v-1460zM745 170q45 -79 85 -103t106 -24v-43h-393v43q95 0 104 19t-35 91q-7 11 -10 17l-254 453
l252 297q10 12 26 31q47 52 39 63.5t-100 11.5v45h344v-45q-71 0 -116.5 -19t-102.5 -87l-221 -263z" />
    <glyph glyph-name="l" unicode="l" horiz-adv-x="481" 
d="M307 197q0 -98 23 -126t110 -28v-43h-381v43q87 0 110.5 28.5t23.5 125.5v1245v13v40t-1.5 29.5t-4 23t-7.5 13t-12 7t-19 -2t-26 -7.5t-35 -16l-18 41l213 96l24 -22v-1460z" />
    <glyph glyph-name="m" unicode="m" horiz-adv-x="1439" 
d="M1264 197q0 -98 23 -126t112 -28v-43h-377v43q84 0 106.5 28t22.5 126v643q0 91 -28.5 132.5t-90.5 41.5q-114 0 -246 -160v-16v-641q0 -98 22.5 -126t106.5 -28v-43h-372v43q86 0 108.5 28t22.5 126v643q0 90 -29.5 132t-91.5 42q-116 0 -246 -162v-655q0 -98 22 -126
t107 -28v-43h-377v43q87 0 110.5 28.5t23.5 125.5v677v13v39t-1.5 29.5t-4 23t-7.5 13t-12 7t-19 -1.5t-26 -7l-35 -15l-18 39l213 98l24 -25v-165h6q129 190 273 190q168 0 194 -190h6q136 190 281 190q197 0 197 -274v-641z" />
    <glyph glyph-name="n" unicode="n" horiz-adv-x="964" 
d="M307 1087v-165h6q129 190 275 190q200 0 200 -274v-641q0 -98 23.5 -126t112.5 -28v-43h-379v43q86 0 108.5 28t22.5 126v641q0 182 -123 182q-112 0 -246 -168v-655q0 -98 22.5 -126t106.5 -28v-43h-377v43q87 0 110.5 28.5t23.5 125.5v677v13v39t-1.5 29.5t-4 23
t-7.5 13t-12 7t-19 -1.5t-26 -7l-35 -15l-18 39l213 98z" />
    <glyph glyph-name="o" unicode="o" horiz-adv-x="968" 
d="M485 -41q-124 0 -217.5 78t-140.5 207.5t-47 290.5q0 162 47 292t140 207.5t218 77.5q124 0 217 -77.5t140 -207.5t47 -292q0 -161 -47 -290.5t-140 -207.5t-217 -78zM528 31q127 10 189.5 152.5t42.5 375.5t-106 362.5t-214 118.5q-128 -12 -189.5 -153.5t-41.5 -376.5
q22 -234 107 -362.5t212 -116.5z" />
    <glyph glyph-name="p" unicode="p" horiz-adv-x="956" 
d="M598 1112q73 0 128 -41.5t87 -114t48 -162.5t16 -196q0 -171 -38.5 -314.5t-116.5 -234t-183 -90.5q-76 0 -140 40.5t-106 117.5h-4v-371q0 -99 22.5 -126.5t110.5 -27.5v-43h-381v43q88 0 111.5 28t23.5 126v1128v16q0 35 -0.5 49.5t-3.5 32.5t-8.5 21t-18 5t-29.5 -4.5
t-44 -18.5l-19 39l213 98l23 -25v-210h8q65 115 138 175t163 60zM526 29q50 0 89.5 30t64 79.5t41 117t23 137t6.5 146.5q0 234 -44 355.5t-149 121.5q-78 0 -147 -60t-121 -145v-420q0 -168 66.5 -265t170.5 -97z" />
    <glyph glyph-name="q" unicode="q" horiz-adv-x="956" 
d="M688 1040l70 72l24 -25v-1341q0 -99 22.5 -126.5t110.5 -27.5v-43h-380v43q88 0 110.5 27.5t22.5 126.5v410h-9q-66 -98 -125.5 -147.5t-138.5 -49.5q-146 0 -230.5 138t-84.5 372q0 132 22 245t67 203.5t121 142.5t175 52q102 0 223 -72zM668 903q-71 139 -193 139
q-53 0 -95.5 -21t-71.5 -59t-49 -86t-31 -108t-16 -117.5t-5 -122.5q0 -471 229 -471q24 0 45 4.5t41.5 16.5t33.5 20t33 29.5t26.5 29t27.5 35t25 31.5v680z" />
    <glyph glyph-name="r" unicode="r" horiz-adv-x="718" 
d="M559 1112q53 0 87 -26t34 -70q0 -32 -21.5 -56t-56.5 -24q-51 0 -72 43q-12 29 -36 29q-43 0 -83 -41.5t-104 -145.5v-624q0 -52 5.5 -78.5t27.5 -45.5t60 -24.5t108 -5.5v-43h-449v43q87 0 110.5 28.5t23.5 125.5v677v13v39t-1.5 29.5t-4 23t-7.5 13t-12 7t-19 -1.5
t-26 -7l-35 -15l-18 39l213 98l24 -25v-172h6q111 197 246 197z" />
    <glyph glyph-name="s" unicode="s" horiz-adv-x="716" 
d="M104 -20v401h43q18 -159 87.5 -255.5t175.5 -96.5q69 0 103 43.5t34 120.5q0 49 -15 92t-50.5 88t-64.5 74t-88 83q-8 7 -12 11q-58 53 -87 82.5t-64 74t-49.5 88t-14.5 93.5q0 100 65.5 166.5t166.5 66.5q45 0 82.5 -13t57 -28t37.5 -28t28 -13q16 0 19 12.5t3 49.5h43
v-328h-43q-20 123 -76.5 200.5t-144.5 77.5q-66 0 -97.5 -42t-31.5 -91q0 -77 50 -142.5t153 -154.5q138 -121 189.5 -202t51.5 -195q0 -123 -68.5 -189.5t-170.5 -66.5q-49 0 -92 13t-66.5 28t-45.5 28t-34 13q-18 0 -24.5 -14.5t-6.5 -46.5h-43z" />
    <glyph glyph-name="t" unicode="t" horiz-adv-x="663" 
d="M580 451h43q-1 -102 -6.5 -174.5t-19.5 -135.5t-37.5 -101t-60.5 -59.5t-89 -21.5q-108 0 -162.5 86.5t-54.5 282.5v673h-170v70q130 1 179 65t54 228h49v-293h248v-70h-248v-598q0 -62 1 -101.5t5.5 -84t13 -71t23 -50t36.5 -33.5t52 -10q75 0 109 88.5t35 309.5z" />
    <glyph glyph-name="u" unicode="u" horiz-adv-x="925" 
d="M649 -18v168h-6q-130 -191 -274 -191q-199 0 -199 274v635q0 39 -0.5 56.5t-4.5 38t-10.5 26t-20.5 9t-32.5 -0.5t-48.5 -14l-14 41l221 70l23 -23v-838q0 -184 123 -184q61 0 120 45.5t123 124.5v649q0 39 -0.5 56.5t-4.5 38t-10.5 26t-20.5 9t-32.5 -0.5t-48.5 -14
l-12 41l219 70l23 -23v-874v-16v-39t1.5 -29.5t4 -22.5t7.5 -12.5t12 -7t19 1.5t26 7t34 15l19 -39l-213 -96z" />
    <glyph glyph-name="v" unicode="v" horiz-adv-x="935" 
d="M698 881q30 92 13.5 118.5t-115.5 26.5v45h319v-45q-64 0 -92.5 -27t-54.5 -118l-264 -928h-68l-268 930q-26 89 -55 116t-93 27v45h367v-45q-33 0 -53.5 -1.5t-33.5 -9.5t-18 -15t-3.5 -27.5t6 -37.5t14.5 -54l197 -686h6z" />
    <glyph glyph-name="w" unicode="w" horiz-adv-x="1384" 
d="M1364 1071v-45q-63 0 -92 -27.5t-55 -117.5l-265 -928h-65l-168 582l-174 -582h-68l-303 930q-28 90 -58.5 116.5t-95.5 26.5v45h381v-45q-36 0 -57.5 -1.5t-36 -9t-20 -14.5t-3.5 -27t6.5 -37t16.5 -54l228 -707h6l143 481l-66 226q-26 89 -55 116t-94 27v45h369v-45
q-92 0 -106 -26.5t16 -118.5l196 -686h6l197 686q30 92 14.5 118.5t-114.5 26.5v45h317z" />
    <glyph glyph-name="x" unicode="x" horiz-adv-x="929" 
d="M711 176q41 -82 78 -107.5t102 -25.5v-43h-375v43q87 0 95.5 21t-33.5 97q-4 10 -7 15l-135 277l-135 -277q-39 -81 -40 -98q-3 -25 30 -31q20 -4 67 -4v-43h-313v43q66 0 102.5 25t77.5 108l172 354l-178 365q-41 81 -78 106t-102 25v45h375v-45q-88 0 -96.5 -21
t34.5 -98l6 -12l109 -221l106 219q40 81 42 98q3 25 -30 31q-20 4 -67 4v45h313v-45q-67 0 -104 -25t-76 -108l-145 -299z" />
    <glyph glyph-name="y" unicode="y" horiz-adv-x="937" 
d="M53 -367q0 34 22.5 58t57.5 24q54 0 82 -57q13 -24 24 -32.5t33 -8.5q57 0 100 89t85 286l-269 891q-27 89 -56.5 116t-92.5 27v45h381v-45q-99 0 -115 -26.5t14 -118.5l197 -678l170 678q27 92 10 118.5t-116 26.5v45h319v-45q-64 0 -91.5 -27t-51.5 -118l-213 -844
q-54 -209 -70 -257q-66 -199 -167 -251q-41 -21 -91 -21q-70 0 -116 35t-46 90z" />
    <glyph glyph-name="z" unicode="z" horiz-adv-x="815" 
d="M557 70q68 0 98 17.5t43 72.5t13 178h43v-338h-693v43l535 958h-295q-34 0 -55.5 -2.5t-40 -12t-28 -24t-16.5 -41.5t-9 -61.5t-2 -87.5h-46v299h650v-45l-535 -956h338z" />
    <glyph glyph-name="braceleft" unicode="{" horiz-adv-x="745" 
d="M684 1636q-76 -16 -130 -50t-82.5 -78.5t-41 -89t-12.5 -93.5q0 -89 41 -234t41 -237q0 -80 -27.5 -143t-72 -99t-93 -54.5t-96.5 -20.5v-7q48 -2 96.5 -21t93 -55t72 -99.5t27.5 -143.5q0 -93 -41 -237t-41 -234q0 -49 12.5 -93.5t41 -89t82.5 -78.5t130 -50v-43
q-88 12 -156 43t-108 70t-65.5 87.5t-34.5 91.5t-9 86q0 103 34 256.5t34 231.5q0 86 -40.5 146t-101.5 86t-135 26v45q116 0 196.5 66t80.5 194q0 77 -34 229.5t-34 255.5q0 43 9 86t34.5 92t65.5 88t108 70t156 43v-43z" />
    <glyph glyph-name="bar" unicode="|" horiz-adv-x="309" 
d="M102 1749h105v-2146h-105v2146z" />
    <glyph glyph-name="braceright" unicode="}" horiz-adv-x="745" 
d="M367 815q0 -128 80 -194t196 -66v-45q-74 0 -134.5 -26t-101 -86t-40.5 -146q0 -78 33.5 -231.5t33.5 -256.5q0 -43 -9 -86t-34.5 -91.5t-65.5 -87.5t-108 -70t-156 -43v43q61 13 108.5 38.5t77 56t48 68.5t26 74t7.5 74q0 90 -41 234t-41 237q0 80 27.5 143.5t72 99.5
t93 55t96.5 21v7q-48 2 -96.5 20.5t-93 54.5t-72 99t-27.5 143q0 92 41 237t41 234q0 38 -7.5 74t-26 74t-48 68.5t-77 56t-108.5 38.5v43q88 -12 156 -43t108 -70t65.5 -88t34.5 -92t9 -86q0 -103 -33.5 -255.5t-33.5 -229.5z" />
    <glyph glyph-name="asciitilde" unicode="~" horiz-adv-x="1132" 
d="M985 674h45q-3 -117 -66.5 -181.5t-162.5 -64.5q-59 0 -126 22.5t-117.5 49t-117 49t-125.5 22.5q-146 0 -170 -141h-43q1 116 65.5 181t164.5 65q59 0 126 -22.5t117.5 -49.5t116.5 -49.5t125 -22.5q146 0 168 142z" />
    <glyph glyph-name="exclamdown" unicode="&#xa1;" horiz-adv-x="397" 
d="M199 1112q38 0 66 -28t28 -68q0 -38 -28 -66t-66 -28q-39 0 -67 28t-28 66q0 40 27.5 68t67.5 28zM121 -453q0 101 27 462t30 667h45q3 -305 28 -666t25 -463q0 -86 -19 -121.5t-58 -35.5t-58.5 35.5t-19.5 121.5z" />
    <glyph glyph-name="cent" unicode="&#xa2;" horiz-adv-x="882" 
d="M735 420h43q-53 -461 -323 -461q-55 0 -105 18l-96 -428h-66l105 457q-94 62 -144.5 195.5t-50.5 312.5q0 271 102.5 434.5t272.5 163.5q24 0 70 -8l121 534h65l-127 -559q64 -36 100.5 -102t36.5 -127q0 -92 -73 -92q-79 0 -82 98q-4 58 -13 90l-194 -852
q52 -37 117 -37q87 0 144.5 83.5t96.5 279.5zM225 545q0 -266 99 -398l200 877q-24 18 -59 18q-118 0 -179 -131.5t-61 -365.5z" />
    <glyph glyph-name="sterling" unicode="&#xa3;" horiz-adv-x="1040" 
d="M895 338h43q-2 -36 -4 -64.5t-8.5 -70t-16 -72.5t-26.5 -65t-40 -56t-56.5 -36.5t-75.5 -14.5q-39 0 -77 11t-79.5 37.5t-62.5 42.5t-66 52q-73 -143 -178 -143q-70 0 -108 42.5t-38 109.5q0 76 47.5 115.5t108.5 39.5q48 0 119 -33q20 131 20 340q0 83 -8 193h-211v65
h203q-4 39 -17 125t-19.5 157.5t-6.5 154.5q0 189 79 300t238 111q108 0 177 -65.5t69 -151.5q0 -38 -21.5 -61t-54.5 -23t-56.5 21t-23.5 59q0 30 -0.5 45.5t-6 39.5t-16 36t-31 21.5t-50.5 9.5q-93 0 -137.5 -89.5t-44.5 -236.5q0 -79 8 -150.5t21.5 -157t19.5 -145.5h256
v-65h-252q6 -70 6 -162q0 -248 -59 -422q53 -35 78.5 -50.5t74.5 -33.5t95 -18q93 0 136.5 63t51.5 195zM246 29q75 0 112 125q-59 43 -106 43q-36 0 -58 -23t-22 -61q0 -37 18.5 -60.5t55.5 -23.5z" />
    <glyph glyph-name="currency" unicode="&#xa4;" horiz-adv-x="1288" 
d="M1083 745q0 -157 -100 -278l203 -201l-62 -61l-202 203q-122 -101 -279 -101q-155 0 -278 99l-201 -201l-62 61l201 201q-98 122 -98 278q0 157 98 279l-201 201l62 61l201 -201q123 99 278 99q158 0 281 -99l200 201l62 -61l-203 -201q100 -121 100 -279zM293 745
q0 -145 102 -248.5t248 -103.5q147 0 249.5 103.5t102.5 248.5q0 147 -102.5 250t-249.5 103q-146 0 -248 -103t-102 -250z" />
    <glyph glyph-name="yen" unicode="&#xa5;" horiz-adv-x="1542" 
d="M1368 1595q-92 0 -134 -25.5t-81 -109.5l-293 -649h463v-63h-492l-12 -27v-141h504v-66h-504v-317q0 -52 5 -77.5t27.5 -45.5t63.5 -25.5t117 -5.5v-43h-553v43q76 0 117 5.5t63.5 25.5t27.5 45.5t5 77.5v317h-473v66h473v141l-12 27h-461v63h428l-323 651
q-41 84 -85 108.5t-137 24.5v43h502v-43q-138 0 -157 -22.5t26 -101.5q1 -3 2 -5l2 -4l311 -631h7l282 629q45 85 25.5 110t-158.5 25v43h424v-43z" />
    <glyph glyph-name="brokenbar" unicode="&#xa6;" horiz-adv-x="309" 
d="M102 1626h105v-766h-105v766zM102 492h105v-766h-105v766z" />
    <glyph glyph-name="section" unicode="&#xa7;" horiz-adv-x="798" 
d="M696 721q0 -52 -16 -100.5t-46 -89t-59 -70t-67 -60.5q117 -136 117 -284q0 -132 -75 -204.5t-181 -72.5q-105 0 -172.5 62.5t-67.5 132.5q0 38 19.5 60t50.5 22q32 0 51.5 -19t19.5 -55q1 -28 4.5 -46.5t14 -42t34.5 -36t62 -12.5q81 0 124.5 54t43.5 138
q0 77 -47 146.5t-176 181.5q-87 76 -132 126.5t-70.5 111t-25.5 135.5q0 69 31 133.5t67.5 104t88.5 83.5q-115 135 -115 283q0 132 75 204t181 72q105 0 171.5 -61.5t66.5 -132.5q0 -37 -18.5 -59.5t-49.5 -22.5q-32 0 -52 20t-20 56q-1 21 -2.5 36t-8.5 35.5t-18.5 33.5
t-33 22.5t-51.5 9.5q-81 0 -124.5 -54.5t-43.5 -140.5q0 -75 47.5 -145t175.5 -182q128 -109 177.5 -186t49.5 -187zM418 494q32 -28 61 -60q68 62 103.5 120.5t35.5 129.5q0 48 -12 85.5t-47 81t-69.5 77t-108.5 98.5q-23 20 -62 59q-68 -59 -103.5 -118t-35.5 -131
q0 -32 5 -59t21.5 -55.5t30 -48.5t48 -54.5t57.5 -56t76 -68.5z" />
    <glyph glyph-name="dieresis" unicode="&#xa8;" horiz-adv-x="747" 
d="M197 1368q-39 0 -67 27.5t-28 66.5q0 38 28.5 66t66.5 28q40 0 68 -28t28 -66q0 -40 -28 -67t-68 -27zM551 1368q-40 0 -67 27t-27 67q0 39 27.5 66.5t66.5 27.5q38 0 66 -28t28 -66q0 -39 -27.5 -66.5t-66.5 -27.5z" />
    <glyph glyph-name="copyright" unicode="&#xa9;" horiz-adv-x="1884" 
d="M944 1681q176 0 332 -67t267.5 -182t176 -275t64.5 -340q0 -176 -64.5 -334.5t-176 -274t-268 -183.5t-331.5 -68q-178 0 -335.5 68t-268.5 183.5t-175.5 274t-64.5 334.5q0 241 109.5 438.5t303 311.5t431.5 114zM944 1618q-166 0 -311.5 -63.5t-248 -171t-161.5 -255
t-59 -311.5t59 -311.5t161.5 -254t248 -169t311.5 -62.5q215 0 393.5 106t280.5 289t102 402q0 163 -60 311t-163 255.5t-247.5 171t-305.5 63.5zM424 813q0 230 144 381.5t356 151.5q77 0 144 -19t103.5 -41.5t66 -41.5t40.5 -19q12 0 16 15t4 65h43l31 -379h-43
q-21 166 -129.5 258t-267.5 92q-167 0 -282 -130.5t-115 -332.5q0 -204 118 -333.5t299 -129.5q163 0 281.5 100t165.5 281h45q-52 -214 -181.5 -332t-330.5 -118q-224 0 -366 150t-142 382z" />
    <glyph glyph-name="guillemotleft" unicode="&#xab;" horiz-adv-x="849" 
d="M223 600l238 -500h-43l-309 500l309 494h43zM514 600l240 -500h-43l-312 500l312 494h43z" />
    <glyph glyph-name="logicalnot" unicode="&#xac;" horiz-adv-x="1202" 
d="M102 870h998v-524h-105v420h-893v104z" />
    <glyph glyph-name="registered" unicode="&#xae;" horiz-adv-x="1888" 
d="M944 1681q176 0 332.5 -66.5t268.5 -181t177.5 -274.5t65.5 -340q0 -176 -65.5 -335t-177 -274.5t-269 -184t-332.5 -68.5q-178 0 -335.5 68.5t-268.5 184t-175.5 274.5t-64.5 335q0 240 109.5 437.5t303 311t431.5 113.5zM944 20q215 0 394.5 106.5t282.5 290t103 402.5
q0 218 -103 401.5t-282.5 290.5t-394.5 107q-166 0 -311.5 -63t-248 -170.5t-161.5 -254.5t-59 -311t59 -311.5t161.5 -255t248 -170t311.5 -62.5zM1198 451q51 -73 92.5 -96t100.5 -23v-43h-197l-303 450h-37h-123v-254q0 -97 18 -125t89 -28v-43h-310v43q71 0 89 28
t18 125v672q0 97 -18 125.5t-89 28.5v43h322q424 0 424 -307q0 -250 -279 -297zM844 803q168 0 246.5 57.5t78.5 186.5q0 128 -75.5 185.5t-229.5 57.5q-84 0 -133 -18v-469h113z" />
    <glyph glyph-name="macron" unicode="&#xaf;" horiz-adv-x="706" 
d="M102 1491h502v-70h-502v70z" />
    <glyph glyph-name="degree" unicode="&#xb0;" horiz-adv-x="1036" 
d="M518 852q-174 0 -295 121t-121 295q0 173 121 293t295 120t295 -120t121 -293q0 -174 -121 -295t-295 -121zM518 936q137 0 233.5 97t96.5 235t-96.5 233.5t-233.5 95.5q-138 0 -235 -95.5t-97 -233.5t97 -235t235 -97z" />
    <glyph glyph-name="plusminus" unicode="&#xb1;" horiz-adv-x="1003" 
d="M102 647v105h349v346h106v-346h344v-105h-344v-348h-106v348h-349zM102 96v105h799v-105h-799z" />
    <glyph glyph-name="acute" unicode="&#xb4;" horiz-adv-x="481" 
d="M100 1280l138 367h163l-235 -367h-66z" />
    <glyph glyph-name="paragraph" unicode="&#xb6;" horiz-adv-x="1261" 
d="M1159 1679v-43q-76 0 -116.5 -5.5t-63.5 -25t-28 -45t-5 -77.5v-1821h-88v1948h-219v-1948h-88v1266q-204 0 -326.5 97.5t-122.5 277.5q0 181 122.5 278.5t326.5 97.5h608z" />
    <glyph glyph-name="periodcentered" unicode="&#xb7;" horiz-adv-x="395" 
d="M197 717q-38 0 -66.5 28t-28.5 66q0 39 28 67.5t67 28.5q40 0 68 -28t28 -68q0 -38 -28 -66t-68 -28z" />
    <glyph glyph-name="cedilla" unicode="&#xb8;" horiz-adv-x="632" 
d="M223 -147l168 167h70l-111 -129q75 -6 127.5 -48t52.5 -109q0 -87 -62.5 -144.5t-158 -77t-207.5 -6.5l13 43q140 -8 225.5 34.5t85.5 135.5q0 40 -15 67t-44.5 41t-63 19.5t-80.5 6.5z" />
    <glyph glyph-name="guillemotright" unicode="&#xbb;" horiz-adv-x="849" 
d="M336 600l-238 494h43l310 -494l-310 -500h-43zM629 600l-240 494h43l311 -494l-311 -500h-43z" />
    <glyph glyph-name="onequarter" unicode="&#xbc;" horiz-adv-x="1466" 
d="M336 788q0 -58 15.5 -74t76.5 -16v-26h-266v26q61 0 76.5 16t15.5 74v728q0 20 -0.5 28.5t-2 20t-5.5 13.5t-10.5 4.5t-18 -3t-26 -12.5t-37.5 -19l-13 25l131 69l47 27l17 -14v-867zM1196 1638h72l-1018 -1638h-72zM733 281v59l412 643h72v-643h110v-59h-110v-164
q0 -58 15.5 -74t76.5 -16v-27h-267v27q61 0 77 16t16 74v164h-402zM788 340h347v551l-347 -547v-4z" />
    <glyph glyph-name="onehalf" unicode="&#xbd;" horiz-adv-x="1712" 
d="M336 788q0 -58 15.5 -74t76.5 -16v-26h-266v26q61 0 76.5 16t15.5 74v728q0 20 -0.5 28.5t-2 20t-5.5 13.5t-10.5 4.5t-18 -3t-26 -12.5t-37.5 -19l-13 25l131 69l47 27l17 -14v-867zM1225 1638h73l-1017 -1638h-74zM1413 70q58 0 82.5 22t50.5 98l25 -8l-45 -131
l-19 -51h-571v27q119 109 195 187t150.5 171t110 179t35.5 169q0 91 -42 148t-136 57q-114 0 -175.5 -81t-63.5 -216h-31q0 168 78 267.5t223 99.5q116 0 176 -70t60 -178q0 -288 -476 -686v-4h373z" />
    <glyph glyph-name="threequarters" unicode="&#xbe;" horiz-adv-x="1656" 
d="M154 711q0 34 45 34q31 0 61 -34q46 -39 113 -39q84 0 147.5 59.5t63.5 173.5q0 70 -22.5 121t-62.5 79t-85.5 41t-100.5 15v27q219 69 219 250q0 69 -39 115t-114 46q-148 0 -191 -155h-30q17 106 83.5 162.5t164.5 56.5q93 0 154 -59t61 -158q0 -161 -193 -250v-2
q111 -16 177.5 -84.5t66.5 -183.5q0 -130 -95 -212.5t-229 -82.5q-74 0 -134 23t-60 57zM1386 1638h74l-1018 -1638h-73zM922 281v59l413 643h72v-643h109v-59h-109v-164q0 -58 15.5 -74t76.5 -16v-27h-266v27q61 0 76.5 16t15.5 74v164h-403zM979 340h346v551l-346 -547v-4
z" />
    <glyph glyph-name="questiondown" unicode="&#xbf;" horiz-adv-x="811" 
d="M410 1106q40 0 68 -28t28 -66q0 -40 -28 -67t-68 -27q-39 0 -67 27.5t-28 66.5q0 38 28.5 66t66.5 28zM190 -293q0 -116 53 -184t154 -68q92 0 143.5 56t51.5 129q0 34 -10.5 60t-22.5 38.5t-22.5 33t-10.5 44.5q0 31 19 48t51 17q47 0 80 -52t33 -140q0 -126 -86 -214.5
t-236 -88.5t-238 87t-88 218q0 82 24.5 154.5t60.5 125t79 121.5t79 140t60.5 186t24.5 254h43q0 -180 -25 -317t-60.5 -216t-71 -142.5t-60.5 -134.5t-25 -155z" />
    <glyph glyph-name="Agrave" unicode="&#xc0;" horiz-adv-x="1425" 
d="M807 1843h-68l-233 367h164zM1212 186q29 -90 66 -116.5t127 -26.5v-43h-490v43q140 0 164 27t-10 116l-108 344h-570l-106 -344q-34 -89 -10 -116t165 -27v-43h-420v43q90 0 127 26.5t66 116.5l467 1500h61zM412 600h528l-262 838h-6z" />
    <glyph glyph-name="Aacute" unicode="&#xc1;" horiz-adv-x="1425" 
d="M938 2210l-236 -367h-65l137 367h164zM1212 186q29 -90 66 -116.5t127 -26.5v-43h-490v43q140 0 164 27t-10 116l-108 344h-570l-106 -344q-34 -89 -10 -116t165 -27v-43h-420v43q90 0 127 26.5t66 116.5l467 1500h61zM412 600h528l-262 838h-6z" />
    <glyph glyph-name="Acircumflex" unicode="&#xc2;" horiz-adv-x="1425" 
d="M711 2107l-193 -266h-65l182 367h149l183 -367h-66zM1212 186q29 -90 66 -116.5t127 -26.5v-43h-490v43q140 0 164 27t-10 116l-108 344h-570l-106 -344q-34 -89 -10 -116t165 -27v-43h-420v43q90 0 127 26.5t66 116.5l467 1500h61zM412 600h528l-262 838h-6z" />
    <glyph glyph-name="Atilde" unicode="&#xc3;" horiz-adv-x="1425" 
d="M559 2071q-48 0 -70 -34t-28 -104h-43q5 112 39 176t110 64q43 0 85 -21.5t70.5 -47t66.5 -47t73 -21.5q48 0 69.5 34t26.5 103h43q-5 -112 -39 -176t-110 -64q-42 0 -84 21.5t-70.5 47.5t-66.5 47.5t-72 21.5zM1212 186q29 -90 66 -116.5t127 -26.5v-43h-490v43
q140 0 164 27t-10 116l-108 344h-570l-106 -344q-34 -89 -10 -116t165 -27v-43h-420v43q90 0 127 26.5t66 116.5l467 1500h61zM412 600h528l-262 838h-6z" />
    <glyph glyph-name="Adieresis" unicode="&#xc4;" horiz-adv-x="1425" 
d="M532 1931q-39 0 -66.5 27.5t-27.5 66.5q0 38 28 66.5t66 28.5q40 0 68.5 -28.5t28.5 -66.5q0 -39 -28.5 -66.5t-68.5 -27.5zM887 1931q-40 0 -67 27t-27 67q0 39 27.5 67t66.5 28q38 0 66 -28.5t28 -66.5q0 -39 -27.5 -66.5t-66.5 -27.5zM1212 186q29 -90 66 -116.5
t127 -26.5v-43h-490v43q140 0 164 27t-10 116l-108 344h-570l-106 -344q-34 -89 -10 -116t165 -27v-43h-420v43q90 0 127 26.5t66 116.5l467 1500h61zM412 600h528l-262 838h-6z" />
    <glyph glyph-name="Aring" unicode="&#xc5;" horiz-adv-x="1425" 
d="M711 1853q-86 0 -143.5 59.5t-57.5 139.5q0 81 57.5 140t143.5 59q84 0 140 -59t56 -140q0 -80 -56 -139.5t-140 -59.5zM711 2183q-63 0 -98 -39.5t-35 -91.5q0 -54 34.5 -93.5t98.5 -39.5q62 0 96.5 39.5t34.5 93.5q0 52 -34.5 91.5t-96.5 39.5zM1212 186
q29 -90 66 -116.5t127 -26.5v-43h-490v43q140 0 164 27t-10 116l-108 344h-570l-106 -344q-34 -89 -10 -116t165 -27v-43h-420v43q90 0 127 26.5t66 116.5l467 1500h61zM412 600h528l-262 838h-6z" />
    <glyph glyph-name="AE" unicode="&#xc6;" horiz-adv-x="1746" 
d="M1683 422l41 -12l-108 -373l-10 -37h-918v43q76 0 117 5.5t63.5 25.5t27.5 45.5t5 77.5v344h-442l-154 -361q-10 -23 -13.5 -32t-9.5 -26t-6.5 -22.5t0 -17t5.5 -14.5t13.5 -9.5t21.5 -8t31.5 -4t41 -3t53.5 -0.5v-43h-422v43q92 0 133.5 25.5t77.5 111.5l545 1278
q10 23 13.5 32t9.5 26t6.5 22.5t0 17t-5.5 14.5t-13.5 9.5t-21.5 8t-31.5 4t-41 3t-53.5 0.5v43h960l5 -41l34 -317l-45 -4q-9 83 -18.5 132.5t-21.5 84t-33 50t-44.5 21t-64.5 5.5h-383v-674h277q42 0 64.5 4t42 16t27.5 39t12.5 67.5t4.5 108.5h45v-540h-45
q0 68 -4.5 108.5t-12.5 67.5t-27.5 39t-42 16t-64.5 4h-277v-639q0 -72 18 -94t78 -22h306q67 0 103 24t69.5 95.5t80.5 232.5zM487 610h414v957h-6z" />
    <glyph glyph-name="Ccedilla" unicode="&#xc7;" horiz-adv-x="1271" 
d="M1231 662q-23 -195 -81 -341.5t-160 -242.5t-240 -115l-68 -78q75 -6 127.5 -48t52.5 -109q0 -87 -62.5 -144.5t-158 -77t-207.5 -6.5l12 43q140 -8 226 34.5t86 135.5q0 40 -15 67t-44.5 40.5t-62.5 19t-81 6.5l113 113q-179 4 -314 120t-204.5 308.5t-69.5 431.5
q0 180 43 337.5t121 273t193 182.5t253 67q72 0 137 -18.5t102 -41.5t70 -41.5t48 -18.5q21 0 28.5 18.5t7.5 81.5h43l31 -563h-43q-51 514 -407 514q-149 0 -262 -107t-170.5 -285t-57.5 -399q0 -220 57.5 -397.5t169.5 -283t261 -105.5q192 0 320.5 171.5t162.5 457.5h43z
" />
    <glyph glyph-name="Egrave" unicode="&#xc8;" horiz-adv-x="1196" 
d="M700 1790h-67l-234 367h164zM1047 1638l4 -41l34 -317l-43 -4q-11 102 -22.5 157.5t-34 87.5t-49.5 40t-78 8h-477v-674h315q42 0 64.5 4t42.5 16t28 39t12.5 68t4.5 108h45v-540h-45q0 67 -4.5 108t-12.5 68t-28 39t-42.5 16t-64.5 4h-315v-639q0 -72 18 -94t78 -22h402
q67 0 103.5 23.5t70.5 96t80 232.5l43 -12l-111 -373l-10 -37h-1014v43q76 0 117 5.5t63.5 25.5t27.5 45.5t5 77.5v1245q0 52 -5 77.5t-28 45t-63.5 25t-116.5 5.5v43h1006z" />
    <glyph glyph-name="Eacute" unicode="&#xc9;" horiz-adv-x="1196" 
d="M530 1790l138 367h163l-235 -367h-66zM1047 1638l4 -41l34 -317l-43 -4q-11 102 -22.5 157.5t-34 87.5t-49.5 40t-78 8h-477v-674h315q42 0 64.5 4t42.5 16t28 39t12.5 68t4.5 108h45v-540h-45q0 67 -4.5 108t-12.5 68t-28 39t-42.5 16t-64.5 4h-315v-639q0 -72 18 -94
t78 -22h402q67 0 103.5 23.5t70.5 96t80 232.5l43 -12l-111 -373l-10 -37h-1014v43q76 0 117 5.5t63.5 25.5t27.5 45.5t5 77.5v1245q0 52 -5 77.5t-28 45t-63.5 25t-116.5 5.5v43h1006z" />
    <glyph glyph-name="Ecircumflex" unicode="&#xca;" horiz-adv-x="1196" 
d="M604 2054l-192 -266h-66l182 366h150l182 -366h-65zM1133 422l43 -12l-111 -373l-10 -37h-1014v43q76 0 117 5.5t63.5 25.5t27.5 45.5t5 77.5v1245q0 52 -5 77.5t-28 45t-63.5 25t-116.5 5.5v43h1006l4 -41l34 -317l-43 -4q-11 102 -22.5 157.5t-34 87.5t-49.5 40t-78 8
h-477v-674h315q42 0 64.5 4t42.5 16t28 39t12.5 68t4.5 108h45v-540h-45q0 67 -4.5 108t-12.5 68t-28 39t-42.5 16t-64.5 4h-315v-639q0 -72 18 -94t78 -22h402q67 0 103.5 23.5t70.5 96t80 232.5z" />
    <glyph glyph-name="Edieresis" unicode="&#xcb;" horiz-adv-x="1196" 
d="M426 1878q-39 0 -66.5 27.5t-27.5 66.5q0 38 28 66t66 28q40 0 68 -28t28 -66q0 -40 -28 -67t-68 -27zM780 1878q-40 0 -67 27t-27 67q0 39 27.5 66.5t66.5 27.5q38 0 66 -28t28 -66q0 -39 -27.5 -66.5t-66.5 -27.5zM1047 1638l4 -41l34 -317l-43 -4q-11 102 -22.5 157.5
t-34 87.5t-49.5 40t-78 8h-477v-674h315q42 0 64.5 4t42.5 16t28 39t12.5 68t4.5 108h45v-540h-45q0 67 -4.5 108t-12.5 68t-28 39t-42.5 16t-64.5 4h-315v-639q0 -72 18 -94t78 -22h402q67 0 103.5 23.5t70.5 96t80 232.5l43 -12l-111 -373l-10 -37h-1014v43q76 0 117 5.5
t63.5 25.5t27.5 45.5t5 77.5v1245q0 52 -5 77.5t-28 45t-63.5 25t-116.5 5.5v43h1006z" />
    <glyph glyph-name="Igrave" unicode="&#xcc;" horiz-adv-x="634" 
d="M414 1790h-68l-233 367h163zM254 1442q0 52 -5 77.5t-28 45t-63.5 25t-116.5 5.5v43h553v-43q-76 0 -116.5 -5.5t-63.5 -25t-28 -45t-5 -77.5v-1245q0 -52 5 -77.5t27.5 -45.5t63.5 -25.5t117 -5.5v-43h-553v43q76 0 117 5.5t63.5 25.5t27.5 45.5t5 77.5v1245z" />
    <glyph glyph-name="Iacute" unicode="&#xcd;" horiz-adv-x="634" 
d="M244 1790l137 367h164l-236 -367h-65zM254 1442q0 52 -5 77.5t-28 45t-63.5 25t-116.5 5.5v43h553v-43q-76 0 -116.5 -5.5t-63.5 -25t-28 -45t-5 -77.5v-1245q0 -52 5 -77.5t27.5 -45.5t63.5 -25.5t117 -5.5v-43h-553v43q76 0 117 5.5t63.5 25.5t27.5 45.5t5 77.5v1245z
" />
    <glyph glyph-name="Icircumflex" unicode="&#xce;" horiz-adv-x="634" 
d="M317 2054l-192 -266h-66l183 366h149l182 -366h-65zM594 1595q-76 0 -116.5 -5.5t-63.5 -25t-28 -45t-5 -77.5v-1245q0 -52 5 -77.5t27.5 -45.5t63.5 -25.5t117 -5.5v-43h-553v43q76 0 117 5.5t63.5 25.5t27.5 45.5t5 77.5v1245q0 52 -5 77.5t-28 45t-63.5 25t-116.5 5.5
v43h553v-43z" />
    <glyph glyph-name="Idieresis" unicode="&#xcf;" horiz-adv-x="634" 
d="M139 1878q-39 0 -66.5 27.5t-27.5 66.5q0 38 28 66t66 28q40 0 68.5 -28t28.5 -66q0 -39 -28.5 -66.5t-68.5 -27.5zM494 1878q-40 0 -67.5 27t-27.5 67q0 38 27.5 66t67.5 28q38 0 66 -28t28 -66q0 -39 -27.5 -66.5t-66.5 -27.5zM254 1442q0 52 -5 77.5t-28 45t-63.5 25
t-116.5 5.5v43h553v-43q-76 0 -116.5 -5.5t-63.5 -25t-28 -45t-5 -77.5v-1245q0 -52 5 -77.5t27.5 -45.5t63.5 -25.5t117 -5.5v-43h-553v43q76 0 117 5.5t63.5 25.5t27.5 45.5t5 77.5v1245z" />
    <glyph glyph-name="Eth" unicode="&#xd0;" horiz-adv-x="1462" 
d="M600 1638q173 0 317 -55.5t247 -159t160.5 -258.5t57.5 -346q0 -190 -59.5 -345.5t-164.5 -258.5t-248 -159t-310 -56h-559v43q76 0 117 5.5t63.5 25.5t27.5 45.5t5 77.5v653h-172v61h172v531q0 52 -5 77.5t-28 45t-63.5 25t-116.5 5.5v43h559zM600 70q295 0 470 204
t175 545t-175 545.5t-470 204.5q-141 0 -219 -37v-621h405v-61h-405v-744q76 -36 219 -36z" />
    <glyph glyph-name="Ntilde" unicode="&#xd1;" horiz-adv-x="1525" 
d="M571 2017q-48 0 -70 -34t-28 -103h-43q11 240 150 240q35 0 68.5 -14t60 -34.5t52 -41t55 -34.5t58.5 -14q49 0 70.5 34.5t26.5 103.5h43q-11 -240 -150 -240q-42 0 -84 21.5t-70.5 47t-66.5 47t-72 21.5zM1485 1638v-43q-76 0 -116.5 -5.5t-63.5 -25t-28 -45t-5 -77.5
v-1489h-62l-886 1444v-1200q0 -52 5.5 -78t28 -45.5t63.5 -25t116 -5.5v-43h-496v43q76 0 117 5.5t63.5 25.5t27.5 45.5t5 77.5v1310q-41 54 -85.5 71t-127.5 17v43h291l864 -1402h6v1206q0 52 -5.5 77.5t-28 45t-63.5 25t-116 5.5v43h496z" />
    <glyph glyph-name="Ograve" unicode="&#xd2;" horiz-adv-x="1355" 
d="M774 1790h-67l-234 367h164zM678 -41q-137 0 -251 68t-189 185t-116.5 273t-41.5 334t41.5 334t116.5 273t189 185t251 68q138 0 252 -68t189 -185t116 -273t41 -334t-41 -334t-116 -273t-189 -185t-252 -68zM748 29q139 13 234.5 123t134 293t18.5 415
q-31 352 -174.5 561t-352.5 191q-139 -13 -235 -123.5t-135 -294.5t-19 -416q20 -231 91 -404.5t184.5 -265t253.5 -79.5z" />
    <glyph glyph-name="Oacute" unicode="&#xd3;" horiz-adv-x="1355" 
d="M604 1790l137 367h164l-235 -367h-66zM678 -41q-137 0 -251 68t-189 185t-116.5 273t-41.5 334t41.5 334t116.5 273t189 185t251 68q138 0 252 -68t189 -185t116 -273t41 -334t-41 -334t-116 -273t-189 -185t-252 -68zM748 29q139 13 234.5 123t134 293t18.5 415
q-31 352 -174.5 561t-352.5 191q-139 -13 -235 -123.5t-135 -294.5t-19 -416q20 -231 91 -404.5t184.5 -265t253.5 -79.5z" />
    <glyph glyph-name="Ocircumflex" unicode="&#xd4;" horiz-adv-x="1355" 
d="M680 2054l-193 -266h-65l182 366h150l182 -366h-66zM678 1679q138 0 252 -68t189 -185t116 -273t41 -334t-41 -334t-116 -273t-189 -185t-252 -68q-137 0 -251 68t-189 185t-116.5 273t-41.5 334t41.5 334t116.5 273t189 185t251 68zM748 29q139 13 234.5 123t134 293
t18.5 415q-31 352 -174.5 561t-352.5 191q-139 -13 -235 -123.5t-135 -294.5t-19 -416q20 -231 91 -404.5t184.5 -265t253.5 -79.5z" />
    <glyph glyph-name="Otilde" unicode="&#xd5;" horiz-adv-x="1355" 
d="M821 1880q-42 0 -84 21.5t-70.5 47t-66.5 47t-72 21.5q-48 0 -70 -34t-28 -103h-43q11 240 150 240q35 0 68.5 -14t60 -34.5t52 -41t55 -34.5t58.5 -14q49 0 70.5 34.5t26.5 103.5h43q-11 -240 -150 -240zM678 -41q-137 0 -251 68t-189 185t-116.5 273t-41.5 334
t41.5 334t116.5 273t189 185t251 68q138 0 252 -68t189 -185t116 -273t41 -334t-41 -334t-116 -273t-189 -185t-252 -68zM748 29q139 13 234.5 123t134 293t18.5 415q-31 352 -174.5 561t-352.5 191q-139 -13 -235 -123.5t-135 -294.5t-19 -416q20 -231 91 -404.5
t184.5 -265t253.5 -79.5z" />
    <glyph glyph-name="Odieresis" unicode="&#xd6;" horiz-adv-x="1355" 
d="M502 1878q-39 0 -66.5 27.5t-27.5 66.5q0 38 28 66t66 28q40 0 68 -28t28 -66q0 -40 -28 -67t-68 -27zM856 1878q-40 0 -67 27t-27 67q0 39 27.5 66.5t66.5 27.5q38 0 66 -28t28 -66q0 -39 -27.5 -66.5t-66.5 -27.5zM678 -41q-137 0 -251 68t-189 185t-116.5 273
t-41.5 334t41.5 334t116.5 273t189 185t251 68q138 0 252 -68t189 -185t116 -273t41 -334t-41 -334t-116 -273t-189 -185t-252 -68zM748 29q139 13 234.5 123t134 293t18.5 415q-31 352 -174.5 561t-352.5 191q-139 -13 -235 -123.5t-135 -294.5t-19 -416q20 -231 91 -404.5
t184.5 -265t253.5 -79.5z" />
    <glyph glyph-name="multiply" unicode="&#xd7;" horiz-adv-x="845" 
d="M102 799l74 73l248 -245l246 243l73 -73l-245 -246l243 -244l-73 -74l-244 244l-246 -246l-74 76l246 244z" />
    <glyph glyph-name="Oslash" unicode="&#xd8;" horiz-adv-x="1396" 
d="M1100 1454q86 -118 131 -282t45 -353q0 -178 -41 -334t-116 -273t-189 -185t-252 -68q-204 0 -354 147l-121 -210l-53 30l131 228q-97 118 -149 291.5t-52 373.5q0 178 41.5 334t116.5 273t189 185t251 68q225 0 381 -174l137 240l53 -31zM219 778q27 -299 135 -495
l633 1097q-72 121 -169 181.5t-210 50.5q-139 -13 -235 -123.5t-135 -294.5t-19 -416zM748 29q139 13 234.5 123t134 293t18.5 415q-24 267 -115 457l-629 -1094q144 -212 357 -194z" />
    <glyph glyph-name="Ugrave" unicode="&#xd9;" horiz-adv-x="1540" 
d="M901 1790h-67l-234 367h164zM1217 1442q0 52 -5 77.5t-28 45t-63.5 25t-116.5 5.5v43h495v-43q-75 0 -116 -5.5t-63.5 -25t-28 -45t-5.5 -77.5v-957q0 -80 -13 -150.5t-47 -141t-87 -121t-140.5 -82t-199.5 -31.5q-122 0 -217 29.5t-156 79t-100.5 119t-55.5 144.5
t-16 161v950q0 52 -5 77.5t-28 45t-63.5 25t-116.5 5.5v43h553v-43q-76 0 -116.5 -5.5t-63.5 -25t-28 -45t-5 -77.5v-957q0 -235 106 -345.5t320 -110.5q193 0 301.5 113t108.5 343v957z" />
    <glyph glyph-name="Uacute" unicode="&#xda;" horiz-adv-x="1540" 
d="M731 1790l137 367h164l-235 -367h-66zM1217 1442q0 52 -5 77.5t-28 45t-63.5 25t-116.5 5.5v43h495v-43q-75 0 -116 -5.5t-63.5 -25t-28 -45t-5.5 -77.5v-957q0 -80 -13 -150.5t-47 -141t-87 -121t-140.5 -82t-199.5 -31.5q-122 0 -217 29.5t-156 79t-100.5 119
t-55.5 144.5t-16 161v950q0 52 -5 77.5t-28 45t-63.5 25t-116.5 5.5v43h553v-43q-76 0 -116.5 -5.5t-63.5 -25t-28 -45t-5 -77.5v-957q0 -235 106 -345.5t320 -110.5q193 0 301.5 113t108.5 343v957z" />
    <glyph glyph-name="Ucircumflex" unicode="&#xdb;" horiz-adv-x="1540" 
d="M805 2054l-193 -266h-65l182 366h150l182 -366h-66zM1499 1638v-43q-75 0 -116 -5.5t-63.5 -25t-28 -45t-5.5 -77.5v-957q0 -80 -13 -150.5t-47 -141t-87 -121t-140.5 -82t-199.5 -31.5q-122 0 -217 29.5t-156 79t-100.5 119t-55.5 144.5t-16 161v950q0 52 -5 77.5
t-28 45t-63.5 25t-116.5 5.5v43h553v-43q-76 0 -116.5 -5.5t-63.5 -25t-28 -45t-5 -77.5v-957q0 -235 106 -345.5t320 -110.5q193 0 301.5 113t108.5 343v957q0 52 -5 77.5t-28 45t-63.5 25t-116.5 5.5v43h495z" />
    <glyph glyph-name="Udieresis" unicode="&#xdc;" horiz-adv-x="1540" 
d="M627 1878q-39 0 -67 27.5t-28 66.5q0 38 28.5 66t66.5 28q40 0 68 -28t28 -66q0 -40 -28 -67t-68 -27zM981 1878q-40 0 -67 27t-27 67q0 39 27.5 66.5t66.5 27.5q38 0 66 -28t28 -66q0 -39 -27.5 -66.5t-66.5 -27.5zM1217 1442q0 52 -5 77.5t-28 45t-63.5 25t-116.5 5.5
v43h495v-43q-75 0 -116 -5.5t-63.5 -25t-28 -45t-5.5 -77.5v-957q0 -80 -13 -150.5t-47 -141t-87 -121t-140.5 -82t-199.5 -31.5q-122 0 -217 29.5t-156 79t-100.5 119t-55.5 144.5t-16 161v950q0 52 -5 77.5t-28 45t-63.5 25t-116.5 5.5v43h553v-43q-76 0 -116.5 -5.5
t-63.5 -25t-28 -45t-5 -77.5v-957q0 -235 106 -345.5t320 -110.5q193 0 301.5 113t108.5 343v957z" />
    <glyph glyph-name="Yacute" unicode="&#xdd;" horiz-adv-x="1306" 
d="M616 1790l138 367h164l-236 -367h-66zM737 197q0 -52 5 -77.5t27.5 -45.5t63.5 -25.5t117 -5.5v-43h-553v43q76 0 117 5.5t63.5 25.5t27.5 45.5t5 77.5v524l-368 741q-41 84 -85 108.5t-137 24.5v43h502v-43q-138 0 -157 -22.5t26 -101.5q1 -3 2 -5l2 -4l312 -631h6
l282 629q45 85 25.5 110t-158.5 25v43h424v-43q-92 0 -134 -25.5t-81 -109.5l-334 -739v-524z" />
    <glyph glyph-name="Thorn" unicode="&#xde;" horiz-adv-x="1171" 
d="M41 0v43q76 0 117 5.5t63.5 25.5t27.5 45.5t5 77.5v1245q0 52 -5 77.5t-28 45t-63.5 25t-116.5 5.5v43h553v-43q-76 0 -116.5 -5.5t-63.5 -25t-28 -45t-5 -77.5v-164h205q239 0 381.5 -118t142.5 -347q0 -109 -36 -195.5t-99 -141t-145 -83t-177 -28.5q-119 0 -272 41
v-209q0 -52 5 -77.5t27.5 -45.5t63.5 -25.5t117 -5.5v-43h-553zM631 432q150 0 246 101t96 280q0 128 -54 219.5t-140.5 133.5t-194.5 42q-105 0 -203 -37v-698q134 -41 250 -41z" />
    <glyph glyph-name="germandbls" unicode="&#xdf;" horiz-adv-x="1015" 
d="M98 0v43q87 0 110 28t23 126v874h-129v43q75 0 102 26.5t27 108.5q0 224 92.5 327t245.5 103q142 0 226 -85t84 -228q0 -114 -69.5 -218t-213.5 -175v-6q150 -33 254 -189t104 -360q0 -206 -69 -332.5t-199 -126.5q-93 0 -132.5 44t-39.5 99q0 32 19.5 53t52.5 21
q32 0 50.5 -21.5t16.5 -54.5q0 -7 -2 -24t-1.5 -23.5t3.5 -16t13 -13t26 -3.5q66 0 100.5 104.5t34.5 268.5q0 239 -104.5 382t-265.5 143v43q131 58 212 165t81 230q0 115 -47.5 184.5t-139.5 69.5q-219 0 -219 -355v-1058q0 -97 23.5 -125.5t111.5 -28.5v-43h-381z" />
    <glyph glyph-name="agrave" unicode="&#xe0;" horiz-adv-x="856" 
d="M520 1280h-67l-234 367h164zM793 133h43q-12 -45 -21.5 -70t-26 -52.5t-40.5 -39.5t-58 -12q-125 0 -125 176v39h-4q-12 -21 -18.5 -32t-24.5 -37t-32.5 -42t-39.5 -38t-49 -34.5t-56.5 -22t-66.5 -9.5q-104 0 -158.5 68t-54.5 184q0 40 7.5 76t17.5 65t31 57.5t38 49
t48 43.5t51.5 37.5t59.5 35t60 31t64 31.5q22 11 33 16l94 45v103q0 48 -2.5 80.5t-12.5 67.5t-28 56t-50.5 34.5t-78.5 13.5q-69 0 -115.5 -30t-46.5 -79q0 -24 19.5 -63t19.5 -62q0 -28 -19.5 -44.5t-53.5 -16.5q-39 0 -60.5 33.5t-21.5 95.5q0 102 80.5 163.5t207.5 61.5
q277 0 277 -317v-666q0 -56 7.5 -78t33.5 -22q22 0 36 22t36 82zM319 61q66 0 119.5 41t126.5 138v393l-92 -45q-68 -34 -117.5 -67.5t-91 -76t-63 -95t-21.5 -113.5q0 -85 36 -130t103 -45z" />
    <glyph glyph-name="aacute" unicode="&#xe1;" horiz-adv-x="856" 
d="M651 1647l-235 -367h-66l137 367h164zM793 133h43q-12 -45 -21.5 -70t-26 -52.5t-40.5 -39.5t-58 -12q-125 0 -125 176v39h-4q-12 -21 -18.5 -32t-24.5 -37t-32.5 -42t-39.5 -38t-49 -34.5t-56.5 -22t-66.5 -9.5q-104 0 -158.5 68t-54.5 184q0 40 7.5 76t17.5 65t31 57.5
t38 49t48 43.5t51.5 37.5t59.5 35t60 31t64 31.5q22 11 33 16l94 45v103q0 48 -2.5 80.5t-12.5 67.5t-28 56t-50.5 34.5t-78.5 13.5q-69 0 -115.5 -30t-46.5 -79q0 -24 19.5 -63t19.5 -62q0 -28 -19.5 -44.5t-53.5 -16.5q-39 0 -60.5 33.5t-21.5 95.5q0 102 80.5 163.5
t207.5 61.5q277 0 277 -317v-666q0 -56 7.5 -78t33.5 -22q22 0 36 22t36 82zM319 61q66 0 119.5 41t126.5 138v393l-92 -45q-68 -34 -117.5 -67.5t-91 -76t-63 -95t-21.5 -113.5q0 -85 36 -130t103 -45z" />
    <glyph glyph-name="acircumflex" unicode="&#xe2;" horiz-adv-x="856" 
d="M424 1544l-193 -266h-65l182 367h150l182 -367h-66zM793 133h43q-12 -45 -21.5 -70t-26 -52.5t-40.5 -39.5t-58 -12q-125 0 -125 176v39h-4q-12 -21 -18.5 -32t-24.5 -37t-32.5 -42t-39.5 -38t-49 -34.5t-56.5 -22t-66.5 -9.5q-104 0 -158.5 68t-54.5 184q0 40 7.5 76
t17.5 65t31 57.5t38 49t48 43.5t51.5 37.5t59.5 35t60 31t64 31.5q22 11 33 16l94 45v103q0 48 -2.5 80.5t-12.5 67.5t-28 56t-50.5 34.5t-78.5 13.5q-69 0 -115.5 -30t-46.5 -79q0 -24 19.5 -63t19.5 -62q0 -28 -19.5 -44.5t-53.5 -16.5q-39 0 -60.5 33.5t-21.5 95.5
q0 102 80.5 163.5t207.5 61.5q277 0 277 -317v-666q0 -56 7.5 -78t33.5 -22q22 0 36 22t36 82zM319 61q66 0 119.5 41t126.5 138v393l-92 -45q-68 -34 -117.5 -67.5t-91 -76t-63 -95t-21.5 -113.5q0 -85 36 -130t103 -45z" />
    <glyph glyph-name="atilde" unicode="&#xe3;" horiz-adv-x="856" 
d="M272 1507q-48 0 -70 -34t-28 -103h-43q11 240 150 240q43 0 85 -21.5t70 -47t66 -47t73 -21.5q49 0 70.5 34t26.5 103h43q-11 -240 -150 -240q-42 0 -84 21.5t-70.5 47t-66.5 47t-72 21.5zM793 133h43q-12 -45 -21.5 -70t-26 -52.5t-40.5 -39.5t-58 -12q-125 0 -125 176
v39h-4q-12 -21 -18.5 -32t-24.5 -37t-32.5 -42t-39.5 -38t-49 -34.5t-56.5 -22t-66.5 -9.5q-104 0 -158.5 68t-54.5 184q0 40 7.5 76t17.5 65t31 57.5t38 49t48 43.5t51.5 37.5t59.5 35t60 31t64 31.5q22 11 33 16l94 45v103q0 48 -2.5 80.5t-12.5 67.5t-28 56t-50.5 34.5
t-78.5 13.5q-69 0 -115.5 -30t-46.5 -79q0 -24 19.5 -63t19.5 -62q0 -28 -19.5 -44.5t-53.5 -16.5q-39 0 -60.5 33.5t-21.5 95.5q0 102 80.5 163.5t207.5 61.5q277 0 277 -317v-666q0 -56 7.5 -78t33.5 -22q22 0 36 22t36 82zM319 61q66 0 119.5 41t126.5 138v393l-92 -45
q-68 -34 -117.5 -67.5t-91 -76t-63 -95t-21.5 -113.5q0 -85 36 -130t103 -45z" />
    <glyph glyph-name="adieresis" unicode="&#xe4;" horiz-adv-x="856" 
d="M246 1368q-39 0 -66.5 27.5t-27.5 66.5q0 38 28 66t66 28q40 0 68 -28t28 -66q0 -40 -28 -67t-68 -27zM600 1368q-40 0 -67 27t-27 67q0 39 27.5 66.5t66.5 27.5q38 0 66 -28t28 -66q0 -39 -27.5 -66.5t-66.5 -27.5zM793 133h43q-12 -45 -21.5 -70t-26 -52.5t-40.5 -39.5
t-58 -12q-125 0 -125 176v39h-4q-12 -21 -18.5 -32t-24.5 -37t-32.5 -42t-39.5 -38t-49 -34.5t-56.5 -22t-66.5 -9.5q-104 0 -158.5 68t-54.5 184q0 40 7.5 76t17.5 65t31 57.5t38 49t48 43.5t51.5 37.5t59.5 35t60 31t64 31.5q22 11 33 16l94 45v103q0 48 -2.5 80.5
t-12.5 67.5t-28 56t-50.5 34.5t-78.5 13.5q-69 0 -115.5 -30t-46.5 -79q0 -24 19.5 -63t19.5 -62q0 -28 -19.5 -44.5t-53.5 -16.5q-39 0 -60.5 33.5t-21.5 95.5q0 102 80.5 163.5t207.5 61.5q277 0 277 -317v-666q0 -56 7.5 -78t33.5 -22q22 0 36 22t36 82zM319 61
q66 0 119.5 41t126.5 138v393l-92 -45q-68 -34 -117.5 -67.5t-91 -76t-63 -95t-21.5 -113.5q0 -85 36 -130t103 -45z" />
    <glyph glyph-name="aring" unicode="&#xe5;" horiz-adv-x="856" 
d="M424 1290q-86 0 -143.5 59.5t-57.5 139.5q0 81 57.5 140t143.5 59q85 0 141 -59t56 -140q0 -80 -56.5 -139.5t-140.5 -59.5zM424 1620q-63 0 -98 -39.5t-35 -91.5q0 -54 34.5 -93.5t98.5 -39.5q62 0 96.5 39.5t34.5 93.5q0 52 -34.5 91.5t-96.5 39.5zM793 133h43
q-12 -45 -21.5 -70t-26 -52.5t-40.5 -39.5t-58 -12q-125 0 -125 176v39h-4q-12 -21 -18.5 -32t-24.5 -37t-32.5 -42t-39.5 -38t-49 -34.5t-56.5 -22t-66.5 -9.5q-104 0 -158.5 68t-54.5 184q0 40 7.5 76t17.5 65t31 57.5t38 49t48 43.5t51.5 37.5t59.5 35t60 31t64 31.5
q22 11 33 16l94 45v103q0 48 -2.5 80.5t-12.5 67.5t-28 56t-50.5 34.5t-78.5 13.5q-69 0 -115.5 -30t-46.5 -79q0 -24 19.5 -63t19.5 -62q0 -28 -19.5 -44.5t-53.5 -16.5q-39 0 -60.5 33.5t-21.5 95.5q0 102 80.5 163.5t207.5 61.5q277 0 277 -317v-666q0 -56 7.5 -78
t33.5 -22q22 0 36 22t36 82zM319 61q66 0 119.5 41t126.5 138v393l-92 -45q-68 -34 -117.5 -67.5t-91 -76t-63 -95t-21.5 -113.5q0 -85 36 -130t103 -45z" />
    <glyph glyph-name="ae" unicode="&#xe6;" horiz-adv-x="1304" 
d="M1182 436h43q-24 -233 -112.5 -355t-213.5 -122q-103 0 -176.5 67t-112.5 189q-29 -48 -57 -85.5t-70.5 -80t-96 -66.5t-112.5 -24q-104 0 -158.5 67t-54.5 177q0 41 8 78.5t20 67.5t34.5 60t41.5 52t53 47t56.5 40t64 37.5t64.5 34t68 33.5l94 45v103q0 48 -2.5 80.5
t-12.5 67.5t-27.5 56t-50 34.5t-77.5 13.5q-69 0 -114 -30t-45 -79q0 -24 18 -63t18 -62q0 -28 -19.5 -44.5t-51.5 -16.5q-40 0 -62 33t-22 96q0 102 81 163.5t208 61.5q198 0 253 -168q46 79 112 123.5t147 44.5q140 0 221.5 -140.5t81.5 -371.5h-535v-45q0 -134 28 -244.5
t84 -179t130 -68.5q83 0 150.5 88.5t103.5 284.5zM911 1042q-64 0 -112 -51.5t-74 -132.5t-35 -188h410q0 73 -10.5 137t-32 118t-59.5 85.5t-87 31.5zM319 61q68 0 132 46t145 157q-31 121 -31 268v101l-92 -45q-68 -34 -117.5 -67.5t-91 -76t-63 -95t-21.5 -113.5
q0 -85 36 -130t103 -45z" />
    <glyph glyph-name="ccedilla" unicode="&#xe7;" horiz-adv-x="800" 
d="M481 -109q75 -6 128 -48t53 -109q0 -87 -63 -144.5t-158.5 -77t-207.5 -6.5l13 43q140 -8 225.5 34.5t85.5 135.5q0 40 -15 67t-44.5 41t-63 19.5t-80.5 6.5l109 108q-10 -2 -27 -2q-113 0 -194.5 72t-121.5 196t-40 287q0 271 102.5 434.5t272.5 163.5q63 0 116 -26
t84.5 -66.5t48.5 -84.5t17 -85q0 -92 -74 -92q-79 0 -82 98q-4 186 -119 186q-118 0 -178.5 -131.5t-60.5 -365.5q0 -223 71.5 -355.5t196.5 -132.5q87 0 145 83.5t97 279.5h43q-34 -327 -189 -424z" />
    <glyph glyph-name="egrave" unicode="&#xe8;" horiz-adv-x="817" 
d="M528 1280h-67l-234 367h164zM694 436h43q-24 -233 -112 -355t-213 -122q-158 0 -245 156t-87 417q0 160 40 290t121 210t189 80q141 0 222 -140t81 -372h-532v-45q0 -134 27.5 -244.5t82.5 -179t129 -68.5q83 0 150.5 88.5t103.5 284.5zM424 1042q-93 0 -149 -103.5
t-70 -268.5h407q0 73 -10 137t-31.5 118t-59 85.5t-87.5 31.5z" />
    <glyph glyph-name="eacute" unicode="&#xe9;" horiz-adv-x="817" 
d="M659 1647l-235 -367h-66l138 367h163zM694 436h43q-24 -233 -112 -355t-213 -122q-158 0 -245 156t-87 417q0 160 40 290t121 210t189 80q141 0 222 -140t81 -372h-532v-45q0 -134 27.5 -244.5t82.5 -179t129 -68.5q83 0 150.5 88.5t103.5 284.5zM424 1042
q-93 0 -149 -103.5t-70 -268.5h407q0 73 -10 137t-31.5 118t-59 85.5t-87.5 31.5z" />
    <glyph glyph-name="ecircumflex" unicode="&#xea;" horiz-adv-x="817" 
d="M432 1544l-192 -266h-66l182 367h150l182 -367h-65zM694 436h43q-24 -233 -112 -355t-213 -122q-158 0 -245 156t-87 417q0 160 40 290t121 210t189 80q141 0 222 -140t81 -372h-532v-45q0 -134 27.5 -244.5t82.5 -179t129 -68.5q83 0 150.5 88.5t103.5 284.5zM424 1042
q-93 0 -149 -103.5t-70 -268.5h407q0 73 -10 137t-31.5 118t-59 85.5t-87.5 31.5z" />
    <glyph glyph-name="edieresis" unicode="&#xeb;" horiz-adv-x="817" 
d="M254 1368q-39 0 -66.5 27.5t-27.5 66.5q0 38 28 66t66 28q40 0 68 -28t28 -66q0 -40 -28 -67t-68 -27zM608 1368q-40 0 -67 27t-27 67q0 39 27.5 66.5t66.5 27.5q38 0 66 -28t28 -66q0 -39 -27.5 -66.5t-66.5 -27.5zM694 436h43q-24 -233 -112 -355t-213 -122
q-158 0 -245 156t-87 417q0 160 40 290t121 210t189 80q141 0 222 -140t81 -372h-532v-45q0 -134 27.5 -244.5t82.5 -179t129 -68.5q83 0 150.5 88.5t103.5 284.5zM424 1042q-93 0 -149 -103.5t-70 -268.5h407q0 73 -10 137t-31.5 118t-59 85.5t-87.5 31.5z" />
    <glyph glyph-name="igrave" unicode="&#xec;" horiz-adv-x="481" 
d="M305 1280h-67l-234 367h164zM307 197q0 -98 23 -126t110 -28v-43h-381v43q87 0 110.5 28.5t23.5 125.5v677v13v39t-1.5 29.5t-4 23t-7.5 13t-12 7t-19 -1.5t-26 -7l-35 -15l-18 39l213 98l24 -25v-890z" />
    <glyph glyph-name="iacute" unicode="&#xed;" horiz-adv-x="481" 
d="M135 1280l137 367h164l-235 -367h-66zM307 197q0 -98 23 -126t110 -28v-43h-381v43q87 0 110.5 28.5t23.5 125.5v677v13v39t-1.5 29.5t-4 23t-7.5 13t-12 7t-19 -1.5t-26 -7l-35 -15l-18 39l213 98l24 -25v-890z" />
    <glyph glyph-name="icircumflex" unicode="&#xee;" horiz-adv-x="481" 
d="M399 1278l-190 266l-193 -266h-65l182 367h150l182 -367h-66zM307 197q0 -98 23 -126t110 -28v-43h-381v43q87 0 110.5 28.5t23.5 125.5v677v13v39t-1.5 29.5t-4 23t-7.5 13t-12 7t-19 -1.5t-26 -7l-35 -15l-18 39l213 98l24 -25v-890z" />
    <glyph glyph-name="idieresis" unicode="&#xef;" horiz-adv-x="481" 
d="M31 1368q-39 0 -66.5 27.5t-27.5 66.5q0 38 28 66t66 28q40 0 68 -28t28 -66q0 -40 -28 -67t-68 -27zM385 1368q-40 0 -67 27t-27 67q0 39 27.5 66.5t66.5 27.5q38 0 66 -28t28 -66q0 -39 -27.5 -66.5t-66.5 -27.5zM307 197q0 -98 23 -126t110 -28v-43h-381v43
q87 0 110.5 28.5t23.5 125.5v677v13v39t-1.5 29.5t-4 23t-7.5 13t-12 7t-19 -1.5t-26 -7l-35 -15l-18 39l213 98l24 -25v-890z" />
    <glyph glyph-name="eth" unicode="&#xf0;" horiz-adv-x="1054" 
d="M952 600q6 -180 -45.5 -326t-151 -230.5t-229.5 -84.5q-87 0 -159 36t-120.5 96.5t-81.5 141.5t-48 167.5t-15 177.5q0 82 15.5 158.5t48.5 144t80.5 117.5t114.5 79t147 29q66 0 125.5 -29t101.5 -80q-79 196 -213 365l-231 -135l-31 53l223 129q-106 120 -252 227v43
q174 -93 318 -231l233 135l31 -53l-219 -127q169 -178 260.5 -390.5t97.5 -412.5zM522 29q100 0 171.5 78.5t103.5 206t26 284.5q-3 126 -43 268q-56 94 -117.5 132t-142.5 38q-75 0 -132.5 -41.5t-90.5 -112t-49.5 -152.5t-16.5 -173q0 -157 29.5 -273t96.5 -185.5
t165 -69.5z" />
    <glyph glyph-name="ntilde" unicode="&#xf1;" horiz-adv-x="964" 
d="M616 1370q-42 0 -83.5 21.5t-70 47t-66.5 47t-72 21.5q-48 0 -70.5 -34t-28.5 -103h-43q11 240 150 240q43 0 85 -21.5t70.5 -47t66.5 -47t73 -21.5q48 0 69.5 34t26.5 103h43q-11 -240 -150 -240zM307 1087v-165h6q129 190 275 190q200 0 200 -274v-641q0 -98 23.5 -126
t112.5 -28v-43h-379v43q86 0 108.5 28t22.5 126v641q0 182 -123 182q-112 0 -246 -168v-655q0 -98 22.5 -126t106.5 -28v-43h-377v43q87 0 110.5 28.5t23.5 125.5v677v13v39t-1.5 29.5t-4 23t-7.5 13t-12 7t-19 -1.5t-26 -7l-35 -15l-18 39l213 98z" />
    <glyph glyph-name="ograve" unicode="&#xf2;" horiz-adv-x="968" 
d="M582 1280h-68l-233 367h163zM485 -41q-124 0 -217.5 78t-140.5 207.5t-47 290.5q0 162 47 292t140 207.5t218 77.5q124 0 217 -77.5t140 -207.5t47 -292q0 -161 -47 -290.5t-140 -207.5t-217 -78zM528 31q127 10 189.5 152.5t42.5 375.5t-106 362.5t-214 118.5
q-128 -12 -189.5 -153.5t-41.5 -376.5q22 -234 107 -362.5t212 -116.5z" />
    <glyph glyph-name="oacute" unicode="&#xf3;" horiz-adv-x="968" 
d="M410 1280l137 367h164l-236 -367h-65zM485 -41q-124 0 -217.5 78t-140.5 207.5t-47 290.5q0 162 47 292t140 207.5t218 77.5q124 0 217 -77.5t140 -207.5t47 -292q0 -161 -47 -290.5t-140 -207.5t-217 -78zM528 31q127 10 189.5 152.5t42.5 375.5t-106 362.5t-214 118.5
q-128 -12 -189.5 -153.5t-41.5 -376.5q22 -234 107 -362.5t212 -116.5z" />
    <glyph glyph-name="ocircumflex" unicode="&#xf4;" horiz-adv-x="968" 
d="M485 1544l-192 -266h-66l183 367h149l182 -367h-65zM485 1112q124 0 217 -77.5t140 -207.5t47 -292q0 -161 -47 -290.5t-140 -207.5t-217 -78t-217.5 78t-140.5 207.5t-47 290.5q0 162 47 292t140 207.5t218 77.5zM528 31q127 10 189.5 152.5t42.5 375.5t-106 362.5
t-214 118.5q-128 -12 -189.5 -153.5t-41.5 -376.5q22 -234 107 -362.5t212 -116.5z" />
    <glyph glyph-name="otilde" unicode="&#xf5;" horiz-adv-x="968" 
d="M627 1370q-42 0 -84 21.5t-70.5 47t-66.5 47t-72 21.5q-48 0 -70 -34t-28 -103h-43q5 112 39 176t110 64q43 0 85 -21.5t70.5 -47t66.5 -47t73 -21.5q48 0 69.5 34t26.5 103h43q-5 -112 -39 -176t-110 -64zM485 -41q-124 0 -217.5 78t-140.5 207.5t-47 290.5
q0 162 47 292t140 207.5t218 77.5q124 0 217 -77.5t140 -207.5t47 -292q0 -161 -47 -290.5t-140 -207.5t-217 -78zM528 31q127 10 189.5 152.5t42.5 375.5t-106 362.5t-214 118.5q-128 -12 -189.5 -153.5t-41.5 -376.5q22 -234 107 -362.5t212 -116.5z" />
    <glyph glyph-name="odieresis" unicode="&#xf6;" horiz-adv-x="968" 
d="M307 1368q-39 0 -66.5 27.5t-27.5 66.5q0 38 28 66t66 28q40 0 68 -28t28 -66q0 -40 -28 -67t-68 -27zM662 1368q-40 0 -67.5 27t-27.5 67q0 38 27.5 66t67.5 28q38 0 66 -28t28 -66q0 -39 -27.5 -66.5t-66.5 -27.5zM485 -41q-124 0 -217.5 78t-140.5 207.5t-47 290.5
q0 162 47 292t140 207.5t218 77.5q124 0 217 -77.5t140 -207.5t47 -292q0 -161 -47 -290.5t-140 -207.5t-217 -78zM528 31q127 10 189.5 152.5t42.5 375.5t-106 362.5t-214 118.5q-128 -12 -189.5 -153.5t-41.5 -376.5q22 -234 107 -362.5t212 -116.5z" />
    <glyph glyph-name="divide" unicode="&#xf7;" horiz-adv-x="849" 
d="M426 805q-32 0 -56 23t-24 55t24 56t56 24t55 -24t23 -56t-23 -55t-55 -23zM102 500v106h646v-106h-646zM426 143q-32 0 -56 24t-24 56t24 56t56 24t55 -24t23 -56t-23 -56t-55 -24z" />
    <glyph glyph-name="oslash" unicode="&#xf8;" horiz-adv-x="968" 
d="M770 963q119 -162 119 -428q0 -161 -47 -290.5t-140 -207.5t-217 -78q-140 0 -239 96l-88 -153l-56 32l99 172q-58 78 -89.5 189.5t-31.5 239.5q0 162 47 292t140 207.5t218 77.5q139 0 240 -98l90 153l55 -30zM209 510q15 -162 63 -281l392 676q-86 147 -224 135
q-128 -12 -189.5 -153.5t-41.5 -376.5zM528 31q127 10 189.5 152.5t42.5 375.5q-15 163 -62 279l-391 -678q86 -141 221 -129z" />
    <glyph glyph-name="ugrave" unicode="&#xf9;" horiz-adv-x="925" 
d="M561 1280h-67l-234 367h164zM649 -18v168h-6q-130 -191 -274 -191q-199 0 -199 274v635q0 39 -0.5 56.5t-4.5 38t-10.5 26t-20.5 9t-32.5 -0.5t-48.5 -14l-14 41l221 70l23 -23v-838q0 -184 123 -184q61 0 120 45.5t123 124.5v649q0 39 -0.5 56.5t-4.5 38t-10.5 26
t-20.5 9t-32.5 -0.5t-48.5 -14l-12 41l219 70l23 -23v-874v-16v-39t1.5 -29.5t4 -22.5t7.5 -12.5t12 -7t19 1.5t26 7t34 15l19 -39l-213 -96z" />
    <glyph glyph-name="uacute" unicode="&#xfa;" horiz-adv-x="925" 
d="M389 1280l137 367h164l-235 -367h-66zM649 -18v168h-6q-130 -191 -274 -191q-199 0 -199 274v635q0 39 -0.5 56.5t-4.5 38t-10.5 26t-20.5 9t-32.5 -0.5t-48.5 -14l-14 41l221 70l23 -23v-838q0 -184 123 -184q61 0 120 45.5t123 124.5v649q0 39 -0.5 56.5t-4.5 38
t-10.5 26t-20.5 9t-32.5 -0.5t-48.5 -14l-12 41l219 70l23 -23v-874v-16v-39t1.5 -29.5t4 -22.5t7.5 -12.5t12 -7t19 1.5t26 7t34 15l19 -39l-213 -96z" />
    <glyph glyph-name="ucircumflex" unicode="&#xfb;" horiz-adv-x="925" 
d="M465 1544l-193 -266h-65l182 367h150l182 -367h-66zM866 94l19 -39l-213 -96l-23 23v168h-6q-130 -191 -274 -191q-199 0 -199 274v635q0 39 -0.5 56.5t-4.5 38t-10.5 26t-20.5 9t-32.5 -0.5t-48.5 -14l-14 41l221 70l23 -23v-838q0 -184 123 -184q61 0 120 45.5
t123 124.5v649q0 39 -0.5 56.5t-4.5 38t-10.5 26t-20.5 9t-32.5 -0.5t-48.5 -14l-12 41l219 70l23 -23v-874v-16v-39t1.5 -29.5t4 -22.5t7.5 -12.5t12 -7t19 1.5t26 7t34 15z" />
    <glyph glyph-name="udieresis" unicode="&#xfc;" horiz-adv-x="925" 
d="M287 1368q-39 0 -66.5 27.5t-27.5 66.5q0 38 28 66t66 28q40 0 68 -28t28 -66q0 -40 -28 -67t-68 -27zM641 1368q-40 0 -67 27t-27 67q0 39 27.5 66.5t66.5 27.5q38 0 66 -28t28 -66q0 -39 -27.5 -66.5t-66.5 -27.5zM649 -18v168h-6q-130 -191 -274 -191q-199 0 -199 274
v635q0 39 -0.5 56.5t-4.5 38t-10.5 26t-20.5 9t-32.5 -0.5t-48.5 -14l-14 41l221 70l23 -23v-838q0 -184 123 -184q61 0 120 45.5t123 124.5v649q0 39 -0.5 56.5t-4.5 38t-10.5 26t-20.5 9t-32.5 -0.5t-48.5 -14l-12 41l219 70l23 -23v-874v-16v-39t1.5 -29.5t4 -22.5
t7.5 -12.5t12 -7t19 1.5t26 7t34 15l19 -39l-213 -96z" />
    <glyph glyph-name="yacute" unicode="&#xfd;" horiz-adv-x="937" 
d="M408 1280l137 367h164l-236 -367h-65zM53 -367q0 34 22.5 58t57.5 24q54 0 82 -57q13 -24 24 -32.5t33 -8.5q57 0 100 89t85 286l-269 891q-27 89 -56.5 116t-92.5 27v45h381v-45q-99 0 -115 -26.5t14 -118.5l197 -678l170 678q27 92 10 118.5t-116 26.5v45h319v-45
q-64 0 -91.5 -27t-51.5 -118l-213 -844q-54 -209 -70 -257q-66 -199 -167 -251q-41 -21 -91 -21q-70 0 -116 35t-46 90z" />
    <glyph glyph-name="thorn" unicode="&#xfe;" horiz-adv-x="1040" 
d="M631 1112q100 0 176.5 -72.5t115 -188t38.5 -253.5q0 -171 -47 -314.5t-142.5 -234t-222.5 -90.5q-167 0 -238 158h-4v-371q0 -99 22.5 -126.5t110.5 -27.5v-43h-381v43q88 0 111 28t23 126v1696v13v40t-1.5 29.5t-4 23t-7.5 13.5t-12 7t-19 -2t-26 -7l-35 -15l-16 39
l211 96l24 -22v-797h8q64 126 139.5 189t176.5 63zM528 29q82 0 143.5 44.5t96 120.5t50.5 162.5t16 182.5q0 223 -64.5 350t-181.5 127q-51 0 -95.5 -18t-78.5 -52t-58.5 -70t-48.5 -83v-402q0 -170 59.5 -266t161.5 -96z" />
    <glyph glyph-name="ydieresis" unicode="&#xff;" horiz-adv-x="937" 
d="M305 1368q-39 0 -66.5 27.5t-27.5 66.5q0 38 28 66t66 28q40 0 68 -28t28 -66q0 -40 -28 -67t-68 -27zM659 1368q-40 0 -67 27t-27 67q0 39 27.5 66.5t66.5 27.5q38 0 66.5 -28t28.5 -66q0 -39 -28 -66.5t-67 -27.5zM53 -367q0 34 22.5 58t57.5 24q54 0 82 -57
q13 -24 24 -32.5t33 -8.5q57 0 100 89t85 286l-269 891q-27 89 -56.5 116t-92.5 27v45h381v-45q-99 0 -115 -26.5t14 -118.5l197 -678l170 678q27 92 10 118.5t-116 26.5v45h319v-45q-64 0 -91.5 -27t-51.5 -118l-213 -844q-54 -209 -70 -257q-66 -199 -167 -251
q-41 -21 -91 -21q-70 0 -116 35t-46 90z" />
    <glyph glyph-name="Amacron" unicode="&#x100;" horiz-adv-x="1425" 
d="M961 2054v-69h-502v69h502zM1212 186q29 -90 66 -116.5t127 -26.5v-43h-490v43q140 0 164 27t-10 116l-108 344h-570l-106 -344q-34 -89 -10 -116t165 -27v-43h-420v43q90 0 127 26.5t66 116.5l467 1500h61zM412 600h528l-262 838h-6z" />
    <glyph glyph-name="amacron" unicode="&#x101;" horiz-adv-x="856" 
d="M674 1491v-70h-502v70h502zM793 133h43q-12 -45 -21.5 -70t-26 -52.5t-40.5 -39.5t-58 -12q-125 0 -125 176v39h-4q-12 -21 -18.5 -32t-24.5 -37t-32.5 -42t-39.5 -38t-49 -34.5t-56.5 -22t-66.5 -9.5q-104 0 -158.5 68t-54.5 184q0 40 7.5 76t17.5 65t31 57.5t38 49
t48 43.5t51.5 37.5t59.5 35t60 31t64 31.5q22 11 33 16l94 45v103q0 48 -2.5 80.5t-12.5 67.5t-28 56t-50.5 34.5t-78.5 13.5q-69 0 -115.5 -30t-46.5 -79q0 -24 19.5 -63t19.5 -62q0 -28 -19.5 -44.5t-53.5 -16.5q-39 0 -60.5 33.5t-21.5 95.5q0 102 80.5 163.5t207.5 61.5
q277 0 277 -317v-666q0 -56 7.5 -78t33.5 -22q22 0 36 22t36 82zM319 61q66 0 119.5 41t126.5 138v393l-92 -45q-68 -34 -117.5 -67.5t-91 -76t-63 -95t-21.5 -113.5q0 -85 36 -130t103 -45z" />
    <glyph glyph-name="Abreve" unicode="&#x102;" horiz-adv-x="1425" 
d="M711 1915q-117 0 -183 65t-69 177h43q4 -67 58 -102.5t151 -35.5t150 35.5t57 102.5h43q-3 -112 -68.5 -177t-181.5 -65zM1212 186q29 -90 66 -116.5t127 -26.5v-43h-490v43q140 0 164 27t-10 116l-108 344h-570l-106 -344q-34 -89 -10 -116t165 -27v-43h-420v43
q90 0 127 26.5t66 116.5l467 1500h61zM412 600h528l-262 838h-6z" />
    <glyph glyph-name="abreve" unicode="&#x103;" horiz-adv-x="856" 
d="M424 1352q-117 0 -183 64.5t-69 176.5h43q4 -67 58 -102t151 -35q198 0 207 137h43q-3 -112 -68.5 -176.5t-181.5 -64.5zM793 133h43q-12 -45 -21.5 -70t-26 -52.5t-40.5 -39.5t-58 -12q-125 0 -125 176v39h-4q-12 -21 -18.5 -32t-24.5 -37t-32.5 -42t-39.5 -38
t-49 -34.5t-56.5 -22t-66.5 -9.5q-104 0 -158.5 68t-54.5 184q0 40 7.5 76t17.5 65t31 57.5t38 49t48 43.5t51.5 37.5t59.5 35t60 31t64 31.5q22 11 33 16l94 45v103q0 48 -2.5 80.5t-12.5 67.5t-28 56t-50.5 34.5t-78.5 13.5q-69 0 -115.5 -30t-46.5 -79q0 -24 19.5 -63
t19.5 -62q0 -28 -19.5 -44.5t-53.5 -16.5q-39 0 -60.5 33.5t-21.5 95.5q0 102 80.5 163.5t207.5 61.5q277 0 277 -317v-666q0 -56 7.5 -78t33.5 -22q22 0 36 22t36 82zM319 61q66 0 119.5 41t126.5 138v393l-92 -45q-68 -34 -117.5 -67.5t-91 -76t-63 -95t-21.5 -113.5
q0 -85 36 -130t103 -45z" />
    <glyph glyph-name="Aogonek" unicode="&#x104;" horiz-adv-x="1425" 
d="M1239 0q-22 -22 -57.5 -45.5t-65 -41.5t-57.5 -42.5t-44 -59.5t-16 -81q0 -62 38 -100t108 -38q66 0 162 48l12 -43q-102 -76 -213 -76q-92 0 -151.5 52.5t-59.5 141.5q0 49 16.5 88.5t42 63.5t60 45t65 33.5t63.5 27.5t50 27h-277v43q140 0 164 27t-10 116l-108 344
h-570l-106 -344q-34 -89 -10 -116t165 -27v-43h-420v43q90 0 127 26.5t66 116.5l467 1500h61l471 -1500q29 -90 66 -116.5t127 -26.5v-43h-166zM412 600h528l-262 838h-6z" />
    <glyph glyph-name="aogonek" unicode="&#x105;" horiz-adv-x="856" 
d="M825 -381l13 -43q-102 -76 -213 -76q-91 0 -151 53t-60 142q0 43 13.5 79t32 59t50.5 44.5t54.5 32t59.5 26.5t52 23q-111 10 -111 176v39h-4q-12 -21 -18.5 -32t-24.5 -37t-32.5 -42t-39.5 -38t-49 -34.5t-56.5 -22t-66.5 -9.5q-104 0 -158.5 68t-54.5 184q0 40 7.5 76
t17.5 65t31 57.5t38 49t48 43.5t51.5 37.5t59.5 35t60 31t64 31.5q22 11 33 16l94 45v103q0 48 -2.5 80.5t-12.5 67.5t-28 56t-50.5 34.5t-78.5 13.5q-69 0 -115.5 -30t-46.5 -79q0 -24 19.5 -63t19.5 -62q0 -28 -19.5 -44.5t-53.5 -16.5q-39 0 -60.5 33.5t-21.5 95.5
q0 102 80.5 163.5t207.5 61.5q277 0 277 -317v-666q0 -56 7.5 -78t33.5 -22q22 0 36 22t36 82h43q-16 -64 -33.5 -102t-48.5 -56q-25 -24 -72.5 -54t-79.5 -51t-58 -63t-26 -98q0 -62 38 -99.5t108 -37.5q67 0 161 47zM319 61q66 0 119.5 41t126.5 138v393l-92 -45
q-68 -34 -117.5 -67.5t-91 -76t-63 -95t-21.5 -113.5q0 -85 36 -130t103 -45z" />
    <glyph glyph-name="Cacute" unicode="&#x106;" horiz-adv-x="1271" 
d="M616 1790l138 367h164l-236 -367h-66zM80 819q0 180 43 337.5t121 273t193 182.5t253 67q72 0 137 -18.5t102 -41.5t70 -41.5t48 -18.5q21 0 28.5 18.5t7.5 81.5h43l31 -563h-43q-51 514 -407 514q-149 0 -262 -107t-170.5 -285t-57.5 -399q0 -220 57.5 -397.5
t169.5 -283t261 -105.5q192 0 320.5 171.5t162.5 457.5h43q-19 -157 -61.5 -283.5t-109 -221.5t-163.5 -146.5t-217 -51.5q-137 0 -251 66.5t-190 183t-117.5 273.5t-41.5 337z" />
    <glyph glyph-name="cacute" unicode="&#x107;" horiz-adv-x="800" 
d="M414 1280l137 367h164l-236 -367h-65zM565 856q-4 186 -119 186q-118 0 -178.5 -131.5t-60.5 -365.5q0 -223 71.5 -355.5t196.5 -132.5q87 0 145 83.5t97 279.5h43q-25 -228 -107.5 -344.5t-216.5 -116.5q-113 0 -194.5 72t-121.5 196t-40 287q0 271 102.5 434.5
t272.5 163.5q63 0 116 -26t84.5 -66.5t48.5 -84.5t17 -85q0 -92 -74 -92q-79 0 -82 98z" />
    <glyph glyph-name="Cdotaccent" unicode="&#x10a;" horiz-adv-x="1271" 
d="M690 1878q-39 0 -66.5 27.5t-27.5 66.5q0 38 28 66t66 28q40 0 68 -28t28 -66q0 -40 -28 -67t-68 -27zM80 819q0 180 43 337.5t121 273t193 182.5t253 67q72 0 137 -18.5t102 -41.5t70 -41.5t48 -18.5q21 0 28.5 18.5t7.5 81.5h43l31 -563h-43q-51 514 -407 514
q-149 0 -262 -107t-170.5 -285t-57.5 -399q0 -220 57.5 -397.5t169.5 -283t261 -105.5q192 0 320.5 171.5t162.5 457.5h43q-19 -157 -61.5 -283.5t-109 -221.5t-163.5 -146.5t-217 -51.5q-137 0 -251 66.5t-190 183t-117.5 273.5t-41.5 337z" />
    <glyph glyph-name="cdotaccent" unicode="&#x10b;" horiz-adv-x="800" 
d="M487 1368q-39 0 -66.5 27.5t-27.5 66.5q0 38 28 66t66 28q40 0 68.5 -28t28.5 -66q0 -39 -28.5 -66.5t-68.5 -27.5zM565 856q-4 186 -119 186q-118 0 -178.5 -131.5t-60.5 -365.5q0 -223 71.5 -355.5t196.5 -132.5q87 0 145 83.5t97 279.5h43q-25 -228 -107.5 -344.5
t-216.5 -116.5q-113 0 -194.5 72t-121.5 196t-40 287q0 271 102.5 434.5t272.5 163.5q63 0 116 -26t84.5 -66.5t48.5 -84.5t17 -85q0 -92 -74 -92q-79 0 -82 98z" />
    <glyph glyph-name="Ccaron" unicode="&#x10c;" horiz-adv-x="1271" 
d="M618 1788l-184 366h68l190 -266l191 266h67l-184 -366h-148zM1188 662h43q-19 -157 -61.5 -283.5t-109 -221.5t-163.5 -146.5t-217 -51.5q-137 0 -251 66.5t-190 183t-117.5 273.5t-41.5 337t43 337.5t121 273t193 182.5t253 67q72 0 137 -18.5t102 -41.5t70 -41.5
t48 -18.5q21 0 28.5 18.5t7.5 81.5h43l31 -563h-43q-51 514 -407 514q-149 0 -262 -107t-170.5 -285t-57.5 -399q0 -220 57.5 -397.5t169.5 -283t261 -105.5q192 0 320.5 171.5t162.5 457.5z" />
    <glyph glyph-name="ccaron" unicode="&#x10d;" horiz-adv-x="800" 
d="M414 1278l-185 367h68l190 -267l191 267h67l-184 -367h-147zM717 420h43q-25 -228 -107.5 -344.5t-216.5 -116.5q-113 0 -194.5 72t-121.5 196t-40 287q0 271 102.5 434.5t272.5 163.5q63 0 116 -26t84.5 -66.5t48.5 -84.5t17 -85q0 -92 -74 -92q-79 0 -82 98
q-4 186 -119 186q-118 0 -178.5 -131.5t-60.5 -365.5q0 -223 71.5 -355.5t196.5 -132.5q87 0 145 83.5t97 279.5z" />
    <glyph glyph-name="Dcaron" unicode="&#x10e;" horiz-adv-x="1462" 
d="M567 1788l-184 366h68l190 -266l190 266h68l-184 -366h-148zM600 1638q173 0 317 -55.5t247 -159t160.5 -258.5t57.5 -346q0 -190 -59.5 -345.5t-164.5 -258.5t-248 -159t-310 -56h-559v43q76 0 117 5.5t63.5 25.5t27.5 45.5t5 77.5v1245q0 52 -5 77.5t-28 45t-63.5 25
t-116.5 5.5v43h559zM600 70q295 0 470 204t175 545t-175 545.5t-470 204.5q-141 0 -219 -37v-1426q76 -36 219 -36z" />
    <glyph glyph-name="dcaron" unicode="&#x10f;" horiz-adv-x="1163" 
d="M791 197v-16v-39t1.5 -29.5t4 -22.5t7.5 -12.5t12 -7t19 1.5t26 7t34 15l18 -39l-213 -96l-22 23v174h-8q-64 -101 -124.5 -149t-139.5 -48q-156 0 -241 146t-85 387q0 99 13 189t42 169t71 137t103.5 91.5t136.5 33.5q70 0 128.5 -38t99.5 -97h4v465v13v40t-1.5 29.5
t-4 23t-7.5 13.5t-12 7t-19 -2t-26 -7l-35 -15l-18 39l213 96l23 -22v-1460zM1055 1679q71 0 71 -106q0 -55 -7 -118t-20 -154.5t-20 -163.5h-43q-8 68 -22.5 162.5t-21.5 156t-7 117.5q0 106 70 106zM678 242v420q0 176 -59 278t-158 102q-71 0 -122.5 -43.5t-79 -118.5
t-40 -159.5t-12.5 -181.5q0 -145 24 -252t76.5 -170.5t130.5 -63.5q35 0 67 12t53.5 27t46.5 45t37.5 49t35.5 56z" />
    <glyph glyph-name="Dcroat" unicode="&#x110;" horiz-adv-x="1462" 
d="M600 1638q173 0 317 -55.5t247 -159t160.5 -258.5t57.5 -346q0 -190 -59.5 -345.5t-164.5 -258.5t-248 -159t-310 -56h-559v43q76 0 117 5.5t63.5 25.5t27.5 45.5t5 77.5v653h-172v61h172v531q0 52 -5 77.5t-28 45t-63.5 25t-116.5 5.5v43h559zM600 70q295 0 470 204
t175 545t-175 545.5t-470 204.5q-141 0 -219 -37v-621h405v-61h-405v-744q76 -36 219 -36z" />
    <glyph glyph-name="dcroat" unicode="&#x111;" horiz-adv-x="1114" 
d="M791 1303v-1106v-16v-39t1.5 -29.5t4 -22.5t7.5 -12.5t12 -7t19 1.5t26 7t34 15l18 -39l-213 -96l-22 23v174h-8q-64 -101 -124.5 -149t-139.5 -48q-156 0 -241 146t-85 387q0 99 13 189t42 169t71 137t103.5 91.5t136.5 33.5q70 0 128.5 -38t99.5 -97h4v326h-215v61h215
v78v13v40t-1.5 29.5t-4 23t-7.5 13.5t-12 7t-19 -2t-26 -7l-35 -15l-18 39l213 96l23 -22v-293h221v-61h-221zM678 242v420q0 176 -59 278t-158 102q-71 0 -122.5 -43.5t-79 -118.5t-40 -159.5t-12.5 -181.5q0 -145 24 -252t76.5 -170.5t130.5 -63.5q35 0 67 12t53.5 27
t46.5 45t37.5 49t35.5 56z" />
    <glyph glyph-name="Emacron" unicode="&#x112;" horiz-adv-x="1196" 
d="M352 2001h502v-70h-502v70zM1047 1638l4 -41l34 -317l-43 -4q-11 102 -22.5 157.5t-34 87.5t-49.5 40t-78 8h-477v-674h315q42 0 64.5 4t42.5 16t28 39t12.5 68t4.5 108h45v-540h-45q0 67 -4.5 108t-12.5 68t-28 39t-42.5 16t-64.5 4h-315v-639q0 -72 18 -94t78 -22h402
q67 0 103.5 23.5t70.5 96t80 232.5l43 -12l-111 -373l-10 -37h-1014v43q76 0 117 5.5t63.5 25.5t27.5 45.5t5 77.5v1245q0 52 -5 77.5t-28 45t-63.5 25t-116.5 5.5v43h1006z" />
    <glyph glyph-name="emacron" unicode="&#x113;" horiz-adv-x="817" 
d="M682 1491v-70h-502v70h502zM694 436h43q-24 -233 -112 -355t-213 -122q-158 0 -245 156t-87 417q0 160 40 290t121 210t189 80q141 0 222 -140t81 -372h-532v-45q0 -134 27.5 -244.5t82.5 -179t129 -68.5q83 0 150.5 88.5t103.5 284.5zM424 1042q-93 0 -149 -103.5
t-70 -268.5h407q0 73 -10 137t-31.5 118t-59 85.5t-87.5 31.5z" />
    <glyph glyph-name="Edotaccent" unicode="&#x116;" horiz-adv-x="1196" 
d="M604 1878q-39 0 -66.5 27.5t-27.5 66.5q0 38 28 66t66 28q40 0 68 -28t28 -66q0 -40 -28 -67t-68 -27zM1047 1638l4 -41l34 -317l-43 -4q-11 102 -22.5 157.5t-34 87.5t-49.5 40t-78 8h-477v-674h315q42 0 64.5 4t42.5 16t28 39t12.5 68t4.5 108h45v-540h-45
q0 67 -4.5 108t-12.5 68t-28 39t-42.5 16t-64.5 4h-315v-639q0 -72 18 -94t78 -22h402q67 0 103.5 23.5t70.5 96t80 232.5l43 -12l-111 -373l-10 -37h-1014v43q76 0 117 5.5t63.5 25.5t27.5 45.5t5 77.5v1245q0 52 -5 77.5t-28 45t-63.5 25t-116.5 5.5v43h1006z" />
    <glyph glyph-name="edotaccent" unicode="&#x117;" horiz-adv-x="817" 
d="M432 1368q-39 0 -66.5 27.5t-27.5 66.5q0 38 28 66t66 28q40 0 68 -28t28 -66q0 -40 -28 -67t-68 -27zM694 436h43q-24 -233 -112 -355t-213 -122q-158 0 -245 156t-87 417q0 160 40 290t121 210t189 80q141 0 222 -140t81 -372h-532v-45q0 -134 27.5 -244.5t82.5 -179
t129 -68.5q83 0 150.5 88.5t103.5 284.5zM424 1042q-93 0 -149 -103.5t-70 -268.5h407q0 73 -10 137t-31.5 118t-59 85.5t-87.5 31.5z" />
    <glyph glyph-name="Eogonek" unicode="&#x118;" horiz-adv-x="1196" 
d="M961 -408q65 0 161 48l13 -43q-102 -76 -213 -76q-92 0 -151.5 52.5t-59.5 141.5q0 49 16.5 88.5t42 63.5t60 45t65 33.5t63.5 27.5t50 27h-967v43q76 0 117 5.5t63.5 25.5t27.5 45.5t5 77.5v1245q0 52 -5 77.5t-28 45t-63.5 25t-116.5 5.5v43h1006l4 -41l34 -317l-43 -4
q-11 102 -22.5 157.5t-34 87.5t-49.5 40t-78 8h-477v-674h315q42 0 64.5 4t42.5 16t28 39t12.5 68t4.5 108h45v-540h-45q0 67 -4.5 108t-12.5 68t-28 39t-42.5 16t-64.5 4h-315v-639q0 -72 18 -94t78 -22h402q67 0 103.5 23.5t70.5 96t80 232.5l43 -12l-111 -373l-10 -37
q-22 -22 -57.5 -45.5t-65 -41.5t-57.5 -42.5t-44 -59.5t-16 -81q0 -62 38 -100t108 -38z" />
    <glyph glyph-name="eogonek" unicode="&#x119;" horiz-adv-x="817" 
d="M416 -428q68 0 162 47l12 -43q-102 -76 -213 -76q-91 0 -151 53t-60 142q0 43 13.5 79t32.5 59t50.5 44.5t55 32t59.5 26t51 23.5h-16q-158 0 -245 156t-87 417q0 160 40 290t121 210t189 80q141 0 222 -140t81 -372h-532v-45q0 -134 27.5 -244.5t82.5 -179t129 -68.5
q83 0 150.5 88.5t103.5 284.5h43q-20 -185 -80 -301t-149 -155h2q-25 -26 -72.5 -56.5t-81 -52t-60 -64t-26.5 -98.5q0 -62 38 -99.5t108 -37.5zM424 1042q-93 0 -149 -103.5t-70 -268.5h407q0 73 -10 137t-31.5 118t-59 85.5t-87.5 31.5z" />
    <glyph glyph-name="Ecaron" unicode="&#x11a;" horiz-adv-x="1196" 
d="M530 1788l-184 366h68l190 -266l191 266h67l-184 -366h-148zM1133 422l43 -12l-111 -373l-10 -37h-1014v43q76 0 117 5.5t63.5 25.5t27.5 45.5t5 77.5v1245q0 52 -5 77.5t-28 45t-63.5 25t-116.5 5.5v43h1006l4 -41l34 -317l-43 -4q-11 102 -22.5 157.5t-34 87.5
t-49.5 40t-78 8h-477v-674h315q42 0 64.5 4t42.5 16t28 39t12.5 68t4.5 108h45v-540h-45q0 67 -4.5 108t-12.5 68t-28 39t-42.5 16t-64.5 4h-315v-639q0 -72 18 -94t78 -22h402q67 0 103.5 23.5t70.5 96t80 232.5z" />
    <glyph glyph-name="ecaron" unicode="&#x11b;" horiz-adv-x="817" 
d="M358 1278l-184 367h68l190 -267l191 267h67l-184 -367h-148zM694 436h43q-24 -233 -112 -355t-213 -122q-158 0 -245 156t-87 417q0 160 40 290t121 210t189 80q141 0 222 -140t81 -372h-532v-45q0 -134 27.5 -244.5t82.5 -179t129 -68.5q83 0 150.5 88.5t103.5 284.5z
M424 1042q-93 0 -149 -103.5t-70 -268.5h407q0 73 -10 137t-31.5 118t-59 85.5t-87.5 31.5z" />
    <glyph glyph-name="Gbreve" unicode="&#x11e;" horiz-adv-x="1470" 
d="M1008 2103q-3 -112 -68.5 -176.5t-181.5 -64.5q-117 0 -183 64.5t-69 176.5h43q4 -67 58 -102t151 -35q198 0 207 137h43zM80 817q0 143 28 272.5t84 237t135 186t187.5 122.5t235.5 44q91 0 166 -18t112 -40t68.5 -40t46.5 -18q21 0 28 17.5t7 78.5h43l30 -563h-43
q-27 266 -130.5 390t-317.5 124q-133 0 -238 -62t-171 -170.5t-100 -251t-34 -309.5q0 -169 34 -309t103 -248.5t183.5 -169.5t265.5 -61q117 0 209 40.5t147 98.5v487q0 35 -4 55t-18.5 39.5t-40 29t-73 17t-111 9.5t-160.5 2v43h675v-43q-89 0 -112 -27.5t-23 -124.5v-501
q-106 -101 -226 -148t-273 -47q-176 0 -314 66.5t-224 184t-130.5 271.5t-44.5 336z" />
    <glyph glyph-name="gbreve" unicode="&#x11f;" horiz-adv-x="942" 
d="M463 1352q-117 0 -183 64.5t-69 176.5h43q4 -67 58 -102t151 -35q198 0 207 137h43q-3 -112 -68.5 -176.5t-181.5 -64.5zM494 133q99 0 173.5 -12t133 -40t89 -77.5t30.5 -120.5q0 -99 -69.5 -185.5t-190.5 -138t-263 -51.5q-76 0 -141.5 14.5t-119.5 43.5t-85 79
t-31 115q0 84 49 154t148 147q-98 42 -98 138q0 51 31 96.5t92 103.5q-59 53 -92 135.5t-33 182.5q0 174 92.5 284.5t234.5 110.5q104 0 181 -59q128 59 235 59q62 0 62 -47q0 -26 -17.5 -35.5t-52.5 -9.5q-96 0 -170 -21l-12 11q100 -115 100 -293q0 -173 -93.5 -284
t-232.5 -111q-91 0 -168 49q-42 -40 -61.5 -69t-19.5 -60q0 -56 65 -82.5t234 -26.5zM416 1042q-100 -7 -145 -96t-33 -248q13 -156 74.5 -236t158.5 -71q99 7 145.5 97t32.5 245q-15 157 -74.5 237.5t-158.5 71.5zM436 -385q189 0 301.5 64.5t112.5 183.5q0 50 -26 83.5
t-77.5 50.5t-112.5 23.5t-147 6.5q-144 0 -225 20q-85 -72 -119 -127t-34 -113q0 -88 85 -140t242 -52z" />
    <glyph glyph-name="Gdotaccent" unicode="&#x120;" horiz-adv-x="1470" 
d="M756 1878q-39 0 -66.5 27.5t-27.5 66.5q0 38 28 66t66 28q40 0 68 -28t28 -66q0 -40 -28 -67t-68 -27zM80 817q0 143 28 272.5t84 237t135 186t187.5 122.5t235.5 44q91 0 166 -18t112 -40t68.5 -40t46.5 -18q21 0 28 17.5t7 78.5h43l30 -563h-43q-27 266 -130.5 390
t-317.5 124q-133 0 -238 -62t-171 -170.5t-100 -251t-34 -309.5q0 -169 34 -309t103 -248.5t183.5 -169.5t265.5 -61q117 0 209 40.5t147 98.5v487q0 35 -4 55t-18.5 39.5t-40 29t-73 17t-111 9.5t-160.5 2v43h675v-43q-89 0 -112 -27.5t-23 -124.5v-501
q-106 -101 -226 -148t-273 -47q-176 0 -314 66.5t-224 184t-130.5 271.5t-44.5 336z" />
    <glyph glyph-name="gdotaccent" unicode="&#x121;" horiz-adv-x="942" 
d="M461 1368q-39 0 -66.5 27.5t-27.5 66.5q0 38 28 66t66 28q40 0 68 -28t28 -66q0 -40 -28 -67t-68 -27zM494 133q99 0 173.5 -12t133 -40t89 -77.5t30.5 -120.5q0 -99 -69.5 -185.5t-190.5 -138t-263 -51.5q-76 0 -141.5 14.5t-119.5 43.5t-85 79t-31 115q0 84 49 154
t148 147q-98 42 -98 138q0 51 31 96.5t92 103.5q-59 53 -92 135.5t-33 182.5q0 174 92.5 284.5t234.5 110.5q104 0 181 -59q128 59 235 59q62 0 62 -47q0 -26 -17.5 -35.5t-52.5 -9.5q-96 0 -170 -21l-12 11q100 -115 100 -293q0 -173 -93.5 -284t-232.5 -111q-91 0 -168 49
q-42 -40 -61.5 -69t-19.5 -60q0 -56 65 -82.5t234 -26.5zM416 1042q-100 -7 -145 -96t-33 -248q13 -156 74.5 -236t158.5 -71q99 7 145.5 97t32.5 245q-15 157 -74.5 237.5t-158.5 71.5zM436 -385q189 0 301.5 64.5t112.5 183.5q0 50 -26 83.5t-77.5 50.5t-112.5 23.5
t-147 6.5q-144 0 -225 20q-85 -72 -119 -127t-34 -113q0 -88 85 -140t242 -52z" />
    <glyph glyph-name="uni0122" unicode="&#x122;" horiz-adv-x="1470" 
d="M80 817q0 143 28 272.5t84 237t135 186t187.5 122.5t235.5 44q91 0 166 -18t112 -40t68.5 -40t46.5 -18q21 0 28 17.5t7 78.5h43l30 -563h-43q-27 266 -130.5 390t-317.5 124q-133 0 -238 -62t-171 -170.5t-100 -251t-34 -309.5q0 -169 34 -309t103 -248.5t183.5 -169.5
t265.5 -61q117 0 209 40.5t147 98.5v487q0 35 -4 55t-18.5 39.5t-40 29t-73 17t-111 9.5t-160.5 2v43h675v-43q-89 0 -112 -27.5t-23 -124.5v-501q-106 -101 -226 -148t-273 -47q-176 0 -314 66.5t-224 184t-130.5 271.5t-44.5 336zM791 -324q-27 0 -44.5 22.5t-17.5 57.5
q0 39 27 62.5t65 23.5q53 0 86 -34.5t33 -100.5q0 -69 -47.5 -123t-149.5 -80v45q48 12 89.5 44.5t41.5 72.5q0 31 -20 31q-6 0 -25 -10.5t-38 -10.5z" />
    <glyph glyph-name="uni0123" unicode="&#x123;" horiz-adv-x="942" 
d="M473 1364q-53 0 -85 34t-32 101q0 69 47.5 123t149.5 80v-45q-48 -12 -89.5 -44.5t-41.5 -72.5q0 -31 20 -31q6 0 25.5 10.5t38.5 10.5q26 0 43.5 -22.5t17.5 -57.5q0 -39 -27 -62.5t-67 -23.5zM494 133q99 0 173.5 -12t133 -40t89 -77.5t30.5 -120.5q0 -99 -69.5 -185.5
t-190.5 -138t-263 -51.5q-76 0 -141.5 14.5t-119.5 43.5t-85 79t-31 115q0 84 49 154t148 147q-98 42 -98 138q0 51 31 96.5t92 103.5q-59 53 -92 135.5t-33 182.5q0 174 92.5 284.5t234.5 110.5q104 0 181 -59q128 59 235 59q62 0 62 -47q0 -26 -17.5 -35.5t-52.5 -9.5
q-96 0 -170 -21l-12 11q100 -115 100 -293q0 -173 -93.5 -284t-232.5 -111q-91 0 -168 49q-42 -40 -61.5 -69t-19.5 -60q0 -56 65 -82.5t234 -26.5zM416 1042q-100 -7 -145 -96t-33 -248q13 -156 74.5 -236t158.5 -71q99 7 145.5 97t32.5 245q-15 157 -74.5 237.5
t-158.5 71.5zM436 -385q189 0 301.5 64.5t112.5 183.5q0 50 -26 83.5t-77.5 50.5t-112.5 23.5t-147 6.5q-144 0 -225 20q-85 -72 -119 -127t-34 -113q0 -88 85 -140t242 -52z" />
    <glyph glyph-name="Hbar" unicode="&#x126;" horiz-adv-x="1466" 
d="M1403 1227h-246v-1030q0 -41 4 -64.5t15 -43.5t35.5 -28.5t62 -13t98.5 -4.5v-43h-553v43q75 0 116 5.5t63.5 25t28 45.5t5.5 78v641h-639v-641q0 -52 5 -77.5t27.5 -45.5t63.5 -25.5t117 -5.5v-43h-553v43q76 0 117 5.5t63.5 25.5t27.5 45.5t5 77.5v1030h-203v61h203
v154q0 52 -5 77.5t-28 45t-63.5 25t-116.5 5.5v43h553v-43q-76 0 -116.5 -5.5t-63.5 -25t-28 -45t-5 -77.5v-154h639v154q0 52 -5.5 77.5t-28 45t-63.5 25t-116 5.5v43h553v-43q-61 0 -98.5 -4.5t-62 -13t-35.5 -28.5t-15 -43t-4 -64v-154h246v-61zM1032 907v320h-639v-320
h639z" />
    <glyph glyph-name="hbar" unicode="&#x127;" horiz-adv-x="1134" 
d="M795 197q0 -98 23 -126t110 -28v-43h-379v43q86 0 108.5 28t22.5 126v641q0 182 -121 182q-110 0 -248 -168v-655q0 -98 22.5 -126t108.5 -28v-43h-379v43q89 0 112.5 28t23.5 126v1106h-121v61h121v78v13q0 36 -0.5 51t-3.5 33.5t-9 22t-19 5t-30 -5t-45 -19.5l-18 41
l143 64l72 32l22 -22v-293h314v-61h-314v-381h6q129 190 277 190q201 0 201 -274v-641z" />
    <glyph glyph-name="Imacron" unicode="&#x12a;" horiz-adv-x="634" 
d="M66 2001h501v-70h-501v70zM254 1442q0 52 -5 77.5t-28 45t-63.5 25t-116.5 5.5v43h553v-43q-76 0 -116.5 -5.5t-63.5 -25t-28 -45t-5 -77.5v-1245q0 -52 5 -77.5t27.5 -45.5t63.5 -25.5t117 -5.5v-43h-553v43q76 0 117 5.5t63.5 25.5t27.5 45.5t5 77.5v1245z" />
    <glyph glyph-name="imacron" unicode="&#x12b;" horiz-adv-x="481" 
d="M-43 1491h502v-70h-502v70zM307 197q0 -98 23 -126t110 -28v-43h-381v43q87 0 110.5 28.5t23.5 125.5v677v13v39t-1.5 29.5t-4 23t-7.5 13t-12 7t-19 -1.5t-26 -7l-35 -15l-18 39l213 98l24 -25v-890z" />
    <glyph glyph-name="Iogonek" unicode="&#x12e;" horiz-adv-x="634" 
d="M592 -360l12 -43q-102 -76 -213 -76q-92 0 -151.5 52.5t-59.5 141.5q0 49 16.5 88.5t42 63.5t60 45t65 33.5t63.5 27.5t50 27h-436v43q76 0 117 5.5t63.5 25.5t27.5 45.5t5 77.5v1245q0 52 -5 77.5t-28 45t-63.5 25t-116.5 5.5v43h553v-43q-76 0 -116.5 -5.5t-63.5 -25
t-28 -45t-5 -77.5v-1245q0 -52 5 -77.5t27.5 -45.5t63.5 -25.5t117 -5.5v-43h-70q-22 -22 -57.5 -45.5t-64.5 -41.5t-57 -42.5t-44 -59.5t-16 -81q0 -62 37.5 -100t107.5 -38q66 0 162 48z" />
    <glyph glyph-name="iogonek" unicode="&#x12f;" horiz-adv-x="481" 
d="M209 1368q-39 0 -66.5 27.5t-27.5 66.5q0 38 28 66t66 28q40 0 68 -28t28 -66q0 -40 -28 -67t-68 -27zM481 -360l13 -43q-102 -76 -213 -76q-92 0 -151.5 52.5t-59.5 141.5q0 49 16.5 88.5t42 63.5t60 45t65 33.5t63.5 27.5t50 27h-308v43q87 0 110.5 28.5t23.5 125.5
v677v13v39t-1.5 29.5t-4 23t-7.5 13t-12 7t-19 -1.5t-26 -7l-35 -15l-18 39l213 98l24 -25v-890q0 -98 23 -126t110 -28v-43h-26q-22 -22 -57.5 -45.5t-65 -41.5t-57.5 -42.5t-44 -59.5t-16 -81q0 -62 37.5 -100t107.5 -38q66 0 162 48z" />
    <glyph glyph-name="Idotaccent" unicode="&#x130;" horiz-adv-x="634" 
d="M317 1878q-39 0 -66.5 27.5t-27.5 66.5q0 38 28 66t66 28q40 0 68.5 -28t28.5 -66q0 -39 -28.5 -66.5t-68.5 -27.5zM254 1442q0 52 -5 77.5t-28 45t-63.5 25t-116.5 5.5v43h553v-43q-76 0 -116.5 -5.5t-63.5 -25t-28 -45t-5 -77.5v-1245q0 -52 5 -77.5t27.5 -45.5
t63.5 -25.5t117 -5.5v-43h-553v43q76 0 117 5.5t63.5 25.5t27.5 45.5t5 77.5v1245z" />
    <glyph glyph-name="dotlessi" unicode="&#x131;" horiz-adv-x="481" 
d="M307 197q0 -98 23 -126t110 -28v-43h-381v43q87 0 110.5 28.5t23.5 125.5v677v13v39t-1.5 29.5t-4 23t-7.5 13t-12 7t-19 -1.5t-26 -7l-35 -15l-18 39l213 98l24 -25v-890z" />
    <glyph glyph-name="uni0136" unicode="&#x136;" horiz-adv-x="1495" 
d="M252 1442q0 52 -5 77.5t-28 45t-63.5 25t-116.5 5.5v43h553v-43q-76 0 -116.5 -5.5t-63.5 -25t-28 -45t-5 -77.5v-1245q0 -52 5 -77.5t27.5 -45.5t63.5 -25.5t117 -5.5v-43h-553v43q76 0 117 5.5t63.5 25.5t27.5 45.5t5 77.5v1245zM1196 152q57 -69 109 -89t149 -20v-43
h-483v43q116 0 121 17.5t-62 91.5l-577 696l522 639q53 65 58 75q10 22 -20 28q-25 5 -102 5v43h410v-43q-97 0 -148 -19.5t-108 -88.5l-477 -588zM770 -324q-26 0 -43.5 22.5t-17.5 57.5q0 39 27 62.5t65 23.5q53 0 86 -34.5t33 -100.5q0 -69 -47.5 -123t-149.5 -80v45
q48 12 89.5 44.5t41.5 72.5q0 31 -20 31q-6 0 -25.5 -10.5t-38.5 -10.5z" />
    <glyph glyph-name="uni0137" unicode="&#x137;" horiz-adv-x="956" 
d="M307 197q0 -98 23 -126t110 -28v-43h-381v43q87 0 110.5 28.5t23.5 125.5v1245v13v40t-1.5 29.5t-4 23t-7.5 13t-12 7t-19 -2t-26 -7.5t-35 -16l-18 41l213 96l24 -22v-1460zM745 170q45 -79 85 -103t106 -24v-43h-393v43q95 0 104 19t-35 91q-7 11 -10 17l-254 453
l252 297q10 12 26 31q47 52 39 63.5t-100 11.5v45h344v-45q-71 0 -116.5 -19t-102.5 -87l-221 -263zM455 -324q-27 0 -44.5 22.5t-17.5 57.5q0 39 27 62.5t65 23.5q53 0 86 -34.5t33 -100.5q0 -69 -47 -123t-149 -80v45q48 12 89.5 44.5t41.5 72.5q0 31 -21 31
q-6 0 -25 -10.5t-38 -10.5z" />
    <glyph glyph-name="Lacute" unicode="&#x139;" horiz-adv-x="1181" 
d="M317 1790l138 367h163l-235 -367h-66zM594 1638v-43q-76 0 -116.5 -5.5t-63.5 -25t-28 -45t-5 -77.5v-1249q0 -77 20 -100t86 -23h373q51 0 80 10.5t57.5 51t51 111.5t53.5 201l43 -10l-96 -399l-9 -35h-999v43q76 0 117 5.5t63.5 25.5t27.5 45.5t5 77.5v1245
q0 52 -5 77.5t-28 45t-63.5 25t-116.5 5.5v43h553z" />
    <glyph glyph-name="lacute" unicode="&#x13a;" horiz-adv-x="481" 
d="M172 1823l137 366h164l-235 -366h-66zM307 197q0 -98 23 -126t110 -28v-43h-381v43q87 0 110.5 28.5t23.5 125.5v1245v13v40t-1.5 29.5t-4 23t-7.5 13t-12 7t-19 -2t-26 -7.5t-35 -16l-18 41l213 96l24 -22v-1460z" />
    <glyph glyph-name="uni013B" unicode="&#x13b;" horiz-adv-x="1181" 
d="M594 1638v-43q-76 0 -116.5 -5.5t-63.5 -25t-28 -45t-5 -77.5v-1249q0 -77 20 -100t86 -23h373q51 0 80 10.5t57.5 51t51 111.5t53.5 201l43 -10l-96 -399l-9 -35h-999v43q76 0 117 5.5t63.5 25.5t27.5 45.5t5 77.5v1245q0 52 -5 77.5t-28 45t-63.5 25t-116.5 5.5v43h553
zM604 -324q-26 0 -42.5 22.5t-16.5 57.5q0 39 26.5 62.5t65.5 23.5q53 0 85 -34t32 -101q0 -69 -46.5 -123t-150.5 -80v45q49 12 90 44t41 73q0 31 -20 31q-6 0 -25 -10.5t-39 -10.5z" />
    <glyph glyph-name="uni013C" unicode="&#x13c;" horiz-adv-x="481" 
d="M307 197q0 -98 23 -126t110 -28v-43h-381v43q87 0 110.5 28.5t23.5 125.5v1245v13v40t-1.5 29.5t-4 23t-7.5 13t-12 7t-19 -2t-26 -7.5t-35 -16l-18 41l213 96l24 -22v-1460zM205 -324q-27 0 -44.5 22.5t-17.5 57.5q0 38 27.5 62t65.5 24q53 0 85.5 -34t32.5 -101
q0 -69 -47 -123t-149 -80v45q48 12 89.5 44.5t41.5 72.5q0 31 -21 31q-6 0 -25 -10.5t-38 -10.5z" />
    <glyph glyph-name="Lcaron" unicode="&#x13d;" horiz-adv-x="1228" 
d="M735 1315l137 364h164l-233 -364h-68zM594 1638v-43q-76 0 -116.5 -5.5t-63.5 -25t-28 -45t-5 -77.5v-1249q0 -77 20 -100t86 -23h373q51 0 80 10.5t57.5 51t51 111.5t53.5 201l43 -10l-96 -399l-9 -35h-999v43q76 0 117 5.5t63.5 25.5t27.5 45.5t5 77.5v1245
q0 52 -5 77.5t-28 45t-63.5 25t-116.5 5.5v43h553z" />
    <glyph glyph-name="lcaron" unicode="&#x13e;" horiz-adv-x="692" 
d="M307 197q0 -98 23 -126t110 -28v-43h-381v43q87 0 110.5 28.5t23.5 125.5v1245v13v40t-1.5 29.5t-4 23t-7.5 13t-12 7t-19 -2t-26 -7.5t-35 -16l-18 41l213 96l24 -22v-1460zM514 1573q0 106 70 106q69 0 69 -106q0 -56 -6.5 -118t-19 -155.5t-19.5 -162.5h-45
q-6 61 -27.5 212.5t-21.5 223.5z" />
    <glyph glyph-name="Lslash" unicode="&#x141;" horiz-adv-x="1181" 
d="M1102 444l43 -10l-96 -399l-9 -35h-999v43q76 0 117 5.5t63.5 25.5t27.5 45.5t5 77.5v512l-160 -93l-31 54l191 110v662q0 52 -5 77.5t-28 45t-63.5 25t-116.5 5.5v43h553v-43q-76 0 -116.5 -5.5t-63.5 -25t-28 -45t-5 -77.5v-588l475 274l31 -53l-506 -293v-589
q0 -77 20 -100t86 -23h373q51 0 80 10.5t57.5 51t51 111.5t53.5 201z" />
    <glyph glyph-name="lslash" unicode="&#x142;" horiz-adv-x="587" 
d="M332 197q0 -97 23.5 -125.5t111.5 -28.5v-43h-381v43q87 0 110 28t23 126v577l-143 -84l-31 53l174 101v598q0 94 -7 110q-10 24 -55 8q-17 -6 -44 -18l-17 41l213 96l23 -22v-748l180 105l31 -53l-211 -123v-641z" />
    <glyph glyph-name="Nacute" unicode="&#x143;" horiz-adv-x="1525" 
d="M950 2157l-235 -367h-66l137 367h164zM1485 1638v-43q-76 0 -116.5 -5.5t-63.5 -25t-28 -45t-5 -77.5v-1489h-62l-886 1444v-1200q0 -52 5.5 -78t28 -45.5t63.5 -25t116 -5.5v-43h-496v43q76 0 117 5.5t63.5 25.5t27.5 45.5t5 77.5v1310q-41 54 -85.5 71t-127.5 17v43
h291l864 -1402h6v1206q0 52 -5.5 77.5t-28 45t-63.5 25t-116 5.5v43h496z" />
    <glyph glyph-name="nacute" unicode="&#x144;" horiz-adv-x="964" 
d="M399 1280l138 367h163l-235 -367h-66zM307 1087v-165h6q129 190 275 190q200 0 200 -274v-641q0 -98 23.5 -126t112.5 -28v-43h-379v43q86 0 108.5 28t22.5 126v641q0 182 -123 182q-112 0 -246 -168v-655q0 -98 22.5 -126t106.5 -28v-43h-377v43q87 0 110.5 28.5
t23.5 125.5v677v13v39t-1.5 29.5t-4 23t-7.5 13t-12 7t-19 -1.5t-26 -7l-35 -15l-18 39l213 98z" />
    <glyph glyph-name="uni0145" unicode="&#x145;" horiz-adv-x="1525" 
d="M1485 1638v-43q-76 0 -116.5 -5.5t-63.5 -25t-28 -45t-5 -77.5v-1489h-62l-886 1444v-1200q0 -52 5.5 -78t28 -45.5t63.5 -25t116 -5.5v-43h-496v43q76 0 117 5.5t63.5 25.5t27.5 45.5t5 77.5v1310q-41 54 -85.5 71t-127.5 17v43h291l864 -1402h6v1206q0 52 -5.5 77.5
t-28 45t-63.5 25t-116 5.5v43h496zM836 -158q53 0 85.5 -34t32.5 -101q0 -69 -47 -123t-149 -80v45q48 12 89.5 44.5t41.5 72.5q0 31 -21 31q-6 0 -25 -10.5t-38 -10.5q-27 0 -44.5 22.5t-17.5 57.5q0 38 27.5 62t65.5 24z" />
    <glyph glyph-name="uni0146" unicode="&#x146;" horiz-adv-x="964" 
d="M307 1087v-165h6q129 190 275 190q200 0 200 -274v-641q0 -98 23.5 -126t112.5 -28v-43h-379v43q86 0 108.5 28t22.5 126v641q0 182 -123 182q-112 0 -246 -168v-655q0 -98 22.5 -126t106.5 -28v-43h-377v43q87 0 110.5 28.5t23.5 125.5v677v13v39t-1.5 29.5t-4 23
t-7.5 13t-12 7t-19 -1.5t-26 -7l-35 -15l-18 39l213 98zM455 -324q-27 0 -44.5 22.5t-17.5 57.5q0 39 27 62.5t65 23.5q53 0 86 -34.5t33 -100.5q0 -69 -47 -123t-149 -80v45q48 12 89.5 44.5t41.5 72.5q0 31 -21 31q-6 0 -25 -10.5t-38 -10.5z" />
    <glyph glyph-name="Ncaron" unicode="&#x147;" horiz-adv-x="1525" 
d="M649 1788l-184 366h67l191 -266l190 266h68l-184 -366h-148zM1485 1638v-43q-76 0 -116.5 -5.5t-63.5 -25t-28 -45t-5 -77.5v-1489h-62l-886 1444v-1200q0 -52 5.5 -78t28 -45.5t63.5 -25t116 -5.5v-43h-496v43q76 0 117 5.5t63.5 25.5t27.5 45.5t5 77.5v1310
q-41 54 -85.5 71t-127.5 17v43h291l864 -1402h6v1206q0 52 -5.5 77.5t-28 45t-63.5 25t-116 5.5v43h496z" />
    <glyph glyph-name="ncaron" unicode="&#x148;" horiz-adv-x="964" 
d="M399 1278l-184 367h68l190 -267l191 267h67l-184 -367h-148zM788 197q0 -98 23.5 -126t112.5 -28v-43h-379v43q86 0 108.5 28t22.5 126v641q0 182 -123 182q-112 0 -246 -168v-655q0 -98 22.5 -126t106.5 -28v-43h-377v43q87 0 110.5 28.5t23.5 125.5v677v13v39
t-1.5 29.5t-4 23t-7.5 13t-12 7t-19 -1.5t-26 -7l-35 -15l-18 39l213 98l24 -25v-165h6q129 190 275 190q200 0 200 -274v-641z" />
    <glyph glyph-name="Eng" unicode="&#x14a;" horiz-adv-x="1525" 
d="M1485 1638v-43q-76 0 -116.5 -5.5t-63.5 -25t-28 -45t-5 -77.5v-1503q0 -72 -6.5 -131t-24 -116.5t-46 -96.5t-76 -63t-109.5 -24q-106 0 -165 53t-59 126q0 39 21.5 60.5t54.5 21.5q35 0 56.5 -22.5t21.5 -65.5q0 -29 2 -43.5t10 -30.5t27.5 -22.5t52.5 -6.5
q47 0 81.5 30t53 81.5t27 109t8.5 121.5v47l-878 1430v-1200q0 -52 5.5 -78t28 -45.5t63.5 -25t116 -5.5v-43h-496v43q76 0 117 5.5t63.5 25.5t27.5 45.5t5 77.5v1310q-41 54 -85.5 71t-127.5 17v43h291l864 -1402h6v1206q0 52 -5.5 77.5t-28 45t-63.5 25t-116 5.5v43h496z
" />
    <glyph glyph-name="eng" unicode="&#x14b;" horiz-adv-x="948" 
d="M672 1112q235 0 235 -311v-860q0 -86 -6 -148.5t-22 -119t-44.5 -91t-73.5 -54.5t-108 -20q-109 0 -163 50.5t-54 126.5q0 37 21.5 58t56.5 21t56 -22t22 -64q2 -63 11 -79q14 -21 52 -21q20 0 36 3.5t28.5 13t22.5 19t17 27.5t12 31.5t8.5 39.5t5 42.5t2.5 48.5t1 50v55
v913q0 211 -163 211q-77 0 -159.5 -59t-152.5 -158v-618q0 -98 22.5 -126t106.5 -28v-43h-383v43q87 0 110.5 28.5t23.5 125.5v677q0 92 -7 109q-11 25 -57 11q-17 -5 -45 -17l-16 41l145 59l78 35l22 -25v-202h6q73 101 166 164t187 63z" />
    <glyph glyph-name="Omacron" unicode="&#x14c;" horiz-adv-x="1355" 
d="M428 2001h502v-70h-502v70zM678 -41q-137 0 -251 68t-189 185t-116.5 273t-41.5 334t41.5 334t116.5 273t189 185t251 68q138 0 252 -68t189 -185t116 -273t41 -334t-41 -334t-116 -273t-189 -185t-252 -68zM748 29q139 13 234.5 123t134 293t18.5 415
q-31 352 -174.5 561t-352.5 191q-139 -13 -235 -123.5t-135 -294.5t-19 -416q20 -231 91 -404.5t184.5 -265t253.5 -79.5z" />
    <glyph glyph-name="omacron" unicode="&#x14d;" horiz-adv-x="968" 
d="M233 1491h502v-70h-502v70zM485 -41q-124 0 -217.5 78t-140.5 207.5t-47 290.5q0 162 47 292t140 207.5t218 77.5q124 0 217 -77.5t140 -207.5t47 -292q0 -161 -47 -290.5t-140 -207.5t-217 -78zM528 31q127 10 189.5 152.5t42.5 375.5t-106 362.5t-214 118.5
q-128 -12 -189.5 -153.5t-41.5 -376.5q22 -234 107 -362.5t212 -116.5z" />
    <glyph glyph-name="Ohungarumlaut" unicode="&#x150;" horiz-adv-x="1355" 
d="M494 1790l114 367h131l-184 -367h-61zM700 1790l121 367h129l-188 -367h-62zM678 -41q-137 0 -251 68t-189 185t-116.5 273t-41.5 334t41.5 334t116.5 273t189 185t251 68q138 0 252 -68t189 -185t116 -273t41 -334t-41 -334t-116 -273t-189 -185t-252 -68zM748 29
q139 13 234.5 123t134 293t18.5 415q-31 352 -174.5 561t-352.5 191q-139 -13 -235 -123.5t-135 -294.5t-19 -416q20 -231 91 -404.5t184.5 -265t253.5 -79.5z" />
    <glyph glyph-name="ohungarumlaut" unicode="&#x151;" horiz-adv-x="968" 
d="M299 1280l115 367h131l-185 -367h-61zM506 1280l121 367h129l-189 -367h-61zM485 -41q-124 0 -217.5 78t-140.5 207.5t-47 290.5q0 162 47 292t140 207.5t218 77.5q124 0 217 -77.5t140 -207.5t47 -292q0 -161 -47 -290.5t-140 -207.5t-217 -78zM528 31
q127 10 189.5 152.5t42.5 375.5t-106 362.5t-214 118.5q-128 -12 -189.5 -153.5t-41.5 -376.5q22 -234 107 -362.5t212 -116.5z" />
    <glyph glyph-name="OE" unicode="&#x152;" horiz-adv-x="1804" 
d="M1741 422l41 -12l-109 -373l-10 -37h-674q-50 0 -146.5 -10t-174.5 -10q-184 0 -319 112t-202 300t-67 427t67 427.5t202 300.5t319 112q78 0 174.5 -10.5t146.5 -10.5h668l4 -41l35 -317l-45 -4q-11 103 -22.5 158t-33.5 87t-49 40t-78 8h-454v-674h297q42 0 64.5 4
t42 16t27.5 39t12.5 67.5t4.5 108.5h45v-540h-45q0 68 -4.5 108.5t-12.5 67.5t-27.5 39t-42 16t-64.5 4h-297v-639q0 -72 18 -94t78 -22h377q51 0 80 10t59 49t54.5 105t60.5 188zM647 49q67 0 118.5 17.5t115.5 62.5v1382q-64 47 -115.5 64.5t-118.5 15.5
q-135 -4 -233.5 -106t-147.5 -273.5t-49 -392.5t49 -393.5t147.5 -274.5t233.5 -102z" />
    <glyph glyph-name="oe" unicode="&#x153;" horiz-adv-x="1548" 
d="M1425 436h43q-25 -234 -112.5 -355.5t-212.5 -121.5q-108 0 -185 76.5t-114 214.5q-49 -135 -141.5 -213t-217.5 -78q-124 0 -217.5 78t-140.5 207.5t-47 290.5q0 162 47 292t140 207.5t218 77.5q127 0 221.5 -81t139.5 -220q43 139 124 220t191 81q140 0 221.5 -140.5
t81.5 -371.5h-534v-45q0 -134 27.5 -244.5t83.5 -179t130 -68.5q83 0 150.5 88.5t103.5 284.5zM528 31q127 10 189.5 152.5t42.5 375.5t-106 362.5t-214 118.5q-128 -12 -189.5 -153.5t-41.5 -376.5q22 -234 107 -362.5t212 -116.5zM1155 1042q-64 0 -112 -51.5t-74 -132.5
t-35 -188h409q0 73 -10.5 137t-32 118t-59 85.5t-86.5 31.5z" />
    <glyph glyph-name="Racute" unicode="&#x154;" horiz-adv-x="1216" 
d="M805 2157l-234 -367h-67l137 367h164zM954 174q41 -82 86 -106.5t138 -24.5v-43h-156q-29 0 -45 1t-34 5t-29 11.5t-24.5 21.5t-24.5 34t-25 50l-348 682h-52h-59v-608q0 -52 5 -77.5t27.5 -45.5t63.5 -25.5t117 -5.5v-43h-553v43q76 0 117 5.5t63.5 25.5t27.5 45.5
t5 77.5v1245q0 52 -5 77.5t-28 45t-63.5 25t-116.5 5.5v43h518q218 0 341.5 -104t123.5 -301q0 -374 -455 -422h2v-6q85 -40 146 -164zM440 874q57 -1 111.5 6t118.5 30.5t111 61.5t78.5 106t31.5 157q0 160 -93 247t-241 87q-110 0 -176 -37v-658h59z" />
    <glyph glyph-name="racute" unicode="&#x155;" horiz-adv-x="718" 
d="M653 1647l-235 -367h-66l137 367h164zM559 1112q53 0 87 -26t34 -70q0 -32 -21.5 -56t-56.5 -24q-51 0 -72 43q-12 29 -36 29q-43 0 -83 -41.5t-104 -145.5v-624q0 -52 5.5 -78.5t27.5 -45.5t60 -24.5t108 -5.5v-43h-449v43q87 0 110.5 28.5t23.5 125.5v677v13v39
t-1.5 29.5t-4 23t-7.5 13t-12 7t-19 -1.5t-26 -7l-35 -15l-18 39l213 98l24 -25v-172h6q111 197 246 197z" />
    <glyph glyph-name="uni0156" unicode="&#x156;" horiz-adv-x="1216" 
d="M954 174q41 -82 86 -106.5t138 -24.5v-43h-156q-29 0 -45 1t-34 5t-29 11.5t-24.5 21.5t-24.5 34t-25 50l-348 682h-52h-59v-608q0 -52 5 -77.5t27.5 -45.5t63.5 -25.5t117 -5.5v-43h-553v43q76 0 117 5.5t63.5 25.5t27.5 45.5t5 77.5v1245q0 52 -5 77.5t-28 45t-63.5 25
t-116.5 5.5v43h518q218 0 341.5 -104t123.5 -301q0 -374 -455 -422h2v-6q85 -40 146 -164zM440 874q57 -1 111.5 6t118.5 30.5t111 61.5t78.5 106t31.5 157q0 160 -93 247t-241 87q-110 0 -176 -37v-658h59zM735 -158q53 0 86 -34.5t33 -100.5q0 -69 -47.5 -123t-149.5 -80
v45q48 12 89.5 44.5t41.5 72.5q0 31 -20 31q-6 0 -25 -10.5t-38 -10.5q-27 0 -44.5 22.5t-17.5 57.5q0 39 27 62.5t65 23.5z" />
    <glyph glyph-name="uni0157" unicode="&#x157;" horiz-adv-x="718" 
d="M559 1112q53 0 87 -26t34 -70q0 -32 -21.5 -56t-56.5 -24q-51 0 -72 43q-12 29 -36 29q-43 0 -83 -41.5t-104 -145.5v-624q0 -52 5.5 -78.5t27.5 -45.5t60 -24.5t108 -5.5v-43h-449v43q87 0 110.5 28.5t23.5 125.5v677v13v39t-1.5 29.5t-4 23t-7.5 13t-12 7t-19 -1.5
t-26 -7l-35 -15l-18 39l213 98l24 -25v-172h6q111 197 246 197zM270 -158q53 0 86 -34.5t33 -100.5q0 -69 -47 -123t-149 -80v45q48 12 89.5 44.5t41.5 72.5q0 31 -21 31q-6 0 -25 -10.5t-38 -10.5q-27 0 -44.5 22.5t-17.5 57.5q0 39 27 62.5t65 23.5z" />
    <glyph glyph-name="Rcaron" unicode="&#x158;" horiz-adv-x="1216" 
d="M508 1788l-184 364h67l191 -264l190 264h68l-185 -364h-147zM954 174q41 -82 86 -106.5t138 -24.5v-43h-156q-29 0 -45 1t-34 5t-29 11.5t-24.5 21.5t-24.5 34t-25 50l-348 682h-52h-59v-608q0 -52 5 -77.5t27.5 -45.5t63.5 -25.5t117 -5.5v-43h-553v43q76 0 117 5.5
t63.5 25.5t27.5 45.5t5 77.5v1245q0 52 -5 77.5t-28 45t-63.5 25t-116.5 5.5v43h518q218 0 341.5 -104t123.5 -301q0 -374 -455 -422h2v-6q85 -40 146 -164zM440 874q57 -1 111.5 6t118.5 30.5t111 61.5t78.5 106t31.5 157q0 160 -93 247t-241 87q-110 0 -176 -37v-658h59z
" />
    <glyph glyph-name="rcaron" unicode="&#x159;" horiz-adv-x="718" 
d="M352 1278l-184 367h68l190 -267l190 267h68l-184 -367h-148zM559 1112q53 0 87 -26t34 -70q0 -32 -21.5 -56t-56.5 -24q-51 0 -72 43q-12 29 -36 29q-43 0 -83 -41.5t-104 -145.5v-624q0 -52 5.5 -78.5t27.5 -45.5t60 -24.5t108 -5.5v-43h-449v43q87 0 110.5 28.5
t23.5 125.5v677v13v39t-1.5 29.5t-4 23t-7.5 13t-12 7t-19 -1.5t-26 -7l-35 -15l-18 39l213 98l24 -25v-172h6q111 197 246 197z" />
    <glyph glyph-name="Sacute" unicode="&#x15a;" horiz-adv-x="1093" 
d="M469 1790l137 367h164l-235 -367h-66zM123 -2v584h43q1 -125 34 -230.5t88.5 -175t127 -108.5t149.5 -39q135 0 214 82.5t79 218.5q0 29 -6.5 58.5t-15.5 55t-28 55t-33.5 51t-44 52t-48 49.5t-55.5 52t-56.5 49.5t-62.5 52.5t-62 53q-69 61 -102 91t-79 76t-66 75.5
t-41.5 70.5t-29 81.5t-7.5 88.5q0 156 103.5 247t267.5 91q62 0 116.5 -16t90 -38.5t62.5 -45.5t46.5 -39t30.5 -16q10 0 15 7t8 32.5t3 76.5h45v-475h-45q-2 194 -105 319.5t-261 125.5q-130 0 -196 -70t-66 -168q0 -44 16 -88t35.5 -76t60.5 -75.5t66 -66.5t79.5 -69.5
t75.5 -64.5q185 -164 215 -193q119 -116 158 -215q31 -78 31 -180q0 -90 -33 -164.5t-88.5 -121.5t-124.5 -73t-143 -26q-69 0 -127 16.5t-95 40t-65.5 47t-50.5 40t-37 16.5q-25 0 -34 -26.5t-9 -94.5h-43z" />
    <glyph glyph-name="sacute" unicode="&#x15b;" horiz-adv-x="716" 
d="M328 1280l137 367h164l-236 -367h-65zM104 -20v401h43q18 -159 87.5 -255.5t175.5 -96.5q69 0 103 43.5t34 120.5q0 49 -15 92t-50.5 88t-64.5 74t-88 83q-8 7 -12 11q-58 53 -87 82.5t-64 74t-49.5 88t-14.5 93.5q0 100 65.5 166.5t166.5 66.5q45 0 82.5 -13t57 -28
t37.5 -28t28 -13q16 0 19 12.5t3 49.5h43v-328h-43q-20 123 -76.5 200.5t-144.5 77.5q-66 0 -97.5 -42t-31.5 -91q0 -77 50 -142.5t153 -154.5q138 -121 189.5 -202t51.5 -195q0 -123 -68.5 -189.5t-170.5 -66.5q-49 0 -92 13t-66.5 28t-45.5 28t-34 13q-18 0 -24.5 -14.5
t-6.5 -46.5h-43z" />
    <glyph glyph-name="Scedilla" unicode="&#x15e;" horiz-adv-x="1093" 
d="M973 344q0 -155 -90.5 -254.5t-225.5 -124.5l-63 -74q75 -6 127.5 -48t52.5 -109q0 -87 -62.5 -144.5t-158 -77t-207.5 -6.5l12 43q140 -8 226 34.5t86 135.5q0 40 -15 67t-44.5 41t-63 19.5t-80.5 6.5l106 106q-66 1 -122.5 18t-92 40.5t-63.5 46.5t-49.5 39t-36.5 16
q-25 0 -34 -26.5t-9 -94.5h-43v584h43q1 -125 34 -230.5t88.5 -175t127 -108.5t149.5 -39q135 0 214 82.5t79 218.5q0 29 -6.5 58.5t-15.5 55t-28 55t-33.5 51t-44 52t-48 49.5t-55.5 52t-56.5 49.5t-62.5 52.5t-62 53q-69 61 -102 91t-79 76t-66 75.5t-41.5 70.5t-29 81.5
t-7.5 88.5q0 156 103.5 247t267.5 91q62 0 116.5 -16t90 -38.5t62.5 -45.5t46.5 -39t30.5 -16q10 0 15 7t8 32.5t3 76.5h45v-475h-45q-2 194 -105 319.5t-261 125.5q-130 0 -196 -70t-66 -168q0 -44 16 -88t35.5 -76t60.5 -75.5t66 -66.5t79.5 -69.5t75.5 -64.5
q185 -164 215 -193q119 -116 158 -215q31 -78 31 -180z" />
    <glyph glyph-name="scedilla" unicode="&#x15f;" horiz-adv-x="716" 
d="M449 -109q75 -6 127.5 -48t52.5 -109q0 -87 -62.5 -144.5t-158 -77t-207.5 -6.5l12 43q140 -8 225.5 34.5t85.5 135.5q0 53 -28 83.5t-69 40t-105 10.5l106 106h-12q-49 0 -92 13t-66.5 28t-45.5 28t-34 13q-18 0 -24.5 -14.5t-6.5 -46.5h-43v401h43q18 -159 87.5 -255.5
t175.5 -96.5q69 0 103 43.5t34 120.5q0 49 -15 92t-50.5 88t-64.5 74t-88 83q-8 7 -12 11q-58 53 -87 82.5t-64 74t-49.5 88t-14.5 93.5q0 100 65.5 166.5t166.5 66.5q45 0 82.5 -13t57 -28t37.5 -28t28 -13q16 0 19 12.5t3 49.5h43v-328h-43q-20 123 -76.5 200.5
t-144.5 77.5q-66 0 -97.5 -42t-31.5 -91q0 -77 50 -142.5t153 -154.5q138 -121 189.5 -202t51.5 -195q0 -167 -127 -231z" />
    <glyph glyph-name="Scaron" unicode="&#x160;" horiz-adv-x="1093" 
d="M469 1788l-184 366h67l191 -266l190 266h68l-185 -366h-147zM569 932q185 -164 215 -193q119 -116 158 -215q31 -78 31 -180q0 -90 -33 -164.5t-88.5 -121.5t-124.5 -73t-143 -26q-69 0 -127 16.5t-95 40t-65.5 47t-50.5 40t-37 16.5q-25 0 -34 -26.5t-9 -94.5h-43v584
h43q1 -125 34 -230.5t88.5 -175t127 -108.5t149.5 -39q135 0 214 82.5t79 218.5q0 29 -6.5 58.5t-15.5 55t-28 55t-33.5 51t-44 52t-48 49.5t-55.5 52t-56.5 49.5t-62.5 52.5t-62 53q-69 61 -102 91t-79 76t-66 75.5t-41.5 70.5t-29 81.5t-7.5 88.5q0 156 103.5 247
t267.5 91q62 0 116.5 -16t90 -38.5t62.5 -45.5t46.5 -39t30.5 -16q10 0 15 7t8 32.5t3 76.5h45v-475h-45q-2 194 -105 319.5t-261 125.5q-130 0 -196 -70t-66 -168q0 -44 16 -88t35.5 -76t60.5 -75.5t66 -66.5t79.5 -69.5t75.5 -64.5z" />
    <glyph glyph-name="scaron" unicode="&#x161;" horiz-adv-x="716" 
d="M328 1278l-185 367h68l190 -267l191 267h67l-184 -367h-147zM414 612q138 -121 189.5 -202t51.5 -195q0 -123 -68.5 -189.5t-170.5 -66.5q-49 0 -92 13t-66.5 28t-45.5 28t-34 13q-18 0 -24.5 -14.5t-6.5 -46.5h-43v401h43q18 -159 87.5 -255.5t175.5 -96.5
q69 0 103 43.5t34 120.5q0 49 -15 92t-50.5 88t-64.5 74t-88 83q-8 7 -12 11q-58 53 -87 82.5t-64 74t-49.5 88t-14.5 93.5q0 100 65.5 166.5t166.5 66.5q45 0 82.5 -13t57 -28t37.5 -28t28 -13q16 0 19 12.5t3 49.5h43v-328h-43q-20 123 -76.5 200.5t-144.5 77.5
q-66 0 -97.5 -42t-31.5 -91q0 -77 50 -142.5t153 -154.5z" />
    <glyph glyph-name="uni0162" unicode="&#x162;" horiz-adv-x="1255" 
d="M1163 1597l29 -325l-43 -4q-10 105 -20.5 162t-32.5 90t-49 41t-78 8h-279v-1372q0 -52 5.5 -78t28 -45.5t63.5 -25t116 -5.5v-43h-209l-92 -109q75 -6 126.5 -48t51.5 -109q0 -87 -62.5 -144.5t-157.5 -77t-206 -6.5l13 43q139 -8 224 34.5t85 135.5q0 77 -51.5 104.5
t-151.5 29.5l148 147h-271v43q61 0 98.5 4.5t62 13t35.5 28.5t15 43.5t4 64.5v1372h-280q-51 0 -78 -8t-49 -41t-33 -89.5t-21 -162.5l-43 4l31 325l4 41h1063z" />
    <glyph glyph-name="uni0163" unicode="&#x163;" horiz-adv-x="663" 
d="M424 -109q75 -6 127.5 -48t52.5 -109q0 -87 -62.5 -144.5t-158 -77t-207.5 -6.5l12 43q140 -8 226 34.5t86 135.5q0 40 -15 67t-44.5 41t-63 19.5t-80.5 6.5l106 106q-105 2 -157.5 88.5t-52.5 280.5v673h-170v70q130 1 179 65t54 228h49v-293h248v-70h-248v-598
q0 -62 1 -101.5t5.5 -84t13 -71t23 -50t36.5 -33.5t52 -10q75 0 109 88.5t35 309.5h43q-2 -206 -28 -318t-95 -151z" />
    <glyph glyph-name="Tcaron" unicode="&#x164;" horiz-adv-x="1255" 
d="M555 1788l-184 366h67l191 -266l190 266h68l-185 -366h-147zM1163 1597l29 -325l-43 -4q-10 105 -20.5 162t-32.5 90t-49 41t-78 8h-279v-1372q0 -52 5.5 -78t28 -45.5t63.5 -25t116 -5.5v-43h-553v43q61 0 98.5 4.5t62 13t35.5 28.5t15 43.5t4 64.5v1372h-280
q-51 0 -78 -8t-49 -41t-33 -89.5t-21 -162.5l-43 4l31 325l4 41h1063z" />
    <glyph glyph-name="tcaron" unicode="&#x165;" horiz-adv-x="679" 
d="M440 1198l138 367h163l-235 -367h-66zM580 451h43q-1 -102 -6.5 -174.5t-19.5 -135.5t-37.5 -101t-60.5 -59.5t-89 -21.5q-108 0 -162.5 86.5t-54.5 282.5v673h-170v70q130 1 179 65t54 228h49v-293h248v-70h-248v-598q0 -62 1 -101.5t5.5 -84t13 -71t23 -50t36.5 -33.5
t52 -10q75 0 109 88.5t35 309.5z" />
    <glyph glyph-name="Tbar" unicode="&#x166;" horiz-adv-x="1296" 
d="M1163 1597l29 -325l-43 -4q-10 105 -20.5 162t-32.5 90t-49 41t-78 8h-279v-731h338v-62h-338v-579q0 -52 5.5 -78t28 -45.5t63.5 -25t116 -5.5v-43h-553v43q61 0 98.5 4.5t62 13t35.5 28.5t15 43.5t4 64.5v579h-295v62h295v731h-280q-51 0 -78 -8t-49 -41t-33 -89.5
t-21 -162.5l-43 4l31 325l4 41h1063z" />
    <glyph glyph-name="tbar" unicode="&#x167;" horiz-adv-x="681" 
d="M580 451h43q-1 -102 -6.5 -174.5t-19.5 -135.5t-37.5 -101t-60.5 -59.5t-89 -21.5q-108 0 -162.5 86.5t-54.5 282.5v374h-173v62h173v237h-170v70q130 1 179 65t54 228h49v-293h248v-70h-248v-237h246v-62h-246v-299q0 -62 1 -101.5t5.5 -84t13 -71t23 -50t36.5 -33.5
t52 -10q75 0 109 88.5t35 309.5z" />
    <glyph glyph-name="Umacron" unicode="&#x16a;" horiz-adv-x="1540" 
d="M553 2001h502v-70h-502v70zM1217 1442q0 52 -5 77.5t-28 45t-63.5 25t-116.5 5.5v43h495v-43q-75 0 -116 -5.5t-63.5 -25t-28 -45t-5.5 -77.5v-957q0 -80 -13 -150.5t-47 -141t-87 -121t-140.5 -82t-199.5 -31.5q-122 0 -217 29.5t-156 79t-100.5 119t-55.5 144.5
t-16 161v950q0 52 -5 77.5t-28 45t-63.5 25t-116.5 5.5v43h553v-43q-76 0 -116.5 -5.5t-63.5 -25t-28 -45t-5 -77.5v-957q0 -235 106 -345.5t320 -110.5q193 0 301.5 113t108.5 343v957z" />
    <glyph glyph-name="umacron" unicode="&#x16b;" horiz-adv-x="925" 
d="M213 1491h502v-70h-502v70zM649 -18v168h-6q-130 -191 -274 -191q-199 0 -199 274v635q0 39 -0.5 56.5t-4.5 38t-10.5 26t-20.5 9t-32.5 -0.5t-48.5 -14l-14 41l221 70l23 -23v-838q0 -184 123 -184q61 0 120 45.5t123 124.5v649q0 39 -0.5 56.5t-4.5 38t-10.5 26
t-20.5 9t-32.5 -0.5t-48.5 -14l-12 41l219 70l23 -23v-874v-16v-39t1.5 -29.5t4 -22.5t7.5 -12.5t12 -7t19 1.5t26 7t34 15l19 -39l-213 -96z" />
    <glyph glyph-name="Uring" unicode="&#x16e;" horiz-adv-x="1540" 
d="M805 1800q-86 0 -143.5 59.5t-57.5 139.5q0 81 57.5 140t143.5 59q84 0 140 -59t56 -140q0 -80 -56 -139.5t-140 -59.5zM805 1866q62 0 96.5 39.5t34.5 93.5q0 52 -34.5 91.5t-96.5 39.5q-63 0 -98 -39.5t-35 -91.5q0 -54 34.5 -93.5t98.5 -39.5zM1217 1442q0 52 -5 77.5
t-28 45t-63.5 25t-116.5 5.5v43h495v-43q-75 0 -116 -5.5t-63.5 -25t-28 -45t-5.5 -77.5v-957q0 -80 -13 -150.5t-47 -141t-87 -121t-140.5 -82t-199.5 -31.5q-122 0 -217 29.5t-156 79t-100.5 119t-55.5 144.5t-16 161v950q0 52 -5 77.5t-28 45t-63.5 25t-116.5 5.5v43h553
v-43q-76 0 -116.5 -5.5t-63.5 -25t-28 -45t-5 -77.5v-957q0 -235 106 -345.5t320 -110.5q193 0 301.5 113t108.5 343v957z" />
    <glyph glyph-name="uring" unicode="&#x16f;" horiz-adv-x="925" 
d="M465 1290q-86 0 -143.5 59.5t-57.5 139.5q0 81 57.5 140t143.5 59q85 0 141 -59t56 -140q0 -80 -56.5 -139.5t-140.5 -59.5zM465 1356q62 0 96.5 39.5t34.5 93.5q0 52 -34.5 91.5t-96.5 39.5q-63 0 -98 -39.5t-35 -91.5q0 -54 34.5 -93.5t98.5 -39.5zM649 -18v168h-6
q-130 -191 -274 -191q-199 0 -199 274v635q0 39 -0.5 56.5t-4.5 38t-10.5 26t-20.5 9t-32.5 -0.5t-48.5 -14l-14 41l221 70l23 -23v-838q0 -184 123 -184q61 0 120 45.5t123 124.5v649q0 39 -0.5 56.5t-4.5 38t-10.5 26t-20.5 9t-32.5 -0.5t-48.5 -14l-12 41l219 70l23 -23
v-874v-16v-39t1.5 -29.5t4 -22.5t7.5 -12.5t12 -7t19 1.5t26 7t34 15l19 -39l-213 -96z" />
    <glyph glyph-name="Uhungarumlaut" unicode="&#x170;" horiz-adv-x="1540" 
d="M621 1790l114 367h131l-184 -367h-61zM827 1790l121 367h129l-188 -367h-62zM1217 1442q0 52 -5 77.5t-28 45t-63.5 25t-116.5 5.5v43h495v-43q-75 0 -116 -5.5t-63.5 -25t-28 -45t-5.5 -77.5v-957q0 -80 -13 -150.5t-47 -141t-87 -121t-140.5 -82t-199.5 -31.5
q-122 0 -217 29.5t-156 79t-100.5 119t-55.5 144.5t-16 161v950q0 52 -5 77.5t-28 45t-63.5 25t-116.5 5.5v43h553v-43q-76 0 -116.5 -5.5t-63.5 -25t-28 -45t-5 -77.5v-957q0 -235 106 -345.5t320 -110.5q193 0 301.5 113t108.5 343v957z" />
    <glyph glyph-name="uhungarumlaut" unicode="&#x171;" horiz-adv-x="925" 
d="M279 1280l114 367h131l-184 -367h-61zM485 1280l121 367h129l-188 -367h-62zM649 -18v168h-6q-130 -191 -274 -191q-199 0 -199 274v635q0 39 -0.5 56.5t-4.5 38t-10.5 26t-20.5 9t-32.5 -0.5t-48.5 -14l-14 41l221 70l23 -23v-838q0 -184 123 -184q61 0 120 45.5
t123 124.5v649q0 39 -0.5 56.5t-4.5 38t-10.5 26t-20.5 9t-32.5 -0.5t-48.5 -14l-12 41l219 70l23 -23v-874v-16v-39t1.5 -29.5t4 -22.5t7.5 -12.5t12 -7t19 1.5t26 7t34 15l19 -39l-213 -96z" />
    <glyph glyph-name="Uogonek" unicode="&#x172;" horiz-adv-x="1540" 
d="M1499 1638v-43q-75 0 -116 -5.5t-63.5 -25t-28 -45t-5.5 -77.5v-957q0 -84 -15.5 -159t-50 -146t-100.5 -123.5t-157 -76.5q-26 -26 -73.5 -56.5t-80.5 -52t-59.5 -64t-26.5 -98.5q0 -62 37.5 -99.5t107.5 -37.5q68 0 162 47l12 -43q-102 -76 -213 -76q-91 0 -151 53
t-60 142q0 44 14.5 81t35.5 60.5t53 45t58 33t60.5 26.5t51.5 24q-43 -6 -92 -6q-122 0 -217 29.5t-156 79t-100.5 119t-55.5 144.5t-16 161v950q0 52 -5 77.5t-28 45t-63.5 25t-116.5 5.5v43h553v-43q-76 0 -116.5 -5.5t-63.5 -25t-28 -45t-5 -77.5v-957q0 -235 106 -345.5
t320 -110.5q193 0 301.5 113t108.5 343v957q0 52 -5 77.5t-28 45t-63.5 25t-116.5 5.5v43h495z" />
    <glyph glyph-name="uogonek" unicode="&#x173;" horiz-adv-x="925" 
d="M604 -424q68 0 162 47l12 -43q-102 -76 -213 -76q-91 0 -151 53t-60 142q0 48 16.5 87.5t41 63.5t59 45t64.5 33.5t63.5 27t50.5 26.5v168h-6q-130 -191 -274 -191q-199 0 -199 274v635q0 39 -0.5 56.5t-4.5 38t-10.5 26t-20.5 9t-32.5 -0.5t-48.5 -14l-14 41l221 70
l23 -23v-838q0 -184 123 -184q61 0 120 45.5t123 124.5v649q0 39 -0.5 56.5t-4.5 38t-10.5 26t-20.5 9t-32.5 -0.5t-48.5 -14l-12 41l219 70l23 -23v-874v-16v-39t1.5 -29.5t4 -22.5t7.5 -12.5t12 -7t19 1.5t26 7t34 15l19 -39l-213 -96q-20 -16 -55 -37.5t-59 -38
t-48.5 -40.5t-37.5 -56.5t-13 -73.5q0 -62 37.5 -99.5t107.5 -37.5z" />
    <glyph glyph-name="Wcircumflex" unicode="&#x174;" horiz-adv-x="1777" 
d="M915 2054l-192 -266h-66l183 366h149l182 -366h-65zM1757 1638v-43q-90 0 -124 -27.5t-56 -119.5l-365 -1495h-61l-244 985l-272 -985h-55l-377 1495q-23 93 -58 120t-125 27v43h488v-43q-140 0 -167 -28t1 -119l301 -1204h6l225 829l-92 375q-22 92 -56 119.5t-124 27.5
v43h488v-43q-140 0 -167.5 -28t1.5 -119l290 -1192h7l286 1192q8 35 11.5 53.5t1 38t-12.5 28t-32 16t-54 9.5t-82 2v43h418z" />
    <glyph glyph-name="wcircumflex" unicode="&#x175;" horiz-adv-x="1384" 
d="M676 1544l-193 -266h-65l182 367h150l182 -367h-66zM1364 1071v-45q-63 0 -92 -27.5t-55 -117.5l-265 -928h-65l-168 582l-174 -582h-68l-303 930q-28 90 -58.5 116.5t-95.5 26.5v45h381v-45q-36 0 -57.5 -1.5t-36 -9t-20 -14.5t-3.5 -27t6.5 -37t16.5 -54l228 -707h6
l143 481l-66 226q-26 89 -55 116t-94 27v45h369v-45q-92 0 -106 -26.5t16 -118.5l196 -686h6l197 686q30 92 14.5 118.5t-114.5 26.5v45h317z" />
    <glyph glyph-name="Ycircumflex" unicode="&#x176;" horiz-adv-x="1306" 
d="M692 2054l-192 -266h-66l182 366h150l182 -366h-65zM1286 1638v-43q-92 0 -134 -25.5t-81 -109.5l-334 -739v-524q0 -52 5 -77.5t27.5 -45.5t63.5 -25.5t117 -5.5v-43h-553v43q76 0 117 5.5t63.5 25.5t27.5 45.5t5 77.5v524l-368 741q-41 84 -85 108.5t-137 24.5v43h502
v-43q-138 0 -157 -22.5t26 -101.5q1 -3 2 -5l2 -4l312 -631h6l282 629q45 85 25.5 110t-158.5 25v43h424z" />
    <glyph glyph-name="ycircumflex" unicode="&#x177;" horiz-adv-x="937" 
d="M483 1544l-192 -266h-66l183 367h149l182 -367h-65zM899 1071v-45q-64 0 -91.5 -27t-51.5 -118l-213 -844q-54 -209 -70 -257q-66 -199 -167 -251q-41 -21 -91 -21q-70 0 -116 35t-46 90q0 34 22.5 58t57.5 24q54 0 82 -57q13 -24 24 -32.5t33 -8.5q57 0 100 89t85 286
l-269 891q-27 89 -56.5 116t-92.5 27v45h381v-45q-99 0 -115 -26.5t14 -118.5l197 -678l170 678q27 92 10 118.5t-116 26.5v45h319z" />
    <glyph glyph-name="Ydieresis" unicode="&#x178;" horiz-adv-x="1306" 
d="M514 1878q-39 0 -66.5 27.5t-27.5 66.5q0 38 28 66t66 28q40 0 68 -28t28 -66q0 -40 -28 -67t-68 -27zM868 1878q-40 0 -67 27t-27 67q0 39 27.5 66.5t66.5 27.5q38 0 66.5 -28t28.5 -66q0 -39 -28 -66.5t-67 -27.5zM737 197q0 -52 5 -77.5t27.5 -45.5t63.5 -25.5
t117 -5.5v-43h-553v43q76 0 117 5.5t63.5 25.5t27.5 45.5t5 77.5v524l-368 741q-41 84 -85 108.5t-137 24.5v43h502v-43q-138 0 -157 -22.5t26 -101.5q1 -3 2 -5l2 -4l312 -631h6l282 629q45 85 25.5 110t-158.5 25v43h424v-43q-92 0 -134 -25.5t-81 -109.5l-334 -739v-524z
" />
    <glyph glyph-name="Zacute" unicode="&#x179;" horiz-adv-x="1081" 
d="M494 1790l137 367h164l-236 -367h-65zM1004 1638l-779 -1568h543q34 0 55.5 4t42.5 17.5t34 35.5t27 63.5t24.5 96t23.5 137.5l43 -6l-60 -383l-6 -35h-891v43l762 1526h-485q-41 0 -64.5 -5t-43.5 -19.5t-30 -47t-16 -80.5t-8 -127l-45 2l10 303l2 43h861z" />
    <glyph glyph-name="zacute" unicode="&#x17a;" horiz-adv-x="815" 
d="M358 1280l138 367h163l-235 -367h-66zM557 70q68 0 98 17.5t43 72.5t13 178h43v-338h-693v43l535 958h-295q-34 0 -55.5 -2.5t-40 -12t-28 -24t-16.5 -41.5t-9 -61.5t-2 -87.5h-46v299h650v-45l-535 -956h338z" />
    <glyph glyph-name="Zdotaccent" unicode="&#x17b;" horiz-adv-x="1081" 
d="M567 1878q-39 0 -66.5 27.5t-27.5 66.5q0 38 28 66t66 28q40 0 68.5 -28t28.5 -66q0 -39 -28.5 -66.5t-68.5 -27.5zM1004 1638l-779 -1568h543q34 0 55.5 4t42.5 17.5t34 35.5t27 63.5t24.5 96t23.5 137.5l43 -6l-60 -383l-6 -35h-891v43l762 1526h-485q-41 0 -64.5 -5
t-43.5 -19.5t-30 -47t-16 -80.5t-8 -127l-45 2l10 303l2 43h861z" />
    <glyph glyph-name="zdotaccent" unicode="&#x17c;" horiz-adv-x="815" 
d="M432 1368q-39 0 -66.5 27.5t-27.5 66.5q0 38 28 66t66 28q40 0 68 -28t28 -66q0 -40 -28 -67t-68 -27zM557 70q68 0 98 17.5t43 72.5t13 178h43v-338h-693v43l535 958h-295q-34 0 -55.5 -2.5t-40 -12t-28 -24t-16.5 -41.5t-9 -61.5t-2 -87.5h-46v299h650v-45l-535 -956
h338z" />
    <glyph glyph-name="Zcaron" unicode="&#x17d;" horiz-adv-x="1081" 
d="M496 1788l-185 366h68l190 -266l191 266h67l-184 -366h-147zM975 424l43 -6l-60 -383l-6 -35h-891v43l762 1526h-485q-41 0 -64.5 -5t-43.5 -19.5t-30 -47t-16 -80.5t-8 -127l-45 2l10 303l2 43h861l-779 -1568h543q34 0 55.5 4t42.5 17.5t34 35.5t27 63.5t24.5 96
t23.5 137.5z" />
    <glyph glyph-name="zcaron" unicode="&#x17e;" horiz-adv-x="815" 
d="M360 1278l-184 367h68l190 -267l191 267h67l-184 -367h-148zM754 1071v-45l-535 -956h338q68 0 98 17.5t43 72.5t13 178h43v-338h-693v43l535 958h-295q-34 0 -55.5 -2.5t-40 -12t-28 -24t-16.5 -41.5t-9 -61.5t-2 -87.5h-46v299h650z" />
    <glyph glyph-name="uni0218" unicode="&#x218;" horiz-adv-x="1093" 
d="M123 -2v584h43q1 -125 34 -230.5t88.5 -175t127 -108.5t149.5 -39q135 0 214 82.5t79 218.5q0 29 -6.5 58.5t-15.5 55t-28 55t-33.5 51t-44 52t-48 49.5t-55.5 52t-56.5 49.5t-62.5 52.5t-62 53q-69 61 -102 91t-79 76t-66 75.5t-41.5 70.5t-29 81.5t-7.5 88.5
q0 156 103.5 247t267.5 91q62 0 116.5 -16t90 -38.5t62.5 -45.5t46.5 -39t30.5 -16q10 0 15 7t8 32.5t3 76.5h45v-475h-45q-2 194 -105 319.5t-261 125.5q-130 0 -196 -70t-66 -168q0 -44 16 -88t35.5 -76t60.5 -75.5t66 -66.5t79.5 -69.5t75.5 -64.5q185 -164 215 -193
q119 -116 158 -215q31 -78 31 -180q0 -90 -33 -164.5t-88.5 -121.5t-124.5 -73t-143 -26q-69 0 -127 16.5t-95 40t-65.5 47t-50.5 40t-37 16.5q-25 0 -34 -26.5t-9 -94.5h-43zM504 -324q-27 0 -44.5 22.5t-17.5 57.5q0 38 27.5 62t65.5 24q53 0 85.5 -34t32.5 -101
q0 -69 -47 -123t-149 -80v45q48 12 89.5 44.5t41.5 72.5q0 31 -21 31q-6 0 -25 -10.5t-38 -10.5z" />
    <glyph glyph-name="uni0219" unicode="&#x219;" horiz-adv-x="716" 
d="M104 -20v401h43q18 -159 87.5 -255.5t175.5 -96.5q69 0 103 43.5t34 120.5q0 49 -15 92t-50.5 88t-64.5 74t-88 83q-8 7 -12 11q-58 53 -87 82.5t-64 74t-49.5 88t-14.5 93.5q0 100 65.5 166.5t166.5 66.5q45 0 82.5 -13t57 -28t37.5 -28t28 -13q16 0 19 12.5t3 49.5h43
v-328h-43q-20 123 -76.5 200.5t-144.5 77.5q-66 0 -97.5 -42t-31.5 -91q0 -77 50 -142.5t153 -154.5q138 -121 189.5 -202t51.5 -195q0 -123 -68.5 -189.5t-170.5 -66.5q-49 0 -92 13t-66.5 28t-45.5 28t-34 13q-18 0 -24.5 -14.5t-6.5 -46.5h-43zM360 -324
q-26 0 -43.5 22.5t-17.5 57.5q0 39 27 62.5t65 23.5q53 0 86 -34.5t33 -100.5q0 -69 -47.5 -123t-149.5 -80v45q48 12 89.5 44.5t41.5 72.5q0 31 -20 31q-6 0 -25.5 -10.5t-38.5 -10.5z" />
    <glyph glyph-name="uni021A" unicode="&#x21a;" horiz-adv-x="1255" 
d="M1163 1597l29 -325l-43 -4q-10 105 -20.5 162t-32.5 90t-49 41t-78 8h-279v-1372q0 -52 5.5 -78t28 -45.5t63.5 -25t116 -5.5v-43h-553v43q61 0 98.5 4.5t62 13t35.5 28.5t15 43.5t4 64.5v1372h-280q-51 0 -78 -8t-49 -41t-33 -89.5t-21 -162.5l-43 4l31 325l4 41h1063z
M625 -158q53 0 85.5 -34t32.5 -101q0 -69 -47 -123t-149 -80v45q48 12 89.5 44.5t41.5 72.5q0 31 -21 31q-6 0 -25 -10.5t-38 -10.5q-27 0 -44.5 22.5t-17.5 57.5q0 38 27.5 62t65.5 24z" />
    <glyph glyph-name="uni021B" unicode="&#x21b;" horiz-adv-x="663" 
d="M580 451h43q-1 -102 -6.5 -174.5t-19.5 -135.5t-37.5 -101t-60.5 -59.5t-89 -21.5q-108 0 -162.5 86.5t-54.5 282.5v673h-170v70q130 1 179 65t54 228h49v-293h248v-70h-248v-598q0 -62 1 -101.5t5.5 -84t13 -71t23 -50t36.5 -33.5t52 -10q75 0 109 88.5t35 309.5z
M334 -324q-27 0 -44.5 22.5t-17.5 57.5q0 38 27.5 62t65.5 24q53 0 85.5 -34t32.5 -101q0 -69 -47 -123t-149 -80v45q48 12 89.5 44.5t41.5 72.5q0 31 -21 31q-6 0 -25 -10.5t-38 -10.5z" />
    <glyph glyph-name="circumflex" unicode="&#x2c6;" horiz-adv-x="679" 
d="M598 1278h-68l-190 266l-190 -266h-68l184 367h148z" />
    <glyph glyph-name="caron" unicode="&#x2c7;" horiz-adv-x="679" 
d="M530 1645h68l-184 -367h-148l-184 367h68l190 -267z" />
    <glyph glyph-name="breve" unicode="&#x2d8;" horiz-adv-x="706" 
d="M604 1593q-3 -112 -68.5 -176.5t-181.5 -64.5q-117 0 -183 64.5t-69 176.5h43q4 -67 58 -102t151 -35q198 0 207 137h43z" />
    <glyph glyph-name="dotaccent" unicode="&#x2d9;" horiz-adv-x="395" 
d="M197 1368q-39 0 -67 27.5t-28 66.5q0 38 28.5 66t66.5 28q40 0 68 -28t28 -66q0 -40 -28 -67t-68 -27z" />
    <glyph glyph-name="ring" unicode="&#x2da;" horiz-adv-x="602" 
d="M303 1290q-86 0 -143.5 59.5t-57.5 139.5q0 81 57.5 140t143.5 59q85 0 141 -59t56 -140q0 -80 -56.5 -139.5t-140.5 -59.5zM303 1356q62 0 96.5 39.5t34.5 93.5q0 52 -34.5 91.5t-96.5 39.5q-63 0 -98 -39.5t-35 -91.5q0 -54 34.5 -93.5t98.5 -39.5z" />
    <glyph glyph-name="ogonek" unicode="&#x2db;" horiz-adv-x="630" 
d="M465 -20q-25 -26 -72.5 -56.5t-81 -52t-60 -64t-26.5 -98.5q0 -62 38 -99.5t108 -37.5q67 0 161 47l13 -43q-102 -76 -213 -76q-91 0 -151 53t-60 142q0 49 16.5 88.5t42 63.5t60 45t65 33.5t63.5 27.5t50 27h47z" />
    <glyph glyph-name="tilde" unicode="&#x2dc;" horiz-adv-x="788" 
d="M537 1370q-42 0 -84 21.5t-70.5 47t-66.5 47t-72 21.5q-48 0 -70.5 -34t-28.5 -103h-43q11 240 150 240q43 0 85 -21.5t70.5 -47t66.5 -47t73 -21.5q48 0 69.5 34t26.5 103h43q-5 -112 -39 -176t-110 -64z" />
    <glyph glyph-name="hungarumlaut" unicode="&#x2dd;" horiz-adv-x="661" 
d="M102 1280l115 367h131l-184 -367h-62zM309 1280l121 367h129l-188 -367h-62z" />
    <glyph glyph-name="gravecomb" unicode="&#x300;" horiz-adv-x="0" 
d="M-82 1280h-68l-233 367h164z" />
    <glyph glyph-name="acutecomb" unicode="&#x301;" horiz-adv-x="0" 
d="M-381 1280l137 367h164l-235 -367h-66z" />
    <glyph glyph-name="uni0302" unicode="&#x302;" horiz-adv-x="0" 
d="M-100 1278h-66l-190 266l-193 -266h-65l182 367h149z" />
    <glyph glyph-name="tildecomb" unicode="&#x303;" horiz-adv-x="0" 
d="M-252 1370q-42 0 -84 21.5t-70.5 47t-66.5 47t-72 21.5q-48 0 -70 -34t-28 -103h-43q5 112 39 176t110 64q43 0 85 -21.5t70.5 -47t66.5 -47t73 -21.5q49 0 70.5 34t26.5 103h43q-11 -240 -150 -240z" />
    <glyph glyph-name="uni0304" unicode="&#x304;" horiz-adv-x="0" 
d="M-604 1491h502v-70h-502v70z" />
    <glyph glyph-name="uni0306" unicode="&#x306;" horiz-adv-x="0" 
d="M-102 1593q-3 -112 -68.5 -176.5t-181.5 -64.5q-117 0 -183 64.5t-69 176.5h43q4 -67 58 -102t151 -35q198 0 207 137h43z" />
    <glyph glyph-name="uni0307" unicode="&#x307;" horiz-adv-x="0" 
d="M-199 1368q-39 0 -66.5 27.5t-27.5 66.5q0 38 28 66t66 28q40 0 68.5 -28t28.5 -66q0 -39 -28.5 -66.5t-68.5 -27.5z" />
    <glyph glyph-name="uni0308" unicode="&#x308;" horiz-adv-x="0" 
d="M-551 1368q-39 0 -66.5 27.5t-27.5 66.5q0 38 28 66t66 28q40 0 68 -28t28 -66q0 -40 -28 -67t-68 -27zM-197 1368q-40 0 -67 27t-27 67q0 39 27.5 66.5t66.5 27.5q38 0 66.5 -28t28.5 -66q0 -39 -28 -66.5t-67 -27.5z" />
    <glyph glyph-name="uni030A" unicode="&#x30a;" horiz-adv-x="0" 
d="M-299 1290q-86 0 -143.5 59.5t-57.5 139.5q0 81 57.5 140t143.5 59q85 0 141 -59t56 -140q0 -80 -56.5 -139.5t-140.5 -59.5zM-299 1356q62 0 96.5 39.5t34.5 93.5q0 52 -34.5 91.5t-96.5 39.5q-63 0 -98 -39.5t-35 -91.5q0 -54 34.5 -93.5t98.5 -39.5z" />
    <glyph glyph-name="uni030B" unicode="&#x30b;" horiz-adv-x="0" 
d="M-506 1280l115 367h131l-184 -367h-62zM-299 1280l121 367h129l-189 -367h-61z" />
    <glyph glyph-name="uni030C" unicode="&#x30c;" horiz-adv-x="0" 
d="M-150 1645h68l-184 -367h-148l-184 367h68l190 -267z" />
    <glyph glyph-name="uni0312" unicode="&#x312;" horiz-adv-x="0" 
d="M-164 1530q27 0 44.5 -22.5t17.5 -57.5q0 -39 -27.5 -62.5t-67.5 -23.5q-53 0 -84.5 34t-31.5 101q0 69 47 123t149 80v-45q-48 -12 -89.5 -44.5t-41.5 -72.5q0 -31 21 -31q6 0 25 10.5t38 10.5z" />
    <glyph glyph-name="uni0326" unicode="&#x326;" horiz-adv-x="0" 
d="M-252 -324q-26 0 -43.5 22.5t-17.5 57.5q0 39 27 62.5t65 23.5q53 0 86 -34.5t33 -100.5q0 -69 -47.5 -123t-149.5 -80v45q48 12 89.5 44.5t41.5 72.5q0 31 -20 31q-6 0 -25.5 -10.5t-38.5 -10.5z" />
    <glyph glyph-name="uni0327" unicode="&#x327;" horiz-adv-x="0" 
d="M-410 -147l168 167h70l-111 -129q75 -6 128 -48t53 -109q0 -87 -62.5 -144.5t-158 -77t-207.5 -6.5l12 43q140 -8 225.5 34.5t85.5 135.5q0 40 -15 67t-44.5 41t-63 19.5t-80.5 6.5z" />
    <glyph glyph-name="uni0328" unicode="&#x328;" horiz-adv-x="0" 
d="M-166 -20q-25 -26 -72.5 -56.5t-81 -52t-60 -64t-26.5 -98.5q0 -62 38 -99.5t108 -37.5q68 0 162 47l12 -43q-102 -76 -213 -76q-91 0 -151 53t-60 142q0 49 16.5 88.5t42 63.5t60 45t65 33.5t63.5 27.5t50 27h47z" />
    <glyph glyph-name="Wgrave" unicode="&#x1e80;" horiz-adv-x="1777" 
d="M1012 1790h-68l-233 367h163zM1757 1638v-43q-90 0 -124 -27.5t-56 -119.5l-365 -1495h-61l-244 985l-272 -985h-55l-377 1495q-23 93 -58 120t-125 27v43h488v-43q-140 0 -167 -28t1 -119l301 -1204h6l225 829l-92 375q-22 92 -56 119.5t-124 27.5v43h488v-43
q-140 0 -167.5 -28t1.5 -119l290 -1192h7l286 1192q8 35 11.5 53.5t1 38t-12.5 28t-32 16t-54 9.5t-82 2v43h418z" />
    <glyph glyph-name="wgrave" unicode="&#x1e81;" horiz-adv-x="1384" 
d="M772 1280h-67l-234 367h164zM1364 1071v-45q-63 0 -92 -27.5t-55 -117.5l-265 -928h-65l-168 582l-174 -582h-68l-303 930q-28 90 -58.5 116.5t-95.5 26.5v45h381v-45q-36 0 -57.5 -1.5t-36 -9t-20 -14.5t-3.5 -27t6.5 -37t16.5 -54l228 -707h6l143 481l-66 226
q-26 89 -55 116t-94 27v45h369v-45q-92 0 -106 -26.5t16 -118.5l196 -686h6l197 686q30 92 14.5 118.5t-114.5 26.5v45h317z" />
    <glyph glyph-name="Wacute" unicode="&#x1e82;" horiz-adv-x="1777" 
d="M1141 2157l-236 -367h-65l137 367h164zM1757 1638v-43q-90 0 -124 -27.5t-56 -119.5l-365 -1495h-61l-244 985l-272 -985h-55l-377 1495q-23 93 -58 120t-125 27v43h488v-43q-140 0 -167 -28t1 -119l301 -1204h6l225 829l-92 375q-22 92 -56 119.5t-124 27.5v43h488v-43
q-140 0 -167.5 -28t1.5 -119l290 -1192h7l286 1192q8 35 11.5 53.5t1 38t-12.5 28t-32 16t-54 9.5t-82 2v43h418z" />
    <glyph glyph-name="wacute" unicode="&#x1e83;" horiz-adv-x="1384" 
d="M903 1647l-235 -367h-66l137 367h164zM1364 1071v-45q-63 0 -92 -27.5t-55 -117.5l-265 -928h-65l-168 582l-174 -582h-68l-303 930q-28 90 -58.5 116.5t-95.5 26.5v45h381v-45q-36 0 -57.5 -1.5t-36 -9t-20 -14.5t-3.5 -27t6.5 -37t16.5 -54l228 -707h6l143 481l-66 226
q-26 89 -55 116t-94 27v45h369v-45q-92 0 -106 -26.5t16 -118.5l196 -686h6l197 686q30 92 14.5 118.5t-114.5 26.5v45h317z" />
    <glyph glyph-name="Wdieresis" unicode="&#x1e84;" horiz-adv-x="1777" 
d="M737 1878q-39 0 -66.5 27.5t-27.5 66.5q0 38 28 66t66 28q40 0 68.5 -28t28.5 -66q0 -39 -28.5 -66.5t-68.5 -27.5zM1092 1878q-40 0 -67.5 27t-27.5 67q0 38 27.5 66t67.5 28q38 0 66 -28t28 -66q0 -39 -27.5 -66.5t-66.5 -27.5zM1757 1638v-43q-90 0 -124 -27.5
t-56 -119.5l-365 -1495h-61l-244 985l-272 -985h-55l-377 1495q-23 93 -58 120t-125 27v43h488v-43q-140 0 -167 -28t1 -119l301 -1204h6l225 829l-92 375q-22 92 -56 119.5t-124 27.5v43h488v-43q-140 0 -167.5 -28t1.5 -119l290 -1192h7l286 1192q8 35 11.5 53.5t1 38
t-12.5 28t-32 16t-54 9.5t-82 2v43h418z" />
    <glyph glyph-name="wdieresis" unicode="&#x1e85;" horiz-adv-x="1384" 
d="M498 1368q-39 0 -67 27.5t-28 66.5q0 38 28.5 66t66.5 28q40 0 68 -28t28 -66q0 -40 -28 -67t-68 -27zM852 1368q-40 0 -67 27t-27 67q0 39 27.5 66.5t66.5 27.5q38 0 66 -28t28 -66q0 -39 -27.5 -66.5t-66.5 -27.5zM1364 1071v-45q-63 0 -92 -27.5t-55 -117.5l-265 -928
h-65l-168 582l-174 -582h-68l-303 930q-28 90 -58.5 116.5t-95.5 26.5v45h381v-45q-36 0 -57.5 -1.5t-36 -9t-20 -14.5t-3.5 -27t6.5 -37t16.5 -54l228 -707h6l143 481l-66 226q-26 89 -55 116t-94 27v45h369v-45q-92 0 -106 -26.5t16 -118.5l196 -686h6l197 686
q30 92 14.5 118.5t-114.5 26.5v45h317z" />
    <glyph glyph-name="Ygrave" unicode="&#x1ef2;" horiz-adv-x="1306" 
d="M786 1790h-67l-234 367h164zM737 197q0 -52 5 -77.5t27.5 -45.5t63.5 -25.5t117 -5.5v-43h-553v43q76 0 117 5.5t63.5 25.5t27.5 45.5t5 77.5v524l-368 741q-41 84 -85 108.5t-137 24.5v43h502v-43q-138 0 -157 -22.5t26 -101.5q1 -3 2 -5l2 -4l312 -631h6l282 629
q45 85 25.5 110t-158.5 25v43h424v-43q-92 0 -134 -25.5t-81 -109.5l-334 -739v-524z" />
    <glyph glyph-name="ygrave" unicode="&#x1ef3;" horiz-adv-x="937" 
d="M580 1280h-68l-233 367h163zM53 -367q0 34 22.5 58t57.5 24q54 0 82 -57q13 -24 24 -32.5t33 -8.5q57 0 100 89t85 286l-269 891q-27 89 -56.5 116t-92.5 27v45h381v-45q-99 0 -115 -26.5t14 -118.5l197 -678l170 678q27 92 10 118.5t-116 26.5v45h319v-45
q-64 0 -91.5 -27t-51.5 -118l-213 -844q-54 -209 -70 -257q-66 -199 -167 -251q-41 -21 -91 -21q-70 0 -116 35t-46 90z" />
    <glyph glyph-name="endash" unicode="&#x2013;" horiz-adv-x="1228" 
d="M0 500v106h1229v-106h-1229z" />
    <glyph glyph-name="emdash" unicode="&#x2014;" horiz-adv-x="2457" 
d="M0 500v106h2458v-106h-2458z" />
    <glyph glyph-name="quoteleft" unicode="&#x2018;" horiz-adv-x="425" 
d="M248 1440q33 0 54.5 -27t21.5 -63q0 -48 -29 -74.5t-76 -26.5q-48 0 -82.5 36t-34.5 97q0 78 52.5 156t167.5 141v-43q-66 -40 -112 -91.5t-46 -100.5q0 -29 20 -29q5 0 23.5 12.5t40.5 12.5z" />
    <glyph glyph-name="quoteright" unicode="&#x2019;" horiz-adv-x="425" 
d="M180 1491q-34 0 -56 26t-22 62q0 48 29.5 74t75.5 26q48 0 82.5 -36t34.5 -97q0 -77 -52.5 -155.5t-167.5 -141.5v43q66 39 112 91.5t46 101.5q0 28 -20 28q-4 0 -22.5 -11t-39.5 -11z" />
    <glyph glyph-name="quotesinglbase" unicode="&#x201a;" horiz-adv-x="425" 
d="M180 -41q-34 0 -56 26.5t-22 63.5q0 46 30 73.5t75 27.5q48 0 82.5 -37t34.5 -99q0 -77 -52.5 -155.5t-167.5 -141.5v45q65 37 111.5 89.5t46.5 101.5q0 29 -20 29q-4 0 -22.5 -11.5t-39.5 -11.5z" />
    <glyph glyph-name="quotedblleft" unicode="&#x201c;" horiz-adv-x="753" 
d="M244 1440q34 0 56 -26.5t22 -63.5q0 -48 -29.5 -74.5t-75.5 -26.5q-48 0 -82.5 36t-34.5 97q0 78 52 156t167 141v-43q-66 -39 -111.5 -91t-45.5 -101q0 -29 20 -29q4 0 22.5 12.5t39.5 12.5zM575 1440q34 0 55 -26.5t21 -63.5q0 -48 -28.5 -74.5t-75.5 -26.5
q-48 0 -82.5 36t-34.5 97q0 78 52 156t167 141v-43q-65 -39 -111 -91t-46 -101q0 -29 20 -29q5 0 23.5 12.5t39.5 12.5z" />
    <glyph glyph-name="quotedblright" unicode="&#x201d;" horiz-adv-x="753" 
d="M180 1491q-34 0 -56 26t-22 62q0 48 29.5 74t75.5 26q48 0 82.5 -36t34.5 -97q0 -77 -52.5 -155.5t-167.5 -141.5v43q66 39 112 91.5t46 101.5q0 28 -20 28q-4 0 -22.5 -11t-39.5 -11zM510 1491q-34 0 -56 26t-22 62q0 48 29.5 74t77.5 26q47 0 81.5 -36.5t34.5 -96.5
q0 -77 -52 -155.5t-167 -141.5v43q65 39 111.5 91.5t46.5 101.5q0 28 -21 28q-5 0 -23.5 -11t-39.5 -11z" />
    <glyph glyph-name="quotedblbase" unicode="&#x201e;" horiz-adv-x="753" 
d="M180 -41q-34 0 -56 26.5t-22 63.5q0 46 30 73.5t75 27.5q48 0 82.5 -37t34.5 -99q0 -77 -52.5 -155.5t-167.5 -141.5v45q65 37 111.5 89.5t46.5 101.5q0 29 -20 29q-4 0 -22.5 -11.5t-39.5 -11.5zM510 -41q-34 0 -56 26.5t-22 63.5q0 46 30 73.5t77 27.5t81.5 -37
t34.5 -99q0 -77 -52 -155.5t-167 -141.5v45q65 37 111.5 89.5t46.5 101.5q0 29 -21 29q-5 0 -23.5 -11.5t-39.5 -11.5z" />
    <glyph glyph-name="dagger" unicode="&#x2020;" horiz-adv-x="917" 
d="M729 1378q38 0 62 -20.5t24 -57.5t-24 -57t-62 -20q-28 0 -63 15t-84 30.5t-109 17.5q1 -80 20 -135.5t62 -118.5q-43 -105 -58.5 -264t-17.5 -477v-799h-43v799q0 312 -16 473.5t-58 267.5q45 67 65.5 122t21.5 132q-62 -1 -112 -16.5t-86 -31t-63 -15.5q-39 0 -62.5 20
t-23.5 57t23.5 57.5t62.5 20.5q27 0 63 -16t86.5 -32.5t111.5 -18.5q-1 63 -18 114.5t-33.5 93t-16.5 80.5q0 40 21 64.5t57 24.5t57 -24.5t21 -64.5q0 -39 -15.5 -80.5t-31.5 -93t-17 -114.5q60 2 109 18.5t84 32.5t63 16z" />
    <glyph glyph-name="daggerdbl" unicode="&#x2021;" horiz-adv-x="917" 
d="M729 -2q38 0 62 -20.5t24 -57.5t-24 -57.5t-62 -20.5q-28 0 -63 15.5t-84 32t-109 18.5q2 -78 33 -161t31 -126q0 -41 -20.5 -64.5t-57.5 -23.5t-57.5 23.5t-20.5 64.5q0 39 16 80.5t33 93t19 113.5q-62 -1 -112 -17.5t-86 -32.5t-63 -16q-39 0 -62.5 20.5t-23.5 57.5
t23.5 57.5t62.5 20.5q27 0 63 -15.5t86 -31.5t112 -17q-1 69 -16.5 122t-47.5 126q61 183 61 428t-61 428q22 50 33 79t20.5 74.5t10.5 94.5q-62 -1 -112 -16.5t-86 -31t-63 -15.5q-39 0 -62.5 20t-23.5 57t23.5 57.5t62.5 20.5q27 0 63 -16t86.5 -32.5t111.5 -18.5
q-1 63 -18 114.5t-33.5 93t-16.5 80.5q0 40 21 64.5t57 24.5t57 -24.5t21 -64.5q0 -39 -15.5 -80.5t-31.5 -93t-17 -114.5q60 2 109 18.5t84 32.5t63 16q38 0 62 -20.5t24 -57.5t-24 -57t-62 -20q-28 0 -63 15t-84 30.5t-109 17.5q1 -72 14.5 -125.5t42.5 -122.5
q-59 -186 -59 -428t59 -428q-55 -133 -57 -248q60 2 109 18t84 31t63 15z" />
    <glyph glyph-name="bullet" unicode="&#x2022;" horiz-adv-x="677" 
d="M340 545q-98 0 -168 69.5t-70 167.5q0 97 70 166.5t168 69.5q97 0 166 -69.5t69 -166.5q0 -98 -69 -167.5t-166 -69.5z" />
    <glyph glyph-name="ellipsis" unicode="&#x2026;" horiz-adv-x="1290" 
d="M197 -41q-38 0 -66.5 28t-28.5 66q0 40 28.5 68.5t66.5 28.5q40 0 68 -28.5t28 -68.5q0 -38 -28 -66t-68 -28zM645 -41q-38 0 -66 28t-28 66q0 40 28 68.5t66 28.5q39 0 66.5 -28.5t27.5 -68.5q0 -39 -27.5 -66.5t-66.5 -27.5zM1094 -41q-40 0 -67.5 27.5t-27.5 66.5
q0 40 27.5 68.5t67.5 28.5q38 0 66 -28.5t28 -68.5q0 -38 -28 -66t-66 -28z" />
    <glyph glyph-name="perthousand" unicode="&#x2030;" horiz-adv-x="2013" 
d="M358 850q-111 0 -183.5 120t-72.5 294q0 175 72.5 295t183.5 120q108 0 181 -120.5t73 -294.5q0 -173 -73 -293.5t-181 -120.5zM1165 1638h72l-1018 -1638h-72zM358 911q40 0 70 28t47 78t25 111.5t8 135.5q0 158 -36 256t-114 98q-151 0 -151 -354q0 -158 35.5 -255.5
t115.5 -97.5zM1028 -41q-111 0 -183.5 120t-72.5 294q0 177 72.5 297.5t183.5 120.5q108 0 181 -121t73 -297q0 -173 -73 -293.5t-181 -120.5zM1657 -41q-109 0 -182.5 120.5t-73.5 293.5q0 176 73 297t183 121q109 0 181.5 -121t72.5 -297q0 -174 -72.5 -294t-181.5 -120z
M1028 20q40 0 69.5 28t46.5 78t24.5 111t7.5 136q0 76 -7.5 138t-24.5 112.5t-46.5 78t-69.5 27.5q-151 0 -151 -356q0 -158 35.5 -255.5t115.5 -97.5zM1657 20q41 0 70.5 28t46.5 78t24.5 111t7.5 136q0 356 -149 356q-79 0 -114.5 -97.5t-35.5 -258.5q0 -75 8 -136
t24.5 -111t46.5 -78t71 -28z" />
    <glyph glyph-name="guilsinglleft" unicode="&#x2039;" horiz-adv-x="559" 
d="M223 600l238 -500h-43l-309 500l309 494h43z" />
    <glyph glyph-name="guilsinglright" unicode="&#x203a;" horiz-adv-x="559" 
d="M336 600l-238 494h43l310 -494l-310 -500h-43z" />
    <glyph glyph-name="fraction" unicode="&#x2044;" horiz-adv-x="886" 
d="M915 1638h74l-1018 -1638h-73z" />
    <glyph glyph-name="Euro" unicode="&#x20ac;" horiz-adv-x="1261" 
d="M1114 590h45q-56 -631 -426 -631q-143 0 -252 98.5t-170 264.5t-75 380h-134l23 64h106v53q0 49 2 74h-131l23 63h113q17 209 80.5 371t173 257t249.5 95q199 0 355 -198v-379h-43q-6 252 -86.5 380t-206.5 128q-110 0 -194 -87t-130.5 -232t-60.5 -335h499l-22 -63h-479
q-2 -25 -2 -74v-53h440l-20 -64h-416q12 -194 58.5 -343t131 -237.5t195.5 -88.5q153 0 243 148t111 409z" />
    <glyph glyph-name="trademark" unicode="&#x2122;" horiz-adv-x="2236" 
d="M279 1569q-68 0 -98.5 -13.5t-48.5 -58.5t-28 -145l-45 6l27 231l4 49h787l6 -49l24 -231l-43 -6q-8 76 -18 117.5t-31.5 64.5t-48.5 29t-78 6h-151v-635q0 -52 4 -77.5t19.5 -45.5t44 -25.5t81.5 -5.5v-43h-403v43q53 0 81.5 5.5t44 25.5t19.5 45.5t4 77.5v635h-153z
M1573 885h6l317 753h279v-43q-53 0 -81.5 -5.5t-44.5 -25t-20 -45t-4 -77.5v-508q0 -52 4 -78t20 -45.5t44.5 -25t81.5 -5.5v-43h-406v43q53 0 81.5 5.5t44.5 25t20 45.5t4 78v565h-6l-340 -803h-41l-320 803h-6l4 -565q0 -52 4 -78t20 -45t44.5 -24.5t81.5 -4.5v-45h-367
v43q53 0 81.5 5.5t44.5 25t20 45.5t4 78v508q0 52 -4 77.5t-20 45t-44.5 25t-81.5 5.5v43h279z" />
    <glyph glyph-name="oneeighth" unicode="&#x215b;" horiz-adv-x="1640" 
d="M162 698q61 0 76.5 16t15.5 74v728q0 20 -0.5 28.5t-2 20t-5.5 13.5t-10.5 4.5t-18 -3t-26 -12.5t-37.5 -19l-13 25l131 69l47 27l17 -14v-867q0 -58 15.5 -74t76.5 -16v-26h-266v26zM1210 1638h72l-1018 -1638h-71zM1288 553q211 -161 211 -326q0 -110 -74 -178.5
t-190 -68.5q-123 0 -194.5 68.5t-71.5 168.5q0 87 56.5 161t162.5 154q-99 80 -145 140.5t-46 130.5q0 91 69 150t175 59t169 -58.5t63 -144.5q0 -40 -11.5 -72.5t-40 -64.5t-56.5 -55.5t-79 -61.5zM1079 811q0 -53 38 -103t134 -126q86 67 118 118t32 111q0 68 -43 114
t-115 46q-73 0 -118.5 -45t-45.5 -115zM1239 20q82 0 130 52.5t48 144.5q0 75 -49 142t-147 145q-181 -143 -181 -287q0 -80 54 -138.5t145 -58.5z" />
    <glyph glyph-name="threeeighths" unicode="&#x215c;" horiz-adv-x="1812" 
d="M672 926q0 -130 -95 -212.5t-229 -82.5q-74 0 -134 23t-60 57t45 34q31 0 61 -34q46 -39 113 -39q84 0 147.5 59.5t63.5 173.5q0 70 -22.5 121t-62.5 79t-85.5 41t-100.5 15v27q219 69 219 250q0 69 -39 115t-114 46q-148 0 -191 -155h-30q17 106 83.5 162.5t164.5 56.5
q93 0 154 -59t61 -158q0 -161 -193 -250v-2q111 -16 177.5 -84.5t66.5 -183.5zM1386 1638h74l-1018 -1638h-73zM1466 553q211 -161 211 -326q0 -110 -74.5 -178.5t-191.5 -68.5q-121 0 -192.5 68.5t-71.5 168.5q0 87 56 161.5t161 153.5q-98 79 -143 139.5t-45 131.5
q0 91 68 150t173 59q107 0 169.5 -58.5t62.5 -144.5q0 -73 -43 -126t-142 -128zM1257 811q0 -53 38 -103t135 -126q84 69 115.5 119t31.5 110q0 68 -43 114t-115 46q-73 0 -117.5 -45t-44.5 -115zM1417 20q80 0 128 53t48 144q0 75 -49 142t-147 145q-178 -144 -178 -287
q0 -80 53 -138.5t145 -58.5z" />
    <glyph glyph-name="fiveeighths" unicode="&#x215d;" horiz-adv-x="1742" 
d="M655 1024q0 -180 -95 -286.5t-236 -106.5q-73 0 -127 22.5t-54 55.5q0 34 43 34q8 0 14.5 -1.5t12.5 -6.5t9.5 -8t10 -11t9.5 -11q33 -33 102 -33q85 0 153 85t68 244q0 137 -50 202t-138 65q-83 0 -141 -49l-41 26l92 393h344l-19 -69h-293l-69 -297l6 -4q64 55 156 55
q113 0 178 -86.5t65 -212.5zM1317 1638h74l-1018 -1638h-74zM1397 553q211 -161 211 -326q0 -110 -74.5 -178.5t-190.5 -68.5q-123 0 -194.5 68.5t-71.5 168.5q0 87 56 161.5t161 153.5q-98 79 -143 139.5t-45 131.5q0 91 69 150t173 59q107 0 169 -58t62 -145
q0 -39 -11.5 -71.5t-39 -64t-56 -56.5t-77.5 -62zM1188 811q0 -53 38 -103t134 -126q85 69 117 119.5t32 109.5q0 68 -43 114t-116 46q-72 0 -117 -45.5t-45 -114.5zM1348 20q82 0 130 52.5t48 144.5q0 75 -49.5 143t-147.5 146q-180 -146 -180 -289q0 -80 53.5 -138.5
t145.5 -58.5z" />
    <glyph glyph-name="seveneighths" unicode="&#x215e;" horiz-adv-x="1652" 
d="M600 1569h-354q-58 0 -80 -25.5t-43 -122.5l-27 4l35 158l12 55h545l-326 -993l-59 12l297 908v4zM1227 1638h71l-1017 -1638h-72zM1305 553q211 -161 211 -326q0 -110 -74.5 -178.5t-190.5 -68.5q-123 0 -194.5 68.5t-71.5 168.5q0 87 56.5 161t162.5 154
q-98 79 -144 140t-46 131q0 91 68.5 150t174.5 59t169 -58.5t63 -144.5q0 -75 -42.5 -127t-143.5 -127zM1096 811q0 -53 38 -103t134 -126q85 67 117 117.5t32 111.5q0 68 -43 114t-114 46q-73 0 -118.5 -45t-45.5 -115zM1255 20q82 0 130.5 52.5t48.5 144.5q0 75 -49 142
t-148 145q-180 -143 -180 -287q0 -80 53.5 -138.5t144.5 -58.5z" />
    <glyph glyph-name="arrowleft" unicode="&#x2190;" horiz-adv-x="1681" 
d="M1579 506h-1047q-55 0 -144.5 13t-139.5 13v-6q73 -38 131 -80t101 -88t69.5 -82t58.5 -86l-80 -75q-82 144 -180 243t-246 170v52q148 72 246.5 170t179.5 241l80 -73q-31 -51 -58 -87.5t-69.5 -82.5t-101 -88t-131.5 -80v-7q50 0 139.5 13.5t144.5 13.5h1047v-94z" />
    <glyph glyph-name="arrowup" unicode="&#x2191;" horiz-adv-x="1085" 
d="M590 -98h-94v1048q0 55 13 145t13 140h-6q-38 -73 -80 -131.5t-88 -101t-82 -70t-86 -58.5l-76 80q144 82 243.5 180t170.5 246h51q72 -148 170 -246.5t242 -179.5l-74 -80q-50 31 -87 58.5t-83 70t-88 101t-80 131.5h-6q0 -50 13.5 -140t13.5 -145v-1048z" />
    <glyph glyph-name="arrowright" unicode="&#x2192;" horiz-adv-x="1681" 
d="M102 506v94h1049q53 0 143 -13.5t140 -13.5v7q-138 72 -217.5 153t-141.5 185l80 73q79 -142 177.5 -240.5t246.5 -170.5v-52q-147 -72 -246 -171t-178 -242l-80 75q63 103 142.5 183.5t216.5 152.5v6q-50 0 -140 -13t-143 -13h-1049z" />
    <glyph glyph-name="arrowdown" unicode="&#x2193;" horiz-adv-x="1085" 
d="M590 1255v-1048q0 -55 -13.5 -145t-13.5 -140h6q38 73 80 131.5t88 101t83 70t87 58.5l74 -80q-144 -81 -242 -179.5t-170 -246.5h-51q-71 148 -170.5 246t-243.5 180l76 80q50 -31 86 -58.5t82 -70t88 -101t80 -131.5h6q0 50 -13 140t-13 145v1048h94z" />
    <glyph glyph-name="arrowboth" unicode="&#x2194;" horiz-adv-x="2213" 
d="M1688 991q79 -142 177 -240.5t246 -170.5v-52q-147 -72 -245.5 -171t-177.5 -242l-80 75q63 103 142 183.5t216 152.5v6q-51 0 -140.5 -13t-142.5 -13h-1151q-55 0 -144.5 13t-139.5 13v-6q73 -38 131 -80t101 -88t69.5 -82t58.5 -86l-80 -75q-82 144 -180 243t-246 170
v52q148 72 246.5 170t179.5 241l80 -73q-31 -51 -58 -87.5t-69.5 -82.5t-101 -88t-131.5 -80v-7q50 0 139.5 13.5t144.5 13.5h1151q53 0 143 -13.5t140 -13.5v7q-138 72 -216.5 153t-141.5 185z" />
    <glyph glyph-name="arrowupdn" unicode="&#x2195;" horiz-adv-x="1081" 
d="M567 -309q38 73 80 131t88 101t82 69.5t86 58.5l76 -80q-144 -82 -243.5 -180t-170.5 -246h-51q-72 148 -170 246.5t-242 179.5l74 80q51 -31 87.5 -58t82.5 -69.5t88 -101t80 -131.5h6q0 50 -13 139.5t-13 144.5v1151q0 54 13 143t13 140h-6q-72 -138 -153 -216.5
t-185 -141.5l-74 79q142 79 241 177.5t171 246.5h51q72 -147 171.5 -246t242.5 -178l-76 -79q-103 63 -183.5 142t-152.5 216h-6q0 -51 13.5 -140t13.5 -143v-1151q0 -55 -13.5 -144.5t-13.5 -139.5h6z" />
    <glyph glyph-name="uni2196" unicode="&#x2196;" horiz-adv-x="1304" 
d="M1130 8l-741 742q-39 39 -91.5 111.5t-88.5 107.5l-4 -4q32 -103 40 -198.5t0.5 -156.5t-26.5 -137l-108 2q29 106 39 196t-1 191t-47 207l35 35q106 -36 207 -46.5t190.5 -0.5t194.5 39l4 -109q-76 -19 -137 -26.5t-156 0.5t-198 40l-4 -4q35 -35 107.5 -88t111.5 -92
l741 -741z" />
    <glyph glyph-name="uni2197" unicode="&#x2197;" horiz-adv-x="1304" 
d="M174 8l-68 68l742 741q38 39 111 92t108 88l-4 4q-103 -32 -198.5 -40t-156.5 -0.5t-137 26.5l2 109q106 -29 196 -39t191 0.5t207 46.5l35 -35q-36 -106 -46.5 -207t-0.5 -191t39 -196l-109 -2q-18 75 -25.5 136.5t0.5 157t40 198.5l-4 4q-35 -35 -89 -107.5t-94 -111.5
z" />
    <glyph glyph-name="uni2198" unicode="&#x2198;" horiz-adv-x="1304" 
d="M174 1098l739 -742q40 -39 94 -111.5t89 -107.5l4 4q-32 103 -40 198.5t-0.5 157t25.5 136.5l109 -2q-29 -106 -39 -196t0.5 -191t46.5 -207l-35 -35q-106 36 -207 46.5t-191 0.5t-196 -39l-2 109q75 18 136.5 25.5t157 -0.5t198.5 -40l4 5q-35 36 -108 89t-111 91
l-742 741z" />
    <glyph glyph-name="uni2199" unicode="&#x2199;" horiz-adv-x="1304" 
d="M1130 1098l68 -68l-741 -741q-39 -38 -111.5 -91t-107.5 -89l4 -5q103 32 198 40t156 0.5t137 -25.5l-4 -109q-105 29 -194.5 39t-190.5 -0.5t-207 -46.5l-35 35q36 106 47 207t1 191t-39 196l108 2q19 -76 26.5 -137t-0.5 -156.5t-40 -198.5l4 -4q36 36 88.5 108.5
t91.5 110.5z" />
    <glyph glyph-name="partialdiff" unicode="&#x2202;" horiz-adv-x="1288" 
d="M741 1679q246 0 360.5 -230.5t72.5 -662.5q-42 -441 -210 -675t-417 -234q-114 0 -204 43t-148.5 125.5t-80.5 202t1 272.5q36 237 190.5 384t360.5 147q292 0 438 -260v2q12 147 7.5 261t-28.5 200.5t-58.5 146.5t-83 97t-101 54t-113.5 17q-110 0 -205 -48t-176 -171
h-43q57 144 173 236.5t265 92.5zM549 -53q221 0 361.5 205t185.5 569q-131 260 -412 260q-160 0 -287.5 -128.5t-163.5 -348.5q-39 -249 46.5 -403t269.5 -154z" />
    <glyph glyph-name="emptyset" unicode="&#x2205;" horiz-adv-x="1286" 
d="M1184 1122l-156 -155q127 -143 127 -336q0 -212 -150 -362t-362 -150q-193 0 -336 127l-155 -156l-50 49l156 156q-127 143 -127 336q0 212 150 362t362 150q193 0 336 -127l156 155zM201 631q0 -162 106 -287l623 623q-125 106 -287 106q-183 0 -312.5 -129.5
t-129.5 -312.5zM1085 631q0 162 -106 287l-623 -623q126 -107 287 -107q183 0 312.5 130t129.5 313z" />
    <glyph glyph-name="product" unicode="&#x220f;" horiz-adv-x="1611" 
d="M1509 1636q-76 0 -116.5 -5.5t-63.5 -25t-28 -45t-5 -77.5v-1614q0 -52 5 -77.5t27.5 -45.5t63.5 -25.5t117 -5.5v-43h-546v43q76 0 117 5.5t63.5 25.5t27.5 45.5t5 77.5v1741h-740v-1741q0 -52 5.5 -78t28 -45.5t63.5 -25t116 -5.5v-43h-547v43q76 0 117 5.5t63.5 25.5
t27.5 45.5t5 77.5v1614q0 52 -5 77.5t-28 45t-63.5 25t-116.5 5.5v43h1407v-43z" />
    <glyph glyph-name="summation" unicode="&#x2211;" horiz-adv-x="1409" 
d="M1208 1679l4 -41l33 -315l-43 -4q-7 68 -14 113.5t-18 79.5t-22 52t-31.5 29t-41.5 14t-55 3h-752l602 -846l-634 -971h802q41 0 65.5 7t47 25.5t38.5 59.5t31 102t33 160l43 -8l-67 -379l-17 -88h-1110v43l654 998v6l-654 917v43h1106z" />
    <glyph glyph-name="minus" unicode="&#x2212;" horiz-adv-x="849" 
d="M102 500v106h646v-106h-646z" />
    <glyph glyph-name="radical" unicode="&#x221a;" horiz-adv-x="1232" 
d="M1219 1774l-289 -1844h-51l-498 1094l-244 -117l-35 60l359 174l434 -967h6l250 1600h68z" />
    <glyph glyph-name="infinity" unicode="&#x221e;" horiz-adv-x="1665" 
d="M1255 1151q131 0 219.5 -89t88.5 -245q0 -161 -93 -252.5t-221 -91.5q-47 0 -91 12.5t-76 29t-76 53.5t-71 63.5t-82 83.5q-22 23 -34 35q-135 -127 -233 -181.5t-211 -54.5q-119 0 -196 80t-77 217q0 128 85 213.5t216 85.5q53 0 101 -16t99 -53.5t86 -69.5t97 -94
q76 75 125.5 118.5t108 83t114.5 56t121 16.5zM1249 559q94 0 169 70.5t75 189.5q0 103 -64.5 171.5t-162.5 68.5q-32 0 -59.5 -5t-58 -21t-49.5 -26.5t-54 -41.5t-50 -45t-59 -58t-62 -61l-6 -6q68 -68 105 -102t86.5 -70t93.5 -50t96 -14zM365 606q85 0 162 45.5
t212 177.5q-112 107 -187.5 151t-152.5 44q-101 0 -164 -62t-63 -153q0 -87 54.5 -145t138.5 -58z" />
    <glyph glyph-name="integral" unicode="&#x222b;" horiz-adv-x="860" 
d="M590 37q0 -90 -14.5 -162t-45.5 -128t-83.5 -86t-124.5 -30q-93 0 -156.5 63.5t-63.5 145.5q0 37 18.5 59.5t49.5 22.5q33 0 53 -20t21 -58q0 -34 2 -54.5t10 -43.5t27 -34t49 -11q143 0 143 328q0 123 -21 260t-51.5 259.5t-60.5 245.5t-51 260t-21 261q0 186 66 295.5
t205 109.5q91 0 154 -63.5t63 -145.5q0 -37 -18.5 -59t-49.5 -22q-33 0 -53 20t-21 57q0 27 -1 44t-6 38t-14 33t-26 20.5t-41 8.5q-143 0 -143 -332q0 -122 21 -258t51.5 -258t60.5 -245t51 -260t21 -261z" />
    <glyph glyph-name="approxequal" unicode="&#x2248;" horiz-adv-x="1132" 
d="M985 848h45q-3 -117 -66.5 -181.5t-162.5 -64.5q-59 0 -126 22.5t-117.5 49t-117 49t-125.5 22.5q-146 0 -170 -141h-43q1 116 65.5 181t164.5 65q59 0 126 -22.5t117.5 -49t116.5 -49t125 -22.5q146 0 168 141zM985 500h45q-3 -117 -66.5 -181.5t-162.5 -64.5
q-59 0 -126 22.5t-117.5 49t-117 49t-125.5 22.5q-146 0 -170 -141h-43q1 116 65.5 181t164.5 65q59 0 126 -22.5t117.5 -49.5t116.5 -49.5t125 -22.5q146 0 168 142z" />
    <glyph glyph-name="notequal" unicode="&#x2260;" horiz-adv-x="849" 
d="M748 672h-240l-96 -238h336v-104h-379l-109 -273h-67l108 273h-199v104h242l96 238h-338v104h379l111 275h67l-110 -275h199v-104z" />
    <glyph glyph-name="lessequal" unicode="&#x2264;" horiz-adv-x="866" 
d="M764 356l-662 219v150l662 221v-112l-569 -181v-6l569 -180v-111zM764 168h-662v104h662v-104z" />
    <glyph glyph-name="greaterequal" unicode="&#x2265;" horiz-adv-x="866" 
d="M102 356v111l570 180v6l-570 181v112l662 -221v-150zM102 168v104h662v-104h-662z" />
    <glyph glyph-name="uni2460" unicode="&#x2460;" 
d="M965 1679q140 0 271 -42.5t236.5 -121.5t185 -184.5t122.5 -238t43 -275.5q0 -174 -68 -333t-182.5 -274t-273.5 -183t-334 -68q-177 0 -337 68t-275 183t-183 274t-68 333q0 179 67.5 339t183 274.5t275 181.5t337.5 67zM965 1618q-221 0 -405.5 -107.5t-290 -291.5
t-105.5 -402q0 -164 62 -311.5t168.5 -254t255.5 -169t315 -62.5q216 0 399 106t290 289.5t107 401.5q0 163 -63.5 311t-170 255.5t-254 171t-308.5 63.5zM997 438q0 -58 16 -74t77 -16v-26h-265v26q61 0 77 16t16 74v727q0 27 -1 38t-5.5 21.5t-16.5 8t-30 -10t-50 -24.5
l-12 25l131 69l49 27l14 -14v-867z" />
    <glyph glyph-name="uni2461" unicode="&#x2461;" 
d="M965 1679q140 0 271 -42.5t236.5 -121.5t185 -184.5t122.5 -238t43 -275.5q0 -174 -68 -333t-182.5 -274t-273.5 -183t-334 -68q-177 0 -337 68t-275 183t-183 274t-68 333q0 179 67.5 339t183 274.5t275 181.5t337.5 67zM965 1618q-221 0 -405.5 -107.5t-290 -291.5
t-105.5 -402q0 -164 62 -311.5t168.5 -254t255.5 -169t315 -62.5q216 0 399 106t290 289.5t107 401.5q0 163 -63.5 311t-170 255.5t-254 171t-308.5 63.5zM1128 414q56 0 81 23.5t53 99.5l24 -11l-47 -129l-18 -51h-570v25q118 109 195 187.5t151 171.5t110 179.5t36 169.5
q0 89 -42 147t-136 58q-114 0 -176.5 -81.5t-65.5 -217.5h-29q0 169 78 269t221 100q117 0 177.5 -70.5t60.5 -177.5q0 -293 -477 -688v-4h374z" />
    <glyph glyph-name="uni2462" unicode="&#x2462;" 
d="M965 1679q140 0 271 -42.5t236.5 -121.5t185 -184.5t122.5 -238t43 -275.5q0 -174 -68 -333t-182.5 -274t-273.5 -183t-334 -68q-177 0 -337 68t-275 183t-183 274t-68 333q0 179 67.5 339t183 274.5t275 181.5t337.5 67zM965 1618q-221 0 -405.5 -107.5t-290 -291.5
t-105.5 -402q0 -164 62 -311.5t168.5 -254t255.5 -169t315 -62.5q216 0 399 106t290 289.5t107 401.5q0 163 -63.5 311t-170 255.5t-254 171t-308.5 63.5zM707 383q0 17 12.5 26t32.5 9q14 0 26 -6t18 -11t19 -18q42 -39 111 -39q85 0 148 59.5t63 174.5q0 70 -22.5 121
t-62 79t-85 41t-99.5 15v26q219 69 219 250q0 69 -39.5 115.5t-113.5 46.5q-149 0 -193 -156h-30q17 106 83 162.5t164 56.5q93 0 155.5 -59t62.5 -158q0 -161 -195 -250v-2q111 -16 177.5 -84.5t66.5 -183.5q0 -130 -94 -212.5t-228 -82.5q-75 0 -135.5 23t-60.5 57z" />
    <glyph glyph-name="uni2463" unicode="&#x2463;" 
d="M965 1679q140 0 271 -42.5t236.5 -121.5t185 -184.5t122.5 -238t43 -275.5q0 -174 -68 -333t-182.5 -274t-273.5 -183t-334 -68q-177 0 -337 68t-275 183t-183 274t-68 333q0 179 67.5 339t183 274.5t275 181.5t337.5 67zM965 1618q-221 0 -405.5 -107.5t-290 -291.5
t-105.5 -402q0 -164 62 -311.5t168.5 -254t255.5 -169t315 -62.5q216 0 399 106t290 289.5t107 401.5q0 163 -63.5 311t-170 255.5t-254 171t-308.5 63.5zM631 608v60l413 643h70v-643h111v-60h-111v-164q0 -58 15.5 -74t76.5 -16v-26h-264v26q61 0 76.5 16t15.5 74v164
h-403zM688 668h346v551l-346 -547v-4z" />
    <glyph glyph-name="uni2464" unicode="&#x2464;" 
d="M965 1679q140 0 271 -42.5t236.5 -121.5t185 -184.5t122.5 -238t43 -275.5q0 -174 -68 -333t-182.5 -274t-273.5 -183t-334 -68q-177 0 -337 68t-275 183t-183 274t-68 333q0 179 67.5 339t183 274.5t275 181.5t337.5 67zM965 1618q-221 0 -405.5 -107.5t-290 -291.5
t-105.5 -402q0 -164 62 -311.5t168.5 -254t255.5 -169t315 -62.5q216 0 399 106t290 289.5t107 401.5q0 163 -63.5 311t-170 255.5t-254 171t-308.5 63.5zM713 393q0 35 43 35q8 0 15 -2t13 -6.5t9 -7.5t10 -11.5t10 -11.5q33 -33 102 -33q38 0 76 20t70.5 58.5t53 104
t20.5 147.5q0 137 -50.5 201.5t-138.5 64.5q-83 0 -141 -49l-41 27l92 393h344l-18 -70h-293l-70 -297l6 -4q65 56 156 56q114 0 180 -86.5t66 -212.5q0 -180 -96 -287t-238 -107q-73 0 -126.5 22.5t-53.5 55.5z" />
    <glyph glyph-name="uni2465" unicode="&#x2465;" 
d="M965 1679q140 0 271 -42.5t236.5 -121.5t185 -184.5t122.5 -238t43 -275.5q0 -174 -68 -333t-182.5 -274t-273.5 -183t-334 -68q-177 0 -337 68t-275 183t-183 274t-68 333q0 179 67.5 339t183 274.5t275 181.5t337.5 67zM965 20q216 0 399 106t290 289.5t107 401.5
q0 163 -63.5 311t-170 255.5t-254 171t-308.5 63.5q-221 0 -405.5 -107.5t-290 -291.5t-105.5 -402q0 -164 62 -311.5t168.5 -254t255.5 -169t315 -62.5zM993 995q112 0 174 -92.5t62 -224.5q0 -68 -17 -133t-50 -120t-88.5 -88.5t-125.5 -33.5q-135 0 -212 120t-74 310
q2 105 34.5 201.5t93.5 179.5t160.5 141.5t225.5 79.5v-26q-91 -23 -163 -67.5t-119 -104t-76.5 -123.5t-45.5 -137h4q33 51 89.5 84.5t127.5 33.5zM950 344q91 0 139 85.5t48 229.5q0 79 -15.5 141.5t-57.5 107t-106 44.5q-111 0 -194 -116q-10 -68 -10 -119
q-3 -166 49 -269.5t147 -103.5z" />
    <glyph glyph-name="uni2466" unicode="&#x2466;" 
d="M965 1679q140 0 271 -42.5t236.5 -121.5t185 -184.5t122.5 -238t43 -275.5q0 -174 -68 -333t-182.5 -274t-273.5 -183t-334 -68q-177 0 -337 68t-275 183t-183 274t-68 333q0 179 67.5 339t183 274.5t275 181.5t337.5 67zM965 1618q-221 0 -405.5 -107.5t-290 -291.5
t-105.5 -402q0 -164 62 -311.5t168.5 -254t255.5 -169t315 -62.5q216 0 399 106t290 289.5t107 401.5q0 163 -63.5 311t-170 255.5t-254 171t-308.5 63.5zM907 293l-59 12l295 907v5h-352q-58 0 -81 -26t-44 -122l-25 4l35 158l12 55h545z" />
    <glyph glyph-name="uni2467" unicode="&#x2467;" 
d="M965 1679q140 0 271 -42.5t236.5 -121.5t185 -184.5t122.5 -238t43 -275.5q0 -174 -68 -333t-182.5 -274t-273.5 -183t-334 -68q-177 0 -337 68t-275 183t-183 274t-68 333q0 179 67.5 339t183 274.5t275 181.5t337.5 67zM965 20q216 0 399 106t290 289.5t107 401.5
q0 163 -63.5 311t-170 255.5t-254 171t-308.5 63.5q-221 0 -405.5 -107.5t-290 -291.5t-105.5 -402q0 -164 62 -311.5t168.5 -254t255.5 -169t315 -62.5zM1016 877q213 -160 213 -326q0 -110 -74.5 -179t-191.5 -69q-121 0 -193 69t-72 169q0 87 56 161.5t161 153.5
q-99 80 -144.5 140t-45.5 130q0 91 69 150t175 59q107 0 169 -58t62 -144q0 -75 -42.5 -127t-143.5 -127zM809 1135q0 -53 37.5 -103.5t132.5 -126.5q86 69 117.5 119.5t31.5 110.5q0 68 -42.5 113.5t-114.5 45.5q-73 0 -117.5 -44.5t-44.5 -114.5zM969 344q80 0 128 53
t48 144q0 75 -49 141t-148 145q-180 -145 -180 -286q0 -80 54.5 -138.5t146.5 -58.5z" />
    <glyph glyph-name="uni2468" unicode="&#x2468;" 
d="M961 1679q177 0 337 -68t275 -183t182.5 -274t67.5 -333q0 -179 -67.5 -339t-182.5 -274.5t-274.5 -181.5t-337.5 -67q-175 0 -334 67t-274 181.5t-183 274.5t-68 339q0 174 68 333t183 274t274 183t334 68zM961 20q166 0 315 63.5t255 171t168 255.5t62 311
q0 164 -62 311.5t-168.5 254t-255 169t-314.5 62.5q-162 0 -309 -62.5t-254 -169t-170.5 -254.5t-63.5 -311t63.5 -311.5t170.5 -255.5t254.5 -170.5t308.5 -63.5zM977 1335q135 0 212.5 -120t74.5 -310q-2 -105 -34.5 -202t-93.5 -179.5t-159.5 -141t-224.5 -79.5v27
q90 23 162 67.5t118.5 104t76 123.5t44.5 137h-4q-33 -51 -89.5 -84t-127.5 -33q-76 0 -130.5 45.5t-80 115.5t-25.5 155q0 68 17 133t50 119.5t88.5 88t125.5 33.5zM1171 922q3 166 -49 269t-147 103q-91 0 -139 -85.5t-48 -229.5q0 -78 15.5 -140.5t57.5 -107.5t106 -45
q110 0 194 117q10 68 10 119z" />
    <glyph glyph-name="uni2469" unicode="&#x2469;" 
d="M965 1679q140 0 271 -42.5t236.5 -121.5t185 -184.5t122.5 -238t43 -275.5q0 -174 -68 -333t-182.5 -274t-273.5 -183t-334 -68q-177 0 -337 68t-275 183t-183 274t-68 333q0 179 67.5 339t183 274.5t275 181.5t337.5 67zM965 1618q-221 0 -405.5 -107.5t-290 -291.5
t-105.5 -402q0 -164 62 -311.5t168.5 -254t255.5 -169t315 -62.5q216 0 399 106t290 289.5t107 401.5q0 163 -63.5 311t-170 255.5t-254 171t-308.5 63.5zM1176 303q-97 0 -165 70.5t-99 184.5t-31 261t31 261t99 184.5t165 70.5t165.5 -70.5t100 -185t31.5 -260.5
t-31.5 -260.5t-100 -185t-165.5 -70.5zM711 438q0 -58 15.5 -74t76.5 -16v-26h-266v26q61 0 76.5 16t15.5 74v727q0 27 -1 38t-5.5 21.5t-16 8t-29.5 -10t-49 -24.5l-12 25l131 69l47 27l17 -14v-867zM1176 344q71 0 118 65t66.5 168t19.5 242t-19.5 242t-66.5 168t-118 65
q-54 0 -94 -36.5t-64 -102t-35.5 -149.5t-11.5 -187t11.5 -187t35.5 -149.5t64 -102t94 -36.5z" />
    <glyph glyph-name="uni246A" unicode="&#x246a;" 
d="M965 1679q140 0 271 -42.5t236.5 -121.5t185 -184.5t122.5 -238t43 -275.5q0 -174 -68 -333t-182.5 -274t-273.5 -183t-334 -68q-177 0 -337 68t-275 183t-183 274t-68 333q0 179 67.5 339t183 274.5t275 181.5t337.5 67zM965 1618q-221 0 -405.5 -107.5t-290 -291.5
t-105.5 -402q0 -164 62 -311.5t168.5 -254t255.5 -169t315 -62.5q216 0 399 106t290 289.5t107 401.5q0 163 -63.5 311t-170 255.5t-254 171t-308.5 63.5zM774 438q0 -58 15.5 -74t76.5 -16v-26h-266v26q61 0 76.5 16t15.5 74v727q0 24 -0.5 33.5t-3.5 20.5t-8.5 12
t-17.5 -1t-28 -10t-42 -22l-12 25l131 69l47 27l16 -14v-867zM1235 438q0 -58 15.5 -74t76.5 -16v-26h-266v26q61 0 76.5 16t15.5 74v727q0 24 -0.5 33.5t-3.5 20.5t-8.5 12t-17.5 -1t-28 -10t-42 -22l-13 25l131 69l48 27l16 -14v-867z" />
    <glyph glyph-name="uni246B" unicode="&#x246b;" 
d="M965 1679q140 0 271 -42.5t236.5 -121.5t185 -184.5t122.5 -238t43 -275.5q0 -174 -68 -333t-182.5 -274t-273.5 -183t-334 -68q-177 0 -337 68t-275 183t-183 274t-68 333q0 179 67.5 339t183 274.5t275 181.5t337.5 67zM965 1618q-221 0 -405.5 -107.5t-290 -291.5
t-105.5 -402q0 -164 62 -311.5t168.5 -254t255.5 -169t315 -62.5q216 0 399 106t290 289.5t107 401.5q0 163 -63.5 311t-170 255.5t-254 171t-308.5 63.5zM1323 391q58 0 82 22.5t51 98.5l25 -8l-45 -131l-19 -51h-571v26q93 86 157.5 149.5t132.5 141t108.5 141.5t66.5 136
t26 139q0 91 -42 148t-136 57q-114 0 -175.5 -81t-63.5 -216h-31q0 168 78 267t223 99q116 0 175.5 -70t59.5 -178q0 -289 -475 -686v-4h373zM674 438q0 -58 15.5 -74t76.5 -16v-26h-264v26q61 0 76.5 16t15.5 74v727v26t-1.5 19t-4 14t-7.5 6.5t-12 1.5t-18.5 -5.5
t-25 -10.5t-33.5 -18l-13 25l131 69l49 27l15 -14v-867z" />
    <glyph glyph-name="uni246C" unicode="&#x246c;" 
d="M965 1679q140 0 271 -42.5t236.5 -121.5t185 -184.5t122.5 -238t43 -275.5q0 -174 -68 -333t-182.5 -274t-273.5 -183t-334 -68q-177 0 -337 68t-275 183t-183 274t-68 333q0 179 67.5 339t183 274.5t275 181.5t337.5 67zM965 1618q-221 0 -405.5 -107.5t-290 -291.5
t-105.5 -402q0 -164 62 -311.5t168.5 -254t255.5 -169t315 -62.5q216 0 399 106t290 289.5t107 401.5q0 163 -63.5 311t-170 255.5t-254 171t-308.5 63.5zM903 383q0 17 12.5 26t32.5 9q29 0 64 -35q42 -39 110 -39q85 0 148 59.5t63 174.5q0 70 -22.5 121t-61.5 79
t-84.5 41t-99.5 15v26q219 69 219 250q0 69 -40 115.5t-114 46.5q-148 0 -192 -156h-31q17 106 83.5 162.5t164.5 56.5q93 0 155 -59t62 -158q0 -161 -194 -250v-2q111 -16 177 -84.5t66 -183.5q0 -130 -93.5 -212.5t-227.5 -82.5q-75 0 -136 23t-61 57zM717 438
q0 -58 15.5 -74t76.5 -16v-26h-266v26q62 0 78 16t16 74v727q0 33 -1.5 46t-12 19t-30 -2.5t-58.5 -29.5l-13 25l131 69l47 27l17 -14v-867z" />
    <glyph glyph-name="uni246D" unicode="&#x246d;" 
d="M965 1679q140 0 271 -42.5t236.5 -121.5t185 -184.5t122.5 -238t43 -275.5q0 -174 -68 -333t-182.5 -274t-273.5 -183t-334 -68q-177 0 -337 68t-275 183t-183 274t-68 333q0 179 67.5 339t183 274.5t275 181.5t337.5 67zM965 1618q-221 0 -405.5 -107.5t-290 -291.5
t-105.5 -402q0 -164 62 -311.5t168.5 -254t255.5 -169t315 -62.5q216 0 399 106t290 289.5t107 401.5q0 163 -63.5 311t-170 255.5t-254 171t-308.5 63.5zM678 438q0 -58 15.5 -74t76.5 -16v-26h-264v26q61 0 76.5 16t15.5 74v727v26t-1.5 19t-4 14t-7.5 6.5t-12 1.5
t-18.5 -5.5t-25 -10.5t-33.5 -18l-13 25l131 69l50 27l14 -14v-867zM829 602v60l412 643h72v-643h108v-60h-108v-164q0 -58 15.5 -74t76.5 -16v-26h-266v26q61 0 76.5 16t15.5 74v164h-402zM885 662h346v550l-346 -546v-4z" />
    <glyph glyph-name="uni246E" unicode="&#x246e;" 
d="M965 1679q140 0 271 -42.5t236.5 -121.5t185 -184.5t122.5 -238t43 -275.5q0 -174 -68 -333t-182.5 -274t-273.5 -183t-334 -68q-177 0 -337 68t-275 183t-183 274t-68 333q0 179 67.5 339t183 274.5t275 181.5t337.5 67zM965 1618q-221 0 -405.5 -107.5t-290 -291.5
t-105.5 -402q0 -164 62 -311.5t168.5 -254t255.5 -169t315 -62.5q216 0 399 106t290 289.5t107 401.5q0 163 -63.5 311t-170 255.5t-254 171t-308.5 63.5zM926 393q0 35 43 35q8 0 15 -2t13 -6.5t9 -7.5t10 -11.5t10 -11.5q33 -33 102 -33q38 0 76 20t70.5 58.5t53 104
t20.5 147.5q0 137 -50.5 201.5t-138.5 64.5q-83 0 -141 -49l-41 27l92 393h344l-18 -70h-293l-70 -297l6 -4q65 56 156 56q114 0 180 -86.5t66 -212.5q0 -180 -96 -287t-238 -107q-73 0 -126.5 22.5t-53.5 55.5zM721 438q0 -58 15.5 -74t76.5 -16v-26h-264v26q61 0 76.5 16
t15.5 74v727v26t-1.5 19t-4 14t-7.5 6.5t-12 1.5t-18.5 -5.5t-25 -10.5t-33.5 -18l-13 25l131 69l50 27l14 -14v-867z" />
    <glyph glyph-name="uni246F" unicode="&#x246f;" 
d="M965 1679q140 0 271 -42.5t236.5 -121.5t185 -184.5t122.5 -238t43 -275.5q0 -174 -68 -333t-182.5 -274t-273.5 -183t-334 -68q-177 0 -337 68t-275 183t-183 274t-68 333q0 179 67.5 339t183 274.5t275 181.5t337.5 67zM965 20q216 0 399 106t290 289.5t107 401.5
q0 163 -63.5 311t-170 255.5t-254 171t-308.5 63.5q-221 0 -405.5 -107.5t-290 -291.5t-105.5 -402q0 -164 62 -311.5t168.5 -254t255.5 -169t315 -62.5zM1212 995q112 0 174 -92.5t62 -224.5q0 -68 -17 -133t-50 -120t-88.5 -88.5t-125.5 -33.5q-135 0 -212 120t-74 310
q2 105 34.5 201.5t93.5 179.5t160.5 141.5t225.5 79.5v-26q-91 -23 -163 -67.5t-119 -104t-76.5 -123.5t-45.5 -137h4q33 51 89.5 84.5t127.5 33.5zM684 438q0 -58 15.5 -74t76.5 -16v-26h-266v26q61 0 76.5 16t15.5 74v727q0 24 -0.5 33.5t-3.5 20.5t-8.5 12t-17.5 -1
t-28 -10t-42 -22l-13 25l132 69l47 27l16 -14v-867zM1169 344q91 0 139 85.5t48 229.5q0 79 -15.5 141.5t-57 107t-105.5 44.5q-112 0 -195 -116q-10 -68 -10 -119q-3 -166 49 -269.5t147 -103.5z" />
    <glyph glyph-name="uni2470" unicode="&#x2470;" 
d="M965 1679q140 0 271 -42.5t236.5 -121.5t185 -184.5t122.5 -238t43 -275.5q0 -174 -68 -333t-182.5 -274t-273.5 -183t-334 -68q-177 0 -337 68t-275 183t-183 274t-68 333q0 179 67.5 339t183 274.5t275 181.5t337.5 67zM965 1618q-221 0 -405.5 -107.5t-290 -291.5
t-105.5 -402q0 -164 62 -311.5t168.5 -254t255.5 -169t315 -62.5q216 0 399 106t290 289.5t107 401.5q0 163 -63.5 311t-170 255.5t-254 171t-308.5 63.5zM688 438q0 -58 15.5 -74t76.5 -16v-26h-266v26q62 0 78 16t16 74v727q0 33 -1.5 46t-12 19t-30 -2.5t-58.5 -29.5
l-12 25l131 69l47 27l16 -14v-867zM1114 322l-59 12l297 907v4h-355q-57 0 -79.5 -25.5t-43.5 -121.5l-26 4l35 158l12 55h547z" />
    <glyph glyph-name="uni2471" unicode="&#x2471;" 
d="M965 1679q140 0 271 -42.5t236.5 -121.5t185 -184.5t122.5 -238t43 -275.5q0 -174 -68 -333t-182.5 -274t-273.5 -183t-334 -68q-177 0 -337 68t-275 183t-183 274t-68 333q0 179 67.5 339t183 274.5t275 181.5t337.5 67zM965 20q216 0 399 106t290 289.5t107 401.5
q0 163 -63.5 311t-170 255.5t-254 171t-308.5 63.5q-221 0 -405.5 -107.5t-290 -291.5t-105.5 -402q0 -164 62 -311.5t168.5 -254t255.5 -169t315 -62.5zM1214 877q211 -161 211 -326q0 -110 -74 -179t-190 -69q-123 0 -194.5 69t-71.5 169q0 87 56.5 161t162.5 154
q-99 80 -144.5 140t-45.5 130q0 91 68.5 150t174.5 59t169 -58t63 -144q0 -73 -43.5 -126t-143.5 -128zM690 438q0 -58 15.5 -74t76.5 -16v-26h-266v26q61 0 76.5 16t15.5 74v727q0 24 -0.5 33.5t-3.5 20.5t-8.5 12t-17.5 -1t-28 -10t-42 -22l-12 25l131 69l47 27l16 -14
v-867zM1006 1135q0 -54 38 -104t134 -126q85 67 117 118t32 112q0 68 -43.5 113.5t-116.5 45.5q-71 0 -116 -45t-45 -114zM1165 344q82 0 130 52.5t48 144.5q0 75 -49 142.5t-147 145.5q-180 -146 -180 -288q0 -80 53.5 -138.5t144.5 -58.5z" />
    <glyph glyph-name="uni2472" unicode="&#x2472;" 
d="M965 1679q140 0 271 -42.5t236.5 -121.5t185 -184.5t122.5 -238t43 -275.5q0 -174 -68 -333t-182.5 -274t-273.5 -183t-334 -68q-177 0 -337 68t-275 183t-183 274t-68 333q0 179 67.5 339t183 274.5t275 181.5t337.5 67zM965 20q216 0 399 106t290 289.5t107 401.5
q0 163 -63.5 311t-170 255.5t-254 171t-308.5 63.5q-221 0 -405.5 -107.5t-290 -291.5t-105.5 -402q0 -164 62 -311.5t168.5 -254t255.5 -169t315 -62.5zM1180 1335q135 0 212 -120t74 -310q-2 -105 -34.5 -202t-93.5 -179.5t-159.5 -141t-224.5 -79.5v27q90 23 162 67.5
t119 104t76.5 123.5t44.5 137h-2q-35 -51 -91.5 -84t-127.5 -33q-76 0 -130.5 45.5t-80 115.5t-25.5 155q0 68 17 133t50 119.5t88.5 88t125.5 33.5zM702 438q0 -58 16 -74t77 -16v-26h-267v26q61 0 77 16t16 74v727q0 27 -1 38t-5.5 21.5t-16 8t-29.5 -10t-49 -24.5l-12 25
l131 69l47 27l16 -14v-867zM1374 922q5 166 -48 269t-148 103q-91 0 -139 -85.5t-48 -229.5q0 -57 9.5 -107t29.5 -93t55.5 -68t83.5 -25q111 0 195 117q10 68 10 119z" />
    <glyph glyph-name="uni2473" unicode="&#x2473;" 
d="M965 1679q140 0 271 -42.5t236.5 -121.5t185 -184.5t122.5 -238t43 -275.5q0 -174 -68 -333t-182.5 -274t-273.5 -183t-334 -68q-177 0 -337 68t-275 183t-183 274t-68 333q0 179 67.5 339t183 274.5t275 181.5t337.5 67zM965 1618q-221 0 -405.5 -107.5t-290 -291.5
t-105.5 -402q0 -164 62 -311.5t168.5 -254t255.5 -169t315 -62.5q216 0 399 106t290 289.5t107 401.5q0 163 -63.5 311t-170 255.5t-254 171t-308.5 63.5zM1335 303q-97 0 -165 70.5t-99 184.5t-31 261t31 261t99 184.5t165 70.5t165.5 -70.5t100 -185t31.5 -260.5
t-31.5 -260.5t-100 -185t-165.5 -70.5zM838 385q56 0 80.5 22.5t52.5 98.5l24 -8l-65 -183h-570v27q94 86 158 149t132.5 141t109 142t66.5 136t26 139q0 91 -42.5 147.5t-137.5 56.5q-112 0 -174.5 -81t-65.5 -216h-29q0 169 77.5 268t221.5 99q117 0 177.5 -70t60.5 -178
q0 -287 -477 -686v-4h375zM1335 344q54 0 94 36.5t64 102t35.5 149.5t11.5 187t-11.5 187t-35.5 149.5t-64 102t-94 36.5q-70 0 -117 -64.5t-67.5 -168.5t-20.5 -242t20.5 -242t67.5 -168.5t117 -64.5z" />
    <glyph glyph-name="uni24EA" unicode="&#x24ea;" 
d="M965 1679q140 0 271 -42.5t236.5 -121.5t185 -184.5t122.5 -238t43 -275.5q0 -174 -68 -333t-182.5 -274t-273.5 -183t-334 -68q-177 0 -337 68t-275 183t-183 274t-68 333q0 179 67.5 339t183 274.5t275 181.5t337.5 67zM965 1618q-221 0 -405.5 -107.5t-290 -291.5
t-105.5 -402q0 -164 62 -311.5t168.5 -254t255.5 -169t315 -62.5q216 0 399 106t290 289.5t107 401.5q0 163 -63.5 311t-170 255.5t-254 171t-308.5 63.5zM952 303q-97 0 -165 70.5t-99 184.5t-31 261t31 261t99 184.5t165 70.5t165.5 -70.5t100 -185t31.5 -260.5
t-31.5 -260.5t-100 -185t-165.5 -70.5zM952 344q54 0 94 36.5t64 102t35.5 149.5t11.5 187t-11.5 187t-35.5 149.5t-64 102t-94 36.5q-103 0 -153.5 -131t-50.5 -344t50.5 -344t153.5 -131z" />
    <glyph glyph-name="uni24EB" unicode="&#x24eb;" 
d="M965 1679q-178 0 -337.5 -67t-275 -181.5t-183 -274.5t-67.5 -339q0 -174 68 -333t183 -274t275 -183t337 -68q175 0 334 68t273.5 183t182.5 274t68 333q0 143 -43 275.5t-122.5 238t-185 184.5t-236.5 121.5t-271 42.5zM778 457q0 -58 15.5 -74t76.5 -16v-27h-266v27
q61 0 76.5 16t15.5 74v727q0 24 -0.5 33.5t-3.5 20.5t-8.5 12t-17.5 -1t-28 -10t-42 -22l-12 22l131 72l47 26l16 -14v-866zM1229 457q0 -58 15.5 -74t76.5 -16v-27h-266v27q61 0 76.5 16t15.5 74v727q0 24 -0.5 33.5t-3.5 20.5t-8.5 12t-17.5 -1t-28 -10t-42 -22l-13 22
l131 72l47 26l17 -14v-866z" />
    <glyph glyph-name="uni24EC" unicode="&#x24ec;" 
d="M965 1679q-178 0 -337.5 -67t-275 -181.5t-183 -274.5t-67.5 -339q0 -174 68 -333t183 -274t275 -183t337 -68q175 0 334 68t273.5 183t182.5 274t68 333q0 143 -43 275.5t-122.5 238t-185 184.5t-236.5 121.5t-271 42.5zM1319 408q58 0 82.5 22t50.5 98l25 -8l-45 -131
l-19 -51h-571v27q119 109 195 187t150.5 171t110 179t35.5 169q0 91 -42 148t-136 57q-114 0 -176 -81t-64 -216h-30q0 168 78 267.5t223 99.5q116 0 175.5 -70t59.5 -178q0 -287 -475 -688v-2h373zM655 455q0 -58 16 -74t77 -16v-27h-267v27q61 0 76.5 16t15.5 74v727
q0 20 -0.5 28.5t-2 20t-5.5 13.5t-10.5 4.5t-18 -3t-26 -12.5t-37.5 -19l-12 23l129 72l49 26l16 -14v-866z" />
    <glyph glyph-name="uni24ED" unicode="&#x24ed;" 
d="M965 1679q-178 0 -337.5 -67t-275 -181.5t-183 -274.5t-67.5 -339q0 -174 68 -333t183 -274t275 -183t337 -68q175 0 334 68t273.5 183t182.5 274t68 333q0 143 -43 275.5t-122.5 238t-185 184.5t-236.5 121.5t-271 42.5zM903 383q0 17 12.5 26t32.5 9q29 0 64 -35
q42 -39 110 -39q85 0 148 59.5t63 174.5q0 70 -22.5 121t-61.5 79t-84.5 41t-99.5 15v26q219 69 219 250q0 69 -40 115.5t-114 46.5q-148 0 -192 -156h-31q17 106 83.5 162.5t164.5 56.5q93 0 155 -59t62 -158q0 -161 -194 -250v-2q111 -16 177 -84.5t66 -183.5
q0 -130 -93.5 -212.5t-227.5 -82.5q-75 0 -136 23t-61 57zM682 438q0 -58 15.5 -74t76.5 -16v-26h-266v26q61 0 76.5 16t15.5 74v727q0 24 -0.5 33.5t-3.5 20.5t-8.5 12t-17.5 -1t-28 -10t-42 -22l-13 25l131 69l48 27l16 -14v-867z" />
    <glyph glyph-name="uni24EE" unicode="&#x24ee;" 
d="M965 1679q-178 0 -337.5 -67t-275 -181.5t-183 -274.5t-67.5 -339q0 -174 68 -333t183 -274t275 -183t337 -68q175 0 334 68t273.5 183t182.5 274t68 333q0 143 -43 275.5t-122.5 238t-185 184.5t-236.5 121.5t-271 42.5zM668 455q0 -58 15.5 -74t76.5 -16v-27h-266v27
q61 0 76.5 16t15.5 74v727q0 20 -0.5 29t-2 20t-6 13t-11 4t-18 -3t-26 -12t-37.5 -19l-12 23l131 72l47 26l17 -14v-866zM834 618v60l413 643h70v-643h110v-60h-110v-163q0 -58 15.5 -74t76.5 -16v-27h-266v27q61 0 76.5 16t15.5 74v163h-401zM889 678h346v551l-346 -547
v-4z" />
    <glyph glyph-name="uni24EF" unicode="&#x24ef;" 
d="M965 1679q-178 0 -337.5 -67t-275 -181.5t-183 -274.5t-67.5 -339q0 -174 68 -333t183 -274t275 -183t337 -68q175 0 334 68t273.5 183t182.5 274t68 333q0 143 -43 275.5t-122.5 238t-185 184.5t-236.5 121.5t-271 42.5zM899 393q0 35 43 35q8 0 15 -2t13 -6.5t9 -7.5
t10 -11.5t10 -11.5q33 -33 103 -33q38 0 75.5 20t70.5 58.5t53 104t20 147.5q0 137 -50 201.5t-138 64.5q-84 0 -142 -49l-41 27l92 393h344l-18 -70h-293l-69 -297l6 -4q65 56 155 56q114 0 180 -86.5t66 -212.5q0 -180 -96 -287t-238 -107q-73 0 -126.5 22.5t-53.5 55.5z
M700 438q0 -58 16 -74t77 -16v-26h-267v26q61 0 76.5 16t15.5 74v727q0 24 -0.5 33.5t-3.5 20.5t-8.5 12t-17.5 -1t-28 -10t-42 -22l-12 25l131 69l47 27l16 -14v-867z" />
    <glyph glyph-name="uni24F0" unicode="&#x24f0;" 
d="M965 1679q-178 0 -337.5 -67t-275 -181.5t-183 -274.5t-67.5 -339q0 -174 68 -333t183 -274t275 -183t337 -68q175 0 334 68t273.5 183t182.5 274t68 333q0 143 -43 275.5t-122.5 238t-185 184.5t-236.5 121.5t-271 42.5zM870 733q2 106 34 202.5t92.5 179t158.5 141
t223 79.5v-26q-89 -23 -160.5 -67t-118.5 -102.5t-77.5 -123t-46.5 -137.5h4q33 51 90 83.5t127 32.5q77 0 131.5 -46t79.5 -116t25 -155q0 -68 -17 -133t-49.5 -120t-88 -88.5t-124.5 -33.5q-133 0 -209.5 121t-73.5 309zM674 438q0 -58 15.5 -74t76.5 -16v-26h-266v26
q61 0 76.5 16t15.5 74v727q0 24 -0.5 33.5t-3.5 20.5t-8.5 12t-17.5 -1t-28 -10t-42 -22l-13 25l131 69l47 27l17 -14v-867zM958 717q-5 -166 48.5 -269.5t150.5 -103.5q91 0 138.5 85.5t47.5 229.5q0 78 -16 141t-58 107.5t-106 44.5q-111 0 -196 -121q-9 -61 -9 -114z" />
    <glyph glyph-name="uni24F1" unicode="&#x24f1;" 
d="M965 1679q-178 0 -337.5 -67t-275 -181.5t-183 -274.5t-67.5 -339q0 -174 68 -333t183 -274t275 -183t337 -68q175 0 334 68t273.5 183t182.5 274t68 333q0 143 -43 275.5t-122.5 238t-185 184.5t-236.5 121.5t-271 42.5zM686 438q0 -58 15.5 -74t76.5 -16v-26h-264v26
q61 0 76.5 16t15.5 74v727v26t-1.5 19t-4 14t-7.5 6.5t-12 1.5t-18.5 -5.5t-25 -10.5t-33.5 -18l-12 25l131 69l49 27l14 -14v-867zM1096 322l-60 12l295 907v4h-352q-58 0 -81 -25.5t-44 -121.5l-25 4l35 158l13 55h544z" />
    <glyph glyph-name="uni24F2" unicode="&#x24f2;" 
d="M965 1679q-178 0 -337.5 -67t-275 -181.5t-183 -274.5t-67.5 -339q0 -174 68 -333t183 -274t275 -183t337 -68q175 0 334 68t273.5 183t182.5 274t68 333q0 143 -43 275.5t-122.5 238t-185 184.5t-236.5 121.5t-271 42.5zM850 535q0 87 65 165.5t189 155.5
q-108 75 -158.5 140.5t-50.5 136.5q0 87 73.5 144.5t190.5 57.5q116 0 188 -58t72 -138q0 -74 -47.5 -132t-157.5 -130q129 -88 190.5 -167.5t61.5 -164.5q0 -106 -85 -174t-222 -68q-144 0 -226.5 68t-82.5 164zM645 438q0 -58 15.5 -74t76.5 -16v-26h-266v26q61 0 76.5 16
t15.5 74v727v26t-1.5 19t-4 14t-7.5 6.5t-12 1.5t-18.5 -5.5t-25 -10.5t-33.5 -18l-12 25l131 69l49 27l16 -14v-867zM981 1141q0 -54 41 -109t149 -127q101 68 133.5 120.5t32.5 115.5t-49 108t-129 45q-82 0 -130 -43t-48 -110zM934 535q0 -77 63 -134t179 -57
q99 0 152.5 51.5t53.5 141.5q0 74 -57.5 144t-177.5 148q-213 -142 -213 -294z" />
    <glyph glyph-name="uni24F3" unicode="&#x24f3;" 
d="M965 1679q-178 0 -337.5 -67t-275 -181.5t-183 -274.5t-67.5 -339q0 -174 68 -333t183 -274t275 -183t337 -68q175 0 334 68t273.5 183t182.5 274t68 333q0 143 -43 275.5t-122.5 238t-185 184.5t-236.5 121.5t-271 42.5zM1477 905q-1 -84 -21 -162.5t-61 -151
t-99.5 -130t-142 -99.5t-184.5 -59v27q90 23 161.5 67t119 102.5t77.5 122.5t47 138h-4q-35 -50 -92.5 -82.5t-126.5 -32.5q-112 0 -172.5 92t-60.5 226q0 68 16.5 132t49 119t87.5 88t125 33q133 0 209.5 -120.5t71.5 -309.5zM700 438q0 -58 16 -74t77 -16v-26h-267v26
q62 0 78.5 16t16.5 74v727q0 27 -1.5 38.5t-6 21.5t-16.5 7.5t-30 -10t-49 -24.5l-12 25l131 69l47 27l16 -14v-867zM1391 922q0 167 -52.5 269.5t-148.5 102.5q-90 0 -138 -85.5t-48 -229.5q0 -57 9.5 -107t29.5 -93t56 -68t85 -25q113 0 198 121q9 92 9 115z" />
    <glyph glyph-name="uni24F4" unicode="&#x24f4;" 
d="M965 1679q-178 0 -337.5 -67t-275 -181.5t-183 -274.5t-67.5 -339q0 -174 68 -333t183 -274t275 -183t337 -68q175 0 334 68t273.5 183t182.5 274t68 333q0 143 -43 275.5t-122.5 238t-185 184.5t-236.5 121.5t-271 42.5zM1343 303q-97 0 -164.5 70.5t-98.5 184.5
t-31 261t31 261t98.5 184.5t164.5 70.5t165.5 -70.5t100 -185t31.5 -260.5t-31.5 -260.5t-100 -185t-165.5 -70.5zM825 385q56 0 80.5 22.5t52.5 98.5l25 -8l-65 -183h-570v27q94 86 158 149t132.5 141t109 142t66.5 136t26 139q0 91 -42 147.5t-136 56.5q-114 0 -176.5 -81
t-65.5 -216h-29q0 168 78 267.5t221 99.5q117 0 177.5 -70t60.5 -178q0 -291 -477 -686v-4h374zM1343 344q54 0 94 36.5t64 102t35.5 149.5t11.5 187t-11.5 187t-35.5 149.5t-64 102t-94 36.5q-103 0 -153.5 -131t-50.5 -344t50.5 -344t153.5 -131z" />
    <glyph glyph-name="uni24FF" unicode="&#x24ff;" 
d="M965 1679q-178 0 -337.5 -67t-275 -181.5t-183 -274.5t-67.5 -339q0 -174 68 -333t183 -274t275 -183t337 -68q175 0 334 68t273.5 183t182.5 274t68 333q0 143 -43 275.5t-122.5 238t-185 184.5t-236.5 121.5t-271 42.5zM952 303q-97 0 -165 70.5t-99 184.5t-31 261
t31 261t99 184.5t165 70.5t165.5 -70.5t100 -185t31.5 -260.5t-31.5 -260.5t-100 -185t-165.5 -70.5zM952 344q54 0 94 36.5t64 102t35.5 149.5t11.5 187t-11.5 187t-35.5 149.5t-64 102t-94 36.5q-103 0 -153.5 -131t-50.5 -344t50.5 -344t153.5 -131z" />
    <glyph glyph-name="lozenge" unicode="&#x25ca;" horiz-adv-x="1103" 
d="M610 1638l391 -821l-391 -821h-121l-387 821l387 821h121zM553 106l332 711l-332 711h-6l-328 -711l328 -711h6z" />
    <glyph glyph-name="uni2776" unicode="&#x2776;" 
d="M965 1679q-178 0 -337.5 -67t-275 -181.5t-183 -274.5t-67.5 -339q0 -174 68 -333t183 -274t275 -183t337 -68q175 0 334 68t273.5 183t182.5 274t68 333q0 143 -43 275.5t-122.5 238t-185 184.5t-236.5 121.5t-271 42.5zM997 438q0 -58 16.5 -75t76.5 -17v-24h-265v24
q60 0 76.5 17t16.5 75v727q0 27 -1 38t-5.5 21.5t-16.5 8t-30 -10t-50 -24.5l-12 23l131 71l49 25l14 -12v-867z" />
    <glyph glyph-name="uni2777" unicode="&#x2777;" 
d="M965 1679q-178 0 -337.5 -67t-275 -181.5t-183 -274.5t-67.5 -339q0 -174 68 -333t183 -274t275 -183t337 -68q175 0 334 68t273.5 183t182.5 274t68 333q0 143 -43 275.5t-122.5 238t-185 184.5t-236.5 121.5t-271 42.5zM1128 406q57 0 81.5 22.5t52.5 97.5l24 -8
l-65 -182h-570v26q94 86 158 149t132.5 141t109 142t66.5 136t26 139q0 91 -42 148t-136 57q-114 0 -176.5 -81t-65.5 -216h-29q0 168 78 267t221 99q117 0 177.5 -69.5t60.5 -177.5q0 -291 -477 -686v-4h374z" />
    <glyph glyph-name="uni2778" unicode="&#x2778;" 
d="M965 1679q-178 0 -337.5 -67t-275 -181.5t-183 -274.5t-67.5 -339q0 -174 68 -333t183 -274t275 -183t337 -68q175 0 334 68t273.5 183t182.5 274t68 333q0 143 -43 275.5t-122.5 238t-185 184.5t-236.5 121.5t-271 42.5zM707 383q0 17 12.5 26t32.5 9q14 0 26 -6t18 -11
t19 -18q42 -39 111 -39q85 0 148 59.5t63 174.5q0 70 -22.5 121t-62 79t-85 41t-99.5 15v26q219 69 219 250q0 69 -39.5 115.5t-113.5 46.5q-149 0 -193 -156h-30q17 106 83 162.5t164 56.5q93 0 155.5 -59t62.5 -158q0 -161 -195 -250v-2q111 -16 177.5 -84.5t66.5 -183.5
q0 -130 -94 -212.5t-228 -82.5q-75 0 -135.5 23t-60.5 57z" />
    <glyph glyph-name="uni2779" unicode="&#x2779;" 
d="M965 1679q-178 0 -337.5 -67t-275 -181.5t-183 -274.5t-67.5 -339q0 -174 68 -333t183 -274t275 -183t337 -68q175 0 334 68t273.5 183t182.5 274t68 333q0 143 -43 275.5t-122.5 238t-185 184.5t-236.5 121.5t-271 42.5zM627 608v60l413 643h70v-643h111v-60h-111v-164
q0 -58 15.5 -74t76.5 -16v-26h-264v26q61 0 76.5 16t15.5 74v164h-403zM682 668h348v551l-348 -547v-4z" />
    <glyph glyph-name="uni277A" unicode="&#x277a;" 
d="M965 1679q-178 0 -337.5 -67t-275 -181.5t-183 -274.5t-67.5 -339q0 -174 68 -333t183 -274t275 -183t337 -68q175 0 334 68t273.5 183t182.5 274t68 333q0 143 -43 275.5t-122.5 238t-185 184.5t-236.5 121.5t-271 42.5zM705 393q0 35 43 35q11 0 20 -4t12.5 -7
t12.5 -14t12 -14q33 -33 102 -33q38 0 75.5 20t70.5 58.5t53 104t20 147.5q0 137 -50 201.5t-138 64.5q-81 0 -139 -49l-41 27l92 393h344l-20 -70h-291l-70 -297l4 -4q68 56 158 56q113 0 178.5 -86.5t65.5 -212.5q0 -181 -95.5 -287.5t-238.5 -106.5q-72 0 -126 22.5
t-54 55.5z" />
    <glyph glyph-name="uni277B" unicode="&#x277b;" 
d="M965 1679q-178 0 -337.5 -67t-275 -181.5t-183 -274.5t-67.5 -339q0 -174 68 -333t183 -274t275 -183t337 -68q175 0 334 68t273.5 183t182.5 274t68 333q0 143 -43 275.5t-122.5 238t-185 184.5t-236.5 121.5t-271 42.5zM662 733q2 106 34 202.5t92 179t158 141
t223 79.5v-26q-89 -23 -160 -67t-118.5 -102.5t-77.5 -122.5t-47 -138h4q33 51 90.5 83.5t128.5 32.5q112 0 173 -92.5t61 -224.5q0 -69 -16.5 -133.5t-49 -119.5t-88 -88.5t-125.5 -33.5q-132 0 -208.5 121t-73.5 309zM750 717q-5 -166 48 -269.5t150 -103.5q91 0 139 85.5
t48 229.5q0 78 -16 141t-58.5 107.5t-106.5 44.5q-111 0 -196 -121q-8 -55 -8 -114z" />
    <glyph glyph-name="uni277C" unicode="&#x277c;" 
d="M965 1679q-178 0 -337.5 -67t-275 -181.5t-183 -274.5t-67.5 -339q0 -174 68 -333t183 -274t275 -183t337 -68q175 0 334 68t273.5 183t182.5 274t68 333q0 143 -43 275.5t-122.5 238t-185 184.5t-236.5 121.5t-271 42.5zM905 281l-59 14l295 907v4h-353q-58 0 -80.5 -26
t-43.5 -123l-25 6l35 156l12 57h545z" />
    <glyph glyph-name="uni277D" unicode="&#x277d;" 
d="M965 1679q-178 0 -337.5 -67t-275 -181.5t-183 -274.5t-67.5 -339q0 -174 68 -333t183 -274t275 -183t337 -68q175 0 334 68t273.5 183t182.5 274t68 333q0 143 -43 275.5t-122.5 238t-185 184.5t-236.5 121.5t-271 42.5zM702 541q0 88 55 164.5t156 152.5
q-97 79 -140.5 138.5t-43.5 129.5q0 91 67.5 150t172.5 59q104 0 165.5 -58.5t61.5 -143.5q0 -74 -41.5 -127t-140.5 -129q213 -160 213 -326q0 -110 -73.5 -179t-190.5 -69q-119 0 -190 69.5t-71 168.5zM807 1135q0 -53 37.5 -104t130.5 -124q88 68 119.5 117.5t31.5 110.5
q0 67 -43 113t-114 46q-73 0 -117.5 -44.5t-44.5 -114.5zM770 541q0 -79 55 -138t146 -59q82 0 130 53t48 146q0 75 -48 140.5t-147 145.5q-184 -149 -184 -288z" />
    <glyph glyph-name="uni277E" unicode="&#x277e;" 
d="M961 -41q178 0 337.5 67t274.5 181.5t182.5 274.5t67.5 339q0 174 -67.5 333t-182.5 274t-275 183t-337 68q-175 0 -334 -68t-274 -183t-183 -274t-68 -333q0 -179 68 -339t183 -274.5t274 -181.5t334 -67zM1264 905q-2 -105 -34 -201.5t-92.5 -179.5t-158.5 -141.5
t-223 -79.5v27q89 23 160.5 67t118.5 102.5t77.5 123t46.5 137.5h-4q-33 -50 -90.5 -82.5t-126.5 -32.5q-77 0 -131.5 45.5t-79.5 116t-25 156.5q0 68 17 132t49.5 118.5t88 88t124.5 33.5q133 0 209.5 -120.5t73.5 -309.5zM1176 922q5 166 -48.5 269t-150.5 103
q-91 0 -138.5 -85.5t-47.5 -229.5q0 -57 9.5 -107t29.5 -93t56 -68t85 -25q111 0 196 121q9 61 9 115z" />
    <glyph glyph-name="uni277F" unicode="&#x277f;" 
d="M965 1679q-178 0 -337.5 -67t-275 -181.5t-183 -274.5t-67.5 -339q0 -174 68 -333t183 -274t275 -183t337 -68q175 0 334 68t273.5 183t182.5 274t68 333q0 143 -43 275.5t-122.5 238t-185 184.5t-236.5 121.5t-271 42.5zM1147 303q-97 0 -165 70.5t-99 184.5t-31 261
t31 261t99 184.5t165 70.5q98 0 166.5 -70.5t99.5 -184.5t31 -261t-31 -261t-99.5 -184.5t-166.5 -70.5zM682 438q0 -58 16 -75t76 -17v-24h-266v24q62 0 78 17t16 75v727q0 33 -1.5 46t-12 19t-30 -2.5t-58.5 -29.5l-13 23l131 71l48 25l16 -12v-867zM1147 344
q54 0 94 36.5t64 102t35.5 149.5t11.5 187t-11.5 187t-35.5 149.5t-64 102t-94 36.5q-70 0 -116.5 -64.5t-66.5 -168t-20 -242.5t20 -242.5t66.5 -168t116.5 -64.5z" />
    <glyph glyph-name="i.loclTRK" horiz-adv-x="481" 
d="M209 1368q-39 0 -66.5 27.5t-27.5 66.5q0 38 28 66t66 28q40 0 68 -28t28 -66q0 -40 -28 -67t-68 -27zM307 197q0 -98 23 -126t110 -28v-43h-381v43q87 0 110.5 28.5t23.5 125.5v677v13v39t-1.5 29.5t-4 23t-7.5 13t-12 7t-19 -1.5t-26 -7l-35 -15l-18 39l213 98l24 -25
v-890z" />
    <glyph glyph-name="C_O" horiz-adv-x="2250" 
d="M80 819q0 180 43 337.5t121 273t193 182.5t253 67q72 0 137 -18.5t102 -41.5t70 -41.5t48 -18.5q21 0 28.5 18.5t7.5 81.5h43l31 -563h-43q-51 514 -407 514q-149 0 -262 -107t-170.5 -285t-57.5 -399q0 -220 57.5 -397.5t169.5 -283t261 -105.5q192 0 320.5 171.5
t162.5 457.5h43q-19 -157 -61.5 -283.5t-109 -221.5t-163.5 -146.5t-217 -51.5q-137 0 -251 66.5t-190 183t-117.5 273.5t-41.5 337zM1774 696q-165 0 -271 141t-106 351t106 350.5t271 140.5q166 0 271 -140.5t105 -350.5t-105 -351t-271 -141zM1812 768q90 7 146.5 67
t76 155t9.5 222q-10 124 -46 214t-103 140t-158 42q-89 -7 -146 -67.5t-77.5 -156t-8.5 -219.5q12 -126 47.5 -215.5t102 -139.5t157.5 -42zM1765 -41q-39 0 -66.5 27.5t-27.5 66.5q0 40 27.5 68.5t66.5 28.5q38 0 66.5 -28.5t28.5 -68.5q0 -38 -28.5 -66t-66.5 -28z" />
    <glyph glyph-name="L_L" horiz-adv-x="1867" 
d="M594 1638v-43q-76 0 -116.5 -5.5t-63.5 -25t-28 -45t-5 -77.5v-1249q0 -77 20 -100t86 -23h373q51 0 80 10.5t57.5 51t51 111.5t53.5 201l43 -10l-96 -399l-9 -35h-999v43q76 0 117 5.5t63.5 25.5t27.5 45.5t5 77.5v1245q0 52 -5 77.5t-28 45t-63.5 25t-116.5 5.5v43h553
zM1382 1638v-43q-73 0 -113 -5.5t-62 -25t-27.5 -45t-5.5 -77.5v-633q0 -72 18 -94.5t78 -22.5l262 -2q67 0 102 24t64.5 98.5t66.5 240.5l41 -9l-86 -387l-6 -34h-874v43q74 0 114 5.5t62.5 25t27.5 45t5 77.5v623q0 52 -5 77.5t-27.5 45t-62.5 25t-114 5.5v43h542z" />
    <glyph glyph-name="L_T_D" horiz-adv-x="2766" 
d="M594 1638v-43q-76 0 -116.5 -5.5t-63.5 -25t-28 -45t-5 -77.5v-1249q0 -77 20 -100t86 -23h373q51 0 80 10.5t57.5 51t51 111.5t53.5 201l43 -10l-96 -399l-9 -35h-999v43q76 0 117 5.5t63.5 25.5t27.5 45.5t5 77.5v1245q0 52 -5 77.5t-28 45t-63.5 25t-116.5 5.5v43h553
zM1212 1569q-41 0 -64.5 -4t-44 -15.5t-32 -37t-20 -62.5t-15.5 -98l-43 6l27 231l6 49h778l6 -49l27 -231l-43 -6q-7 61 -15.5 98t-20 62.5t-32 37t-44 15.5t-64.5 4h-156v-635q0 -52 4 -78t20 -45.5t44.5 -25t81.5 -5.5v-43h-395v43q53 0 81.5 5.5t44 25.5t19.5 45.5
t4 77.5v635h-154zM1917 737v43q53 0 81.5 5.5t44 25.5t19.5 45.5t4 77.5v508q0 52 -4 77.5t-19.5 45t-44 25t-81.5 5.5v43h367q187 0 295 -122t108 -328t-108 -328.5t-295 -122.5h-367zM2288 807q140 0 217.5 99.5t77.5 281.5q0 183 -77.5 282t-217.5 99q-76 0 -123 -21
v-721q44 -20 123 -20zM1847 -41q-40 0 -68 28t-28 66q0 40 28 68.5t68 28.5q38 0 66.5 -28.5t28.5 -68.5q0 -38 -28.5 -66t-66.5 -28z" />
    <glyph glyph-name="O_O" horiz-adv-x="2109" 
d="M1423 1679q183 0 323 -117t212 -311t72 -432t-72 -432t-212 -311t-323 -117q-211 0 -368 160q-154 -160 -369 -160q-137 0 -252 68t-192 184.5t-119.5 273.5t-42.5 334t42.5 334t119.5 273.5t192 184.5t252 68q216 0 369 -159q156 159 368 159zM1485 29
q146 13 247.5 127.5t143.5 298t22 407.5q-20 223 -93 396.5t-192.5 269.5t-264.5 84q-149 -15 -254 -135q95 -118 146.5 -289.5t51.5 -368.5q0 -179 -43 -336.5t-123 -275.5q150 -196 359 -178zM762 29q146 11 254 135q-95 119 -147 289t-52 366q0 179 43 337t123 276
q-72 94 -163 141.5t-195 38.5q-146 -14 -248.5 -129.5t-145 -299.5t-22.5 -407q21 -223 94.5 -396.5t193.5 -268.5t265 -82zM1024 1372q-123 -234 -92 -596q27 -306 153 -510q59 114 82.5 268t8.5 328q-27 306 -152 510z" />
    <glyph glyph-name="S_T" horiz-adv-x="1961" 
d="M123 -2v584h43q1 -125 34 -230.5t88.5 -175t127 -108.5t149.5 -39q135 0 214 82.5t79 218.5q0 29 -6.5 58.5t-15.5 55t-28 55t-33.5 51t-44 52t-48 49.5t-55.5 52t-56.5 49.5t-62.5 52.5t-62 53q-69 61 -102 91t-79 76t-66 75.5t-41.5 70.5t-29 81.5t-7.5 88.5
q0 156 103.5 247t267.5 91q62 0 116.5 -16t90 -38.5t62.5 -45.5t46.5 -39t30.5 -16q10 0 15 7t8 32.5t3 76.5h45v-475h-45q-2 194 -105 319.5t-261 125.5q-130 0 -196 -70t-66 -168q0 -44 16 -88t35.5 -76t60.5 -75.5t66 -66.5t79.5 -69.5t75.5 -64.5q185 -164 215 -193
q119 -116 158 -215q31 -78 31 -180q0 -90 -33 -164.5t-88.5 -121.5t-124.5 -73t-143 -26q-69 0 -127 16.5t-95 40t-65.5 47t-50.5 40t-37 16.5q-25 0 -34 -26.5t-9 -94.5h-43zM1280 1569q-51 0 -78 -6t-48.5 -29.5t-32 -64.5t-19.5 -117l-43 6l26 231l7 49h778l6 -49
l27 -231l-43 -6q-12 99 -30.5 144t-50 59t-98.5 14h-151v-635q0 -52 4 -77.5t19.5 -45.5t44 -25.5t81.5 -5.5v-43h-397v43q53 0 81.5 5.5t44.5 25t20 45.5t4 78v635h-152zM1481 -41q-38 0 -66.5 28t-28.5 66q0 40 28.5 68.5t66.5 28.5q39 0 66.5 -28.5t27.5 -68.5
q0 -39 -27.5 -66.5t-66.5 -27.5z" />
    <glyph glyph-name="s_t" horiz-adv-x="1376" 
d="M1292 451h43q0 -127 -9 -212.5t-32 -151.5t-65.5 -97t-106.5 -31q-108 0 -162.5 86.5t-54.5 282.5v673h-170v70q130 1 180 65t56 228q3 114 -52 179t-151 65q-109 0 -165 -75.5t-56 -213.5q0 -66 8.5 -127.5t30.5 -126.5t34 -97t45 -102t37 -80l-40 -20q-77 137 -116 185
q-80 98 -179 98q-68 0 -112 -42t-44 -100q0 -27 10 -54t21 -46t38 -47t42 -42t52.5 -46t51.5 -45q143 -127 176 -163q87 -91 102 -180q5 -26 5 -55q0 -123 -82.5 -196.5t-202.5 -73.5q-52 0 -97 13t-69 28t-46 28t-34 13q-18 0 -24.5 -14.5t-6.5 -46.5h-43v401h43
q4 -161 79.5 -261t191.5 -100q92 0 138 51.5t46 135.5q0 27 -5.5 51t-22 50t-28 42.5t-42.5 46.5t-45.5 43t-57.5 49t-59 50q-127 108 -165 151q-75 86 -75 182q0 105 71 172.5t183 67.5q128 0 209 -115l6 2q-92 146 -92 349q0 149 77 248.5t210 99.5q117 0 184.5 -83.5
t67.5 -248.5v-293h248v-70h-248v-598q0 -62 1 -101.5t5.5 -84t13 -71t23 -50t36.5 -33.5t52 -10q75 0 108.5 88.5t34.5 309.5z" />
    <glyph glyph-name="zero.dnom" horiz-adv-x="628" 
d="M303 -20q-97 0 -165 70.5t-99 184.5t-31 261t31 261t99 184.5t165 70.5q98 0 166.5 -70.5t99.5 -184.5t31 -261t-31 -261t-99.5 -184.5t-166.5 -70.5zM303 20q71 0 118 65t67 168.5t20 242.5q0 103 -11.5 187t-35.5 149.5t-64 102t-94 36.5q-70 0 -116.5 -64.5
t-66.5 -168t-20 -242.5q0 -103 11.5 -187.5t35.5 -150t63.5 -102t92.5 -36.5z" />
    <glyph glyph-name="one.dnom" horiz-adv-x="313" 
d="M193 117q0 -58 15.5 -74t76.5 -16v-27h-267v27q61 0 77 16t16 74v727q0 27 -1 38t-5.5 21.5t-16 8t-29.5 -10t-49 -24.5l-12 24l131 70l47 26l17 -14v-866z" />
    <glyph glyph-name="two.dnom" horiz-adv-x="665" 
d="M440 70q58 0 82.5 22t50.5 98l25 -8l-45 -131l-18 -51h-572v27q119 109 196 187t151.5 171t110.5 179t36 169q0 91 -43 148t-138 57q-114 0 -175.5 -81t-63.5 -216h-31q0 168 78 267.5t223 99.5q116 0 177 -70t61 -178q0 -287 -477 -686v-4h372z" />
    <glyph glyph-name="three.dnom" horiz-adv-x="555" 
d="M-8 59q0 17 12.5 26t32.5 9q14 0 26 -6t18 -11t19 -18q42 -39 111 -39q85 0 148 59.5t63 174.5q0 70 -22.5 121t-61.5 79t-84.5 41t-99.5 15v27q219 69 219 249q0 69 -40 115.5t-114 46.5q-149 0 -192 -155h-31q17 106 83.5 162.5t164.5 56.5q93 0 154 -59t61 -158
q0 -161 -193 -250v-2q111 -16 177.5 -85t66.5 -184q0 -130 -94 -212t-228 -82q-76 0 -136 22.5t-60 56.5z" />
    <glyph glyph-name="four.dnom" horiz-adv-x="630" 
d="M20 281v59l414 643h70v-643h110v-59h-110v-164q0 -58 15.5 -74t76.5 -16v-27h-264v27q61 0 76.5 16t15.5 74v164h-404zM78 340h346v551l-346 -547v-4z" />
    <glyph glyph-name="five.dnom" horiz-adv-x="550" 
d="M16 57q0 35 43 35q9 0 16 -2t13 -6.5t9.5 -8t10 -11.5t9.5 -11q33 -33 102 -33q38 0 75.5 20t70.5 58.5t53 104t20 147.5q0 137 -50 201.5t-138 64.5q-81 0 -139 -49l-41 27l92 393h344l-21 -69h-290l-70 -297l4 -5q68 56 158 56q113 0 178 -86.5t65 -212.5
q0 -181 -95 -287t-238 -106q-73 0 -127 22t-54 55z" />
    <glyph glyph-name="six.dnom" horiz-adv-x="600" 
d="M350 672q77 0 132 -46t80.5 -116.5t25.5 -155.5q0 -68 -17.5 -133t-50.5 -119.5t-88.5 -88t-124.5 -33.5q-135 0 -212.5 120t-74.5 310q2 105 34.5 202t93.5 179.5t159.5 141t224.5 79.5v-27q-91 -23 -162.5 -67.5t-118.5 -104t-75.5 -123.5t-44.5 -137h2q33 51 90.5 85
t126.5 34zM309 20q91 0 139 86t48 230q0 78 -16 141t-58 107.5t-105 44.5q-110 0 -194 -117q-10 -68 -10 -119q-5 -166 48 -269.5t148 -103.5z" />
    <glyph glyph-name="seven.dnom" horiz-adv-x="624" 
d="M256 -8l-59 12l295 907v4h-355q-57 0 -79.5 -25.5t-43.5 -121.5l-24 4l33 158l12 55h547z" />
    <glyph glyph-name="eight.dnom" horiz-adv-x="565" 
d="M336 553q211 -161 211 -326q0 -110 -74 -178.5t-190 -68.5q-123 0 -195 68.5t-72 168.5q0 87 57 161t163 154q-99 80 -145 140.5t-46 130.5q0 91 69 150t175 59t168.5 -58.5t62.5 -144.5q0 -75 -42.5 -127t-143.5 -127zM127 811q0 -53 38 -103t134 -126q86 67 118 118
t32 111q0 68 -43 114t-115 46q-73 0 -118.5 -45t-45.5 -115zM287 20q82 0 130 52.5t48 144.5q0 75 -49 142t-148 145q-180 -143 -180 -287q0 -80 54 -138.5t145 -58.5z" />
    <glyph glyph-name="nine.dnom" horiz-adv-x="600" 
d="M295 1012q134 0 212 -120.5t73 -309.5q-2 -105 -34.5 -202t-93.5 -179.5t-159.5 -141t-224.5 -79.5v26q91 23 163 67.5t118.5 104t76 123.5t45.5 137h-4q-33 -51 -89.5 -83.5t-127.5 -32.5q-114 0 -175 91.5t-61 223.5q0 68 17 133t50 120t88.5 88.5t125.5 33.5zM489 598
q3 167 -49.5 270t-148.5 103q-90 0 -137.5 -86t-47.5 -230q0 -78 15.5 -140.5t57.5 -107.5t106 -45q110 0 194 119q6 40 10 117z" />
    <glyph glyph-name="zero.numr" horiz-adv-x="628" 
d="M303 647q-97 0 -165 70.5t-99 184.5t-31 261t31 261t99 184.5t165 70.5q98 0 166.5 -70.5t99.5 -184.5t31 -261t-31 -261t-99.5 -184.5t-166.5 -70.5zM303 688q54 0 94 36.5t64 102t35.5 149.5t11.5 187t-11.5 187t-35.5 149.5t-64 102t-94 36.5q-70 0 -116.5 -64.5
t-66.5 -168t-20 -242.5t20 -242.5t66.5 -168t116.5 -64.5z" />
    <glyph glyph-name="one.numr" horiz-adv-x="313" 
d="M193 788q0 -58 15.5 -74t76.5 -16v-26h-267v26q61 0 77 16t16 74v728q0 20 -0.5 29t-2 20t-6 13t-11 4t-18 -3t-26 -12t-37.5 -19l-12 25l131 69l47 27l17 -14v-867z" />
    </font>
</defs>
</svg>
