<?xml version="1.0" standalone="no"?>
<!DOCTYPE svg PUBLIC "-//W3C//DTD SVG 1.1//EN" "http://www.w3.org/Graphics/SVG/1.1/DTD/svg11.dtd" >
<svg xmlns="http://www.w3.org/2000/svg" xmlns:xlink="http://www.w3.org/1999/xlink" version="1.1">
<metadata>
Created by FontForge 20170731 at Thu Jul 22 10:07:57 2021
 By Aleksey,,,
Copyright (c) 2019 by Mathieu Desjardins. All rights reserved.
</metadata>
<defs>
<font id="EditorialNew-Medium" horiz-adv-x="1925" >
  <font-face 
    font-family="Editorial New Medium"
    font-weight="500"
    font-stretch="normal"
    units-per-em="2048"
    panose-1="0 0 6 0 0 0 0 0 0 0"
    ascent="1638"
    descent="-410"
    x-height="1085"
    cap-height="1638"
    bbox="-799 -639 2990 2243"
    underline-thickness="81"
    underline-position="-265"
    unicode-range="U+0020-277F"
  />
<missing-glyph horiz-adv-x="1146" 
d="M940 1679v-2293h-727v2293h727zM764 1526h-379v-76h150v-84h-152v-76h381v76h-152v84h152v76zM612 1229h-229v-238h381v78h-152v160zM535 1151v-82h-76v82h76zM764 930h-381v-76h152v-86h-152v-76h229v162h152v76zM764 793h-76v-152h-305v-78h381v230zM764 512h-229v-129
h77v53h76v-108h-229v184h-76v-260h381v260zM764 115h-381v-258h381v258zM688 39v-107h-229v107h229zM764 -197h-381v-75h160l-160 -109v-76h381v76h-234l160 109h74v75z" />
    <glyph glyph-name="f_f" unicode="ff" horiz-adv-x="1318" 
d="M1219 1679q122 0 218.5 -66.5t96.5 -160.5q0 -61 -36 -93t-91 -32q-115 0 -129 121q-2 22 -3.5 36t-8 36t-16 34.5t-27.5 22.5t-43 10q-81 0 -109.5 -73.5t-28.5 -231.5v-197h203v-92h-203v-774q0 -71 15.5 -104.5t59 -48.5t134.5 -15v-51h-589v51q94 0 121.5 32.5
t27.5 135.5v774h-369v-774q0 -71 15.5 -104.5t59 -48.5t134.5 -15v-51h-590v51q94 0 122 32.5t28 135.5v774h-150v92h150v54q0 253 100.5 376t270.5 123q114 0 188.5 -45.5t95.5 -117.5q52 104 144 154t209 50zM811 1085v105q0 65 10 137q-20 -10 -47 -10q-97 0 -106 100
l-3 37.5t-6.5 33.5t-14 31t-25 18.5t-39.5 8.5q-79 0 -108.5 -77t-29.5 -228v-156h369z" />
    <glyph glyph-name="f_f_i" unicode="ffi" horiz-adv-x="1888" 
d="M1698 219q0 -103 27.5 -135.5t121.5 -32.5v-51h-530v51q94 0 121.5 32.5t27.5 135.5v615q0 33 -1 49t-6.5 41.5t-17.5 37.5t-35.5 21.5t-57.5 9.5h-306v-774q0 -71 15.5 -104.5t59 -48.5t134.5 -15v-51h-589v51q94 0 121.5 32.5t27.5 135.5v774h-367v-774
q0 -71 15.5 -104.5t59 -48.5t134.5 -15v-51h-592v51q94 0 122 32.5t28 135.5v774h-150v92h150v54q0 253 100.5 376t272.5 123q114 0 188.5 -45.5t95.5 -119.5q52 105 143.5 155.5t209.5 50.5q122 0 217.5 -66.5t95.5 -160.5q0 -61 -35.5 -93t-89.5 -32q-117 0 -131 121
q-2 22 -3.5 36t-8 36t-16 34.5t-27.5 22.5t-43 10q-80 0 -109 -74t-29 -231v-197h353q135 0 272 41l31 -30v-877zM811 1085v105q0 67 10 135q-24 -8 -47 -8q-95 0 -104 100q-7 71 -20 94q-20 35 -70 35q-41 0 -68 -21.5t-41.5 -64t-20.5 -94.5t-6 -125v-156h367z" />
    <glyph glyph-name="f_i" unicode="fi" horiz-adv-x="1288" 
d="M1098 219q0 -103 27.5 -135.5t121.5 -32.5v-51h-530v51q94 0 121.5 32.5t27.5 135.5v615q0 33 -1 49t-6.5 41.5t-17.5 37.5t-35.5 21.5t-57.5 9.5h-306v-774q0 -71 15.5 -104.5t59 -48.5t134.5 -15v-51h-590v51q94 0 122 32.5t28 135.5v774h-150v92h150v105
q0 103 21.5 186t58.5 138.5t89.5 93t112 54.5t128.5 17q122 0 217.5 -66.5t95.5 -160.5q0 -61 -35.5 -93t-89.5 -32q-117 0 -131 121q-2 22 -3.5 36t-8 36t-16 34.5t-27.5 22.5t-43 10q-80 0 -109 -74t-29 -231v-197h353q135 0 272 41l31 -30v-877z" />
    <glyph glyph-name="f_l" unicode="fl" horiz-adv-x="1288" 
d="M1098 219q0 -103 27.5 -135.5t121.5 -32.5v-51h-530v51q94 0 121.5 32.5t27.5 135.5v1118q-27 -10 -57 -10q-117 0 -131 121q-2 22 -3.5 36t-8 36t-16 34.5t-27.5 22.5t-43 10q-80 0 -109 -74t-29 -231v-197h203v-92h-203v-774q0 -71 15.5 -104.5t59 -48.5t134.5 -15v-51
h-590v51q94 0 122 32.5t28 135.5v774h-150v92h150v105q0 103 21.5 186t58.5 138.5t89.5 93t112 54.5t128.5 17q101 0 188.5 -49t114.5 -123l143 131l31 -30v-1389z" />
    <glyph glyph-name=".notdef" horiz-adv-x="1146" 
d="M940 1679v-2293h-727v2293h727zM764 1526h-379v-76h150v-84h-152v-76h381v76h-152v84h152v76zM612 1229h-229v-238h381v78h-152v160zM535 1151v-82h-76v82h76zM764 930h-381v-76h152v-86h-152v-76h229v162h152v76zM764 793h-76v-152h-305v-78h381v230zM764 512h-229v-129
h77v53h76v-108h-229v184h-76v-260h381v260zM764 115h-381v-258h381v258zM688 39v-107h-229v107h229zM764 -197h-381v-75h160l-160 -109v-76h381v76h-234l160 109h74v75z" />
    <glyph glyph-name=".null" horiz-adv-x="0" 
 />
    <glyph glyph-name="nonmarkingreturn" horiz-adv-x="682" 
 />
    <glyph glyph-name="space" unicode=" " horiz-adv-x="430" 
 />
    <glyph glyph-name="exclam" unicode="!" horiz-adv-x="481" 
d="M113 1497q0 182 129 182q127 0 127 -182q0 -96 -24 -257t-49 -380.5t-28 -449.5h-51q-3 230 -29 449.5t-50.5 380.5t-24.5 257zM242 -41q-56 0 -94.5 38.5t-38.5 94.5t38.5 94.5t94.5 38.5t94.5 -38.5t38.5 -94.5t-38.5 -94.5t-94.5 -38.5z" />
    <glyph glyph-name="quotedbl" unicode="&#x22;" horiz-adv-x="727" 
d="M102 1561q0 58 26 88t73 30q46 0 71 -30t25 -88q0 -69 -30 -226t-40 -229h-51q-11 81 -42.5 234.5t-31.5 220.5zM430 1561q0 58 26 88t72 30t71.5 -30t25.5 -88q0 -69 -30 -226t-40 -229h-51q-11 81 -42.5 234.5t-31.5 220.5z" />
    <glyph glyph-name="numbersign" unicode="#" horiz-adv-x="1769" 
d="M1647 1077h-304l-141 -495h301v-164h-348l-133 -459h-166l133 459h-438l-133 -459h-166l133 459h-262v164h309l141 495h-307v164h355l127 438h165l-127 -438h439l127 438h166l-127 -438h256v-164zM1036 582l142 495h-439l-141 -495h438z" />
    <glyph glyph-name="dollar" unicode="$" horiz-adv-x="1116" 
d="M1014 401q0 -104 -34 -188t-92 -137.5t-133 -83.5t-161 -33v-164h-72v166q-228 10 -418 125v403h52q0 -423 366 -438v596l-94 76q-182 145 -248.5 254.5t-66.5 251.5q0 115 55.5 200t146.5 126.5t205 41.5h2v144h72v-148q187 -17 340 -135v-293h-51q0 318 -289 338v-512
q6 -4 17.5 -13t17.5 -13q65 -51 99 -78.5t82.5 -70.5t73 -72.5t54 -71.5t43.5 -80.5t23.5 -87t9.5 -103.5zM317 1325q0 -75 48 -136t157 -145v461q-98 -7 -151.5 -57.5t-53.5 -122.5zM594 53q106 12 160.5 74t54.5 154q0 76 -52.5 145t-162.5 162v-535z" />
    <glyph glyph-name="percent" unicode="%" horiz-adv-x="1636" 
d="M401 834q-124 0 -211.5 122t-87.5 299q0 179 87.5 301.5t211.5 122.5q122 0 208.5 -122.5t86.5 -301.5q0 -177 -86.5 -299t-208.5 -122zM1280 1638h96l-1018 -1638h-96zM401 895q121 0 121 360q0 363 -121 363q-125 0 -125 -363q0 -360 125 -360zM1239 -41
q-124 0 -211.5 122.5t-87.5 299.5q0 179 87.5 301.5t211.5 122.5q122 0 208.5 -122.5t86.5 -301.5q0 -177 -86.5 -299.5t-208.5 -122.5zM1239 20q121 0 121 361q0 362 -121 362q-125 0 -125 -362q0 -361 125 -361z" />
    <glyph glyph-name="ampersand" unicode="&#x26;" horiz-adv-x="1677" 
d="M1524 385h51q-12 -87 -35 -159.5t-61.5 -134.5t-99 -97t-138.5 -35q-137 0 -266 129q-161 -129 -404 -129q-98 0 -181.5 23t-148.5 68.5t-102 120t-37 169.5q0 67 20 128.5t51 111t84 102t104.5 93.5t125.5 93q-116 262 -116 437q0 97 34.5 173.5t93.5 124t135 72.5
t163 25q158 0 238.5 -81t80.5 -206q0 -127 -89.5 -237t-260.5 -234l-25 -18q55 -122 140 -269q99 -167 196 -301q89 159 152 385q27 98 7.5 130t-120.5 32v51h440v-51q-114 0 -161.5 -32t-75.5 -128q-81 -299 -180 -460q114 -127 202 -127q68 0 113 57.5t70 173.5zM825 1608
q-100 0 -154.5 -74t-54.5 -178q0 -131 86 -342q161 115 226 205.5t65 191.5q0 82 -41.5 139.5t-126.5 57.5zM657 51q144 0 263 101q-93 113 -271 413q-26 43 -104 187q-156 -170 -156 -381q0 -144 72 -232t196 -88z" />
    <glyph glyph-name="quotesingle" unicode="'" horiz-adv-x="419" 
d="M113 1561q0 58 26 88t72 30t71 -30t25 -88q0 -69 -29.5 -227.5t-39.5 -227.5h-52q-11 79 -42 233t-31 222z" />
    <glyph glyph-name="parenleft" unicode="(" horiz-adv-x="833" 
d="M772 -563v-51q-110 67 -206 148t-182.5 188t-148 227.5t-97.5 270.5t-36 312q0 205 50.5 389t139.5 326.5t201 250.5t244 181v-51q-177 -162 -262.5 -452.5t-85.5 -643.5q0 -327 97 -622t286 -473z" />
    <glyph glyph-name="parenright" unicode=")" horiz-adv-x="833" 
d="M61 -563q189 178 286 473t97 622q0 353 -85.5 643.5t-262.5 452.5v51q132 -73 244 -181t201 -250.5t139.5 -326.5t50.5 -389q0 -162 -36 -312t-97.5 -270.5t-148 -227.5t-182.5 -188t-206 -148v51z" />
    <glyph glyph-name="asterisk" unicode="*" horiz-adv-x="976" 
d="M819 1171q41 -24 52 -64t-9 -73q-21 -34 -59 -44.5t-80 11.5q-28 16 -52 43.5t-40.5 53t-49 59.5t-75.5 62q3 -64 23.5 -117.5t38.5 -95.5t18 -82q0 -48 -28.5 -76.5t-68.5 -28.5t-69 28.5t-29 76.5q0 40 19 82t40.5 96t24.5 119q-44 -28 -77.5 -62.5t-50 -60t-40 -53
t-51.5 -44.5q-44 -22 -81.5 -11.5t-57.5 44.5q-21 33 -10 73t51 64q35 20 81.5 25t103.5 13.5t114 37.5q-58 31 -115 41t-103 15.5t-81 25.5q-40 24 -51 63.5t10 71.5q20 35 57.5 45.5t81.5 -12.5q28 -17 51.5 -45t39.5 -54t49.5 -61t78.5 -63q-3 66 -24.5 121.5t-40.5 98.5
t-19 83q0 46 29 74t69 28t68.5 -28t28.5 -74q0 -40 -18 -82.5t-38.5 -97t-23.5 -119.5q43 28 76 62t49.5 60t40 53.5t51.5 43.5q42 23 80 12.5t59 -45.5q20 -31 9 -71t-52 -64q-34 -20 -79.5 -25.5t-102.5 -15.5t-115 -41q58 -29 115 -37.5t102.5 -13.5t79.5 -25z" />
    <glyph glyph-name="plus" unicode="+" horiz-adv-x="1064" 
d="M102 467v174h347v342h174v-342h340v-174h-340v-344h-174v344h-347z" />
    <glyph glyph-name="comma" unicode="," horiz-adv-x="507" 
d="M213 -41q-51 0 -81 37.5t-30 93.5q0 59 40.5 97t101.5 38q70 0 116 -54t46 -146q0 -273 -293 -404v51q88 40 148.5 109.5t60.5 157.5q0 51 -23 51q-5 0 -30.5 -15.5t-55.5 -15.5z" />
    <glyph glyph-name="hyphen" unicode="-" horiz-adv-x="942" 
d="M102 467v174h738v-174h-738z" />
    <glyph glyph-name="period" unicode="." horiz-adv-x="471" 
d="M236 -41q-56 0 -95 39t-39 94t39 94t95 39t94.5 -38.5t38.5 -94.5t-38.5 -94.5t-94.5 -38.5z" />
    <glyph glyph-name="slash" unicode="/" horiz-adv-x="702" 
d="M537 1679h165l-536 -1679h-166z" />
    <glyph glyph-name="zero" unicode="0" horiz-adv-x="1265" 
d="M633 -41q-168 0 -290 117t-181.5 309t-59.5 434t59.5 434t181.5 309t290 117q126 0 228 -67.5t167.5 -185t100 -272.5t34.5 -335t-34.5 -335t-100 -272.5t-167.5 -185t-228 -67.5zM633 51q244 0 244 768t-244 768t-244 -768t244 -768z" />
    <glyph glyph-name="one" unicode="1" horiz-adv-x="765" 
d="M514 219q0 -103 28 -135.5t122 -32.5v-51h-551v51q94 0 121.5 32.5t27.5 135.5v1118q0 29 -0.5 45.5t-3 34.5t-6.5 25.5t-12.5 14.5t-20 5.5t-29.5 -6.5t-39.5 -15t-52.5 -26l-24 47l213 107l196 100l31 -31v-1419z" />
    <glyph glyph-name="two" unicode="2" horiz-adv-x="1103" 
d="M774 215q100 0 147 41t87 160l49 -17l-74 -209l-65 -190h-898v51q97 102 165 176t146 164.5t130 160.5t103.5 151t81.5 150t48.5 143.5t18.5 144.5q0 152 -65 237.5t-195 85.5q-150 0 -236 -109t-98 -302h-51q0 285 143 455.5t381 170.5q184 0 285.5 -111.5t101.5 -289.5
q0 -106 -41.5 -222.5t-105.5 -219t-161 -217.5t-186 -204.5t-202 -193.5v-6h491z" />
    <glyph glyph-name="three" unicode="3" horiz-adv-x="1079" 
d="M61 133q0 43 33 67.5t86 24.5q51 0 81.5 -22t55.5 -62q32 -45 66 -67.5t96 -22.5q104 0 178 97t74 260q0 111 -28 192t-82 131t-122.5 78t-158.5 39v51q135 47 209 140t74 229q0 105 -56.5 171t-160.5 66q-106 0 -176 -59.5t-95 -163.5h-51q25 185 138.5 291t293.5 106
q163 0 268 -97.5t105 -270.5q0 -134 -79.5 -230.5t-221.5 -154.5v-6q184 -21 296.5 -137.5t112.5 -313.5q0 -116 -46 -213.5t-123 -161.5t-177 -99.5t-209 -35.5q-68 0 -134 11t-122 31.5t-90.5 54.5t-34.5 77z" />
    <glyph glyph-name="four" unicode="4" horiz-adv-x="1196" 
d="M82 438v205l641 995h190v-995h191v-205h-191v-219q0 -103 28 -135.5t122 -32.5v-51h-551v51q94 0 122 32.5t28 135.5v219h-580zM193 643h469v760l-469 -754v-6z" />
    <glyph glyph-name="five" unicode="5" horiz-adv-x="1056" 
d="M41 125q0 46 28.5 70t75.5 24q35 0 63.5 -16t43 -33t35.5 -49q23 -34 53 -52t82 -18q98 0 172 136t74 374q0 453 -256 453q-121 0 -207 -92l-74 51l156 665h645l-51 -215h-514l-95 -368l9 -6q108 77 249 77q83 0 159 -35t135 -99t94.5 -162t35.5 -216q0 -132 -31.5 -242
t-85.5 -185.5t-127 -127.5t-154.5 -76t-170.5 -24q-147 0 -245.5 44.5t-98.5 121.5z" />
    <glyph glyph-name="six" unicode="6" horiz-adv-x="1212" 
d="M735 1126q125 0 216 -72t135 -190t44 -266q0 -96 -19.5 -187.5t-60 -173.5t-98.5 -144t-140.5 -98t-180.5 -36q-166 0 -286.5 90.5t-182.5 253.5t-60 381q2 188 62 352t172.5 295t285.5 221.5t392 126.5v-51q-478 -114 -592 -653h2q55 68 135 109.5t176 41.5zM631 51
q110 0 161.5 121t51.5 375q0 487 -215 487q-117 0 -219 -137q-21 -144 -21 -262q-3 -271 60.5 -427.5t181.5 -156.5z" />
    <glyph glyph-name="seven" unicode="7" horiz-adv-x="1116" 
d="M506 -29l-168 47l438 1399v6h-483q-96 0 -141 -46t-74 -181l-49 10l49 238l41 194h915z" />
    <glyph glyph-name="eight" unicode="8" horiz-adv-x="1112" 
d="M690 924q78 -68 134 -127t102.5 -126.5t70 -140.5t23.5 -151q0 -190 -133 -305t-336 -115q-209 0 -339 113t-130 284q0 60 17.5 116.5t44 101.5t72.5 94t87 85t103 85q-73 66 -120.5 116t-87 107.5t-57.5 117t-18 126.5q0 167 125.5 270.5t312.5 103.5q191 0 304.5 -99
t113.5 -249q0 -54 -16.5 -103.5t-39 -85.5t-66 -78.5t-76 -69t-91.5 -70.5zM571 1587q-95 0 -154 -63.5t-59 -163.5q0 -84 55 -162.5t187 -196.5q96 92 137 173t41 174q0 103 -57 171t-150 68zM557 51q105 0 166 72.5t61 198.5q0 65 -19.5 121t-64 111.5t-88 98
t-120.5 107.5q-105 -100 -157 -197.5t-52 -208.5q0 -127 70.5 -215t203.5 -88z" />
    <glyph glyph-name="nine" unicode="9" horiz-adv-x="1212" 
d="M582 1679q249 0 390 -197t138 -528q-1 -149 -38.5 -284t-112.5 -251.5t-182.5 -208.5t-254.5 -156.5t-323 -94.5v51q478 116 592 656q-57 -69 -137 -111.5t-177 -42.5q-124 0 -215 72t-135.5 190t-44.5 266q0 96 19.5 187.5t60.5 173.5t98.5 144t140.5 98t181 36z
M823 1004q3 271 -59 427t-180 156q-110 0 -162.5 -120.5t-52.5 -374.5q0 -488 215 -488q116 0 219 135q16 112 20 265z" />
    <glyph glyph-name="colon" unicode=":" horiz-adv-x="471" 
d="M236 850q-56 0 -95 39t-39 94t39 94t95 39t94.5 -39t38.5 -94t-38.5 -94t-94.5 -39zM236 -41q-56 0 -95 39t-39 94t39 94t95 39t94.5 -38.5t38.5 -94.5t-38.5 -94.5t-94.5 -38.5z" />
    <glyph glyph-name="semicolon" unicode=";" horiz-adv-x="507" 
d="M254 850q-56 0 -94.5 39t-38.5 94t38.5 94t94.5 39t94.5 -39t38.5 -94t-38.5 -94t-94.5 -39zM213 -41q-51 0 -81 37.5t-30 93.5q0 59 40.5 97t101.5 38q70 0 116 -54t46 -146q0 -273 -293 -404v51q88 40 148.5 109.5t60.5 157.5q0 51 -23 51q-5 0 -30.5 -15.5
t-55.5 -15.5z" />
    <glyph glyph-name="less" unicode="&#x3c;" horiz-adv-x="983" 
d="M881 193l-799 237v256l799 238v-183l-654 -180v-6l654 -180v-182z" />
    <glyph glyph-name="equal" unicode="=" horiz-adv-x="942" 
d="M102 662v174h738v-174h-738zM102 272v174h738v-174h-738z" />
    <glyph glyph-name="greater" unicode="&#x3e;" horiz-adv-x="1003" 
d="M102 193v182l654 180v6l-654 180v183l799 -238v-256z" />
    <glyph glyph-name="question" unicode="?" horiz-adv-x="1028" 
d="M659 1366q0 104 -46 162.5t-130 58.5q-73 0 -114 -44t-41 -111q0 -45 23.5 -91.5t23.5 -80.5q0 -53 -37 -80t-90 -27q-65 0 -105.5 54t-40.5 143q0 136 113.5 232.5t294.5 96.5q185 0 300.5 -85t115.5 -228q0 -72 -24 -133.5t-62 -110t-84 -97t-92 -106t-84 -125
t-62 -166.5t-24 -218h-52q0 184 22.5 323t54 218t63.5 141t54.5 129t22.5 145zM471 -41q-55 0 -94 38.5t-39 94.5t39 94.5t94 38.5t94 -38.5t39 -94.5t-39 -94.5t-94 -38.5z" />
    <glyph glyph-name="at" unicode="@" horiz-adv-x="2234" 
d="M127 690q39 204 141 375t243 286t314.5 178.5t356.5 63.5q115 0 218 -23t184 -64.5t151 -99.5t118 -128t85 -150t52.5 -165.5t19.5 -174t-13 -176.5q-25 -153 -86 -278.5t-142 -206t-175.5 -124.5t-190.5 -44q-60 0 -103 14.5t-64 37.5t-33 52t-10 58.5t5 56.5l6 33h-8
q-89 -132 -169 -192t-193 -60q-109 0 -180 75t-85.5 199t27.5 285q71 259 232.5 423.5t334.5 164.5q158 0 201 -158h4l35 152l176 8l-184 -825q-28 -106 -14 -169t87 -63q62 0 129.5 34.5t133 100t118 177t76.5 249.5q16 78 12.5 159t-16 159.5t-45 153t-75.5 140
t-106.5 120.5t-138 94.5t-170.5 61.5t-204 22q-182 0 -342.5 -62.5t-281.5 -173.5t-206 -263.5t-123 -332.5q-37 -166 -29 -315.5t49 -277t119.5 -230t182.5 -174.5t238.5 -111t287.5 -39t288 32.5t239 87.5t192.5 134t151.5 166.5t112 190.5h72q-62 -143 -156 -263
t-223 -215.5t-302.5 -149.5t-373.5 -54q-167 0 -314.5 42t-262 119t-202 186.5t-134.5 244.5t-59.5 293.5t22.5 332.5zM774 557q-24 -97 -26 -180t17 -144.5t63 -96t110 -34.5q195 0 313 277l60 285q37 163 -1 256.5t-139 93.5q-71 0 -135.5 -38t-114 -102.5t-86.5 -145
t-61 -171.5z" />
    <glyph glyph-name="A" unicode="A" horiz-adv-x="1562" 
d="M1323 209q32 -95 77 -126.5t142 -31.5v-51h-684v51q93 0 131.5 14.5t40.5 49.5t-20 94l-92 280h-500l-90 -280q-22 -59 -19 -94t42 -49.5t132 -14.5v-51h-463v51q97 0 141.5 31.5t76.5 126.5l471 1477h122zM446 582h441l-221 671h-7z" />
    <glyph glyph-name="B" unicode="B" horiz-adv-x="1394" 
d="M41 0v51q94 0 141.5 17t63.5 50.5t16 100.5v1200q0 67 -16 100.5t-63.5 50.5t-141.5 17v51h709q246 0 385 -102t139 -307q0 -165 -95.5 -264.5t-263.5 -118.5v-6q198 -12 313 -125t115 -289q0 -117 -46.5 -201.5t-132.5 -132.5t-193 -70t-242 -22h-688zM545 897
q61 -10 143 -10q129 0 214 85t85 251q0 161 -84.5 242t-214.5 81q-82 0 -143 -20v-629zM545 113q77 -21 143 -21q57 0 107.5 9.5t99.5 34t84 62.5t56.5 99.5t21.5 140.5q0 81 -23.5 144.5t-60 102.5t-86.5 64.5t-99 35.5t-100 10q-76 0 -143 -11v-671z" />
    <glyph glyph-name="C" unicode="C" horiz-adv-x="1425" 
d="M72 819q0 250 89.5 445.5t253.5 305t376 109.5q78 0 150 -17.5t113 -38.5t77 -38.5t51 -17.5q22 0 30.5 17.5t8.5 74.5h51l31 -563h-52q-49 491 -399 491q-150 0 -258 -101.5t-161.5 -273t-53.5 -393.5q0 -220 53 -387.5t159 -263.5t251 -96q191 0 321 155t170 435h51
q-22 -158 -68 -283.5t-118 -221t-178 -147t-240 -51.5q-159 0 -291.5 64t-224 177t-142 272.5t-50.5 346.5z" />
    <glyph glyph-name="D" unicode="D" horiz-adv-x="1634" 
d="M41 0v51q94 0 141.5 17t63.5 50.5t16 100.5v1200q0 67 -16 100.5t-63.5 50.5t-141.5 17v51h709q132 0 250 -28.5t222 -92t179 -157.5t118.5 -232.5t43.5 -308.5q0 -169 -45 -308t-121.5 -232.5t-181 -157.5t-221 -92.5t-244.5 -28.5h-709zM750 92q247 0 376 191t129 536
t-129 536t-376 191q-127 0 -205 -37v-1380q78 -37 205 -37z" />
    <glyph glyph-name="E" unicode="E" horiz-adv-x="1335" 
d="M1171 1638l9 -63l41 -336l-52 -6q-17 132 -41 198.5t-60.5 90.5t-102.5 24h-420v-639h243q67 0 100.5 17.5t50.5 69.5t17 155h52v-264l-2 -49l2 -265h-52q0 103 -17 155.5t-51 70.5t-100 18h-243v-606q0 -72 18 -94.5t78 -22.5h352q65 0 107.5 30t81.5 111t82 236l49 -14
l-111 -396l-16 -59h-1145v51q94 0 141.5 17t63.5 50.5t16 100.5v1200q0 67 -16 100.5t-63.5 50.5t-141.5 17v51h1130z" />
    <glyph glyph-name="F" unicode="F" horiz-adv-x="1341" 
d="M1284 1638l6 -63l29 -338l-51 -4q-12 131 -34.5 198.5t-58.5 91t-102 23.5h-528v-694h289q67 0 100.5 17.5t50 69.5t16.5 155h52v-578h-52q0 104 -16.5 156t-50.5 70t-100 18h-289v-541q0 -67 16 -100.5t63.5 -50.5t141.5 -17v-51h-725v51q94 0 141.5 17t63.5 50.5
t16 100.5v1200q0 67 -16 100.5t-63.5 50.5t-141.5 17v51h1243z" />
    <glyph glyph-name="G" unicode="G" horiz-adv-x="1646" 
d="M72 809q0 183 54.5 342.5t153 276t244 184t318.5 67.5q91 0 169 -16t119.5 -35t76.5 -35t50 -16q21 0 28 15.5t7 66.5h51l31 -563h-51q-27 250 -132 370.5t-304 120.5q-130 0 -229 -59.5t-159 -166t-90 -245.5t-30 -307q0 -758 493 -758q169 0 287 107v481
q0 67 -26 100.5t-104.5 50.5t-233.5 17v51h800v-51q-94 0 -121.5 -32.5t-27.5 -135.5v-455q-233 -225 -584 -225q-181 0 -330.5 64.5t-249.5 178t-155 269.5t-55 338z" />
    <glyph glyph-name="H" unicode="H" horiz-adv-x="1679" 
d="M1638 1587q-94 0 -141.5 -17t-63.5 -50.5t-16 -100.5v-1200q0 -67 16 -100.5t63.5 -50.5t141.5 -17v-51h-725v51q94 0 141.5 17t64 51t16.5 100v600h-590v-600q0 -67 16 -100.5t63.5 -50.5t141.5 -17v-51h-725v51q94 0 141.5 17t63.5 50.5t16 100.5v1200q0 67 -16 100.5
t-63.5 50.5t-141.5 17v51h725v-51q-94 0 -141.5 -17t-63.5 -50.5t-16 -100.5v-508h590v508q0 66 -16.5 100t-64 51t-141.5 17v51h725v-51z" />
    <glyph glyph-name="I" unicode="I" horiz-adv-x="806" 
d="M262 1419q0 67 -16 100.5t-63.5 50.5t-141.5 17v51h725v-51q-94 0 -141.5 -17t-63.5 -50.5t-16 -100.5v-1200q0 -67 16 -100.5t63.5 -50.5t141.5 -17v-51h-725v51q94 0 141.5 17t63.5 50.5t16 100.5v1200z" />
    <glyph glyph-name="J" unicode="J" horiz-adv-x="991" 
d="M446 387v1032q0 67 -16 100.5t-63.5 50.5t-141.5 17v51h725v-51q-94 0 -141.5 -17t-63.5 -50.5t-16 -100.5v-917q0 -121 -17 -214t-48 -154.5t-77.5 -101t-101.5 -56.5t-123 -17q-161 0 -241 65.5t-80 172.5q0 62 35.5 93.5t87.5 31.5t87.5 -27.5t35.5 -83.5
q0 -14 -1.5 -38t-2 -38t2 -32t8 -28t18.5 -17t32 -7q61 0 81.5 75.5t20.5 260.5z" />
    <glyph glyph-name="K" unicode="K" horiz-adv-x="1728" 
d="M252 1419q0 67 -16 100.5t-63.5 50.5t-141.5 17v51h725v-51q-94 0 -141.5 -17t-63.5 -50.5t-16 -100.5v-1200q0 -67 16 -100.5t63.5 -50.5t141.5 -17v-51h-725v51q94 0 141.5 17t63.5 50.5t16 100.5v1200zM1415 182q54 -80 112.5 -105.5t160.5 -25.5v-51h-687v51
q116 0 126 21t-49 98q-5 7 -7 10l-475 682l532 611q74 77 68 95.5t-133 18.5v51h477v-51q-106 0 -168.5 -21.5t-124.5 -92.5l-391 -459z" />
    <glyph glyph-name="L" unicode="L" horiz-adv-x="1304" 
d="M766 1638v-51q-94 0 -141.5 -17t-63.5 -50.5t-16 -100.5v-1183q0 -91 26 -117.5t111 -26.5h279q65 0 107 31t79.5 115t79.5 247l49 -12l-107 -416l-14 -57h-1114v51q94 0 141.5 17t63.5 50.5t16 100.5v1200q0 67 -16 100.5t-63.5 50.5t-141.5 17v51h725z" />
    <glyph glyph-name="M" unicode="M" horiz-adv-x="1996" 
d="M1006 440h6l379 1198h565v-51q-94 0 -141.5 -17t-63.5 -50.5t-16 -100.5v-1200q0 -67 16 -100.5t63.5 -50.5t141.5 -17v-51h-725v51q94 0 141.5 17t63.5 50.5t16 100.5v1301h-6l-483 -1567h-123l-484 1546h-6l4 -1280q0 -67 16 -100.5t63.5 -50.5t141.5 -17v-51h-534v51
q94 0 141.5 17t63.5 50.5t16 100.5v1200q0 67 -16 100.5t-63.5 50.5t-141.5 17v51h582z" />
    <glyph glyph-name="N" unicode="N" horiz-adv-x="1609" 
d="M1569 1638v-51q-94 0 -141.5 -17t-63.5 -50.5t-16 -100.5v-1466h-123l-871 1419v-1153q0 -67 16 -100.5t63.5 -50.5t141.5 -17v-51h-534v51q94 0 141.5 17t63.5 50.5t16 100.5v1290q-40 47 -89 62.5t-132 15.5v51h498l710 -1159h6v940q0 67 -16 100.5t-63.5 50.5
t-141.5 17v51h535z" />
    <glyph glyph-name="O" unicode="O" horiz-adv-x="1478" 
d="M739 -41q-125 0 -232 44t-186.5 122.5t-135.5 186t-84.5 236.5t-28.5 271t28.5 271t84.5 236.5t135.5 186t186.5 122.5t232 44t232.5 -44t187 -122.5t136 -186t84.5 -236.5t28 -271t-28 -271t-84.5 -236.5t-136 -186t-187 -122.5t-232.5 -44zM807 45q168 14 246.5 213
t44.5 594q-34 393 -146 575t-280 168q-81 -8 -141.5 -58t-101.5 -148.5t-52.5 -247t4.5 -353.5q34 -395 145 -577t281 -166z" />
    <glyph glyph-name="P" unicode="P" horiz-adv-x="1394" 
d="M41 0v51q94 0 141.5 17t63.5 50.5t16 100.5v1200q0 67 -16 100.5t-63.5 50.5t-141.5 17v51h684q299 0 453.5 -118.5t154.5 -358.5q0 -96 -28 -175.5t-76.5 -134.5t-113.5 -92.5t-138 -55t-152 -17.5q-140 0 -280 45v-512q0 -67 16 -100.5t63.5 -50.5t141.5 -17v-51h-725z
M743 778q124 0 203.5 103.5t79.5 279.5q0 185 -87 285t-224 100q-89 0 -170 -37v-686q105 -45 198 -45z" />
    <glyph glyph-name="Q" unicode="Q" horiz-adv-x="1468" 
d="M1561 -143l41 -52q-40 -44 -75.5 -76t-86 -68t-109 -55.5t-121.5 -19.5q-64 0 -125 17.5t-111 43t-101 51t-116 43t-136 17.5q-113 0 -289 -49l-37 154q180 33 375 100q-186 20 -323 140.5t-206 305.5t-69 410q0 142 28.5 271t84.5 236.5t135.5 186t186.5 122.5t232 44
t232.5 -44t187 -122.5t136 -186t84.5 -236.5t28 -271q0 -212 -63 -391t-181 -297h2q-200 -200 -696 -299l2 -8q144 26 231 26q71 0 147 -19t130.5 -41t123.5 -41t128 -19q100 0 173 30.5t157 96.5zM381 788q34 -395 145 -577t281 -166q168 14 246.5 213t44.5 594
q-34 393 -146 575t-280 168q-81 -8 -141.5 -58t-101.5 -148.5t-52.5 -247t4.5 -353.5z" />
    <glyph glyph-name="R" unicode="R" horiz-adv-x="1513" 
d="M1235 197q44 -88 96.5 -117t151.5 -29v-51h-170q-53 0 -81 0.5t-65.5 3.5t-57 8t-45.5 15t-41 24.5t-33.5 36t-33 49.5t-30.5 66l-285 585h-45h-51v-569q0 -67 16 -100.5t63.5 -50.5t141.5 -17v-51h-725v51q94 0 141.5 17t63.5 50.5t16 100.5v1200q0 67 -16 100.5
t-63.5 50.5t-141.5 17v51h668q277 0 417 -106.5t140 -310.5q0 -90 -27.5 -161t-72.5 -116t-110.5 -77t-131.5 -47.5t-146 -22.5v-6q95 -20 162 -76t129 -185zM545 881h51q54 0 102.5 7.5t102 30.5t91 59.5t62.5 100.5t25 148q0 157 -76.5 238t-204.5 81q-89 0 -153 -37v-628
z" />
    <glyph glyph-name="S" unicode="S" horiz-adv-x="1177" 
d="M115 -10v592h51q5 -160 63.5 -282t153 -185.5t209.5 -63.5q117 0 187.5 65.5t70.5 174.5q0 32 -10 65t-22 59.5t-40 61t-47 56t-61.5 59.5t-63.5 56t-74 61.5t-73 60.5q-81 67 -128.5 111t-94.5 96.5t-70.5 99t-38 103t-14.5 123.5q0 119 57.5 205.5t151 128.5t210.5 42
q75 0 143 -21t106.5 -45.5l71.5 -45.5t48 -21q20 0 26.5 20.5t6.5 82.5h51v-484h-51q-8 189 -109.5 305.5t-261.5 116.5q-115 0 -175 -55t-60 -137q0 -26 7 -51t16.5 -46t29 -46t35.5 -42t45.5 -44t48 -43t55 -46t56.5 -47q25 -21 72 -61q162 -138 222 -204
q120 -132 143 -281q7 -44 7 -93q0 -102 -38.5 -185.5t-102.5 -136.5t-143.5 -81.5t-164.5 -28.5q-90 0 -166 22.5t-115 49t-73 49t-51 22.5q-26 0 -35.5 -24.5t-9.5 -87.5h-51z" />
    <glyph glyph-name="T" unicode="T" horiz-adv-x="1404" 
d="M1315 1575l26 -338l-51 -4q-10 132 -31.5 199t-57 90.5t-101.5 23.5h-256v-1327q0 -67 16 -100.5t63.5 -50.5t141.5 -17v-51h-725v51q94 0 141.5 17t63.5 50.5t16 100.5v1327h-254q-66 0 -102 -23t-58 -90.5t-32 -199.5l-52 4l27 338l4 63h1217z" />
    <glyph glyph-name="U" unicode="U" horiz-adv-x="1648" 
d="M1294 1419q0 67 -16 100.5t-63.5 50.5t-141.5 17v51h535v-51q-94 0 -141.5 -17t-64 -51t-16.5 -100v-925q0 -83 -12 -154.5t-46 -144t-88 -123t-144 -82t-209 -31.5q-302 0 -463.5 143.5t-161.5 411.5v905q0 67 -16 100.5t-63.5 50.5t-141.5 17v51h725v-51
q-94 0 -141.5 -17t-63.5 -50.5t-16 -100.5v-925q0 -233 93 -338t284 -105q372 0 372 443v925z" />
    <glyph glyph-name="V" unicode="V" horiz-adv-x="1562" 
d="M897 385h6l332 1045q22 59 19.5 93.5t-41 49t-132.5 14.5v51h461v-51q-97 0 -141 -31t-76 -126l-469 -1477h-123l-493 1477q-32 95 -77 126t-143 31v51h687v-51q-94 0 -132.5 -14.5t-41 -49t19.5 -93.5z" />
    <glyph glyph-name="W" unicode="W" horiz-adv-x="2168" 
d="M2148 1638v-51q-96 0 -137 -32t-67 -128l-390 -1474h-122l-304 1087l-362 -1087h-121l-416 1474q-27 97 -69.5 128.5t-139.5 31.5v51h682v-51q-135 0 -164.5 -34.5t1.5 -125.5l284 -1028h6l256 791l-65 237q-27 97 -69.5 128.5t-139.5 31.5v51h682v-51
q-94 0 -133.5 -14.5t-45 -50t12.5 -95.5l266 -981h6l254 979q17 60 12.5 96t-44.5 51t-133 15v51h460z" />
    <glyph glyph-name="X" unicode="X" horiz-adv-x="1679" 
d="M1378 188q49 -84 104 -110.5t156 -26.5v-51h-712v51q36 0 61.5 1t43.5 5.5t29 8.5t14 14.5t3.5 17.5t-7 24.5t-14 29t-20.5 36.5l-268 461l-305 -465q-14 -20 -19.5 -29.5t-14.5 -25t-11 -21.5t-4 -16.5t2 -14t10.5 -10t18.5 -8t29 -4.5t38.5 -3.5t50.5 -0.5v-51h-481v51
q102 0 159 25.5t111 107.5l363 555l-414 711q-49 84 -104 110.5t-156 26.5v51h713v-51q-48 0 -78.5 -2.5t-47.5 -10t-24 -15.5t-1.5 -27t13.5 -34.5t27 -47.5l254 -434l287 438q16 25 23.5 36.5t16.5 28.5t9 24t-3 17t-14 13.5t-28.5 7.5t-43 5t-61.5 1v51h482v-51
q-102 0 -159.5 -25.5t-111.5 -107.5l-346 -528z" />
    <glyph glyph-name="Y" unicode="Y" horiz-adv-x="1505" 
d="M915 219q0 -66 16.5 -100t64 -51t141.5 -17v-51h-725v51q94 0 141.5 17t63.5 50.5t16 100.5v502l-365 721q-44 88 -96.5 116.5t-151.5 28.5v51h705v-51q-48 0 -78.5 -2.5t-48.5 -10.5t-26 -16.5t-4 -28t11 -37t23 -50.5l279 -559h6l256 557q15 33 21.5 50.5t9 37.5
t-5.5 28.5t-26 17t-49 11t-79 2.5v51h471v-51q-99 0 -150 -29t-92 -118l-328 -719v-502z" />
    <glyph glyph-name="Z" unicode="Z" horiz-adv-x="1239" 
d="M1165 1638l-755 -1546h497q66 0 104 28t65 107t48 234l52 -6l-54 -396l-8 -59h-1053v51l746 1495h-428q-66 0 -101 -21.5t-54 -83.5t-23 -184l-51 3l10 313l4 65h1001z" />
    <glyph glyph-name="bracketleft" unicode="[" horiz-adv-x="651" 
d="M590 1587h-201v-2109h201v-92h-488v2293h488v-92z" />
    <glyph glyph-name="backslash" unicode="\" horiz-adv-x="600" 
d="M63 1679l537 -1679h-166l-536 1679h165z" />
    <glyph glyph-name="bracketright" unicode="]" horiz-adv-x="651" 
d="M549 1679v-2293h-488v92h201v2109h-201v92h488z" />
    <glyph glyph-name="asciicircum" unicode="^" horiz-adv-x="1222" 
d="M102 786l406 852h205l407 -852h-192l-316 680h-6l-311 -680h-193z" />
    <glyph glyph-name="underscore" unicode="_" horiz-adv-x="1433" 
d="M1434 -307h-1434v123h1434v-123z" />
    <glyph glyph-name="grave" unicode="`" horiz-adv-x="526" 
d="M434 1288h-82l-280 381h225z" />
    <glyph glyph-name="a" unicode="a" horiz-adv-x="1048" 
d="M977 141h51q-27 -91 -70.5 -136.5t-134.5 -45.5q-195 0 -198 211h-4q-19 -30 -32.5 -49t-44.5 -53.5t-62 -55t-79 -37t-100 -16.5q-110 0 -176 70.5t-66 191.5q0 59 15.5 109t45.5 88.5t66.5 69.5t85.5 58.5t95 49t103 45.5q12 5 18.5 7.5t17 7t18.5 8.5l99 45v92
q0 132 -30 191t-118 59q-58 0 -94.5 -25.5t-36.5 -69.5q0 -24 15.5 -60t15.5 -67q0 -41 -35 -67.5t-92 -26.5q-61 0 -95 39.5t-34 108.5q0 113 104 178t269 65q171 0 266.5 -83.5t95.5 -245.5v-654q0 -49 9 -70.5t36 -21.5q26 0 41.5 20t34.5 70zM422 123q54 0 101.5 31.5
t101.5 99.5v373l-88 -41q-250 -114 -250 -299q0 -80 37.5 -122t97.5 -42z" />
    <glyph glyph-name="b" unicode="b" horiz-adv-x="1155" 
d="M166 129v1229v13v34.5t-1 27.5t-2 23.5t-4 16.5t-7 12t-10 5.5t-14 1.5t-19 -5t-24 -8.5t-30 -14.5l-22 45l334 170l30 -30v-734h9q80 104 159.5 157.5t182.5 53.5q150 0 242.5 -130t92.5 -369q0 -186 -58.5 -337.5t-168.5 -241t-252 -89.5q-118 0 -221 45.5t-217 124.5z
M397 164q105 -113 193 -113q62 0 108 44.5t71 121t36.5 163.5t11.5 187q0 416 -180 416q-48 0 -94 -25t-76 -55t-70 -80v-659z" />
    <glyph glyph-name="c" unicode="c" horiz-adv-x="942" 
d="M614 856q-8 95 -28 136.5t-68 41.5q-90 0 -135 -121t-45 -329q0 -225 71 -353.5t193 -128.5q80 0 139.5 74t108.5 252h51q-73 -469 -405 -469q-197 0 -310.5 151.5t-113.5 411.5q0 278 128.5 441t331.5 163q139 0 238.5 -78.5t99.5 -191.5q0 -58 -30 -89.5t-88 -31.5
q-60 0 -96 30.5t-42 90.5z" />
    <glyph glyph-name="d" unicode="d" horiz-adv-x="1169" 
d="M1104 174l22 -45l-333 -170l-31 31v180h-8q-64 -105 -136.5 -158t-173.5 -53q-169 0 -270.5 145t-101.5 396q0 183 53.5 325.5t151.5 221.5t225 79q154 0 256 -127h4v359v13v34.5t-1 27.5t-2 23.5t-4 16.5t-7 12t-10 5.5t-14 1.5t-19 -5t-24 -8.5t-30 -14.5l-22 45
l334 170l30 -30v-1368v-13v-42.5t1.5 -31.5t4 -25t8 -14.5t13.5 -8t20 2t27 8t37 17.5zM762 272v390q0 181 -56.5 276.5t-146.5 95.5q-62 0 -106 -36.5t-68.5 -103t-35.5 -146.5t-11 -179q0 -101 11 -184.5t34.5 -150.5t64.5 -104.5t95 -37.5q67 0 116 46.5t103 133.5z" />
    <glyph glyph-name="e" unicode="e" horiz-adv-x="931" 
d="M807 428h51q-36 -233 -136 -351t-255 -118q-182 0 -288.5 153.5t-106.5 419.5q0 160 47 293.5t143 217t223 83.5q124 0 209 -71t123.5 -187.5t38.5 -269.5h-549q2 -217 65.5 -341t184.5 -124q167 0 250 295zM477 1034q-57 0 -93.5 -43.5t-53.5 -117t-21 -183.5h312
q0 80 -6.5 139.5t-22 107.5t-44.5 72.5t-71 24.5z" />
    <glyph glyph-name="f" unicode="f" horiz-adv-x="718" 
d="M621 1679q122 0 217.5 -66.5t95.5 -160.5q0 -61 -35.5 -93t-89.5 -32q-117 0 -131 121q-2 22 -3.5 36t-8 36t-16 34.5t-27.5 22.5t-43 10q-80 0 -109 -74t-29 -231v-197h203v-92h-203v-774q0 -71 15.5 -104.5t59 -48.5t134.5 -15v-51h-590v51q94 0 122 32.5t28 135.5v774
h-150v92h150v105q0 103 21.5 186t58.5 138.5t89.5 93t112 54.5t128.5 17z" />
    <glyph glyph-name="g" unicode="g" horiz-adv-x="1034" 
d="M522 195q243 0 362.5 -67t119.5 -218q0 -105 -75 -197t-209.5 -148.5t-295.5 -56.5q-84 0 -155 14.5t-128 43t-89 77t-32 111.5q0 82 54 150.5t149 136.5q-62 20 -91.5 57t-29.5 97q0 40 23.5 84.5t49 73.5t71.5 75q-71 52 -111.5 131t-40.5 180q0 175 115 281t280 106
q125 0 220 -59q115 59 221 59q84 0 84 -65q0 -57 -64 -57q-106 0 -149 -7l-31 21q115 -108 115 -279q0 -117 -56 -206.5t-145 -135t-195 -45.5q-104 0 -192 45q-38 -37 -55 -61t-17 -49q0 -51 70 -71.5t227 -20.5zM463 1044q-157 -12 -133 -317q13 -154 60 -224.5t126 -64.5
q163 12 133 316q-15 155 -60.5 226.5t-125.5 63.5zM524 -307q171 0 279 51t108 143q0 73 -81 98t-275 25q-160 0 -262 15q-61 -53 -85 -94t-24 -83q0 -74 89 -114.5t251 -40.5z" />
    <glyph glyph-name="h" unicode="h" horiz-adv-x="1200" 
d="M432 1649v-744h6q155 221 344 221q228 0 228 -305v-602q0 -103 27.5 -135.5t121.5 -32.5v-51h-516v51q85 0 110 32.5t25 135.5v602q0 78 -24.5 118t-81.5 40q-111 0 -240 -166v-594q0 -103 25 -135.5t110 -32.5v-51h-516v51q94 0 122 32.5t28 135.5v1139q0 98 -9 116
q-13 26 -63 6q-18 -7 -45 -20l-23 45l158 82l182 92z" />
    <glyph glyph-name="i" unicode="i" horiz-adv-x="622" 
d="M311 1413q-54 0 -93.5 39.5t-39.5 93.5q0 55 39.5 94t93.5 39q55 0 94 -38.5t39 -94.5q0 -54 -39 -93.5t-94 -39.5zM432 219q0 -103 28 -135.5t122 -32.5v-51h-531v51q94 0 122 32.5t28 135.5v586q0 98 -9 116q-13 26 -63 6q-18 -7 -45 -20l-23 45l158 82l182 92l31 -30
v-877z" />
    <glyph glyph-name="j" unicode="j" horiz-adv-x="602" 
d="M336 1413q-54 0 -93.5 39.5t-39.5 93.5q0 55 39.5 94t93.5 39q56 0 94.5 -38.5t38.5 -94.5q0 -54 -39 -93.5t-94 -39.5zM246 1014l182 92l31 -31v-1155q0 -205 -86.5 -308.5t-229.5 -103.5q-132 0 -209 50.5t-77 138.5q0 49 36 77.5t91 28.5q115 0 129 -114q1 -8 2.5 -27
t3 -26t6 -17.5t12.5 -14t21 -3.5q42 0 55.5 68t13.5 210v905q0 98 -8 116q-12 26 -60 8q-19 -6 -48 -21l-23 45z" />
    <glyph glyph-name="k" unicode="k" horiz-adv-x="1230" 
d="M432 219q0 -103 28 -135.5t122 -32.5v-51h-531v51q94 0 122 32.5t28 135.5v1139q0 98 -9 116q-13 26 -63 6q-18 -7 -45 -20l-23 45l158 82l182 92l31 -30v-1430zM999 193q47 -85 93 -113.5t118 -28.5v-51h-561v51q93 0 105 21q10 19 -24 83q-6 11 -21 38l-236 423
l291 310q11 12 28 29.5t23.5 24t15 17.5t9.5 14.5t-0.5 9.5t-9 7t-21 3.5t-31 2.5h-45.5v51h410v-51q-79 0 -135 -20.5t-119 -89.5l-184 -203z" />
    <glyph glyph-name="l" unicode="l" horiz-adv-x="622" 
d="M432 219q0 -103 28 -135.5t122 -32.5v-51h-531v51q94 0 122 32.5t28 135.5v1139q0 98 -9 116q-13 26 -63 6q-18 -7 -45 -20l-23 45l158 82l182 92l31 -30v-1430z" />
    <glyph glyph-name="m" unicode="m" horiz-adv-x="1757" 
d="M1567 219q0 -103 27.5 -135.5t121.5 -32.5v-51h-510v51q81 0 105 32.5t24 135.5v612q0 77 -22.5 114.5t-73.5 37.5q-111 0 -240 -170v-594q0 -103 23.5 -135.5t103.5 -32.5v-51h-485v51q80 0 103.5 32.5t23.5 135.5v612q0 78 -22 115t-74 37q-107 0 -240 -170v-594
q0 -103 23.5 -135.5t103.5 -32.5v-51h-508v51q94 0 122 32.5t28 135.5v586q0 98 -9 116q-13 26 -63 6q-18 -7 -45 -20l-23 45l158 82l182 92l31 -30v-191h6q34 48 66.5 84.5t74 69t90.5 50t103 17.5q193 0 223 -221h4q166 221 349 221q114 0 166.5 -75.5t52.5 -229.5v-602z
" />
    <glyph glyph-name="n" unicode="n" horiz-adv-x="1200" 
d="M432 1096v-191h6q155 221 344 221q228 0 228 -305v-602q0 -103 27.5 -135.5t121.5 -32.5v-51h-516v51q85 0 110 32.5t25 135.5v602q0 78 -24.5 118t-81.5 40q-111 0 -240 -166v-594q0 -103 25 -135.5t110 -32.5v-51h-516v51q94 0 122 32.5t28 135.5v586q0 98 -9 116
q-13 26 -63 6q-18 -7 -45 -20l-23 45l158 82l182 92z" />
    <glyph glyph-name="o" unicode="o" horiz-adv-x="1122" 
d="M561 -41q-222 0 -355.5 164t-133.5 420t133.5 419.5t355.5 163.5t356 -163.5t134 -419.5t-134 -420t-356 -164zM604 53q113 9 157.5 134t22.5 376q-23 251 -87.5 365t-178.5 104q-113 -9 -156.5 -133.5t-21.5 -374.5q22 -251 86.5 -365.5t177.5 -105.5z" />
    <glyph glyph-name="p" unicode="p" horiz-adv-x="1179" 
d="M774 1126q86 0 151.5 -40.5t104.5 -112t58.5 -163.5t19.5 -202q0 -181 -56 -330.5t-150.5 -234t-205.5 -84.5q-171 0 -270 158h-4v-348q0 -103 27.5 -135.5t121.5 -32.5v-52h-530v52q94 0 121.5 32.5t27.5 135.5v1036v16v41.5t-1.5 31t-4 24t-8 14t-13 7.5t-20 -2.5
t-27.5 -8t-36 -17.5l-23 45l334 170l31 -30v-211h8q143 241 344 241zM641 51q57 0 97.5 41t62.5 114t31.5 156.5t9.5 184.5q0 231 -40.5 338.5t-133.5 107.5q-67 0 -134 -54.5t-112 -135.5v-389q0 -168 61.5 -265.5t157.5 -97.5z" />
    <glyph glyph-name="q" unicode="q" horiz-adv-x="1179" 
d="M836 1030l122 96l31 -30v-1327q0 -103 28 -135.5t122 -32.5v-52h-531v52q94 0 122 32.5t28 135.5v401h-8q-54 -70 -97 -112t-104 -70.5t-131 -28.5q-156 0 -251 135t-95 375q0 143 28.5 261t85 207.5t147.5 139t210 49.5q142 0 293 -96zM758 883q-68 151 -185 151
q-235 0 -235 -506q0 -426 201 -426q33 0 62 11.5t59 39.5t47 47.5t51 61.5v621z" />
    <glyph glyph-name="r" unicode="r" horiz-adv-x="925" 
d="M729 1126q73 0 119.5 -37.5t46.5 -99.5q0 -57 -32.5 -95t-90.5 -38q-45 0 -69.5 16t-47.5 48q-12 21 -23 29.5t-28 8.5q-42 0 -81.5 -43.5t-90.5 -134.5v-561q0 -103 42 -135.5t183 -32.5v-51h-606v51q94 0 122 32.5t28 135.5v586q0 98 -9 116q-13 26 -63 6
q-18 -7 -45 -20l-23 45l158 82l182 92l31 -30v-189h6q22 41 48.5 76t62.5 69.5t82.5 54t97.5 19.5z" />
    <glyph glyph-name="s" unicode="s" horiz-adv-x="839" 
d="M104 -20v415h52q24 -151 106 -247.5t205 -96.5q63 0 95 32.5t32 92.5q0 26 -5.5 49t-23 49.5t-30 43.5t-48 50t-54 49.5t-68.5 59.5q-126 106 -166 152q-95 110 -97 231q0 120 79.5 193t209.5 73q52 0 97 -13t69.5 -28t46.5 -28t33 -13q17 0 21 13t4 49h51v-342h-51
q-24 118 -95.5 194t-169.5 76q-54 0 -82 -29t-28 -67q0 -58 43.5 -108.5t158.5 -145.5q58 -50 88.5 -77.5t70 -67t58.5 -67.5t38.5 -64.5t26.5 -74t7 -81.5q0 -143 -87 -218t-216 -75q-59 0 -111 13t-81 28t-55 28t-40 13q-19 0 -25.5 -14t-6.5 -47h-52z" />
    <glyph glyph-name="t" unicode="t" horiz-adv-x="759" 
d="M668 451h51q-1 -101 -7.5 -174t-23 -136t-45 -101.5t-73 -59.5t-105.5 -21q-279 0 -279 383v651h-155v92q149 6 222 71.5t93 221.5h72v-293h231v-92h-231v-590q0 -65 2 -107.5t9 -84.5t20 -66t35.5 -38.5t54.5 -14.5q67 0 96.5 83t32.5 276z" />
    <glyph glyph-name="u" unicode="u" horiz-adv-x="1157" 
d="M760 -10v190h-6q-71 -102 -151 -161.5t-181 -59.5q-229 0 -229 305v582q0 37 -1.5 59t-6.5 42t-13.5 28t-25 12.5t-38.5 1t-55 -11.5l-12 49l172 45l180 45l31 -31v-821q0 -77 25.5 -116t82.5 -39q102 0 228 163v574q0 38 -1 59.5t-6 41.5t-14 28t-25 12.5t-38 1
t-55 -11.5l-13 49l172 45l181 45l30 -31v-804v-13v-42.5t1.5 -31.5t4 -25t8 -14.5t13.5 -8t20 2t27 8t37 17.5l22 -45l-333 -170z" />
    <glyph glyph-name="v" unicode="v" horiz-adv-x="1052" 
d="M774 874q33 98 18.5 129t-106.5 31v51h346v-51q-69 0 -104 -32t-62 -128l-260 -921h-143l-275 921q-28 95 -64 127.5t-104 32.5v51h519v-51q-31 0 -51 -2.5t-32.5 -10.5t-17 -17.5t-3 -30.5t6 -41.5t15.5 -57.5l155 -546h6z" />
    <glyph glyph-name="w" unicode="w" horiz-adv-x="1634" 
d="M1614 1085v-51q-69 0 -104 -32t-62 -128l-260 -921h-144l-190 637l-207 -637h-143l-309 926q-31 92 -68.5 123.5t-106.5 31.5v51h527v-51q-91 0 -104 -30t22 -127l197 -594h6l145 446l-43 145q-28 95 -64 127.5t-104 32.5v51h518v-51q-31 0 -51 -2.5t-32.5 -10.5
t-17 -17.5t-3 -30.5t6 -41.5t15.5 -57.5l156 -546h6l156 546q33 98 18.5 129t-106.5 31v51h346z" />
    <glyph glyph-name="x" unicode="x" horiz-adv-x="1097" 
d="M864 197q42 -87 86.5 -116.5t116.5 -29.5v-51h-535v51q84 0 90.5 25.5t-39.5 109.5q-3 7 -5 11l-91 182l-112 -191q-50 -85 -54 -100q-7 -27 24 -33q19 -4 61 -4v-51h-351v51q73 0 120 27t97 110l168 287l-207 414q-44 87 -88 116t-114 29v51h532v-51q-83 0 -89.5 -24.5
t37.5 -105.5q5 -10 7 -15l76 -152l92 160q51 85 55 101q6 26 -26 32q-19 4 -60 4v51h353v-51q-73 0 -120 -27t-97 -110l-150 -254z" />
    <glyph glyph-name="y" unicode="y" horiz-adv-x="1056" 
d="M43 -330q0 57 37.5 93t87.5 36q65 0 115 -59q22 -25 36 -34t37 -9q52 0 89 62t69 204l-309 916q-31 92 -68.5 123.5t-105.5 31.5v51h532v-51q-92 0 -106.5 -31t18.5 -129l158 -524l137 524q30 97 14 128.5t-108 31.5v51h350v-51q-68 0 -102 -32.5t-60 -127.5l-231 -837
q-6 -22 -19 -66q-22 -80 -34.5 -119.5t-37 -105t-49.5 -99t-61 -71t-83 -53t-105 -15.5q-90 0 -145.5 45t-55.5 117z" />
    <glyph glyph-name="z" unicode="z" horiz-adv-x="929" 
d="M649 92q71 0 105 22.5t48.5 84.5t14.5 192h51v-391h-807v51l500 942h-227q-71 0 -105 -19.5t-48.5 -72t-14.5 -162.5h-51v346h753v-51l-499 -942h280z" />
    <glyph glyph-name="braceleft" unicode="{" horiz-adv-x="860" 
d="M799 1628q-281 -45 -281 -258q0 -52 18.5 -110.5t41 -104t41 -113.5t18.5 -135q0 -71 -22 -131.5t-57 -100.5t-82 -70t-94 -46t-95 -22v-7q48 -6 95 -22t94 -46.5t82 -71t57 -101t22 -131.5q0 -67 -18.5 -135t-41 -113.5t-41 -104t-18.5 -110.5q0 -213 281 -258v-51
q-465 45 -465 401q0 93 33.5 244t33.5 235q0 116 -80.5 179t-218.5 63v51q138 0 218.5 62t80.5 178q0 83 -33.5 235t-33.5 244q0 356 465 401v-51z" />
    <glyph glyph-name="bar" unicode="|" horiz-adv-x="378" 
d="M102 1772h174v-2192h-174v2192z" />
    <glyph glyph-name="braceright" unicode="}" horiz-adv-x="860" 
d="M758 508q-138 0 -218.5 -63t-80.5 -179q0 -84 33.5 -235t33.5 -244q0 -356 -465 -401v51q281 45 281 258q0 52 -18.5 110.5t-41 104t-41 113.5t-18.5 135q0 71 22 131.5t57 101t82 71t94 46.5t95 22v7q-48 6 -95 22t-94 46t-82 70t-57 100.5t-22 131.5q0 67 18.5 135
t41 113.5t41 104t18.5 110.5q0 213 -281 258v51q465 -45 465 -401q0 -92 -33.5 -244t-33.5 -235q0 -116 80.5 -178t218.5 -62v-51z" />
    <glyph glyph-name="asciitilde" unicode="~" horiz-adv-x="1331" 
d="M1178 725h51q-8 -159 -81.5 -252.5t-201.5 -93.5q-60 0 -121.5 18t-114.5 43.5l-106 51t-114.5 43.5t-120.5 18q-179 0 -215 -172h-52q8 159 81.5 252.5t201.5 93.5q60 0 121.5 -18t115 -43.5t106.5 -51t114.5 -43.5t120.5 -18q179 0 215 172z" />
    <glyph glyph-name="exclamdown" unicode="&#xa1;" horiz-adv-x="481" 
d="M242 1126q56 0 94.5 -39t38.5 -94t-38.5 -94t-94.5 -39t-94.5 39t-38.5 94t38.5 94t94.5 39zM113 -412q0 96 24.5 257.5t50.5 381t29 449.5h51q3 -230 28 -449.5t49 -381t24 -257.5q0 -182 -127 -182q-129 0 -129 182z" />
    <glyph glyph-name="cent" unicode="&#xa2;" horiz-adv-x="1024" 
d="M860 428h51q-73 -469 -405 -469q-40 0 -78 6l-106 -416h-74l110 437q-132 51 -204 190t-72 346q0 278 129 441t332 163q53 0 100 -12l133 524h76l-139 -548q77 -36 122.5 -98t45.5 -136q0 -58 -30.5 -89.5t-88.5 -31.5q-89 0 -123 66l-164 -643q59 -56 137 -56
q80 0 139.5 74t108.5 252zM348 584q0 -221 72 -355l186 738q-21 67 -78 67q-90 0 -135 -121t-45 -329z" />
    <glyph glyph-name="sterling" unicode="&#xa3;" horiz-adv-x="1247" 
d="M1094 461h51q-24 -198 -61 -296q-77 -206 -248 -206q-52 0 -112.5 26.5t-102 55.5t-103.5 78q-111 -160 -242 -160q-76 0 -125 49.5t-49 136.5q0 88 57 142.5t146 54.5q59 0 115 -16q8 79 8 184q0 125 -25 254h-219v72h203q-6 26 -23.5 95t-25 105.5t-15.5 99.5t-8 124
q0 193 106.5 306t307.5 113q148 0 241 -72t93 -175q0 -50 -36.5 -82.5t-88.5 -32.5q-55 0 -93 29.5t-38 80.5q0 7 0.5 28t0 29.5t-2 26t-5 25.5t-10 20t-16.5 17t-25 9.5t-34 4.5q-85 0 -124.5 -71.5t-39.5 -194.5q0 -82 16.5 -159t42 -166t37.5 -160h262v-72h-252
q7 -68 7 -129q0 -208 -74 -383q125 -57 241 -57q105 0 169.5 65t93.5 201zM274 51q86 0 125 156q-62 43 -112 43q-42 0 -67 -29t-25 -74q0 -42 20.5 -69t58.5 -27z" />
    <glyph glyph-name="currency" unicode="&#xa4;" horiz-adv-x="1363" 
d="M1159 745q0 -147 -86 -274l189 -188l-115 -117l-191 190q-122 -88 -274 -88q-147 0 -274 86l-189 -188l-117 117l189 188q-86 127 -86 274q0 153 88 275l-191 190l117 115l189 -188q127 86 274 86t274 -86l191 188l115 -115l-189 -190q86 -127 86 -275zM369 745
q0 -131 89 -222t224 -91t224 91t89 222t-89 222.5t-224 91.5t-224 -91.5t-89 -222.5z" />
    <glyph glyph-name="yen" unicode="&#xa5;" horiz-adv-x="1710" 
d="M1567 1587q-99 0 -150 -29t-92 -118l-274 -600h444v-72h-477l-21 -47v-137h498v-72h-498v-293q0 -66 16.5 -100t64 -51t141.5 -17v-51h-725v51q94 0 141.5 17t63.5 50.5t16 100.5v293h-500v72h500v137l-25 47h-475v72h440l-305 602q-44 88 -96.5 116.5t-151.5 28.5v51
h705v-51q-48 0 -78.5 -2.5t-48.5 -10.5t-26 -16.5t-4 -28t11 -37t23 -50.5l279 -559h6l256 557q15 33 21.5 50.5t9 37.5t-5.5 28.5t-26 17t-49 11t-79 2.5v51h471v-51z" />
    <glyph glyph-name="brokenbar" unicode="&#xa6;" horiz-adv-x="378" 
d="M102 1649h174v-789h-174v789zM102 492h174v-789h-174v789z" />
    <glyph glyph-name="section" unicode="&#xa7;" horiz-adv-x="925" 
d="M600 348q77 -77 116.5 -153.5t39.5 -165.5q0 -141 -83.5 -218t-211.5 -77q-138 0 -220.5 67t-82.5 150q0 45 24.5 75.5t69.5 30.5t70 -26t30 -66q17 -160 133 -160q78 0 123 47t45 125q0 74 -66 147t-218 187q-153 111 -210 194t-57 204q0 187 226 356q-158 155 -158 321
q0 139 84.5 216t210.5 77q140 0 222.5 -67t82.5 -150q0 -45 -25.5 -75.5t-70.5 -30.5t-70.5 26.5t-28.5 65.5q-17 160 -133 160q-79 0 -124.5 -46.5t-45.5 -125.5q0 -39 17.5 -76t58.5 -80t86.5 -81t122.5 -97q153 -111 209.5 -193.5t56.5 -203.5q0 -190 -223 -357zM225 782
q0 -85 52.5 -147t216.5 -193q31 -25 69 -59q67 59 102 116.5t35 131.5q0 37 -10 68.5t-25.5 57.5t-53.5 63t-73 66.5t-106 86.5q-27 21 -70 59q-67 -62 -102 -119.5t-35 -130.5z" />
    <glyph glyph-name="dieresis" unicode="&#xa8;" horiz-adv-x="901" 
d="M236 1352q-54 0 -94 39.5t-40 93.5q0 55 40 94t94 39q56 0 94.5 -39t38.5 -94q0 -54 -39 -93.5t-94 -39.5zM666 1352q-54 0 -94 39.5t-40 93.5q0 55 40 94t94 39q56 0 94.5 -39t38.5 -94q0 -54 -39 -93.5t-94 -39.5z" />
    <glyph glyph-name="copyright" unicode="&#xa9;" horiz-adv-x="1884" 
d="M944 1690q237 0 431.5 -115t305.5 -315t111 -443q0 -177 -65.5 -337t-177.5 -277t-270 -185.5t-335 -68.5q-178 0 -337 68.5t-271.5 185.5t-178 277t-65.5 337q0 182 65.5 343.5t178 278t271 184t337.5 67.5zM944 1618q-166 0 -311.5 -63.5t-248 -171t-161.5 -255
t-59 -311.5t59 -311.5t161.5 -254t248 -169t311.5 -62.5q215 0 393.5 106t280.5 289t102 402q0 163 -60 311t-163 255.5t-247.5 171t-305.5 63.5zM420 817q0 231 148 382t370 151q74 0 138.5 -17.5t99 -39t63 -39t39.5 -17.5q12 0 16 14t4 58h52l30 -379h-51
q-21 159 -118 243t-240 84q-157 0 -257 -119t-100 -321q0 -203 103 -321.5t274 -118.5q145 0 251 89.5t153 254.5h51q-54 -204 -178.5 -320t-327.5 -116q-229 0 -374.5 149.5t-145.5 382.5z" />
    <glyph glyph-name="guillemotleft" unicode="&#xab;" horiz-adv-x="993" 
d="M338 600l205 -500h-51l-369 500l369 494h51zM709 600l202 -500h-51l-366 500l366 494h51z" />
    <glyph glyph-name="logicalnot" unicode="&#xac;" horiz-adv-x="1230" 
d="M102 913h1026v-620h-174v446h-852v174z" />
    <glyph glyph-name="registered" unicode="&#xae;" horiz-adv-x="1888" 
d="M944 1690q237 0 432 -114.5t306.5 -314.5t111.5 -442q0 -177 -66 -337.5t-178.5 -277.5t-270.5 -186t-335 -69q-178 0 -337 69t-271.5 186t-178 277.5t-65.5 337.5q0 182 65.5 343.5t178 277t271 183t337.5 67.5zM944 20q215 0 394 106.5t281.5 290t102.5 402.5
q0 218 -102.5 401.5t-281.5 290.5t-394 107q-166 0 -311.5 -63t-248 -170.5t-161.5 -254.5t-59 -311t59 -311.5t161.5 -255t248 -170t311.5 -62.5zM1235 477q49 -82 94.5 -109.5t108.5 -27.5v-51h-283l-264 450h-23h-108v-231q0 -98 21 -133t89 -35v-51h-389v51
q68 0 89.5 35.5t21.5 132.5v627q0 97 -21.5 132.5t-89.5 35.5v51h383q430 0 430 -307q0 -226 -229 -285zM844 811q133 0 204.5 55.5t71.5 180.5q0 235 -256 235q-64 0 -104 -12v-459h84z" />
    <glyph glyph-name="macron" unicode="&#xaf;" horiz-adv-x="860" 
d="M102 1511h656v-92h-656v92z" />
    <glyph glyph-name="degree" unicode="&#xb0;" horiz-adv-x="1081" 
d="M541 813q-189 0 -314 124.5t-125 313.5t125 314t314 125t313.5 -125t124.5 -314t-124.5 -313.5t-313.5 -124.5zM541 967q123 0 203.5 80t80.5 204t-80.5 204.5t-203.5 80.5q-122 0 -203.5 -80.5t-81.5 -204.5t81.5 -204t203.5 -80z" />
    <glyph glyph-name="plusminus" unicode="&#xb1;" horiz-adv-x="1064" 
d="M102 621v174h347v342h174v-342h340v-174h-340v-345h-174v345h-347zM102 78v174h861v-174h-861z" />
    <glyph glyph-name="acute" unicode="&#xb4;" horiz-adv-x="526" 
d="M92 1288l137 381h226l-281 -381h-82z" />
    <glyph glyph-name="paragraph" unicode="&#xb6;" horiz-adv-x="1353" 
d="M1251 1679v-51q-94 0 -141.5 -17t-63.5 -50.5t-16 -100.5v-1829h-102v1956h-246v-1956h-102v1250q-219 0 -348.5 101.5t-129.5 297.5t129.5 297.5t348.5 101.5h671z" />
    <glyph glyph-name="periodcentered" unicode="&#xb7;" horiz-adv-x="471" 
d="M236 686q-56 0 -95 39t-39 94t39 94t95 39t94.5 -39t38.5 -94t-38.5 -94t-94.5 -39z" />
    <glyph glyph-name="cedilla" unicode="&#xb8;" horiz-adv-x="706" 
d="M215 -162l168 182h92l-94 -129q42 -3 78.5 -13.5t70.5 -30.5t54 -55t20 -81q0 -60 -30 -107t-80 -73t-115.5 -41.5t-135.5 -14.5t-141 9l13 51q153 -14 234 25.5t81 130.5q0 144 -215 147z" />
    <glyph glyph-name="guillemotright" unicode="&#xbb;" horiz-adv-x="993" 
d="M287 600l-205 494h51l369 -494l-369 -500h-51zM655 600l-202 494h51l366 -494l-366 -500h-51z" />
    <glyph glyph-name="onequarter" unicode="&#xbc;" horiz-adv-x="1646" 
d="M430 803q0 -61 18 -81t80 -20v-30h-358v30q60 0 78 20t18 81v672q0 45 -5.5 59.5t-27.5 12.5t-75 -27l-15 28l269 125l18 -18v-852zM1278 1638h96l-1018 -1638h-96zM842 262v123l415 598h123v-598h125v-123h-125v-131q0 -61 18.5 -80.5t80.5 -19.5v-31h-359v31
q61 0 79 19.5t18 80.5v131h-375zM913 385h304v457l-304 -453v-4z" />
    <glyph glyph-name="onehalf" unicode="&#xbd;" horiz-adv-x="1820" 
d="M430 803q0 -61 18 -81t80 -20v-30h-358v30q60 0 78 20t18 81v672q0 45 -5.5 59.5t-27.5 12.5t-75 -27l-15 28l269 125l18 -18v-852zM1296 1638h97l-1018 -1638h-96zM1505 129q61 0 90.5 26.5t57.5 102.5l28 -10l-51 -135l-41 -113h-583v31q90 87 148 146.5t121.5 133
t98.5 130.5t58.5 120.5t23.5 122.5q0 92 -43 143.5t-127 51.5q-97 0 -153 -66t-64 -182h-33q0 171 93 274t247 103q120 0 186 -67t66 -175q0 -63 -27 -132.5t-68.5 -131t-104.5 -130.5t-121 -123t-131 -116v-4h329z" />
    <glyph glyph-name="threequarters" unicode="&#xbe;" horiz-adv-x="1798" 
d="M147 735q0 26 21.5 41t54.5 15q34 0 53.5 -13.5t36.5 -38.5q21 -27 43 -40t62 -13q68 0 116 58t48 155q0 129 -66 190t-188 74v31q184 59 184 221q0 64 -36.5 104t-104.5 40t-113 -36t-63 -98h-33q17 110 91 174t189 64q106 0 175 -59t69 -162q0 -156 -197 -232v-4
q119 -13 193 -82.5t74 -187.5q0 -92 -52 -162.5t-133.5 -106.5t-175.5 -36q-97 0 -172.5 27t-75.5 77zM1448 1638h96l-1018 -1638h-96zM993 262v123l416 598h123v-598h125v-123h-125v-131q0 -61 18 -80.5t80 -19.5v-31h-358v31q60 0 78 19.5t18 80.5v131h-375zM1065 385h303
v457l-303 -453v-4z" />
    <glyph glyph-name="questiondown" unicode="&#xbf;" horiz-adv-x="987" 
d="M516 1106q56 0 94.5 -39t38.5 -94t-38.5 -94t-94.5 -39t-94.5 39t-38.5 94t38.5 94t94.5 39zM328 -301q0 -104 46 -162.5t130 -58.5q73 0 114 44t41 111q0 45 -23.5 91.5t-23.5 80.5q0 53 37 80t90 27q65 0 105.5 -54t40.5 -143q0 -136 -113.5 -232.5t-294.5 -96.5
q-185 0 -300.5 85t-115.5 228q0 72 24 134t62 110t84 97t92.5 106.5t84.5 125t62 166t24 217.5h51q0 -184 -22.5 -323t-54.5 -218t-63.5 -141t-54 -129t-22.5 -145z" />
    <glyph glyph-name="Agrave" unicode="&#xc0;" horiz-adv-x="1562" 
d="M891 1821h-82l-281 381h226zM1323 209q32 -95 77 -126.5t142 -31.5v-51h-684v51q93 0 131.5 14.5t40.5 49.5t-20 94l-92 280h-500l-90 -280q-22 -59 -19 -94t42 -49.5t132 -14.5v-51h-463v51q97 0 141.5 31.5t76.5 126.5l471 1477h122zM446 582h441l-221 671h-7z" />
    <glyph glyph-name="Aacute" unicode="&#xc1;" horiz-adv-x="1562" 
d="M1044 2202l-280 -381h-82l137 381h225zM1323 209q32 -95 77 -126.5t142 -31.5v-51h-684v51q93 0 131.5 14.5t40.5 49.5t-20 94l-92 280h-500l-90 -280q-22 -59 -19 -94t42 -49.5t132 -14.5v-51h-463v51q97 0 141.5 31.5t76.5 126.5l471 1477h122zM446 582h441l-221 671
h-7z" />
    <glyph glyph-name="Acircumflex" unicode="&#xc2;" horiz-adv-x="1562" 
d="M772 2075l-229 -265h-82l198 381h226l198 -381h-82zM1323 209q32 -95 77 -126.5t142 -31.5v-51h-684v51q93 0 131.5 14.5t40.5 49.5t-20 94l-92 280h-500l-90 -280q-22 -59 -19 -94t42 -49.5t132 -14.5v-51h-463v51q97 0 141.5 31.5t76.5 126.5l471 1477h122zM446 582
h441l-221 671h-7z" />
    <glyph glyph-name="Atilde" unicode="&#xc3;" horiz-adv-x="1562" 
d="M602 2023q-56 0 -80.5 -35.5t-36.5 -107.5h-51q6 60 16.5 106.5t30.5 96t56.5 77t85.5 27.5q45 0 89.5 -22.5t76 -49t73 -49t80.5 -22.5q56 0 80.5 35.5t36.5 107.5h51q-6 -60 -16 -106.5t-30.5 -96t-56.5 -77t-85 -27.5q-44 0 -89.5 22.5t-76.5 49t-73 49t-81 22.5z
M1323 209q32 -95 77 -126.5t142 -31.5v-51h-684v51q93 0 131.5 14.5t40.5 49.5t-20 94l-92 280h-500l-90 -280q-22 -59 -19 -94t42 -49.5t132 -14.5v-51h-463v51q97 0 141.5 31.5t76.5 126.5l471 1477h122zM446 582h441l-221 671h-7z" />
    <glyph glyph-name="Adieresis" unicode="&#xc4;" horiz-adv-x="1562" 
d="M557 1884q-54 0 -93.5 39.5t-39.5 93.5q0 55 39.5 94t93.5 39q55 0 94 -39t39 -94q0 -54 -39 -93.5t-94 -39.5zM987 1884q-54 0 -93.5 39.5t-39.5 93.5q0 55 39.5 94t93.5 39q55 0 94 -39t39 -94q0 -54 -39 -93.5t-94 -39.5zM1323 209q32 -95 77 -126.5t142 -31.5v-51
h-684v51q93 0 131.5 14.5t40.5 49.5t-20 94l-92 280h-500l-90 -280q-22 -59 -19 -94t42 -49.5t132 -14.5v-51h-463v51q97 0 141.5 31.5t76.5 126.5l471 1477h122zM446 582h441l-221 671h-7z" />
    <glyph glyph-name="Aring" unicode="&#xc5;" horiz-adv-x="1562" 
d="M772 1815q-92 0 -153.5 64t-61.5 151q0 88 61.5 150.5t153.5 62.5t152.5 -62.5t60.5 -150.5q0 -87 -60.5 -151t-152.5 -64zM772 2161q-63 0 -98 -39.5t-35 -91.5q0 -54 35 -94t98 -40q62 0 96.5 40t34.5 94q0 52 -34.5 91.5t-96.5 39.5zM1323 209q32 -95 77 -126.5
t142 -31.5v-51h-684v51q93 0 131.5 14.5t40.5 49.5t-20 94l-92 280h-500l-90 -280q-22 -59 -19 -94t42 -49.5t132 -14.5v-51h-463v51q97 0 141.5 31.5t76.5 126.5l471 1477h122zM446 582h441l-221 671h-7z" />
    <glyph glyph-name="AE" unicode="&#xc6;" horiz-adv-x="1923" 
d="M1851 469l50 -14l-111 -396l-16 -59h-1063v51q94 0 141.5 17t63.5 50.5t16 100.5v311h-440l-138 -327q-14 -33 -20.5 -52t-8 -39t7 -29.5t27.5 -18t50 -11t79 -2.5v-51h-469v51q98 0 147.5 30.5t88.5 121.5l518 1233q14 33 20.5 52t8 38.5t-7 29t-27.5 18t-50 11t-79 2.5
v51h1130l9 -63l41 -336l-52 -6q-17 132 -41 198.5t-60.5 90.5t-102.5 24h-349v-639h213q67 0 100.5 17.5t50.5 69.5t17 155h52v-264l-2 -49l2 -265h-52q0 103 -17 155.5t-51 70.5t-100 18h-213v-606q0 -72 18.5 -94.5t78.5 -22.5h270q65 0 107.5 30t81 110.5t81.5 236.5z
M530 623h402v936h-6z" />
    <glyph glyph-name="Ccedilla" unicode="&#xc7;" horiz-adv-x="1425" 
d="M1384 662q-20 -146 -61 -265t-105 -212t-155.5 -150.5t-206.5 -71.5l-68 -92q42 -3 78.5 -13.5t71 -30.5t54.5 -55t20 -81q0 -60 -30 -107t-80 -73t-115.5 -42t-135.5 -15t-141 9l12 52q153 -14 234.5 25t81.5 130q0 145 -215 148l131 141q-205 7 -360.5 118
t-238.5 303.5t-83 438.5q0 250 89.5 445.5t253.5 305t376 109.5q78 0 150 -17.5t113 -38.5t77 -38.5t51 -17.5q22 0 30.5 17.5t8.5 74.5h51l31 -563h-52q-49 491 -399 491q-150 0 -258 -101.5t-161.5 -273t-53.5 -393.5q0 -220 53 -387.5t159 -263.5t251 -96q191 0 321 155
t170 435h51z" />
    <glyph glyph-name="Egrave" unicode="&#xc8;" horiz-adv-x="1335" 
d="M791 1790h-82l-281 381h225zM1171 1638l9 -63l41 -336l-52 -6q-17 132 -41 198.5t-60.5 90.5t-102.5 24h-420v-639h243q67 0 100.5 17.5t50.5 69.5t17 155h52v-264l-2 -49l2 -265h-52q0 103 -17 155.5t-51 70.5t-100 18h-243v-606q0 -72 18 -94.5t78 -22.5h352
q65 0 107.5 30t81.5 111t82 236l49 -14l-111 -396l-16 -59h-1145v51q94 0 141.5 17t63.5 50.5t16 100.5v1200q0 67 -16 100.5t-63.5 50.5t-141.5 17v51h1130z" />
    <glyph glyph-name="Eacute" unicode="&#xc9;" horiz-adv-x="1335" 
d="M582 1790l137 381h225l-280 -381h-82zM1171 1638l9 -63l41 -336l-52 -6q-17 132 -41 198.5t-60.5 90.5t-102.5 24h-420v-639h243q67 0 100.5 17.5t50.5 69.5t17 155h52v-264l-2 -49l2 -265h-52q0 103 -17 155.5t-51 70.5t-100 18h-243v-606q0 -72 18 -94.5t78 -22.5h352
q65 0 107.5 30t81.5 111t82 236l49 -14l-111 -396l-16 -59h-1145v51q94 0 141.5 17t63.5 50.5t16 100.5v1200q0 67 -16 100.5t-63.5 50.5t-141.5 17v51h1130z" />
    <glyph glyph-name="Ecircumflex" unicode="&#xca;" horiz-adv-x="1335" 
d="M672 2044l-230 -264h-82l199 381h225l199 -381h-82zM1264 469l49 -14l-111 -396l-16 -59h-1145v51q94 0 141.5 17t63.5 50.5t16 100.5v1200q0 67 -16 100.5t-63.5 50.5t-141.5 17v51h1130l9 -63l41 -336l-52 -6q-17 132 -41 198.5t-60.5 90.5t-102.5 24h-420v-639h243
q67 0 100.5 17.5t50.5 69.5t17 155h52v-264l-2 -49l2 -265h-52q0 103 -17 155.5t-51 70.5t-100 18h-243v-606q0 -72 18 -94.5t78 -22.5h352q65 0 107.5 30t81.5 111t82 236z" />
    <glyph glyph-name="Edieresis" unicode="&#xcb;" horiz-adv-x="1335" 
d="M457 1853q-54 0 -93.5 40t-39.5 94q0 55 39.5 94t93.5 39q55 0 94 -39t39 -94q0 -54 -39 -94t-94 -40zM887 1853q-54 0 -93.5 40t-39.5 94q0 55 39.5 94t93.5 39q55 0 94 -39t39 -94q0 -54 -39 -94t-94 -40zM1171 1638l9 -63l41 -336l-52 -6q-17 132 -41 198.5
t-60.5 90.5t-102.5 24h-420v-639h243q67 0 100.5 17.5t50.5 69.5t17 155h52v-264l-2 -49l2 -265h-52q0 103 -17 155.5t-51 70.5t-100 18h-243v-606q0 -72 18 -94.5t78 -22.5h352q65 0 107.5 30t81.5 111t82 236l49 -14l-111 -396l-16 -59h-1145v51q94 0 141.5 17t63.5 50.5
t16 100.5v1200q0 67 -16 100.5t-63.5 50.5t-141.5 17v51h1130z" />
    <glyph glyph-name="Igrave" unicode="&#xcc;" horiz-adv-x="806" 
d="M522 1790h-82l-280 381h225zM262 1419q0 67 -16 100.5t-63.5 50.5t-141.5 17v51h725v-51q-94 0 -141.5 -17t-63.5 -50.5t-16 -100.5v-1200q0 -67 16 -100.5t63.5 -50.5t141.5 -17v-51h-725v51q94 0 141.5 17t63.5 50.5t16 100.5v1200z" />
    <glyph glyph-name="Iacute" unicode="&#xcd;" horiz-adv-x="806" 
d="M313 1790l138 381h225l-281 -381h-82zM262 1419q0 67 -16 100.5t-63.5 50.5t-141.5 17v51h725v-51q-94 0 -141.5 -17t-63.5 -50.5t-16 -100.5v-1200q0 -67 16 -100.5t63.5 -50.5t141.5 -17v-51h-725v51q94 0 141.5 17t63.5 50.5t16 100.5v1200z" />
    <glyph glyph-name="Icircumflex" unicode="&#xce;" horiz-adv-x="806" 
d="M403 2044l-229 -264h-82l199 381h225l199 -381h-82zM766 1587q-94 0 -141.5 -17t-63.5 -50.5t-16 -100.5v-1200q0 -67 16 -100.5t63.5 -50.5t141.5 -17v-51h-725v51q94 0 141.5 17t63.5 50.5t16 100.5v1200q0 67 -16 100.5t-63.5 50.5t-141.5 17v51h725v-51z" />
    <glyph glyph-name="Idieresis" unicode="&#xcf;" horiz-adv-x="806" 
d="M188 1853q-54 0 -93.5 40t-39.5 94q0 55 39.5 94t93.5 39q56 0 95 -39t39 -94q0 -54 -39.5 -94t-94.5 -40zM618 1853q-54 0 -93.5 40t-39.5 94q0 55 39.5 94t93.5 39q56 0 95 -39t39 -94q0 -54 -39.5 -94t-94.5 -40zM262 1419q0 67 -16 100.5t-63.5 50.5t-141.5 17v51
h725v-51q-94 0 -141.5 -17t-63.5 -50.5t-16 -100.5v-1200q0 -67 16 -100.5t63.5 -50.5t141.5 -17v-51h-725v51q94 0 141.5 17t63.5 50.5t16 100.5v1200z" />
    <glyph glyph-name="Eth" unicode="&#xd0;" horiz-adv-x="1634" 
d="M750 1638q132 0 250 -28.5t222 -92t179 -157.5t118.5 -232.5t43.5 -308.5q0 -169 -45 -308t-121.5 -232.5t-181 -157.5t-221 -92.5t-244.5 -28.5h-709v51q94 0 141.5 17t63.5 50.5t16 100.5v631h-180v61h180v508q0 67 -16 100.5t-63.5 50.5t-141.5 17v51h709zM750 92
q247 0 376 191t129 536t-129 536t-376 191q-127 0 -205 -37v-598h342v-61h-342v-721q78 -37 205 -37z" />
    <glyph glyph-name="Ntilde" unicode="&#xd1;" horiz-adv-x="1609" 
d="M627 1993q-56 0 -80.5 -35.5t-36.5 -108.5h-51q6 60 16 106.5t30.5 96.5t56.5 77.5t85 27.5q45 0 90 -22.5t76 -49.5t73 -49.5t81 -22.5q56 0 80 35.5t36 108.5h52q-5 -46 -11.5 -84.5t-21 -82t-34 -73t-51 -49t-71.5 -19.5q-44 0 -89 22.5t-76.5 49.5t-73 49.5
t-80.5 22.5zM1569 1638v-51q-94 0 -141.5 -17t-63.5 -50.5t-16 -100.5v-1466h-123l-871 1419v-1153q0 -67 16 -100.5t63.5 -50.5t141.5 -17v-51h-534v51q94 0 141.5 17t63.5 50.5t16 100.5v1290q-40 47 -89 62.5t-132 15.5v51h498l710 -1159h6v940q0 67 -16 100.5
t-63.5 50.5t-141.5 17v51h535z" />
    <glyph glyph-name="Ograve" unicode="&#xd2;" horiz-adv-x="1478" 
d="M858 1790h-82l-280 381h225zM739 -41q-125 0 -232 44t-186.5 122.5t-135.5 186t-84.5 236.5t-28.5 271t28.5 271t84.5 236.5t135.5 186t186.5 122.5t232 44t232.5 -44t187 -122.5t136 -186t84.5 -236.5t28 -271t-28 -271t-84.5 -236.5t-136 -186t-187 -122.5t-232.5 -44z
M807 45q168 14 246.5 213t44.5 594q-34 393 -146 575t-280 168q-81 -8 -141.5 -58t-101.5 -148.5t-52.5 -247t4.5 -353.5q34 -395 145 -577t281 -166z" />
    <glyph glyph-name="Oacute" unicode="&#xd3;" horiz-adv-x="1478" 
d="M649 1790l137 381h226l-281 -381h-82zM739 -41q-125 0 -232 44t-186.5 122.5t-135.5 186t-84.5 236.5t-28.5 271t28.5 271t84.5 236.5t135.5 186t186.5 122.5t232 44t232.5 -44t187 -122.5t136 -186t84.5 -236.5t28 -271t-28 -271t-84.5 -236.5t-136 -186t-187 -122.5
t-232.5 -44zM807 45q168 14 246.5 213t44.5 594q-34 393 -146 575t-280 168q-81 -8 -141.5 -58t-101.5 -148.5t-52.5 -247t4.5 -353.5q34 -395 145 -577t281 -166z" />
    <glyph glyph-name="Ocircumflex" unicode="&#xd4;" horiz-adv-x="1478" 
d="M739 2044l-229 -264h-82l199 381h225l199 -381h-82zM739 1679q125 0 232.5 -44t187 -122.5t136 -186t84.5 -236.5t28 -271t-28 -271t-84.5 -236.5t-136 -186t-187 -122.5t-232.5 -44t-232 44t-186.5 122.5t-135.5 186t-84.5 236.5t-28.5 271t28.5 271t84.5 236.5
t135.5 186t186.5 122.5t232 44zM807 45q168 14 246.5 213t44.5 594q-34 393 -146 575t-280 168q-81 -8 -141.5 -58t-101.5 -148.5t-52.5 -247t4.5 -353.5q34 -395 145 -577t281 -166z" />
    <glyph glyph-name="Otilde" unicode="&#xd5;" horiz-adv-x="1478" 
d="M889 1849q-45 0 -90 22.5t-76 49.5t-73 49.5t-81 22.5q-56 0 -80 -35.5t-36 -108.5h-52q5 46 11.5 84.5t21 82t34 73t51 49t71.5 19.5q44 0 89 -22.5t76.5 -49.5t73 -49.5t80.5 -22.5q56 0 80.5 35.5t36.5 108.5h51q-6 -60 -16 -106.5t-30.5 -96.5t-56.5 -77.5t-85 -27.5
zM739 -41q-125 0 -232 44t-186.5 122.5t-135.5 186t-84.5 236.5t-28.5 271t28.5 271t84.5 236.5t135.5 186t186.5 122.5t232 44t232.5 -44t187 -122.5t136 -186t84.5 -236.5t28 -271t-28 -271t-84.5 -236.5t-136 -186t-187 -122.5t-232.5 -44zM807 45q168 14 246.5 213
t44.5 594q-34 393 -146 575t-280 168q-81 -8 -141.5 -58t-101.5 -148.5t-52.5 -247t4.5 -353.5q34 -395 145 -577t281 -166z" />
    <glyph glyph-name="Odieresis" unicode="&#xd6;" horiz-adv-x="1478" 
d="M524 1853q-54 0 -93.5 40t-39.5 94q0 55 39.5 94t93.5 39q56 0 94.5 -39t38.5 -94q0 -54 -39 -94t-94 -40zM954 1853q-54 0 -93.5 40t-39.5 94q0 55 39.5 94t93.5 39q56 0 94.5 -39t38.5 -94q0 -54 -39 -94t-94 -40zM739 -41q-125 0 -232 44t-186.5 122.5t-135.5 186
t-84.5 236.5t-28.5 271t28.5 271t84.5 236.5t135.5 186t186.5 122.5t232 44t232.5 -44t187 -122.5t136 -186t84.5 -236.5t28 -271t-28 -271t-84.5 -236.5t-136 -186t-187 -122.5t-232.5 -44zM807 45q168 14 246.5 213t44.5 594q-34 393 -146 575t-280 168q-81 -8 -141.5 -58
t-101.5 -148.5t-52.5 -247t4.5 -353.5q34 -395 145 -577t281 -166z" />
    <glyph glyph-name="multiply" unicode="&#xd7;" horiz-adv-x="937" 
d="M102 791l123 122l244 -245l244 243l123 -123l-242 -243l240 -240l-123 -123l-242 240l-242 -242l-123 123l242 242z" />
    <glyph glyph-name="Oslash" unicode="&#xd8;" horiz-adv-x="1519" 
d="M1182 1489q109 -117 167 -291.5t58 -378.5q0 -142 -28 -271t-84.5 -236.5t-136 -186t-187 -122.5t-232.5 -44q-210 0 -368 123l-146 -254l-53 31l152 264q-122 116 -187 298t-65 398q0 142 28.5 271t84.5 236.5t135.5 186t186.5 122.5t232 44q234 0 398 -145l159 278
l54 -30zM381 788q20 -247 80 -428l547 949q-116 305 -336 286q-81 -8 -141.5 -58t-101.5 -148.5t-52.5 -247t4.5 -353.5zM807 45q168 14 246.5 213t44.5 594q-17 219 -66 379l-543 -946q113 -259 318 -240z" />
    <glyph glyph-name="Ugrave" unicode="&#xd9;" horiz-adv-x="1648" 
d="M1026 1790h-82l-280 381h225zM1294 1419q0 67 -16 100.5t-63.5 50.5t-141.5 17v51h535v-51q-94 0 -141.5 -17t-64 -51t-16.5 -100v-925q0 -83 -12 -154.5t-46 -144t-88 -123t-144 -82t-209 -31.5q-302 0 -463.5 143.5t-161.5 411.5v905q0 67 -16 100.5t-63.5 50.5
t-141.5 17v51h725v-51q-94 0 -141.5 -17t-63.5 -50.5t-16 -100.5v-925q0 -233 93 -338t284 -105q372 0 372 443v925z" />
    <glyph glyph-name="Uacute" unicode="&#xda;" horiz-adv-x="1648" 
d="M817 1790l137 381h226l-281 -381h-82zM1294 1419q0 67 -16 100.5t-63.5 50.5t-141.5 17v51h535v-51q-94 0 -141.5 -17t-64 -51t-16.5 -100v-925q0 -83 -12 -154.5t-46 -144t-88 -123t-144 -82t-209 -31.5q-302 0 -463.5 143.5t-161.5 411.5v905q0 67 -16 100.5
t-63.5 50.5t-141.5 17v51h725v-51q-94 0 -141.5 -17t-63.5 -50.5t-16 -100.5v-925q0 -233 93 -338t284 -105q372 0 372 443v925z" />
    <glyph glyph-name="Ucircumflex" unicode="&#xdb;" horiz-adv-x="1648" 
d="M907 2044l-229 -264h-82l199 381h225l199 -381h-82zM1608 1638v-51q-94 0 -141.5 -17t-64 -51t-16.5 -100v-925q0 -83 -12 -154.5t-46 -144t-88 -123t-144 -82t-209 -31.5q-302 0 -463.5 143.5t-161.5 411.5v905q0 67 -16 100.5t-63.5 50.5t-141.5 17v51h725v-51
q-94 0 -141.5 -17t-63.5 -50.5t-16 -100.5v-925q0 -233 93 -338t284 -105q372 0 372 443v925q0 67 -16 100.5t-63.5 50.5t-141.5 17v51h535z" />
    <glyph glyph-name="Udieresis" unicode="&#xdc;" horiz-adv-x="1648" 
d="M692 1853q-54 0 -93.5 40t-39.5 94q0 55 39.5 94t93.5 39q56 0 94.5 -39t38.5 -94q0 -54 -39 -94t-94 -40zM1122 1853q-54 0 -93.5 40t-39.5 94q0 55 39.5 94t93.5 39q56 0 94.5 -39t38.5 -94q0 -54 -39 -94t-94 -40zM1294 1419q0 67 -16 100.5t-63.5 50.5t-141.5 17v51
h535v-51q-94 0 -141.5 -17t-64 -51t-16.5 -100v-925q0 -83 -12 -154.5t-46 -144t-88 -123t-144 -82t-209 -31.5q-302 0 -463.5 143.5t-161.5 411.5v905q0 67 -16 100.5t-63.5 50.5t-141.5 17v51h725v-51q-94 0 -141.5 -17t-63.5 -50.5t-16 -100.5v-925q0 -233 93 -338
t284 -105q372 0 372 443v925z" />
    <glyph glyph-name="Yacute" unicode="&#xdd;" horiz-adv-x="1505" 
d="M748 1790l137 381h225l-281 -381h-81zM915 219q0 -66 16.5 -100t64 -51t141.5 -17v-51h-725v51q94 0 141.5 17t63.5 50.5t16 100.5v502l-365 721q-44 88 -96.5 116.5t-151.5 28.5v51h705v-51q-48 0 -78.5 -2.5t-48.5 -10.5t-26 -16.5t-4 -28t11 -37t23 -50.5l279 -559h6
l256 557q15 33 21.5 50.5t9 37.5t-5.5 28.5t-26 17t-49 11t-79 2.5v51h471v-51q-99 0 -150 -29t-92 -118l-328 -719v-502z" />
    <glyph glyph-name="Thorn" unicode="&#xde;" horiz-adv-x="1394" 
d="M41 0v51q94 0 141.5 17t63.5 50.5t16 100.5v1200q0 67 -16 100.5t-63.5 50.5t-141.5 17v51h725v-51q-94 0 -141.5 -17t-63.5 -50.5t-16 -100.5v-119h180q299 0 453.5 -118.5t154.5 -358.5q0 -96 -28 -175.5t-76.5 -134.5t-113.5 -92.5t-138 -55t-152 -17.5
q-115 0 -280 53v-182q0 -67 16 -100.5t63.5 -50.5t141.5 -17v-51h-725zM743 440q124 0 203.5 103.5t79.5 279.5q0 185 -87 285t-224 100q-89 0 -170 -37v-686q105 -45 198 -45z" />
    <glyph glyph-name="germandbls" unicode="&#xdf;" horiz-adv-x="1318" 
d="M82 0v51q94 0 121.5 32.5t27.5 135.5v866h-129v52q77 0 103 21.5t26 86.5q0 118 35.5 204t100.5 135t145.5 72t179.5 23q204 0 323.5 -90t119.5 -252q0 -130 -77.5 -227t-228.5 -154v-6q77 -17 150.5 -59t137 -107t102 -160.5t38.5 -205.5q0 -206 -98.5 -332.5
t-259.5 -126.5q-127 0 -186.5 47t-59.5 121q0 43 28.5 72.5t74.5 29.5q49 0 72.5 -31t17.5 -81q-9 -46 -3 -71.5t38 -25.5q110 0 110 375q0 249 -102.5 376.5t-267.5 127.5v51q117 60 182 160t65 217q0 121 -48 190.5t-142 69.5q-215 0 -215 -319v-1049q0 -103 27.5 -135.5
t121.5 -32.5v-51h-530z" />
    <glyph glyph-name="agrave" unicode="&#xe0;" horiz-adv-x="1048" 
d="M627 1288h-82l-281 381h225zM977 141h51q-27 -91 -70.5 -136.5t-134.5 -45.5q-195 0 -198 211h-4q-19 -30 -32.5 -49t-44.5 -53.5t-62 -55t-79 -37t-100 -16.5q-110 0 -176 70.5t-66 191.5q0 59 15.5 109t45.5 88.5t66.5 69.5t85.5 58.5t95 49t103 45.5q12 5 18.5 7.5
t17 7t18.5 8.5l99 45v92q0 132 -30 191t-118 59q-58 0 -94.5 -25.5t-36.5 -69.5q0 -24 15.5 -60t15.5 -67q0 -41 -35 -67.5t-92 -26.5q-61 0 -95 39.5t-34 108.5q0 113 104 178t269 65q171 0 266.5 -83.5t95.5 -245.5v-654q0 -49 9 -70.5t36 -21.5q26 0 41.5 20t34.5 70z
M422 123q54 0 101.5 31.5t101.5 99.5v373l-88 -41q-250 -114 -250 -299q0 -80 37.5 -122t97.5 -42z" />
    <glyph glyph-name="aacute" unicode="&#xe1;" horiz-adv-x="1048" 
d="M780 1669l-280 -381h-82l137 381h225zM977 141h51q-27 -91 -70.5 -136.5t-134.5 -45.5q-195 0 -198 211h-4q-19 -30 -32.5 -49t-44.5 -53.5t-62 -55t-79 -37t-100 -16.5q-110 0 -176 70.5t-66 191.5q0 59 15.5 109t45.5 88.5t66.5 69.5t85.5 58.5t95 49t103 45.5
q12 5 18.5 7.5t17 7t18.5 8.5l99 45v92q0 132 -30 191t-118 59q-58 0 -94.5 -25.5t-36.5 -69.5q0 -24 15.5 -60t15.5 -67q0 -41 -35 -67.5t-92 -26.5q-61 0 -95 39.5t-34 108.5q0 113 104 178t269 65q171 0 266.5 -83.5t95.5 -245.5v-654q0 -49 9 -70.5t36 -21.5
q26 0 41.5 20t34.5 70zM422 123q54 0 101.5 31.5t101.5 99.5v373l-88 -41q-250 -114 -250 -299q0 -80 37.5 -122t97.5 -42z" />
    <glyph glyph-name="acircumflex" unicode="&#xe2;" horiz-adv-x="1048" 
d="M508 1542l-229 -264h-82l198 381h226l198 -381h-82zM977 141h51q-27 -91 -70.5 -136.5t-134.5 -45.5q-195 0 -198 211h-4q-19 -30 -32.5 -49t-44.5 -53.5t-62 -55t-79 -37t-100 -16.5q-110 0 -176 70.5t-66 191.5q0 59 15.5 109t45.5 88.5t66.5 69.5t85.5 58.5t95 49
t103 45.5q12 5 18.5 7.5t17 7t18.5 8.5l99 45v92q0 132 -30 191t-118 59q-58 0 -94.5 -25.5t-36.5 -69.5q0 -24 15.5 -60t15.5 -67q0 -41 -35 -67.5t-92 -26.5q-61 0 -95 39.5t-34 108.5q0 113 104 178t269 65q171 0 266.5 -83.5t95.5 -245.5v-654q0 -49 9 -70.5t36 -21.5
q26 0 41.5 20t34.5 70zM422 123q54 0 101.5 31.5t101.5 99.5v373l-88 -41q-250 -114 -250 -299q0 -80 37.5 -122t97.5 -42z" />
    <glyph glyph-name="atilde" unicode="&#xe3;" horiz-adv-x="1048" 
d="M338 1491q-56 0 -80.5 -35.5t-36.5 -107.5h-51q6 60 16 106.5t30.5 96t56.5 77t85 27.5q44 0 89.5 -22.5t76.5 -49.5t73 -49.5t81 -22.5q56 0 80.5 35.5t36.5 108.5h51q-6 -60 -16.5 -106.5t-30.5 -96t-56.5 -77t-85.5 -27.5q-45 0 -89.5 22.5t-76 49t-73 49t-80.5 22.5z
M977 141h51q-27 -91 -70.5 -136.5t-134.5 -45.5q-195 0 -198 211h-4q-19 -30 -32.5 -49t-44.5 -53.5t-62 -55t-79 -37t-100 -16.5q-110 0 -176 70.5t-66 191.5q0 59 15.5 109t45.5 88.5t66.5 69.5t85.5 58.5t95 49t103 45.5q12 5 18.5 7.5t17 7t18.5 8.5l99 45v92
q0 132 -30 191t-118 59q-58 0 -94.5 -25.5t-36.5 -69.5q0 -24 15.5 -60t15.5 -67q0 -41 -35 -67.5t-92 -26.5q-61 0 -95 39.5t-34 108.5q0 113 104 178t269 65q171 0 266.5 -83.5t95.5 -245.5v-654q0 -49 9 -70.5t36 -21.5q26 0 41.5 20t34.5 70zM422 123q54 0 101.5 31.5
t101.5 99.5v373l-88 -41q-250 -114 -250 -299q0 -80 37.5 -122t97.5 -42z" />
    <glyph glyph-name="adieresis" unicode="&#xe4;" horiz-adv-x="1048" 
d="M293 1352q-54 0 -93.5 39.5t-39.5 93.5q0 55 39.5 94t93.5 39q55 0 94 -39t39 -94q0 -54 -39 -93.5t-94 -39.5zM723 1352q-54 0 -93.5 39.5t-39.5 93.5q0 55 39.5 94t93.5 39q55 0 94 -39t39 -94q0 -54 -39 -93.5t-94 -39.5zM977 141h51q-27 -91 -70.5 -136.5
t-134.5 -45.5q-195 0 -198 211h-4q-19 -30 -32.5 -49t-44.5 -53.5t-62 -55t-79 -37t-100 -16.5q-110 0 -176 70.5t-66 191.5q0 59 15.5 109t45.5 88.5t66.5 69.5t85.5 58.5t95 49t103 45.5q12 5 18.5 7.5t17 7t18.5 8.5l99 45v92q0 132 -30 191t-118 59q-58 0 -94.5 -25.5
t-36.5 -69.5q0 -24 15.5 -60t15.5 -67q0 -41 -35 -67.5t-92 -26.5q-61 0 -95 39.5t-34 108.5q0 113 104 178t269 65q171 0 266.5 -83.5t95.5 -245.5v-654q0 -49 9 -70.5t36 -21.5q26 0 41.5 20t34.5 70zM422 123q54 0 101.5 31.5t101.5 99.5v373l-88 -41
q-250 -114 -250 -299q0 -80 37.5 -122t97.5 -42z" />
    <glyph glyph-name="aring" unicode="&#xe5;" horiz-adv-x="1048" 
d="M508 1282q-92 0 -153.5 64t-61.5 151q0 88 61.5 150.5t153.5 62.5t152.5 -62.5t60.5 -150.5q0 -87 -60.5 -151t-152.5 -64zM508 1628q-63 0 -98 -39.5t-35 -91.5q0 -54 34.5 -93.5t98.5 -39.5q62 0 96.5 39.5t34.5 93.5q0 52 -34.5 91.5t-96.5 39.5zM977 141h51
q-27 -91 -70.5 -136.5t-134.5 -45.5q-195 0 -198 211h-4q-19 -30 -32.5 -49t-44.5 -53.5t-62 -55t-79 -37t-100 -16.5q-110 0 -176 70.5t-66 191.5q0 59 15.5 109t45.5 88.5t66.5 69.5t85.5 58.5t95 49t103 45.5q12 5 18.5 7.5t17 7t18.5 8.5l99 45v92q0 132 -30 191
t-118 59q-58 0 -94.5 -25.5t-36.5 -69.5q0 -24 15.5 -60t15.5 -67q0 -41 -35 -67.5t-92 -26.5q-61 0 -95 39.5t-34 108.5q0 113 104 178t269 65q171 0 266.5 -83.5t95.5 -245.5v-654q0 -49 9 -70.5t36 -21.5q26 0 41.5 20t34.5 70zM422 123q54 0 101.5 31.5t101.5 99.5v373
l-88 -41q-250 -114 -250 -299q0 -80 37.5 -122t97.5 -42z" />
    <glyph glyph-name="ae" unicode="&#xe6;" horiz-adv-x="1482" 
d="M1110 133q168 0 248 295h51q-37 -233 -135.5 -351t-253.5 -118q-119 0 -207.5 67t-136.5 191q-26 -40 -50.5 -72t-61 -68.5t-73.5 -61t-86.5 -40.5t-101.5 -16q-109 0 -175.5 69.5t-66.5 186.5q0 70 24.5 129t62 100t97 79.5t112.5 64t125 57.5q10 4 15.5 6.5t13.5 6
t15 6.5l99 45v92q0 132 -28.5 191t-111.5 59q-57 0 -93 -26t-36 -69q0 -24 15.5 -60t15.5 -67q0 -41 -35 -67.5t-92 -26.5q-61 0 -95 39.5t-34 108.5q0 113 103 178t264 65q197 0 288 -110q104 110 252 110q124 0 209 -71t123.5 -187.5t38.5 -269.5h-549q2 -217 65.5 -341
t184.5 -124zM1028 1034q-82 0 -121 -88.5t-45 -255.5h312q0 80 -6.5 139t-22.5 107.5t-45 73t-72 24.5zM422 123q115 0 233 156q-30 111 -30 253v95l-88 -41q-250 -114 -250 -301q0 -80 37.5 -121t97.5 -41z" />
    <glyph glyph-name="ccedilla" unicode="&#xe7;" horiz-adv-x="942" 
d="M557 -109q42 -3 78.5 -13.5t70.5 -30.5t54 -55t20 -81q0 -60 -30 -107t-80 -73t-115 -41.5t-135 -14.5t-141 9l12 51q153 -14 234 25.5t81 130.5q0 144 -215 147l111 121h-6q-197 0 -310.5 151.5t-113.5 411.5q0 278 128.5 441t331.5 163q139 0 238.5 -78.5t99.5 -191.5
q0 -58 -30 -89.5t-88 -31.5q-60 0 -96 30.5t-42 90.5q-8 95 -28 136.5t-68 41.5q-90 0 -135 -121t-45 -329q0 -225 71 -353.5t193 -128.5q80 0 139.5 74t108.5 252h51q-59 -376 -280 -451z" />
    <glyph glyph-name="egrave" unicode="&#xe8;" horiz-adv-x="931" 
d="M606 1288h-82l-280 381h225zM807 428h51q-36 -233 -136 -351t-255 -118q-182 0 -288.5 153.5t-106.5 419.5q0 160 47 293.5t143 217t223 83.5q124 0 209 -71t123.5 -187.5t38.5 -269.5h-549q2 -217 65.5 -341t184.5 -124q167 0 250 295zM477 1034q-57 0 -93.5 -43.5
t-53.5 -117t-21 -183.5h312q0 80 -6.5 139.5t-22 107.5t-44.5 72.5t-71 24.5z" />
    <glyph glyph-name="eacute" unicode="&#xe9;" horiz-adv-x="931" 
d="M760 1669l-281 -381h-82l138 381h225zM807 428h51q-36 -233 -136 -351t-255 -118q-182 0 -288.5 153.5t-106.5 419.5q0 160 47 293.5t143 217t223 83.5q124 0 209 -71t123.5 -187.5t38.5 -269.5h-549q2 -217 65.5 -341t184.5 -124q167 0 250 295zM477 1034
q-57 0 -93.5 -43.5t-53.5 -117t-21 -183.5h312q0 80 -6.5 139.5t-22 107.5t-44.5 72.5t-71 24.5z" />
    <glyph glyph-name="ecircumflex" unicode="&#xea;" horiz-adv-x="931" 
d="M487 1542l-229 -264h-82l199 381h225l199 -381h-82zM807 428h51q-36 -233 -136 -351t-255 -118q-182 0 -288.5 153.5t-106.5 419.5q0 160 47 293.5t143 217t223 83.5q124 0 209 -71t123.5 -187.5t38.5 -269.5h-549q2 -217 65.5 -341t184.5 -124q167 0 250 295zM477 1034
q-57 0 -93.5 -43.5t-53.5 -117t-21 -183.5h312q0 80 -6.5 139.5t-22 107.5t-44.5 72.5t-71 24.5z" />
    <glyph glyph-name="edieresis" unicode="&#xeb;" horiz-adv-x="931" 
d="M272 1352q-54 0 -93.5 39.5t-39.5 93.5q0 55 39.5 94t93.5 39q56 0 95 -39t39 -94q0 -54 -39.5 -93.5t-94.5 -39.5zM702 1352q-54 0 -93.5 39.5t-39.5 93.5q0 55 39.5 94t93.5 39q56 0 95 -39t39 -94q0 -54 -39.5 -93.5t-94.5 -39.5zM807 428h51q-36 -233 -136 -351
t-255 -118q-182 0 -288.5 153.5t-106.5 419.5q0 160 47 293.5t143 217t223 83.5q124 0 209 -71t123.5 -187.5t38.5 -269.5h-549q2 -217 65.5 -341t184.5 -124q167 0 250 295zM477 1034q-57 0 -93.5 -43.5t-53.5 -117t-21 -183.5h312q0 80 -6.5 139.5t-22 107.5t-44.5 72.5
t-71 24.5z" />
    <glyph glyph-name="igrave" unicode="&#xec;" horiz-adv-x="622" 
d="M408 1288h-82l-281 381h225zM432 219q0 -103 28 -135.5t122 -32.5v-51h-531v51q94 0 122 32.5t28 135.5v586q0 98 -9 116q-13 26 -63 6q-18 -7 -45 -20l-23 45l158 82l182 92l31 -30v-877z" />
    <glyph glyph-name="iacute" unicode="&#xed;" horiz-adv-x="622" 
d="M199 1288l137 381h225l-280 -381h-82zM432 219q0 -103 28 -135.5t122 -32.5v-51h-531v51q94 0 122 32.5t28 135.5v586q0 98 -9 116q-13 26 -63 6q-18 -7 -45 -20l-23 45l158 82l182 92l31 -30v-877z" />
    <glyph glyph-name="icircumflex" unicode="&#xee;" horiz-adv-x="622" 
d="M289 1542l-230 -264h-82l199 381h225l199 -381h-82zM432 219q0 -103 28 -135.5t122 -32.5v-51h-531v51q94 0 122 32.5t28 135.5v586q0 98 -9 116q-13 26 -63 6q-18 -7 -45 -20l-23 45l158 82l182 92l31 -30v-877z" />
    <glyph glyph-name="idieresis" unicode="&#xef;" horiz-adv-x="622" 
d="M74 1352q-54 0 -93.5 39.5t-39.5 93.5q0 55 39.5 94t93.5 39q56 0 94.5 -39t38.5 -94q0 -54 -39 -93.5t-94 -39.5zM504 1352q-54 0 -93.5 39.5t-39.5 93.5q0 55 39.5 94t93.5 39q56 0 94.5 -39t38.5 -94q0 -54 -39 -93.5t-94 -39.5zM432 219q0 -103 28 -135.5t122 -32.5
v-51h-531v51q94 0 122 32.5t28 135.5v586q0 98 -9 116q-13 26 -63 6q-18 -7 -45 -20l-23 45l158 82l182 92l31 -30v-877z" />
    <glyph glyph-name="eth" unicode="&#xf0;" horiz-adv-x="1208" 
d="M1106 623q4 -151 -37 -278.5t-112 -210.5t-163 -129t-192 -46q-126 0 -223.5 50.5t-157 137.5t-89.5 196.5t-30 234.5q0 102 29 196.5t81.5 168.5t134.5 118.5t181 44.5q76 0 140 -29.5t104 -81.5q-66 198 -182 353l-228 -131l-30 53l219 127q-105 127 -250 231v51
q200 -101 352 -223l242 139l31 -53l-221 -129q188 -166 291.5 -367t109.5 -423zM606 51q84 0 139 74.5t77.5 201.5t17.5 300q-3 105 -31 243q-42 77 -91.5 110.5t-117.5 33.5q-65 0 -111.5 -38t-72 -105t-36.5 -144t-11 -170q0 -118 12.5 -208.5t40 -158.5t73.5 -103.5
t111 -35.5z" />
    <glyph glyph-name="ntilde" unicode="&#xf1;" horiz-adv-x="1200" 
d="M772 1348q-44 0 -89 22.5t-76.5 49t-73 49t-80.5 22.5q-56 0 -80.5 -35.5t-36.5 -107.5h-51q6 60 16 106.5t30.5 96t56.5 77t85 27.5q45 0 90 -22.5t76 -49.5t73 -49.5t81 -22.5q56 0 80 35.5t36 108.5h52q-6 -60 -16.5 -106.5t-30.5 -96t-56.5 -77t-85.5 -27.5z
M432 1096v-191h6q155 221 344 221q228 0 228 -305v-602q0 -103 27.5 -135.5t121.5 -32.5v-51h-516v51q85 0 110 32.5t25 135.5v602q0 78 -24.5 118t-81.5 40q-111 0 -240 -166v-594q0 -103 25 -135.5t110 -32.5v-51h-516v51q94 0 122 32.5t28 135.5v586q0 98 -9 116
q-13 26 -63 6q-18 -7 -45 -20l-23 45l158 82l182 92z" />
    <glyph glyph-name="ograve" unicode="&#xf2;" horiz-adv-x="1122" 
d="M680 1288h-82l-281 381h226zM561 -41q-222 0 -355.5 164t-133.5 420t133.5 419.5t355.5 163.5t356 -163.5t134 -419.5t-134 -420t-356 -164zM604 53q113 9 157.5 134t22.5 376q-23 251 -87.5 365t-178.5 104q-113 -9 -156.5 -133.5t-21.5 -374.5q22 -251 86.5 -365.5
t177.5 -105.5z" />
    <glyph glyph-name="oacute" unicode="&#xf3;" horiz-adv-x="1122" 
d="M471 1288l137 381h226l-281 -381h-82zM561 -41q-222 0 -355.5 164t-133.5 420t133.5 419.5t355.5 163.5t356 -163.5t134 -419.5t-134 -420t-356 -164zM604 53q113 9 157.5 134t22.5 376q-23 251 -87.5 365t-178.5 104q-113 -9 -156.5 -133.5t-21.5 -374.5
q22 -251 86.5 -365.5t177.5 -105.5z" />
    <glyph glyph-name="ocircumflex" unicode="&#xf4;" horiz-adv-x="1122" 
d="M561 1542l-229 -264h-82l199 381h225l198 -381h-81zM561 1126q222 0 356 -163.5t134 -419.5t-134 -420t-356 -164t-355.5 164t-133.5 420t133.5 419.5t355.5 163.5zM604 53q113 9 157.5 134t22.5 376q-23 251 -87.5 365t-178.5 104q-113 -9 -156.5 -133.5t-21.5 -374.5
q22 -251 86.5 -365.5t177.5 -105.5z" />
    <glyph glyph-name="otilde" unicode="&#xf5;" horiz-adv-x="1122" 
d="M711 1348q-45 0 -90 22.5t-76 49t-73 49t-81 22.5q-56 0 -80.5 -35.5t-36.5 -107.5h-51q6 60 16.5 106.5t30.5 96t56.5 77t85.5 27.5q44 0 89 -22.5t76.5 -49.5t73 -49.5t80.5 -22.5q56 0 80.5 35.5t36.5 108.5h51q-6 -60 -16 -106.5t-30.5 -96t-56.5 -77t-85 -27.5z
M561 -41q-222 0 -355.5 164t-133.5 420t133.5 419.5t355.5 163.5t356 -163.5t134 -419.5t-134 -420t-356 -164zM604 53q113 9 157.5 134t22.5 376q-23 251 -87.5 365t-178.5 104q-113 -9 -156.5 -133.5t-21.5 -374.5q22 -251 86.5 -365.5t177.5 -105.5z" />
    <glyph glyph-name="odieresis" unicode="&#xf6;" horiz-adv-x="1122" 
d="M346 1352q-54 0 -93.5 39.5t-39.5 93.5q0 55 39.5 94t93.5 39q56 0 94.5 -39t38.5 -94q0 -54 -39 -93.5t-94 -39.5zM776 1352q-54 0 -93.5 39.5t-39.5 93.5q0 55 39.5 94t93.5 39q56 0 94.5 -39t38.5 -94q0 -54 -39 -93.5t-94 -39.5zM561 -41q-222 0 -355.5 164
t-133.5 420t133.5 419.5t355.5 163.5t356 -163.5t134 -419.5t-134 -420t-356 -164zM604 53q113 9 157.5 134t22.5 376q-23 251 -87.5 365t-178.5 104q-113 -9 -156.5 -133.5t-21.5 -374.5q22 -251 86.5 -365.5t177.5 -105.5z" />
    <glyph glyph-name="divide" unicode="&#xf7;" horiz-adv-x="942" 
d="M471 819q-41 0 -71.5 31t-30.5 72t30.5 71.5t71.5 30.5t71.5 -30.5t30.5 -71.5t-30.5 -72t-71.5 -31zM102 467v174h738v-174h-738zM471 82q-41 0 -71.5 30.5t-30.5 71.5t30.5 72t71.5 31t71.5 -31t30.5 -72t-30.5 -71.5t-71.5 -30.5z" />
    <glyph glyph-name="oslash" unicode="&#xf8;" horiz-adv-x="1122" 
d="M872 1010q86 -78 132.5 -198.5t46.5 -268.5q0 -256 -134 -420t-356 -164q-145 0 -252 72l-94 -164l-61 37l98 170q-86 78 -133 200t-47 269q0 256 133.5 419.5t355.5 163.5q144 0 256 -73l94 166l62 -37zM340 524q12 -133 37 -233l342 592q-65 161 -201 149
q-113 -9 -156.5 -133.5t-21.5 -374.5zM604 53q113 9 157.5 134t22.5 376q-12 136 -36 230l-340 -594q66 -155 196 -146z" />
    <glyph glyph-name="ugrave" unicode="&#xf9;" horiz-adv-x="1157" 
d="M700 1288h-82l-280 381h225zM760 -10v190h-6q-71 -102 -151 -161.5t-181 -59.5q-229 0 -229 305v582q0 37 -1.5 59t-6.5 42t-13.5 28t-25 12.5t-38.5 1t-55 -11.5l-12 49l172 45l180 45l31 -31v-821q0 -77 25.5 -116t82.5 -39q102 0 228 163v574q0 38 -1 59.5t-6 41.5
t-14 28t-25 12.5t-38 1t-55 -11.5l-13 49l172 45l181 45l30 -31v-804v-13v-42.5t1.5 -31.5t4 -25t8 -14.5t13.5 -8t20 2t27 8t37 17.5l22 -45l-333 -170z" />
    <glyph glyph-name="uacute" unicode="&#xfa;" horiz-adv-x="1157" 
d="M492 1288l137 381h225l-281 -381h-81zM760 -10v190h-6q-71 -102 -151 -161.5t-181 -59.5q-229 0 -229 305v582q0 37 -1.5 59t-6.5 42t-13.5 28t-25 12.5t-38.5 1t-55 -11.5l-12 49l172 45l180 45l31 -31v-821q0 -77 25.5 -116t82.5 -39q102 0 228 163v574q0 38 -1 59.5
t-6 41.5t-14 28t-25 12.5t-38 1t-55 -11.5l-13 49l172 45l181 45l30 -31v-804v-13v-42.5t1.5 -31.5t4 -25t8 -14.5t13.5 -8t20 2t27 8t37 17.5l22 -45l-333 -170z" />
    <glyph glyph-name="ucircumflex" unicode="&#xfb;" horiz-adv-x="1157" 
d="M582 1542l-230 -264h-82l199 381h225l199 -381h-82zM1102 174l22 -45l-333 -170l-31 31v190h-6q-71 -102 -151 -161.5t-181 -59.5q-229 0 -229 305v582q0 37 -1.5 59t-6.5 42t-13.5 28t-25 12.5t-38.5 1t-55 -11.5l-12 49l172 45l180 45l31 -31v-821q0 -77 25.5 -116
t82.5 -39q102 0 228 163v574q0 38 -1 59.5t-6 41.5t-14 28t-25 12.5t-38 1t-55 -11.5l-13 49l172 45l181 45l30 -31v-804v-13v-42.5t1.5 -31.5t4 -25t8 -14.5t13.5 -8t20 2t27 8t37 17.5z" />
    <glyph glyph-name="udieresis" unicode="&#xfc;" horiz-adv-x="1157" 
d="M367 1352q-54 0 -94 39.5t-40 93.5q0 55 40 94t94 39q55 0 94 -39t39 -94q0 -54 -39 -93.5t-94 -39.5zM797 1352q-54 0 -93.5 39.5t-39.5 93.5q0 55 39.5 94t93.5 39q55 0 94 -39t39 -94q0 -54 -39 -93.5t-94 -39.5zM760 -10v190h-6q-71 -102 -151 -161.5t-181 -59.5
q-229 0 -229 305v582q0 37 -1.5 59t-6.5 42t-13.5 28t-25 12.5t-38.5 1t-55 -11.5l-12 49l172 45l180 45l31 -31v-821q0 -77 25.5 -116t82.5 -39q102 0 228 163v574q0 38 -1 59.5t-6 41.5t-14 28t-25 12.5t-38 1t-55 -11.5l-13 49l172 45l181 45l30 -31v-804v-13v-42.5
t1.5 -31.5t4 -25t8 -14.5t13.5 -8t20 2t27 8t37 17.5l22 -45l-333 -170z" />
    <glyph glyph-name="yacute" unicode="&#xfd;" horiz-adv-x="1056" 
d="M457 1288l137 381h225l-280 -381h-82zM43 -330q0 57 37.5 93t87.5 36q65 0 115 -59q22 -25 36 -34t37 -9q52 0 89 62t69 204l-309 916q-31 92 -68.5 123.5t-105.5 31.5v51h532v-51q-92 0 -106.5 -31t18.5 -129l158 -524l137 524q30 97 14 128.5t-108 31.5v51h350v-51
q-68 0 -102 -32.5t-60 -127.5l-231 -837q-6 -22 -19 -66q-22 -80 -34.5 -119.5t-37 -105t-49.5 -99t-61 -71t-83 -53t-105 -15.5q-90 0 -145.5 45t-55.5 117z" />
    <glyph glyph-name="thorn" unicode="&#xfe;" horiz-adv-x="1234" 
d="M793 1126q120 0 205 -71t125 -186t40 -261q0 -181 -60.5 -330.5t-165 -234t-230.5 -84.5q-91 0 -156.5 37.5t-114.5 120.5h-4v-348q0 -103 28 -135.5t122 -32.5v-52h-531v52q94 0 122 32.5t28 135.5v1589v13v34.5t-1 27.5t-2 23.5t-4 16.5t-7 12t-10 5.5t-14 1.5t-19 -5
t-24 -8.5t-30 -14.5l-22 45l333 170l31 -30v-775h8q140 252 353 252zM651 51q68 0 118 41.5t77 114t39 156.5t12 184q0 228 -48.5 337t-150.5 109q-85 0 -152.5 -54.5t-113.5 -145.5v-379q0 -168 61.5 -265.5t157.5 -97.5z" />
    <glyph glyph-name="ydieresis" unicode="&#xff;" horiz-adv-x="1056" 
d="M332 1352q-54 0 -93.5 39.5t-39.5 93.5q0 55 39.5 94t93.5 39q56 0 94.5 -39t38.5 -94q0 -54 -39 -93.5t-94 -39.5zM762 1352q-54 0 -93.5 39.5t-39.5 93.5q0 55 39.5 94t93.5 39q56 0 94.5 -39t38.5 -94q0 -54 -39 -93.5t-94 -39.5zM43 -330q0 57 37.5 93t87.5 36
q65 0 115 -59q22 -25 36 -34t37 -9q52 0 89 62t69 204l-309 916q-31 92 -68.5 123.5t-105.5 31.5v51h532v-51q-92 0 -106.5 -31t18.5 -129l158 -524l137 524q30 97 14 128.5t-108 31.5v51h350v-51q-68 0 -102 -32.5t-60 -127.5l-231 -837q-6 -22 -19 -66
q-22 -80 -34.5 -119.5t-37 -105t-49.5 -99t-61 -71t-83 -53t-105 -15.5q-90 0 -145.5 45t-55.5 117z" />
    <glyph glyph-name="Amacron" unicode="&#x100;" horiz-adv-x="1562" 
d="M1100 2044v-92h-656v92h656zM1323 209q32 -95 77 -126.5t142 -31.5v-51h-684v51q93 0 131.5 14.5t40.5 49.5t-20 94l-92 280h-500l-90 -280q-22 -59 -19 -94t42 -49.5t132 -14.5v-51h-463v51q97 0 141.5 31.5t76.5 126.5l471 1477h122zM446 582h441l-221 671h-7z" />
    <glyph glyph-name="amacron" unicode="&#x101;" horiz-adv-x="1048" 
d="M836 1511v-92h-656v92h656zM977 141h51q-27 -91 -70.5 -136.5t-134.5 -45.5q-195 0 -198 211h-4q-19 -30 -32.5 -49t-44.5 -53.5t-62 -55t-79 -37t-100 -16.5q-110 0 -176 70.5t-66 191.5q0 59 15.5 109t45.5 88.5t66.5 69.5t85.5 58.5t95 49t103 45.5q12 5 18.5 7.5
t17 7t18.5 8.5l99 45v92q0 132 -30 191t-118 59q-58 0 -94.5 -25.5t-36.5 -69.5q0 -24 15.5 -60t15.5 -67q0 -41 -35 -67.5t-92 -26.5q-61 0 -95 39.5t-34 108.5q0 113 104 178t269 65q171 0 266.5 -83.5t95.5 -245.5v-654q0 -49 9 -70.5t36 -21.5q26 0 41.5 20t34.5 70z
M422 123q54 0 101.5 31.5t101.5 99.5v373l-88 -41q-250 -114 -250 -299q0 -80 37.5 -122t97.5 -42z" />
    <glyph glyph-name="Abreve" unicode="&#x102;" horiz-adv-x="1562" 
d="M772 1853q-127 0 -206 80.5t-91 237.5h51q15 -70 80.5 -106.5t165.5 -36.5t165.5 36.5t80.5 106.5h51q-10 -157 -90 -237.5t-207 -80.5zM1323 209q32 -95 77 -126.5t142 -31.5v-51h-684v51q93 0 131.5 14.5t40.5 49.5t-20 94l-92 280h-500l-90 -280q-22 -59 -19 -94
t42 -49.5t132 -14.5v-51h-463v51q97 0 141.5 31.5t76.5 126.5l471 1477h122zM446 582h441l-221 671h-7z" />
    <glyph glyph-name="abreve" unicode="&#x103;" horiz-adv-x="1048" 
d="M508 1321q-127 0 -206 80t-91 237h51q15 -70 80.5 -106.5t165.5 -36.5t165.5 36.5t80.5 106.5h51q-10 -156 -90 -236.5t-207 -80.5zM977 141h51q-27 -91 -70.5 -136.5t-134.5 -45.5q-195 0 -198 211h-4q-19 -30 -32.5 -49t-44.5 -53.5t-62 -55t-79 -37t-100 -16.5
q-110 0 -176 70.5t-66 191.5q0 59 15.5 109t45.5 88.5t66.5 69.5t85.5 58.5t95 49t103 45.5q12 5 18.5 7.5t17 7t18.5 8.5l99 45v92q0 132 -30 191t-118 59q-58 0 -94.5 -25.5t-36.5 -69.5q0 -24 15.5 -60t15.5 -67q0 -41 -35 -67.5t-92 -26.5q-61 0 -95 39.5t-34 108.5
q0 113 104 178t269 65q171 0 266.5 -83.5t95.5 -245.5v-654q0 -49 9 -70.5t36 -21.5q26 0 41.5 20t34.5 70zM422 123q54 0 101.5 31.5t101.5 99.5v373l-88 -41q-250 -114 -250 -299q0 -80 37.5 -122t97.5 -42z" />
    <glyph glyph-name="Aogonek" unicode="&#x104;" horiz-adv-x="1562" 
d="M1358 0q-24 -27 -65 -63t-64.5 -58t-42.5 -60.5t-19 -84.5q0 -61 35 -97t101 -36q65 0 170 47l12 -51q-120 -99 -258 -99q-98 0 -166 53t-68 150q0 56 23.5 100t62.5 72.5t78.5 48.5t82.5 40.5t63 37.5h-445v51q93 0 131.5 14.5t40.5 49.5t-20 94l-92 280h-500l-90 -280
q-22 -59 -19 -94t42 -49.5t132 -14.5v-51h-463v51q97 0 141.5 31.5t76.5 126.5l471 1477h122l492 -1477q32 -95 77 -126.5t142 -31.5v-51h-184zM446 582h441l-221 671h-7z" />
    <glyph glyph-name="aogonek" unicode="&#x105;" horiz-adv-x="1048" 
d="M1036 -373l13 -51q-119 -98 -258 -98q-98 0 -166 53t-68 150q0 51 18.5 91t53.5 69t65.5 47t77 39.5t64.5 31.5h-13q-195 0 -198 211h-4q-19 -30 -32.5 -49t-44.5 -53.5t-62 -55t-79 -37t-100 -16.5q-110 0 -176 70.5t-66 191.5q0 59 15.5 109t45.5 88.5t66.5 69.5
t85.5 58.5t95 49t103 45.5q12 5 18.5 7.5t17 7t18.5 8.5l99 45v92q0 132 -30 191t-118 59q-58 0 -94.5 -25.5t-36.5 -69.5q0 -24 15.5 -60t15.5 -67q0 -41 -35 -67.5t-92 -26.5q-61 0 -95 39.5t-34 108.5q0 113 104 178t269 65q171 0 266.5 -83.5t95.5 -245.5v-654
q0 -49 9 -70.5t36 -21.5q26 0 41.5 20t34.5 70h51q-34 -124 -106 -161q-24 -27 -65 -63t-64.5 -58.5t-42.5 -61t-19 -84.5q0 -62 34.5 -97.5t100.5 -35.5q65 0 170 47zM422 123q54 0 101.5 31.5t101.5 99.5v373l-88 -41q-250 -114 -250 -299q0 -80 37.5 -122t97.5 -42z" />
    <glyph glyph-name="Cacute" unicode="&#x106;" horiz-adv-x="1425" 
d="M700 1790l138 381h225l-281 -381h-82zM72 819q0 250 89.5 445.5t253.5 305t376 109.5q78 0 150 -17.5t113 -38.5t77 -38.5t51 -17.5q22 0 30.5 17.5t8.5 74.5h51l31 -563h-52q-49 491 -399 491q-150 0 -258 -101.5t-161.5 -273t-53.5 -393.5q0 -220 53 -387.5t159 -263.5
t251 -96q191 0 321 155t170 435h51q-22 -158 -68 -283.5t-118 -221t-178 -147t-240 -51.5q-159 0 -291.5 64t-224 177t-142 272.5t-50.5 346.5z" />
    <glyph glyph-name="cacute" unicode="&#x107;" horiz-adv-x="942" 
d="M459 1288l137 381h225l-280 -381h-82zM614 856q-8 95 -28 136.5t-68 41.5q-90 0 -135 -121t-45 -329q0 -225 71 -353.5t193 -128.5q80 0 139.5 74t108.5 252h51q-73 -469 -405 -469q-197 0 -310.5 151.5t-113.5 411.5q0 278 128.5 441t331.5 163q139 0 238.5 -78.5
t99.5 -191.5q0 -58 -30 -89.5t-88 -31.5q-60 0 -96 30.5t-42 90.5z" />
    <glyph glyph-name="Cdotaccent" unicode="&#x10a;" horiz-adv-x="1425" 
d="M791 1853q-54 0 -94 40t-40 94q0 55 40 94t94 39q55 0 94 -39t39 -94q0 -54 -39 -94t-94 -40zM72 819q0 250 89.5 445.5t253.5 305t376 109.5q78 0 150 -17.5t113 -38.5t77 -38.5t51 -17.5q22 0 30.5 17.5t8.5 74.5h51l31 -563h-52q-49 491 -399 491q-150 0 -258 -101.5
t-161.5 -273t-53.5 -393.5q0 -220 53 -387.5t159 -263.5t251 -96q191 0 321 155t170 435h51q-22 -158 -68 -283.5t-118 -221t-178 -147t-240 -51.5q-159 0 -291.5 64t-224 177t-142 272.5t-50.5 346.5z" />
    <glyph glyph-name="cdotaccent" unicode="&#x10b;" horiz-adv-x="942" 
d="M549 1352q-54 0 -93.5 39.5t-39.5 93.5q0 55 39.5 94t93.5 39q55 0 94 -39t39 -94q0 -54 -39 -93.5t-94 -39.5zM614 856q-8 95 -28 136.5t-68 41.5q-90 0 -135 -121t-45 -329q0 -225 71 -353.5t193 -128.5q80 0 139.5 74t108.5 252h51q-73 -469 -405 -469
q-197 0 -310.5 151.5t-113.5 411.5q0 278 128.5 441t331.5 163q139 0 238.5 -78.5t99.5 -191.5q0 -58 -30 -89.5t-88 -31.5q-60 0 -96 30.5t-42 90.5z" />
    <glyph glyph-name="Ccaron" unicode="&#x10c;" horiz-adv-x="1425" 
d="M678 1780l-199 381h82l230 -265l229 265h82l-199 -381h-225zM1333 662h51q-22 -158 -68 -283.5t-118 -221t-178 -147t-240 -51.5q-159 0 -291.5 64t-224 177t-142 272.5t-50.5 346.5q0 250 89.5 445.5t253.5 305t376 109.5q78 0 150 -17.5t113 -38.5t77 -38.5t51 -17.5
q22 0 30.5 17.5t8.5 74.5h51l31 -563h-52q-49 491 -399 491q-150 0 -258 -101.5t-161.5 -273t-53.5 -393.5q0 -220 53 -387.5t159 -263.5t251 -96q191 0 321 155t170 435z" />
    <glyph glyph-name="ccaron" unicode="&#x10d;" horiz-adv-x="942" 
d="M436 1278l-198 381h81l230 -264l229 264h82l-198 -381h-226zM850 428h51q-73 -469 -405 -469q-197 0 -310.5 151.5t-113.5 411.5q0 278 128.5 441t331.5 163q139 0 238.5 -78.5t99.5 -191.5q0 -58 -30 -89.5t-88 -31.5q-60 0 -96 30.5t-42 90.5q-8 95 -28 136.5t-68 41.5
q-90 0 -135 -121t-45 -329q0 -225 71 -353.5t193 -128.5q80 0 139.5 74t108.5 252z" />
    <glyph glyph-name="Dcaron" unicode="&#x10e;" horiz-adv-x="1634" 
d="M659 1780l-198 381h82l229 -265l229 265h82l-198 -381h-226zM750 1638q132 0 250 -28.5t222 -92t179 -157.5t118.5 -232.5t43.5 -308.5q0 -169 -45 -308t-121.5 -232.5t-181 -157.5t-221 -92.5t-244.5 -28.5h-709v51q94 0 141.5 17t63.5 50.5t16 100.5v1200
q0 67 -16 100.5t-63.5 50.5t-141.5 17v51h709zM750 92q247 0 376 191t129 536t-129 536t-376 191q-127 0 -205 -37v-1380q78 -37 205 -37z" />
    <glyph glyph-name="dcaron" unicode="&#x10f;" horiz-adv-x="1417" 
d="M993 281v-13v-42.5t1.5 -31.5t4 -25t8 -14.5t13.5 -8t20 2t27 8t37 17.5l22 -45l-333 -170l-31 31v180h-8q-64 -105 -136.5 -158t-173.5 -53q-169 0 -270.5 145t-101.5 396q0 183 53.5 325.5t151.5 221.5t225 79q154 0 256 -127h4v359v13v34.5t-1 27.5t-2 23.5t-4 16.5
t-7 12t-10 5.5t-14 1.5t-19 -5t-24 -8.5t-30 -14.5l-22 45l334 170l30 -30v-1368zM1290 1679q46 0 71 -30t25 -88q0 -69 -29.5 -227.5t-39.5 -227.5h-51q-11 81 -42.5 234.5t-31.5 220.5q0 58 26 88t72 30zM762 272v390q0 181 -56.5 276.5t-146.5 95.5q-62 0 -106 -36.5
t-68.5 -103t-35.5 -146.5t-11 -179q0 -101 11 -184.5t34.5 -150.5t64.5 -104.5t95 -37.5q67 0 116 46.5t103 133.5z" />
    <glyph glyph-name="Dcroat" unicode="&#x110;" horiz-adv-x="1634" 
d="M750 1638q132 0 250 -28.5t222 -92t179 -157.5t118.5 -232.5t43.5 -308.5q0 -169 -45 -308t-121.5 -232.5t-181 -157.5t-221 -92.5t-244.5 -28.5h-709v51q94 0 141.5 17t63.5 50.5t16 100.5v631h-180v61h180v508q0 67 -16 100.5t-63.5 50.5t-141.5 17v51h709zM750 92
q247 0 376 191t129 536t-129 536t-376 191q-127 0 -205 -37v-598h342v-61h-342v-721q78 -37 205 -37z" />
    <glyph glyph-name="dcroat" unicode="&#x111;" horiz-adv-x="1339" 
d="M993 1264v-983v-13v-42.5t1.5 -31.5t4 -25t8 -14.5t13.5 -8t20 2t27 8t37 17.5l22 -45l-333 -170l-31 31v180h-8q-64 -105 -136.5 -158t-173.5 -53q-169 0 -270.5 145t-101.5 396q0 183 53.5 325.5t151.5 221.5t225 79q154 0 256 -127h4v265h-260v61h260v33v13v34.5
t-1 27.5t-2 23.5t-4 16.5t-7 12t-10 5.5t-14 1.5t-19 -5t-24 -8.5t-30 -14.5l-22 45l334 170l30 -30v-324h244v-61h-244zM762 272v390q0 181 -56.5 276.5t-146.5 95.5q-62 0 -106 -36.5t-68.5 -103t-35.5 -146.5t-11 -179q0 -101 11 -184.5t34.5 -150.5t64.5 -104.5
t95 -37.5q67 0 116 46.5t103 133.5z" />
    <glyph glyph-name="Emacron" unicode="&#x112;" horiz-adv-x="1335" 
d="M344 2013h655v-92h-655v92zM1171 1638l9 -63l41 -336l-52 -6q-17 132 -41 198.5t-60.5 90.5t-102.5 24h-420v-639h243q67 0 100.5 17.5t50.5 69.5t17 155h52v-264l-2 -49l2 -265h-52q0 103 -17 155.5t-51 70.5t-100 18h-243v-606q0 -72 18 -94.5t78 -22.5h352
q65 0 107.5 30t81.5 111t82 236l49 -14l-111 -396l-16 -59h-1145v51q94 0 141.5 17t63.5 50.5t16 100.5v1200q0 67 -16 100.5t-63.5 50.5t-141.5 17v51h1130z" />
    <glyph glyph-name="emacron" unicode="&#x113;" horiz-adv-x="931" 
d="M815 1511v-92h-655v92h655zM807 428h51q-36 -233 -136 -351t-255 -118q-182 0 -288.5 153.5t-106.5 419.5q0 160 47 293.5t143 217t223 83.5q124 0 209 -71t123.5 -187.5t38.5 -269.5h-549q2 -217 65.5 -341t184.5 -124q167 0 250 295zM477 1034q-57 0 -93.5 -43.5
t-53.5 -117t-21 -183.5h312q0 80 -6.5 139.5t-22 107.5t-44.5 72.5t-71 24.5z" />
    <glyph glyph-name="Edotaccent" unicode="&#x116;" horiz-adv-x="1335" 
d="M672 1853q-54 0 -93.5 40t-39.5 94q0 55 39.5 94t93.5 39q56 0 94.5 -39t38.5 -94q0 -54 -39 -94t-94 -40zM1171 1638l9 -63l41 -336l-52 -6q-17 132 -41 198.5t-60.5 90.5t-102.5 24h-420v-639h243q67 0 100.5 17.5t50.5 69.5t17 155h52v-264l-2 -49l2 -265h-52
q0 103 -17 155.5t-51 70.5t-100 18h-243v-606q0 -72 18 -94.5t78 -22.5h352q65 0 107.5 30t81.5 111t82 236l49 -14l-111 -396l-16 -59h-1145v51q94 0 141.5 17t63.5 50.5t16 100.5v1200q0 67 -16 100.5t-63.5 50.5t-141.5 17v51h1130z" />
    <glyph glyph-name="edotaccent" unicode="&#x117;" horiz-adv-x="931" 
d="M487 1352q-54 0 -93.5 39.5t-39.5 93.5q0 55 39.5 94t93.5 39q56 0 95 -39t39 -94q0 -54 -39.5 -93.5t-94.5 -39.5zM807 428h51q-36 -233 -136 -351t-255 -118q-182 0 -288.5 153.5t-106.5 419.5q0 160 47 293.5t143 217t223 83.5q124 0 209 -71t123.5 -187.5
t38.5 -269.5h-549q2 -217 65.5 -341t184.5 -124q167 0 250 295zM477 1034q-57 0 -93.5 -43.5t-53.5 -117t-21 -183.5h312q0 80 -6.5 139.5t-22 107.5t-44.5 72.5t-71 24.5z" />
    <glyph glyph-name="Eogonek" unicode="&#x118;" horiz-adv-x="1335" 
d="M1303 -352l12 -51q-120 -99 -258 -99q-98 0 -166 53t-68 150q0 56 23.5 100t62.5 72.5t78.5 48.5t82.5 40.5t63 37.5h-1092v51q94 0 141.5 17t63.5 50.5t16 100.5v1200q0 67 -16 100.5t-63.5 50.5t-141.5 17v51h1130l9 -63l41 -336l-52 -6q-17 132 -41 198.5t-60.5 90.5
t-102.5 24h-420v-639h243q67 0 100.5 17.5t50.5 69.5t17 155h52v-264l-2 -49l2 -265h-52q0 103 -17 155.5t-51 70.5t-100 18h-243v-606q0 -72 18 -94.5t78 -22.5h352q65 0 107.5 30t81.5 111t82 236l49 -14l-111 -396l-16 -59h2q-24 -27 -65 -63t-64.5 -58t-42.5 -60.5
t-19 -84.5q0 -61 35 -97t101 -36q65 0 170 47z" />
    <glyph glyph-name="eogonek" unicode="&#x119;" horiz-adv-x="931" 
d="M537 -420q65 0 170 47l12 -51q-119 -98 -258 -98q-98 0 -166 53t-68 150q0 43 15 79.5t36.5 60.5t54.5 46.5t60.5 35.5t63 30t53.5 28q-14 -2 -43 -2q-182 0 -288.5 153.5t-106.5 419.5q0 160 47 293.5t143 217t223 83.5q124 0 209 -71t123.5 -187.5t38.5 -269.5h-549
q2 -217 65.5 -341t184.5 -124q167 0 250 295h51q-58 -370 -272 -448h6q-24 -27 -65 -63t-64.5 -58.5t-42.5 -61t-19 -84.5q0 -61 35 -97t101 -36zM477 1034q-57 0 -93.5 -43.5t-53.5 -117t-21 -183.5h312q0 80 -6.5 139.5t-22 107.5t-44.5 72.5t-71 24.5z" />
    <glyph glyph-name="Ecaron" unicode="&#x11a;" horiz-adv-x="1335" 
d="M559 1780l-199 381h82l230 -265l229 265h82l-199 -381h-225zM1264 469l49 -14l-111 -396l-16 -59h-1145v51q94 0 141.5 17t63.5 50.5t16 100.5v1200q0 67 -16 100.5t-63.5 50.5t-141.5 17v51h1130l9 -63l41 -336l-52 -6q-17 132 -41 198.5t-60.5 90.5t-102.5 24h-420
v-639h243q67 0 100.5 17.5t50.5 69.5t17 155h52v-264l-2 -49l2 -265h-52q0 103 -17 155.5t-51 70.5t-100 18h-243v-606q0 -72 18 -94.5t78 -22.5h352q65 0 107.5 30t81.5 111t82 236z" />
    <glyph glyph-name="ecaron" unicode="&#x11b;" horiz-adv-x="931" 
d="M375 1278l-199 381h82l229 -264l230 264h82l-199 -381h-225zM807 428h51q-36 -233 -136 -351t-255 -118q-182 0 -288.5 153.5t-106.5 419.5q0 160 47 293.5t143 217t223 83.5q124 0 209 -71t123.5 -187.5t38.5 -269.5h-549q2 -217 65.5 -341t184.5 -124q167 0 250 295z
M477 1034q-57 0 -93.5 -43.5t-53.5 -117t-21 -183.5h312q0 80 -6.5 139.5t-22 107.5t-44.5 72.5t-71 24.5z" />
    <glyph glyph-name="Gbreve" unicode="&#x11e;" horiz-adv-x="1646" 
d="M1143 2140q-10 -156 -90 -236.5t-207 -80.5t-206 80t-91 237h51q15 -70 80.5 -106.5t165.5 -36.5t165.5 36.5t80.5 106.5h51zM72 809q0 183 54.5 342.5t153 276t244 184t318.5 67.5q91 0 169 -16t119.5 -35t76.5 -35t50 -16q21 0 28 15.5t7 66.5h51l31 -563h-51
q-27 250 -132 370.5t-304 120.5q-130 0 -229 -59.5t-159 -166t-90 -245.5t-30 -307q0 -758 493 -758q169 0 287 107v481q0 67 -26 100.5t-104.5 50.5t-233.5 17v51h800v-51q-94 0 -121.5 -32.5t-27.5 -135.5v-455q-233 -225 -584 -225q-181 0 -330.5 64.5t-249.5 178
t-155 269.5t-55 338z" />
    <glyph glyph-name="gbreve" unicode="&#x11f;" horiz-adv-x="1034" 
d="M508 1321q-127 0 -206 80t-91 237h51q15 -70 80.5 -106.5t165.5 -36.5t165.5 36.5t80.5 106.5h51q-10 -156 -90 -236.5t-207 -80.5zM522 195q243 0 362.5 -67t119.5 -218q0 -105 -75 -197t-209.5 -148.5t-295.5 -56.5q-84 0 -155 14.5t-128 43t-89 77t-32 111.5
q0 82 54 150.5t149 136.5q-62 20 -91.5 57t-29.5 97q0 40 23.5 84.5t49 73.5t71.5 75q-71 52 -111.5 131t-40.5 180q0 175 115 281t280 106q125 0 220 -59q115 59 221 59q84 0 84 -65q0 -57 -64 -57q-106 0 -149 -7l-31 21q115 -108 115 -279q0 -117 -56 -206.5t-145 -135
t-195 -45.5q-104 0 -192 45q-38 -37 -55 -61t-17 -49q0 -51 70 -71.5t227 -20.5zM463 1044q-157 -12 -133 -317q13 -154 60 -224.5t126 -64.5q163 12 133 316q-15 155 -60.5 226.5t-125.5 63.5zM524 -307q171 0 279 51t108 143q0 73 -81 98t-275 25q-160 0 -262 15
q-61 -53 -85 -94t-24 -83q0 -74 89 -114.5t251 -40.5z" />
    <glyph glyph-name="Gdotaccent" unicode="&#x120;" horiz-adv-x="1646" 
d="M846 1853q-54 0 -93.5 40t-39.5 94q0 55 39.5 94t93.5 39q56 0 94.5 -39t38.5 -94q0 -54 -39 -94t-94 -40zM72 809q0 183 54.5 342.5t153 276t244 184t318.5 67.5q91 0 169 -16t119.5 -35t76.5 -35t50 -16q21 0 28 15.5t7 66.5h51l31 -563h-51q-27 250 -132 370.5
t-304 120.5q-130 0 -229 -59.5t-159 -166t-90 -245.5t-30 -307q0 -758 493 -758q169 0 287 107v481q0 67 -26 100.5t-104.5 50.5t-233.5 17v51h800v-51q-94 0 -121.5 -32.5t-27.5 -135.5v-455q-233 -225 -584 -225q-181 0 -330.5 64.5t-249.5 178t-155 269.5t-55 338z" />
    <glyph glyph-name="gdotaccent" unicode="&#x121;" horiz-adv-x="1034" 
d="M508 1352q-54 0 -93.5 39.5t-39.5 93.5q0 55 39.5 94t93.5 39q56 0 94.5 -39t38.5 -94q0 -54 -39 -93.5t-94 -39.5zM522 195q243 0 362.5 -67t119.5 -218q0 -105 -75 -197t-209.5 -148.5t-295.5 -56.5q-84 0 -155 14.5t-128 43t-89 77t-32 111.5q0 82 54 150.5t149 136.5
q-62 20 -91.5 57t-29.5 97q0 40 23.5 84.5t49 73.5t71.5 75q-71 52 -111.5 131t-40.5 180q0 175 115 281t280 106q125 0 220 -59q115 59 221 59q84 0 84 -65q0 -57 -64 -57q-106 0 -149 -7l-31 21q115 -108 115 -279q0 -117 -56 -206.5t-145 -135t-195 -45.5q-104 0 -192 45
q-38 -37 -55 -61t-17 -49q0 -51 70 -71.5t227 -20.5zM463 1044q-157 -12 -133 -317q13 -154 60 -224.5t126 -64.5q163 12 133 316q-15 155 -60.5 226.5t-125.5 63.5zM524 -307q171 0 279 51t108 143q0 73 -81 98t-275 25q-160 0 -262 15q-61 -53 -85 -94t-24 -83
q0 -74 89 -114.5t251 -40.5z" />
    <glyph glyph-name="uni0122" unicode="&#x122;" horiz-adv-x="1646" 
d="M72 809q0 183 54.5 342.5t153 276t244 184t318.5 67.5q91 0 169 -16t119.5 -35t76.5 -35t50 -16q21 0 28 15.5t7 66.5h51l31 -563h-51q-27 250 -132 370.5t-304 120.5q-130 0 -229 -59.5t-159 -166t-90 -245.5t-30 -307q0 -758 493 -758q169 0 287 107v481
q0 67 -26 100.5t-104.5 50.5t-233.5 17v51h800v-51q-94 0 -121.5 -32.5t-27.5 -135.5v-455q-233 -225 -584 -225q-181 0 -330.5 64.5t-249.5 178t-155 269.5t-55 338zM860 -346q-28 0 -50 25.5t-22 68.5q0 50 33 76t82 26q59 0 95 -39.5t36 -103.5q0 -164 -219 -217v51
q52 12 91.5 39.5t39.5 63.5q0 30 -20 30q-5 0 -25 -10t-41 -10z" />
    <glyph glyph-name="uni0123" unicode="&#x123;" horiz-adv-x="1034" 
d="M516 1356q-59 0 -95 39.5t-36 103.5q0 164 219 217v-51q-53 -12 -92 -39t-39 -63q0 -31 21 -31q5 0 24.5 10t40.5 10q28 0 50 -25.5t22 -68.5q0 -50 -33 -76t-82 -26zM522 195q243 0 362.5 -67t119.5 -218q0 -105 -75 -197t-209.5 -148.5t-295.5 -56.5q-84 0 -155 14.5
t-128 43t-89 77t-32 111.5q0 82 54 150.5t149 136.5q-62 20 -91.5 57t-29.5 97q0 40 23.5 84.5t49 73.5t71.5 75q-71 52 -111.5 131t-40.5 180q0 175 115 281t280 106q125 0 220 -59q115 59 221 59q84 0 84 -65q0 -57 -64 -57q-106 0 -149 -7l-31 21q115 -108 115 -279
q0 -117 -56 -206.5t-145 -135t-195 -45.5q-104 0 -192 45q-38 -37 -55 -61t-17 -49q0 -51 70 -71.5t227 -20.5zM463 1044q-157 -12 -133 -317q13 -154 60 -224.5t126 -64.5q163 12 133 316q-15 155 -60.5 226.5t-125.5 63.5zM524 -307q171 0 279 51t108 143q0 73 -81 98
t-275 25q-160 0 -262 15q-61 -53 -85 -94t-24 -83q0 -74 89 -114.5t251 -40.5z" />
    <glyph glyph-name="Hbar" unicode="&#x126;" horiz-adv-x="1734" 
d="M1663 1227h-238v-1008q0 -66 16.5 -100t64 -51t141.5 -17v-51h-725v51q94 0 141.5 17t63.5 50.5t16 100.5v600h-590v-600q0 -67 16 -100.5t63.5 -50.5t141.5 -17v-51h-725v51q94 0 141.5 17t63.5 50.5t16 100.5v1008h-198v61h198v131q0 67 -16 100.5t-63.5 50.5
t-141.5 17v51h725v-51q-94 0 -141.5 -17t-63.5 -50.5t-16 -100.5v-131h590v131q0 67 -16 100.5t-63.5 50.5t-141.5 17v51h725v-51q-94 0 -141.5 -17t-64 -51t-16.5 -100v-131h238v-61zM1143 911v316h-590v-316h590z" />
    <glyph glyph-name="hbar" unicode="&#x127;" horiz-adv-x="1341" 
d="M1030 219q0 -103 28 -135.5t122 -32.5v-51h-516v51q85 0 110 32.5t25 135.5v602q0 158 -107 158q-110 0 -239 -166v-594q0 -103 25 -135.5t110 -32.5v-51h-516v51q94 0 121.5 32.5t27.5 135.5v1045h-160v61h160v33q0 98 -9 116q-13 26 -63 6q-18 -7 -45 -20l-22 45
l158 82l182 92l31 -30v-324h344v-61h-344v-359h6q155 221 344 221q227 0 227 -305v-602z" />
    <glyph glyph-name="Imacron" unicode="&#x12a;" horiz-adv-x="806" 
d="M76 2013h655v-92h-655v92zM262 1419q0 67 -16 100.5t-63.5 50.5t-141.5 17v51h725v-51q-94 0 -141.5 -17t-63.5 -50.5t-16 -100.5v-1200q0 -67 16 -100.5t63.5 -50.5t141.5 -17v-51h-725v51q94 0 141.5 17t63.5 50.5t16 100.5v1200z" />
    <glyph glyph-name="imacron" unicode="&#x12b;" horiz-adv-x="622" 
d="M-39 1511h655v-92h-655v92zM432 219q0 -103 28 -135.5t122 -32.5v-51h-531v51q94 0 122 32.5t28 135.5v586q0 98 -9 116q-13 26 -63 6q-18 -7 -45 -20l-23 45l158 82l182 92l31 -30v-877z" />
    <glyph glyph-name="Iogonek" unicode="&#x12e;" horiz-adv-x="806" 
d="M766 1587q-94 0 -141.5 -17t-63.5 -50.5t-16 -100.5v-1200q0 -67 16 -100.5t63.5 -50.5t141.5 -17v-51h-160q-24 -27 -64.5 -63t-64 -58t-42.5 -60.5t-19 -84.5q0 -62 34.5 -97.5t100.5 -35.5q65 0 170 47l12 -51q-120 -99 -258 -99q-98 0 -165.5 53t-67.5 150
q0 56 23.5 100t62.5 72.5t78 48.5t82 40.5t63 37.5h-510v51q94 0 141.5 17t63.5 50.5t16 100.5v1200q0 67 -16 100.5t-63.5 50.5t-141.5 17v51h725v-51z" />
    <glyph glyph-name="iogonek" unicode="&#x12f;" horiz-adv-x="622" 
d="M289 1352q-54 0 -93.5 39.5t-39.5 93.5q0 55 39.5 94t93.5 39q55 0 94 -39t39 -94q0 -54 -39 -93.5t-94 -39.5zM586 -352l12 -51q-120 -99 -258 -99q-98 0 -166 53t-68 150q0 56 23.5 100t62.5 72.5t78.5 48.5t82.5 40.5t63 37.5h-365v51q94 0 122 32.5t28 135.5v586
q0 98 -9 116q-13 26 -63 6q-18 -7 -45 -20l-23 45l158 82l182 92l31 -30v-877q0 -103 28 -135.5t122 -32.5v-51h-111q-24 -27 -64.5 -63t-64 -58t-42.5 -60.5t-19 -84.5q0 -62 34.5 -97.5t100.5 -35.5q65 0 170 47z" />
    <glyph glyph-name="Idotaccent" unicode="&#x130;" horiz-adv-x="806" 
d="M403 1853q-54 0 -93.5 40t-39.5 94q0 55 39.5 94t93.5 39q56 0 95 -39t39 -94q0 -54 -39.5 -94t-94.5 -40zM262 1419q0 67 -16 100.5t-63.5 50.5t-141.5 17v51h725v-51q-94 0 -141.5 -17t-63.5 -50.5t-16 -100.5v-1200q0 -67 16 -100.5t63.5 -50.5t141.5 -17v-51h-725v51
q94 0 141.5 17t63.5 50.5t16 100.5v1200z" />
    <glyph glyph-name="dotlessi" unicode="&#x131;" horiz-adv-x="622" 
d="M432 219q0 -103 28 -135.5t122 -32.5v-51h-531v51q94 0 122 32.5t28 135.5v586q0 98 -9 116q-13 26 -63 6q-18 -7 -45 -20l-23 45l158 82l182 92l31 -30v-877z" />
    <glyph glyph-name="uni0136" unicode="&#x136;" horiz-adv-x="1728" 
d="M252 1419q0 67 -16 100.5t-63.5 50.5t-141.5 17v51h725v-51q-94 0 -141.5 -17t-63.5 -50.5t-16 -100.5v-1200q0 -67 16 -100.5t63.5 -50.5t141.5 -17v-51h-725v51q94 0 141.5 17t63.5 50.5t16 100.5v1200zM1415 182q54 -80 112.5 -105.5t160.5 -25.5v-51h-687v51
q116 0 126 21t-49 98q-5 7 -7 10l-475 682l532 611q74 77 68 95.5t-133 18.5v51h477v-51q-106 0 -168.5 -21.5t-124.5 -92.5l-391 -459zM856 -346q-28 0 -50 25.5t-22 68.5q0 50 33 76t82 26q59 0 95 -39.5t36 -103.5q0 -164 -219 -217v51q52 12 91.5 39.5t39.5 63.5
q0 30 -20 30q-5 0 -25 -10t-41 -10z" />
    <glyph glyph-name="uni0137" unicode="&#x137;" horiz-adv-x="1230" 
d="M432 219q0 -103 28 -135.5t122 -32.5v-51h-531v51q94 0 122 32.5t28 135.5v1139q0 98 -9 116q-13 26 -63 6q-18 -7 -45 -20l-23 45l158 82l182 92l31 -30v-1430zM999 193q47 -85 93 -113.5t118 -28.5v-51h-561v51q93 0 105 21q10 19 -24 83q-6 11 -21 38l-236 423
l291 310q11 12 28 29.5t23.5 24t15 17.5t9.5 14.5t-0.5 9.5t-9 7t-21 3.5t-31 2.5h-45.5v51h410v-51q-79 0 -135 -20.5t-119 -89.5l-184 -203zM598 -346q-28 0 -50 25.5t-22 68.5q0 50 33 76t82 26q59 0 95 -39.5t36 -103.5q0 -164 -219 -217v51q52 12 91.5 39.5t39.5 63.5
q0 30 -20 30q-5 0 -25 -10t-41 -10z" />
    <glyph glyph-name="Lacute" unicode="&#x139;" horiz-adv-x="1304" 
d="M389 1790l137 381h226l-281 -381h-82zM766 1638v-51q-94 0 -141.5 -17t-63.5 -50.5t-16 -100.5v-1183q0 -91 26 -117.5t111 -26.5h279q65 0 107 31t79.5 115t79.5 247l49 -12l-107 -416l-14 -57h-1114v51q94 0 141.5 17t63.5 50.5t16 100.5v1200q0 67 -16 100.5
t-63.5 50.5t-141.5 17v51h725z" />
    <glyph glyph-name="lacute" unicode="&#x13a;" horiz-adv-x="622" 
d="M211 1800l137 381h225l-280 -381h-82zM432 219q0 -103 28 -135.5t122 -32.5v-51h-531v51q94 0 122 32.5t28 135.5v1139q0 98 -9 116q-13 26 -63 6q-18 -7 -45 -20l-23 45l158 82l182 92l31 -30v-1430z" />
    <glyph glyph-name="uni013B" unicode="&#x13b;" horiz-adv-x="1304" 
d="M766 1638v-51q-94 0 -141.5 -17t-63.5 -50.5t-16 -100.5v-1183q0 -91 26 -117.5t111 -26.5h279q65 0 107 31t79.5 115t79.5 247l49 -12l-107 -416l-14 -57h-1114v51q94 0 141.5 17t63.5 50.5t16 100.5v1200q0 67 -16 100.5t-63.5 50.5t-141.5 17v51h725zM637 -346
q-28 0 -50 25.5t-22 68.5q0 50 33 76t82 26q59 0 95 -39.5t36 -103.5q0 -164 -219 -217v51q52 12 91.5 39.5t39.5 63.5q0 30 -21 30q-5 0 -24.5 -10t-40.5 -10z" />
    <glyph glyph-name="uni013C" unicode="&#x13c;" horiz-adv-x="622" 
d="M432 219q0 -103 28 -135.5t122 -32.5v-51h-531v51q94 0 122 32.5t28 135.5v1139q0 98 -9 116q-13 26 -63 6q-18 -7 -45 -20l-23 45l158 82l182 92l31 -30v-1430zM266 -346q-28 0 -49.5 25.5t-21.5 68.5q0 50 32.5 76t81.5 26q59 0 95 -39.5t36 -103.5q0 -164 -219 -217
v51q52 12 91.5 39.5t39.5 63.5q0 30 -20 30q-5 0 -25 -10t-41 -10z" />
    <glyph glyph-name="Lcaron" unicode="&#x13d;" horiz-adv-x="1331" 
d="M877 1298l137 381h225l-281 -381h-81zM766 1638v-51q-94 0 -141.5 -17t-63.5 -50.5t-16 -100.5v-1183q0 -91 26 -117.5t111 -26.5h279q65 0 107 31t79.5 115t79.5 247l49 -12l-107 -416l-14 -57h-1114v51q94 0 141.5 17t63.5 50.5t16 100.5v1200q0 67 -16 100.5
t-63.5 50.5t-141.5 17v51h725z" />
    <glyph glyph-name="lcaron" unicode="&#x13e;" horiz-adv-x="845" 
d="M432 219q0 -103 28 -135.5t122 -32.5v-51h-531v51q94 0 122 32.5t28 135.5v1139q0 98 -9 116q-13 26 -63 6q-18 -7 -45 -20l-23 45l158 82l182 92l31 -30v-1430zM621 1561q0 58 26 88t72 30t71 -30t25 -88q0 -69 -30 -226t-40 -229h-51q-11 79 -42 233t-31 222z" />
    <glyph glyph-name="Lslash" unicode="&#x141;" horiz-adv-x="1304" 
d="M1227 485l49 -12l-107 -416l-14 -57h-1114v51q94 0 141.5 17t63.5 50.5t16 100.5v449l-160 -93l-30 54l190 110v680q0 67 -16 100.5t-63.5 50.5t-141.5 17v51h725v-51q-94 0 -141.5 -17t-63.5 -50.5t-16 -100.5v-518l467 270l30 -53l-497 -287v-595q0 -91 26 -117.5
t111 -26.5h279q65 0 107 31t79.5 115t79.5 247z" />
    <glyph glyph-name="lslash" unicode="&#x142;" horiz-adv-x="714" 
d="M463 219q0 -103 27.5 -135.5t121.5 -32.5v-51h-530v51q94 0 121.5 32.5t27.5 135.5v524l-155 -90l-31 54l186 108v543q0 97 -8 116q-12 26 -60 8q-19 -7 -48 -22l-23 45l158 82l182 92l31 -30v-701l176 103l31 -54l-207 -120v-658z" />
    <glyph glyph-name="Nacute" unicode="&#x143;" horiz-adv-x="1609" 
d="M1069 2171l-281 -381h-81l137 381h225zM1569 1638v-51q-94 0 -141.5 -17t-63.5 -50.5t-16 -100.5v-1466h-123l-871 1419v-1153q0 -67 16 -100.5t63.5 -50.5t141.5 -17v-51h-534v51q94 0 141.5 17t63.5 50.5t16 100.5v1290q-40 47 -89 62.5t-132 15.5v51h498l710 -1159h6
v940q0 67 -16 100.5t-63.5 50.5t-141.5 17v51h535z" />
    <glyph glyph-name="nacute" unicode="&#x144;" horiz-adv-x="1200" 
d="M532 1288l138 381h225l-281 -381h-82zM432 1096v-191h6q155 221 344 221q228 0 228 -305v-602q0 -103 27.5 -135.5t121.5 -32.5v-51h-516v51q85 0 110 32.5t25 135.5v602q0 78 -24.5 118t-81.5 40q-111 0 -240 -166v-594q0 -103 25 -135.5t110 -32.5v-51h-516v51
q94 0 122 32.5t28 135.5v586q0 98 -9 116q-13 26 -63 6q-18 -7 -45 -20l-23 45l158 82l182 92z" />
    <glyph glyph-name="uni0145" unicode="&#x145;" horiz-adv-x="1609" 
d="M1569 1638v-51q-94 0 -141.5 -17t-63.5 -50.5t-16 -100.5v-1466h-123l-871 1419v-1153q0 -67 16 -100.5t63.5 -50.5t141.5 -17v-51h-534v51q94 0 141.5 17t63.5 50.5t16 100.5v1290q-40 47 -89 62.5t-132 15.5v51h498l710 -1159h6v940q0 67 -16 100.5t-63.5 50.5
t-141.5 17v51h535zM864 -150q59 0 95 -39.5t36 -103.5q0 -164 -219 -217v51q52 12 91.5 39.5t39.5 63.5q0 30 -20 30q-5 0 -25 -10t-41 -10q-28 0 -49.5 25.5t-21.5 68.5q0 50 32.5 76t81.5 26z" />
    <glyph glyph-name="uni0146" unicode="&#x146;" horiz-adv-x="1200" 
d="M432 1096v-191h6q155 221 344 221q228 0 228 -305v-602q0 -103 27.5 -135.5t121.5 -32.5v-51h-516v51q85 0 110 32.5t25 135.5v602q0 78 -24.5 118t-81.5 40q-111 0 -240 -166v-594q0 -103 25 -135.5t110 -32.5v-51h-516v51q94 0 122 32.5t28 135.5v586q0 98 -9 116
q-13 26 -63 6q-18 -7 -45 -20l-23 45l158 82l182 92zM559 -346q-28 0 -50 25.5t-22 68.5q0 50 33 76t82 26q59 0 95 -39.5t36 -103.5q0 -164 -219 -217v51q52 12 91.5 39.5t39.5 63.5q0 30 -20 30q-5 0 -25 -10t-41 -10z" />
    <glyph glyph-name="Ncaron" unicode="&#x147;" horiz-adv-x="1609" 
d="M684 1780l-199 381h82l230 -265l229 265h82l-199 -381h-225zM1569 1638v-51q-94 0 -141.5 -17t-63.5 -50.5t-16 -100.5v-1466h-123l-871 1419v-1153q0 -67 16 -100.5t63.5 -50.5t141.5 -17v-51h-534v51q94 0 141.5 17t63.5 50.5t16 100.5v1290q-40 47 -89 62.5t-132 15.5
v51h498l710 -1159h6v940q0 67 -16 100.5t-63.5 50.5t-141.5 17v51h535z" />
    <glyph glyph-name="ncaron" unicode="&#x148;" horiz-adv-x="1200" 
d="M510 1278l-199 381h82l230 -264l229 264h82l-199 -381h-225zM1010 219q0 -103 27.5 -135.5t121.5 -32.5v-51h-516v51q85 0 110 32.5t25 135.5v602q0 78 -24.5 118t-81.5 40q-111 0 -240 -166v-594q0 -103 25 -135.5t110 -32.5v-51h-516v51q94 0 122 32.5t28 135.5v586
q0 98 -9 116q-13 26 -63 6q-18 -7 -45 -20l-23 45l158 82l182 92l31 -30v-191h6q155 221 344 221q228 0 228 -305v-602z" />
    <glyph glyph-name="Eng" unicode="&#x14a;" horiz-adv-x="1609" 
d="M1569 1638v-51q-94 0 -141.5 -17t-63.5 -50.5t-16 -100.5v-1474q0 -99 -14.5 -174.5t-48.5 -136.5t-94.5 -93.5t-146.5 -32.5q-132 0 -207 58t-75 147q0 57 34 87t87 30q54 0 89.5 -29t35.5 -86q0 -60 17 -87t75 -27q155 0 155 336v16h-30l-871 1419v-1153
q0 -67 16 -100.5t63.5 -50.5t141.5 -17v-51h-534v51q94 0 141.5 17t63.5 50.5t16 100.5v1290q-40 47 -89 62.5t-132 15.5v51h498l710 -1159h6v940q0 67 -16 100.5t-63.5 50.5t-141.5 17v51h535z" />
    <glyph glyph-name="eng" unicode="&#x14b;" horiz-adv-x="1110" 
d="M821 1126q248 0 248 -325v-850q0 -228 -86.5 -335.5t-265.5 -107.5q-138 0 -222.5 53t-84.5 146q0 49 36.5 78t90.5 29q115 0 129 -115q0 -5 1 -18.5t1.5 -18t1.5 -15t3 -14t5 -11t7 -9.5t10 -6t14 -5t18 -1q36 0 58.5 18.5t32.5 60t13 84t3 115.5v942q0 86 -29.5 129
t-95.5 43q-63 0 -134 -53.5t-139 -146.5v-574q0 -103 23.5 -135.5t103.5 -32.5v-51h-512v51q94 0 122 32.5t28 135.5v586q0 98 -9 116q-13 26 -63 6q-18 -7 -45 -20l-25 47l347 172l30 -30v-211h6q175 241 379 241z" />
    <glyph glyph-name="Omacron" unicode="&#x14c;" horiz-adv-x="1478" 
d="M412 2013h655v-92h-655v92zM739 -41q-125 0 -232 44t-186.5 122.5t-135.5 186t-84.5 236.5t-28.5 271t28.5 271t84.5 236.5t135.5 186t186.5 122.5t232 44t232.5 -44t187 -122.5t136 -186t84.5 -236.5t28 -271t-28 -271t-84.5 -236.5t-136 -186t-187 -122.5t-232.5 -44z
M807 45q168 14 246.5 213t44.5 594q-34 393 -146 575t-280 168q-81 -8 -141.5 -58t-101.5 -148.5t-52.5 -247t4.5 -353.5q34 -395 145 -577t281 -166z" />
    <glyph glyph-name="omacron" unicode="&#x14d;" horiz-adv-x="1122" 
d="M233 1511h656v-92h-656v92zM561 -41q-222 0 -355.5 164t-133.5 420t133.5 419.5t355.5 163.5t356 -163.5t134 -419.5t-134 -420t-356 -164zM604 53q113 9 157.5 134t22.5 376q-23 251 -87.5 365t-178.5 104q-113 -9 -156.5 -133.5t-21.5 -374.5q22 -251 86.5 -365.5
t177.5 -105.5z" />
    <glyph glyph-name="Ohungarumlaut" unicode="&#x150;" horiz-adv-x="1478" 
d="M516 1790l107 381h153l-198 -381h-62zM731 1790l127 381h154l-219 -381h-62zM739 -41q-125 0 -232 44t-186.5 122.5t-135.5 186t-84.5 236.5t-28.5 271t28.5 271t84.5 236.5t135.5 186t186.5 122.5t232 44t232.5 -44t187 -122.5t136 -186t84.5 -236.5t28 -271t-28 -271
t-84.5 -236.5t-136 -186t-187 -122.5t-232.5 -44zM807 45q168 14 246.5 213t44.5 594q-34 393 -146 575t-280 168q-81 -8 -141.5 -58t-101.5 -148.5t-52.5 -247t4.5 -353.5q34 -395 145 -577t281 -166z" />
    <glyph glyph-name="ohungarumlaut" unicode="&#x151;" horiz-adv-x="1122" 
d="M338 1288l106 381h154l-199 -381h-61zM553 1288l127 381h154l-220 -381h-61zM561 -41q-222 0 -355.5 164t-133.5 420t133.5 419.5t355.5 163.5t356 -163.5t134 -419.5t-134 -420t-356 -164zM604 53q113 9 157.5 134t22.5 376q-23 251 -87.5 365t-178.5 104
q-113 -9 -156.5 -133.5t-21.5 -374.5q22 -251 86.5 -365.5t177.5 -105.5z" />
    <glyph glyph-name="OE" unicode="&#x152;" horiz-adv-x="1992" 
d="M1921 469l49 -14l-110 -396l-17 -59h-692q-65 0 -184 -10t-207 -10q-214 0 -372 112t-237 300t-79 427q0 142 29 269t87 231.5t139.5 180t192.5 117.5t240 42q88 0 207 -10.5t184 -10.5h688l8 -63l41 -336l-51 -6q-17 132 -41.5 198.5t-61 90.5t-102.5 24h-389v-639h234
q67 0 100.5 17.5t50.5 69.5t17 155h51v-264l-2 -49l2 -265h-51q0 103 -17 155.5t-51 70.5t-100 18h-234v-606q0 -72 18 -94.5t78 -22.5h312q65 0 107.5 30t81 110.5t81.5 236.5zM739 72q59 0 105.5 14.5t111.5 58.5v1350q-67 46 -114 62t-103 14q-120 -4 -202 -101.5
t-120 -262.5t-38 -388q0 -224 38 -389t120 -261.5t202 -96.5z" />
    <glyph glyph-name="oe" unicode="&#x153;" horiz-adv-x="1769" 
d="M1645 428h51q-36 -233 -136 -351t-255 -118q-114 0 -200 62t-136 178q-63 -113 -168 -176.5t-240 -63.5q-222 0 -355.5 164t-133.5 420t133.5 419.5t355.5 163.5q138 0 245.5 -67.5t170.5 -186.5q53 118 141.5 186t204.5 68q124 0 209 -71t123.5 -187.5t38.5 -269.5h-549
q2 -217 65.5 -341t184.5 -124q167 0 250 295zM604 53q113 9 157.5 134t22.5 376q-23 251 -87.5 365t-178.5 104q-113 -9 -156.5 -133.5t-21.5 -374.5q22 -251 86.5 -365.5t177.5 -105.5zM1315 1034q-57 0 -93.5 -43.5t-53.5 -117t-21 -183.5h311q0 80 -6.5 139t-22 107.5
t-44 73t-70.5 24.5z" />
    <glyph glyph-name="Racute" unicode="&#x154;" horiz-adv-x="1513" 
d="M954 2171l-280 -381h-82l137 381h225zM1235 197q44 -88 96.5 -117t151.5 -29v-51h-170q-53 0 -81 0.5t-65.5 3.5t-57 8t-45.5 15t-41 24.5t-33.5 36t-33 49.5t-30.5 66l-285 585h-45h-51v-569q0 -67 16 -100.5t63.5 -50.5t141.5 -17v-51h-725v51q94 0 141.5 17t63.5 50.5
t16 100.5v1200q0 67 -16 100.5t-63.5 50.5t-141.5 17v51h668q277 0 417 -106.5t140 -310.5q0 -90 -27.5 -161t-72.5 -116t-110.5 -77t-131.5 -47.5t-146 -22.5v-6q95 -20 162 -76t129 -185zM545 881h51q54 0 102.5 7.5t102 30.5t91 59.5t62.5 100.5t25 148q0 157 -76.5 238
t-204.5 81q-89 0 -153 -37v-628z" />
    <glyph glyph-name="racute" unicode="&#x155;" horiz-adv-x="925" 
d="M754 1669l-281 -381h-82l137 381h226zM729 1126q73 0 119.5 -37.5t46.5 -99.5q0 -57 -32.5 -95t-90.5 -38q-45 0 -69.5 16t-47.5 48q-12 21 -23 29.5t-28 8.5q-42 0 -81.5 -43.5t-90.5 -134.5v-561q0 -103 42 -135.5t183 -32.5v-51h-606v51q94 0 122 32.5t28 135.5v586
q0 98 -9 116q-13 26 -63 6q-18 -7 -45 -20l-23 45l158 82l182 92l31 -30v-189h6q22 41 48.5 76t62.5 69.5t82.5 54t97.5 19.5z" />
    <glyph glyph-name="uni0156" unicode="&#x156;" horiz-adv-x="1513" 
d="M1235 197q44 -88 96.5 -117t151.5 -29v-51h-170q-53 0 -81 0.5t-65.5 3.5t-57 8t-45.5 15t-41 24.5t-33.5 36t-33 49.5t-30.5 66l-285 585h-45h-51v-569q0 -67 16 -100.5t63.5 -50.5t141.5 -17v-51h-725v51q94 0 141.5 17t63.5 50.5t16 100.5v1200q0 67 -16 100.5
t-63.5 50.5t-141.5 17v51h668q277 0 417 -106.5t140 -310.5q0 -90 -27.5 -161t-72.5 -116t-110.5 -77t-131.5 -47.5t-146 -22.5v-6q95 -20 162 -76t129 -185zM545 881h51q54 0 102.5 7.5t102 30.5t91 59.5t62.5 100.5t25 148q0 157 -76.5 238t-204.5 81q-89 0 -153 -37v-628
zM897 -150q59 0 95 -39.5t36 -103.5q0 -164 -219 -217v51q52 12 91.5 39.5t39.5 63.5q0 30 -20 30q-6 0 -25 -10t-39 -10q-30 0 -51 25t-21 69q0 50 32 76t81 26z" />
    <glyph glyph-name="uni0157" unicode="&#x157;" horiz-adv-x="925" 
d="M729 1126q73 0 119.5 -37.5t46.5 -99.5q0 -57 -32.5 -95t-90.5 -38q-45 0 -69.5 16t-47.5 48q-12 21 -23 29.5t-28 8.5q-42 0 -81.5 -43.5t-90.5 -134.5v-561q0 -103 42 -135.5t183 -32.5v-51h-606v51q94 0 122 32.5t28 135.5v586q0 98 -9 116q-13 26 -63 6
q-18 -7 -45 -20l-23 45l158 82l182 92l31 -30v-189h6q22 41 48.5 76t62.5 69.5t82.5 54t97.5 19.5zM340 -150q59 0 95 -39.5t36 -103.5q0 -164 -219 -217v51q52 12 91.5 39.5t39.5 63.5q0 30 -21 30q-5 0 -24.5 -10t-40.5 -10q-28 0 -50 25.5t-22 68.5q0 50 33 76t82 26z
" />
    <glyph glyph-name="Rcaron" unicode="&#x158;" horiz-adv-x="1513" 
d="M580 1780l-199 381h82l229 -265l230 265h82l-199 -381h-225zM1235 197q44 -88 96.5 -117t151.5 -29v-51h-170q-53 0 -81 0.5t-65.5 3.5t-57 8t-45.5 15t-41 24.5t-33.5 36t-33 49.5t-30.5 66l-285 585h-45h-51v-569q0 -67 16 -100.5t63.5 -50.5t141.5 -17v-51h-725v51
q94 0 141.5 17t63.5 50.5t16 100.5v1200q0 67 -16 100.5t-63.5 50.5t-141.5 17v51h668q277 0 417 -106.5t140 -310.5q0 -90 -27.5 -161t-72.5 -116t-110.5 -77t-131.5 -47.5t-146 -22.5v-6q95 -20 162 -76t129 -185zM545 881h51q54 0 102.5 7.5t102 30.5t91 59.5t62.5 100.5
t25 148q0 157 -76.5 238t-204.5 81q-89 0 -153 -37v-628z" />
    <glyph glyph-name="rcaron" unicode="&#x159;" horiz-adv-x="925" 
d="M369 1278l-199 381h82l229 -264l230 264h82l-199 -381h-225zM729 1126q73 0 119.5 -37.5t46.5 -99.5q0 -57 -32.5 -95t-90.5 -38q-45 0 -69.5 16t-47.5 48q-12 21 -23 29.5t-28 8.5q-42 0 -81.5 -43.5t-90.5 -134.5v-561q0 -103 42 -135.5t183 -32.5v-51h-606v51
q94 0 122 32.5t28 135.5v586q0 98 -9 116q-13 26 -63 6q-18 -7 -45 -20l-23 45l158 82l182 92l31 -30v-189h6q22 41 48.5 76t62.5 69.5t82.5 54t97.5 19.5z" />
    <glyph glyph-name="Sacute" unicode="&#x15a;" horiz-adv-x="1177" 
d="M483 1790l138 381h225l-281 -381h-82zM115 -10v592h51q5 -160 63.5 -282t153 -185.5t209.5 -63.5q117 0 187.5 65.5t70.5 174.5q0 32 -10 65t-22 59.5t-40 61t-47 56t-61.5 59.5t-63.5 56t-74 61.5t-73 60.5q-81 67 -128.5 111t-94.5 96.5t-70.5 99t-38 103t-14.5 123.5
q0 119 57.5 205.5t151 128.5t210.5 42q75 0 143 -21t106.5 -45.5l71.5 -45.5t48 -21q20 0 26.5 20.5t6.5 82.5h51v-484h-51q-8 189 -109.5 305.5t-261.5 116.5q-115 0 -175 -55t-60 -137q0 -26 7 -51t16.5 -46t29 -46t35.5 -42t45.5 -44t48 -43t55 -46t56.5 -47
q25 -21 72 -61q162 -138 222 -204q120 -132 143 -281q7 -44 7 -93q0 -102 -38.5 -185.5t-102.5 -136.5t-143.5 -81.5t-164.5 -28.5q-90 0 -166 22.5t-115 49t-73 49t-51 22.5q-26 0 -35.5 -24.5t-9.5 -87.5h-51z" />
    <glyph glyph-name="sacute" unicode="&#x15b;" horiz-adv-x="839" 
d="M348 1288l137 381h226l-281 -381h-82zM104 -20v415h52q24 -151 106 -247.5t205 -96.5q63 0 95 32.5t32 92.5q0 26 -5.5 49t-23 49.5t-30 43.5t-48 50t-54 49.5t-68.5 59.5q-126 106 -166 152q-95 110 -97 231q0 120 79.5 193t209.5 73q52 0 97 -13t69.5 -28t46.5 -28
t33 -13q17 0 21 13t4 49h51v-342h-51q-24 118 -95.5 194t-169.5 76q-54 0 -82 -29t-28 -67q0 -58 43.5 -108.5t158.5 -145.5q58 -50 88.5 -77.5t70 -67t58.5 -67.5t38.5 -64.5t26.5 -74t7 -81.5q0 -143 -87 -218t-216 -75q-59 0 -111 13t-81 28t-55 28t-40 13
q-19 0 -25.5 -14t-6.5 -47h-52z" />
    <glyph glyph-name="Scedilla" unicode="&#x15e;" horiz-adv-x="1177" 
d="M1065 391q0 -166 -95.5 -275.5t-240.5 -144.5l-59 -80q42 -3 78.5 -13.5t70.5 -30.5t54 -55t20 -81q0 -60 -30 -107t-80 -73t-115.5 -41.5t-135.5 -14.5t-141 9l12 51q153 -14 234.5 25.5t81.5 130.5q0 144 -215 147l110 121q-89 0 -164.5 22.5t-114.5 49t-73 49
t-51 22.5q-26 0 -35.5 -24.5t-9.5 -87.5h-51v592h51q5 -160 63.5 -282t153 -185.5t209.5 -63.5q117 0 187.5 65.5t70.5 174.5q0 32 -10 65t-22 59.5t-40 61t-47 56t-61.5 59.5t-63.5 56t-74 61.5t-73 60.5q-81 67 -128.5 111t-94.5 96.5t-70.5 99t-38 103t-14.5 123.5
q0 119 57.5 205.5t151 128.5t210.5 42q75 0 143 -21t106.5 -45.5l71.5 -45.5t48 -21q20 0 26.5 20.5t6.5 82.5h51v-484h-51q-8 189 -109.5 305.5t-261.5 116.5q-115 0 -175 -55t-60 -137q0 -26 7 -51t16.5 -46t29 -46t35.5 -42t45.5 -44t48 -43t55 -46t56.5 -47
q25 -21 72 -61q162 -138 222 -204q120 -132 143 -281q7 -44 7 -93z" />
    <glyph glyph-name="scedilla" unicode="&#x15f;" horiz-adv-x="839" 
d="M526 -109q42 -3 78.5 -13.5t71 -30.5t54.5 -55t20 -81q0 -60 -30 -107t-80 -73t-115.5 -41.5t-135.5 -14.5t-141 9l12 51q153 -14 234 25.5t81 130.5q0 144 -215 147l111 121q-57 1 -108 14t-80 28t-55 27.5t-40 12.5q-19 0 -25.5 -14t-6.5 -47h-52v415h52
q24 -151 106 -247.5t205 -96.5q63 0 95 32.5t32 92.5q0 26 -5.5 49t-23 49.5t-30 43.5t-48 50t-54 49.5t-68.5 59.5q-126 106 -166 152q-95 110 -97 231q0 120 79.5 193t209.5 73q52 0 97 -13t69.5 -28t46.5 -28t33 -13q17 0 21 13t4 49h51v-342h-51q-24 118 -95.5 194
t-169.5 76q-54 0 -82 -29t-28 -67q0 -58 43.5 -108.5t158.5 -145.5q58 -50 88.5 -77.5t70 -67t58.5 -67.5t38.5 -64.5t26.5 -74t7 -81.5q0 -109 -51.5 -179t-138.5 -98z" />
    <glyph glyph-name="Scaron" unicode="&#x160;" horiz-adv-x="1177" 
d="M461 1780l-199 381h82l229 -265l230 265h82l-199 -381h-225zM621 1030q25 -21 72 -61q162 -138 222 -204q120 -132 143 -281q7 -44 7 -93q0 -102 -38.5 -185.5t-102.5 -136.5t-143.5 -81.5t-164.5 -28.5q-90 0 -166 22.5t-115 49t-73 49t-51 22.5q-26 0 -35.5 -24.5
t-9.5 -87.5h-51v592h51q5 -160 63.5 -282t153 -185.5t209.5 -63.5q117 0 187.5 65.5t70.5 174.5q0 32 -10 65t-22 59.5t-40 61t-47 56t-61.5 59.5t-63.5 56t-74 61.5t-73 60.5q-81 67 -128.5 111t-94.5 96.5t-70.5 99t-38 103t-14.5 123.5q0 119 57.5 205.5t151 128.5
t210.5 42q75 0 143 -21t106.5 -45.5l71.5 -45.5t48 -21q20 0 26.5 20.5t6.5 82.5h51v-484h-51q-8 189 -109.5 305.5t-261.5 116.5q-115 0 -175 -55t-60 -137q0 -26 7 -51t16.5 -46t29 -46t35.5 -42t45.5 -44t48 -43t55 -46t56.5 -47z" />
    <glyph glyph-name="scaron" unicode="&#x161;" horiz-adv-x="839" 
d="M326 1278l-199 381h82l229 -264l230 264h82l-199 -381h-225zM489 684q58 -50 88.5 -77.5t70 -67t58.5 -67.5t38.5 -64.5t26.5 -74t7 -81.5q0 -143 -87 -218t-216 -75q-59 0 -111 13t-81 28t-55 28t-40 13q-19 0 -25.5 -14t-6.5 -47h-52v415h52q24 -151 106 -247.5
t205 -96.5q63 0 95 32.5t32 92.5q0 26 -5.5 49t-23 49.5t-30 43.5t-48 50t-54 49.5t-68.5 59.5q-126 106 -166 152q-95 110 -97 231q0 120 79.5 193t209.5 73q52 0 97 -13t69.5 -28t46.5 -28t33 -13q17 0 21 13t4 49h51v-342h-51q-24 118 -95.5 194t-169.5 76q-54 0 -82 -29
t-28 -67q0 -58 43.5 -108.5t158.5 -145.5z" />
    <glyph glyph-name="uni0162" unicode="&#x162;" horiz-adv-x="1404" 
d="M1315 1575l26 -338l-51 -4q-10 132 -31.5 199t-57 90.5t-101.5 23.5h-256v-1327q0 -67 16 -100.5t63.5 -50.5t141.5 -17v-51h-277l-79 -109q42 -3 78.5 -13.5t70.5 -30.5t54 -55t20 -81q0 -60 -30 -107t-80 -73t-115.5 -41.5t-135.5 -14.5t-141 9l12 51
q153 -14 234.5 25.5t81.5 130.5q0 144 -215 147l149 162h-352v51q94 0 141.5 17t63.5 50.5t16 100.5v1327h-254q-66 0 -102 -23t-58 -90.5t-32 -199.5l-52 4l27 338l4 63h1217z" />
    <glyph glyph-name="uni0163" unicode="&#x163;" horiz-adv-x="759" 
d="M489 -109q42 -3 78.5 -13.5t71 -30.5t54.5 -55t20 -81q0 -60 -30 -107t-80 -73t-115.5 -41.5t-135.5 -14.5t-141 9l12 51q153 -14 234.5 25.5t81.5 130.5q0 144 -215 147l112 123q-250 16 -250 381v651h-155v92q149 6 222 71.5t93 221.5h72v-293h231v-92h-231v-590
q0 -65 2 -107.5t9 -84.5t20 -66t35.5 -38.5t54.5 -14.5q67 0 96.5 83t32.5 276h51q-2 -220 -38.5 -334.5t-133.5 -145.5z" />
    <glyph glyph-name="Tcaron" unicode="&#x164;" horiz-adv-x="1404" 
d="M590 1780l-199 381h82l229 -265l230 265h82l-199 -381h-225zM1315 1575l26 -338l-51 -4q-10 132 -31.5 199t-57 90.5t-101.5 23.5h-256v-1327q0 -67 16 -100.5t63.5 -50.5t141.5 -17v-51h-725v51q94 0 141.5 17t63.5 50.5t16 100.5v1327h-254q-66 0 -102 -23t-58 -90.5
t-32 -199.5l-52 4l27 338l4 63h1217z" />
    <glyph glyph-name="tcaron" unicode="&#x165;" horiz-adv-x="825" 
d="M524 1206l138 381h225l-281 -381h-82zM668 451h51q-1 -101 -7.5 -174t-23 -136t-45 -101.5t-73 -59.5t-105.5 -21q-279 0 -279 383v651h-155v92q149 6 222 71.5t93 221.5h72v-293h231v-92h-231v-590q0 -65 2 -107.5t9 -84.5t20 -66t35.5 -38.5t54.5 -14.5q67 0 96.5 83
t32.5 276z" />
    <glyph glyph-name="Tbar" unicode="&#x166;" horiz-adv-x="1445" 
d="M1315 1575l26 -338l-51 -4q-10 132 -31.5 199t-57 90.5t-101.5 23.5h-256v-708h352v-62h-352v-557q0 -67 16 -100.5t63.5 -50.5t141.5 -17v-51h-725v51q94 0 141.5 17t63.5 50.5t16 100.5v557h-307v62h307v708h-254q-66 0 -102 -23t-58 -90.5t-32 -199.5l-52 4l27 338
l4 63h1217z" />
    <glyph glyph-name="tbar" unicode="&#x167;" horiz-adv-x="770" 
d="M668 451h51q-1 -101 -7.5 -174t-23 -136t-45 -101.5t-73 -59.5t-105.5 -21q-279 0 -279 383v360h-166v62h166v229h-155v92q149 6 222 71.5t93 221.5h72v-293h231v-92h-231v-229h225v-62h-225v-299q0 -65 2 -107.5t9 -84.5t20 -66t35.5 -38.5t54.5 -14.5q67 0 96.5 83
t32.5 276z" />
    <glyph glyph-name="Umacron" unicode="&#x16a;" horiz-adv-x="1648" 
d="M580 2013h655v-92h-655v92zM1294 1419q0 67 -16 100.5t-63.5 50.5t-141.5 17v51h535v-51q-94 0 -141.5 -17t-64 -51t-16.5 -100v-925q0 -83 -12 -154.5t-46 -144t-88 -123t-144 -82t-209 -31.5q-302 0 -463.5 143.5t-161.5 411.5v905q0 67 -16 100.5t-63.5 50.5
t-141.5 17v51h725v-51q-94 0 -141.5 -17t-63.5 -50.5t-16 -100.5v-925q0 -233 93 -338t284 -105q372 0 372 443v925z" />
    <glyph glyph-name="umacron" unicode="&#x16b;" horiz-adv-x="1157" 
d="M254 1511h655v-92h-655v92zM760 -10v190h-6q-71 -102 -151 -161.5t-181 -59.5q-229 0 -229 305v582q0 37 -1.5 59t-6.5 42t-13.5 28t-25 12.5t-38.5 1t-55 -11.5l-12 49l172 45l180 45l31 -31v-821q0 -77 25.5 -116t82.5 -39q102 0 228 163v574q0 38 -1 59.5t-6 41.5
t-14 28t-25 12.5t-38 1t-55 -11.5l-13 49l172 45l181 45l30 -31v-804v-13v-42.5t1.5 -31.5t4 -25t8 -14.5t13.5 -8t20 2t27 8t37 17.5l22 -45l-333 -170z" />
    <glyph glyph-name="Uring" unicode="&#x16e;" horiz-adv-x="1648" 
d="M907 1784q-92 0 -153.5 64t-61.5 151q0 88 61.5 150.5t153.5 62.5t152.5 -62.5t60.5 -150.5q0 -87 -60.5 -151t-152.5 -64zM907 1866q62 0 96.5 39.5t34.5 93.5q0 52 -34.5 91.5t-96.5 39.5q-63 0 -98 -39.5t-35 -91.5q0 -54 34.5 -93.5t98.5 -39.5zM1294 1419
q0 67 -16 100.5t-63.5 50.5t-141.5 17v51h535v-51q-94 0 -141.5 -17t-64 -51t-16.5 -100v-925q0 -83 -12 -154.5t-46 -144t-88 -123t-144 -82t-209 -31.5q-302 0 -463.5 143.5t-161.5 411.5v905q0 67 -16 100.5t-63.5 50.5t-141.5 17v51h725v-51q-94 0 -141.5 -17
t-63.5 -50.5t-16 -100.5v-925q0 -233 93 -338t284 -105q372 0 372 443v925z" />
    <glyph glyph-name="uring" unicode="&#x16f;" horiz-adv-x="1157" 
d="M582 1282q-92 0 -153.5 64t-61.5 151q0 88 61.5 150.5t153.5 62.5t152.5 -62.5t60.5 -150.5q0 -87 -60.5 -151t-152.5 -64zM582 1364q62 0 96.5 39.5t34.5 93.5q0 52 -34.5 91.5t-96.5 39.5q-63 0 -98 -39.5t-35 -91.5q0 -54 34.5 -93.5t98.5 -39.5zM760 -10v190h-6
q-71 -102 -151 -161.5t-181 -59.5q-229 0 -229 305v582q0 37 -1.5 59t-6.5 42t-13.5 28t-25 12.5t-38.5 1t-55 -11.5l-12 49l172 45l180 45l31 -31v-821q0 -77 25.5 -116t82.5 -39q102 0 228 163v574q0 38 -1 59.5t-6 41.5t-14 28t-25 12.5t-38 1t-55 -11.5l-13 49l172 45
l181 45l30 -31v-804v-13v-42.5t1.5 -31.5t4 -25t8 -14.5t13.5 -8t20 2t27 8t37 17.5l22 -45l-333 -170z" />
    <glyph glyph-name="Uhungarumlaut" unicode="&#x170;" horiz-adv-x="1648" 
d="M684 1790l107 381h153l-199 -381h-61zM899 1790l127 381h154l-219 -381h-62zM1294 1419q0 67 -16 100.5t-63.5 50.5t-141.5 17v51h535v-51q-94 0 -141.5 -17t-64 -51t-16.5 -100v-925q0 -83 -12 -154.5t-46 -144t-88 -123t-144 -82t-209 -31.5q-302 0 -463.5 143.5
t-161.5 411.5v905q0 67 -16 100.5t-63.5 50.5t-141.5 17v51h725v-51q-94 0 -141.5 -17t-63.5 -50.5t-16 -100.5v-925q0 -233 93 -338t284 -105q372 0 372 443v925z" />
    <glyph glyph-name="uhungarumlaut" unicode="&#x171;" horiz-adv-x="1157" 
d="M358 1288l107 381h153l-198 -381h-62zM573 1288l127 381h154l-219 -381h-62zM760 -10v190h-6q-71 -102 -151 -161.5t-181 -59.5q-229 0 -229 305v582q0 37 -1.5 59t-6.5 42t-13.5 28t-25 12.5t-38.5 1t-55 -11.5l-12 49l172 45l180 45l31 -31v-821q0 -77 25.5 -116
t82.5 -39q102 0 228 163v574q0 38 -1 59.5t-6 41.5t-14 28t-25 12.5t-38 1t-55 -11.5l-13 49l172 45l181 45l30 -31v-804v-13v-42.5t1.5 -31.5t4 -25t8 -14.5t13.5 -8t20 2t27 8t37 17.5l22 -45l-333 -170z" />
    <glyph glyph-name="Uogonek" unicode="&#x172;" horiz-adv-x="1648" 
d="M1608 1638v-51q-94 0 -141.5 -17t-64 -51t-16.5 -100v-925q0 -444 -344 -519q-23 -25 -63.5 -61t-63 -58t-41 -60t-18.5 -83q0 -62 34.5 -97.5t100.5 -35.5q65 0 170 47l13 -51q-119 -98 -259 -98q-98 0 -165.5 53t-67.5 150q0 52 19.5 93t55 69.5t68 47t78 39.5t64.5 33
q-50 -4 -80 -4q-302 0 -463.5 143.5t-161.5 411.5v905q0 67 -16 100.5t-63.5 50.5t-141.5 17v51h725v-51q-94 0 -141.5 -17t-63.5 -50.5t-16 -100.5v-925q0 -233 93 -338t284 -105q372 0 372 443v925q0 67 -16 100.5t-63.5 50.5t-141.5 17v51h535z" />
    <glyph glyph-name="uogonek" unicode="&#x173;" horiz-adv-x="1157" 
d="M791 -41q-12 -11 -44.5 -39t-45.5 -41.5t-32 -38.5t-26.5 -51t-7.5 -59q0 -62 34.5 -97.5t100.5 -35.5q65 0 170 47l12 -52q-119 -98 -258 -98q-98 0 -165.5 53t-67.5 150q0 46 16.5 84.5t41 63.5t59 47.5t65.5 36.5t65 31t52 30v190h-6q-71 -102 -151 -161.5t-181 -59.5
q-229 0 -229 305v582q0 37 -1.5 59t-6.5 42t-13.5 28t-25 12.5t-38.5 1t-55 -11.5l-12 49l172 45l180 45l31 -31v-821q0 -77 25.5 -116t82.5 -39q102 0 228 163v574q0 38 -1 59.5t-6 41.5t-14 28t-25 12.5t-38 1t-55 -11.5l-13 49l172 45l181 45l30 -31v-804v-13v-42.5
t1.5 -31.5t4 -25t8 -14.5t13.5 -8t20 2t27 8t37 17.5l22 -45z" />
    <glyph glyph-name="Wcircumflex" unicode="&#x174;" horiz-adv-x="2168" 
d="M1188 2044l-230 -264h-81l198 381h225l199 -381h-82zM2148 1638v-51q-96 0 -137 -32t-67 -128l-390 -1474h-122l-304 1087l-362 -1087h-121l-416 1474q-27 97 -69.5 128.5t-139.5 31.5v51h682v-51q-135 0 -164.5 -34.5t1.5 -125.5l284 -1028h6l256 791l-65 237
q-27 97 -69.5 128.5t-139.5 31.5v51h682v-51q-94 0 -133.5 -14.5t-45 -50t12.5 -95.5l266 -981h6l254 979q17 60 12.5 96t-44.5 51t-133 15v51h460z" />
    <glyph glyph-name="wcircumflex" unicode="&#x175;" horiz-adv-x="1634" 
d="M834 1542l-230 -264h-82l199 381h225l199 -381h-82zM1614 1085v-51q-69 0 -104 -32t-62 -128l-260 -921h-144l-190 637l-207 -637h-143l-309 926q-31 92 -68.5 123.5t-106.5 31.5v51h527v-51q-91 0 -104 -30t22 -127l197 -594h6l145 446l-43 145q-28 95 -64 127.5
t-104 32.5v51h518v-51q-31 0 -51 -2.5t-32.5 -10.5t-17 -17.5t-3 -30.5t6 -41.5t15.5 -57.5l156 -546h6l156 546q33 98 18.5 129t-106.5 31v51h346z" />
    <glyph glyph-name="Ycircumflex" unicode="&#x176;" horiz-adv-x="1505" 
d="M838 2044l-230 -264h-82l199 381h225l199 -381h-82zM1485 1638v-51q-99 0 -150 -29t-92 -118l-328 -719v-502q0 -66 16.5 -100t64 -51t141.5 -17v-51h-725v51q94 0 141.5 17t63.5 50.5t16 100.5v502l-365 721q-44 88 -96.5 116.5t-151.5 28.5v51h705v-51
q-48 0 -78.5 -2.5t-48.5 -10.5t-26 -16.5t-4 -28t11 -37t23 -50.5l279 -559h6l256 557q15 33 21.5 50.5t9 37.5t-5.5 28.5t-26 17t-49 11t-79 2.5v51h471z" />
    <glyph glyph-name="ycircumflex" unicode="&#x177;" horiz-adv-x="1056" 
d="M547 1542l-230 -264h-81l198 381h225l199 -381h-82zM1026 1085v-51q-68 0 -102 -32.5t-60 -127.5l-231 -837q-6 -22 -19 -66q-22 -80 -34.5 -119.5t-37 -105t-49.5 -99t-61 -71t-83 -53t-105 -15.5q-90 0 -145.5 45t-55.5 117q0 57 37.5 93t87.5 36q65 0 115 -59
q22 -25 36 -34t37 -9q52 0 89 62t69 204l-309 916q-31 92 -68.5 123.5t-105.5 31.5v51h532v-51q-92 0 -106.5 -31t18.5 -129l158 -524l137 524q30 97 14 128.5t-108 31.5v51h350z" />
    <glyph glyph-name="Ydieresis" unicode="&#x178;" horiz-adv-x="1505" 
d="M623 1853q-54 0 -94 40t-40 94q0 55 40 94t94 39q55 0 94 -39t39 -94q0 -54 -39 -94t-94 -40zM1053 1853q-54 0 -93.5 40t-39.5 94q0 55 39.5 94t93.5 39q55 0 94 -39t39 -94q0 -54 -39 -94t-94 -40zM915 219q0 -66 16.5 -100t64 -51t141.5 -17v-51h-725v51
q94 0 141.5 17t63.5 50.5t16 100.5v502l-365 721q-44 88 -96.5 116.5t-151.5 28.5v51h705v-51q-48 0 -78.5 -2.5t-48.5 -10.5t-26 -16.5t-4 -28t11 -37t23 -50.5l279 -559h6l256 557q15 33 21.5 50.5t9 37.5t-5.5 28.5t-26 17t-49 11t-79 2.5v51h471v-51q-99 0 -150 -29
t-92 -118l-328 -719v-502z" />
    <glyph glyph-name="Zacute" unicode="&#x179;" horiz-adv-x="1239" 
d="M582 1790l137 381h225l-280 -381h-82zM1165 1638l-755 -1546h497q66 0 104 28t65 107t48 234l52 -6l-54 -396l-8 -59h-1053v51l746 1495h-428q-66 0 -101 -21.5t-54 -83.5t-23 -184l-51 3l10 313l4 65h1001z" />
    <glyph glyph-name="zacute" unicode="&#x17a;" horiz-adv-x="929" 
d="M422 1288l137 381h225l-280 -381h-82zM649 92q71 0 105 22.5t48.5 84.5t14.5 192h51v-391h-807v51l500 942h-227q-71 0 -105 -19.5t-48.5 -72t-14.5 -162.5h-51v346h753v-51l-499 -942h280z" />
    <glyph glyph-name="Zdotaccent" unicode="&#x17b;" horiz-adv-x="1239" 
d="M672 1853q-54 0 -93.5 40t-39.5 94q0 55 39.5 94t93.5 39q56 0 94.5 -39t38.5 -94q0 -54 -39 -94t-94 -40zM1165 1638l-755 -1546h497q66 0 104 28t65 107t48 234l52 -6l-54 -396l-8 -59h-1053v51l746 1495h-428q-66 0 -101 -21.5t-54 -83.5t-23 -184l-51 3l10 313l4 65
h1001z" />
    <glyph glyph-name="zdotaccent" unicode="&#x17c;" horiz-adv-x="929" 
d="M512 1352q-54 0 -93.5 39.5t-39.5 93.5q0 55 39.5 94t93.5 39q56 0 94.5 -39t38.5 -94q0 -54 -39 -93.5t-94 -39.5zM649 92q71 0 105 22.5t48.5 84.5t14.5 192h51v-391h-807v51l500 942h-227q-71 0 -105 -19.5t-48.5 -72t-14.5 -162.5h-51v346h753v-51l-499 -942h280z
" />
    <glyph glyph-name="Zcaron" unicode="&#x17d;" horiz-adv-x="1239" 
d="M559 1780l-199 381h82l230 -265l229 265h82l-199 -381h-225zM1124 461l52 -6l-54 -396l-8 -59h-1053v51l746 1495h-428q-66 0 -101 -21.5t-54 -83.5t-23 -184l-51 3l10 313l4 65h1001l-755 -1546h497q66 0 104 28t65 107t48 234z" />
    <glyph glyph-name="zcaron" unicode="&#x17e;" horiz-adv-x="929" 
d="M399 1278l-198 381h82l229 -264l229 264h82l-198 -381h-226zM868 1085v-51l-499 -942h280q71 0 105 22.5t48.5 84.5t14.5 192h51v-391h-807v51l500 942h-227q-71 0 -105 -19.5t-48.5 -72t-14.5 -162.5h-51v346h753z" />
    <glyph glyph-name="uni0218" unicode="&#x218;" horiz-adv-x="1177" 
d="M115 -10v592h51q5 -160 63.5 -282t153 -185.5t209.5 -63.5q117 0 187.5 65.5t70.5 174.5q0 32 -10 65t-22 59.5t-40 61t-47 56t-61.5 59.5t-63.5 56t-74 61.5t-73 60.5q-81 67 -128.5 111t-94.5 96.5t-70.5 99t-38 103t-14.5 123.5q0 119 57.5 205.5t151 128.5t210.5 42
q75 0 143 -21t106.5 -45.5l71.5 -45.5t48 -21q20 0 26.5 20.5t6.5 82.5h51v-484h-51q-8 189 -109.5 305.5t-261.5 116.5q-115 0 -175 -55t-60 -137q0 -26 7 -51t16.5 -46t29 -46t35.5 -42t45.5 -44t48 -43t55 -46t56.5 -47q25 -21 72 -61q162 -138 222 -204
q120 -132 143 -281q7 -44 7 -93q0 -102 -38.5 -185.5t-102.5 -136.5t-143.5 -81.5t-164.5 -28.5q-90 0 -166 22.5t-115 49t-73 49t-51 22.5q-26 0 -35.5 -24.5t-9.5 -87.5h-51zM543 -346q-28 0 -50 25.5t-22 68.5q0 50 33 76t82 26q59 0 95 -39.5t36 -103.5
q0 -164 -219 -217v51q52 12 91.5 39.5t39.5 63.5q0 30 -21 30q-5 0 -24.5 -10t-40.5 -10z" />
    <glyph glyph-name="uni0219" unicode="&#x219;" horiz-adv-x="839" 
d="M104 -20v415h52q24 -151 106 -247.5t205 -96.5q63 0 95 32.5t32 92.5q0 26 -5.5 49t-23 49.5t-30 43.5t-48 50t-54 49.5t-68.5 59.5q-126 106 -166 152q-95 110 -97 231q0 120 79.5 193t209.5 73q52 0 97 -13t69.5 -28t46.5 -28t33 -13q17 0 21 13t4 49h51v-342h-51
q-24 118 -95.5 194t-169.5 76q-54 0 -82 -29t-28 -67q0 -58 43.5 -108.5t158.5 -145.5q58 -50 88.5 -77.5t70 -67t58.5 -67.5t38.5 -64.5t26.5 -74t7 -81.5q0 -143 -87 -218t-216 -75q-59 0 -111 13t-81 28t-55 28t-40 13q-19 0 -25.5 -14t-6.5 -47h-52zM399 -346
q-28 0 -49.5 25.5t-21.5 68.5q0 50 32.5 76t81.5 26q59 0 95 -39.5t36 -103.5q0 -164 -219 -217v51q52 12 91.5 39.5t39.5 63.5q0 30 -20 30q-5 0 -25 -10t-41 -10z" />
    <glyph glyph-name="uni021A" unicode="&#x21a;" horiz-adv-x="1404" 
d="M1315 1575l26 -338l-51 -4q-10 132 -31.5 199t-57 90.5t-101.5 23.5h-256v-1327q0 -67 16 -100.5t63.5 -50.5t141.5 -17v-51h-725v51q94 0 141.5 17t63.5 50.5t16 100.5v1327h-254q-66 0 -102 -23t-58 -90.5t-32 -199.5l-52 4l27 338l4 63h1217zM705 -150q59 0 95 -39.5
t36 -103.5q0 -164 -220 -217v51q53 12 92.5 39.5t39.5 63.5q0 30 -21 30q-5 0 -24.5 -10t-40.5 -10q-28 0 -50 25.5t-22 68.5q0 50 33 76t82 26z" />
    <glyph glyph-name="uni021B" unicode="&#x21b;" horiz-adv-x="759" 
d="M668 451h51q-1 -101 -7.5 -174t-23 -136t-45 -101.5t-73 -59.5t-105.5 -21q-279 0 -279 383v651h-155v92q149 6 222 71.5t93 221.5h72v-293h231v-92h-231v-590q0 -65 2 -107.5t9 -84.5t20 -66t35.5 -38.5t54.5 -14.5q67 0 96.5 83t32.5 276zM362 -346q-28 0 -49.5 25.5
t-21.5 68.5q0 50 33 76t82 26q59 0 95 -39.5t36 -103.5q0 -164 -220 -217v51q53 12 92.5 39.5t39.5 63.5q0 30 -21 30q-5 0 -25 -10t-41 -10z" />
    <glyph glyph-name="circumflex" unicode="&#x2c6;" horiz-adv-x="786" 
d="M705 1278h-82l-230 264l-229 -264h-82l199 381h225z" />
    <glyph glyph-name="caron" unicode="&#x2c7;" horiz-adv-x="786" 
d="M623 1659h82l-199 -381h-225l-199 381h82l229 -264z" />
    <glyph glyph-name="breve" unicode="&#x2d8;" horiz-adv-x="798" 
d="M696 1638q-10 -156 -90 -236.5t-207 -80.5t-206 80t-91 237h52q15 -70 80 -106.5t165 -36.5t165.5 36.5t80.5 106.5h51z" />
    <glyph glyph-name="dotaccent" unicode="&#x2d9;" horiz-adv-x="471" 
d="M236 1352q-54 0 -94 39.5t-40 93.5q0 55 40 94t94 39q56 0 94.5 -39t38.5 -94q0 -54 -39 -93.5t-94 -39.5z" />
    <glyph glyph-name="ring" unicode="&#x2da;" horiz-adv-x="632" 
d="M317 1282q-92 0 -153.5 64t-61.5 151q0 88 61.5 150.5t153.5 62.5t152.5 -62.5t60.5 -150.5q0 -87 -60.5 -151t-152.5 -64zM317 1364q62 0 97 39.5t35 93.5q0 52 -35 91.5t-97 39.5q-63 0 -98 -39.5t-35 -91.5q0 -54 34.5 -93.5t98.5 -39.5z" />
    <glyph glyph-name="ogonek" unicode="&#x2db;" horiz-adv-x="696" 
d="M477 -20q-24 -26 -64.5 -62.5t-64 -59t-42.5 -61t-19 -84.5q0 -62 34.5 -97.5t100.5 -35.5q65 0 170 47l12 -51q-119 -98 -258 -98q-98 0 -165.5 53t-67.5 150q0 56 23.5 100t62.5 72.5t78 48.5t82 40.5t63 37.5h55z" />
    <glyph glyph-name="tilde" unicode="&#x2dc;" horiz-adv-x="880" 
d="M590 1348q-44 0 -89.5 22.5t-76.5 49t-73 49t-81 22.5q-56 0 -80 -35t-36 -108h-52q6 60 16.5 106.5t30.5 96t56.5 77t85.5 27.5q45 0 89.5 -22.5t76 -49.5t73 -49.5t80.5 -22.5q56 0 80.5 35.5t36.5 108.5h51q-6 -60 -16 -106.5t-30.5 -96t-56.5 -77t-85 -27.5z" />
    <glyph glyph-name="hungarumlaut" unicode="&#x2dd;" horiz-adv-x="700" 
d="M102 1288l107 381h153l-198 -381h-62zM317 1288l127 381h154l-219 -381h-62z" />
    <glyph glyph-name="gravecomb" unicode="&#x300;" horiz-adv-x="0" 
d="M-82 1288h-82l-280 381h225z" />
    <glyph glyph-name="acutecomb" unicode="&#x301;" horiz-adv-x="0" 
d="M-434 1288l137 381h225l-280 -381h-82z" />
    <glyph glyph-name="uni0302" unicode="&#x302;" horiz-adv-x="0" 
d="M-92 1278h-82l-229 264l-230 -264h-82l199 381h225z" />
    <glyph glyph-name="tildecomb" unicode="&#x303;" horiz-adv-x="0" 
d="M-291 1348q-45 0 -89.5 22.5t-76 49t-73 49t-80.5 22.5q-56 0 -80.5 -35.5t-36.5 -107.5h-51q6 60 16 106.5t30.5 96t56.5 77t85 27.5q44 0 89.5 -22.5t76.5 -49.5t73 -49.5t81 -22.5q56 0 80 35.5t36 108.5h52q-6 -60 -16.5 -106.5t-30.5 -96t-56.5 -77t-85.5 -27.5z
" />
    <glyph glyph-name="uni0304" unicode="&#x304;" horiz-adv-x="0" 
d="M-758 1511h656v-92h-656v92z" />
    <glyph glyph-name="uni0306" unicode="&#x306;" horiz-adv-x="0" 
d="M-102 1638q-10 -156 -90 -236.5t-207 -80.5t-206 80t-91 237h51q15 -70 80.5 -106.5t165.5 -36.5t165 36.5t80 106.5h52z" />
    <glyph glyph-name="uni0307" unicode="&#x307;" horiz-adv-x="0" 
d="M-236 1352q-54 0 -93.5 39.5t-39.5 93.5q0 55 39.5 94t93.5 39q56 0 95 -39t39 -94q0 -54 -39.5 -93.5t-94.5 -39.5z" />
    <glyph glyph-name="uni0308" unicode="&#x308;" horiz-adv-x="0" 
d="M-666 1352q-54 0 -93.5 39.5t-39.5 93.5q0 55 39.5 94t93.5 39q56 0 95 -39t39 -94q0 -54 -39.5 -93.5t-94.5 -39.5zM-236 1352q-54 0 -93.5 39.5t-39.5 93.5q0 55 39.5 94t93.5 39q56 0 95 -39t39 -94q0 -54 -39.5 -93.5t-94.5 -39.5z" />
    <glyph glyph-name="uni030A" unicode="&#x30a;" horiz-adv-x="0" 
d="M-315 1282q-92 0 -153.5 64t-61.5 151q0 88 61.5 150.5t153.5 62.5t152.5 -62.5t60.5 -150.5q0 -87 -60.5 -151t-152.5 -64zM-315 1364q62 0 96.5 39.5t34.5 93.5q0 52 -34.5 91.5t-96.5 39.5q-63 0 -98.5 -39.5t-35.5 -91.5q0 -54 35 -93.5t99 -39.5z" />
    <glyph glyph-name="uni030B" unicode="&#x30b;" horiz-adv-x="0" 
d="M-567 1288l106 381h154l-199 -381h-61zM-352 1288l127 381h153l-219 -381h-61z" />
    <glyph glyph-name="uni030C" unicode="&#x30c;" horiz-adv-x="0" 
d="M-164 1659h82l-199 -381h-225l-199 381h82l230 -264z" />
    <glyph glyph-name="uni0312" unicode="&#x312;" horiz-adv-x="0" 
d="M-174 1552q28 0 50 -25.5t22 -68.5q0 -50 -33 -76t-82 -26q-59 0 -95 39.5t-36 103.5q0 164 219 217v-51q-53 -12 -92 -39t-39 -63q0 -31 20 -31q5 0 25 10t41 10z" />
    <glyph glyph-name="uni0326" unicode="&#x326;" horiz-adv-x="0" 
d="M-276 -346q-28 0 -50 25.5t-22 68.5q0 50 33 76t82 26q59 0 95 -39.5t36 -103.5q0 -164 -220 -217v51q53 12 92.5 39.5t39.5 63.5q0 30 -21 30q-5 0 -24.5 -10t-40.5 -10z" />
    <glyph glyph-name="uni0327" unicode="&#x327;" horiz-adv-x="0" 
d="M-492 -162l168 182h93l-95 -129q42 -3 78.5 -13.5t71 -30.5t54.5 -55t20 -81q0 -60 -30 -107t-80 -73t-115.5 -41.5t-135.5 -14.5t-141 9l12 51q153 -14 234.5 25.5t81.5 130.5q0 143 -216 147z" />
    <glyph glyph-name="uni0328" unicode="&#x328;" horiz-adv-x="0" 
d="M-219 -20q-24 -27 -65 -63t-64.5 -58.5t-42.5 -61t-19 -84.5q0 -61 35 -97t101 -36q65 0 170 47l12 -51q-119 -98 -258 -98q-98 0 -166 53t-68 150q0 56 23.5 100t62.5 72.5t78.5 48.5t82.5 40.5t63 37.5h55z" />
    <glyph glyph-name="Wgrave" unicode="&#x1e80;" horiz-adv-x="2168" 
d="M1307 1790h-82l-281 381h225zM2148 1638v-51q-96 0 -137 -32t-67 -128l-390 -1474h-122l-304 1087l-362 -1087h-121l-416 1474q-27 97 -69.5 128.5t-139.5 31.5v51h682v-51q-135 0 -164.5 -34.5t1.5 -125.5l284 -1028h6l256 791l-65 237q-27 97 -69.5 128.5t-139.5 31.5
v51h682v-51q-94 0 -133.5 -14.5t-45 -50t12.5 -95.5l266 -981h6l254 979q17 60 12.5 96t-44.5 51t-133 15v51h460z" />
    <glyph glyph-name="wgrave" unicode="&#x1e81;" horiz-adv-x="1634" 
d="M952 1288h-82l-280 381h225zM1614 1085v-51q-69 0 -104 -32t-62 -128l-260 -921h-144l-190 637l-207 -637h-143l-309 926q-31 92 -68.5 123.5t-106.5 31.5v51h527v-51q-91 0 -104 -30t22 -127l197 -594h6l145 446l-43 145q-28 95 -64 127.5t-104 32.5v51h518v-51
q-31 0 -51 -2.5t-32.5 -10.5t-17 -17.5t-3 -30.5t6 -41.5t15.5 -57.5l156 -546h6l156 546q33 98 18.5 129t-106.5 31v51h346z" />
    <glyph glyph-name="Wacute" unicode="&#x1e82;" horiz-adv-x="2168" 
d="M1460 2171l-280 -381h-82l137 381h225zM2148 1638v-51q-96 0 -137 -32t-67 -128l-390 -1474h-122l-304 1087l-362 -1087h-121l-416 1474q-27 97 -69.5 128.5t-139.5 31.5v51h682v-51q-135 0 -164.5 -34.5t1.5 -125.5l284 -1028h6l256 791l-65 237q-27 97 -69.5 128.5
t-139.5 31.5v51h682v-51q-94 0 -133.5 -14.5t-45 -50t12.5 -95.5l266 -981h6l254 979q17 60 12.5 96t-44.5 51t-133 15v51h460z" />
    <glyph glyph-name="wacute" unicode="&#x1e83;" horiz-adv-x="1634" 
d="M1106 1669l-281 -381h-82l138 381h225zM1614 1085v-51q-69 0 -104 -32t-62 -128l-260 -921h-144l-190 637l-207 -637h-143l-309 926q-31 92 -68.5 123.5t-106.5 31.5v51h527v-51q-91 0 -104 -30t22 -127l197 -594h6l145 446l-43 145q-28 95 -64 127.5t-104 32.5v51h518
v-51q-31 0 -51 -2.5t-32.5 -10.5t-17 -17.5t-3 -30.5t6 -41.5t15.5 -57.5l156 -546h6l156 546q33 98 18.5 129t-106.5 31v51h346z" />
    <glyph glyph-name="Wdieresis" unicode="&#x1e84;" horiz-adv-x="2168" 
d="M973 1853q-54 0 -93.5 40t-39.5 94q0 55 39.5 94t93.5 39q55 0 94 -39t39 -94q0 -54 -39 -94t-94 -40zM1403 1853q-54 0 -93.5 40t-39.5 94q0 55 39.5 94t93.5 39q55 0 94 -39t39 -94q0 -54 -39 -94t-94 -40zM2148 1638v-51q-96 0 -137 -32t-67 -128l-390 -1474h-122
l-304 1087l-362 -1087h-121l-416 1474q-27 97 -69.5 128.5t-139.5 31.5v51h682v-51q-135 0 -164.5 -34.5t1.5 -125.5l284 -1028h6l256 791l-65 237q-27 97 -69.5 128.5t-139.5 31.5v51h682v-51q-94 0 -133.5 -14.5t-45 -50t12.5 -95.5l266 -981h6l254 979q17 60 12.5 96
t-44.5 51t-133 15v51h460z" />
    <glyph glyph-name="wdieresis" unicode="&#x1e85;" horiz-adv-x="1634" 
d="M618 1352q-54 0 -93.5 39.5t-39.5 93.5q0 55 39.5 94t93.5 39q56 0 95 -39t39 -94q0 -54 -39.5 -93.5t-94.5 -39.5zM1049 1352q-54 0 -94 39.5t-40 93.5q0 55 40 94t94 39q55 0 94 -39t39 -94q0 -54 -39 -93.5t-94 -39.5zM1614 1085v-51q-69 0 -104 -32t-62 -128
l-260 -921h-144l-190 637l-207 -637h-143l-309 926q-31 92 -68.5 123.5t-106.5 31.5v51h527v-51q-91 0 -104 -30t22 -127l197 -594h6l145 446l-43 145q-28 95 -64 127.5t-104 32.5v51h518v-51q-31 0 -51 -2.5t-32.5 -10.5t-17 -17.5t-3 -30.5t6 -41.5t15.5 -57.5l156 -546h6
l156 546q33 98 18.5 129t-106.5 31v51h346z" />
    <glyph glyph-name="Ygrave" unicode="&#x1ef2;" horiz-adv-x="1505" 
d="M956 1790h-82l-280 381h225zM915 219q0 -66 16.5 -100t64 -51t141.5 -17v-51h-725v51q94 0 141.5 17t63.5 50.5t16 100.5v502l-365 721q-44 88 -96.5 116.5t-151.5 28.5v51h705v-51q-48 0 -78.5 -2.5t-48.5 -10.5t-26 -16.5t-4 -28t11 -37t23 -50.5l279 -559h6l256 557
q15 33 21.5 50.5t9 37.5t-5.5 28.5t-26 17t-49 11t-79 2.5v51h471v-51q-99 0 -150 -29t-92 -118l-328 -719v-502z" />
    <glyph glyph-name="ygrave" unicode="&#x1ef3;" horiz-adv-x="1056" 
d="M666 1288h-82l-281 381h225zM43 -330q0 57 37.5 93t87.5 36q65 0 115 -59q22 -25 36 -34t37 -9q52 0 89 62t69 204l-309 916q-31 92 -68.5 123.5t-105.5 31.5v51h532v-51q-92 0 -106.5 -31t18.5 -129l158 -524l137 524q30 97 14 128.5t-108 31.5v51h350v-51
q-68 0 -102 -32.5t-60 -127.5l-231 -837q-6 -22 -19 -66q-22 -80 -34.5 -119.5t-37 -105t-49.5 -99t-61 -71t-83 -53t-105 -15.5q-90 0 -145.5 45t-55.5 117z" />
    <glyph glyph-name="endash" unicode="&#x2013;" horiz-adv-x="1228" 
d="M0 467v174h1229v-174h-1229z" />
    <glyph glyph-name="emdash" unicode="&#x2014;" horiz-adv-x="2457" 
d="M0 467v174h2458v-174h-2458z" />
    <glyph glyph-name="quoteleft" unicode="&#x2018;" horiz-adv-x="507" 
d="M295 1393q51 0 81 -37t30 -92q0 -61 -41 -99.5t-103 -38.5q-69 0 -114.5 51t-45.5 136q0 112 74 206.5t219 159.5v-51q-85 -38 -147 -100t-62 -123q0 -43 23 -43q5 0 30.5 15.5t55.5 15.5z" />
    <glyph glyph-name="quoteright" unicode="&#x2019;" horiz-adv-x="507" 
d="M213 1413q-51 0 -81 37.5t-30 93.5q0 59 41 97t103 38q69 0 114.5 -50.5t45.5 -133.5q0 -114 -74 -209t-219 -160v52q86 40 147.5 101.5t61.5 123.5q0 41 -23 41q-5 0 -30.5 -15.5t-55.5 -15.5z" />
    <glyph glyph-name="quotesinglbase" unicode="&#x201a;" horiz-adv-x="507" 
d="M213 -41q-51 0 -81 37.5t-30 93.5q0 59 41 97t103 38q69 0 114.5 -50.5t45.5 -133.5q0 -114 -74 -209t-219 -160v52q85 38 147 100t62 123q0 43 -23 43q-5 0 -30.5 -15.5t-55.5 -15.5z" />
    <glyph glyph-name="quotedblleft" unicode="&#x201c;" horiz-adv-x="921" 
d="M285 1393q51 0 80.5 -37t29.5 -92q0 -61 -40.5 -99.5t-102.5 -38.5q-69 0 -114.5 51t-45.5 136q0 112 74 206.5t219 159.5v-51q-85 -38 -147 -100t-62 -123q0 -43 23 -43q5 0 30.5 15.5t55.5 15.5zM709 1393q51 0 80.5 -37t29.5 -92q0 -61 -40 -99.5t-103 -38.5
q-68 0 -113 51.5t-45 135.5q0 112 73.5 206.5t217.5 159.5v-51q-84 -38 -145.5 -100t-61.5 -123q0 -43 21 -43q6 0 31.5 15.5t54.5 15.5z" />
    <glyph glyph-name="quotedblright" unicode="&#x201d;" horiz-adv-x="921" 
d="M213 1413q-51 0 -81 37.5t-30 93.5q0 59 41 97t103 38q69 0 114.5 -50.5t45.5 -133.5q0 -114 -74 -209t-219 -160v52q86 40 147.5 101.5t61.5 123.5q0 41 -23 41q-5 0 -30.5 -15.5t-55.5 -15.5zM639 1413q-51 0 -81 37.5t-30 93.5q0 60 40.5 97.5t103.5 37.5
q68 0 112.5 -50.5t44.5 -133.5q0 -114 -73 -209t-217 -160v52q85 40 145.5 101.5t60.5 123.5q0 41 -20 41q-6 0 -31.5 -15.5t-54.5 -15.5z" />
    <glyph glyph-name="quotedblbase" unicode="&#x201e;" horiz-adv-x="921" 
d="M213 -41q-51 0 -81 37.5t-30 93.5q0 59 41 97t103 38q69 0 114.5 -50.5t45.5 -133.5q0 -114 -74 -209t-219 -160v52q85 38 147 100t62 123q0 43 -23 43q-5 0 -30.5 -15.5t-55.5 -15.5zM639 -41q-51 0 -81 37.5t-30 93.5q0 60 40.5 97.5t103.5 37.5q68 0 112.5 -50.5
t44.5 -133.5q0 -114 -73 -209t-217 -160v52q84 38 145 100t61 123q0 43 -20 43q-6 0 -31.5 -15.5t-54.5 -15.5z" />
    <glyph glyph-name="dagger" unicode="&#x2020;" horiz-adv-x="1085" 
d="M862 1337q52 0 86.5 -34.5t34.5 -94.5q0 -59 -34.5 -93t-86.5 -34q-31 0 -65 15t-62 33.5t-74 36t-96 20.5q3 -101 30.5 -162t86.5 -131q-58 -113 -84 -269.5t-29 -463.5v-713h-51v713q-4 310 -29 466t-83 267q60 70 87.5 131t30.5 162q-51 -3 -97.5 -20t-75 -35.5
t-63 -34t-65.5 -15.5q-52 0 -86.5 34t-34.5 93q0 60 35 94.5t86 34.5q38 0 81.5 -25.5t99 -53.5t120.5 -31q-2 58 -19.5 108.5t-37 81t-35.5 73.5t-16 87q0 61 36 97t91 36q56 0 92.5 -36t36.5 -97q0 -44 -16 -87t-35.5 -73.5t-36.5 -81t-19 -108.5q64 4 118.5 32t97.5 53
t81 25z" />
    <glyph glyph-name="daggerdbl" unicode="&#x2021;" horiz-adv-x="1085" 
d="M862 -10q52 0 86.5 -34t34.5 -93t-34.5 -94t-86.5 -35q-38 0 -81 25t-97.5 53t-118.5 32q2 -58 19 -108.5t36.5 -81t35.5 -73.5t16 -87q0 -61 -36.5 -97t-92.5 -36q-55 0 -91 35.5t-36 97.5q0 44 16 87t35.5 73.5t37 81t19.5 108.5q-65 -3 -120.5 -31t-99 -53.5
t-81.5 -25.5q-51 0 -86 35t-35 94t34.5 93t86.5 34q31 0 65.5 -15.5t63 -34t75 -35.5t97.5 -20q-3 81 -23.5 135.5t-64.5 126.5q48 94 67 178t19 212q0 127 -19 210t-67 177q29 48 44 78t28.5 79t15.5 105q-51 -3 -97.5 -20t-75 -35.5t-63 -34t-65.5 -15.5q-52 0 -86.5 34
t-34.5 93q0 60 35 94.5t86 34.5q38 0 81.5 -25.5t99 -53.5t120.5 -31q-2 58 -19.5 108.5t-37 81t-35.5 73.5t-16 87q0 61 36 97t91 36q56 0 92.5 -36t36.5 -97q0 -44 -16 -87t-35.5 -73.5t-36.5 -81t-19 -108.5q64 4 118.5 32t97.5 53t81 25q52 0 86.5 -34.5t34.5 -94.5
q0 -59 -34.5 -93t-86.5 -34q-31 0 -65 15t-62 33.5t-74 36t-96 20.5q3 -81 23.5 -136.5t62.5 -125.5q-49 -95 -68.5 -178t-19.5 -209q0 -127 19.5 -211t68.5 -179q-42 -70 -62.5 -125.5t-23.5 -136.5q50 3 96 20.5t74 36t62 33.5t65 15z" />
    <glyph glyph-name="bullet" unicode="&#x2022;" horiz-adv-x="870" 
d="M436 471q-138 0 -236 97t-98 235t98 236t236 98t235 -98t97 -236t-97 -235t-235 -97z" />
    <glyph glyph-name="ellipsis" unicode="&#x2026;" horiz-adv-x="1476" 
d="M236 -41q-56 0 -95 39t-39 94t39 94t95 39t94.5 -38.5t38.5 -94.5t-38.5 -94.5t-94.5 -38.5zM739 -41q-55 0 -94 38.5t-39 94.5t39 94.5t94 38.5t94 -38.5t39 -94.5t-39 -94.5t-94 -38.5zM1241 -41q-55 0 -94 38.5t-39 94.5t39 94.5t94 38.5t94 -38.5t39 -94.5t-39 -94.5
t-94 -38.5z" />
    <glyph glyph-name="perthousand" unicode="&#x2030;" horiz-adv-x="2252" 
d="M401 834q-124 0 -211.5 122t-87.5 299q0 179 87.5 301.5t211.5 122.5q122 0 208.5 -122.5t86.5 -301.5q0 -177 -86.5 -299t-208.5 -122zM1235 1638h96l-1018 -1638h-96zM401 895q121 0 121 360q0 363 -121 363q-125 0 -125 -363q0 -360 125 -360zM1149 -41
q-124 0 -211.5 122.5t-87.5 299.5q0 179 87.5 301.5t211.5 122.5q122 0 208.5 -122.5t86.5 -301.5q0 -177 -86.5 -299.5t-208.5 -122.5zM1855 -41q-124 0 -211.5 122.5t-87.5 299.5q0 179 87.5 301.5t211.5 122.5q122 0 208.5 -122.5t86.5 -301.5q0 -177 -86.5 -299.5
t-208.5 -122.5zM1149 20q121 0 121 361q0 362 -121 362q-125 0 -125 -362q0 -361 125 -361zM1855 20q121 0 121 361q0 362 -121 362q-124 0 -124 -362q0 -361 124 -361z" />
    <glyph glyph-name="guilsinglleft" unicode="&#x2039;" horiz-adv-x="624" 
d="M338 600l205 -500h-51l-369 500l369 494h51z" />
    <glyph glyph-name="guilsinglright" unicode="&#x203a;" horiz-adv-x="624" 
d="M287 600l-205 494h51l369 -494l-369 -500h-51z" />
    <glyph glyph-name="fraction" unicode="&#x2044;" horiz-adv-x="909" 
d="M915 1638h97l-1018 -1638h-96z" />
    <glyph glyph-name="Euro" unicode="&#x20ac;" horiz-adv-x="1443" 
d="M1290 621h51q-80 -662 -505 -662q-163 0 -289 94.5t-198.5 259t-90.5 379.5h-156l27 72h125v55q0 53 2 78h-154l27 72h131q33 324 192 517t408 193q229 0 414 -182v-381h-51q-13 245 -99 358t-209 113q-81 0 -144.5 -45t-105.5 -128.5t-66.5 -194.5t-33.5 -250h496
l-25 -72h-473q-2 -25 -2 -78v-55h436l-26 -72h-406q14 -290 99.5 -455t242.5 -165q149 0 250 143t133 406z" />
    <glyph glyph-name="trademark" unicode="&#x2122;" horiz-adv-x="2398" 
d="M307 1546q-97 0 -138 -44.5t-58 -180.5l-52 6l31 240l8 71h848l8 -71l31 -240l-51 -6q-17 136 -57.5 180.5t-137.5 44.5h-129v-590q0 -98 29.5 -133t124.5 -35v-51h-483v51q95 0 125 35.5t30 132.5v590h-129zM1688 1004h6l268 634h375v-51q-95 0 -124.5 -35t-29.5 -133
v-463q0 -98 29.5 -133t124.5 -35v-51h-484v51q95 0 125.5 35.5t30.5 132.5v543h-6l-340 -803h-41l-319 803h-7l2 -543q0 -97 30.5 -132.5t125.5 -35.5v-51h-401v51q95 0 125 35.5t30 132.5v463q0 97 -30 132.5t-125 35.5v51h383z" />
    <glyph glyph-name="oneeighth" unicode="&#x215b;" horiz-adv-x="1800" 
d="M170 702q60 0 78 20t18 81v672q0 45 -5.5 59.5t-27.5 12.5t-75 -27l-15 28l269 125l18 -18v-852q0 -61 18 -81t80 -20v-30h-358v30zM1286 1638h96l-1017 -1638h-97zM1448 557q105 -84 159 -160t54 -166q0 -115 -86 -183t-219 -68q-135 0 -219 67t-84 170q0 46 15 86
t47.5 76t64 63t82.5 64q-96 79 -139.5 140.5t-43.5 139.5q0 101 81 163.5t202 62.5q124 0 198 -59.5t74 -149.5q0 -33 -11 -63t-24.5 -51t-43 -48t-48.5 -41t-59 -43zM1370 956q-62 0 -100.5 -38t-38.5 -99q0 -51 35.5 -98t122.5 -117q63 56 89.5 104.5t26.5 104.5
q0 61 -37.5 102t-97.5 41zM1360 35q69 0 108 43.5t39 118.5q0 72 -45 127.5t-145 134.5q-135 -117 -135 -242q0 -76 46 -129t132 -53z" />
    <glyph glyph-name="threeeighths" unicode="&#x215c;" horiz-adv-x="1941" 
d="M756 936q0 -92 -52 -162.5t-133.5 -106.5t-175.5 -36q-97 0 -172.5 27t-75.5 77q0 26 21.5 41t54.5 15q34 0 53.5 -13.5t36.5 -38.5q21 -27 43 -40t62 -13q68 0 116 58t48 155q0 129 -66 190t-188 74v31q184 59 184 221q0 64 -36.5 104t-104.5 40t-113 -36t-63 -98h-33
q17 110 91 174t189 64q106 0 175 -59t69 -162q0 -156 -197 -232v-4q119 -13 193 -82.5t74 -187.5zM1448 1638h96l-1018 -1638h-96zM1610 557q105 -84 159 -160t54 -166q0 -115 -86 -183t-219 -68q-135 0 -219.5 67.5t-84.5 169.5q0 46 15 86t47.5 76t64 63t82.5 64
q-96 79 -139 140.5t-43 139.5q0 101 81 163.5t202 62.5q124 0 198 -59.5t74 -149.5q0 -33 -11 -63t-24.5 -51t-43 -48t-48.5 -41t-59 -43zM1532 956q-62 0 -100.5 -38t-38.5 -99q0 -51 35.5 -98t121.5 -117q64 56 90.5 104.5t26.5 104.5q0 61 -37.5 102t-97.5 41zM1522 35
q69 0 108 43.5t39 118.5q0 72 -45 127.5t-145 134.5q-136 -117 -136 -242q0 -76 46.5 -129t132.5 -53z" />
    <glyph glyph-name="fiveeighths" unicode="&#x215d;" horiz-adv-x="1880" 
d="M733 1024q0 -98 -31 -175.5t-84 -123.5t-118 -70t-138 -24q-95 0 -158 26t-63 74q0 55 68 55q32 0 52 -15.5t38 -43.5q30 -41 88 -41q64 0 112 81.5t48 223.5q0 273 -166 273q-76 0 -135 -56l-47 31l100 399h420l-33 -129h-334l-61 -221l6 -4q67 47 162 47
q112 0 193 -83.5t81 -223.5zM1386 1638h97l-1018 -1638h-96zM1548 557q105 -84 159 -160t54 -166q0 -115 -86 -183t-219 -68q-135 0 -219 67t-84 170q0 46 15 86t47.5 76t64 63t82.5 64q-96 79 -139 140.5t-43 139.5q0 101 80.5 163.5t201.5 62.5q125 0 199 -59.5t74 -149.5
q0 -33 -11 -63t-24.5 -50.5t-44 -48t-48.5 -41t-59 -43.5zM1470 956q-62 0 -100.5 -38t-38.5 -99q0 -51 35.5 -98t122.5 -117q64 56 90.5 104.5t26.5 104.5q0 61 -38 102t-98 41zM1460 35q69 0 108.5 43.5t39.5 118.5q0 72 -45 127t-146 135q-135 -117 -135 -242
q0 -76 46 -129t132 -53z" />
    <glyph glyph-name="seveneighths" unicode="&#x215e;" horiz-adv-x="1765" 
d="M608 1509h-325q-57 0 -85 -29.5t-48 -117.5l-31 8l35 152l26 116h596l-344 -999l-110 27l286 839v4zM1272 1638h96l-1018 -1638h-96zM1434 557q105 -84 159 -160t54 -166q0 -115 -86.5 -183t-219.5 -68q-135 0 -219 67t-84 170q0 46 15 86t47.5 76t64 63t82.5 64
q-96 79 -139 140.5t-43 139.5q0 101 81 163.5t202 62.5q124 0 198 -59.5t74 -149.5q0 -33 -11 -63t-24.5 -51t-43 -48t-48.5 -41t-59 -43zM1356 956q-62 0 -100.5 -38t-38.5 -99q0 -51 35.5 -98t121.5 -117q64 56 90.5 104.5t26.5 104.5q0 61 -37.5 102t-97.5 41zM1346 35
q69 0 108 43.5t39 118.5q0 72 -45 127.5t-145 134.5q-136 -117 -136 -242q0 -76 46.5 -129t132.5 -53z" />
    <glyph glyph-name="arrowleft" unicode="&#x2190;" horiz-adv-x="1781" 
d="M1679 487h-1032q-80 0 -188.5 22.5t-171.5 22.5v-6q92 -38 161.5 -80t119 -90.5t79 -86t68.5 -95.5l-133 -113q-94 175 -201 275.5t-279 175.5v82q172 75 279 175.5t201 274.5l133 -112q-39 -58 -68.5 -95.5t-79 -86t-119 -90.5t-161.5 -80v-7q62 0 170.5 24t189.5 24
h1032v-134z" />
    <glyph glyph-name="arrowup" unicode="&#x2191;" horiz-adv-x="1208" 
d="M672 -143h-133v1032q0 81 22.5 190t22.5 170h-6q-38 -91 -80 -160.5t-90.5 -119t-86.5 -80t-96 -68.5l-112 133q174 94 274.5 201t175.5 279h82q75 -172 175.5 -279t275.5 -201l-113 -133q-57 38 -95.5 68.5t-86.5 80t-90 119t-80 160.5h-6q0 -61 23.5 -170t23.5 -190
v-1032z" />
    <glyph glyph-name="arrowright" unicode="&#x2192;" horiz-adv-x="1781" 
d="M102 487v134h1033q81 0 190 -24t170 -24v7q-91 38 -160.5 80t-119 90t-80 86.5t-68.5 95.5l133 112q94 -175 200.5 -275t278.5 -175v-82q-172 -75 -278.5 -175.5t-200.5 -275.5l-133 113q38 57 68.5 95.5t80 86.5t119 90t160.5 80v6q-61 0 -170 -22.5t-190 -22.5h-1033z
" />
    <glyph glyph-name="arrowdown" unicode="&#x2193;" horiz-adv-x="1208" 
d="M672 1300v-1032q0 -80 -23.5 -188.5t-23.5 -171.5h6q38 92 80 161.5t90.5 119t86 79t95.5 68.5l113 -133q-175 -94 -275.5 -200.5t-175.5 -278.5h-82q-75 172 -175 278.5t-275 200.5l112 133q46 -31 76 -53t71.5 -60t73 -78.5t66.5 -101.5t66 -135h6q0 62 -22.5 170.5
t-22.5 189.5v1032h133z" />
    <glyph glyph-name="arrowboth" unicode="&#x2194;" horiz-adv-x="2437" 
d="M1855 1044q94 -174 201 -274.5t279 -175.5v-82q-172 -75 -279 -175.5t-201 -275.5l-133 113q38 57 68.5 95.5t80 86.5t119 90t160.5 80v6q-61 0 -170 -22.5t-190 -22.5h-1143q-80 0 -188.5 22.5t-171.5 22.5v-6q92 -38 161.5 -80t119 -90.5t79 -86t68.5 -95.5l-133 -113
q-94 175 -201 275.5t-279 175.5v82q172 75 279 175.5t201 274.5l133 -112q-39 -58 -68.5 -95.5t-79 -86t-119 -90.5t-161.5 -80v-7q62 0 170.5 24t189.5 24h1143q81 0 190 -24t170 -24v7q-91 38 -160.5 80t-119 90t-80 86.5t-68.5 95.5z" />
    <glyph glyph-name="arrowupdn" unicode="&#x2195;" horiz-adv-x="1187" 
d="M621 -387q38 91 80 160.5t90 119t86.5 80t95.5 68.5l112 -133q-175 -94 -275 -200.5t-175 -278.5h-82q-75 172 -175.5 278.5t-275.5 200.5l113 133q57 -38 95.5 -68.5t86.5 -80t90 -119t80 -160.5h6q0 61 -22.5 170t-22.5 190v1143q0 81 22.5 190.5t22.5 170.5h-6
q-38 -91 -80 -160.5t-90 -119t-86.5 -80t-95.5 -68.5l-113 133q175 94 275.5 200.5t175.5 278.5h82q75 -172 175 -278.5t275 -200.5l-112 -133q-57 38 -95.5 68.5t-86.5 80t-90 119t-80 160.5h-7q0 -61 24 -170.5t24 -190.5v-1143q0 -81 -24 -190t-24 -170h7z" />
    <glyph glyph-name="uni2196" unicode="&#x2196;" horiz-adv-x="1409" 
d="M1196 -29l-729 731q-58 57 -119 150.5t-104 136.5l-4 -4q49 -120 66 -226.5t11.5 -171t-24.5 -153.5l-174 15q58 190 53 335.5t-74 321.5l60 57q174 -69 320.5 -73t336.5 53l14 -174q-91 -19 -155.5 -24.5t-170.5 11.5t-227 66l-4 -4q44 -44 138 -104.5t151 -116.5
l729 -731z" />
    <glyph glyph-name="uni2197" unicode="&#x2197;" horiz-adv-x="1409" 
d="M211 -29l-94 95l731 731q57 56 150 116.5t137 104.5l-5 4q-121 -49 -226 -66t-169 -11.5t-155 24.5l14 174q188 -57 335.5 -53t321.5 73l58 -57q-68 -176 -73 -321.5t52 -335.5l-174 -15q-19 89 -24.5 153.5t11.5 171t66 226.5l-4 4q-44 -44 -104 -137t-117 -150z" />
    <glyph glyph-name="uni2198" unicode="&#x2198;" horiz-adv-x="1409" 
d="M211 1135l731 -732q57 -57 117 -149.5t104 -136.5l4 4q-49 120 -66 226.5t-11.5 171t24.5 153.5l174 -15q-57 -190 -52 -335.5t73 -321.5l-58 -57q-174 69 -321.5 73t-335.5 -53l-14 174q91 19 155 24.5t169 -11.5t226 -66l5 4q-44 44 -137 104.5t-150 116.5l-731 731z
" />
    <glyph glyph-name="uni2199" unicode="&#x2199;" horiz-adv-x="1409" 
d="M1196 1135l94 -95l-729 -731q-57 -56 -151 -116.5t-138 -104.5l4 -4q121 49 227 66t170.5 11.5t155.5 -24.5l-14 -174q-190 57 -336.5 53t-320.5 -73l-60 57q69 176 74 321.5t-53 335.5l174 15q19 -89 24.5 -153.5t-11.5 -171t-66 -226.5l4 -4q43 43 104 136t119 150z
" />
    <glyph glyph-name="partialdiff" unicode="&#x2202;" horiz-adv-x="1396" 
d="M819 1679q271 0 390.5 -229t70.5 -664q-47 -418 -230 -663.5t-448 -245.5q-273 0 -404 183t-81 485q39 244 206 382t394 138q77 0 144 -14.5t115 -37t90.5 -55.5t70 -65.5t53.5 -71.5q14 142 -2 256.5t-54.5 189t-95.5 125t-122 72t-138 21.5q-257 0 -416 -197h-51
q37 84 84 151t108.5 123t142 86.5t173.5 30.5zM612 -31q116 0 213.5 57.5t167.5 161.5t117.5 243t71.5 308q-131 234 -391 234q-77 0 -148 -31t-130 -89t-102.5 -147.5t-62.5 -201.5q-22 -111 -15 -208t35.5 -170t91 -115t152.5 -42z" />
    <glyph glyph-name="emptyset" unicode="&#x2205;" horiz-adv-x="1355" 
d="M1253 1143l-174 -174q123 -149 123 -338q0 -106 -41.5 -203t-112 -167t-167 -111t-203.5 -41q-191 0 -336 120l-174 -174l-66 66l174 174q-120 145 -120 336q0 107 41 203.5t111 167t167 112t203 41.5q189 0 338 -123l174 174zM248 631q0 -153 94 -271l608 607
q-124 96 -272 96q-178 0 -304 -126.5t-126 -305.5zM1110 631q0 148 -96 272l-606 -608q118 -94 270 -94q179 0 305.5 126t126.5 304z" />
    <glyph glyph-name="product" unicode="&#x220f;" horiz-adv-x="1888" 
d="M1786 1628q-94 0 -141.5 -17t-63.5 -50.5t-16 -100.5v-1569q0 -66 16 -100t63.5 -50.5t141.5 -16.5v-52h-678v52q94 0 141.5 16.5t63.5 50.5t16 100v1696h-770v-1696q0 -66 16 -100t63.5 -50.5t141.5 -16.5v-52h-678v52q94 0 141.5 16.5t64 50.5t16.5 100v1569
q0 66 -16.5 100t-64 51t-141.5 17v51h1684v-51z" />
    <glyph glyph-name="summation" unicode="&#x2211;" horiz-adv-x="1511" 
d="M1323 1679l6 -65l33 -324l-51 -6q-14 127 -37 192t-59.5 88t-102.5 23h-688l530 -741l-620 -938h796q66 0 104 28t66 107.5t48 232.5l51 -6l-53 -395l-27 -203h-1217v52l654 989v6l-654 909v51h1221z" />
    <glyph glyph-name="minus" unicode="&#x2212;" horiz-adv-x="942" 
d="M102 467v174h738v-174h-738z" />
    <glyph glyph-name="radical" unicode="&#x221a;" horiz-adv-x="1458" 
d="M1407 1839l-373 -1995h-82l-563 1047l-244 -121l-43 82l455 229l451 -868h6l301 1626h92z" />
    <glyph glyph-name="infinity" unicode="&#x221e;" horiz-adv-x="1986" 
d="M1489 1243q168 0 281.5 -106.5t113.5 -284.5q0 -191 -113.5 -304.5t-283.5 -113.5q-64 0 -123.5 16t-104.5 39t-96.5 65t-86 76t-87.5 91q-154 -134 -279.5 -190t-256.5 -56q-148 0 -249.5 95.5t-101.5 263.5q0 163 105.5 265.5t271.5 102.5q66 0 128.5 -21t120 -62
t102 -82.5t98.5 -100.5q185 171 303.5 239t257.5 68zM1487 537q128 0 216.5 87.5t88.5 241.5q0 110 -74 182t-188 72q-40 0 -78.5 -12t-68 -28t-69 -49.5t-65.5 -59t-75.5 -75.5t-81.5 -81q-3 -3 -9.5 -9t-11 -11t-8.5 -9q56 -60 100 -100t97 -77t109 -54.5t118 -17.5z
M414 598q91 0 182.5 55.5t257.5 212.5q-117 123 -203.5 178.5t-181.5 55.5q-121 0 -197.5 -79.5t-76.5 -197.5q0 -101 62.5 -163t156.5 -62z" />
    <glyph glyph-name="integral" unicode="&#x222b;" horiz-adv-x="921" 
d="M733 29q0 -184 -86.5 -291t-255.5 -107q-129 0 -209 61.5t-80 155.5q0 46 23.5 75.5t73.5 29.5q91 0 98 -100q2 -26 3 -39.5t6.5 -33.5t14.5 -30t25.5 -18t40.5 -8q131 0 131 274q0 121 -34 259t-82.5 265.5t-97 256t-82.5 272t-34 272.5q0 182 91 289.5t262 107.5
q122 0 200 -62t78 -155q0 -46 -23 -75t-71 -29q-89 0 -100 100q-2 28 -3 40t-6 33t-13.5 30.5t-25 17.5t-40.5 8q-134 0 -134 -295q0 -115 34 -249t82.5 -259t97 -252.5t82.5 -271t34 -272.5z" />
    <glyph glyph-name="approxequal" unicode="&#x2248;" horiz-adv-x="1331" 
d="M1178 930h51q-8 -159 -81.5 -252.5t-201.5 -93.5q-60 0 -121.5 18t-114.5 43.5l-106 51t-114.5 43.5t-120.5 18q-179 0 -215 -172h-52q8 159 81.5 252.5t201.5 93.5q60 0 121.5 -18t115 -43.5t106.5 -51t114.5 -43.5t120.5 -18q179 0 215 172zM1178 520h51
q-8 -159 -81.5 -252.5t-201.5 -93.5q-60 0 -121.5 18t-114.5 43.5l-106 51t-114.5 43.5t-120.5 18q-179 0 -215 -172h-52q8 159 81.5 252.5t201.5 93.5q60 0 121.5 -18t115 -43.5t106.5 -51t114.5 -43.5t120.5 -18q179 0 215 172z" />
    <glyph glyph-name="notequal" unicode="&#x2260;" horiz-adv-x="942" 
d="M840 662h-285l-86 -216h371v-174h-441l-116 -292h-78l117 292h-220v174h289l86 216h-375v174h445l117 290h77l-116 -290h215v-174z" />
    <glyph glyph-name="lessequal" unicode="&#x2264;" horiz-adv-x="1003" 
d="M901 315l-799 238v256l799 238v-183l-653 -180v-6l653 -180v-183zM901 119h-799v174h799v-174z" />
    <glyph glyph-name="greaterequal" unicode="&#x2265;" horiz-adv-x="1003" 
d="M102 315v183l654 180v6l-654 180v183l799 -238v-256zM102 119v174h799v-174h-799z" />
    <glyph glyph-name="uni2460" unicode="&#x2460;" 
d="M965 1679q140 0 271 -42.5t236.5 -121.5t185 -184.5t122.5 -238t43 -275.5q0 -174 -68 -333t-182.5 -274t-273.5 -183t-334 -68q-177 0 -337 68t-275 183t-183 274t-68 333q0 179 67.5 339t183 274.5t275 181.5t337.5 67zM965 1618q-221 0 -405.5 -107.5t-290 -291.5
t-105.5 -402q0 -164 62 -311.5t168.5 -254t255.5 -169t315 -62.5q216 0 399 106t290 289.5t107 401.5q0 163 -63.5 311t-170 255.5t-254 171t-308.5 63.5zM1047 453q0 -61 18 -81t80 -20v-30h-359v30q60 0 78.5 20t18.5 81v671q0 45 -6 59.5t-28 12.5t-75 -27l-14 29
l268 125l19 -18v-852z" />
    <glyph glyph-name="uni2461" unicode="&#x2461;" 
d="M965 1679q140 0 271 -42.5t236.5 -121.5t185 -184.5t122.5 -238t43 -275.5q0 -174 -68 -333t-182.5 -274t-273.5 -183t-334 -68q-177 0 -337 68t-275 183t-183 274t-68 333q0 179 67.5 339t183 274.5t275 181.5t337.5 67zM965 1618q-221 0 -405.5 -107.5t-290 -291.5
t-105.5 -402q0 -164 62 -311.5t168.5 -254t255.5 -169t315 -62.5q216 0 399 106t290 289.5t107 401.5q0 163 -63.5 311t-170 255.5t-254 171t-308.5 63.5zM1133 477q59 0 88 26.5t59 102.5l29 -10l-52 -135l-43 -113h-581v31q90 88 147 146.5t120.5 132.5t98.5 131
t58.5 120.5t23.5 122.5q0 92 -42.5 143.5t-127.5 51.5q-97 0 -152 -66t-63 -182h-34q0 172 93.5 274.5t248.5 102.5q120 0 185.5 -67t65.5 -175q0 -63 -27 -132.5t-68.5 -131t-104.5 -130.5t-121 -123t-131 -116v-4h330z" />
    <glyph glyph-name="uni2462" unicode="&#x2462;" 
d="M965 1679q140 0 271 -42.5t236.5 -121.5t185 -184.5t122.5 -238t43 -275.5q0 -174 -68 -333t-182.5 -274t-273.5 -183t-334 -68q-177 0 -337 68t-275 183t-183 274t-68 333q0 179 67.5 339t183 274.5t275 181.5t337.5 67zM965 1618q-221 0 -405.5 -107.5t-290 -291.5
t-105.5 -402q0 -164 62 -311.5t168.5 -254t255.5 -169t315 -62.5q216 0 399 106t290 289.5t107 401.5q0 163 -63.5 311t-170 255.5t-254 171t-308.5 63.5zM666 408q0 26 21 40.5t54 14.5q35 0 54.5 -13t35.5 -38q21 -27 43 -40.5t62 -13.5q68 0 116 58t48 155
q0 129 -66.5 190.5t-187.5 74.5v30q184 59 184 221q0 64 -36.5 104t-104.5 40q-69 0 -113.5 -35.5t-62.5 -97.5h-33q17 110 91 173.5t190 63.5q106 0 174.5 -59t68.5 -162q0 -156 -196 -231v-4q119 -13 192.5 -82.5t73.5 -188.5q0 -92 -52 -162.5t-133.5 -106.5t-175.5 -36
q-97 0 -172 27.5t-75 77.5z" />
    <glyph glyph-name="uni2463" unicode="&#x2463;" 
d="M965 1679q140 0 271 -42.5t236.5 -121.5t185 -184.5t122.5 -238t43 -275.5q0 -174 -68 -333t-182.5 -274t-273.5 -183t-334 -68q-177 0 -337 68t-275 183t-183 274t-68 333q0 179 67.5 339t183 274.5t275 181.5t337.5 67zM965 1618q-221 0 -405.5 -107.5t-290 -291.5
t-105.5 -402q0 -164 62 -311.5t168.5 -254t255.5 -169t315 -62.5q216 0 399 106t290 289.5t107 401.5q0 163 -63.5 311t-170 255.5t-254 171t-308.5 63.5zM602 590v123l416 598h123v-598h125v-123h-125v-131q0 -61 18 -81t80 -20v-30h-358v30q60 0 78 20t18 81v131h-375z
M674 713h303v456l-303 -452v-4z" />
    <glyph glyph-name="uni2464" unicode="&#x2464;" 
d="M965 1679q140 0 271 -42.5t236.5 -121.5t185 -184.5t122.5 -238t43 -275.5q0 -174 -68 -333t-182.5 -274t-273.5 -183t-334 -68q-177 0 -337 68t-275 183t-183 274t-68 333q0 179 67.5 339t183 274.5t275 181.5t337.5 67zM965 1618q-221 0 -405.5 -107.5t-290 -291.5
t-105.5 -402q0 -164 62 -311.5t168.5 -254t255.5 -169t315 -62.5q216 0 399 106t290 289.5t107 401.5q0 163 -63.5 311t-170 255.5t-254 171t-308.5 63.5zM664 416q0 55 67 55q32 0 52 -15.5t38 -43.5q30 -41 88 -41q64 0 112 81.5t48 223.5q0 272 -166 272q-77 0 -135 -55
l-47 31l100 399h420l-33 -129h-334l-61 -221l6 -4q67 47 162 47q112 0 193 -83.5t81 -223.5q0 -98 -31 -175.5t-84 -124t-118 -70.5t-137 -24q-95 0 -158 26.5t-63 74.5z" />
    <glyph glyph-name="uni2465" unicode="&#x2465;" 
d="M965 1679q140 0 271 -42.5t236.5 -121.5t185 -184.5t122.5 -238t43 -275.5q0 -174 -68 -333t-182.5 -274t-273.5 -183t-334 -68q-177 0 -337 68t-275 183t-183 274t-68 333q0 179 67.5 339t183 274.5t275 181.5t337.5 67zM965 20q216 0 399 106t290 289.5t107 401.5
q0 163 -63.5 311t-170 255.5t-254 171t-308.5 63.5q-221 0 -405.5 -107.5t-290 -291.5t-105.5 -402q0 -164 62 -311.5t168.5 -254t255.5 -169t315 -62.5zM1026 1004q120 0 188 -91t68 -227q0 -72 -20.5 -139.5t-59.5 -122.5t-102.5 -88t-141.5 -33q-162 0 -254 118.5
t-90 315.5q3 231 156 393t436 205v-30q-310 -68 -385 -394h2q82 93 203 93zM956 358q72 0 106 72.5t34 224.5q0 293 -140 293q-78 0 -143 -82q-12 -85 -12 -157q-2 -162 39 -256.5t116 -94.5z" />
    <glyph glyph-name="uni2466" unicode="&#x2466;" 
d="M965 1679q140 0 271 -42.5t236.5 -121.5t185 -184.5t122.5 -238t43 -275.5q0 -174 -68 -333t-182.5 -274t-273.5 -183t-334 -68q-177 0 -337 68t-275 183t-183 274t-68 333q0 179 67.5 339t183 274.5t275 181.5t337.5 67zM965 1618q-221 0 -405.5 -107.5t-290 -291.5
t-105.5 -402q0 -164 62 -311.5t168.5 -254t255.5 -169t315 -62.5q216 0 399 106t290 289.5t107 401.5q0 163 -63.5 311t-170 255.5t-254 171t-308.5 63.5zM932 287l-111 26l287 840v4h-326q-57 0 -85 -29.5t-48 -117.5l-31 8l35 151l27 117h596z" />
    <glyph glyph-name="uni2467" unicode="&#x2467;" 
d="M965 1679q140 0 271 -42.5t236.5 -121.5t185 -184.5t122.5 -238t43 -275.5q0 -174 -68 -333t-182.5 -274t-273.5 -183t-334 -68q-177 0 -337 68t-275 183t-183 274t-68 333q0 179 67.5 339t183 274.5t275 181.5t337.5 67zM965 20q216 0 399 106t290 289.5t107 401.5
q0 163 -63.5 311t-170 255.5t-254 171t-308.5 63.5q-221 0 -405.5 -107.5t-290 -291.5t-105.5 -402q0 -164 62 -311.5t168.5 -254t255.5 -169t315 -62.5zM1049 883q69 -56 113 -102.5t72 -105t28 -120.5q0 -115 -86 -183.5t-218 -68.5q-136 0 -220.5 67.5t-84.5 170.5
q0 46 15.5 85.5t48.5 76t64 62.5t83 64q-96 79 -140 141t-44 140q0 101 81.5 163t203.5 62q124 0 197 -59.5t73 -149.5q0 -33 -11 -63t-24.5 -50.5t-43 -47t-48.5 -40.5t-59 -42zM971 1280q-61 0 -99 -38.5t-38 -98.5q0 -51 35.5 -98t121.5 -117q62 56 88.5 104.5
t26.5 104.5q0 62 -36.5 102.5t-98.5 40.5zM961 358q69 0 109 43.5t40 118.5q0 72 -45 127.5t-145 134.5q-138 -119 -138 -241q0 -76 46.5 -129.5t132.5 -53.5z" />
    <glyph glyph-name="uni2468" unicode="&#x2468;" 
d="M961 1679q177 0 337 -68t275 -183t182.5 -274t67.5 -333q0 -179 -67.5 -339t-182.5 -274.5t-274.5 -181.5t-337.5 -67q-175 0 -334 67t-274 181.5t-183 274.5t-68 339q0 174 68 333t183 274t274 183t334 68zM961 20q166 0 315 63.5t255 171t168 255.5t62 311
q0 164 -62 311.5t-168.5 254t-255 169t-314.5 62.5q-162 0 -309 -62.5t-254 -169t-170.5 -254.5t-63.5 -311t63.5 -311.5t170.5 -255.5t254.5 -170.5t308.5 -63.5zM967 1335q162 0 254 -118.5t90 -315.5q-3 -231 -156 -393t-436 -205v31q311 68 385 393h-2q-78 -92 -203 -92
q-120 0 -188 90.5t-68 226.5q0 72 20.5 139.5t59.5 122.5t102.5 88t141.5 33zM1124 930q2 162 -39 256t-116 94q-72 0 -106 -72.5t-34 -224.5q0 -293 140 -293q80 0 143 84q12 86 12 156z" />
    <glyph glyph-name="uni2469" unicode="&#x2469;" 
d="M965 1679q140 0 271 -42.5t236.5 -121.5t185 -184.5t122.5 -238t43 -275.5q0 -174 -68 -333t-182.5 -274t-273.5 -183t-334 -68q-177 0 -337 68t-275 183t-183 274t-68 333q0 179 67.5 339t183 274.5t275 181.5t337.5 67zM965 1618q-221 0 -405.5 -107.5t-290 -291.5
t-105.5 -402q0 -164 62 -311.5t168.5 -254t255.5 -169t315 -62.5q216 0 399 106t290 289.5t107 401.5q0 163 -63.5 311t-170 255.5t-254 171t-308.5 63.5zM1214 303q-108 0 -187.5 70t-118 185.5t-38.5 260.5t38.5 260.5t118 185.5t187.5 70q109 0 189 -70t119 -185.5
t39 -260.5t-39 -260.5t-119 -185.5t-189 -70zM737 453q0 -61 18.5 -81t78.5 -20v-30h-359v30q62 0 80 20t18 81v671q0 44 -6 59t-28.5 13t-75.5 -27l-12 29l266 125l20 -18v-852zM1214 358q160 0 160 461t-160 461q-157 0 -157 -461t157 -461z" />
    <glyph glyph-name="uni246A" unicode="&#x246a;" 
d="M965 1679q140 0 271 -42.5t236.5 -121.5t185 -184.5t122.5 -238t43 -275.5q0 -174 -68 -333t-182.5 -274t-273.5 -183t-334 -68q-177 0 -337 68t-275 183t-183 274t-68 333q0 179 67.5 339t183 274.5t275 181.5t337.5 67zM965 1618q-221 0 -405.5 -107.5t-290 -291.5
t-105.5 -402q0 -164 62 -311.5t168.5 -254t255.5 -169t315 -62.5q216 0 399 106t290 289.5t107 401.5q0 163 -63.5 311t-170 255.5t-254 171t-308.5 63.5zM807 453q0 -61 18 -81t80 -20v-30h-358v30q60 0 78 20t18 81v671q0 45 -5.5 59.5t-27.5 12.5t-75 -27l-15 29l268 125
l19 -18v-852zM1298 453q0 -61 18.5 -81t80.5 -20v-30h-359v30q60 0 78.5 20t18.5 81v671q0 45 -6 59.5t-28 12.5t-75 -27l-14 29l268 125l18 -18v-852z" />
    <glyph glyph-name="uni246B" unicode="&#x246b;" 
d="M965 1679q140 0 271 -42.5t236.5 -121.5t185 -184.5t122.5 -238t43 -275.5q0 -174 -68 -333t-182.5 -274t-273.5 -183t-334 -68q-177 0 -337 68t-275 183t-183 274t-68 333q0 179 67.5 339t183 274.5t275 181.5t337.5 67zM965 1618q-221 0 -405.5 -107.5t-290 -291.5
t-105.5 -402q0 -164 62 -311.5t168.5 -254t255.5 -169t315 -62.5q216 0 399 106t290 289.5t107 401.5q0 163 -63.5 311t-170 255.5t-254 171t-308.5 63.5zM1374 451q59 0 88.5 26.5t59.5 102.5l28 -11l-51 -135l-43 -112h-582v30q90 88 147 147t121 133t99 131t58.5 120.5
t23.5 122.5q0 92 -42.5 143t-127.5 51q-97 0 -152 -66t-63 -182h-35q0 172 93.5 274.5t248.5 102.5q120 0 186 -67t66 -175q0 -78 -38 -162.5t-109 -169t-141.5 -152.5t-164.5 -148v-4h330zM717 453q0 -61 18 -81t78 -20v-30h-358v30q62 0 80 20t18 81v671q0 44 -6.5 59
t-29 13t-75.5 -27l-12 29l266 125l21 -18v-852z" />
    <glyph glyph-name="uni246C" unicode="&#x246c;" 
d="M965 1679q140 0 271 -42.5t236.5 -121.5t185 -184.5t122.5 -238t43 -275.5q0 -174 -68 -333t-182.5 -274t-273.5 -183t-334 -68q-177 0 -337 68t-275 183t-183 274t-68 333q0 179 67.5 339t183 274.5t275 181.5t337.5 67zM965 1618q-221 0 -405.5 -107.5t-290 -291.5
t-105.5 -402q0 -164 62 -311.5t168.5 -254t255.5 -169t315 -62.5q216 0 399 106t290 289.5t107 401.5q0 163 -63.5 311t-170 255.5t-254 171t-308.5 63.5zM887 408q0 26 21.5 40.5t54.5 14.5q35 0 54.5 -13t35.5 -38q14 -18 24.5 -27.5t31 -18t48.5 -8.5q68 0 116 58t48 155
q0 129 -66.5 190.5t-187.5 74.5v30q184 59 184 221q0 64 -36.5 104t-104.5 40q-69 0 -113.5 -35.5t-62.5 -97.5h-33q17 110 91 173.5t190 63.5q106 0 174.5 -59t68.5 -162q0 -156 -196 -231v-4q119 -13 192.5 -82.5t73.5 -188.5q0 -137 -107 -221t-253 -84
q-97 0 -172.5 27.5t-75.5 77.5zM739 453q0 -61 18.5 -81t80.5 -20v-30h-359v30q60 0 78 20t18 81v671q0 45 -5.5 59.5t-27.5 12.5t-75 -27l-14 29l268 125l18 -18v-852z" />
    <glyph glyph-name="uni246D" unicode="&#x246d;" 
d="M965 1679q140 0 271 -42.5t236.5 -121.5t185 -184.5t122.5 -238t43 -275.5q0 -174 -68 -333t-182.5 -274t-273.5 -183t-334 -68q-177 0 -337 68t-275 183t-183 274t-68 333q0 179 67.5 339t183 274.5t275 181.5t337.5 67zM965 1618q-221 0 -405.5 -107.5t-290 -291.5
t-105.5 -402q0 -164 62 -311.5t168.5 -254t255.5 -169t315 -62.5q216 0 399 106t290 289.5t107 401.5q0 163 -63.5 311t-170 255.5t-254 171t-308.5 63.5zM715 453q0 -61 18 -81t78 -20v-30h-358v30q62 0 80 20t18 81v671q0 44 -6.5 59t-29 13t-75.5 -27l-12 29l266 125
l21 -18v-852zM831 584v123l416 598h125v-598h123v-123h-123v-131q0 -61 18 -81t78 -20v-30h-358v30q61 0 79.5 20t18.5 81v131h-377zM903 707h305v456l-305 -452v-4z" />
    <glyph glyph-name="uni246E" unicode="&#x246e;" 
d="M965 1679q140 0 271 -42.5t236.5 -121.5t185 -184.5t122.5 -238t43 -275.5q0 -174 -68 -333t-182.5 -274t-273.5 -183t-334 -68q-177 0 -337 68t-275 183t-183 274t-68 333q0 179 67.5 339t183 274.5t275 181.5t337.5 67zM965 1618q-221 0 -405.5 -107.5t-290 -291.5
t-105.5 -402q0 -164 62 -311.5t168.5 -254t255.5 -169t315 -62.5q216 0 399 106t290 289.5t107 401.5q0 163 -63.5 311t-170 255.5t-254 171t-308.5 63.5zM739 453q0 -61 18.5 -81t78.5 -20v-30h-359v30q62 0 80 20t18 81v671q0 44 -6 59t-28.5 13t-75.5 -27l-12 29l266 125
l20 -18v-852zM901 416q0 55 68 55q32 0 52 -15.5t38 -43.5q30 -41 88 -41q64 0 112 81.5t48 223.5q0 272 -166 272q-77 0 -135 -55l-48 31l101 399h420l-33 -129h-334l-61 -221l6 -4q67 47 162 47q112 0 193 -83.5t81 -223.5q0 -98 -31 -175.5t-84 -124t-118.5 -70.5
t-137.5 -24q-95 0 -158 26.5t-63 74.5z" />
    <glyph glyph-name="uni246F" unicode="&#x246f;" 
d="M965 1679q140 0 271 -42.5t236.5 -121.5t185 -184.5t122.5 -238t43 -275.5q0 -174 -68 -333t-182.5 -274t-273.5 -183t-334 -68q-177 0 -337 68t-275 183t-183 274t-68 333q0 179 67.5 339t183 274.5t275 181.5t337.5 67zM965 20q216 0 399 106t290 289.5t107 401.5
q0 163 -63.5 311t-170 255.5t-254 171t-308.5 63.5q-221 0 -405.5 -107.5t-290 -291.5t-105.5 -402q0 -164 62 -311.5t168.5 -254t255.5 -169t315 -62.5zM1276 1004q120 0 188 -91t68 -227q0 -72 -20.5 -139.5t-59.5 -122.5t-102.5 -88t-141.5 -33q-162 0 -254 118.5
t-90 315.5q3 231 156 393t436 205v-30q-310 -68 -385 -394h2q82 93 203 93zM717 453q0 -61 18 -81t80 -20v-30h-358v30q60 0 78 20t18 81v671q0 45 -6 59.5t-28 12.5t-75 -27l-14 29l268 125l19 -18v-852zM1206 358q72 0 106 72.5t34 224.5q0 293 -140 293q-78 0 -143 -82
q-12 -85 -12 -157q-2 -162 39 -256.5t116 -94.5z" />
    <glyph glyph-name="uni2470" unicode="&#x2470;" 
d="M965 1679q140 0 271 -42.5t236.5 -121.5t185 -184.5t122.5 -238t43 -275.5q0 -174 -68 -333t-182.5 -274t-273.5 -183t-334 -68q-177 0 -337 68t-275 183t-183 274t-68 333q0 179 67.5 339t183 274.5t275 181.5t337.5 67zM965 1618q-221 0 -405.5 -107.5t-290 -291.5
t-105.5 -402q0 -164 62 -311.5t168.5 -254t255.5 -169t315 -62.5q216 0 399 106t290 289.5t107 401.5q0 163 -63.5 311t-170 255.5t-254 171t-308.5 63.5zM717 453q0 -61 18 -81t80 -20v-30h-358v30q60 0 78 20t18 81v671q0 45 -6 59.5t-28 12.5t-75 -27l-14 29l268 125
l19 -18v-852zM1149 315l-111 27l287 840v4h-326q-57 0 -85 -30t-48 -118l-30 9l34 151l27 117h596z" />
    <glyph glyph-name="uni2471" unicode="&#x2471;" 
d="M965 1679q140 0 271 -42.5t236.5 -121.5t185 -184.5t122.5 -238t43 -275.5q0 -174 -68 -333t-182.5 -274t-273.5 -183t-334 -68q-177 0 -337 68t-275 183t-183 274t-68 333q0 179 67.5 339t183 274.5t275 181.5t337.5 67zM965 20q216 0 399 106t290 289.5t107 401.5
q0 163 -63.5 311t-170 255.5t-254 171t-308.5 63.5q-221 0 -405.5 -107.5t-290 -291.5t-105.5 -402q0 -164 62 -311.5t168.5 -254t255.5 -169t315 -62.5zM1274 883q69 -56 113 -102.5t72 -105t28 -120.5q0 -115 -85.5 -183.5t-217.5 -68.5q-136 0 -220.5 67.5t-84.5 170.5
q0 46 15.5 85.5t48.5 76t64 62.5t83 64q-97 80 -141 141.5t-44 139.5q0 101 81.5 163t203.5 62q124 0 197 -59.5t73 -149.5q0 -33 -11 -63t-24.5 -50.5t-43 -47t-48.5 -40.5t-59 -42zM725 453q0 -61 18 -81t78 -20v-30h-358v30q62 0 80 20t18 81v671q0 44 -6 59t-28.5 13
t-75.5 -27l-13 29l267 125l20 -18v-852zM1196 1280q-61 0 -99 -38.5t-38 -98.5q0 -51 35.5 -98t122.5 -117q62 56 88 104.5t26 104.5q0 62 -36.5 102.5t-98.5 40.5zM1186 358q69 0 109 43.5t40 118.5q0 72 -45 127.5t-145 134.5q-137 -118 -137 -241q0 -76 46 -129.5
t132 -53.5z" />
    <glyph glyph-name="uni2472" unicode="&#x2472;" 
d="M965 1679q140 0 271 -42.5t236.5 -121.5t185 -184.5t122.5 -238t43 -275.5q0 -174 -68 -333t-182.5 -274t-273.5 -183t-334 -68q-177 0 -337 68t-275 183t-183 274t-68 333q0 179 67.5 339t183 274.5t275 181.5t337.5 67zM965 20q216 0 399 106t290 289.5t107 401.5
q0 163 -63.5 311t-170 255.5t-254 171t-308.5 63.5q-221 0 -405.5 -107.5t-290 -291.5t-105.5 -402q0 -164 62 -311.5t168.5 -254t255.5 -169t315 -62.5zM1196 1335q161 0 253.5 -118.5t90.5 -315.5q-3 -231 -157 -393t-437 -205v31q311 68 385 393q-81 -92 -203 -92
q-121 0 -189.5 90t-68.5 227q0 57 12.5 112t39.5 104t64.5 86t91.5 59t118 22zM729 453q0 -61 18 -81t80 -20v-30h-358v30q60 0 78 20t18 81v671q0 45 -5.5 59.5t-27.5 12.5t-75 -27l-15 29l269 125l18 -18v-852zM1354 930q2 162 -39.5 256t-118.5 94q-72 0 -105.5 -72
t-33.5 -225q0 -293 139 -293q76 0 145 84q13 93 13 156z" />
    <glyph glyph-name="uni2473" unicode="&#x2473;" 
d="M965 1679q140 0 271 -42.5t236.5 -121.5t185 -184.5t122.5 -238t43 -275.5q0 -174 -68 -333t-182.5 -274t-273.5 -183t-334 -68q-177 0 -337 68t-275 183t-183 274t-68 333q0 179 67.5 339t183 274.5t275 181.5t337.5 67zM965 20q216 0 399 106t290 289.5t107 401.5
q0 163 -63.5 311t-170 255.5t-254 171t-308.5 63.5q-221 0 -405.5 -107.5t-290 -291.5t-105.5 -402q0 -273 164 -487v16q90 88 147 146.5t120.5 132.5t98.5 131t58.5 120.5t23.5 122.5q0 92 -42.5 143.5t-127.5 51.5q-97 0 -152 -66t-63 -182h-35q0 172 93.5 274.5
t248.5 102.5q120 0 186 -67t66 -175q0 -78 -38 -162.5t-108.5 -169t-141 -152.5t-164.5 -148v-5h329q59 0 88.5 26.5t59.5 102.5l29 -10l-52 -135l-43 -113h-571q111 -138 274.5 -216.5t352.5 -78.5zM1370 1335q109 0 188.5 -70t118.5 -185.5t39 -260.5t-39 -260.5
t-118.5 -185.5t-188.5 -70q-108 0 -187.5 70t-118 185.5t-38.5 260.5t38.5 260.5t118 185.5t187.5 70zM1370 358q160 0 160 461t-160 461q-158 0 -158 -461t158 -461z" />
    <glyph glyph-name="uni24EA" unicode="&#x24ea;" 
d="M965 1679q140 0 271 -42.5t236.5 -121.5t185 -184.5t122.5 -238t43 -275.5q0 -174 -68 -333t-182.5 -274t-273.5 -183t-334 -68q-177 0 -337 68t-275 183t-183 274t-68 333q0 179 67.5 339t183 274.5t275 181.5t337.5 67zM965 1618q-221 0 -405.5 -107.5t-290 -291.5
t-105.5 -402q0 -164 62 -311.5t168.5 -254t255.5 -169t315 -62.5q216 0 399 106t290 289.5t107 401.5q0 163 -63.5 311t-170 255.5t-254 171t-308.5 63.5zM963 303q-109 0 -188.5 70t-118 185.5t-38.5 260.5t38.5 260.5t118 185.5t188.5 70t188 -70.5t117.5 -185.5
t38.5 -260t-38.5 -260t-117.5 -185.5t-188 -70.5zM963 358q157 0 157 461t-157 461q-158 0 -158 -461t158 -461z" />
    <glyph glyph-name="uni24EB" unicode="&#x24eb;" 
d="M965 1679q-178 0 -337.5 -67t-275 -181.5t-183 -274.5t-67.5 -339q0 -174 68 -333t183 -274t275 -183t337 -68q175 0 334 68t273.5 183t182.5 274t68 333q0 143 -43 275.5t-122.5 238t-185 184.5t-236.5 121.5t-271 42.5zM805 469q0 -61 18 -80.5t80 -19.5v-31h-358v31
q60 0 78 19.5t18 80.5v672q0 45 -6 59.5t-28 12.5t-75 -27l-14 28l268 125l19 -18v-852zM1300 469q0 -61 18 -80.5t79 -19.5v-31h-359v31q62 0 80.5 19.5t18.5 80.5v672q0 44 -6.5 59t-29 13t-75.5 -27l-12 28l266 125l20 -18v-852z" />
    <glyph glyph-name="uni24EC" unicode="&#x24ec;" 
d="M965 1679q-178 0 -337.5 -67t-275 -181.5t-183 -274.5t-67.5 -339q0 -174 68 -333t183 -274t275 -183t337 -68q175 0 334 68t273.5 183t182.5 274t68 333q0 143 -43 275.5t-122.5 238t-185 184.5t-236.5 121.5t-271 42.5zM1362 459q61 0 90 26.5t57 104.5l29 -12
l-51 -134l-41 -112h-584v30q90 87 148 146.5t121.5 133.5t99 131t59 120.5t23.5 122.5q0 90 -43 142t-127 52q-97 0 -153 -66t-64 -181h-33q0 171 93 273.5t247 102.5q119 0 185.5 -67.5t66.5 -173.5q0 -79 -38 -164t-109 -169.5t-141.5 -153t-164.5 -148.5v-2zM705 463
q0 -63 18 -82t80 -19v-30h-359v30q61 0 79 19.5t18 81.5v670q0 46 -6 61t-28 13t-75 -27l-14 26l141 66l127 61l19 -18v-852z" />
    <glyph glyph-name="uni24ED" unicode="&#x24ed;" 
d="M965 1679q-178 0 -337.5 -67t-275 -181.5t-183 -274.5t-67.5 -339q0 -174 68 -333t183 -274t275 -183t337 -68q175 0 334 68t273.5 183t182.5 274t68 333q0 143 -43 275.5t-122.5 238t-185 184.5t-236.5 121.5t-271 42.5zM881 408q0 26 21 40.5t54 14.5q57 0 91 -51
q14 -18 24.5 -27.5t31 -18t48.5 -8.5q68 0 116 58t48 155q0 129 -66.5 190.5t-187.5 74.5v30q184 59 184 221q0 64 -36.5 104t-104.5 40q-69 0 -113.5 -35.5t-62.5 -97.5h-33q17 110 91 173.5t190 63.5q106 0 174.5 -59t68.5 -162q0 -156 -196 -231v-4q119 -13 192.5 -82.5
t73.5 -188.5q0 -92 -52 -162.5t-133.5 -106.5t-175.5 -36q-97 0 -172 27.5t-75 77.5zM717 453q0 -61 18 -81t78 -20v-30h-358v30q62 0 80 20t18 81v671q0 44 -6.5 59t-29 13t-75.5 -27l-12 29l266 125l21 -18v-852z" />
    <glyph glyph-name="uni24EE" unicode="&#x24ee;" 
d="M965 1679q-178 0 -337.5 -67t-275 -181.5t-183 -274.5t-67.5 -339q0 -174 68 -333t183 -274t275 -183t337 -68q175 0 334 68t273.5 183t182.5 274t68 333q0 143 -43 275.5t-122.5 238t-185 184.5t-236.5 121.5t-271 42.5zM715 463q0 -62 17.5 -81.5t78.5 -19.5v-30h-358
v30q62 0 80 19t18 82v670q0 45 -6.5 60.5t-29 13.5t-75.5 -27l-12 26l139 66l127 61l21 -18v-852zM831 594v123l416 598h125v-598h123v-123h-123v-131q0 -62 17.5 -81.5t78.5 -19.5v-30h-358v30q61 0 79.5 19.5t18.5 81.5v131h-377zM903 717h305v457l-305 -453v-4z" />
    <glyph glyph-name="uni24EF" unicode="&#x24ef;" 
d="M965 1679q-178 0 -337.5 -67t-275 -181.5t-183 -274.5t-67.5 -339q0 -174 68 -333t183 -274t275 -183t337 -68q175 0 334 68t273.5 183t182.5 274t68 333q0 143 -43 275.5t-122.5 238t-185 184.5t-236.5 121.5t-271 42.5zM733 453q0 -61 18 -81t78 -20v-30h-358v30
q62 0 80 20t18 81v671q0 44 -6 59t-28.5 13t-75.5 -27l-13 29l267 125l20 -18v-852zM872 416q0 55 68 55q23 0 41.5 -9.5t27 -19t23.5 -30.5q26 -41 88 -41q64 0 112 81.5t48 223.5q0 272 -168 272q-78 0 -133 -55l-47 31l100 399h418l-33 -129h-334l-61 -221l6 -4
q67 47 162 47q113 0 194.5 -83.5t81.5 -223.5q0 -98 -31 -175.5t-84 -124t-118 -70.5t-137 -24q-97 0 -160.5 26.5t-63.5 74.5z" />
    <glyph glyph-name="uni24F0" unicode="&#x24f0;" 
d="M965 1679q-178 0 -337.5 -67t-275 -181.5t-183 -274.5t-67.5 -339q0 -174 68 -333t183 -274t275 -183t337 -68q175 0 334 68t273.5 183t182.5 274t68 333q0 143 -43 275.5t-122.5 238t-185 184.5t-236.5 121.5t-271 42.5zM854 737q2 231 152 393t430 205v-30
q-88 -20 -157 -60t-114 -94.5t-72.5 -112.5t-43.5 -125h4q80 91 202 91q119 0 185.5 -90.5t66.5 -227.5q0 -72 -20 -139.5t-57.5 -122.5t-99.5 -88t-140 -33q-160 0 -249.5 118.5t-86.5 315.5zM709 453q0 -61 18 -81t78 -20v-30h-359v30q62 0 80.5 20t18.5 81v671
q0 44 -6.5 59t-29 13t-75.5 -27l-12 29l266 125l21 -18v-852zM1030 709q-3 -162 39 -256.5t121 -94.5q73 0 107 72.5t34 224.5q0 293 -143 293q-81 0 -150 -86q-8 -59 -8 -153z" />
    <glyph glyph-name="uni24F1" unicode="&#x24f1;" 
d="M965 1679q-178 0 -337.5 -67t-275 -181.5t-183 -274.5t-67.5 -339q0 -174 68 -333t183 -274t275 -183t337 -68q175 0 334 68t273.5 183t182.5 274t68 333q0 143 -43 275.5t-122.5 238t-185 184.5t-236.5 121.5t-271 42.5zM717 453q0 -61 18 -81t80 -20v-30h-358v30
q60 0 78 20t18 81v671q0 45 -6 59.5t-28 12.5t-75 -27l-14 29l268 125l19 -18v-852zM1139 315l-111 27l287 840v4h-326q-57 0 -85 -30t-48 -118l-31 9l35 151l27 117h596z" />
    <glyph glyph-name="uni24F2" unicode="&#x24f2;" 
d="M965 1679q-178 0 -337.5 -67t-275 -181.5t-183 -274.5t-67.5 -339q0 -174 68 -333t183 -274t275 -183t337 -68q175 0 334 68t273.5 183t182.5 274t68 333q0 143 -43 275.5t-122.5 238t-185 184.5t-236.5 121.5t-271 42.5zM864 539q0 85 56.5 153t166.5 139
q-98 74 -143 140t-45 143q0 99 81.5 160t207.5 61q125 0 202.5 -59.5t77.5 -147.5q0 -73 -46 -129t-144 -120q115 -85 173 -162.5t58 -163.5q0 -113 -89.5 -181.5t-231.5 -68.5q-144 0 -234 68t-90 168zM707 453q0 -61 18 -81t78 -20v-30h-359v30q62 0 80.5 20t18.5 81v671
q0 44 -6.5 59t-29 13t-75.5 -27l-12 29l266 125l21 -18v-852zM1038 1147q0 -52 37.5 -101.5t130.5 -117.5q75 58 102 106.5t27 104.5q0 60 -40.5 100.5t-106.5 40.5q-68 0 -109 -37.5t-41 -95.5zM1001 537q0 -74 52 -126.5t151 -52.5q79 0 123.5 43t44.5 117q0 72 -51 132.5
t-160 135.5q-160 -121 -160 -249z" />
    <glyph glyph-name="uni24F3" unicode="&#x24f3;" 
d="M965 1679q-178 0 -337.5 -67t-275 -181.5t-183 -274.5t-67.5 -339q0 -174 68 -333t183 -274t275 -183t337 -68q175 0 334 68t273.5 183t182.5 274t68 333q0 143 -43 275.5t-122.5 238t-185 184.5t-236.5 121.5t-271 42.5zM1534 901q-2 -231 -152 -393t-430 -205v31
q169 40 261.5 145t125.5 248h-4q-78 -92 -202 -92q-119 0 -185.5 90.5t-66.5 226.5q0 72 20 139.5t57.5 122.5t99.5 88t140 33q160 0 249.5 -118.5t86.5 -315.5zM729 453q0 -61 18 -81t80 -20v-30h-358v30q60 0 78 20t18 81v671q0 45 -5.5 59.5t-27.5 12.5t-75 -27l-15 29
l269 125l18 -18v-852zM1358 930q0 163 -41 256.5t-119 93.5q-73 0 -107 -72t-34 -225q0 -293 143 -293q82 0 150 88q8 59 8 152z" />
    <glyph glyph-name="uni24F4" unicode="&#x24f4;" 
d="M965 1679q-178 0 -337.5 -67t-275 -181.5t-183 -274.5t-67.5 -339q0 -174 68 -333t183 -274t275 -183t337 -68q175 0 334 68t273.5 183t182.5 274t68 333q0 143 -43 275.5t-122.5 238t-185 184.5t-236.5 121.5t-271 42.5zM1372 303q-108 0 -187.5 70t-118 185.5
t-38.5 260.5t38.5 260.5t118 185.5t187.5 70q109 0 188.5 -70t118.5 -185.5t39 -260.5t-39 -260.5t-118.5 -185.5t-188.5 -70zM811 444q59 0 88 26.5t59 102.5l29 -10l-51 -135l-43 -113h-582v31q91 89 147.5 147t120.5 132.5t99 131t58.5 120t23.5 122.5q0 92 -42.5 143.5
t-127.5 51.5q-97 0 -152 -66t-63 -182h-35q0 172 93.5 274.5t248.5 102.5q120 0 186 -67t66 -175q0 -78 -38 -162.5t-109 -169t-141.5 -152.5t-164.5 -148v-5h330zM1372 358q160 0 160 461t-160 461q-158 0 -158 -461t158 -461z" />
    <glyph glyph-name="uni24FF" unicode="&#x24ff;" 
d="M965 1679q-178 0 -337.5 -67t-275 -181.5t-183 -274.5t-67.5 -339q0 -174 68 -333t183 -274t275 -183t337 -68q175 0 334 68t273.5 183t182.5 274t68 333q0 143 -43 275.5t-122.5 238t-185 184.5t-236.5 121.5t-271 42.5zM963 303q-109 0 -188.5 70t-118 185.5
t-38.5 260.5t38.5 260.5t118 185.5t188.5 70t188 -70.5t117.5 -185.5t38.5 -260t-38.5 -260t-117.5 -185.5t-188 -70.5zM963 358q157 0 157 461t-157 461q-158 0 -158 -461t158 -461z" />
    <glyph glyph-name="lozenge" unicode="&#x25ca;" horiz-adv-x="1222" 
d="M713 1638l407 -852l-407 -852h-205l-406 852l406 852h205zM612 106l316 680l-316 680h-6l-311 -680l311 -680h6z" />
    <glyph glyph-name="uni2776" unicode="&#x2776;" 
d="M965 1679q-178 0 -337.5 -67t-275 -181.5t-183 -274.5t-67.5 -339q0 -174 68 -333t183 -274t275 -183t337 -68q175 0 334 68t273.5 183t182.5 274t68 333q0 143 -43 275.5t-122.5 238t-185 184.5t-236.5 121.5t-271 42.5zM1047 451q0 -63 18 -82t80 -19v-31h-359v31
q61 0 79 19.5t18 81.5v669q0 46 -6 61t-28 13t-75 -27l-14 27l141 66l127 61l19 -18v-852z" />
    <glyph glyph-name="uni2777" unicode="&#x2777;" 
d="M965 1679q-178 0 -337.5 -67t-275 -181.5t-183 -274.5t-67.5 -339q0 -174 68 -333t183 -274t275 -183t337 -68q175 0 334 68t273.5 183t182.5 274t68 333q0 143 -43 275.5t-122.5 238t-185 184.5t-236.5 121.5t-271 42.5zM1133 465q59 0 88 26.5t59 102.5l29 -10
l-52 -135l-43 -113h-581v31q90 88 147 146.5t120.5 132.5t98.5 131t58.5 120.5t23.5 122.5q0 92 -42.5 143t-127.5 51q-97 0 -152 -65.5t-63 -181.5h-34q0 171 93.5 273.5t248.5 102.5q120 0 185.5 -66.5t65.5 -174.5q0 -63 -27 -132.5t-68.5 -131t-104.5 -130.5t-121 -123
t-131 -116v-4h330z" />
    <glyph glyph-name="uni2778" unicode="&#x2778;" 
d="M965 1679q-178 0 -337.5 -67t-275 -181.5t-183 -274.5t-67.5 -339q0 -174 68 -333t183 -274t275 -183t337 -68q175 0 334 68t273.5 183t182.5 274t68 333q0 143 -43 275.5t-122.5 238t-185 184.5t-236.5 121.5t-271 42.5zM666 408q0 26 21 40.5t54 14.5q35 0 54.5 -13
t35.5 -38q21 -27 43 -40.5t62 -13.5q68 0 116 58t48 155q0 129 -66.5 190.5t-187.5 74.5v30q184 59 184 221q0 64 -36.5 104t-104.5 40q-69 0 -113.5 -35.5t-62.5 -97.5h-33q17 110 91 173.5t190 63.5q106 0 174.5 -59t68.5 -162q0 -156 -196 -231v-4q119 -13 192.5 -82.5
t73.5 -188.5q0 -92 -52 -162.5t-133.5 -106.5t-175.5 -36q-97 0 -172 27.5t-75 77.5z" />
    <glyph glyph-name="uni2779" unicode="&#x2779;" 
d="M965 1679q-178 0 -337.5 -67t-275 -181.5t-183 -274.5t-67.5 -339q0 -174 68 -333t183 -274t275 -183t337 -68q175 0 334 68t273.5 183t182.5 274t68 333q0 143 -43 275.5t-122.5 238t-185 184.5t-236.5 121.5t-271 42.5zM596 590v123l416 598h125v-598h123v-123h-123
v-131q0 -61 18 -81t78 -20v-30h-359v30q61 0 80 20t19 81v131h-377zM668 713h305v456l-305 -452v-4z" />
    <glyph glyph-name="uni277A" unicode="&#x277a;" 
d="M965 1679q-178 0 -337.5 -67t-275 -181.5t-183 -274.5t-67.5 -339q0 -174 68 -333t183 -274t275 -183t337 -68q175 0 334 68t273.5 183t182.5 274t68 333q0 143 -43 275.5t-122.5 238t-185 184.5t-236.5 121.5t-271 42.5zM659 416q0 55 68 55q32 0 52 -15.5t38 -43.5
q30 -41 88 -41q64 0 112 81.5t48 223.5q0 272 -166 272q-77 0 -135 -55l-47 31l100 399h420l-33 -129h-334l-61 -221l6 -4q67 47 162 47q112 0 193 -83.5t81 -223.5q0 -98 -31 -175.5t-84 -124t-118 -70.5t-137 -24q-95 0 -158.5 26.5t-63.5 74.5z" />
    <glyph glyph-name="uni277B" unicode="&#x277b;" 
d="M965 1679q-178 0 -337.5 -67t-275 -181.5t-183 -274.5t-67.5 -339q0 -174 68 -333t183 -274t275 -183t337 -68q175 0 334 68t273.5 183t182.5 274t68 333q0 143 -43 275.5t-122.5 238t-185 184.5t-236.5 121.5t-271 42.5zM614 737q3 231 153.5 393t428.5 205v-30
q-87 -20 -156 -60t-114 -94.5t-73 -112.5t-44 -125h4q35 40 88 65.5t115 25.5q120 0 187 -90.5t67 -227.5q0 -72 -20.5 -139.5t-58.5 -122.5t-100.5 -88t-140.5 -33q-158 0 -248 118.5t-88 315.5zM791 709q-2 -162 40 -256.5t119 -94.5q73 0 108.5 73t35.5 224
q0 293 -144 293q-80 0 -149 -86q-10 -59 -10 -153z" />
    <glyph glyph-name="uni277C" unicode="&#x277c;" 
d="M965 1679q-178 0 -337.5 -67t-275 -181.5t-183 -274.5t-67.5 -339q0 -174 68 -333t183 -274t275 -183t337 -68q175 0 334 68t273.5 183t182.5 274t68 333q0 143 -43 275.5t-122.5 238t-185 184.5t-236.5 121.5t-271 42.5zM930 279l-111 26l287 840v4h-326q-57 0 -85 -30
t-48 -118l-31 9l35 151l27 117h596z" />
    <glyph glyph-name="uni277D" unicode="&#x277d;" 
d="M965 1679q-178 0 -337.5 -67t-275 -181.5t-183 -274.5t-67.5 -339q0 -174 68 -333t183 -274t275 -183t337 -68q175 0 334 68t273.5 183t182.5 274t68 333q0 143 -43 275.5t-122.5 238t-185 184.5t-236.5 121.5t-271 42.5zM668 541q0 87 51 154t149 139q-92 77 -134 138
t-42 138q0 101 78 163t197 62q118 0 191 -60t73 -149q0 -39 -12 -72t-40.5 -64.5t-54 -53t-73.5 -57.5q104 -82 156.5 -158.5t52.5 -165.5q0 -114 -83 -183t-212 -69t-213 68.5t-84 169.5zM827 1145q0 -53 34.5 -100.5t119.5 -114.5q68 58 95.5 105t27.5 102q0 61 -37.5 102
t-99.5 41q-61 0 -100.5 -38t-39.5 -97zM797 541q0 -76 47 -129.5t133 -53.5q69 0 109 43.5t40 118.5q0 73 -45 130.5t-143 135.5q-141 -122 -141 -245z" />
    <glyph glyph-name="uni277E" unicode="&#x277e;" 
d="M961 -41q178 0 337.5 67t274.5 181.5t182.5 274.5t67.5 339q0 174 -67.5 333t-182.5 274t-275 183t-337 68q-175 0 -334 -68t-274 -183t-183 -274t-68 -333q0 -179 68 -339t183 -274.5t274 -181.5t334 -67zM1311 901q-2 -231 -152 -393t-430 -205v31q169 40 261.5 145
t125.5 248h-4q-78 -92 -203 -92q-119 0 -185.5 90.5t-66.5 226.5q0 72 20 139.5t58 122.5t100 88t140 33q160 0 249.5 -118.5t86.5 -315.5zM1135 930q3 162 -39 256t-121 94q-73 0 -107 -72t-34 -225q0 -293 143 -293q81 0 149 88q9 66 9 152z" />
    <glyph glyph-name="uni277F" unicode="&#x277f;" 
d="M965 1679q-178 0 -337.5 -67t-275 -181.5t-183 -274.5t-67.5 -339q0 -174 68 -333t183 -274t275 -183t337 -68q175 0 334 68t273.5 183t182.5 274t68 333q0 143 -43 275.5t-122.5 238t-185 184.5t-236.5 121.5t-271 42.5zM1184 303q-109 0 -188 70.5t-117.5 185.5
t-38.5 260t38.5 260t117.5 185.5t188 70.5t188 -70.5t117.5 -185.5t38.5 -260t-38.5 -260t-117.5 -185.5t-188 -70.5zM705 451q0 -63 18 -82t80 -19v-31h-359v31q61 0 79 19.5t18 81.5v669q0 46 -6 61t-28 13t-75 -27l-14 27l141 66l127 61l19 -18v-852zM1184 358
q157 0 157 461t-157 461q-158 0 -158 -461t158 -461z" />
    <glyph glyph-name="i.loclTRK" horiz-adv-x="622" 
d="M289 1352q-54 0 -93.5 39.5t-39.5 93.5q0 55 39.5 94t93.5 39q55 0 94 -39t39 -94q0 -54 -39 -93.5t-94 -39.5zM432 219q0 -103 28 -135.5t122 -32.5v-51h-531v51q94 0 122 32.5t28 135.5v586q0 98 -9 116q-13 26 -63 6q-18 -7 -45 -20l-23 45l158 82l182 92l31 -30v-877
z" />
    <glyph glyph-name="C_O" horiz-adv-x="2471" 
d="M72 819q0 250 89.5 445.5t253.5 305t376 109.5q78 0 150 -17.5t113 -38.5t77 -38.5t51 -17.5q22 0 30.5 17.5t8.5 74.5h51l31 -563h-52q-49 491 -399 491q-150 0 -258 -101.5t-161.5 -273t-53.5 -393.5q0 -220 53 -387.5t159 -263.5t251 -96q191 0 321 155t170 435h51
q-22 -158 -68 -283.5t-118 -221t-178 -147t-240 -51.5q-159 0 -291.5 64t-224 177t-142 272.5t-50.5 346.5zM1972 696q-179 0 -293 138.5t-114 353.5t114 353t293 138t293.5 -138.5t114.5 -352.5q0 -215 -114.5 -353.5t-293.5 -138.5zM2007 791q114 10 163 119.5t34 297.5
t-83 287.5t-184 89.5q-115 -9 -164.5 -120t-31.5 -298q19 -188 85 -286.5t181 -89.5zM1968 -41q-56 0 -94.5 38.5t-38.5 94.5t38.5 94.5t94.5 38.5t94.5 -38.5t38.5 -94.5t-38.5 -94.5t-94.5 -38.5z" />
    <glyph glyph-name="L_L" horiz-adv-x="2095" 
d="M766 1638v-51q-94 0 -141.5 -17t-63.5 -50.5t-16 -100.5v-1183q0 -91 26 -117.5t111 -26.5h279q65 0 107 31t79.5 115t79.5 247l49 -12l-107 -416l-14 -57h-1114v51q94 0 141.5 17t63.5 50.5t16 100.5v1200q0 67 -16 100.5t-63.5 50.5t-141.5 17v51h725zM1659 1638v-51
q-85 0 -127.5 -17t-57 -50.5t-14.5 -100.5v-565q0 -72 18 -94.5t78 -22.5h201q66 0 105.5 26.5t70 99.5t58.5 214l51 -8l-72 -362l-12 -62h-981v51q85 0 128 17t58 51t15 100v555q0 66 -15 100t-58 51t-128 17v51h682z" />
    <glyph glyph-name="L_T_D" horiz-adv-x="3061" 
d="M766 1638v-51q-94 0 -141.5 -17t-63.5 -50.5t-16 -100.5v-1183q0 -91 26 -117.5t111 -26.5h279q65 0 107 31t79.5 115t79.5 247l49 -12l-107 -416l-14 -57h-1114v51q94 0 141.5 17t63.5 50.5t16 100.5v1200q0 67 -16 100.5t-63.5 50.5t-141.5 17v51h725zM1352 1546
q-97 0 -139 -44.5t-62 -180.5l-51 6l35 240l10 71h842l10 -71l33 -240l-50 -6q-20 136 -61.5 180.5t-138.5 44.5h-129v-590q0 -98 29 -133t124 -35v-51h-479v51q95 0 125.5 35.5t30.5 132.5v590h-129zM2105 737v51q96 0 126 35t30 133v463q0 98 -30 133t-126 35v51h439
q213 0 329.5 -121t116.5 -329t-116.5 -329.5t-329.5 -121.5h-439zM2554 829q136 0 199 91t63 268t-63 267.5t-199 90.5q-79 0 -123 -20v-676q47 -21 123 -21zM2058 -41q-56 0 -94.5 38.5t-38.5 94.5t38.5 94.5t94.5 38.5t94.5 -38.5t38.5 -94.5t-38.5 -94.5t-94.5 -38.5z
" />
    <glyph glyph-name="O_O" horiz-adv-x="2293" 
d="M1524 1679q156 0 288 -68t221 -184.5t139 -273.5t50 -334t-50 -334t-139 -273.5t-221 -184.5t-288 -68q-213 0 -377 123q-164 -123 -377 -123q-207 0 -367.5 116.5t-245.5 311.5t-85 432t85 432t245.5 311.5t367.5 116.5q213 0 377 -123q164 123 377 123zM1561 45
q208 19 316 240.5t77 574.5q-32 353 -177.5 553.5t-351.5 181.5q-121 -12 -211 -96q122 -119 188 -296t66 -384q0 -192 -57.5 -359t-163.5 -286q134 -147 314 -129zM868 45q123 12 211 94q-122 119 -188 296t-66 384q0 191 57 357.5t162 285.5q-133 148 -311 133
q-207 -19 -315.5 -240.5t-77.5 -574.5q32 -355 175.5 -554.5t352.5 -180.5zM1032 778q27 -308 146 -508q114 221 84 590q-27 310 -146 506q-114 -221 -84 -588z" />
    <glyph glyph-name="S_T" horiz-adv-x="2109" 
d="M115 -10v592h51q5 -160 63.5 -282t153 -185.5t209.5 -63.5q117 0 187.5 65.5t70.5 174.5q0 32 -10 65t-22 59.5t-40 61t-47 56t-61.5 59.5t-63.5 56t-74 61.5t-73 60.5q-81 67 -128.5 111t-94.5 96.5t-70.5 99t-38 103t-14.5 123.5q0 119 57.5 205.5t151 128.5t210.5 42
q75 0 143 -21t106.5 -45.5l71.5 -45.5t48 -21q20 0 26.5 20.5t6.5 82.5h51v-484h-51q-8 189 -109.5 305.5t-261.5 116.5q-115 0 -175 -55t-60 -137q0 -26 7 -51t16.5 -46t29 -46t35.5 -42t45.5 -44t48 -43t55 -46t56.5 -47q25 -21 72 -61q162 -138 222 -204
q120 -132 143 -281q7 -44 7 -93q0 -102 -38.5 -185.5t-102.5 -136.5t-143.5 -81.5t-164.5 -28.5q-90 0 -166 22.5t-115 49t-73 49t-51 22.5q-26 0 -35.5 -24.5t-9.5 -87.5h-51zM1372 1546q-97 0 -139 -44.5t-62 -180.5l-51 6l35 240l10 71h840l10 -71l35 -240l-51 -6
q-14 93 -37 141.5t-59.5 66t-102.5 17.5h-129v-590q0 -98 29.5 -133t124.5 -35v-51h-479v51q95 0 125 35.5t30 132.5v590h-129zM1585 -41q-55 0 -94 38.5t-39 94.5t39 94.5t94 38.5t94 -38.5t39 -94.5t-39 -94.5t-94 -38.5z" />
    <glyph glyph-name="s_t" horiz-adv-x="1585" 
d="M1493 451h51q-1 -102 -8 -174.5t-24 -135.5t-45.5 -101t-73 -59.5t-105.5 -21.5q-278 0 -278 383v651h-154v92q149 6 222 72t91 221q18 131 -47.5 195.5t-177.5 64.5q-136 0 -203 -82t-67 -229q0 -87 20.5 -180t42.5 -153.5t64 -163.5q8 -19 12 -29l-49 -33
q-41 54 -64.5 83.5t-62 71t-69.5 62.5t-72 37t-84 16q-55 0 -90 -29.5t-35 -72.5q0 -17 4 -33t16 -33.5t21.5 -30t32.5 -33.5t37.5 -33.5t47 -39.5t50.5 -43q151 -129 184 -162q99 -97 121 -190q8 -37 8 -78q0 -144 -94.5 -222.5t-233.5 -78.5q-61 0 -114 13t-82.5 28
t-56 28t-40.5 13q-19 0 -25.5 -14t-6.5 -47h-52v415h52q15 -153 101.5 -250.5t215.5 -97.5q75 0 113.5 36.5t38.5 100.5q0 16 -3 31t-11 31t-15 28t-23.5 29.5t-27 28.5t-35 32t-38 33t-45 38t-48.5 40q-134 112 -166 144q-93 93 -108 189q-3 23 -3 48q0 122 81.5 196
t211.5 74q89 0 157 -38t110 -89l4 5q-84 158 -84 339q0 177 101.5 287.5t258.5 110.5q139 0 219 -86t80 -277v-293h234v-92h-234v-590q0 -63 2.5 -107t9.5 -85.5t20.5 -65.5t35.5 -38.5t53 -14.5q68 0 98 83t33 276z" />
    <glyph glyph-name="zero.dnom" horiz-adv-x="718" 
d="M358 -20q-109 0 -188.5 70t-118.5 185.5t-39 260.5t39 260.5t118.5 185.5t188.5 70t188 -70.5t117.5 -185.5t38.5 -260t-38.5 -260t-117.5 -185.5t-188 -70.5zM358 35q158 0 158 461q0 460 -158 460q-159 0 -159 -460q0 -461 159 -461z" />
    <glyph glyph-name="one.dnom" horiz-adv-x="407" 
d="M287 131q0 -61 18 -80.5t80 -19.5v-31h-358v31q60 0 78 19.5t18 80.5v672q0 45 -6 59.5t-28 12.5t-75 -27l-14 29l268 124l19 -18v-852z" />
    <glyph glyph-name="two.dnom" horiz-adv-x="704" 
d="M467 129q60 0 89.5 26.5t57.5 102.5l29 -10l-51 -135l-41 -113h-584v31q91 88 148.5 147t121 132.5t99 130.5t59 120.5t23.5 122.5q0 92 -43 143.5t-127 51.5q-97 0 -153 -66t-64 -182h-33q0 171 93 274t247 103q120 0 186 -67t66 -175q0 -63 -27 -132.5t-69 -131
t-105 -130.5t-120.5 -123t-131.5 -116v-4h330z" />
    <glyph glyph-name="three.dnom" horiz-adv-x="643" 
d="M-6 84q0 26 21.5 40.5t54.5 14.5q35 0 54.5 -13t35.5 -38q21 -27 42.5 -40t61.5 -13q68 0 116 58t48 155q0 129 -66 190t-188 74v31q184 59 184 221q0 64 -36.5 103.5t-104.5 39.5q-69 0 -113.5 -35.5t-62.5 -97.5h-33q17 110 91 174t190 64q106 0 174.5 -59t68.5 -162
q0 -157 -196 -232v-4q119 -13 192.5 -82t73.5 -188q0 -137 -107 -221t-253 -84q-97 0 -172.5 27t-75.5 77z" />
    <glyph glyph-name="four.dnom" horiz-adv-x="694" 
d="M20 262v123l418 598h123v-598h125v-123h-125v-131q0 -61 18 -80.5t80 -19.5v-31h-358v31q60 0 78 19.5t18 80.5v131h-377zM94 385h303v457l-303 -453v-4z" />
    <glyph glyph-name="five.dnom" horiz-adv-x="624" 
d="M6 80q0 27 19 41t51 14t52 -15.5t38 -43.5q30 -41 88 -41q64 0 112 81.5t48 223.5q0 272 -166 272q-77 0 -135 -55l-47 31l100 399h420l-33 -129h-334l-61 -221l6 -4q67 47 162 47q112 0 193 -83.5t81 -223.5q0 -98 -31 -175.5t-84 -123.5t-118 -70t-138 -24
q-96 0 -159.5 26.5t-63.5 73.5z" />
    <glyph glyph-name="six.dnom" horiz-adv-x="696" 
d="M432 680q120 0 188 -91t68 -227q0 -72 -20.5 -139t-59 -122t-102 -88t-141.5 -33q-162 0 -254.5 118.5t-90.5 315.5q3 231 156 393t436 205v-31q-311 -68 -385 -393h2q78 92 203 92zM362 35q72 0 106 72.5t34 224.5q0 293 -140 293q-78 0 -143 -82q-12 -85 -12 -158
q-2 -162 39 -256t116 -94z" />
    <glyph glyph-name="seven.dnom" horiz-adv-x="684" 
d="M309 -14l-110 26l286 840v4h-325q-57 0 -85 -29.5t-48 -117.5l-31 8l35 151l26 117h596z" />
    <glyph glyph-name="eight.dnom" horiz-adv-x="632" 
d="M403 557q105 -84 159 -160t54 -166q0 -115 -86 -183t-219 -68q-135 0 -220 67.5t-85 169.5q0 46 15.5 85.5t48.5 76.5t64 63t83 64q-97 79 -140.5 140.5t-43.5 139.5q0 101 81.5 163.5t202.5 62.5q125 0 199 -59.5t74 -149.5q0 -33 -11 -63t-24.5 -50.5t-44 -48
t-48.5 -41t-59 -43.5zM326 956q-63 0 -101.5 -38.5t-38.5 -98.5q0 -51 35.5 -98t122.5 -117q62 56 88.5 104.5t26.5 104.5q0 61 -36.5 102t-96.5 41zM315 35q68 0 108 43.5t40 118.5q0 72 -45 127t-146 135q-135 -117 -135 -242q0 -77 45.5 -129.5t132.5 -52.5z" />
    <glyph glyph-name="nine.dnom" horiz-adv-x="696" 
d="M332 1012q161 0 253.5 -118.5t90.5 -315.5q-3 -231 -157 -393t-437 -205v30q311 68 385 393q-81 -92 -203 -92q-121 0 -189.5 90.5t-68.5 227.5q0 57 12.5 112t39.5 104t64.5 86t91.5 59t118 22zM489 606q2 162 -39 256t-118 94q-72 0 -105.5 -72t-33.5 -225
q0 -292 139 -292q76 0 145 84q12 85 12 155z" />
    <glyph glyph-name="zero.numr" horiz-adv-x="718" 
d="M358 647q-109 0 -188.5 70t-118.5 185.5t-39 260.5t39 260.5t118.5 185.5t188.5 70t188 -70.5t117.5 -185.5t38.5 -260t-38.5 -260t-117.5 -185.5t-188 -70.5zM358 702q158 0 158 461t-158 461q-159 0 -159 -461t159 -461z" />
    <glyph glyph-name="one.numr" horiz-adv-x="407" 
d="M287 803q0 -61 18 -81t80 -20v-30h-358v30q60 0 78 20t18 81v672q0 45 -6 59.5t-28 12.5t-75 -27l-14 28l268 125l19 -18v-852z" />
    <glyph glyph-name="two.numr" horiz-adv-x="704" 
d="M467 801q60 0 89.5 26.5t57.5 102.5l29 -10l-51 -136l-41 -112h-584v30q90 87 148 146.5t121.5 133.5t99 131t59 120.5t23.5 122.5q0 92 -43 143t-127 51q-97 0 -153 -65.5t-64 -181.5h-33q0 171 93 273.5t247 102.5q120 0 186 -66.5t66 -174.5q0 -63 -27 -132.5
t-69 -131t-105 -130.5t-120.5 -123t-131.5 -116v-4h330z" />
    <glyph glyph-name="three.numr" horiz-adv-x="643" 
d="M-6 735q0 26 21.5 41t54.5 15q34 0 53.5 -13.5t36.5 -38.5q21 -27 42.5 -40t61.5 -13q68 0 116 58t48 155q0 129 -66 190t-188 74v31q184 59 184 221q0 64 -36.5 104t-104.5 40t-113 -36t-63 -98h-33q17 110 91 174t190 64q106 0 174.5 -59t68.5 -162q0 -157 -196 -232
v-4q119 -13 192.5 -82.5t73.5 -187.5q0 -137 -107 -221t-253 -84q-97 0 -172.5 27t-75.5 77z" />
    <glyph glyph-name="four.numr" horiz-adv-x="694" 
d="M20 934v123l418 598h123v-598h125v-123h-125v-131q0 -61 18 -81t80 -20v-30h-358v30q60 0 78 20t18 81v131h-377zM94 1057h303v456l-303 -452v-4z" />
    <glyph glyph-name="five.numr" horiz-adv-x="624" 
d="M6 731q0 27 19 41t51 14t52 -15.5t38 -43.5q30 -41 88 -41q64 0 112 81.5t48 223.5q0 273 -166 273q-76 0 -135 -56l-47 31l100 399h420l-33 -129h-334l-61 -221l6 -4q67 47 162 47q112 0 193 -83.5t81 -223.5q0 -98 -31 -175.5t-84 -123.5t-118 -70t-138 -24
q-96 0 -159.5 26.5t-63.5 73.5z" />
    <glyph glyph-name="six.numr" horiz-adv-x="696" 
d="M432 1331q120 0 188 -90.5t68 -226.5q0 -72 -20.5 -139.5t-59 -122.5t-102 -88t-141.5 -33q-162 0 -254.5 118.5t-90.5 315.5q3 231 156 393t436 205v-31q-311 -68 -385 -393h2q78 92 203 92zM362 686q72 0 106 72.5t34 224.5q0 293 -140 293q-78 0 -143 -82
q-12 -86 -12 -158q-2 -162 39 -256t116 -94z" />
    <glyph glyph-name="seven.numr" horiz-adv-x="684" 
d="M309 639l-110 27l286 839v4h-325q-57 0 -85 -29.5t-48 -117.5l-31 8l35 152l26 116h596z" />
    <glyph glyph-name="eight.numr" horiz-adv-x="632" 
d="M403 1208q105 -84 159 -159.5t54 -165.5q0 -115 -86 -183.5t-219 -68.5q-135 0 -220 67.5t-85 169.5q0 46 15.5 85.5t48.5 76.5t64 63t83 64q-96 79 -140 141t-44 140q0 101 81.5 163t202.5 62q125 0 199 -59.5t74 -149.5q0 -33 -11 -63t-24.5 -50.5t-44 -48t-48.5 -41
t-59 -43.5zM326 1608q-62 0 -101 -39t-39 -99q0 -51 35.5 -98t122.5 -117q62 56 88.5 104.5t26.5 104.5q0 62 -36.5 103t-96.5 41zM315 686q68 0 108 43.5t40 118.5q0 72 -45 127t-146 135q-135 -117 -135 -242q0 -77 45.5 -129.5t132.5 -52.5z" />
    <glyph glyph-name="nine.numr" horiz-adv-x="696" 
d="M332 1663q161 0 253.5 -118.5t90.5 -315.5q-3 -231 -157 -393t-437 -205v31q311 68 385 393q-81 -92 -203 -92q-121 0 -189.5 90t-68.5 227q0 57 12.5 112t39.5 104t64.5 86t91.5 59t118 22zM489 1257q2 162 -39 256.5t-118 94.5q-72 0 -105.5 -72t-33.5 -225
q0 -293 139 -293q76 0 145 84q12 85 12 155z" />
    <glyph glyph-name="colon.case" horiz-adv-x="471" 
d="M236 1208q-56 0 -95 39t-39 94t39 94.5t95 39.5q55 0 94 -39t39 -95q0 -55 -38.5 -94t-94.5 -39zM236 246q-56 0 -95 39t-39 94t39 94t95 39t94.5 -39t38.5 -94t-38.5 -94t-94.5 -39z" />
    <glyph glyph-name="periodcentered.case" horiz-adv-x="471" 
d="M236 727q-56 0 -95 39t-39 94t39 94t95 39t94.5 -38.5t38.5 -94.5t-38.5 -94.5t-94.5 -38.5z" />
    <glyph glyph-name="bullet.case" horiz-adv-x="870" 
d="M436 569q-138 0 -236 98t-98 236t98 235t236 97t235 -97t97 -235t-97 -236t-235 -98z" />
    <glyph glyph-name="parenleft.case" horiz-adv-x="833" 
d="M772 -276v-52q-139 85 -255 193.5t-211.5 249.5t-149.5 322t-54 382q0 205 50.5 389t139.5 326.5t201 250.5t244 181v-51q-177 -162 -262.5 -452.5t-85.5 -643.5q0 -327 97 -622t286 -473z" />
    <glyph glyph-name="parenright.case" horiz-adv-x="833" 
d="M61 -276q189 178 286 473t97 622q0 353 -85.5 643.5t-262.5 452.5v51q132 -73 244 -181t201 -250.5t139.5 -326.5t50.5 -389q0 -201 -54 -382t-149.5 -322t-211.5 -249.5t-255 -193.5v52z" />
    <glyph glyph-name="braceleft.case" horiz-adv-x="860" 
d="M799 1915q-281 -45 -281 -258q0 -52 18.5 -110.5t41 -104t41 -113.5t18.5 -135q0 -88 -32.5 -158.5t-86 -113t-111.5 -67t-120 -32.5v-6q48 -6 95 -22t94 -46.5t82 -71.5t57 -101.5t22 -131.5q0 -67 -18.5 -134.5t-41 -113.5t-41 -104t-18.5 -110q0 -213 281 -258v-52
q-465 45 -465 402q0 92 33.5 244t33.5 235q0 116 -80.5 179t-218.5 63v51q138 0 218.5 61.5t80.5 177.5q0 83 -33.5 235t-33.5 245q0 356 465 401v-51z" />
    <glyph glyph-name="braceright.case" horiz-adv-x="860" 
d="M758 795q-138 0 -218.5 -63t-80.5 -179q0 -83 33.5 -235t33.5 -244q0 -357 -465 -402v52q281 45 281 258q0 52 -18.5 110t-41 104t-41 113.5t-18.5 134.5q0 71 22 131.5t57 101.5t82 71.5t94 46.5t95 22v6q-62 8 -120 32.5t-111.5 67t-86 113t-32.5 158.5q0 67 18.5 135
t41 113.5t41 104t18.5 110.5q0 213 -281 258v51q465 -45 465 -401q0 -93 -33.5 -245t-33.5 -235q0 -116 80.5 -177.5t218.5 -61.5v-51z" />
    <glyph glyph-name="bracketleft.case" horiz-adv-x="651" 
d="M590 1874h-201v-2110h201v-92h-488v2294h488v-92z" />
    <glyph glyph-name="bracketright.case" horiz-adv-x="651" 
d="M549 1966v-2294h-488v92h201v2110h-201v92h488z" />
    </font>
</defs>
</svg>
