<?xml version="1.0" encoding="UTF-8"?>
<svg width="56px" height="54px" viewBox="0 0 56 54" version="1.1" xmlns="http://www.w3.org/2000/svg" xmlns:xlink="http://www.w3.org/1999/xlink">
    <!-- Generator: Sketch 56.3 (81716) - https://sketch.com -->
    <title>Stroke 1</title>
    <desc>Created with Sketch.</desc>
    <g id="Symbols" stroke="none" stroke-width="1" fill="none" fill-rule="evenodd">
        <g id="footer" transform="translate(-689.000000, -55.000000)" fill="#FFFFFF">
            <path d="M722.852817,83.9591637 C722.861188,83.9340951 722.869385,83.9089398 722.87741,83.8837413 C723.058666,83.3137437 723.588971,82.9287518 724.185203,82.9287518 L744.969496,82.9287518 C744.97709,82.9287518 744.983346,82.9226903 744.983605,82.9150268 C744.993356,82.6110858 745,82.3063222 745,82 C745,81.6936776 744.993356,81.3889572 744.983605,81.0850162 C744.983346,81.0773528 744.97709,81.0712913 744.969496,81.0712913 L724.18529,81.0712913 C723.582154,81.0712913 723.057199,80.6743928 722.871672,80.0985069 C722.868393,80.0883322 722.865114,80.0781576 722.861792,80.0680262 C722.673417,79.4940453 722.867185,78.8638224 723.354085,78.5082287 L740.161973,66.2334286 C740.168186,66.2288825 740.169652,66.2202232 740.165381,66.2138587 C739.823062,65.7089356 739.46465,65.215919 739.091093,64.7352853 C739.086433,64.7292238 739.077718,64.7280115 739.071548,64.7325143 L722.263704,77.0073144 C721.780989,77.359834 721.126467,77.3597474 720.644614,77.0060155 C720.626752,76.99294 720.608846,76.9799077 720.590854,76.9669188 C720.111116,76.6221493 719.912645,76.0031834 720.094807,75.4398967 L726.517408,55.5829811 C726.519781,55.5757073 726.515898,55.567784 726.508735,55.5651862 C725.938865,55.3587488 725.360539,55.1702361 724.774187,55.0005574 C724.766852,54.9984358 724.759086,55.002549 724.756713,55.0098661 L718.347099,74.8268191 C718.157646,75.41262 717.613749,75.8092586 717.000043,75.8092586 L717.000043,75.8092586 C716.986323,75.8092586 716.972602,75.8093452 716.958925,75.8094318 C716.359673,75.8135017 715.82268,75.4419749 715.635298,74.870765 L709.130159,55.0435507 C709.127786,55.0362769 709.119976,55.0322071 709.112685,55.0343719 C708.527153,55.2065185 707.948912,55.3958106 707.379991,55.6046293 C707.372829,55.6072704 707.368989,55.6151936 707.371405,55.6224674 L713.877623,75.4531454 C714.062675,76.0169949 713.864205,76.6366536 713.384898,76.9844972 C713.376829,76.9903422 713.368804,76.9962305 713.360736,77.0021188 C712.878279,77.3552013 712.223757,77.3550281 711.741344,77.0019889 L694.945581,64.7100868 C694.939411,64.7055839 694.930739,64.7067962 694.926036,64.7128144 C694.551961,65.1930585 694.193506,65.6861184 693.850669,66.1906518 C693.846355,66.1970163 693.847865,66.2057189 693.854035,66.2102218 L710.649453,78.5019074 C711.132901,78.8556826 711.332063,79.4823986 711.143386,80.052223 C711.136914,80.0718363 711.130528,80.0914929 711.124186,80.1111928 C710.941205,80.6814068 710.416983,81.0712913 709.820017,81.0712913 L689.030547,81.0712913 C689.022954,81.0712913 689.016654,81.0773528 689.016439,81.0849729 C689.006644,81.3889572 689,81.6936776 689,82 C689,82.3063222 689.006644,82.6110858 689.016439,82.9150268 C689.016654,82.9226903 689.022954,82.9287518 689.030547,82.9287518 L709.81471,82.9287085 C710.41832,82.9287085 710.942844,83.3264729 711.128716,83.9027918 C711.13083,83.9094594 711.133031,83.9160838 711.135188,83.9227081 C711.323822,84.5003692 711.135663,85.1340559 710.645828,85.491771 L693.838027,97.7665711 C693.831814,97.7711172 693.830304,97.7797765 693.834619,97.7860978 C694.176938,98.2910209 694.53535,98.7840807 694.908864,99.2647145 C694.913567,99.270776 694.922239,99.2719883 694.928452,99.2674421 L711.744537,86.9866239 C712.222118,86.6378711 712.870341,86.6360526 713.346196,86.98723 C713.363152,86.9997427 713.380109,87.0121255 713.397151,87.0244217 C713.882196,87.3749929 714.086492,87.9993709 713.901957,88.5699313 L707.482592,108.417019 C707.480219,108.424336 707.484059,108.432216 707.491265,108.434814 C708.061048,108.641251 708.639418,108.829764 709.22577,108.999442 C709.233105,109.001564 709.240871,108.997451 709.243201,108.990177 L715.665111,89.1353828 C715.850638,88.5617483 716.38871,88.1896587 716.989731,88.1906978 C716.99314,88.1907411 716.996635,88.1907411 717.000043,88.1907411 C717.01372,88.1907411 717.027354,88.1906545 717.041032,88.1905679 C717.640284,88.1864548 718.177234,88.5580681 718.364702,89.1292347 L724.869798,108.956449 C724.872171,108.963723 724.879938,108.967793 724.887272,108.965628 C725.472804,108.793525 726.051088,108.604232 726.620009,108.395414 C726.627171,108.392773 726.630968,108.384806 726.628595,108.377532 L720.122291,88.5468976 C719.937368,87.9830481 720.135752,87.3633462 720.615102,87.0154593 C720.623473,87.0094411 720.631757,87.0033796 720.640084,86.9972748 C721.122238,86.6444521 721.776502,86.6451449 722.258656,86.9979675 L739.054462,99.289913 C739.060589,99.2944158 739.069305,99.2932468 739.074007,99.2871853 C739.447995,98.8069412 739.806451,98.3139247 740.149331,97.809348 C740.153645,97.8030267 740.152135,97.7943241 740.145965,97.789778 L723.350461,85.4980923 C722.870636,85.1469149 722.664356,84.5243554 722.852817,83.9591637 Z" id="Stroke-1"></path>
        </g>
    </g>
</svg>