<?xml version="1.0" encoding="UTF-8"?>
<svg width="86px" height="46px" viewBox="0 0 86 46" version="1.1" xmlns="http://www.w3.org/2000/svg" xmlns:xlink="http://www.w3.org/1999/xlink">
    <!-- Generator: Sketch 56.3 (81716) - https://sketch.com -->
    <title>Group 8</title>
    <desc>Created with Sketch.</desc>
    <defs>
        <polygon id="path-1" points="0.0457464516 0.0310898551 16.9741161 0.0310898551 16.9741161 43.9457565 0.0457464516 43.9457565"></polygon>
    </defs>
    <g id="Page-1" stroke="none" stroke-width="1" fill="none" fill-rule="evenodd">
        <g id="3_capsules" transform="translate(-32.000000, -36.000000)">
            <g id="Group-8" transform="translate(32.000000, 36.000000)">
                <path d="M0.0556259864,29.3523628 L1.39194329,29.3523628 C1.61468244,38.2238273 6.6815277,43.7548803 12.694838,43.7548803 C17.2048941,43.7548803 20.0445831,40.9620279 20.0445831,36.8001619 C20.0445831,31.8715513 14.8107423,28.1476517 9.24273393,23.5477037 C2.95099974,18.235605 0,15.4976936 0,9.74757072 C0,3.4499465 4.8997909,0 10.9688447,0 C16.982155,0 19.4877352,3.77843573 20.8240525,3.77843573 C21.4365264,3.77843573 21.6592655,3.28558623 21.6592655,0.876106206 L22.9955828,0.876106206 L22.9955828,13.7452499 L21.6592655,13.7452499 C21.4365264,7.00954364 17.4275745,2.24517758 11.5813186,2.24517758 C6.95989284,2.24517758 4.95541689,4.92849501 4.95541689,7.83088236 C4.95541689,11.9380386 9.13136435,14.730891 13.251627,18.235605 C20.5456286,24.4238099 25,27.4906154 25,34.8834157 C25,42.0573775 19.1536853,46 13.3630554,46 C6.34747778,46 4.17594746,42.0024365 2.56120623,42.0024365 C1.67030842,42.0024365 1.39194329,42.8238909 1.39194329,45.1238938 L0.0556259864,45.1238938 L0.0556259864,29.3523628 Z" id="Fill-1" fill="#000000"></path>
                <path d="M63.1721604,2.48497081 L64,11.3949699 L62.6755732,11.5050388 C62.0133015,4.40998461 60.9096902,3.25492986 57.5434339,3.25492986 L43.0852926,3.25492986 L43.0852926,22.2299829 L51.2524358,22.2299829 C54.6186338,22.2299829 55.611983,21.4049604 55.611983,15.7400459 L56.9364098,15.7400459 L56.9364098,30.9200186 L55.611983,30.9200186 C55.611983,25.3100514 54.6186338,24.4850289 51.2524358,24.4850289 L43.0852926,24.4850289 L43.0852926,39.3349694 C43.0852926,42.6898905 43.8578263,43.6799291 48.9899656,43.6799291 L48.9899656,45 L31,45 L31,43.6799291 C36.1319644,43.6799291 36.904673,42.6898905 36.904673,39.3349694 L36.904673,6.66503064 C36.904673,3.3100514 36.1319644,2.32001278 31,2.32001278 L31,1 L63.0616652,1 L63.1721604,2.48497081 Z" id="Fill-3" fill="#000000"></path>
                <g id="Group-7" transform="translate(69.000000, 1.000000)">
                    <mask id="mask-2" fill="white">
                        <use xlink:href="#path-1"></use>
                    </mask>
                    <g id="Clip-6"></g>
                    <path d="M0.0457464516,1.34853913 L0.0457464516,0.0310898551 L16.9741271,0.0310898551 L16.9741271,1.34853913 C12.1448658,1.34853913 11.4179239,2.33665507 11.4179239,5.68523478 L11.4179239,38.2916696 C11.4179239,41.6401333 12.1448658,42.6282493 16.9741271,42.6282493 L16.9741271,43.9457565 L0.0457464516,43.9457565 L0.0457464516,42.6282493 C4.87500774,42.6282493 5.60205935,41.6401333 5.60205935,38.2916696 L5.60205935,5.68523478 C5.60205935,2.33665507 4.87500774,1.34853913 0.0457464516,1.34853913" id="Fill-5" fill="#000000" mask="url(#mask-2)"></path>
                </g>
            </g>
        </g>
    </g>
</svg>