<?xml version="1.0" standalone="no"?>
<!DOCTYPE svg PUBLIC "-//W3C//DTD SVG 20010904//EN"
 "http://www.w3.org/TR/2001/REC-SVG-20010904/DTD/svg10.dtd">
<svg version="1.0" xmlns="http://www.w3.org/2000/svg"
 width="896.000000pt" height="896.000000pt" viewBox="0 0 896.000000 896.000000"
 preserveAspectRatio="xMidYMid meet">
<metadata>
Created by potrace 1.14, written by Peter Selinger 2001-2017
</metadata>
<g transform="translate(0.000000,896.000000) scale(0.100000,-0.100000)"
fill="#000000" stroke="none">
<path d="M5715 8782 c-4 -9 -9 -28 -12 -42 -2 -13 -10 -28 -16 -32 -7 -4 -9
-8 -5 -8 7 0 -18 -96 -30 -115 -4 -5 -7 -14 -8 -20 -1 -5 -23 -75 -49 -154
-26 -80 -48 -149 -50 -155 -1 -6 -5 -18 -8 -26 -8 -21 -67 -202 -71 -220 -2
-8 -10 -28 -16 -45 -6 -16 -13 -38 -15 -47 -2 -9 -41 -131 -86 -270 -45 -139
-84 -257 -85 -263 -1 -5 -22 -71 -46 -145 -68 -206 -182 -554 -183 -560 -2
-13 -48 -157 -55 -175 -11 -24 -92 -276 -94 -290 -1 -5 -7 -23 -13 -40 -13
-33 -114 -344 -117 -360 -1 -5 -11 -35 -21 -65 -11 -30 -20 -57 -20 -60 0 -3
-9 -28 -18 -55 -35 -103 -125 -166 -231 -161 -65 3 -104 19 -148 61 -40 37
-46 52 -142 350 -48 149 -92 279 -96 290 -5 11 -59 175 -121 365 -61 190 -137
424 -169 520 -32 96 -99 301 -149 455 -51 154 -95 287 -98 295 -4 8 -7 17 -7
20 -1 6 -36 117 -44 140 -3 8 -6 17 -7 20 0 3 -36 111 -79 240 -43 129 -79
240 -80 245 -1 6 -11 35 -21 65 -11 30 -20 57 -20 60 -1 3 -4 12 -8 20 -3 8
-16 48 -29 89 -24 78 -36 90 -71 74 -30 -14 -160 -55 -170 -54 -8 1 -67 -28
-67 -32 0 -6 32 -102 40 -122 5 -11 16 -45 26 -75 9 -30 19 -62 22 -70 3 -8 6
-19 8 -25 1 -5 28 -86 59 -180 31 -93 58 -174 59 -180 2 -5 6 -17 9 -25 10
-26 97 -295 102 -315 3 -11 41 -128 86 -260 44 -132 81 -244 83 -250 2 -9 18
-61 32 -105 3 -8 6 -17 7 -20 0 -3 14 -41 29 -85 16 -44 31 -89 33 -100 3 -11
16 -54 31 -95 14 -41 27 -79 28 -85 1 -5 7 -23 13 -40 11 -29 196 -595 198
-605 1 -3 36 -111 79 -240 43 -129 79 -241 79 -247 0 -7 3 -13 7 -13 4 0 7 -6
8 -12 1 -7 4 -34 8 -60 8 -58 -9 -125 -42 -163 -32 -37 -85 -76 -95 -69 -5 3
-9 0 -9 -6 0 -6 -4 -8 -10 -5 -5 3 -16 3 -22 -1 -27 -17 -168 15 -168 37 0 5
-6 9 -14 9 -8 0 -16 4 -18 8 -1 4 -25 23 -53 42 -54 39 -81 59 -100 78 -8 6
-16 12 -20 12 -3 0 -34 21 -68 48 -34 26 -73 55 -87 64 -26 17 -357 260 -375
275 -5 5 -26 20 -45 33 -19 13 -39 28 -45 33 -5 4 -48 36 -95 70 -47 34 -86
65 -88 70 -2 4 -8 7 -12 7 -5 0 -62 40 -127 88 -65 48 -158 117 -208 153 -49
35 -97 69 -105 76 -73 57 -153 113 -160 113 -4 0 -10 4 -12 8 -1 5 -37 33 -78
63 -41 29 -79 57 -85 62 -15 12 -84 62 -270 198 -93 68 -171 127 -173 131 -2
5 -8 8 -13 8 -7 0 -65 41 -119 83 -8 7 -31 23 -50 37 -19 13 -40 29 -47 35 -6
5 -27 20 -45 33 -18 13 -63 45 -100 73 -36 27 -71 49 -76 49 -6 0 -34 -33 -64
-72 -88 -122 -111 -159 -102 -167 9 -9 456 -337 614 -451 30 -22 60 -44 67
-50 7 -5 27 -20 45 -33 56 -38 113 -82 116 -89 2 -5 7 -8 12 -8 6 0 184 -127
235 -168 6 -4 51 -37 100 -72 50 -36 92 -67 95 -71 3 -3 25 -19 50 -36 25 -17
56 -40 69 -52 13 -12 27 -21 30 -21 3 0 19 -11 34 -25 15 -14 27 -22 27 -18 0
4 4 3 8 -2 4 -6 50 -42 102 -80 52 -38 97 -72 100 -75 3 -4 10 -9 15 -11 6 -2
59 -40 119 -84 112 -83 511 -374 604 -442 28 -21 62 -46 75 -56 12 -10 34 -26
50 -35 15 -9 27 -20 27 -24 0 -4 5 -8 11 -8 6 0 16 -6 24 -12 7 -7 32 -29 55
-48 23 -19 51 -52 62 -73 22 -43 26 -133 8 -166 -6 -12 -8 -21 -5 -21 4 0 -8
-20 -26 -45 -34 -47 -75 -77 -123 -89 -15 -4 -783 -7 -1706 -7 l-1679 0 2
-147 2 -147 1680 -2 c1553 -2 1683 -3 1724 -19 109 -42 165 -164 130 -287 -10
-37 -68 -104 -119 -139 -14 -9 -113 -81 -220 -159 -107 -78 -231 -169 -275
-201 -44 -32 -123 -90 -175 -128 -52 -39 -113 -83 -135 -97 -22 -14 -42 -29
-45 -32 -3 -4 -21 -18 -40 -31 -19 -13 -37 -27 -40 -30 -3 -3 -36 -28 -75 -55
-38 -27 -74 -53 -80 -58 -5 -4 -100 -73 -210 -153 -233 -169 -239 -174 -322
-236 -34 -27 -67 -48 -72 -48 -5 0 -11 -3 -13 -8 -2 -6 -102 -81 -223 -167
-11 -8 -29 -21 -40 -30 -11 -9 -51 -38 -90 -66 -38 -27 -81 -58 -95 -69 -32
-26 -122 -91 -150 -110 -13 -8 -35 -24 -49 -36 -14 -11 -84 -62 -156 -114 -71
-51 -132 -95 -135 -97 -6 -5 26 -63 53 -96 12 -14 42 -53 67 -87 24 -33 46
-60 48 -60 4 0 133 91 148 105 6 5 21 17 33 25 13 8 84 60 159 115 76 55 184
134 241 175 57 41 111 82 122 90 10 8 35 26 54 40 20 14 48 34 63 45 15 12 95
70 177 130 83 60 153 114 157 120 5 6 8 6 8 0 0 -6 3 -6 8 1 4 6 41 35 82 65
41 29 80 57 85 62 6 4 51 37 100 72 50 35 95 68 100 73 6 4 26 19 45 32 19 14
40 30 46 35 6 6 37 28 68 50 32 22 82 59 111 83 30 23 58 42 64 42 6 0 11 5
11 10 0 6 5 10 11 10 6 0 16 6 23 13 7 6 24 20 37 30 118 85 154 113 157 119
2 5 8 8 12 8 8 0 237 166 277 200 7 5 17 10 23 10 5 0 10 4 10 9 0 4 25 25 55
45 30 20 63 43 73 51 154 126 232 156 329 125 54 -17 117 -74 139 -125 26 -63
21 -119 -26 -260 -23 -71 -43 -137 -45 -145 -2 -8 -10 -33 -18 -55 -9 -22 -41
-121 -72 -220 -31 -99 -66 -205 -77 -235 -11 -30 -22 -62 -23 -70 -2 -8 -4
-16 -5 -17 -2 -2 -4 -7 -5 -13 -1 -5 -3 -11 -5 -12 -1 -2 -3 -11 -6 -21 -2 -9
-5 -23 -7 -30 -3 -11 -92 -285 -212 -652 -69 -211 -149 -460 -150 -465 0 -3
-12 -36 -25 -75 -13 -38 -25 -74 -26 -80 -3 -15 -94 -295 -106 -327 -5 -15
-10 -30 -9 -33 0 -2 -11 -37 -25 -76 -14 -38 -27 -78 -29 -87 -2 -9 -15 -51
-30 -92 -14 -41 -26 -77 -27 -80 -4 -23 -81 -256 -88 -271 -7 -12 2 -19 48
-34 31 -11 75 -27 97 -36 21 -10 43 -15 47 -12 5 2 14 0 21 -5 7 -5 24 -12 38
-16 28 -6 36 2 46 54 2 13 10 28 16 32 7 4 9 8 5 8 -7 0 18 96 30 115 4 6 7
15 8 20 1 6 23 75 49 154 26 80 48 149 50 155 1 6 5 18 8 26 14 36 71 214 82
255 4 17 10 35 14 40 3 6 6 15 7 21 1 7 25 83 54 170 29 88 53 164 55 169 1 6
5 17 8 25 3 8 25 76 48 150 23 74 46 141 52 147 5 7 7 13 4 13 -3 0 0 15 8 32
7 18 14 38 14 43 0 6 19 65 42 133 22 67 42 130 44 140 2 9 18 58 35 107 17
50 33 97 35 106 2 8 14 49 28 90 29 85 171 521 172 529 0 3 11 37 24 75 13 39
25 77 27 85 3 15 35 110 82 250 43 127 127 186 249 176 76 -7 133 -42 170
-106 15 -25 141 -391 158 -460 1 -3 4 -12 8 -20 7 -20 149 -452 152 -465 1 -5
5 -17 8 -25 7 -16 100 -300 103 -312 1 -5 3 -10 4 -13 1 -3 3 -8 4 -12 11 -40
41 -131 47 -143 6 -12 30 -89 45 -142 1 -5 3 -10 4 -13 1 -3 3 -8 5 -12 1 -5
4 -15 8 -23 10 -25 127 -385 127 -392 1 -4 7 -23 16 -43 8 -19 11 -35 8 -35
-4 0 -2 -6 3 -13 5 -6 24 -59 42 -117 18 -58 36 -114 41 -125 10 -23 111 -329
114 -348 2 -7 6 -19 9 -27 10 -25 49 -149 49 -157 0 -5 3 -12 8 -18 6 -8 37
-103 45 -135 6 -27 49 -147 55 -154 5 -5 34 -1 67 9 62 19 206 67 211 71 2 1
-8 35 -21 75 -14 41 -43 132 -66 204 -23 72 -45 137 -48 145 -3 8 -8 21 -10
28 -1 6 -5 18 -6 25 -2 6 -7 19 -10 27 -5 15 -50 150 -52 160 -1 3 -4 12 -8
20 -3 8 -38 114 -77 235 -39 121 -74 227 -77 235 -3 8 -7 18 -8 23 -2 4 -3 8
-5 10 -1 1 -3 9 -5 18 -1 9 -22 72 -45 140 -23 68 -43 131 -45 139 -2 8 -4 16
-5 18 -2 1 -3 5 -4 10 -3 9 -224 684 -291 887 -29 88 -78 239 -110 335 -31 96
-60 184 -65 195 -7 17 -52 159 -56 175 0 3 -7 19 -14 35 -7 17 -14 59 -16 94
-4 85 26 146 93 193 45 31 53 33 132 33 59 0 86 -4 89 -12 2 -7 8 -13 13 -13
5 0 71 -46 146 -102 76 -56 174 -127 218 -159 44 -32 85 -62 90 -67 6 -5 24
-17 40 -28 17 -10 32 -21 35 -25 3 -3 66 -50 140 -104 74 -54 137 -102 138
-106 2 -5 8 -9 13 -9 11 0 122 -81 127 -92 2 -5 10 -8 17 -8 7 0 15 -3 17 -7
2 -7 76 -63 193 -148 200 -145 535 -389 553 -402 12 -10 28 -23 35 -28 6 -6
29 -21 49 -35 21 -14 38 -28 38 -32 0 -5 5 -8 11 -8 6 0 36 -20 67 -44 66 -50
271 -201 322 -236 19 -13 37 -27 40 -30 3 -3 46 -34 95 -70 50 -35 143 -103
207 -151 l117 -87 28 36 c15 21 31 38 35 40 4 2 8 9 8 15 0 7 9 18 21 25 12 7
18 16 15 19 -3 3 10 26 29 51 19 25 35 49 35 53 0 5 -12 16 -27 26 -16 10 -34
23 -41 30 -7 7 -26 20 -42 30 -17 9 -30 21 -30 25 0 4 -6 8 -14 8 -8 0 -16 4
-18 8 -3 7 -264 202 -305 227 -9 6 -23 16 -32 23 -17 14 -173 129 -301 221
-41 30 -77 57 -80 60 -3 3 -13 11 -22 16 -21 13 -454 329 -483 353 -6 5 -24
17 -40 28 -16 10 -36 25 -45 32 -15 13 -68 53 -112 84 -12 9 -68 49 -123 90
-55 40 -183 134 -285 208 -102 74 -189 138 -195 143 -5 4 -53 39 -105 77 -139
102 -184 134 -195 143 -5 4 -35 25 -65 47 -30 22 -64 47 -75 56 -11 8 -32 22
-46 31 -25 15 -81 94 -86 123 -24 130 48 256 162 284 16 4 781 7 1701 7 1539
0 1673 1 1678 16 4 9 6 76 5 149 l-1 133 -1676 0 c-923 0 -1686 2 -1697 5 -55
12 -135 67 -135 93 0 6 -6 16 -14 22 -15 13 -30 89 -27 136 3 46 36 109 73
140 18 15 85 65 148 111 63 46 120 87 125 91 6 5 75 55 155 113 147 106 223
162 250 183 8 7 31 23 50 37 19 13 40 28 45 33 6 4 42 30 80 58 109 77 118 83
129 94 6 6 34 26 61 44 28 19 52 38 55 41 3 3 46 34 95 70 50 35 93 69 97 74
5 7 8 7 8 1 0 -6 3 -6 8 1 6 9 71 59 122 94 19 13 76 55 150 110 85 63 255
187 268 195 10 6 19 12 22 15 3 3 21 17 40 30 19 13 37 27 40 30 5 6 263 193
304 220 12 8 31 23 40 33 10 9 27 22 39 28 11 7 26 16 31 20 39 31 87 66 201
149 72 51 132 95 135 97 5 5 -28 67 -49 90 -9 10 -28 36 -44 58 -15 22 -38 53
-51 69 l-24 29 -68 -49 c-38 -27 -74 -53 -80 -59 -6 -5 -21 -17 -33 -25 -44
-30 -266 -192 -286 -208 -12 -9 -43 -33 -70 -52 -28 -19 -51 -38 -53 -42 -2
-4 -8 -8 -13 -8 -6 0 -15 -4 -22 -10 -35 -28 -89 -69 -262 -195 -104 -76 -210
-152 -233 -169 -24 -17 -52 -39 -63 -48 -10 -10 -22 -18 -25 -18 -3 0 -25 -16
-48 -35 -24 -19 -48 -35 -55 -35 -6 0 -11 -3 -11 -7 0 -5 -17 -19 -37 -33 -21
-14 -45 -30 -53 -37 -8 -7 -64 -48 -125 -92 -60 -44 -114 -84 -120 -88 -5 -5
-84 -62 -175 -128 -175 -127 -245 -178 -272 -200 -9 -7 -25 -18 -36 -24 -11
-6 -26 -17 -34 -24 -7 -7 -103 -78 -213 -157 -110 -80 -204 -148 -210 -152
-60 -47 -111 -82 -140 -94 -140 -58 -304 50 -307 203 -1 40 27 151 59 233 4 8
7 18 8 23 2 4 4 9 5 12 1 3 4 10 5 15 1 6 3 11 5 13 1 1 3 9 5 18 1 8 40 130
86 270 46 140 84 256 84 259 1 8 26 84 33 100 3 8 6 20 7 25 1 6 25 82 54 170
30 88 54 165 55 170 3 17 28 89 35 100 3 6 6 15 7 20 1 6 25 83 54 170 28 88
53 168 55 177 2 9 8 25 13 35 6 10 10 21 10 26 1 4 18 60 38 125 21 64 38 119
39 122 1 3 4 12 8 20 8 22 51 153 53 165 3 15 94 295 106 327 5 15 9 28 8 30
-1 2 10 36 25 76 15 40 28 81 30 90 2 9 15 49 28 87 13 39 25 75 27 80 5 19 9
31 50 159 37 113 40 130 26 138 -9 5 -18 9 -21 9 -2 0 -25 8 -50 19 -25 11
-45 17 -45 13 0 -3 -6 0 -14 6 -8 6 -18 11 -22 10 -5 -1 -20 2 -34 8 -55 22
-78 24 -85 5z"/>
</g>
</svg>
