<?xml version="1.0" standalone="no"?>
<!DOCTYPE svg PUBLIC "-//W3C//DTD SVG 1.1//EN" "http://www.w3.org/Graphics/SVG/1.1/DTD/svg11.dtd" >
<svg xmlns="http://www.w3.org/2000/svg" xmlns:xlink="http://www.w3.org/1999/xlink" version="1.1">
<metadata>
Created by FontForge 20170731 at Thu Jul 22 10:07:56 2021
 By Aleksey,,,
Copyright 2020 The Space Grotesk Project Authors (https://github.com/floriankarsten/space-grotesk)
</metadata>
<defs>
<font id="SpaceGrotesk-Light" horiz-adv-x="1269" >
  <font-face 
    font-family="Space Grotesk Light"
    font-weight="300"
    font-stretch="normal"
    units-per-em="2048"
    panose-1="0 0 0 0 0 0 0 0 0 0"
    ascent="1638"
    descent="-410"
    x-height="995"
    cap-height="1434"
    bbox="-100 -561 2464 2214"
    underline-thickness="102"
    underline-position="-307"
    unicode-range="U+000D-FB04"
  />
<missing-glyph horiz-adv-x="1738" 
d="M559 -213q-373 0 -373 387v1065q0 387 373 387h621q372 0 372 -387v-1065q0 -387 -372 -387h-621zM553 -106h635q129 0 189.5 69t60.5 209v1069q0 140 -60.5 209.5t-189.5 69.5h-635q-130 0 -191 -69.5t-61 -209.5v-1069q0 -140 61 -209t191 -69zM803 479v90
q0 63 22 102.5t86 69.5l35 17q86 41 124 79t38 111q0 86 -67 133t-167 47q-103 0 -171 -50.5t-68 -149.5v-58h-107v62q0 139 96.5 218t249.5 79q142 0 241 -76t99 -199v-10q0 -100 -57 -160.5t-160 -107.5l-34 -17q-30 -14 -42 -34t-12 -56v-90h-106zM856 205q-40 0 -66 26
t-26 64t26 64t66 26t66 -26t26 -64t-26 -64t-66 -26z" />
    <glyph glyph-name="f_f" unicode="ff" horiz-adv-x="1564" 
d="M389 0v885h-328v110h328v283q0 74 40.5 115t119.5 41h246v-111h-222q-33 0 -47 -14.5t-14 -46.5v-267h532v283q0 74 41 115t119 41h246v-111h-221q-33 0 -47.5 -15t-14.5 -46v-267h336v-110h-336v-885h-123v885h-532v-885h-123z" />
    <glyph glyph-name="fi" unicode="fi" horiz-adv-x="1347" 
d="M1106 1167q-46 0 -76.5 30.5t-30.5 76.5t30.5 76t76.5 30t76 -30t30 -76t-30 -76.5t-76 -30.5zM389 0v885h-328v110h328v283q0 74 40.5 115t119.5 41h246v-111h-222q-33 0 -47 -14.5t-14 -46.5v-267h655v-995h-123v885h-532v-885h-123z" />
    <glyph glyph-name="fl" unicode="fl" horiz-adv-x="1347" 
d="M389 0v885h-328v110h328v283q0 74 40.5 115t119.5 41h246v-111h-222q-33 0 -47 -14.5t-14 -46.5v-267h336v-110h-336v-885h-123zM1044 0v1434h123v-1434h-123z" />
    <glyph glyph-name="f_f_i" unicode="ffi" horiz-adv-x="2002" 
d="M1761 1167q-46 0 -76 30.5t-30 76.5t30 76t76 30t76.5 -30t30.5 -76t-30.5 -76.5t-76.5 -30.5zM389 0v885h-328v110h328v283q0 74 40.5 115t119.5 41h246v-111h-222q-33 0 -47 -14.5t-14 -46.5v-267h532v283q0 74 41 115t119 41h246v-111h-221q-33 0 -47.5 -15t-14.5 -46
v-267h656v-995h-123v885h-533v-885h-123v885h-532v-885h-123z" />
    <glyph glyph-name="f_f_l" unicode="ffl" horiz-adv-x="2002" 
d="M389 0v885h-328v110h328v283q0 74 40.5 115t119.5 41h246v-111h-222q-33 0 -47 -14.5t-14 -46.5v-267h532v283q0 74 41 115t119 41h246v-111h-221q-33 0 -47.5 -15t-14.5 -46v-267h336v-110h-336v-885h-123v885h-532v-885h-123zM1700 0v1434h123v-1434h-123z" />
    <glyph glyph-name="f_f_j.liga" unicode="ffj" horiz-adv-x="2002" 
d="M1761 1167q-46 0 -76 30.5t-30 76.5t30 76t76 30t76.5 -30t30.5 -76t-30.5 -76.5t-76.5 -30.5zM389 0v885h-328v110h328v283q0 74 40.5 115t119.5 41h246v-111h-222q-33 0 -47 -14.5t-14 -46.5v-267h532v283q0 74 41 115t119 41h246v-111h-221q-33 0 -47.5 -15t-14.5 -46
v-267h656v-1249q0 -74 -40.5 -115t-119.5 -41h-168v111h143q33 0 47.5 15t14.5 46v1123h-533v-885h-123v885h-532v-885h-123z" />
    <glyph glyph-name="f_j.liga" unicode="fj" horiz-adv-x="1347" 
d="M1106 1167q-46 0 -76.5 30.5t-30.5 76.5t30.5 76t76.5 30t76 -30t30 -76t-30 -76.5t-76 -30.5zM389 0v885h-328v110h328v283q0 74 40.5 115t119.5 41h246v-111h-222q-33 0 -47 -14.5t-14 -46.5v-267h655v-1249q0 -75 -40.5 -115.5t-118.5 -40.5h-168v111h143
q33 0 47 14.5t14 46.5v1123h-532v-885h-123z" />
    <glyph glyph-name="f_lcaron.liga" unicode="f&#x13e;" horiz-adv-x="1466" 
d="M389 0v885h-328v110h328v283q0 74 40.5 115t119.5 41h246v-111h-222q-33 0 -47 -14.5t-14 -46.5v-267h336v-110h-336v-885h-123zM1044 0v1434h123v-1434h-123zM1331 1065l19 369h133l-53 -369h-99z" />
    <glyph glyph-name="t_t.liga" unicode="tt" horiz-adv-x="1601" 
d="M541 0q-79 0 -119.5 41t-40.5 115v729h-320v110h320v373h123v-373h532v373h123v-373h348v-110h-348v-713q0 -31 14.5 -46t47.5 -15h233v-111h-258q-78 0 -119 41t-41 115v729h-532v-713q0 -32 14 -46.5t47 -14.5h234v-111h-258z" />
    <glyph glyph-name=".notdef" horiz-adv-x="1738" 
d="M559 -213q-373 0 -373 387v1065q0 387 373 387h621q372 0 372 -387v-1065q0 -387 -372 -387h-621zM553 -106h635q129 0 189.5 69t60.5 209v1069q0 140 -60.5 209.5t-189.5 69.5h-635q-130 0 -191 -69.5t-61 -209.5v-1069q0 -140 61 -209t191 -69zM803 479v90
q0 63 22 102.5t86 69.5l35 17q86 41 124 79t38 111q0 86 -67 133t-167 47q-103 0 -171 -50.5t-68 -149.5v-58h-107v62q0 139 96.5 218t249.5 79q142 0 241 -76t99 -199v-10q0 -100 -57 -160.5t-160 -107.5l-34 -17q-30 -14 -42 -34t-12 -56v-90h-106zM856 205q-40 0 -66 26
t-26 64t26 64t66 26t66 -26t26 -64t-26 -64t-66 -26z" />
    <glyph glyph-name=".null" horiz-adv-x="0" 
 />
    <glyph glyph-name="nonmarkingreturn" horiz-adv-x="682" 
 />
    <glyph glyph-name="CR" unicode="&#xd;" horiz-adv-x="1228" 
 />
    <glyph glyph-name="space" unicode=" " horiz-adv-x="528" 
 />
    <glyph glyph-name="exclam" unicode="!" horiz-adv-x="479" 
d="M176 348v1086h127v-1086h-127zM240 -29q-51 0 -84 33t-33 84t33 84t84 33t83.5 -33t32.5 -84t-32.5 -84t-83.5 -33z" />
    <glyph glyph-name="quotedbl" unicode="&#x22;" horiz-adv-x="794" 
d="M152 1020v86h49q65 0 65 65v66h-26q-50 0 -83.5 32t-33.5 81t33.5 80.5t83.5 31.5t83 -33t33 -83v-170q0 -80 -37.5 -118t-115.5 -38h-51zM467 1020v86h49q66 0 66 65v66h-27q-50 0 -83.5 32t-33.5 81t33.5 80.5t83.5 31.5t83.5 -33.5t33.5 -82.5v-170q0 -156 -154 -156
h-51z" />
    <glyph glyph-name="numbersign" unicode="#" horiz-adv-x="1280" 
d="M365 0v434h-275v107h275v352h-275v106h275v435h114v-435h320v435h114v-435h277v-106h-277v-352h277v-107h-277v-434h-114v434h-320v-434h-114zM479 541h320v352h-320v-352z" />
    <glyph glyph-name="dollar" unicode="$" horiz-adv-x="1261" 
d="M586 -238v211q-216 16 -345.5 143t-129.5 359v39h131v-39q0 -177 92 -274t252 -113v596l-33 8q-95 24 -164.5 53.5t-127 75t-87 110.5t-29.5 150q0 166 121.5 269t319.5 112v209h123v-213q186 -23 299.5 -133.5t113.5 -294.5v-96h-131v96q0 136 -76 213.5t-206 97.5v-561
l22 -6q74 -18 130 -38t112 -52t92.5 -72.5t59 -99t22.5 -131.5q0 -173 -119 -283t-319 -125v-211h-123zM276 1081q0 -61 20.5 -105.5t64.5 -75.5t95 -50.5t130 -38.5v537q-141 -9 -225.5 -79t-84.5 -188zM1016 381q0 60 -21.5 104.5t-65 76t-94.5 52t-126 39.5v-563
q146 13 226.5 92t80.5 199z" />
    <glyph glyph-name="percent" unicode="%" horiz-adv-x="1593" 
d="M264 -29l-90 72l1155 1419l90 -71zM401 795q-147 0 -235 88.5t-88 238.5v13q0 150 88 238.5t235 88.5t235.5 -88.5t88.5 -238.5v-13q0 -150 -88.5 -238.5t-235.5 -88.5zM401 893q98 0 155.5 61.5t57.5 163.5v21q0 102 -57.5 163.5t-155.5 61.5t-155.5 -61.5t-57.5 -163.5
v-21q0 -102 57.5 -163.5t155.5 -61.5zM1192 -29q-147 0 -235.5 89t-88.5 239v12q0 150 88.5 239t235.5 89t235.5 -89t88.5 -239v-12q0 -150 -88.5 -239t-235.5 -89zM1192 70q98 0 155.5 61.5t57.5 163.5v20q0 102 -57.5 164t-155.5 62t-155.5 -62t-57.5 -164v-20
q0 -102 57.5 -163.5t155.5 -61.5z" />
    <glyph glyph-name="ampersand" unicode="&#x26;" horiz-adv-x="1249" 
d="M524 0q-181 0 -301.5 101t-120.5 276q0 125 72 212.5t176 125.5v20q-101 32 -166 112.5t-65 207.5q0 177 119.5 278t293.5 101h273v-111h-262q-131 0 -214 -69.5t-83 -204.5q0 -134 83.5 -202.5t213.5 -68.5h317v236h123v-236h205v-110h-205v-668h-459zM535 111h325v557
h-325q-135 0 -220.5 -71.5t-85.5 -207.5q0 -138 85.5 -208t220.5 -70z" />
    <glyph glyph-name="quotesingle" unicode="'" horiz-adv-x="479" 
d="M152 1020v86h49q65 0 65 65v66h-26q-50 0 -83.5 32t-33.5 81t33.5 80.5t83.5 31.5t83 -33t33 -83v-170q0 -80 -37.5 -118t-115.5 -38h-51z" />
    <glyph glyph-name="parenleft" unicode="(" horiz-adv-x="759" 
d="M739 -471q-608 0 -608 643v700q0 644 608 644v-107q-253 -4 -371 -137.5t-118 -409.5v-680q0 -276 118 -409.5t371 -137.5v-106z" />
    <glyph glyph-name="parenright" unicode=")" horiz-adv-x="759" 
d="M20 -471v106q254 4 372 138t118 409v680q0 275 -118 409t-372 138v107q609 0 609 -644v-700q0 -643 -609 -643z" />
    <glyph glyph-name="asterisk" unicode="*" horiz-adv-x="1048" 
d="M98 961v94h181l139 -15l10 21l-111 88l-127 127l66 65l127 -127l88 -110l21 10l-15 139v181h94v-181l-14 -139l21 -10l88 110l127 127l65 -65l-127 -127l-110 -88l10 -21l139 15h180v-94h-180l-139 14l-10 -21l110 -88l127 -127l-65 -65l-127 127l-88 110l-21 -10
l14 -139v-180h-94v180l15 139l-21 10l-88 -110l-127 -127l-66 65l127 127l111 88l-10 21l-139 -14h-181z" />
    <glyph glyph-name="plus" unicode="+" 
d="M575 287v372h-370v115h370v373h119v-373h371v-115h-371v-372h-119z" />
    <glyph glyph-name="comma" unicode="," horiz-adv-x="479" 
d="M152 -238v86h49q65 0 65 66v66h-26q-50 0 -83.5 31.5t-33.5 80.5t33.5 81t83.5 32q49 0 82.5 -33.5t33.5 -83.5v-170q0 -80 -37.5 -118t-115.5 -38h-51z" />
    <glyph glyph-name="hyphen" unicode="-" horiz-adv-x="950" 
d="M172 471v115h606v-115h-606z" />
    <glyph glyph-name="period" unicode="." horiz-adv-x="479" 
d="M240 -29q-51 0 -84 33t-33 84t33 84t84 33t83.5 -33t32.5 -84t-32.5 -84t-83.5 -33z" />
    <glyph glyph-name="slash" unicode="/" horiz-adv-x="743" 
d="M12 -410l602 1844h125l-602 -1844h-125z" />
    <glyph glyph-name="zero" unicode="0" horiz-adv-x="1306" 
d="M653 -29q-246 0 -384 149t-138 433v328q0 284 138 432.5t384 148.5t384.5 -148.5t138.5 -432.5v-328q0 -284 -138.5 -433t-384.5 -149zM653 86q194 0 295 120.5t101 338.5v344q0 218 -101 338.5t-295 120.5t-294.5 -120t-100.5 -339v-344q0 -219 100.5 -339t294.5 -120z
" />
    <glyph glyph-name="one" unicode="1" horiz-adv-x="827" 
d="M524 0v1356h-26l-314 -533h-143l362 611h248v-1434h-127z" />
    <glyph glyph-name="two" unicode="2" horiz-adv-x="1241" 
d="M119 0v141q0 75 13.5 135.5t42.5 107t64 81t89.5 63.5t107 49.5t127.5 43.5l103 32q81 25 139 53.5t105.5 70.5t71.5 102.5t24 138.5v8q0 147 -102.5 234.5t-264.5 87.5q-176 0 -281.5 -94.5t-105.5 -274.5v-27h-123v27q0 228 141.5 355.5t368.5 127.5
q221 0 357.5 -119.5t136.5 -312.5v-18q0 -102 -30 -179t-91 -131.5t-135.5 -91.5t-182.5 -71l-102 -31q-63 -20 -103 -35t-84 -36.5t-69.5 -45t-48 -56.5t-32 -75.5t-9.5 -97.5v-47h874v-115h-1001z" />
    <glyph glyph-name="three" unicode="3" horiz-adv-x="1234" 
d="M621 -29q-231 0 -375 130t-144 360v39h127v-41q0 -172 107.5 -272.5t284.5 -100.5q171 0 271.5 93t100.5 239v12q0 150 -104 225.5t-268 75.5h-211v172l581 395v21h-856v115h983v-185l-575 -391v-20h112q205 0 335 -106t130 -298v-20q0 -200 -136 -321.5t-363 -121.5z
" />
    <glyph glyph-name="four" unicode="4" 
d="M836 0v295h-766v151l647 988h246v-1024h249v-115h-249v-295h-127zM203 410h633v950h-25l-608 -930v-20z" />
    <glyph glyph-name="five" unicode="5" horiz-adv-x="1224" 
d="M616 -29q-226 0 -363.5 132t-137.5 346v26h127v-20q0 -179 101 -274t271 -95q175 0 275 100.5t100 278.5v16q0 169 -95 270t-251 101q-204 0 -297 -182h-188v764h925v-115h-798v-555h24q39 83 127 141t236 58q190 0 317 -131.5t127 -348.5v-20q0 -218 -135.5 -355
t-364.5 -137z" />
    <glyph glyph-name="six" unicode="6" horiz-adv-x="1249" 
d="M633 -29q-219 0 -360.5 130.5t-141.5 353.5v506q0 233 134 367t372 134q229 0 357 -120.5t128 -307.5h-127q0 144 -93.5 229t-264.5 85q-180 0 -279.5 -99t-99.5 -274v-219h25q44 79 139 132.5t242 53.5q202 0 336.5 -130t134.5 -343v-25q0 -215 -142.5 -344t-359.5 -129
zM633 86q168 0 271.5 97.5t103.5 262.5v17q0 166 -104.5 267t-270.5 101t-270.5 -101t-104.5 -267v-17q0 -165 103.5 -262.5t271.5 -97.5z" />
    <glyph glyph-name="seven" unicode="7" horiz-adv-x="1163" 
d="M328 0v49q0 69 12 115t47 112l571 1024v19h-886v115h1022v-150l-598 -1073q-24 -42 -32.5 -75.5t-8.5 -86.5v-49h-127z" />
    <glyph glyph-name="eight" unicode="8" horiz-adv-x="1294" 
d="M647 -29q-249 0 -392.5 110t-143.5 294v20q0 79 28.5 143t74.5 103t94.5 62t97.5 30v25q-49 12 -93.5 35.5t-85 60t-64.5 93t-24 124.5v21q0 173 142 271.5t366 98.5t366 -98.5t142 -271.5v-21q0 -68 -24 -124.5t-64 -93t-84.5 -60t-93.5 -35.5v-25q49 -7 97.5 -30
t94.5 -62t74.5 -103t28.5 -143v-20q0 -183 -144.5 -293.5t-392.5 -110.5zM647 799q178 0 279.5 69.5t101.5 196.5v16q0 127 -101.5 197t-279.5 70t-279.5 -70t-101.5 -197v-16q0 -127 101.5 -196.5t279.5 -69.5zM647 86q190 0 300 74.5t110 216.5v16q0 142 -110 216.5
t-300 74.5q-191 0 -300 -74.5t-109 -216.5v-16q0 -142 109.5 -216.5t299.5 -74.5z" />
    <glyph glyph-name="nine" unicode="9" horiz-adv-x="1249" 
d="M612 -29q-229 0 -357 120.5t-128 307.5h127q0 -144 93 -228.5t265 -84.5q180 0 279.5 99t99.5 274v219h-24q-44 -79 -139 -132.5t-242 -53.5q-202 0 -336.5 130t-134.5 343v24q0 215 142 344t359 129q220 0 361 -130t141 -353v-506q0 -233 -134 -367.5t-372 -134.5z
M616 602q166 0 270.5 101.5t104.5 267.5v16q0 165 -103.5 263t-271.5 98t-271 -97.5t-103 -263.5v-16q0 -166 104 -267.5t270 -101.5z" />
    <glyph glyph-name="colon" unicode=":" horiz-adv-x="479" 
d="M240 791q-51 0 -84 32.5t-33 83.5t33 84t84 33t83.5 -33t32.5 -84t-32.5 -83.5t-83.5 -32.5zM240 -29q-51 0 -84 33t-33 84t33 84t84 33t83.5 -33t32.5 -84t-32.5 -84t-83.5 -33z" />
    <glyph glyph-name="semicolon" unicode=";" horiz-adv-x="479" 
d="M240 791q-51 0 -84 32.5t-33 83.5t33 84t84 33t83.5 -33t32.5 -84t-32.5 -83.5t-83.5 -32.5zM152 -238v86h49q65 0 65 66v66h-26q-50 0 -83.5 31.5t-33.5 80.5t33.5 81t83.5 32q49 0 82.5 -33.5t33.5 -83.5v-170q0 -80 -37.5 -118t-115.5 -38h-51z" />
    <glyph glyph-name="less" unicode="&#x3c;" 
d="M1065 266l-860 369v164l860 368v-143l-729 -297v-20l729 -297v-144z" />
    <glyph glyph-name="equal" unicode="=" 
d="M205 803v115h860v-115h-860zM205 516v115h860v-115h-860z" />
    <glyph glyph-name="greater" unicode="&#x3e;" 
d="M205 266v144l731 297v20l-731 297v143l860 -368v-164z" />
    <glyph glyph-name="question" unicode="?" horiz-adv-x="1189" 
d="M510 348v154q0 92 31 140.5t118 84.5l66 29q120 48 180 117t60 188q0 135 -104 213t-259 78q-161 0 -271 -83.5t-110 -236.5v-84h-127v86q0 202 140.5 315t367.5 113q217 0 353.5 -113t136.5 -288q0 -81 -24 -147t-69.5 -114t-98.5 -82t-124 -63l-65 -28
q-41 -18 -57.5 -44.5t-16.5 -78.5v-156h-127zM573 -29q-51 0 -83.5 33t-32.5 84t32.5 84t83.5 33t84 -33t33 -84t-33 -84t-84 -33z" />
    <glyph glyph-name="at" unicode="@" horiz-adv-x="2111" 
d="M1096 -410q-201 0 -370.5 60t-294 172t-194 284t-69.5 386v40q0 285 113.5 490.5t312 308.5t461.5 103h41q253 0 446 -100t301.5 -294t108.5 -458v-39q0 -273 -96 -408t-273 -135h-47q-77 0 -117.5 36t-40.5 101v27h-24q-85 -193 -324 -193q-181 0 -303.5 142.5
t-122.5 357.5v37q0 216 122 358t302 142q230 0 322 -183h24v154h119v-825q0 -27 11 -37.5t36 -10.5h31q139 0 198.5 103t59.5 346v23q0 353 -197.5 549t-535.5 196h-37q-233 0 -404 -88.5t-267.5 -269t-96.5 -437.5v-32q0 -155 38.5 -284t110 -223t171.5 -159t223.5 -97
t265.5 -32h393v-111h-397zM1051 84q144 0 233.5 106t89.5 289v21q0 183 -89.5 289t-233.5 106q-143 0 -233.5 -107.5t-90.5 -285.5v-25q0 -178 90.5 -285.5t233.5 -107.5z" />
    <glyph glyph-name="A" unicode="A" horiz-adv-x="1286" 
d="M57 0l469 1434h234l469 -1434h-137l-123 381h-652l-122 -381h-138zM354 500h578l-277 856h-24z" />
    <glyph glyph-name="B" unicode="B" horiz-adv-x="1351" 
d="M98 0v119h205v1196h-205v119h711q185 0 304.5 -100t119.5 -259v-16q0 -72 -22.5 -130t-60 -95.5t-77 -60.5t-82.5 -36v-24q43 -11 83 -34t77 -60t59.5 -95.5t22.5 -130.5v-20q0 -171 -121.5 -272t-308.5 -101h-705zM434 782h365q140 0 221.5 70t81.5 186v21
q0 116 -81.5 186t-221.5 70h-365v-533zM434 119h357q151 0 231 70t80 194v16q0 124 -80 194.5t-231 70.5h-357v-545z" />
    <glyph glyph-name="C" unicode="C" horiz-adv-x="1312" 
d="M684 -29q-257 0 -405 151t-148 433v324q0 282 148 432.5t405 150.5q246 0 380 -139t134 -383v-10h-131v14q0 184 -96.5 291.5t-286.5 107.5q-200 0 -311 -120.5t-111 -339.5v-332q0 -219 111 -340t311 -121q190 0 286.5 107.5t96.5 291.5v31h131v-26q0 -244 -134 -383.5
t-380 -139.5z" />
    <glyph glyph-name="D" unicode="D" horiz-adv-x="1355" 
d="M98 0v119h205v1196h-205v119h545q286 0 440 -145.5t154 -440.5v-264q0 -295 -154 -439.5t-440 -144.5h-545zM434 119h209q230 0 346.5 110.5t116.5 348.5v276q0 238 -116.5 348.5t-346.5 110.5h-209v-1194z" />
    <glyph glyph-name="E" unicode="E" horiz-adv-x="1161" 
d="M176 0v1434h866v-119h-735v-537h678v-119h-678v-540h744v-119h-875z" />
    <glyph glyph-name="F" unicode="F" horiz-adv-x="1110" 
d="M176 0v1434h852v-119h-721v-537h662v-119h-662v-659h-131z" />
    <glyph glyph-name="G" unicode="G" horiz-adv-x="1349" 
d="M676 -29q-251 0 -398 151t-147 433v324q0 282 148 432.5t405 150.5q244 0 375 -136.5t131 -373.5v-10h-131v14q0 176 -93.5 281.5t-281.5 105.5q-200 0 -311 -120.5t-111 -339.5v-332q0 -219 111 -340t311 -121q189 0 284 110t95 306v41h-473v115h600v-662h-119v162h-24
q-94 -191 -371 -191z" />
    <glyph glyph-name="H" unicode="H" horiz-adv-x="1343" 
d="M176 0v1434h131v-656h729v656h131v-1434h-131v659h-729v-659h-131z" />
    <glyph glyph-name="I" unicode="I" horiz-adv-x="483" 
d="M176 0v1434h131v-1434h-131z" />
    <glyph glyph-name="J" unicode="J" horiz-adv-x="1204" 
d="M535 -29q-208 0 -326.5 119t-118.5 340v100h131v-100q0 -156 80.5 -248t235.5 -92q290 0 290 340v885h-254v119h537v-119h-152v-885q0 -226 -106 -342.5t-317 -116.5z" />
    <glyph glyph-name="K" unicode="K" horiz-adv-x="1236" 
d="M176 0v1434h131v-648h25l663 648h185l-742 -709l766 -725h-186l-686 659h-25v-659h-131z" />
    <glyph glyph-name="L" unicode="L" horiz-adv-x="1120" 
d="M176 0v1434h131v-1315h754v-119h-885z" />
    <glyph glyph-name="M" unicode="M" horiz-adv-x="1757" 
d="M176 0v1434h256l434 -1356h25l434 1356h256v-1434h-127v1356h-24l-435 -1356h-233l-434 1356h-25v-1356h-127z" />
    <glyph glyph-name="N" unicode="N" horiz-adv-x="1353" 
d="M176 0v1434h260l586 -1356h25v1356h131v-1434h-260l-586 1358h-25v-1358h-131z" />
    <glyph glyph-name="O" unicode="O" horiz-adv-x="1363" 
d="M682 -29q-257 0 -404 151t-147 433v324q0 282 147 432.5t404 150.5t404 -150.5t147 -432.5v-324q0 -282 -147 -433t-404 -151zM682 90q200 0 310 120.5t110 340.5v332q0 219 -110 339.5t-310 120.5t-310 -120.5t-110 -339.5v-332q0 -220 110 -340.5t310 -120.5z" />
    <glyph glyph-name="P" unicode="P" horiz-adv-x="1228" 
d="M176 0v1434h531q195 0 321.5 -109t126.5 -297v-24q0 -125 -60.5 -218.5t-161.5 -140.5t-226 -47h-400v-598h-131zM307 717h385q155 0 243.5 76t88.5 213v20q0 138 -87.5 213.5t-244.5 75.5h-385v-598z" />
    <glyph glyph-name="Q" unicode="Q" horiz-adv-x="1363" 
d="M760 -315q-66 0 -105 39t-39 108v141q-228 19 -356.5 168.5t-128.5 413.5v324q0 282 147 432.5t404 150.5t404 -150.5t147 -432.5v-324q0 -264 -129.5 -413.5t-358.5 -168.5v-114q0 -62 58 -62h141v-112h-184zM682 90q200 0 310 120.5t110 340.5v332q0 219 -110 339.5
t-310 120.5t-310 -120.5t-110 -339.5v-332q0 -220 110 -340.5t310 -120.5z" />
    <glyph glyph-name="R" unicode="R" horiz-adv-x="1292" 
d="M176 0v1434h561q202 0 327.5 -101.5t125.5 -279.5v-21q0 -138 -66 -223.5t-168 -114.5v-24q76 -3 123 -48.5t47 -134.5v-487h-131v473q0 135 -143 135h-545v-608h-131zM307 727h418q160 0 247 75t87 214v10q0 140 -86 214.5t-248 74.5h-418v-588z" />
    <glyph glyph-name="S" unicode="S" horiz-adv-x="1261" 
d="M645 -29q-116 0 -212.5 31t-169 91.5t-112.5 158t-40 223.5v39h131v-39q0 -193 109 -291t294 -98q175 0 273 81.5t98 213.5q0 50 -16.5 90t-43 68t-71 51t-90.5 38t-111 31l-131 33q-95 24 -164.5 53.5t-127 75t-87 110.5t-29.5 150q0 173 131.5 277t344.5 104
q143 0 254.5 -47.5t179 -147t67.5 -237.5v-96h-131v96q0 160 -102 239t-268 79q-155 0 -250 -70.5t-95 -196.5q0 -51 15.5 -90t40.5 -66.5t68.5 -49.5t88.5 -37t111 -31l131 -33q74 -18 130 -38t112 -52t92.5 -72.5t59 -99t22.5 -131.5q0 -187 -137 -298.5t-365 -111.5z" />
    <glyph glyph-name="T" unicode="T" horiz-adv-x="1204" 
d="M537 0v1315h-480v119h1090v-119h-479v-1315h-131z" />
    <glyph glyph-name="U" unicode="U" horiz-adv-x="1359" 
d="M680 -29q-238 0 -377 126.5t-139 371.5v965h131v-965q0 -189 99.5 -284t285.5 -95t285.5 95t99.5 284v965h131v-965q0 -245 -139 -371.5t-377 -126.5z" />
    <glyph glyph-name="V" unicode="V" 
d="M518 0l-461 1434h138l428 -1358h24l428 1358h137l-460 -1434h-234z" />
    <glyph glyph-name="W" unicode="W" horiz-adv-x="1773" 
d="M334 0l-252 1434h133l229 -1356h25l297 1356h242l297 -1356h24l230 1356h133l-252 -1434h-244l-297 1356h-25l-296 -1356h-244z" />
    <glyph glyph-name="X" unicode="X" horiz-adv-x="1300" 
d="M74 0l479 723l-471 711h158l397 -621h25l399 621h158l-471 -711l479 -723h-158l-407 633h-25l-406 -633h-157z" />
    <glyph glyph-name="Y" unicode="Y" horiz-adv-x="1236" 
d="M553 0v567l-520 867h155l418 -717h25l418 717h155l-520 -867v-567h-131z" />
    <glyph glyph-name="Z" unicode="Z" horiz-adv-x="1183" 
d="M106 0v180l836 1114v21h-811v119h934v-181l-836 -1114v-20h856v-119h-979z" />
    <glyph glyph-name="bracketleft" unicode="[" horiz-adv-x="667" 
d="M319 -471q-61 0 -100 40t-39 101v1704q0 61 39 101.5t100 40.5h308v-107h-273q-55 0 -55 -61v-1651q0 -62 55 -62h273v-106h-308z" />
    <glyph glyph-name="backslash" unicode="\" horiz-adv-x="743" 
d="M606 -410l-602 1844h125l602 -1844h-125z" />
    <glyph glyph-name="bracketright" unicode="]" horiz-adv-x="667" 
d="M41 -471v106h272q56 0 56 62v1651q0 61 -56 61h-272v107h307q61 0 100 -40.5t39 -101.5v-1704q0 -61 -39 -101t-100 -40h-307z" />
    <glyph glyph-name="asciicircum" unicode="^" 
d="M154 868l381 566h200l381 -566h-155l-316 475h-20l-314 -475h-157z" />
    <glyph glyph-name="underscore" unicode="_" 
d="M168 -217v115h934v-115h-934z" />
    <glyph glyph-name="grave" unicode="`" horiz-adv-x="561" 
d="M311 1163l-188 271h158l157 -271h-127z" />
    <glyph glyph-name="a" unicode="a" horiz-adv-x="1175" 
d="M485 -29q-163 0 -267.5 82.5t-104.5 227.5q0 144 102.5 220.5t265.5 76.5h365v79q0 121 -70.5 188.5t-202.5 67.5q-128 0 -206 -63t-105 -174l-119 35q38 140 146 226.5t284 86.5q187 0 291.5 -99t104.5 -274v-483q0 -62 57 -62h96v-106h-131q-63 0 -100 37.5t-37 103.5
v15h-20q-22 -39 -49 -68.5t-67.5 -57.5t-99.5 -43.5t-133 -15.5zM494 82q161 0 256.5 96.5t95.5 267.5v25h-363q-111 0 -179 -48t-68 -140q0 -95 71 -148t187 -53z" />
    <glyph glyph-name="b" unicode="b" horiz-adv-x="1323" 
d="M713 -29q-279 0 -389 211h-25v-182h-119v1434h123v-613h25q46 87 140 145t245 58q206 0 342.5 -141.5t136.5 -372.5v-25q0 -232 -137 -373t-342 -141zM684 82q171 0 276 109.5t105 297.5v17q0 188 -105 297.5t-276 109.5t-276 -109.5t-105 -297.5v-17q0 -188 105 -297.5
t276 -109.5z" />
    <glyph glyph-name="c" unicode="c" horiz-adv-x="1234" 
d="M635 -29q-222 0 -363 141t-141 375v21q0 234 141 375t363 141q104 0 189.5 -31.5t142 -86t91.5 -120.5t46 -141l-121 -24q-16 127 -105 209.5t-243 82.5q-166 0 -273.5 -111.5t-107.5 -295.5v-17q0 -184 107.5 -295.5t273.5 -111.5q155 0 244.5 81t111.5 212l121 -25
q-14 -76 -50.5 -142t-93.5 -120t-143 -85.5t-190 -31.5z" />
    <glyph glyph-name="d" unicode="d" horiz-adv-x="1323" 
d="M610 -29q-205 0 -342 141t-137 373v25q0 231 136.5 372.5t342.5 141.5q151 0 245 -58t140 -145h25v613h123v-1434h-119v182h-25q-110 -211 -389 -211zM639 82q171 0 276 109.5t105 297.5v17q0 188 -105 297.5t-276 109.5t-276 -109.5t-105 -297.5v-17q0 -188 105 -297.5
t276 -109.5z" />
    <glyph glyph-name="e" unicode="e" horiz-adv-x="1224" 
d="M639 -29q-229 0 -368.5 142t-139.5 372v25q0 228 139 371t355 143q212 0 344.5 -131.5t132.5 -355.5v-66h-848q6 -183 111.5 -286t273.5 -103q89 0 157 30.5t107.5 76.5t69.5 112l110 -49q-131 -281 -444 -281zM256 578h721q-7 159 -103 247t-249 88q-151 0 -249 -87.5
t-120 -247.5z" />
    <glyph glyph-name="f" unicode="f" horiz-adv-x="909" 
d="M389 0v885h-328v110h328v283q0 74 40.5 115t119.5 41h246v-111h-222q-33 0 -47 -14.5t-14 -46.5v-267h336v-110h-336v-885h-123z" />
    <glyph glyph-name="g" unicode="g" horiz-adv-x="1318" 
d="M131 494v24q0 229 137 367.5t342 138.5q279 0 389 -211h25v182h115v-1249q0 -75 -40 -115.5t-118 -40.5h-680v111h655q64 0 64 61v428h-25q-46 -87 -140 -144.5t-245 -57.5q-206 0 -342.5 139t-136.5 367zM639 98q171 0 276 107.5t105 292.5v16q0 185 -105 292t-276 107
t-276 -107t-105 -292v-16q0 -185 105 -292.5t276 -107.5z" />
    <glyph glyph-name="h" unicode="h" horiz-adv-x="1253" 
d="M180 0v1434h123v-613h25q99 193 360 193q171 0 284 -106t113 -302v-606h-122v598q0 157 -79 231t-222 74q-161 0 -260 -104t-99 -301v-498h-123z" />
    <glyph glyph-name="i" unicode="i" horiz-adv-x="483" 
d="M242 1167q-46 0 -76.5 30.5t-30.5 76.5t30.5 76t76.5 30t76 -30t30 -76t-30 -76.5t-76 -30.5zM180 0v995h123v-995h-123z" />
    <glyph glyph-name="j" unicode="j" horiz-adv-x="487" 
d="M246 1167q-46 0 -76.5 30.5t-30.5 76.5t30.5 76t76.5 30t76 -30t30 -76t-30 -76.5t-76 -30.5zM-20 -410v111h143q33 0 47 14.5t14 46.5v1233h123v-1249q0 -74 -40.5 -115t-119.5 -41h-167z" />
    <glyph glyph-name="k" unicode="k" horiz-adv-x="1079" 
d="M180 0v1434h123v-865h25l510 426h180l-590 -485l606 -510h-178l-528 449h-25v-449h-123z" />
    <glyph glyph-name="l" unicode="l" horiz-adv-x="483" 
d="M180 0v1434h123v-1434h-123z" />
    <glyph glyph-name="m" unicode="m" horiz-adv-x="1765" 
d="M180 0v995h119v-131h25q84 152 290 152q113 0 190 -53t114 -136h24q82 189 315 189q152 0 246 -92.5t94 -241.5v-682h-122v670q0 107 -65.5 171t-180.5 64q-123 0 -201 -79t-78 -222v-604h-123v670q0 107 -65 171t-180 64q-123 0 -201 -79t-78 -222v-604h-123z" />
    <glyph glyph-name="n" unicode="n" horiz-adv-x="1253" 
d="M180 0v995h119v-184h25q95 205 364 205q82 0 153 -26t126 -75.5t86.5 -129t31.5 -179.5v-606h-122v598q0 157 -79.5 232t-221.5 75q-160 0 -259.5 -105t-99.5 -302v-498h-123z" />
    <glyph glyph-name="o" unicode="o" 
d="M635 -29q-227 0 -365.5 141.5t-138.5 372.5v25q0 231 138.5 372.5t365.5 141.5t365.5 -141.5t138.5 -372.5v-25q0 -231 -138.5 -372.5t-365.5 -141.5zM635 82q174 0 277.5 111t103.5 296v17q0 185 -103.5 296t-277.5 111t-277.5 -111t-103.5 -296v-17q0 -185 103.5 -296
t277.5 -111z" />
    <glyph glyph-name="p" unicode="p" horiz-adv-x="1323" 
d="M180 -410v1405h119v-182h25q110 211 389 211q205 0 342 -141t137 -373v-25q0 -231 -136.5 -372.5t-342.5 -141.5q-151 0 -245 58t-140 145h-25v-584h-123zM684 82q171 0 276 109.5t105 297.5v17q0 188 -105 297.5t-276 109.5t-276 -109.5t-105 -297.5v-17
q0 -188 105 -297.5t276 -109.5z" />
    <glyph glyph-name="q" unicode="q" horiz-adv-x="1323" 
d="M1020 -410v584h-25q-46 -87 -140 -145t-245 -58q-206 0 -342.5 141.5t-136.5 372.5v25q0 232 137 373t342 141q279 0 389 -211h25v182h119v-1405h-123zM639 82q171 0 276 109.5t105 297.5v17q0 188 -105 297.5t-276 109.5t-276 -109.5t-105 -297.5v-17q0 -188 105 -297.5
t276 -109.5z" />
    <glyph glyph-name="r" unicode="r" horiz-adv-x="755" 
d="M180 0v995h119v-125h25q28 68 85 98.5t156 30.5h117v-114h-131q-117 0 -182.5 -65.5t-65.5 -196.5v-623h-123z" />
    <glyph glyph-name="s" unicode="s" horiz-adv-x="1081" 
d="M575 -29q-191 0 -314 90.5t-150 280.5l120 23q22 -152 115 -219.5t229 -67.5q125 0 199 50t74 138q0 43 -17.5 74t-54.5 51t-79 32t-107 23l-94 17q-334 58 -334 285q0 128 100 202t270 74q169 0 272.5 -76.5t131.5 -222.5l-115 -25q-37 218 -289 218q-116 0 -181.5 -44
t-65.5 -126q0 -78 57 -117.5t172 -59.5l94 -16q83 -14 143.5 -34t113 -52.5t79.5 -83.5t27 -119q0 -140 -106.5 -217.5t-289.5 -77.5z" />
    <glyph glyph-name="t" unicode="t" horiz-adv-x="946" 
d="M541 0q-79 0 -119.5 41t-40.5 115v729h-320v110h320v373h123v-373h348v-110h-348v-713q0 -32 14 -46.5t47 -14.5h234v-111h-258z" />
    <glyph glyph-name="u" unicode="u" horiz-adv-x="1251" 
d="M563 -20q-110 0 -198.5 44t-143.5 138.5t-55 226.5v606h123v-598q0 -157 79.5 -232t221.5 -75q160 0 259 105.5t99 302.5v497h123v-995h-119v184h-24q-94 -204 -365 -204z" />
    <glyph glyph-name="v" unicode="v" horiz-adv-x="1097" 
d="M451 0l-373 995h131l328 -901h24l328 901h131l-373 -995h-196z" />
    <glyph glyph-name="w" unicode="w" horiz-adv-x="1654" 
d="M344 0l-225 995h127l196 -913h25l256 913h209l256 -913h24l197 913h127l-225 -995h-215l-256 913h-25l-256 -913h-215z" />
    <glyph glyph-name="x" unicode="x" horiz-adv-x="1216" 
d="M102 0l416 506l-401 489h153l326 -407h25l325 407h154l-402 -489l416 -506h-156l-337 424h-25l-338 -424h-156z" />
    <glyph glyph-name="y" unicode="y" horiz-adv-x="1251" 
d="M305 -410v111h582q33 0 47 14.5t14 46.5v410h-24q-98 -192 -361 -192q-171 0 -284 105.5t-113 301.5v608h123v-600q0 -157 79 -231t222 -74q160 0 259 104.5t99 301.5v499h123v-1249q0 -74 -40.5 -115t-119.5 -41h-606z" />
    <glyph glyph-name="z" unicode="z" horiz-adv-x="1069" 
d="M131 0v168l670 696v21h-649v110h774v-168l-672 -696v-20h688v-111h-811z" />
    <glyph glyph-name="braceleft" unicode="{" horiz-adv-x="856" 
d="M508 -471q-60 0 -99.5 40.5t-39.5 100.5v672q0 121 -133 121h-154v119h154q133 0 133 120v672q0 60 39.5 101t99.5 41h307v-107h-272q-56 0 -56 -61v-650q0 -76 -38.5 -119.5t-110.5 -43.5h-6v-25h6q72 0 110.5 -44t38.5 -120v-649q0 -62 56 -62h272v-106h-307z" />
    <glyph glyph-name="bar" unicode="|" horiz-adv-x="475" 
d="M176 -504v2155h123v-2155h-123z" />
    <glyph glyph-name="braceright" unicode="}" horiz-adv-x="856" 
d="M41 -471v106h272q56 0 56 62v649q0 76 38.5 120t110.5 44h6v25h-6q-72 0 -110.5 43.5t-38.5 119.5v650q0 61 -56 61h-272v107h307q60 0 99.5 -41t39.5 -101v-672q0 -120 134 -120h153v-119h-153q-134 0 -134 -121v-672q0 -60 -39.5 -100.5t-99.5 -40.5h-307z" />
    <glyph glyph-name="asciitilde" unicode="~" 
d="M281 578l-76 86l168 137q30 25 46.5 37t46 24t58.5 12q55 0 86.5 -27.5t69.5 -90.5q2 -4 8 -13.5t8.5 -13t7.5 -11t7.5 -10.5t7.5 -8t8.5 -7t8.5 -4.5t10.5 -3.5t11.5 -1q29 0 63 31l168 141l76 -86l-168 -137q-31 -25 -47 -37t-46 -24.5t-59 -12.5q-55 0 -86 27.5
t-69 91.5q-2 4 -8 13.5t-8.5 13t-7.5 11t-7.5 10.5t-7.5 8t-8.5 7t-8.5 4.5t-10.5 3.5t-11.5 1q-29 0 -63 -31z" />
    <glyph glyph-name="uni00A0" unicode="&#xa0;" horiz-adv-x="528" 
 />
    <glyph glyph-name="exclamdown" unicode="&#xa1;" horiz-adv-x="479" 
d="M240 1024q51 0 83.5 -33t32.5 -84t-32.5 -83.5t-83.5 -32.5t-84 32.5t-33 83.5t33 84t84 33zM176 -410v1057h127v-1057h-127z" />
    <glyph glyph-name="cent" unicode="&#xa2;" horiz-adv-x="1226" 
d="M580 -238v211q-200 19 -324.5 157t-124.5 357v21q0 219 124.5 357t324.5 157v231h118v-233q174 -18 279 -124.5t127 -250.5l-121 -24q-14 112 -86.5 191t-198.5 97v-823q126 16 199.5 94t93.5 195l121 -25q-29 -147 -134.5 -252t-279.5 -123v-213h-118zM254 489
q0 -167 91 -275.5t235 -127.5v823q-144 -19 -235 -127.5t-91 -275.5v-17z" />
    <glyph glyph-name="sterling" unicode="&#xa3;" horiz-adv-x="1277" 
d="M127 0v115h152v534h-144v107h144v270q0 212 111.5 324t311.5 112t312 -112t112 -324v-121h-127v117q0 153 -77 239.5t-220 86.5t-219.5 -86.5t-76.5 -239.5v-266h276v-107h-276v-534h731v-115h-1010z" />
    <glyph glyph-name="currency" unicode="&#xa4;" 
d="M201 197l-86 86l118 118q-110 128 -110 316q0 190 110 315l-118 121l86 86l118 -121q140 111 316 111q178 0 315 -111l121 121l86 -86l-121 -121q111 -137 111 -315q0 -176 -111 -316l121 -118l-86 -86l-121 118q-125 -110 -315 -110q-188 0 -316 110zM635 319
q167 0 279 112.5t112 285.5q0 175 -112.5 287t-278.5 112q-167 0 -279 -113t-112 -286q0 -175 112 -286.5t279 -111.5z" />
    <glyph glyph-name="yen" unicode="&#xa5;" 
d="M238 348v107h331v123h-331v106h260l-449 750h156l418 -717h24l418 717h156l-449 -750h260v-106h-332v-123h332v-107h-332v-348h-131v348h-331z" />
    <glyph glyph-name="brokenbar" unicode="&#xa6;" horiz-adv-x="475" 
d="M176 750v901h123v-901h-123zM176 -504v901h123v-901h-123z" />
    <glyph glyph-name="section" unicode="&#xa7;" horiz-adv-x="1040" 
d="M539 -29q-204 0 -322.5 108.5t-118.5 297.5v47h123v-37q0 -142 84 -223.5t236 -81.5q118 0 186 61t68 158q0 94 -65.5 140.5t-219.5 72.5q-191 32 -277 102.5t-86 194.5q0 101 60 166q-60 75 -60 178v8q0 137 105.5 218t261.5 81q178 0 286.5 -86t108.5 -243v-72h-123v63
q0 109 -79 168.5t-191 59.5q-107 0 -176.5 -49t-69.5 -142q0 -53 19.5 -91t62 -64t92 -42t125.5 -32q180 -40 266.5 -102t86.5 -179q0 -100 -56 -170q52 -80 52 -168v-14q0 -147 -98.5 -237.5t-280.5 -90.5zM774 559q25 42 25 84q0 75 -67 114.5t-218 69.5q-118 21 -217 72
q-27 -39 -27 -88q0 -78 64 -119t227 -69q134 -24 213 -64z" />
    <glyph glyph-name="dieresis" unicode="&#xa8;" horiz-adv-x="823" 
d="M596 1167q-46 0 -75 29.5t-29 75.5t29 75t75 29t75 -29t29 -75t-29 -75.5t-75 -29.5zM227 1167q-46 0 -75 29.5t-29 75.5t29 75t75 29t75.5 -29t29.5 -75t-29.5 -75.5t-75.5 -29.5z" />
    <glyph glyph-name="copyright" unicode="&#xa9;" horiz-adv-x="1429" 
d="M707 -25q-270 0 -423 157t-153 476v217q0 319 153 476t423 157h20q269 0 420 -156.5t151 -476.5v-217q0 -320 -151 -476.5t-420 -156.5h-20zM709 82h16q459 0 459 528v213q0 529 -459 529h-16q-461 0 -461 -529v-213q0 -528 461 -528zM729 254q-144 0 -225.5 84.5
t-81.5 245.5v258q0 164 83 253t220 89q136 0 213.5 -83.5t77.5 -219.5v-43h-121v55q0 82 -40.5 132t-127.5 50q-81 0 -132.5 -53.5t-51.5 -151.5v-315q0 -91 53.5 -140.5t130.5 -49.5q80 0 124 46t44 140v45h121v-43q0 -135 -75 -217t-212 -82z" />
    <glyph glyph-name="ordfeminine" unicode="&#xaa;" horiz-adv-x="860" 
d="M360 696q-120 0 -197 58t-77 164q0 104 76 156t194 52h250v50q0 85 -47.5 132.5t-140.5 47.5q-91 0 -143 -42.5t-68 -111.5l-105 25q27 95 107 157t209 62q137 0 214 -73t77 -202v-319q0 -45 41 -45h65v-90h-80q-55 0 -86 27t-31 77h-24q-64 -125 -234 -125zM369 791
q115 0 176 56.5t61 170.5v18h-246q-172 0 -172 -118q0 -63 48 -95t133 -32z" />
    <glyph glyph-name="guillemotleft" unicode="&#xab;" horiz-adv-x="1368" 
d="M1212 53l-585 377v152l585 376h13v-133l-488 -309v-20l488 -310v-133h-13zM692 53l-586 377v152l586 376h13v-133l-488 -309v-20l488 -310v-133h-13z" />
    <glyph glyph-name="logicalnot" unicode="&#xac;" 
d="M950 485v174h-741v115h852v-289h-111z" />
    <glyph glyph-name="uni00AD" unicode="&#xad;" horiz-adv-x="950" 
d="M172 471v115h606v-115h-606z" />
    <glyph glyph-name="registered" unicode="&#xae;" horiz-adv-x="1099" 
d="M551 610q-186 0 -308 120t-122 306t122 306t308 120t308 -120t122 -306t-122 -306t-308 -120zM551 688q157 0 252.5 95t95.5 253t-95.5 253t-252.5 95t-252.5 -95t-95.5 -253t95.5 -253t252.5 -95zM403 813v455h175q72 0 112.5 -36.5t40.5 -90.5q0 -86 -82 -115v-12
q32 -3 49 -23.5t17 -48.5v-129h-78v127q0 43 -43 43h-113v-170h-78zM481 1053h101q33 0 52 21t19 52q0 30 -19 51t-52 21h-101v-145z" />
    <glyph glyph-name="macron" unicode="&#xaf;" horiz-adv-x="860" 
d="M123 1184v106h614v-106h-614z" />
    <glyph glyph-name="degree" unicode="&#xb0;" horiz-adv-x="770" 
d="M385 848q-132 0 -219.5 86.5t-87.5 220.5t87.5 220.5t219.5 86.5t219.5 -86.5t87.5 -220.5t-87.5 -220.5t-219.5 -86.5zM385 958q87 0 140 54t53 143t-53 143t-140 54q-86 0 -139 -54t-53 -143t53 -143t139 -54z" />
    <glyph glyph-name="plusminus" unicode="&#xb1;" 
d="M575 291v368h-370v115h370v369h119v-369h371v-115h-371v-368h-119zM205 0v115h860v-115h-860z" />
    <glyph glyph-name="uni00B2" unicode="&#xb2;" horiz-adv-x="751" 
d="M57 717v51q0 212 289 279q126 29 182 68.5t56 107.5q0 65 -54.5 107t-144.5 42q-97 0 -155.5 -45t-65.5 -135l-103 4q12 131 98.5 198.5t225.5 67.5q136 0 218.5 -64.5t82.5 -174.5q0 -107 -66 -164t-202 -88q-129 -31 -186 -66t-66 -98h516v-90h-625z" />
    <glyph glyph-name="uni00B3" unicode="&#xb3;" horiz-adv-x="782" 
d="M389 688q-137 0 -229 68.5t-99 191.5l103 8q6 -86 68 -132t157 -46q94 0 153.5 42.5t59.5 111.5q0 145 -217 145h-121v103l279 143v20h-465v91h624v-117l-280 -143v-21q283 -6 283 -221q0 -109 -89.5 -176.5t-226.5 -67.5z" />
    <glyph glyph-name="acute" unicode="&#xb4;" horiz-adv-x="561" 
d="M123 1139l160 270h155l-188 -270h-127z" />
    <glyph glyph-name="uni00B5" unicode="&#xb5;" 
d="M174 -410v1405h123v-598q0 -157 77 -232t216 -75q152 0 247 105.5t95 302.5v497h123v-827q0 -62 57 -62h96v-106h-131q-63 0 -100 37.5t-37 103.5v39h-25q-87 -200 -340 -200q-170 0 -258 110h-24v-500h-119z" />
    <glyph glyph-name="paragraph" unicode="&#xb6;" horiz-adv-x="1150" 
d="M541 0v643h-21q-204 0 -329 102t-125 283v21q0 181 125.5 283t328.5 102h455v-1434h-123v1321h-188v-1321h-123zM522 754h19v567h-19q-163 0 -248.5 -76t-85.5 -201v-12q0 -125 85 -201.5t249 -76.5z" />
    <glyph glyph-name="periodcentered" unicode="&#xb7;" horiz-adv-x="356" 
d="M178 473q-51 0 -84 33t-33 84t33 84t84 33t84 -33t33 -84t-33 -84t-84 -33z" />
    <glyph glyph-name="cedilla" unicode="&#xb8;" horiz-adv-x="657" 
d="M330 -414q-117 0 -207 70l53 82q74 -57 154 -57q45 0 73.5 18.5t28.5 54.5q0 35 -27.5 53.5t-74.5 18.5h-74l23 219h96l-15 -143q81 0 128 -41t47 -115q0 -76 -58 -118t-147 -42z" />
    <glyph glyph-name="uni00B9" unicode="&#xb9;" horiz-adv-x="503" 
d="M295 717v590h-25l-116 -193h-113l199 320h157v-717h-102z" />
    <glyph glyph-name="ordmasculine" unicode="&#xba;" horiz-adv-x="897" 
d="M449 696q-165 0 -264 100t-99 275t99 275t264 100t263.5 -100t98.5 -275t-98.5 -275t-263.5 -100zM449 786q116 0 187 78t71 207t-71 207t-187 78t-187.5 -78t-71.5 -207t71.5 -207t187.5 -78z" />
    <glyph glyph-name="guillemotright" unicode="&#xbb;" horiz-adv-x="1368" 
d="M664 53v133l487 310v20l-487 309v133h12l586 -376v-152l-586 -377h-12zM143 53v133l488 310v20l-488 309v133h13l585 -376v-152l-585 -377h-13z" />
    <glyph glyph-name="onequarter" unicode="&#xbc;" horiz-adv-x="1656" 
d="M211 -25l-80 64l1153 1419l80 -63zM295 717v590h-25l-116 -193h-113l199 320h157v-717h-102zM1348 0v180h-453v111l381 426h174v-447h170v-90h-170v-180h-102zM1022 270h326v359h-25l-301 -338v-21z" />
    <glyph glyph-name="onehalf" unicode="&#xbd;" horiz-adv-x="1685" 
d="M211 -25l-80 64l1153 1419l80 -63zM295 717v590h-25l-116 -193h-113l199 320h157v-717h-102zM991 0v51q0 212 289 279q126 29 182 68.5t56 107.5q0 65 -54.5 107t-144.5 42q-97 0 -155.5 -45t-65.5 -135l-103 4q12 131 98.5 198.5t225.5 67.5q136 0 218.5 -64.5
t82.5 -174.5q0 -107 -66 -164t-202 -88q-129 -31 -186 -66t-66 -98h516v-90h-625z" />
    <glyph glyph-name="threequarters" unicode="&#xbe;" horiz-adv-x="1835" 
d="M389 -25l-80 64l1153 1419l80 -63zM389 688q-137 0 -229 68.5t-99 191.5l103 8q6 -86 68 -132t157 -46q94 0 153.5 42.5t59.5 111.5q0 145 -217 145h-121v103l279 143v20h-465v91h624v-117l-280 -143v-21q283 -6 283 -221q0 -109 -89.5 -176.5t-226.5 -67.5zM1526 0v180
h-453v111l381 426h174v-447h170v-90h-170v-180h-102zM1200 270h326v359h-25l-301 -338v-21z" />
    <glyph glyph-name="questiondown" unicode="&#xbf;" horiz-adv-x="1189" 
d="M614 1024q51 0 84 -33t33 -84t-33 -83.5t-84 -32.5t-83.5 32.5t-32.5 83.5t32.5 84t83.5 33zM588 -442q-217 0 -353.5 113t-136.5 288q0 81 24 146.5t70.5 113.5t98.5 81.5t123 64.5l65 28q41 18 57.5 44.5t16.5 78.5v131h127v-129q0 -91 -31.5 -139t-118.5 -86l-65 -29
q-121 -52 -180.5 -119.5t-59.5 -185.5q0 -135 104 -213t259 -78q161 0 271 83.5t110 236.5v84h127v-86q0 -202 -140.5 -315t-367.5 -113z" />
    <glyph glyph-name="Agrave" unicode="&#xc0;" horiz-adv-x="1286" 
d="M612 1561l-168 241h160l135 -241h-127zM57 0l469 1434h234l469 -1434h-137l-123 381h-652l-122 -381h-138zM354 500h578l-277 856h-24z" />
    <glyph glyph-name="Aacute" unicode="&#xc1;" horiz-adv-x="1286" 
d="M547 1552l135 242h160l-168 -242h-127zM57 0l469 1434h234l469 -1434h-137l-123 381h-652l-122 -381h-138zM354 500h578l-277 856h-24z" />
    <glyph glyph-name="Acircumflex" unicode="&#xc2;" horiz-adv-x="1286" 
d="M301 1552l270 242h144l270 -242h-166l-164 156h-24l-164 -156h-166zM57 0l469 1434h234l469 -1434h-137l-123 381h-652l-122 -381h-138zM354 500h578l-277 856h-24z" />
    <glyph glyph-name="Atilde" unicode="&#xc3;" horiz-adv-x="1286" 
d="M397 1563l-82 49l66 108q52 86 137 86q45 0 81 -22t81 -70q31 -34 48 -46.5t38 -12.5q36 0 61 43l62 98l82 -49l-66 -109q-52 -86 -137 -86q-44 0 -80.5 22.5t-81.5 70.5q-31 34 -48 46.5t-38 12.5q-36 0 -63 -45zM57 0l469 1434h234l469 -1434h-137l-123 381h-652
l-122 -381h-138zM354 500h578l-277 856h-24z" />
    <glyph glyph-name="Adieresis" unicode="&#xc4;" horiz-adv-x="1286" 
d="M836 1561q-46 0 -75.5 29t-29.5 75t29.5 75t75.5 29t75 -29t29 -75t-29 -75t-75 -29zM451 1561q-46 0 -75.5 29t-29.5 75t29.5 75t75.5 29t75 -29t29 -75t-29 -75t-75 -29zM57 0l469 1434h234l469 -1434h-137l-123 381h-652l-122 -381h-138zM354 500h578l-277 856h-24z
" />
    <glyph glyph-name="Aring" unicode="&#xc5;" horiz-adv-x="1286" 
d="M643 1532q-84 0 -140.5 53.5t-56.5 138.5t56.5 139t140.5 54q86 0 142.5 -54t56.5 -139t-56.5 -138.5t-142.5 -53.5zM643 1626q45 0 72.5 27.5t27.5 70.5t-27.5 71t-72.5 28q-44 0 -71 -28t-27 -71t27 -70.5t71 -27.5zM57 0l469 1434h234l469 -1434h-137l-123 381h-652
l-122 -381h-138zM354 500h578l-277 856h-24z" />
    <glyph glyph-name="AE" unicode="&#xc6;" horiz-adv-x="1710" 
d="M57 0l627 1434h907v-119h-653v-537h596v-119h-596v-540h661v-119h-792v381h-442l-164 -381h-144zM807 500v856h-23l-368 -856h391z" />
    <glyph glyph-name="Ccedilla" unicode="&#xc7;" horiz-adv-x="1312" 
d="M686 -414q-117 0 -207 70l53 82q74 -57 154 -57q45 0 73.5 18.5t28.5 54.5q0 35 -27.5 53.5t-74.5 18.5h-74l15 147q-232 18 -364 167.5t-132 414.5v324q0 282 148 432.5t405 150.5q246 0 380 -139t134 -383v-10h-131v14q0 184 -96.5 291.5t-286.5 107.5
q-200 0 -311 -120.5t-111 -339.5v-332q0 -219 111 -340t311 -121q190 0 286.5 107.5t96.5 291.5v31h131v-26q0 -234 -123.5 -372.5t-351.5 -150.5l-6 -69q81 0 127.5 -41t46.5 -115q0 -76 -58 -118t-147 -42z" />
    <glyph glyph-name="Egrave" unicode="&#xc8;" horiz-adv-x="1161" 
d="M592 1561l-168 241h160l135 -241h-127zM176 0v1434h866v-119h-735v-537h678v-119h-678v-540h744v-119h-875z" />
    <glyph glyph-name="Eacute" unicode="&#xc9;" horiz-adv-x="1161" 
d="M526 1552l136 242h159l-168 -242h-127zM176 0v1434h866v-119h-735v-537h678v-119h-678v-540h744v-119h-875z" />
    <glyph glyph-name="Ecircumflex" unicode="&#xca;" horiz-adv-x="1161" 
d="M281 1552l270 242h143l271 -242h-166l-164 156h-25l-164 -156h-165zM176 0v1434h866v-119h-735v-537h678v-119h-678v-540h744v-119h-875z" />
    <glyph glyph-name="Edieresis" unicode="&#xcb;" horiz-adv-x="1161" 
d="M815 1561q-46 0 -75 29t-29 75t29 75t75 29t75.5 -29t29.5 -75t-29.5 -75t-75.5 -29zM430 1561q-46 0 -75 29t-29 75t29 75t75 29t75.5 -29t29.5 -75t-29.5 -75t-75.5 -29zM176 0v1434h866v-119h-735v-537h678v-119h-678v-540h744v-119h-875z" />
    <glyph glyph-name="Igrave" unicode="&#xcc;" horiz-adv-x="483" 
d="M211 1561l-168 241h160l135 -241h-127zM176 0v1434h131v-1434h-131z" />
    <glyph glyph-name="Iacute" unicode="&#xcd;" horiz-adv-x="483" 
d="M145 1552l136 242h159l-168 -242h-127zM176 0v1434h131v-1434h-131z" />
    <glyph glyph-name="Icircumflex" unicode="&#xce;" horiz-adv-x="483" 
d="M-100 1552l270 242h143l271 -242h-166l-164 156h-25l-163 -156h-166zM176 0v1434h131v-1434h-131z" />
    <glyph glyph-name="Idieresis" unicode="&#xcf;" horiz-adv-x="483" 
d="M434 1561q-46 0 -75 29t-29 75t29 75t75 29t75.5 -29t29.5 -75t-29.5 -75t-75.5 -29zM49 1561q-46 0 -75 29t-29 75t29 75t75 29t75.5 -29t29.5 -75t-29.5 -75t-75.5 -29zM176 0v1434h131v-1434h-131z" />
    <glyph glyph-name="Eth" unicode="&#xd0;" horiz-adv-x="1355" 
d="M98 0v119h205v536h-205v103h205v557h-205v119h545q286 0 440 -145.5t154 -440.5v-264q0 -295 -154 -439.5t-440 -144.5h-545zM434 119h209q230 0 346.5 110.5t116.5 348.5v276q0 238 -116.5 348.5t-346.5 110.5h-209v-555h254v-103h-254v-536z" />
    <glyph glyph-name="Ntilde" unicode="&#xd1;" horiz-adv-x="1353" 
d="M440 1563l-82 49l66 108q52 86 137 86q45 0 81 -22t81 -70q31 -34 48 -46.5t38 -12.5q36 0 61 43l62 98l82 -49l-66 -109q-52 -86 -137 -86q-44 0 -80.5 22.5t-81.5 70.5q-31 34 -48 46.5t-38 12.5q-36 0 -63 -45zM176 0v1434h260l586 -1356h25v1356h131v-1434h-260
l-586 1358h-25v-1358h-131z" />
    <glyph glyph-name="Ograve" unicode="&#xd2;" horiz-adv-x="1363" 
d="M651 1561l-168 241h160l135 -241h-127zM682 -29q-257 0 -404 151t-147 433v324q0 282 147 432.5t404 150.5t404 -150.5t147 -432.5v-324q0 -282 -147 -433t-404 -151zM682 90q200 0 310 120.5t110 340.5v332q0 219 -110 339.5t-310 120.5t-310 -120.5t-110 -339.5v-332
q0 -220 110 -340.5t310 -120.5z" />
    <glyph glyph-name="Oacute" unicode="&#xd3;" horiz-adv-x="1363" 
d="M586 1552l135 242h160l-168 -242h-127zM682 -29q-257 0 -404 151t-147 433v324q0 282 147 432.5t404 150.5t404 -150.5t147 -432.5v-324q0 -282 -147 -433t-404 -151zM682 90q200 0 310 120.5t110 340.5v332q0 219 -110 339.5t-310 120.5t-310 -120.5t-110 -339.5v-332
q0 -220 110 -340.5t310 -120.5z" />
    <glyph glyph-name="Ocircumflex" unicode="&#xd4;" horiz-adv-x="1363" 
d="M340 1552l270 242h144l270 -242h-166l-164 156h-24l-164 -156h-166zM682 -29q-257 0 -404 151t-147 433v324q0 282 147 432.5t404 150.5t404 -150.5t147 -432.5v-324q0 -282 -147 -433t-404 -151zM682 90q200 0 310 120.5t110 340.5v332q0 219 -110 339.5t-310 120.5
t-310 -120.5t-110 -339.5v-332q0 -220 110 -340.5t310 -120.5z" />
    <glyph glyph-name="Otilde" unicode="&#xd5;" horiz-adv-x="1363" 
d="M436 1563l-82 49l66 108q52 86 137 86q45 0 81 -22t81 -70q31 -34 48 -46.5t38 -12.5q36 0 61 43l62 98l82 -49l-66 -109q-52 -86 -137 -86q-44 0 -80.5 22.5t-81.5 70.5q-31 34 -48 46.5t-38 12.5q-36 0 -63 -45zM682 -29q-257 0 -404 151t-147 433v324q0 282 147 432.5
t404 150.5t404 -150.5t147 -432.5v-324q0 -282 -147 -433t-404 -151zM682 90q200 0 310 120.5t110 340.5v332q0 219 -110 339.5t-310 120.5t-310 -120.5t-110 -339.5v-332q0 -220 110 -340.5t310 -120.5z" />
    <glyph glyph-name="Odieresis" unicode="&#xd6;" horiz-adv-x="1363" 
d="M874 1561q-46 0 -75 29t-29 75t29 75t75 29t75.5 -29t29.5 -75t-29.5 -75t-75.5 -29zM489 1561q-46 0 -75 29t-29 75t29 75t75 29t75.5 -29t29.5 -75t-29.5 -75t-75.5 -29zM682 -29q-257 0 -404 151t-147 433v324q0 282 147 432.5t404 150.5t404 -150.5t147 -432.5v-324
q0 -282 -147 -433t-404 -151zM682 90q200 0 310 120.5t110 340.5v332q0 219 -110 339.5t-310 120.5t-310 -120.5t-110 -339.5v-332q0 -220 110 -340.5t310 -120.5z" />
    <glyph glyph-name="multiply" unicode="&#xd7;" 
d="M324 322l-82 81l313 314l-313 313l82 82l311 -313l311 313l82 -82l-313 -313l313 -314l-82 -81l-311 315z" />
    <glyph glyph-name="Oslash" unicode="&#xd8;" horiz-adv-x="1363" 
d="M397 -172l-96 37l72 182q-242 145 -242 508v324q0 282 147 432.5t404 150.5q127 0 225 -37l62 156l94 -37l-64 -164q112 -69 173 -196t61 -305v-324q0 -282 -147 -433t-404 -151q-122 0 -217 33zM262 551q0 -265 158 -383l444 1143q-74 32 -182 32q-200 0 -310 -120.5
t-110 -339.5v-332zM682 90q200 0 310 120.5t110 340.5v332q0 255 -150 377l-442 -1141q82 -29 172 -29z" />
    <glyph glyph-name="Ugrave" unicode="&#xd9;" horiz-adv-x="1359" 
d="M649 1561l-168 241h160l135 -241h-127zM680 -29q-238 0 -377 126.5t-139 371.5v965h131v-965q0 -189 99.5 -284t285.5 -95t285.5 95t99.5 284v965h131v-965q0 -245 -139 -371.5t-377 -126.5z" />
    <glyph glyph-name="Uacute" unicode="&#xda;" horiz-adv-x="1359" 
d="M584 1552l135 242h160l-168 -242h-127zM680 -29q-238 0 -377 126.5t-139 371.5v965h131v-965q0 -189 99.5 -284t285.5 -95t285.5 95t99.5 284v965h131v-965q0 -245 -139 -371.5t-377 -126.5z" />
    <glyph glyph-name="Ucircumflex" unicode="&#xdb;" horiz-adv-x="1359" 
d="M338 1552l270 242h144l270 -242h-166l-164 156h-24l-164 -156h-166zM680 -29q-238 0 -377 126.5t-139 371.5v965h131v-965q0 -189 99.5 -284t285.5 -95t285.5 95t99.5 284v965h131v-965q0 -245 -139 -371.5t-377 -126.5z" />
    <glyph glyph-name="Udieresis" unicode="&#xdc;" horiz-adv-x="1359" 
d="M872 1561q-46 0 -75 29t-29 75t29 75t75 29t75.5 -29t29.5 -75t-29.5 -75t-75.5 -29zM487 1561q-46 0 -75 29t-29 75t29 75t75 29t75.5 -29t29.5 -75t-29.5 -75t-75.5 -29zM680 -29q-238 0 -377 126.5t-139 371.5v965h131v-965q0 -189 99.5 -284t285.5 -95t285.5 95
t99.5 284v965h131v-965q0 -245 -139 -371.5t-377 -126.5z" />
    <glyph glyph-name="Yacute" unicode="&#xdd;" horiz-adv-x="1236" 
d="M522 1552l135 242h160l-168 -242h-127zM553 0v567l-520 867h155l418 -717h25l418 717h155l-520 -867v-567h-131z" />
    <glyph glyph-name="Thorn" unicode="&#xde;" horiz-adv-x="1228" 
d="M176 0v1434h131v-277h400q195 0 321.5 -108.5t126.5 -296.5v-23q0 -125 -60.5 -218.5t-161.5 -140t-226 -46.5h-400v-324h-131zM692 1038h-385v-596h385q155 0 243.5 76t88.5 213v19q0 138 -87.5 213t-244.5 75z" />
    <glyph glyph-name="germandbls" unicode="&#xdf;" horiz-adv-x="1265" 
d="M823 -29q-179 0 -291.5 87t-134.5 247l115 25q47 -250 311 -250q121 0 189.5 54t68.5 153q0 38 -15.5 71t-36 56t-59 47.5t-66 38t-75.5 35.5l-73 34q-140 64 -140 170q0 62 35.5 102t104.5 77q86 47 134 101.5t48 135.5q0 92 -74.5 145.5t-185.5 53.5q-69 0 -133 -24.5
t-120 -73.5t-90 -135.5t-34 -198.5v-922h-121v913q0 254 137.5 401.5t360.5 147.5q170 0 275.5 -88t105.5 -217q0 -63 -19.5 -114.5t-58 -91.5t-79 -69t-99.5 -61q-64 -34 -64 -78q0 -48 68 -75l88 -43q42 -20 66.5 -32t61.5 -32.5t59 -38t47.5 -44t39.5 -53t23.5 -62.5
t9.5 -76q0 -146 -103 -231t-276 -85z" />
    <glyph glyph-name="agrave" unicode="&#xe0;" horiz-adv-x="1175" 
d="M539 1163l-189 271h158l158 -271h-127zM485 -29q-163 0 -267.5 82.5t-104.5 227.5q0 144 102.5 220.5t265.5 76.5h365v79q0 121 -70.5 188.5t-202.5 67.5q-128 0 -206 -63t-105 -174l-119 35q38 140 146 226.5t284 86.5q187 0 291.5 -99t104.5 -274v-483q0 -62 57 -62h96
v-106h-131q-63 0 -100 37.5t-37 103.5v15h-20q-22 -39 -49 -68.5t-67.5 -57.5t-99.5 -43.5t-133 -15.5zM494 82q161 0 256.5 96.5t95.5 267.5v25h-363q-111 0 -179 -48t-68 -140q0 -95 71 -148t187 -53z" />
    <glyph glyph-name="aacute" unicode="&#xe1;" horiz-adv-x="1175" 
d="M489 1139l160 270h156l-189 -270h-127zM485 -29q-163 0 -267.5 82.5t-104.5 227.5q0 144 102.5 220.5t265.5 76.5h365v79q0 121 -70.5 188.5t-202.5 67.5q-128 0 -206 -63t-105 -174l-119 35q38 140 146 226.5t284 86.5q187 0 291.5 -99t104.5 -274v-483q0 -62 57 -62h96
v-106h-131q-63 0 -100 37.5t-37 103.5v15h-20q-22 -39 -49 -68.5t-67.5 -57.5t-99.5 -43.5t-133 -15.5zM494 82q161 0 256.5 96.5t95.5 267.5v25h-363q-111 0 -179 -48t-68 -140q0 -95 71 -148t187 -53z" />
    <glyph glyph-name="acircumflex" unicode="&#xe2;" horiz-adv-x="1175" 
d="M242 1139l258 270h155l258 -270h-151l-172 180h-25l-172 -180h-151zM485 -29q-163 0 -267.5 82.5t-104.5 227.5q0 144 102.5 220.5t265.5 76.5h365v79q0 121 -70.5 188.5t-202.5 67.5q-128 0 -206 -63t-105 -174l-119 35q38 140 146 226.5t284 86.5q187 0 291.5 -99
t104.5 -274v-483q0 -62 57 -62h96v-106h-131q-63 0 -100 37.5t-37 103.5v15h-20q-22 -39 -49 -68.5t-67.5 -57.5t-99.5 -43.5t-133 -15.5zM494 82q161 0 256.5 96.5t95.5 267.5v25h-363q-111 0 -179 -48t-68 -140q0 -95 71 -148t187 -53z" />
    <glyph glyph-name="atilde" unicode="&#xe3;" horiz-adv-x="1175" 
d="M352 1120l-86 47l62 115q46 84 131 84q43 0 74.5 -18t68.5 -62q5 -5 15 -17t14 -16.5t12 -13t12.5 -12t11 -8t12 -6t11.5 -1.5q33 0 55 39l58 105l86 -47l-62 -115q-46 -84 -131 -84q-43 0 -74.5 18t-68.5 62q-5 5 -15 17t-14 16.5t-12 13t-12.5 12t-11 8t-12 6
t-11.5 1.5q-33 0 -55 -39zM485 -29q-163 0 -267.5 82.5t-104.5 227.5q0 144 102.5 220.5t265.5 76.5h365v79q0 121 -70.5 188.5t-202.5 67.5q-128 0 -206 -63t-105 -174l-119 35q38 140 146 226.5t284 86.5q187 0 291.5 -99t104.5 -274v-483q0 -62 57 -62h96v-106h-131
q-63 0 -100 37.5t-37 103.5v15h-20q-22 -39 -49 -68.5t-67.5 -57.5t-99.5 -43.5t-133 -15.5zM494 82q161 0 256.5 96.5t95.5 267.5v25h-363q-111 0 -179 -48t-68 -140q0 -95 71 -148t187 -53z" />
    <glyph glyph-name="adieresis" unicode="&#xe4;" horiz-adv-x="1175" 
d="M762 1167q-46 0 -75.5 29.5t-29.5 75.5t29.5 75t75.5 29t75 -29t29 -75t-29 -75.5t-75 -29.5zM393 1167q-46 0 -75 29.5t-29 75.5t29 75t75 29t75.5 -29t29.5 -75t-29.5 -75.5t-75.5 -29.5zM485 -29q-163 0 -267.5 82.5t-104.5 227.5q0 144 102.5 220.5t265.5 76.5h365
v79q0 121 -70.5 188.5t-202.5 67.5q-128 0 -206 -63t-105 -174l-119 35q38 140 146 226.5t284 86.5q187 0 291.5 -99t104.5 -274v-483q0 -62 57 -62h96v-106h-131q-63 0 -100 37.5t-37 103.5v15h-20q-22 -39 -49 -68.5t-67.5 -57.5t-99.5 -43.5t-133 -15.5zM494 82
q161 0 256.5 96.5t95.5 267.5v25h-363q-111 0 -179 -48t-68 -140q0 -95 71 -148t187 -53z" />
    <glyph glyph-name="aring" unicode="&#xe5;" horiz-adv-x="1175" 
d="M578 1114q-84 0 -140.5 54t-56.5 139t56.5 138.5t140.5 53.5q86 0 142 -53.5t56 -138.5t-56 -139t-142 -54zM578 1208q45 0 72.5 28t27.5 71t-27.5 70.5t-72.5 27.5q-44 0 -71.5 -27.5t-27.5 -70.5t27.5 -71t71.5 -28zM485 -29q-163 0 -267.5 82.5t-104.5 227.5
q0 144 102.5 220.5t265.5 76.5h365v79q0 121 -70.5 188.5t-202.5 67.5q-128 0 -206 -63t-105 -174l-119 35q38 140 146 226.5t284 86.5q187 0 291.5 -99t104.5 -274v-483q0 -62 57 -62h96v-106h-131q-63 0 -100 37.5t-37 103.5v15h-20q-22 -39 -49 -68.5t-67.5 -57.5
t-99.5 -43.5t-133 -15.5zM494 82q161 0 256.5 96.5t95.5 267.5v25h-363q-111 0 -179 -48t-68 -140q0 -95 71 -148t187 -53z" />
    <glyph glyph-name="ae" unicode="&#xe6;" horiz-adv-x="1937" 
d="M510 -29q-177 0 -287 80t-110 225q0 144 105.5 218.5t277.5 74.5h374v88q0 120 -76 188t-210 68q-131 0 -214.5 -62t-113.5 -171l-115 35q38 137 151 223t292 86q136 0 229.5 -56t132.5 -155h21q63 99 164 155t223 56q208 0 334.5 -131t126.5 -354v-74h-820
q9 -178 110.5 -280.5t264.5 -102.5q123 0 198 58.5t120 158.5l106 -55q-31 -60 -64.5 -104t-83 -85t-119 -62.5t-155.5 -21.5q-144 0 -254 67.5t-172 186.5h-22q-44 -113 -146 -183.5t-268 -70.5zM995 569h695q-6 165 -96 253.5t-240 88.5q-148 0 -245 -91.5t-114 -250.5z
M514 76q161 0 258.5 98t97.5 270v21h-372q-118 0 -191.5 -48t-73.5 -138q0 -93 78.5 -148t202.5 -55z" />
    <glyph glyph-name="ccedilla" unicode="&#xe7;" horiz-adv-x="1234" 
d="M643 -414q-117 0 -207 70l53 82q74 -57 154 -57q45 0 73.5 18.5t28.5 54.5q0 35 -27.5 53.5t-74.5 18.5h-74l15 147q-202 18 -327.5 156t-125.5 358v21q0 234 141 375t363 141q104 0 189.5 -31.5t142 -86t91.5 -120.5t46 -141l-121 -24q-16 127 -105 209.5t-243 82.5
q-166 0 -273.5 -111.5t-107.5 -295.5v-17q0 -184 107.5 -295.5t273.5 -111.5q155 0 244.5 81t111.5 212l121 -25q-29 -150 -139.5 -257t-292.5 -120l-6 -71q81 0 127.5 -41t46.5 -115q0 -76 -58 -118t-147 -42z" />
    <glyph glyph-name="egrave" unicode="&#xe8;" horiz-adv-x="1224" 
d="M586 1163l-189 271h158l158 -271h-127zM639 -29q-229 0 -368.5 142t-139.5 372v25q0 228 139 371t355 143q212 0 344.5 -131.5t132.5 -355.5v-66h-848q6 -183 111.5 -286t273.5 -103q89 0 157 30.5t107.5 76.5t69.5 112l110 -49q-131 -281 -444 -281zM256 578h721
q-7 159 -103 247t-249 88q-151 0 -249 -87.5t-120 -247.5z" />
    <glyph glyph-name="eacute" unicode="&#xe9;" horiz-adv-x="1224" 
d="M537 1139l159 270h156l-188 -270h-127zM639 -29q-229 0 -368.5 142t-139.5 372v25q0 228 139 371t355 143q212 0 344.5 -131.5t132.5 -355.5v-66h-848q6 -183 111.5 -286t273.5 -103q89 0 157 30.5t107.5 76.5t69.5 112l110 -49q-131 -281 -444 -281zM256 578h721
q-7 159 -103 247t-249 88q-151 0 -249 -87.5t-120 -247.5z" />
    <glyph glyph-name="ecircumflex" unicode="&#xea;" horiz-adv-x="1224" 
d="M289 1139l258 270h155l259 -270h-152l-172 180h-25l-172 -180h-151zM639 -29q-229 0 -368.5 142t-139.5 372v25q0 228 139 371t355 143q212 0 344.5 -131.5t132.5 -355.5v-66h-848q6 -183 111.5 -286t273.5 -103q89 0 157 30.5t107.5 76.5t69.5 112l110 -49
q-131 -281 -444 -281zM256 578h721q-7 159 -103 247t-249 88q-151 0 -249 -87.5t-120 -247.5z" />
    <glyph glyph-name="edieresis" unicode="&#xeb;" horiz-adv-x="1224" 
d="M809 1167q-46 0 -75 29.5t-29 75.5t29 75t75 29t75 -29t29 -75t-29 -75.5t-75 -29.5zM440 1167q-46 0 -75 29.5t-29 75.5t29 75t75 29t75.5 -29t29.5 -75t-29.5 -75.5t-75.5 -29.5zM639 -29q-229 0 -368.5 142t-139.5 372v25q0 228 139 371t355 143q212 0 344.5 -131.5
t132.5 -355.5v-66h-848q6 -183 111.5 -286t273.5 -103q89 0 157 30.5t107.5 76.5t69.5 112l110 -49q-131 -281 -444 -281zM256 578h721q-7 159 -103 247t-249 88q-151 0 -249 -87.5t-120 -247.5z" />
    <glyph glyph-name="igrave" unicode="&#xec;" horiz-adv-x="483" 
d="M203 1163l-189 271h158l158 -271h-127zM180 0v995h123v-995h-123z" />
    <glyph glyph-name="iacute" unicode="&#xed;" horiz-adv-x="483" 
d="M154 1139l159 270h156l-188 -270h-127zM180 0v995h123v-995h-123z" />
    <glyph glyph-name="icircumflex" unicode="&#xee;" horiz-adv-x="483" 
d="M-94 1139l258 270h155l259 -270h-152l-172 180h-25l-172 -180h-151zM180 0v995h123v-995h-123z" />
    <glyph glyph-name="idieresis" unicode="&#xef;" horiz-adv-x="483" 
d="M426 1167q-46 0 -75 29.5t-29 75.5t29 75t75 29t75 -29t29 -75t-29 -75.5t-75 -29.5zM57 1167q-46 0 -75 29.5t-29 75.5t29 75t75 29t75.5 -29t29.5 -75t-29.5 -75.5t-75.5 -29.5zM180 0v995h123v-995h-123z" />
    <glyph glyph-name="eth" unicode="&#xf0;" horiz-adv-x="1257" 
d="M635 -29q-227 0 -365.5 141t-138.5 373v25q0 229 134 370.5t349 141.5t334 -139h23q-60 227 -279 366l-90 -123l-78 54l84 114q-84 43 -176 68l37 94q105 -29 201 -78l80 111l77 -53l-75 -103q387 -240 387 -798q0 -266 -136.5 -415t-367.5 -149zM635 82q172 0 276.5 112
t104.5 295v17q0 183 -104 295t-277 112q-174 0 -277.5 -111.5t-103.5 -295.5v-17q0 -183 104 -295t277 -112z" />
    <glyph glyph-name="ntilde" unicode="&#xf1;" horiz-adv-x="1253" 
d="M410 1120l-86 47l61 115q46 84 131 84q43 0 74.5 -18t68.5 -62q4 -4 12 -13.5t11 -13.5t9.5 -11t10 -10.5t9.5 -8.5t9.5 -7.5t8.5 -5t9.5 -3.5t9.5 -1q33 0 55 39l57 105l86 -47l-61 -115q-46 -84 -131 -84q-43 0 -75 18t-69 62q-5 5 -15 17t-14 16.5t-12 13t-12.5 12
t-11 8t-12 6t-11.5 1.5q-33 0 -55 -39zM180 0v995h119v-184h25q95 205 364 205q82 0 153 -26t126 -75.5t86.5 -129t31.5 -179.5v-606h-122v598q0 157 -79.5 232t-221.5 75q-160 0 -259.5 -105t-99.5 -302v-498h-123z" />
    <glyph glyph-name="ograve" unicode="&#xf2;" 
d="M596 1163l-188 271h157l158 -271h-127zM635 -29q-227 0 -365.5 141.5t-138.5 372.5v25q0 231 138.5 372.5t365.5 141.5t365.5 -141.5t138.5 -372.5v-25q0 -231 -138.5 -372.5t-365.5 -141.5zM635 82q174 0 277.5 111t103.5 296v17q0 185 -103.5 296t-277.5 111
t-277.5 -111t-103.5 -296v-17q0 -185 103.5 -296t277.5 -111z" />
    <glyph glyph-name="oacute" unicode="&#xf3;" 
d="M547 1139l160 270h155l-188 -270h-127zM635 -29q-227 0 -365.5 141.5t-138.5 372.5v25q0 231 138.5 372.5t365.5 141.5t365.5 -141.5t138.5 -372.5v-25q0 -231 -138.5 -372.5t-365.5 -141.5zM635 82q174 0 277.5 111t103.5 296v17q0 185 -103.5 296t-277.5 111
t-277.5 -111t-103.5 -296v-17q0 -185 103.5 -296t277.5 -111z" />
    <glyph glyph-name="ocircumflex" unicode="&#xf4;" 
d="M299 1139l258 270h156l258 -270h-152l-172 180h-24l-172 -180h-152zM635 -29q-227 0 -365.5 141.5t-138.5 372.5v25q0 231 138.5 372.5t365.5 141.5t365.5 -141.5t138.5 -372.5v-25q0 -231 -138.5 -372.5t-365.5 -141.5zM635 82q174 0 277.5 111t103.5 296v17
q0 185 -103.5 296t-277.5 111t-277.5 -111t-103.5 -296v-17q0 -185 103.5 -296t277.5 -111z" />
    <glyph glyph-name="otilde" unicode="&#xf5;" 
d="M410 1120l-86 47l61 115q46 84 131 84q43 0 74.5 -18t68.5 -62q4 -4 12 -13.5t11 -13.5t9.5 -11t10 -10.5t9.5 -8.5t9.5 -7.5t8.5 -5t9.5 -3.5t9.5 -1q33 0 55 39l57 105l86 -47l-61 -115q-46 -84 -131 -84q-43 0 -75 18t-69 62q-5 5 -15 17t-14 16.5t-12 13t-12.5 12
t-11 8t-12 6t-11.5 1.5q-33 0 -55 -39zM635 -29q-227 0 -365.5 141.5t-138.5 372.5v25q0 231 138.5 372.5t365.5 141.5t365.5 -141.5t138.5 -372.5v-25q0 -231 -138.5 -372.5t-365.5 -141.5zM635 82q174 0 277.5 111t103.5 296v17q0 185 -103.5 296t-277.5 111t-277.5 -111
t-103.5 -296v-17q0 -185 103.5 -296t277.5 -111z" />
    <glyph glyph-name="odieresis" unicode="&#xf6;" 
d="M819 1167q-46 0 -75 29.5t-29 75.5t29 75t75 29t75.5 -29t29.5 -75t-29.5 -75.5t-75.5 -29.5zM451 1167q-46 0 -75.5 29.5t-29.5 75.5t29.5 75t75.5 29t75 -29t29 -75t-29 -75.5t-75 -29.5zM635 -29q-227 0 -365.5 141.5t-138.5 372.5v25q0 231 138.5 372.5t365.5 141.5
t365.5 -141.5t138.5 -372.5v-25q0 -231 -138.5 -372.5t-365.5 -141.5zM635 82q174 0 277.5 111t103.5 296v17q0 185 -103.5 296t-277.5 111t-277.5 -111t-103.5 -296v-17q0 -185 103.5 -296t277.5 -111z" />
    <glyph glyph-name="divide" unicode="&#xf7;" 
d="M635 915q-51 0 -84 33t-33 84t33 84t84 33t84 -33t33 -84t-33 -84t-84 -33zM205 659v115h860v-115h-860zM635 285q-51 0 -84 32.5t-33 83.5t33 84t84 33t84 -33t33 -84t-33 -83.5t-84 -32.5z" />
    <glyph glyph-name="oslash" unicode="&#xf8;" 
d="M344 -119l-84 47l74 131q-97 67 -150 177t-53 249v25q0 231 138.5 372.5t365.5 141.5q123 0 221 -43l68 119l84 -47l-68 -119q95 -67 147 -176.5t52 -247.5v-25q0 -231 -138.5 -372.5t-365.5 -141.5q-121 0 -217 41zM254 489q0 -218 137 -327l410 719q-68 32 -166 32
q-174 0 -277.5 -111t-103.5 -296v-17zM635 82q174 0 277.5 111t103.5 296v17q0 211 -133 325l-408 -718q73 -31 160 -31z" />
    <glyph glyph-name="ugrave" unicode="&#xf9;" horiz-adv-x="1251" 
d="M580 1163l-189 271h158l158 -271h-127zM563 -20q-110 0 -198.5 44t-143.5 138.5t-55 226.5v606h123v-598q0 -157 79.5 -232t221.5 -75q160 0 259 105.5t99 302.5v497h123v-995h-119v184h-24q-94 -204 -365 -204z" />
    <glyph glyph-name="uacute" unicode="&#xfa;" horiz-adv-x="1251" 
d="M530 1139l160 270h156l-189 -270h-127zM563 -20q-110 0 -198.5 44t-143.5 138.5t-55 226.5v606h123v-598q0 -157 79.5 -232t221.5 -75q160 0 259 105.5t99 302.5v497h123v-995h-119v184h-24q-94 -204 -365 -204z" />
    <glyph glyph-name="ucircumflex" unicode="&#xfb;" horiz-adv-x="1251" 
d="M283 1139l258 270h155l258 -270h-151l-172 180h-25l-172 -180h-151zM563 -20q-110 0 -198.5 44t-143.5 138.5t-55 226.5v606h123v-598q0 -157 79.5 -232t221.5 -75q160 0 259 105.5t99 302.5v497h123v-995h-119v184h-24q-94 -204 -365 -204z" />
    <glyph glyph-name="udieresis" unicode="&#xfc;" horiz-adv-x="1251" 
d="M803 1167q-46 0 -75.5 29.5t-29.5 75.5t29.5 75t75.5 29t75 -29t29 -75t-29 -75.5t-75 -29.5zM434 1167q-46 0 -75 29.5t-29 75.5t29 75t75 29t75.5 -29t29.5 -75t-29.5 -75.5t-75.5 -29.5zM563 -20q-110 0 -198.5 44t-143.5 138.5t-55 226.5v606h123v-598
q0 -157 79.5 -232t221.5 -75q160 0 259 105.5t99 302.5v497h123v-995h-119v184h-24q-94 -204 -365 -204z" />
    <glyph glyph-name="yacute" unicode="&#xfd;" horiz-adv-x="1251" 
d="M532 1139l160 270h156l-189 -270h-127zM305 -410v111h582q33 0 47 14.5t14 46.5v410h-24q-98 -192 -361 -192q-171 0 -284 105.5t-113 301.5v608h123v-600q0 -157 79 -231t222 -74q160 0 259 104.5t99 301.5v499h123v-1249q0 -74 -40.5 -115t-119.5 -41h-606z" />
    <glyph glyph-name="thorn" unicode="&#xfe;" horiz-adv-x="1318" 
d="M180 -410v1844h121v-613h23q48 88 142.5 145.5t244.5 57.5q205 0 341 -141t136 -373v-25q0 -116 -37 -213.5t-101 -163t-151.5 -101.5t-187.5 -36q-276 0 -387 201h-23v-582h-121zM684 82q171 0 275 109.5t104 297.5v17q0 188 -104 297.5t-275 109.5q-170 0 -276.5 -110
t-106.5 -297v-17q0 -187 106.5 -297t276.5 -110z" />
    <glyph glyph-name="ydieresis" unicode="&#xff;" horiz-adv-x="1251" 
d="M805 1167q-46 0 -75.5 29.5t-29.5 75.5t29.5 75t75.5 29t75 -29t29 -75t-29 -75.5t-75 -29.5zM436 1167q-46 0 -75 29.5t-29 75.5t29 75t75 29t75.5 -29t29.5 -75t-29.5 -75.5t-75.5 -29.5zM305 -410v111h582q33 0 47 14.5t14 46.5v410h-24q-98 -192 -361 -192
q-171 0 -284 105.5t-113 301.5v608h123v-600q0 -157 79 -231t222 -74q160 0 259 104.5t99 301.5v499h123v-1249q0 -74 -40.5 -115t-119.5 -41h-606z" />
    <glyph glyph-name="Amacron" unicode="&#x100;" horiz-adv-x="1286" 
d="M336 1585v107h614v-107h-614zM57 0l469 1434h234l469 -1434h-137l-123 381h-652l-122 -381h-138zM354 500h578l-277 856h-24z" />
    <glyph glyph-name="amacron" unicode="&#x101;" horiz-adv-x="1175" 
d="M270 1184v106h615v-106h-615zM485 -29q-163 0 -267.5 82.5t-104.5 227.5q0 144 102.5 220.5t265.5 76.5h365v79q0 121 -70.5 188.5t-202.5 67.5q-128 0 -206 -63t-105 -174l-119 35q38 140 146 226.5t284 86.5q187 0 291.5 -99t104.5 -274v-483q0 -62 57 -62h96v-106
h-131q-63 0 -100 37.5t-37 103.5v15h-20q-22 -39 -49 -68.5t-67.5 -57.5t-99.5 -43.5t-133 -15.5zM494 82q161 0 256.5 96.5t95.5 267.5v25h-363q-111 0 -179 -48t-68 -140q0 -95 71 -148t187 -53z" />
    <glyph glyph-name="Abreve" unicode="&#x102;" horiz-adv-x="1286" 
d="M643 1540q-137 0 -215 69.5t-78 182.5v6h115v-6q0 -71 45.5 -112.5t132.5 -41.5q88 0 134 41.5t46 112.5v6h115v-6q0 -112 -79 -182t-216 -70zM57 0l469 1434h234l469 -1434h-137l-123 381h-652l-122 -381h-138zM354 500h578l-277 856h-24z" />
    <glyph glyph-name="abreve" unicode="&#x103;" horiz-adv-x="1175" 
d="M578 1135q-129 0 -207 69t-78 193v12h115v-12q0 -74 44 -119t126 -45q81 0 124 45t43 119v12h115v-12q0 -124 -77.5 -193t-204.5 -69zM485 -29q-163 0 -267.5 82.5t-104.5 227.5q0 144 102.5 220.5t265.5 76.5h365v79q0 121 -70.5 188.5t-202.5 67.5q-128 0 -206 -63
t-105 -174l-119 35q38 140 146 226.5t284 86.5q187 0 291.5 -99t104.5 -274v-483q0 -62 57 -62h96v-106h-131q-63 0 -100 37.5t-37 103.5v15h-20q-22 -39 -49 -68.5t-67.5 -57.5t-99.5 -43.5t-133 -15.5zM494 82q161 0 256.5 96.5t95.5 267.5v25h-363q-111 0 -179 -48
t-68 -140q0 -95 71 -148t187 -53z" />
    <glyph glyph-name="Aogonek" unicode="&#x104;" horiz-adv-x="1286" 
d="M57 0l469 1434h234l469 -1434h-15l-24 -133q-8 -50 -8 -53q0 -39 45 -39h84v-107h-99q-67 0 -103 33.5t-36 97.5q0 37 19 119l18 82h-18l-123 381h-652l-122 -381h-138zM354 500h578l-277 856h-24z" />
    <glyph glyph-name="aogonek" unicode="&#x105;" horiz-adv-x="1175" 
d="M485 -29q-163 0 -267.5 82.5t-104.5 227.5q0 144 102.5 220.5t265.5 76.5h365v79q0 121 -70.5 188.5t-202.5 67.5q-128 0 -206 -63t-105 -174l-119 35q38 140 146 226.5t284 86.5q187 0 291.5 -99t104.5 -274v-483q0 -62 57 -62h96v-106h-96l-25 -133q-8 -50 -8 -53
q0 -39 45 -39h84v-107h-98q-67 0 -103 33.5t-36 97.5q0 42 18 119l23 96q-72 32 -72 127v15h-20q-22 -39 -49 -68.5t-67.5 -57.5t-99.5 -43.5t-133 -15.5zM494 82q161 0 256.5 96.5t95.5 267.5v25h-363q-111 0 -179 -48t-68 -140q0 -95 71 -148t187 -53z" />
    <glyph glyph-name="Cacute" unicode="&#x106;" horiz-adv-x="1312" 
d="M588 1552l135 242h160l-168 -242h-127zM684 -29q-257 0 -405 151t-148 433v324q0 282 148 432.5t405 150.5q246 0 380 -139t134 -383v-10h-131v14q0 184 -96.5 291.5t-286.5 107.5q-200 0 -311 -120.5t-111 -339.5v-332q0 -219 111 -340t311 -121q190 0 286.5 107.5
t96.5 291.5v31h131v-26q0 -244 -134 -383.5t-380 -139.5z" />
    <glyph glyph-name="cacute" unicode="&#x107;" horiz-adv-x="1234" 
d="M547 1139l160 270h155l-188 -270h-127zM635 -29q-222 0 -363 141t-141 375v21q0 234 141 375t363 141q104 0 189.5 -31.5t142 -86t91.5 -120.5t46 -141l-121 -24q-16 127 -105 209.5t-243 82.5q-166 0 -273.5 -111.5t-107.5 -295.5v-17q0 -184 107.5 -295.5t273.5 -111.5
q155 0 244.5 81t111.5 212l121 -25q-14 -76 -50.5 -142t-93.5 -120t-143 -85.5t-190 -31.5z" />
    <glyph glyph-name="Ccircumflex" unicode="&#x108;" horiz-adv-x="1312" 
d="M342 1552l270 242h144l270 -242h-166l-164 156h-24l-164 -156h-166zM684 -29q-257 0 -405 151t-148 433v324q0 282 148 432.5t405 150.5q246 0 380 -139t134 -383v-10h-131v14q0 184 -96.5 291.5t-286.5 107.5q-200 0 -311 -120.5t-111 -339.5v-332q0 -219 111 -340
t311 -121q190 0 286.5 107.5t96.5 291.5v31h131v-26q0 -244 -134 -383.5t-380 -139.5z" />
    <glyph glyph-name="ccircumflex" unicode="&#x109;" horiz-adv-x="1234" 
d="M299 1139l258 270h156l258 -270h-152l-172 180h-24l-172 -180h-152zM635 -29q-222 0 -363 141t-141 375v21q0 234 141 375t363 141q104 0 189.5 -31.5t142 -86t91.5 -120.5t46 -141l-121 -24q-16 127 -105 209.5t-243 82.5q-166 0 -273.5 -111.5t-107.5 -295.5v-17
q0 -184 107.5 -295.5t273.5 -111.5q155 0 244.5 81t111.5 212l121 -25q-14 -76 -50.5 -142t-93.5 -120t-143 -85.5t-190 -31.5z" />
    <glyph glyph-name="Cdotaccent" unicode="&#x10a;" horiz-adv-x="1312" 
d="M684 1561q-46 0 -76 30t-30 76t30 76.5t76 30.5t76.5 -30.5t30.5 -76.5t-30.5 -76t-76.5 -30zM684 -29q-257 0 -405 151t-148 433v324q0 282 148 432.5t405 150.5q246 0 380 -139t134 -383v-10h-131v14q0 184 -96.5 291.5t-286.5 107.5q-200 0 -311 -120.5t-111 -339.5
v-332q0 -219 111 -340t311 -121q190 0 286.5 107.5t96.5 291.5v31h131v-26q0 -244 -134 -383.5t-380 -139.5z" />
    <glyph glyph-name="cdotaccent" unicode="&#x10b;" horiz-adv-x="1234" 
d="M635 1167q-46 0 -76.5 30.5t-30.5 76.5t30.5 76t76.5 30t76 -30t30 -76t-30 -76.5t-76 -30.5zM635 -29q-222 0 -363 141t-141 375v21q0 234 141 375t363 141q104 0 189.5 -31.5t142 -86t91.5 -120.5t46 -141l-121 -24q-16 127 -105 209.5t-243 82.5q-166 0 -273.5 -111.5
t-107.5 -295.5v-17q0 -184 107.5 -295.5t273.5 -111.5q155 0 244.5 81t111.5 212l121 -25q-14 -76 -50.5 -142t-93.5 -120t-143 -85.5t-190 -31.5z" />
    <glyph glyph-name="Ccaron" unicode="&#x10c;" horiz-adv-x="1312" 
d="M612 1552l-270 242h166l164 -156h24l164 156h166l-270 -242h-144zM684 -29q-257 0 -405 151t-148 433v324q0 282 148 432.5t405 150.5q246 0 380 -139t134 -383v-10h-131v14q0 184 -96.5 291.5t-286.5 107.5q-200 0 -311 -120.5t-111 -339.5v-332q0 -219 111 -340
t311 -121q190 0 286.5 107.5t96.5 291.5v31h131v-26q0 -244 -134 -383.5t-380 -139.5z" />
    <glyph glyph-name="ccaron" unicode="&#x10d;" horiz-adv-x="1234" 
d="M557 1139l-258 270h152l172 -180h24l172 180h152l-258 -270h-156zM635 -29q-222 0 -363 141t-141 375v21q0 234 141 375t363 141q104 0 189.5 -31.5t142 -86t91.5 -120.5t46 -141l-121 -24q-16 127 -105 209.5t-243 82.5q-166 0 -273.5 -111.5t-107.5 -295.5v-17
q0 -184 107.5 -295.5t273.5 -111.5q155 0 244.5 81t111.5 212l121 -25q-14 -76 -50.5 -142t-93.5 -120t-143 -85.5t-190 -31.5z" />
    <glyph glyph-name="Dcaron" unicode="&#x10e;" horiz-adv-x="1355" 
d="M578 1552l-271 242h166l164 -156h25l163 156h166l-270 -242h-143zM98 0v119h205v1196h-205v119h545q286 0 440 -145.5t154 -440.5v-264q0 -295 -154 -439.5t-440 -144.5h-545zM434 119h209q230 0 346.5 110.5t116.5 348.5v276q0 238 -116.5 348.5t-346.5 110.5h-209
v-1194z" />
    <glyph glyph-name="dcaron" unicode="&#x10f;" horiz-adv-x="1441" 
d="M610 -29q-205 0 -342 141t-137 373v25q0 231 136.5 372.5t342.5 141.5q151 0 245 -58t140 -145h25v613h123v-1434h-119v182h-25q-110 -211 -389 -211zM1307 1065l18 369h133l-53 -369h-98zM639 82q171 0 276 109.5t105 297.5v17q0 188 -105 297.5t-276 109.5t-276 -109.5
t-105 -297.5v-17q0 -188 105 -297.5t276 -109.5z" />
    <glyph glyph-name="Dcroat" unicode="&#x110;" horiz-adv-x="1355" 
d="M98 0v119h205v536h-205v103h205v557h-205v119h545q286 0 440 -145.5t154 -440.5v-264q0 -295 -154 -439.5t-440 -144.5h-545zM434 119h209q230 0 346.5 110.5t116.5 348.5v276q0 238 -116.5 348.5t-346.5 110.5h-209v-555h254v-103h-254v-536z" />
    <glyph glyph-name="dcroat" unicode="&#x111;" horiz-adv-x="1323" 
d="M610 -29q-205 0 -342 141t-137 373v25q0 231 136.5 372.5t342.5 141.5q151 0 245 -58t140 -145h25v338h-371v90h371v185h123v-185h164v-90h-164v-1159h-119v182h-25q-110 -211 -389 -211zM639 82q171 0 276 109.5t105 297.5v17q0 188 -105 297.5t-276 109.5t-276 -109.5
t-105 -297.5v-17q0 -188 105 -297.5t276 -109.5z" />
    <glyph glyph-name="Emacron" unicode="&#x112;" horiz-adv-x="1161" 
d="M315 1585v107h615v-107h-615zM176 0v1434h866v-119h-735v-537h678v-119h-678v-540h744v-119h-875z" />
    <glyph glyph-name="emacron" unicode="&#x113;" horiz-adv-x="1224" 
d="M317 1184v106h615v-106h-615zM639 -29q-229 0 -368.5 142t-139.5 372v25q0 228 139 371t355 143q212 0 344.5 -131.5t132.5 -355.5v-66h-848q6 -183 111.5 -286t273.5 -103q89 0 157 30.5t107.5 76.5t69.5 112l110 -49q-131 -281 -444 -281zM256 578h721q-7 159 -103 247
t-249 88q-151 0 -249 -87.5t-120 -247.5z" />
    <glyph glyph-name="Ebreve" unicode="&#x114;" horiz-adv-x="1161" 
d="M623 1540q-137 0 -215 69.5t-78 182.5v6h114v-6q0 -71 46 -112.5t133 -41.5q88 0 134 41.5t46 112.5v6h115v-6q0 -112 -79 -182t-216 -70zM176 0v1434h866v-119h-735v-537h678v-119h-678v-540h744v-119h-875z" />
    <glyph glyph-name="ebreve" unicode="&#x115;" horiz-adv-x="1224" 
d="M625 1135q-129 0 -207 69t-78 193v12h115v-12q0 -74 44 -119t126 -45q81 0 124.5 45t43.5 119v12h114v-12q0 -124 -77.5 -193t-204.5 -69zM639 -29q-229 0 -368.5 142t-139.5 372v25q0 228 139 371t355 143q212 0 344.5 -131.5t132.5 -355.5v-66h-848q6 -183 111.5 -286
t273.5 -103q89 0 157 30.5t107.5 76.5t69.5 112l110 -49q-131 -281 -444 -281zM256 578h721q-7 159 -103 247t-249 88q-151 0 -249 -87.5t-120 -247.5z" />
    <glyph glyph-name="Edotaccent" unicode="&#x116;" horiz-adv-x="1161" 
d="M623 1561q-46 0 -76.5 30t-30.5 76t30.5 76.5t76.5 30.5t76 -30.5t30 -76.5t-30 -76t-76 -30zM176 0v1434h866v-119h-735v-537h678v-119h-678v-540h744v-119h-875z" />
    <glyph glyph-name="edotaccent" unicode="&#x117;" horiz-adv-x="1224" 
d="M625 1167q-46 0 -76.5 30.5t-30.5 76.5t30.5 76t76.5 30t76 -30t30 -76t-30 -76.5t-76 -30.5zM639 -29q-229 0 -368.5 142t-139.5 372v25q0 228 139 371t355 143q212 0 344.5 -131.5t132.5 -355.5v-66h-848q6 -183 111.5 -286t273.5 -103q89 0 157 30.5t107.5 76.5
t69.5 112l110 -49q-131 -281 -444 -281zM256 578h721q-7 159 -103 247t-249 88q-151 0 -249 -87.5t-120 -247.5z" />
    <glyph glyph-name="Eogonek" unicode="&#x118;" horiz-adv-x="1161" 
d="M176 0v1434h866v-119h-735v-537h678v-119h-678v-540h744v-119h-99l-24 -133q-8 -50 -8 -53q0 -39 45 -39h84v-107h-99q-67 0 -103 33.5t-36 97.5q0 42 18 119l19 82h-672z" />
    <glyph glyph-name="eogonek" unicode="&#x119;" horiz-adv-x="1224" 
d="M639 -29q-229 0 -368.5 142t-139.5 372v25q0 228 139 371t355 143q212 0 344.5 -131.5t132.5 -355.5v-66h-848q6 -183 111.5 -286t273.5 -103q89 0 157 30.5t107.5 76.5t69.5 112l110 -49q-92 -196 -270 -256l-25 -129q-8 -50 -8 -53q0 -39 45 -39h84v-107h-98
q-67 0 -103 33.5t-36 97.5q0 42 18 119l12 57q-40 -4 -63 -4zM256 578h721q-7 159 -103 247t-249 88q-151 0 -249 -87.5t-120 -247.5z" />
    <glyph glyph-name="Ecaron" unicode="&#x11a;" horiz-adv-x="1161" 
d="M551 1552l-270 242h165l164 -156h25l164 156h166l-271 -242h-143zM176 0v1434h866v-119h-735v-537h678v-119h-678v-540h744v-119h-875z" />
    <glyph glyph-name="ecaron" unicode="&#x11b;" horiz-adv-x="1224" 
d="M547 1139l-258 270h151l172 -180h25l172 180h152l-259 -270h-155zM639 -29q-229 0 -368.5 142t-139.5 372v25q0 228 139 371t355 143q212 0 344.5 -131.5t132.5 -355.5v-66h-848q6 -183 111.5 -286t273.5 -103q89 0 157 30.5t107.5 76.5t69.5 112l110 -49
q-131 -281 -444 -281zM256 578h721q-7 159 -103 247t-249 88q-151 0 -249 -87.5t-120 -247.5z" />
    <glyph glyph-name="Gcircumflex" unicode="&#x11c;" horiz-adv-x="1349" 
d="M344 1552l270 242h144l270 -242h-166l-164 156h-24l-164 -156h-166zM676 -29q-251 0 -398 151t-147 433v324q0 282 148 432.5t405 150.5q244 0 375 -136.5t131 -373.5v-10h-131v14q0 176 -93.5 281.5t-281.5 105.5q-200 0 -311 -120.5t-111 -339.5v-332q0 -219 111 -340
t311 -121q189 0 284 110t95 306v41h-473v115h600v-662h-119v162h-24q-94 -191 -371 -191z" />
    <glyph glyph-name="gcircumflex" unicode="&#x11d;" horiz-adv-x="1318" 
d="M344 1139l258 270h156l258 -270h-152l-172 180h-24l-172 -180h-152zM131 494v24q0 229 137 367.5t342 138.5q279 0 389 -211h25v182h115v-1249q0 -75 -40 -115.5t-118 -40.5h-680v111h655q64 0 64 61v428h-25q-46 -87 -140 -144.5t-245 -57.5q-206 0 -342.5 139
t-136.5 367zM639 98q171 0 276 107.5t105 292.5v16q0 185 -105 292t-276 107t-276 -107t-105 -292v-16q0 -185 105 -292.5t276 -107.5z" />
    <glyph glyph-name="Gbreve" unicode="&#x11e;" horiz-adv-x="1349" 
d="M686 1540q-137 0 -215 69.5t-78 182.5v6h115v-6q0 -71 45.5 -112.5t132.5 -41.5q88 0 134 41.5t46 112.5v6h115v-6q0 -112 -79 -182t-216 -70zM676 -29q-251 0 -398 151t-147 433v324q0 282 148 432.5t405 150.5q244 0 375 -136.5t131 -373.5v-10h-131v14
q0 176 -93.5 281.5t-281.5 105.5q-200 0 -311 -120.5t-111 -339.5v-332q0 -219 111 -340t311 -121q189 0 284 110t95 306v41h-473v115h600v-662h-119v162h-24q-94 -191 -371 -191z" />
    <glyph glyph-name="gbreve" unicode="&#x11f;" horiz-adv-x="1318" 
d="M680 1135q-129 0 -207 69t-78 193v12h115v-12q0 -74 44 -119t126 -45q81 0 124.5 45t43.5 119v12h115v-12q0 -123 -78 -192.5t-205 -69.5zM131 494v24q0 229 137 367.5t342 138.5q279 0 389 -211h25v182h115v-1249q0 -75 -40 -115.5t-118 -40.5h-680v111h655q64 0 64 61
v428h-25q-46 -87 -140 -144.5t-245 -57.5q-206 0 -342.5 139t-136.5 367zM639 98q171 0 276 107.5t105 292.5v16q0 185 -105 292t-276 107t-276 -107t-105 -292v-16q0 -185 105 -292.5t276 -107.5z" />
    <glyph glyph-name="Gdotaccent" unicode="&#x120;" horiz-adv-x="1349" 
d="M686 1561q-46 0 -76 30t-30 76t30 76.5t76 30.5t76.5 -30.5t30.5 -76.5t-30.5 -76t-76.5 -30zM676 -29q-251 0 -398 151t-147 433v324q0 282 148 432.5t405 150.5q244 0 375 -136.5t131 -373.5v-10h-131v14q0 176 -93.5 281.5t-281.5 105.5q-200 0 -311 -120.5
t-111 -339.5v-332q0 -219 111 -340t311 -121q189 0 284 110t95 306v41h-473v115h600v-662h-119v162h-24q-94 -191 -371 -191z" />
    <glyph glyph-name="gdotaccent" unicode="&#x121;" horiz-adv-x="1318" 
d="M680 1167q-46 0 -76.5 30.5t-30.5 76.5t30.5 76t76.5 30t76 -30t30 -76t-30 -76.5t-76 -30.5zM131 494v24q0 229 137 367.5t342 138.5q279 0 389 -211h25v182h115v-1249q0 -75 -40 -115.5t-118 -40.5h-680v111h655q64 0 64 61v428h-25q-46 -87 -140 -144.5t-245 -57.5
q-206 0 -342.5 139t-136.5 367zM639 98q171 0 276 107.5t105 292.5v16q0 185 -105 292t-276 107t-276 -107t-105 -292v-16q0 -185 105 -292.5t276 -107.5z" />
    <glyph glyph-name="uni0122" unicode="&#x122;" horiz-adv-x="1349" 
d="M676 -29q-251 0 -398 151t-147 433v324q0 282 148 432.5t405 150.5q244 0 375 -136.5t131 -373.5v-10h-131v14q0 176 -93.5 281.5t-281.5 105.5q-200 0 -311 -120.5t-111 -339.5v-332q0 -219 111 -340t311 -121q189 0 284 110t95 306v41h-473v115h600v-662h-119v162h-24
q-94 -191 -371 -191zM604 -512v78h43q34 0 49 14t15 47v37h-21q-43 0 -72.5 28t-29.5 72q0 43 29 72t73 29t73.5 -31t29.5 -82v-127q0 -137 -138 -137h-51z" />
    <glyph glyph-name="uni0123" unicode="&#x123;" horiz-adv-x="1318" 
d="M766 1530v-78h-43q-34 0 -49 -14t-15 -47v-39h21q43 0 72.5 -28.5t29.5 -72.5q0 -43 -29 -71.5t-73 -28.5t-73 31t-29 82v129q0 137 137 137h51zM131 494v24q0 229 137 367.5t342 138.5q279 0 389 -211h25v182h115v-1249q0 -75 -40 -115.5t-118 -40.5h-680v111h655
q64 0 64 61v428h-25q-46 -87 -140 -144.5t-245 -57.5q-206 0 -342.5 139t-136.5 367zM639 98q171 0 276 107.5t105 292.5v16q0 185 -105 292t-276 107t-276 -107t-105 -292v-16q0 -185 105 -292.5t276 -107.5z" />
    <glyph glyph-name="Hcircumflex" unicode="&#x124;" horiz-adv-x="1343" 
d="M330 1552l270 242h143l271 -242h-166l-164 156h-25l-163 -156h-166zM176 0v1434h131v-656h729v656h131v-1434h-131v659h-729v-659h-131z" />
    <glyph glyph-name="hcircumflex" unicode="&#x125;" horiz-adv-x="1253" 
d="M-100 1552l270 242h143l271 -242h-166l-164 156h-25l-163 -156h-166zM180 0v1434h123v-613h25q99 193 360 193q171 0 284 -106t113 -302v-606h-122v598q0 157 -79 231t-222 74q-161 0 -260 -104t-99 -301v-498h-123z" />
    <glyph glyph-name="Hbar" unicode="&#x126;" horiz-adv-x="1343" 
d="M176 0v1044h-131v101h131v289h131v-289h729v289h131v-289h133v-101h-133v-1044h-131v659h-729v-659h-131zM307 778h729v266h-729v-266z" />
    <glyph glyph-name="hbar" unicode="&#x127;" horiz-adv-x="1253" 
d="M180 0v1159h-164v90h164v185h123v-185h371v-90h-371v-338h25q99 193 360 193q171 0 284 -106t113 -302v-606h-122v598q0 157 -79 231t-222 74q-161 0 -260 -104t-99 -301v-498h-123z" />
    <glyph glyph-name="Itilde" unicode="&#x128;" horiz-adv-x="483" 
d="M-4 1563l-82 49l66 108q52 86 137 86q45 0 81 -22t81 -70q31 -34 48 -46.5t38 -12.5q36 0 61 43l61 98l82 -49l-65 -109q-52 -86 -137 -86q-44 0 -80.5 22.5t-81.5 70.5q-31 34 -48 46.5t-38 12.5q-37 0 -64 -45zM176 0v1434h131v-1434h-131z" />
    <glyph glyph-name="itilde" unicode="&#x129;" horiz-adv-x="483" 
d="M16 1120l-86 47l62 115q46 84 131 84q43 0 74.5 -18t68.5 -62q5 -5 15 -17t14 -16.5t12 -13t12.5 -12t11 -8t12 -6t11.5 -1.5q34 0 56 39l57 105l86 -47l-61 -115q-46 -84 -132 -84q-43 0 -74.5 18t-68.5 62q-5 5 -15 17t-14 16.5t-12 13t-12.5 12t-11 8t-12 6t-11.5 1.5
q-33 0 -55 -39zM180 0v995h123v-995h-123z" />
    <glyph glyph-name="Imacron" unicode="&#x12a;" horiz-adv-x="483" 
d="M-66 1585v107h615v-107h-615zM176 0v1434h131v-1434h-131z" />
    <glyph glyph-name="imacron" unicode="&#x12b;" horiz-adv-x="483" 
d="M-66 1184v106h615v-106h-615zM180 0v995h123v-995h-123z" />
    <glyph glyph-name="Ibreve" unicode="&#x12c;" horiz-adv-x="483" 
d="M242 1540q-137 0 -215 69.5t-78 182.5v6h114v-6q0 -71 46 -112.5t133 -41.5q88 0 134 41.5t46 112.5v6h115v-6q0 -112 -79 -182t-216 -70zM176 0v1434h131v-1434h-131z" />
    <glyph glyph-name="ibreve" unicode="&#x12d;" horiz-adv-x="483" 
d="M242 1135q-129 0 -207 69t-78 193v12h115v-12q0 -74 44 -119t126 -45q81 0 124.5 45t43.5 119v12h114v-12q0 -124 -77.5 -193t-204.5 -69zM180 0v995h123v-995h-123z" />
    <glyph glyph-name="Iogonek" unicode="&#x12e;" horiz-adv-x="483" 
d="M176 0v1434h131v-1434h-12l-25 -133q-8 -50 -8 -53q0 -39 45 -39h84v-107h-98q-67 0 -103 33.5t-36 97.5q0 42 18 119l18 82h-14z" />
    <glyph glyph-name="iogonek" unicode="&#x12f;" horiz-adv-x="483" 
d="M242 1167q-46 0 -76.5 30.5t-30.5 76.5t30.5 76t76.5 30t76 -30t30 -76t-30 -76.5t-76 -30.5zM180 0v995h123v-995h-8l-25 -133q-8 -50 -8 -53q0 -39 45 -39h84v-107h-98q-67 0 -103 33.5t-36 97.5q0 42 18 119l18 82h-10z" />
    <glyph glyph-name="Idotaccent" unicode="&#x130;" horiz-adv-x="483" 
d="M242 1561q-46 0 -76.5 30t-30.5 76t30.5 76.5t76.5 30.5t76 -30.5t30 -76.5t-30 -76t-76 -30zM176 0v1434h131v-1434h-131z" />
    <glyph glyph-name="dotlessi" unicode="&#x131;" horiz-adv-x="483" 
d="M180 0v995h123v-995h-123z" />
    <glyph glyph-name="IJ" unicode="&#x132;" horiz-adv-x="1458" 
d="M274 733v582h-180v119h492v-119h-180v-582h-132zM739 -31q-218 0 -341.5 122t-123.5 349v27h132v-27q0 -162 85 -257t250 -95q312 0 312 352v873h-181v119h492v-119h-180v-873q0 -232 -112 -351.5t-333 -119.5z" />
    <glyph glyph-name="ij" unicode="&#x133;" horiz-adv-x="970" 
d="M242 1167q-46 0 -76.5 30.5t-30.5 76.5t30.5 76t76.5 30t76 -30t30 -76t-30 -76.5t-76 -30.5zM729 1167q-46 0 -76 30.5t-30 76.5t30 76t76 30t76.5 -30t30.5 -76t-30.5 -76.5t-76.5 -30.5zM180 0v995h123v-995h-123zM463 -410v111h143q33 0 47.5 15t14.5 46v1233h123
v-1249q0 -74 -40.5 -115t-119.5 -41h-168z" />
    <glyph glyph-name="Jcircumflex" unicode="&#x134;" horiz-adv-x="1204" 
d="M500 1552l270 242h143l271 -242h-166l-164 156h-25l-163 -156h-166zM535 -29q-208 0 -326.5 119t-118.5 340v100h131v-100q0 -156 80.5 -248t235.5 -92q290 0 290 340v885h-254v119h537v-119h-152v-885q0 -226 -106 -342.5t-317 -116.5z" />
    <glyph glyph-name="jcircumflex" unicode="&#x135;" horiz-adv-x="487" 
d="M-90 1139l258 270h156l258 -270h-152l-172 180h-25l-172 -180h-151zM-20 -410v111h143q33 0 47 14.5t14 46.5v1233h123v-1249q0 -74 -40.5 -115t-119.5 -41h-167z" />
    <glyph glyph-name="uni0136" unicode="&#x136;" horiz-adv-x="1236" 
d="M176 0v1434h131v-648h25l663 648h185l-742 -709l766 -725h-186l-686 659h-25v-659h-131zM553 -512v78h43q34 0 48.5 14t14.5 47v37h-20q-43 0 -72.5 28t-29.5 72q0 43 29 72t73 29t73 -31t29 -82v-127q0 -137 -137 -137h-51z" />
    <glyph glyph-name="uni0137" unicode="&#x137;" horiz-adv-x="1079" 
d="M180 0v1434h123v-865h25l510 426h180l-590 -485l606 -510h-178l-528 449h-25v-449h-123zM483 -512v78h43q34 0 49 14t15 47v37h-21q-43 0 -72.5 28t-29.5 72q0 43 29 72t73 29t73.5 -31t29.5 -82v-127q0 -137 -137 -137h-52z" />
    <glyph glyph-name="kgreenlandic" unicode="&#x138;" horiz-adv-x="1079" 
d="M180 0v995h123v-426h25l510 426h180l-590 -485l606 -510h-178l-528 449h-25v-449h-123z" />
    <glyph glyph-name="Lacute" unicode="&#x139;" horiz-adv-x="1120" 
d="M143 1552l136 242h159l-168 -242h-127zM176 0v1434h131v-1315h754v-119h-885z" />
    <glyph glyph-name="lacute" unicode="&#x13a;" horiz-adv-x="483" 
d="M145 1552l136 242h159l-168 -242h-127zM180 0v1434h123v-1434h-123z" />
    <glyph glyph-name="uni013B" unicode="&#x13b;" horiz-adv-x="1120" 
d="M176 0v1434h131v-1315h754v-119h-885zM532 -512v78h43q34 0 49 14t15 47v37h-21q-43 0 -72.5 28t-29.5 72q0 43 29 72t73 29t73.5 -31t29.5 -82v-127q0 -137 -137 -137h-52z" />
    <glyph glyph-name="uni013C" unicode="&#x13c;" horiz-adv-x="483" 
d="M180 0v1434h123v-1434h-123zM156 -512v78h43q34 0 48.5 14t14.5 47v37h-20q-43 0 -73 28t-30 72q0 43 29.5 72t73.5 29t73 -31t29 -82v-127q0 -137 -137 -137h-51z" />
    <glyph glyph-name="Lcaron" unicode="&#x13d;" horiz-adv-x="1120" 
d="M176 0v1434h131v-1315h754v-119h-885zM471 1065l18 369h134l-54 -369h-98z" />
    <glyph glyph-name="lcaron" unicode="&#x13e;" horiz-adv-x="602" 
d="M180 0v1434h123v-1434h-123zM467 1065l18 369h133l-53 -369h-98z" />
    <glyph glyph-name="Ldot" unicode="&#x13f;" horiz-adv-x="1120" 
d="M176 0v1434h131v-1315h754v-119h-885zM801 618q-46 0 -76.5 30.5t-30.5 76.5t30.5 76t76.5 30t76 -30t30 -76t-30 -76.5t-76 -30.5z" />
    <glyph glyph-name="ldot" unicode="&#x140;" horiz-adv-x="819" 
d="M180 0v1434h123v-1434h-123zM651 483q-46 0 -76 30.5t-30 76.5t30 76t76 30t76.5 -30t30.5 -76t-30.5 -76.5t-76.5 -30.5z" />
    <glyph glyph-name="Lslash" unicode="&#x141;" horiz-adv-x="1218" 
d="M274 0v608l-184 -100l-49 90l233 125v711h132v-639l186 100l47 -90l-233 -127v-559h753v-119h-885z" />
    <glyph glyph-name="lslash" unicode="&#x142;" horiz-adv-x="712" 
d="M295 0v520l-193 -102l-45 84l238 127v805h123v-738l192 103l45 -84l-237 -127v-588h-123z" />
    <glyph glyph-name="Nacute" unicode="&#x143;" horiz-adv-x="1353" 
d="M590 1552l135 242h160l-168 -242h-127zM176 0v1434h260l586 -1356h25v1356h131v-1434h-260l-586 1358h-25v-1358h-131z" />
    <glyph glyph-name="nacute" unicode="&#x144;" horiz-adv-x="1253" 
d="M547 1139l160 270h155l-188 -270h-127zM180 0v995h119v-184h25q95 205 364 205q82 0 153 -26t126 -75.5t86.5 -129t31.5 -179.5v-606h-122v598q0 157 -79.5 232t-221.5 75q-160 0 -259.5 -105t-99.5 -302v-498h-123z" />
    <glyph glyph-name="uni0145" unicode="&#x145;" horiz-adv-x="1353" 
d="M176 0v1434h260l586 -1356h25v1356h131v-1434h-260l-586 1358h-25v-1358h-131zM598 -512v78h43q34 0 49 14t15 47v37h-21q-43 0 -72.5 28t-29.5 72q0 43 29 72t73 29t73 -31t29 -82v-127q0 -137 -137 -137h-51z" />
    <glyph glyph-name="uni0146" unicode="&#x146;" horiz-adv-x="1253" 
d="M180 0v995h119v-184h25q95 205 364 205q82 0 153 -26t126 -75.5t86.5 -129t31.5 -179.5v-606h-122v598q0 157 -79.5 232t-221.5 75q-160 0 -259.5 -105t-99.5 -302v-498h-123zM547 -512v78h43q34 0 48.5 14t14.5 47v37h-20q-43 0 -73 28t-30 72q0 43 29.5 72t73.5 29
t73 -31t29 -82v-127q0 -137 -137 -137h-51z" />
    <glyph glyph-name="Ncaron" unicode="&#x147;" horiz-adv-x="1353" 
d="M614 1552l-270 242h166l164 -156h24l164 156h166l-270 -242h-144zM176 0v1434h260l586 -1356h25v1356h131v-1434h-260l-586 1358h-25v-1358h-131z" />
    <glyph glyph-name="ncaron" unicode="&#x148;" horiz-adv-x="1253" 
d="M557 1139l-258 270h152l172 -180h24l172 180h152l-258 -270h-156zM180 0v995h119v-184h25q95 205 364 205q82 0 153 -26t126 -75.5t86.5 -129t31.5 -179.5v-606h-122v598q0 157 -79.5 232t-221.5 75q-160 0 -259.5 -105t-99.5 -302v-498h-123z" />
    <glyph glyph-name="napostrophe" unicode="&#x149;" horiz-adv-x="1253" 
d="M180 1143v78h43q34 0 49 14t15 47v39h-21q-43 0 -72.5 28t-29.5 72q0 43 29 72t73 29t73.5 -31t29.5 -82v-129q0 -137 -138 -137h-51zM180 0v995h119v-184h25q95 205 364 205q82 0 153 -26t126 -75.5t86.5 -129t31.5 -179.5v-606h-122v598q0 157 -79.5 232t-221.5 75
q-160 0 -259.5 -105t-99.5 -302v-498h-123z" />
    <glyph glyph-name="Eng" unicode="&#x14a;" horiz-adv-x="1353" 
d="M176 0v1434h260l586 -1356h25v1356h131v-1692q0 -76 -41 -114t-115 -38h-252v111h221q60 0 60 61v238h-133l-586 1358h-25v-1358h-131z" />
    <glyph glyph-name="eng" unicode="&#x14b;" horiz-adv-x="1253" 
d="M180 0v995h119v-184h25q95 205 364 205q82 0 153 -26t126 -75.5t86.5 -129t31.5 -179.5v-868q0 -70 -37.5 -109t-105.5 -39h-266v111h229q58 0 58 61v836q0 157 -79.5 232t-221.5 75q-160 0 -259.5 -105t-99.5 -302v-498h-123z" />
    <glyph glyph-name="Omacron" unicode="&#x14c;" horiz-adv-x="1363" 
d="M375 1585v107h614v-107h-614zM682 -29q-257 0 -404 151t-147 433v324q0 282 147 432.5t404 150.5t404 -150.5t147 -432.5v-324q0 -282 -147 -433t-404 -151zM682 90q200 0 310 120.5t110 340.5v332q0 219 -110 339.5t-310 120.5t-310 -120.5t-110 -339.5v-332
q0 -220 110 -340.5t310 -120.5z" />
    <glyph glyph-name="omacron" unicode="&#x14d;" 
d="M328 1184v106h614v-106h-614zM635 -29q-227 0 -365.5 141.5t-138.5 372.5v25q0 231 138.5 372.5t365.5 141.5t365.5 -141.5t138.5 -372.5v-25q0 -231 -138.5 -372.5t-365.5 -141.5zM635 82q174 0 277.5 111t103.5 296v17q0 185 -103.5 296t-277.5 111t-277.5 -111
t-103.5 -296v-17q0 -185 103.5 -296t277.5 -111z" />
    <glyph glyph-name="Obreve" unicode="&#x14e;" horiz-adv-x="1363" 
d="M682 1540q-137 0 -215 69.5t-78 182.5v6h115v-6q0 -71 45.5 -112.5t132.5 -41.5q88 0 134 41.5t46 112.5v6h115v-6q0 -112 -79 -182t-216 -70zM682 -29q-257 0 -404 151t-147 433v324q0 282 147 432.5t404 150.5t404 -150.5t147 -432.5v-324q0 -282 -147 -433t-404 -151z
M682 90q200 0 310 120.5t110 340.5v332q0 219 -110 339.5t-310 120.5t-310 -120.5t-110 -339.5v-332q0 -220 110 -340.5t310 -120.5z" />
    <glyph glyph-name="obreve" unicode="&#x14f;" 
d="M635 1135q-129 0 -207 69t-78 193v12h115v-12q0 -74 44 -119t126 -45q81 0 124.5 45t43.5 119v12h115v-12q0 -123 -78 -192.5t-205 -69.5zM635 -29q-227 0 -365.5 141.5t-138.5 372.5v25q0 231 138.5 372.5t365.5 141.5t365.5 -141.5t138.5 -372.5v-25
q0 -231 -138.5 -372.5t-365.5 -141.5zM635 82q174 0 277.5 111t103.5 296v17q0 185 -103.5 296t-277.5 111t-277.5 -111t-103.5 -296v-17q0 -185 103.5 -296t277.5 -111z" />
    <glyph glyph-name="Ohungarumlaut" unicode="&#x150;" horiz-adv-x="1363" 
d="M713 1561l145 241h164l-188 -241h-121zM440 1561l119 241h146l-154 -241h-111zM682 -29q-257 0 -404 151t-147 433v324q0 282 147 432.5t404 150.5t404 -150.5t147 -432.5v-324q0 -282 -147 -433t-404 -151zM682 90q200 0 310 120.5t110 340.5v332q0 219 -110 339.5
t-310 120.5t-310 -120.5t-110 -339.5v-332q0 -220 110 -340.5t310 -120.5z" />
    <glyph glyph-name="ohungarumlaut" unicode="&#x151;" 
d="M682 1139l147 270h146l-172 -270h-121zM395 1139l127 270h142l-150 -270h-119zM635 -29q-227 0 -365.5 141.5t-138.5 372.5v25q0 231 138.5 372.5t365.5 141.5t365.5 -141.5t138.5 -372.5v-25q0 -231 -138.5 -372.5t-365.5 -141.5zM635 82q174 0 277.5 111t103.5 296v17
q0 185 -103.5 296t-277.5 111t-277.5 -111t-103.5 -296v-17q0 -185 103.5 -296t277.5 -111z" />
    <glyph glyph-name="OE" unicode="&#x152;" horiz-adv-x="1718" 
d="M262 631q0 -248 139 -382t414 -134v1204q-274 0 -413.5 -135t-139.5 -381v-172zM815 0q-327 0 -505.5 165t-178.5 480v143q0 315 178.5 480.5t505.5 165.5h784v-119h-653v-537h596v-119h-596v-540h662v-119h-793z" />
    <glyph glyph-name="oe" unicode="&#x153;" horiz-adv-x="2123" 
d="M633 -29q-227 0 -364.5 141.5t-137.5 370.5v27q0 231 137.5 372.5t364.5 141.5q155 0 268 -74t168 -207h25q59 131 173.5 206t260.5 75q210 0 341.5 -131.5t131.5 -355.5v-64h-846q7 -181 112.5 -286t272.5 -105q130 0 208 58t124 161l113 -47q-22 -45 -46 -81.5
t-62.5 -76t-83.5 -65.5t-110 -43t-141 -17q-157 0 -274 75.5t-174 205.5h-25q-54 -134 -167 -207.5t-269 -73.5zM635 82q172 0 276.5 111.5t104.5 295.5v17q0 183 -104 294t-277 111q-174 0 -278.5 -111t-104.5 -294v-17q0 -184 105 -295.5t278 -111.5zM1157 578h717
q-6 158 -100 245.5t-248 87.5q-151 0 -251.5 -90t-117.5 -243z" />
    <glyph glyph-name="Racute" unicode="&#x154;" horiz-adv-x="1292" 
d="M539 1552l135 242h160l-168 -242h-127zM176 0v1434h561q202 0 327.5 -101.5t125.5 -279.5v-21q0 -138 -66 -223.5t-168 -114.5v-24q76 -3 123 -48.5t47 -134.5v-487h-131v473q0 135 -143 135h-545v-608h-131zM307 727h418q160 0 247 75t87 214v10q0 140 -86 214.5
t-248 74.5h-418v-588z" />
    <glyph glyph-name="racute" unicode="&#x155;" horiz-adv-x="755" 
d="M344 1139l160 270h155l-188 -270h-127zM180 0v995h119v-125h25q28 68 85 98.5t156 30.5h117v-114h-131q-117 0 -182.5 -65.5t-65.5 -196.5v-623h-123z" />
    <glyph glyph-name="uni0156" unicode="&#x156;" horiz-adv-x="1292" 
d="M176 0v1434h561q202 0 327.5 -101.5t125.5 -279.5v-21q0 -138 -66 -223.5t-168 -114.5v-24q76 -3 123 -48.5t47 -134.5v-487h-131v473q0 135 -143 135h-545v-608h-131zM307 727h418q160 0 247 75t87 214v10q0 140 -86 214.5t-248 74.5h-418v-588zM567 -512v78h43
q34 0 49 14t15 47v37h-21q-43 0 -72.5 28t-29.5 72q0 43 29 72t73 29t73.5 -31t29.5 -82v-127q0 -137 -138 -137h-51z" />
    <glyph glyph-name="uni0157" unicode="&#x157;" horiz-adv-x="755" 
d="M180 0v995h119v-125h25q28 68 85 98.5t156 30.5h117v-114h-131q-117 0 -182.5 -65.5t-65.5 -196.5v-623h-123zM156 -512v78h43q34 0 48.5 14t14.5 47v37h-20q-43 0 -73 28t-30 72q0 43 29.5 72t73.5 29t73 -31t29 -82v-127q0 -137 -137 -137h-51z" />
    <glyph glyph-name="Rcaron" unicode="&#x158;" horiz-adv-x="1292" 
d="M563 1552l-270 242h166l164 -156h24l164 156h166l-270 -242h-144zM176 0v1434h561q202 0 327.5 -101.5t125.5 -279.5v-21q0 -138 -66 -223.5t-168 -114.5v-24q76 -3 123 -48.5t47 -134.5v-487h-131v473q0 135 -143 135h-545v-608h-131zM307 727h418q160 0 247 75t87 214
v10q0 140 -86 214.5t-248 74.5h-418v-588z" />
    <glyph glyph-name="rcaron" unicode="&#x159;" horiz-adv-x="755" 
d="M354 1139l-258 270h152l172 -180h24l172 180h152l-258 -270h-156zM180 0v995h119v-125h25q28 68 85 98.5t156 30.5h117v-114h-131q-117 0 -182.5 -65.5t-65.5 -196.5v-623h-123z" />
    <glyph glyph-name="Sacute" unicode="&#x15a;" horiz-adv-x="1261" 
d="M532 1552l136 242h159l-168 -242h-127zM645 -29q-116 0 -212.5 31t-169 91.5t-112.5 158t-40 223.5v39h131v-39q0 -193 109 -291t294 -98q175 0 273 81.5t98 213.5q0 50 -16.5 90t-43 68t-71 51t-90.5 38t-111 31l-131 33q-95 24 -164.5 53.5t-127 75t-87 110.5
t-29.5 150q0 173 131.5 277t344.5 104q143 0 254.5 -47.5t179 -147t67.5 -237.5v-96h-131v96q0 160 -102 239t-268 79q-155 0 -250 -70.5t-95 -196.5q0 -51 15.5 -90t40.5 -66.5t68.5 -49.5t88.5 -37t111 -31l131 -33q74 -18 130 -38t112 -52t92.5 -72.5t59 -99t22.5 -131.5
q0 -187 -137 -298.5t-365 -111.5z" />
    <glyph glyph-name="sacute" unicode="&#x15b;" horiz-adv-x="1081" 
d="M446 1139l160 270h156l-189 -270h-127zM575 -29q-191 0 -314 90.5t-150 280.5l120 23q22 -152 115 -219.5t229 -67.5q125 0 199 50t74 138q0 43 -17.5 74t-54.5 51t-79 32t-107 23l-94 17q-334 58 -334 285q0 128 100 202t270 74q169 0 272.5 -76.5t131.5 -222.5
l-115 -25q-37 218 -289 218q-116 0 -181.5 -44t-65.5 -126q0 -78 57 -117.5t172 -59.5l94 -16q83 -14 143.5 -34t113 -52.5t79.5 -83.5t27 -119q0 -140 -106.5 -217.5t-289.5 -77.5z" />
    <glyph glyph-name="Scircumflex" unicode="&#x15c;" horiz-adv-x="1261" 
d="M287 1552l270 242h143l271 -242h-166l-164 156h-25l-163 -156h-166zM645 -29q-116 0 -212.5 31t-169 91.5t-112.5 158t-40 223.5v39h131v-39q0 -193 109 -291t294 -98q175 0 273 81.5t98 213.5q0 50 -16.5 90t-43 68t-71 51t-90.5 38t-111 31l-131 33q-95 24 -164.5 53.5
t-127 75t-87 110.5t-29.5 150q0 173 131.5 277t344.5 104q143 0 254.5 -47.5t179 -147t67.5 -237.5v-96h-131v96q0 160 -102 239t-268 79q-155 0 -250 -70.5t-95 -196.5q0 -51 15.5 -90t40.5 -66.5t68.5 -49.5t88.5 -37t111 -31l131 -33q74 -18 130 -38t112 -52t92.5 -72.5
t59 -99t22.5 -131.5q0 -187 -137 -298.5t-365 -111.5z" />
    <glyph glyph-name="scircumflex" unicode="&#x15d;" horiz-adv-x="1081" 
d="M199 1139l258 270h155l258 -270h-151l-172 180h-25l-172 -180h-151zM575 -29q-191 0 -314 90.5t-150 280.5l120 23q22 -152 115 -219.5t229 -67.5q125 0 199 50t74 138q0 43 -17.5 74t-54.5 51t-79 32t-107 23l-94 17q-334 58 -334 285q0 128 100 202t270 74
q169 0 272.5 -76.5t131.5 -222.5l-115 -25q-37 218 -289 218q-116 0 -181.5 -44t-65.5 -126q0 -78 57 -117.5t172 -59.5l94 -16q83 -14 143.5 -34t113 -52.5t79.5 -83.5t27 -119q0 -140 -106.5 -217.5t-289.5 -77.5z" />
    <glyph glyph-name="Scedilla" unicode="&#x15e;" horiz-adv-x="1261" 
d="M664 -414q-117 0 -207 70l53 82q74 -57 154 -57q45 0 73.5 18.5t28.5 54.5q0 35 -27.5 53.5t-74.5 18.5h-74l14 145q-224 11 -358.5 138.5t-134.5 365.5v39h131v-39q0 -193 109 -291t294 -98q175 0 273 81.5t98 213.5q0 50 -16.5 90t-43 68t-71 51t-90.5 38t-111 31
l-131 33q-95 24 -164.5 53.5t-127 75t-87 110.5t-29.5 150q0 173 131.5 277t344.5 104q143 0 254.5 -47.5t179 -147t67.5 -237.5v-96h-131v96q0 160 -102 239t-268 79q-155 0 -250 -70.5t-95 -196.5q0 -51 15.5 -90t40.5 -66.5t68.5 -49.5t88.5 -37t111 -31l131 -33
q74 -18 130 -38t112 -52t92.5 -72.5t59 -99t22.5 -131.5q0 -174 -121 -284t-326 -124l-6 -71q81 0 127.5 -41t46.5 -115q0 -76 -57.5 -118t-146.5 -42z" />
    <glyph glyph-name="scedilla" unicode="&#x15f;" horiz-adv-x="1081" 
d="M569 -414q-117 0 -207 70l54 82q74 -57 153 -57q46 0 74.5 18.5t28.5 54.5q0 34 -28 53t-75 19h-73l14 147q-165 14 -270 105t-129 264l120 23q22 -152 115 -219.5t229 -67.5q125 0 199 50t74 138q0 43 -17.5 74t-54.5 51t-79 32t-107 23l-94 17q-334 58 -334 285
q0 128 100 202t270 74q169 0 272.5 -76.5t131.5 -222.5l-115 -25q-37 218 -289 218q-116 0 -181.5 -44t-65.5 -126q0 -78 57 -117.5t172 -59.5l94 -16q83 -14 143.5 -34t113 -52.5t79.5 -83.5t27 -119q0 -134 -97 -210.5t-268 -84.5l-6 -69q81 0 127.5 -41t46.5 -115
q0 -76 -58 -118t-147 -42z" />
    <glyph glyph-name="Scaron" unicode="&#x160;" horiz-adv-x="1261" 
d="M557 1552l-270 242h166l163 -156h25l164 156h166l-271 -242h-143zM645 -29q-116 0 -212.5 31t-169 91.5t-112.5 158t-40 223.5v39h131v-39q0 -193 109 -291t294 -98q175 0 273 81.5t98 213.5q0 50 -16.5 90t-43 68t-71 51t-90.5 38t-111 31l-131 33q-95 24 -164.5 53.5
t-127 75t-87 110.5t-29.5 150q0 173 131.5 277t344.5 104q143 0 254.5 -47.5t179 -147t67.5 -237.5v-96h-131v96q0 160 -102 239t-268 79q-155 0 -250 -70.5t-95 -196.5q0 -51 15.5 -90t40.5 -66.5t68.5 -49.5t88.5 -37t111 -31l131 -33q74 -18 130 -38t112 -52t92.5 -72.5
t59 -99t22.5 -131.5q0 -187 -137 -298.5t-365 -111.5z" />
    <glyph glyph-name="scaron" unicode="&#x161;" horiz-adv-x="1081" 
d="M457 1139l-258 270h151l172 -180h25l172 180h151l-258 -270h-155zM575 -29q-191 0 -314 90.5t-150 280.5l120 23q22 -152 115 -219.5t229 -67.5q125 0 199 50t74 138q0 43 -17.5 74t-54.5 51t-79 32t-107 23l-94 17q-334 58 -334 285q0 128 100 202t270 74
q169 0 272.5 -76.5t131.5 -222.5l-115 -25q-37 218 -289 218q-116 0 -181.5 -44t-65.5 -126q0 -78 57 -117.5t172 -59.5l94 -16q83 -14 143.5 -34t113 -52.5t79.5 -83.5t27 -119q0 -140 -106.5 -217.5t-289.5 -77.5z" />
    <glyph glyph-name="uni0162" unicode="&#x162;" horiz-adv-x="1204" 
d="M537 0v1315h-480v119h1090v-119h-479v-1315h-15l-10 -98q81 0 127.5 -41t46.5 -115q0 -76 -58 -118t-147 -42q-116 0 -206 70l53 82q74 -57 153 -57q46 0 74.5 18.5t28.5 54.5q0 34 -28 53t-75 19h-73l18 174h-20z" />
    <glyph glyph-name="uni0163" unicode="&#x163;" horiz-adv-x="946" 
d="M543 -414q-117 0 -207 70l53 82q74 -57 154 -57q45 0 73.5 18.5t28.5 54.5q0 35 -27.5 53.5t-74.5 18.5h-74l18 180q-106 24 -106 150v729h-320v110h320v373h123v-373h348v-110h-348v-713q0 -32 14 -46.5t47 -14.5h234v-111h-215l-11 -98q81 0 128 -41t47 -115
q0 -76 -58 -118t-147 -42z" />
    <glyph glyph-name="Tcaron" unicode="&#x164;" horiz-adv-x="1204" 
d="M530 1552l-270 242h166l164 -156h24l164 156h166l-270 -242h-144zM537 0v1315h-480v119h1090v-119h-479v-1315h-131z" />
    <glyph glyph-name="tcaron" unicode="&#x165;" horiz-adv-x="946" 
d="M696 1192l19 369h133l-53 -369h-99zM541 0q-79 0 -119.5 41t-40.5 115v729h-320v110h320v373h123v-373h348v-110h-348v-713q0 -32 14 -46.5t47 -14.5h234v-111h-258z" />
    <glyph glyph-name="Tbar" unicode="&#x166;" horiz-adv-x="1204" 
d="M537 0v655h-230v103h230v557h-480v119h1090v-119h-479v-557h229v-103h-229v-655h-131z" />
    <glyph glyph-name="tbar" unicode="&#x167;" horiz-adv-x="946" 
d="M61 459v98h320v328h-320v110h320v373h123v-373h348v-110h-348v-328h348v-98h-348v-287q0 -61 59 -61h236v-111h-262q-72 0 -114 40t-42 112v307h-320z" />
    <glyph glyph-name="Utilde" unicode="&#x168;" horiz-adv-x="1359" 
d="M434 1563l-82 49l66 108q52 86 137 86q45 0 81 -22t81 -70q31 -34 48 -46.5t38 -12.5q36 0 61 43l62 98l82 -49l-66 -109q-52 -86 -137 -86q-44 0 -80.5 22.5t-81.5 70.5q-31 34 -48 46.5t-38 12.5q-36 0 -63 -45zM680 -29q-238 0 -377 126.5t-139 371.5v965h131v-965
q0 -189 99.5 -284t285.5 -95t285.5 95t99.5 284v965h131v-965q0 -245 -139 -371.5t-377 -126.5z" />
    <glyph glyph-name="utilde" unicode="&#x169;" horiz-adv-x="1251" 
d="M393 1120l-86 47l62 115q46 84 131 84q43 0 74.5 -18t68.5 -62q5 -5 15 -17t14 -16.5t12 -13t12.5 -12t11 -8t12 -6t11.5 -1.5q33 0 55 39l58 105l86 -47l-62 -115q-46 -84 -131 -84q-43 0 -74.5 18t-68.5 62q-5 5 -15 17t-14 16.5t-12 13t-12.5 12t-11 8t-12 6
t-11.5 1.5q-33 0 -55 -39zM563 -20q-110 0 -198.5 44t-143.5 138.5t-55 226.5v606h123v-598q0 -157 79.5 -232t221.5 -75q160 0 259 105.5t99 302.5v497h123v-995h-119v184h-24q-94 -204 -365 -204z" />
    <glyph glyph-name="Umacron" unicode="&#x16a;" horiz-adv-x="1359" 
d="M373 1585v107h614v-107h-614zM680 -29q-238 0 -377 126.5t-139 371.5v965h131v-965q0 -189 99.5 -284t285.5 -95t285.5 95t99.5 284v965h131v-965q0 -245 -139 -371.5t-377 -126.5z" />
    <glyph glyph-name="umacron" unicode="&#x16b;" horiz-adv-x="1251" 
d="M311 1184v106h615v-106h-615zM563 -20q-110 0 -198.5 44t-143.5 138.5t-55 226.5v606h123v-598q0 -157 79.5 -232t221.5 -75q160 0 259 105.5t99 302.5v497h123v-995h-119v184h-24q-94 -204 -365 -204z" />
    <glyph glyph-name="Ubreve" unicode="&#x16c;" horiz-adv-x="1359" 
d="M680 1540q-137 0 -215 69.5t-78 182.5v6h115v-6q0 -71 45.5 -112.5t132.5 -41.5q88 0 134 41.5t46 112.5v6h115v-6q0 -112 -79 -182t-216 -70zM680 -29q-238 0 -377 126.5t-139 371.5v965h131v-965q0 -189 99.5 -284t285.5 -95t285.5 95t99.5 284v965h131v-965
q0 -245 -139 -371.5t-377 -126.5z" />
    <glyph glyph-name="ubreve" unicode="&#x16d;" horiz-adv-x="1251" 
d="M618 1135q-129 0 -206.5 69t-77.5 193v12h115v-12q0 -75 43.5 -119.5t125.5 -44.5q81 0 124.5 45t43.5 119v12h115v-12q0 -123 -78 -192.5t-205 -69.5zM563 -20q-110 0 -198.5 44t-143.5 138.5t-55 226.5v606h123v-598q0 -157 79.5 -232t221.5 -75q160 0 259 105.5
t99 302.5v497h123v-995h-119v184h-24q-94 -204 -365 -204z" />
    <glyph glyph-name="Uring" unicode="&#x16e;" horiz-adv-x="1359" 
d="M680 1532q-84 0 -140.5 53.5t-56.5 138.5t56.5 139t140.5 54q86 0 142.5 -54t56.5 -139t-56.5 -138.5t-142.5 -53.5zM680 1626q45 0 72.5 27.5t27.5 70.5t-27.5 71t-72.5 28q-44 0 -71 -28t-27 -71t27 -70.5t71 -27.5zM680 -29q-238 0 -377 126.5t-139 371.5v965h131
v-965q0 -189 99.5 -284t285.5 -95t285.5 95t99.5 284v965h131v-965q0 -245 -139 -371.5t-377 -126.5z" />
    <glyph glyph-name="uring" unicode="&#x16f;" horiz-adv-x="1251" 
d="M618 1114q-84 0 -140 54t-56 139t56 138.5t140 53.5q86 0 142.5 -53.5t56.5 -138.5t-56.5 -139t-142.5 -54zM618 1208q45 0 73 28t28 71t-28 70.5t-73 27.5q-44 0 -71 -27.5t-27 -70.5t27 -71t71 -28zM563 -20q-110 0 -198.5 44t-143.5 138.5t-55 226.5v606h123v-598
q0 -157 79.5 -232t221.5 -75q160 0 259 105.5t99 302.5v497h123v-995h-119v184h-24q-94 -204 -365 -204z" />
    <glyph glyph-name="Uhungarumlaut" unicode="&#x170;" horiz-adv-x="1359" 
d="M711 1561l145 241h164l-189 -241h-120zM438 1561l119 241h145l-153 -241h-111zM680 -29q-238 0 -377 126.5t-139 371.5v965h131v-965q0 -189 99.5 -284t285.5 -95t285.5 95t99.5 284v965h131v-965q0 -245 -139 -371.5t-377 -126.5z" />
    <glyph glyph-name="uhungarumlaut" unicode="&#x171;" horiz-adv-x="1251" 
d="M666 1139l147 270h145l-172 -270h-120zM379 1139l127 270h141l-149 -270h-119zM563 -20q-110 0 -198.5 44t-143.5 138.5t-55 226.5v606h123v-598q0 -157 79.5 -232t221.5 -75q160 0 259 105.5t99 302.5v497h123v-995h-119v184h-24q-94 -204 -365 -204z" />
    <glyph glyph-name="Uogonek" unicode="&#x172;" horiz-adv-x="1359" 
d="M680 -29q-238 0 -377 126.5t-139 371.5v965h131v-965q0 -189 99.5 -284t285.5 -95t285.5 95t99.5 284v965h131v-965q0 -190 -86.5 -310.5t-239.5 -162.5l-24 -129q-8 -50 -8 -53q0 -39 45 -39h84v-107h-99q-67 0 -103 33.5t-36 97.5q0 37 19 119l14 57q-54 -4 -82 -4z
" />
    <glyph glyph-name="uogonek" unicode="&#x173;" horiz-adv-x="1251" 
d="M563 -20q-110 0 -198.5 44t-143.5 138.5t-55 226.5v606h123v-598q0 -157 79.5 -232t221.5 -75q160 0 259 105.5t99 302.5v497h123v-995h-8l-25 -133q-8 -50 -8 -53q0 -39 45 -39h84v-107h-98q-67 0 -103 33.5t-36 97.5q0 42 18 119l18 82h-6v184h-24q-94 -204 -365 -204z
" />
    <glyph glyph-name="Wcircumflex" unicode="&#x174;" horiz-adv-x="1773" 
d="M545 1552l270 242h143l271 -242h-166l-164 156h-25l-163 -156h-166zM334 0l-252 1434h133l229 -1356h25l297 1356h242l297 -1356h24l230 1356h133l-252 -1434h-244l-297 1356h-25l-296 -1356h-244z" />
    <glyph glyph-name="wcircumflex" unicode="&#x175;" horiz-adv-x="1654" 
d="M492 1139l258 270h155l258 -270h-151l-172 180h-25l-172 -180h-151zM344 0l-225 995h127l196 -913h25l256 913h209l256 -913h24l197 913h127l-225 -995h-215l-256 913h-25l-256 -913h-215z" />
    <glyph glyph-name="Ycircumflex" unicode="&#x176;" horiz-adv-x="1236" 
d="M276 1552l271 242h143l271 -242h-166l-164 156h-25l-164 -156h-166zM553 0v567l-520 867h155l418 -717h25l418 717h155l-520 -867v-567h-131z" />
    <glyph glyph-name="ycircumflex" unicode="&#x177;" horiz-adv-x="1251" 
d="M285 1139l258 270h155l258 -270h-151l-172 180h-25l-172 -180h-151zM305 -410v111h582q33 0 47 14.5t14 46.5v410h-24q-98 -192 -361 -192q-171 0 -284 105.5t-113 301.5v608h123v-600q0 -157 79 -231t222 -74q160 0 259 104.5t99 301.5v499h123v-1249q0 -74 -40.5 -115
t-119.5 -41h-606z" />
    <glyph glyph-name="Ydieresis" unicode="&#x178;" horiz-adv-x="1236" 
d="M811 1561q-46 0 -75 29t-29 75t29 75t75 29t75 -29t29 -75t-29 -75t-75 -29zM426 1561q-46 0 -75 29t-29 75t29 75t75 29t75 -29t29 -75t-29 -75t-75 -29zM553 0v567l-520 867h155l418 -717h25l418 717h155l-520 -867v-567h-131z" />
    <glyph glyph-name="Zacute" unicode="&#x179;" horiz-adv-x="1183" 
d="M483 1552l135 242h160l-168 -242h-127zM106 0v180l836 1114v21h-811v119h934v-181l-836 -1114v-20h856v-119h-979z" />
    <glyph glyph-name="zacute" unicode="&#x17a;" horiz-adv-x="1069" 
d="M430 1139l160 270h155l-188 -270h-127zM131 0v168l670 696v21h-649v110h774v-168l-672 -696v-20h688v-111h-811z" />
    <glyph glyph-name="Zdotaccent" unicode="&#x17b;" horiz-adv-x="1183" 
d="M580 1561q-46 0 -76.5 30t-30.5 76t30.5 76.5t76.5 30.5t76 -30.5t30 -76.5t-30 -76t-76 -30zM106 0v180l836 1114v21h-811v119h934v-181l-836 -1114v-20h856v-119h-979z" />
    <glyph glyph-name="zdotaccent" unicode="&#x17c;" horiz-adv-x="1069" 
d="M518 1167q-46 0 -76 30.5t-30 76.5t30 76t76 30t76.5 -30t30.5 -76t-30.5 -76.5t-76.5 -30.5zM131 0v168l670 696v21h-649v110h774v-168l-672 -696v-20h688v-111h-811z" />
    <glyph glyph-name="Zcaron" unicode="&#x17d;" horiz-adv-x="1183" 
d="M508 1552l-270 242h165l164 -156h25l164 156h166l-271 -242h-143zM106 0v180l836 1114v21h-811v119h934v-181l-836 -1114v-20h856v-119h-979z" />
    <glyph glyph-name="zcaron" unicode="&#x17e;" horiz-adv-x="1069" 
d="M440 1139l-258 270h152l172 -180h24l172 180h152l-258 -270h-156zM131 0v168l670 696v21h-649v110h774v-168l-672 -696v-20h688v-111h-811z" />
    <glyph glyph-name="longs" unicode="&#x17f;" horiz-adv-x="684" 
d="M291 0v885h-230v110h230v283q0 74 40.5 115t119.5 41h237v-111h-213q-33 0 -47 -14.5t-14 -46.5v-1262h-123z" />
    <glyph glyph-name="uni0180" unicode="&#x180;" horiz-adv-x="1323" 
d="M713 -29q-279 0 -389 211h-25v-182h-119v1159h-164v90h164v185h123v-185h371v-90h-371v-338h25q46 87 140 145t245 58q206 0 342.5 -141.5t136.5 -372.5v-25q0 -232 -137 -373t-342 -141zM684 82q171 0 276 109.5t105 297.5v17q0 188 -105 297.5t-276 109.5t-276 -109.5
t-105 -297.5v-17q0 -188 105 -297.5t276 -109.5z" />
    <glyph glyph-name="uni018F" unicode="&#x18f;" horiz-adv-x="1327" 
d="M664 -29q-256 0 -394.5 140t-138.5 403v207h934v203q0 419 -401 419q-402 0 -402 -419v-15h-131v11q0 263 138.5 402.5t394.5 139.5t394 -139.5t138 -402.5v-406q0 -263 -138 -403t-394 -140zM664 90q401 0 401 420v92h-803v-92q0 -420 402 -420z" />
    <glyph glyph-name="florin" unicode="&#x192;" 
d="M223 0v111h287q55 0 55 61v600h-272v107h272v413q0 63 38 102.5t99 39.5h332v-111h-291q-55 0 -55 -61v-383h287v-107h-287v-631q0 -63 -38 -102t-101 -39h-326z" />
    <glyph glyph-name="Ohorn" unicode="&#x1a0;" horiz-adv-x="1363" 
d="M682 -29q-257 0 -404 151t-147 433v324q0 282 147 432.5t404 150.5q224 0 365 -114q65 9 94.5 49.5t29.5 130.5v69h115v-73q0 -119 -39.5 -179.5t-122.5 -78.5q109 -149 109 -387v-324q0 -282 -147 -433t-404 -151zM682 90q200 0 310 120.5t110 340.5v332
q0 219 -110 339.5t-310 120.5t-310 -120.5t-110 -339.5v-332q0 -220 110 -340.5t310 -120.5z" />
    <glyph glyph-name="ohorn" unicode="&#x1a1;" horiz-adv-x="1290" 
d="M635 -29q-227 0 -365.5 141.5t-138.5 372.5v25q0 231 138.5 372.5t365.5 141.5q205 0 336 -115q70 6 102.5 47t32.5 134v69h115v-74q0 -123 -42 -184.5t-130 -75.5q90 -133 90 -315v-25q0 -231 -138.5 -372.5t-365.5 -141.5zM635 82q174 0 277.5 111t103.5 296v17
q0 185 -103.5 296t-277.5 111t-277.5 -111t-103.5 -296v-17q0 -185 103.5 -296t277.5 -111z" />
    <glyph glyph-name="Uhorn" unicode="&#x1af;" horiz-adv-x="1429" 
d="M680 -29q-238 0 -377 126.5t-139 371.5v965h131v-965q0 -189 99.5 -284t285.5 -95t285.5 95t99.5 284v965h156q44 0 65 20.5t21 69.5v127h114v-135q0 -181 -182 -181h-43v-866q0 -245 -139 -371.5t-377 -126.5z" />
    <glyph glyph-name="uhorn" unicode="&#x1b0;" horiz-adv-x="1337" 
d="M563 -20q-110 0 -198.5 44t-143.5 138.5t-55 226.5v606h123v-598q0 -157 79.5 -232t221.5 -75q160 0 259 105.5t99 302.5v497h148q44 0 65 20.5t21 69.5v127h114v-135q0 -180 -182 -180h-43v-897h-119v184h-24q-94 -204 -365 -204z" />
    <glyph glyph-name="uni01C4" unicode="&#x1c4;" horiz-adv-x="2504" 
d="M1829 1552l-270 242h165l164 -156h25l164 156h166l-271 -242h-143zM98 0v119h205v1196h-205v119h545q286 0 440 -145.5t154 -440.5v-264q0 -295 -154 -439.5t-440 -144.5h-545zM1427 0v180l836 1114v21h-811v119h934v-181l-836 -1114v-20h856v-119h-979zM434 119h209
q230 0 346.5 110.5t116.5 348.5v276q0 238 -116.5 348.5t-346.5 110.5h-209v-1194z" />
    <glyph glyph-name="uni01C5" unicode="&#x1c5;" horiz-adv-x="2424" 
d="M98 0v119h205v1196h-205v119h545q286 0 440 -145.5t154 -440.5v-264q0 -295 -154 -439.5t-440 -144.5h-545zM1796 1139l-258 270h152l172 -180h24l172 180h152l-258 -270h-156zM434 119h209q230 0 346.5 110.5t116.5 348.5v276q0 238 -116.5 348.5t-346.5 110.5h-209
v-1194zM1487 0v168l670 696v21h-650v110h774v-168l-671 -696v-20h688v-111h-811z" />
    <glyph glyph-name="uni01C6" unicode="&#x1c6;" horiz-adv-x="2392" 
d="M610 -29q-205 0 -342 141t-137 373v25q0 231 136.5 372.5t342.5 141.5q151 0 245 -58t140 -145h25v613h123v-1434h-119v182h-25q-110 -211 -389 -211zM1763 1139l-258 270h152l172 -180h24l172 180h152l-258 -270h-156zM1454 0v168l670 696v21h-649v110h774v-168
l-672 -696v-20h688v-111h-811zM639 82q171 0 276 109.5t105 297.5v17q0 188 -105 297.5t-276 109.5t-276 -109.5t-105 -297.5v-17q0 -188 105 -297.5t276 -109.5z" />
    <glyph glyph-name="uni01C7" unicode="&#x1c7;" horiz-adv-x="2324" 
d="M176 0v1434h131v-1315h754v-119h-885zM1655 -29q-208 0 -326.5 119t-118.5 340v100h131v-100q0 -156 80.5 -248t235.5 -92q291 0 291 340v885h-254v119h536v-119h-151v-885q0 -226 -106.5 -342.5t-317.5 -116.5z" />
    <glyph glyph-name="uni01C8" unicode="&#x1c8;" horiz-adv-x="1607" 
d="M176 0v1434h131v-1315h754v-119h-885zM1366 1167q-46 0 -76 30.5t-30 76.5t30 76t76 30t76.5 -30t30.5 -76t-30.5 -76.5t-76.5 -30.5zM1100 -410v111h143q33 0 47.5 15t14.5 46v1233h122v-1249q0 -75 -40.5 -115.5t-118.5 -40.5h-168z" />
    <glyph glyph-name="uni01C9" unicode="&#x1c9;" horiz-adv-x="970" 
d="M180 0v1434h123v-1434h-123zM729 1167q-46 0 -76 30.5t-30 76.5t30 76t76 30t76.5 -30t30.5 -76t-30.5 -76.5t-76.5 -30.5zM463 -410v111h143q33 0 47.5 15t14.5 46v1233h123v-1249q0 -74 -40.5 -115t-119.5 -41h-168z" />
    <glyph glyph-name="uni01CA" unicode="&#x1ca;" horiz-adv-x="2557" 
d="M176 0v1434h260l586 -1356h25v1356h131v-1434h-260l-586 1358h-25v-1358h-131zM1888 -29q-208 0 -326 119t-118 340v100h131v-100q0 -156 80 -248t235 -92q291 0 291 340v885h-254v119h537v-119h-152v-885q0 -226 -106.5 -342.5t-317.5 -116.5z" />
    <glyph glyph-name="uni01CB" unicode="&#x1cb;" horiz-adv-x="1841" 
d="M176 0v1434h260l586 -1356h25v1356h131v-1434h-260l-586 1358h-25v-1358h-131zM1599 1167q-46 0 -76 30.5t-30 76.5t30 76t76 30t76.5 -30t30.5 -76t-30.5 -76.5t-76.5 -30.5zM1333 -410v111h144q33 0 47 14.5t14 46.5v1233h123v-1249q0 -74 -40.5 -115t-119.5 -41h-168z
" />
    <glyph glyph-name="uni01CC" unicode="&#x1cc;" horiz-adv-x="1740" 
d="M1499 1167q-46 0 -76 30.5t-30 76.5t30 76t76 30t76.5 -30t30.5 -76t-30.5 -76.5t-76.5 -30.5zM180 0v995h119v-184h25q95 205 364 205q82 0 153 -26t126 -75.5t86.5 -129t31.5 -179.5v-606h-122v598q0 157 -79.5 232t-221.5 75q-160 0 -259.5 -105t-99.5 -302v-498h-123
zM1233 -410v111h143q33 0 47.5 15t14.5 46v1233h123v-1249q0 -74 -40.5 -115t-119.5 -41h-168z" />
    <glyph glyph-name="uni01CD" unicode="&#x1cd;" horiz-adv-x="1286" 
d="M571 1552l-270 242h166l164 -156h24l164 156h166l-270 -242h-144zM57 0l469 1434h234l469 -1434h-137l-123 381h-652l-122 -381h-138zM354 500h578l-277 856h-24z" />
    <glyph glyph-name="uni01CE" unicode="&#x1ce;" horiz-adv-x="1175" 
d="M500 1139l-258 270h151l172 -180h25l172 180h151l-258 -270h-155zM485 -29q-163 0 -267.5 82.5t-104.5 227.5q0 144 102.5 220.5t265.5 76.5h365v79q0 121 -70.5 188.5t-202.5 67.5q-128 0 -206 -63t-105 -174l-119 35q38 140 146 226.5t284 86.5q187 0 291.5 -99
t104.5 -274v-483q0 -62 57 -62h96v-106h-131q-63 0 -100 37.5t-37 103.5v15h-20q-22 -39 -49 -68.5t-67.5 -57.5t-99.5 -43.5t-133 -15.5zM494 82q161 0 256.5 96.5t95.5 267.5v25h-363q-111 0 -179 -48t-68 -140q0 -95 71 -148t187 -53z" />
    <glyph glyph-name="uni01CF" unicode="&#x1cf;" horiz-adv-x="483" 
d="M170 1552l-270 242h166l163 -156h25l164 156h166l-271 -242h-143zM176 0v1434h131v-1434h-131z" />
    <glyph glyph-name="uni01D0" unicode="&#x1d0;" horiz-adv-x="483" 
d="M164 1139l-258 270h151l172 -180h25l172 180h152l-259 -270h-155zM180 0v995h123v-995h-123z" />
    <glyph glyph-name="uni01D1" unicode="&#x1d1;" horiz-adv-x="1363" 
d="M610 1552l-270 242h166l164 -156h24l164 156h166l-270 -242h-144zM682 -29q-257 0 -404 151t-147 433v324q0 282 147 432.5t404 150.5t404 -150.5t147 -432.5v-324q0 -282 -147 -433t-404 -151zM682 90q200 0 310 120.5t110 340.5v332q0 219 -110 339.5t-310 120.5
t-310 -120.5t-110 -339.5v-332q0 -220 110 -340.5t310 -120.5z" />
    <glyph glyph-name="uni01D2" unicode="&#x1d2;" 
d="M557 1139l-258 270h152l172 -180h24l172 180h152l-258 -270h-156zM635 -29q-227 0 -365.5 141.5t-138.5 372.5v25q0 231 138.5 372.5t365.5 141.5t365.5 -141.5t138.5 -372.5v-25q0 -231 -138.5 -372.5t-365.5 -141.5zM635 82q174 0 277.5 111t103.5 296v17
q0 185 -103.5 296t-277.5 111t-277.5 -111t-103.5 -296v-17q0 -185 103.5 -296t277.5 -111z" />
    <glyph glyph-name="uni01D3" unicode="&#x1d3;" horiz-adv-x="1359" 
d="M608 1552l-270 242h166l164 -156h24l164 156h166l-270 -242h-144zM680 -29q-238 0 -377 126.5t-139 371.5v965h131v-965q0 -189 99.5 -284t285.5 -95t285.5 95t99.5 284v965h131v-965q0 -245 -139 -371.5t-377 -126.5z" />
    <glyph glyph-name="uni01D4" unicode="&#x1d4;" horiz-adv-x="1251" 
d="M541 1139l-258 270h151l172 -180h25l172 180h151l-258 -270h-155zM563 -20q-110 0 -198.5 44t-143.5 138.5t-55 226.5v606h123v-598q0 -157 79.5 -232t221.5 -75q160 0 259 105.5t99 302.5v497h123v-995h-119v184h-24q-94 -204 -365 -204z" />
    <glyph glyph-name="uni01D5" unicode="&#x1d5;" horiz-adv-x="1359" 
d="M373 1888v107h614v-107h-614zM872 1561q-46 0 -75 29t-29 75t29 75t75 29t75.5 -29t29.5 -75t-29.5 -75t-75.5 -29zM487 1561q-46 0 -75 29t-29 75t29 75t75 29t75.5 -29t29.5 -75t-29.5 -75t-75.5 -29zM680 -29q-238 0 -377 126.5t-139 371.5v965h131v-965
q0 -189 99.5 -284t285.5 -95t285.5 95t99.5 284v965h131v-965q0 -245 -139 -371.5t-377 -126.5z" />
    <glyph glyph-name="uni01D6" unicode="&#x1d6;" horiz-adv-x="1251" 
d="M311 1528v106h615v-106h-615zM803 1167q-46 0 -75.5 29.5t-29.5 75.5t29.5 75t75.5 29t75 -29t29 -75t-29 -75.5t-75 -29.5zM434 1167q-46 0 -75 29.5t-29 75.5t29 75t75 29t75.5 -29t29.5 -75t-29.5 -75.5t-75.5 -29.5zM563 -20q-110 0 -198.5 44t-143.5 138.5
t-55 226.5v606h123v-598q0 -157 79.5 -232t221.5 -75q160 0 259 105.5t99 302.5v497h123v-995h-119v184h-24q-94 -204 -365 -204z" />
    <glyph glyph-name="uni01D7" unicode="&#x1d7;" horiz-adv-x="1359" 
d="M584 1855l135 242h160l-168 -242h-127zM872 1561q-46 0 -75 29t-29 75t29 75t75 29t75.5 -29t29.5 -75t-29.5 -75t-75.5 -29zM487 1561q-46 0 -75 29t-29 75t29 75t75 29t75.5 -29t29.5 -75t-29.5 -75t-75.5 -29zM680 -29q-238 0 -377 126.5t-139 371.5v965h131v-965
q0 -189 99.5 -284t285.5 -95t285.5 95t99.5 284v965h131v-965q0 -245 -139 -371.5t-377 -126.5z" />
    <glyph glyph-name="uni01D8" unicode="&#x1d8;" horiz-adv-x="1251" 
d="M530 1483l160 270h156l-189 -270h-127zM803 1167q-46 0 -75.5 29.5t-29.5 75.5t29.5 75t75.5 29t75 -29t29 -75t-29 -75.5t-75 -29.5zM434 1167q-46 0 -75 29.5t-29 75.5t29 75t75 29t75.5 -29t29.5 -75t-29.5 -75.5t-75.5 -29.5zM563 -20q-110 0 -198.5 44t-143.5 138.5
t-55 226.5v606h123v-598q0 -157 79.5 -232t221.5 -75q160 0 259 105.5t99 302.5v497h123v-995h-119v184h-24q-94 -204 -365 -204z" />
    <glyph glyph-name="uni01D9" unicode="&#x1d9;" horiz-adv-x="1359" 
d="M608 1855l-270 242h166l164 -155h24l164 155h166l-270 -242h-144zM872 1561q-46 0 -75 29t-29 75t29 75t75 29t75.5 -29t29.5 -75t-29.5 -75t-75.5 -29zM487 1561q-46 0 -75 29t-29 75t29 75t75 29t75.5 -29t29.5 -75t-29.5 -75t-75.5 -29zM680 -29q-238 0 -377 126.5
t-139 371.5v965h131v-965q0 -189 99.5 -284t285.5 -95t285.5 95t99.5 284v965h131v-965q0 -245 -139 -371.5t-377 -126.5z" />
    <glyph glyph-name="uni01DA" unicode="&#x1da;" horiz-adv-x="1251" 
d="M541 1483l-258 270h151l172 -180h25l172 180h151l-258 -270h-155zM803 1167q-46 0 -75.5 29.5t-29.5 75.5t29.5 75t75.5 29t75 -29t29 -75t-29 -75.5t-75 -29.5zM434 1167q-46 0 -75 29.5t-29 75.5t29 75t75 29t75.5 -29t29.5 -75t-29.5 -75.5t-75.5 -29.5zM563 -20
q-110 0 -198.5 44t-143.5 138.5t-55 226.5v606h123v-598q0 -157 79.5 -232t221.5 -75q160 0 259 105.5t99 302.5v497h123v-995h-119v184h-24q-94 -204 -365 -204z" />
    <glyph glyph-name="uni01DB" unicode="&#x1db;" horiz-adv-x="1359" 
d="M649 1864l-168 241h160l135 -241h-127zM872 1561q-46 0 -75 29t-29 75t29 75t75 29t75.5 -29t29.5 -75t-29.5 -75t-75.5 -29zM487 1561q-46 0 -75 29t-29 75t29 75t75 29t75.5 -29t29.5 -75t-29.5 -75t-75.5 -29zM680 -29q-238 0 -377 126.5t-139 371.5v965h131v-965
q0 -189 99.5 -284t285.5 -95t285.5 95t99.5 284v965h131v-965q0 -245 -139 -371.5t-377 -126.5z" />
    <glyph glyph-name="uni01DC" unicode="&#x1dc;" horiz-adv-x="1251" 
d="M580 1507l-189 271h158l158 -271h-127zM803 1167q-46 0 -75.5 29.5t-29.5 75.5t29.5 75t75.5 29t75 -29t29 -75t-29 -75.5t-75 -29.5zM434 1167q-46 0 -75 29.5t-29 75.5t29 75t75 29t75.5 -29t29.5 -75t-29.5 -75.5t-75.5 -29.5zM563 -20q-110 0 -198.5 44t-143.5 138.5
t-55 226.5v606h123v-598q0 -157 79.5 -232t221.5 -75q160 0 259 105.5t99 302.5v497h123v-995h-119v184h-24q-94 -204 -365 -204z" />
    <glyph glyph-name="Gcaron" unicode="&#x1e6;" horiz-adv-x="1349" 
d="M614 1552l-270 242h166l164 -156h24l164 156h166l-270 -242h-144zM676 -29q-251 0 -398 151t-147 433v324q0 282 148 432.5t405 150.5q244 0 375 -136.5t131 -373.5v-10h-131v14q0 176 -93.5 281.5t-281.5 105.5q-200 0 -311 -120.5t-111 -339.5v-332q0 -219 111 -340
t311 -121q189 0 284 110t95 306v41h-473v115h600v-662h-119v162h-24q-94 -191 -371 -191z" />
    <glyph glyph-name="gcaron" unicode="&#x1e7;" horiz-adv-x="1318" 
d="M602 1139l-258 270h152l172 -180h24l172 180h152l-258 -270h-156zM131 494v24q0 229 137 367.5t342 138.5q279 0 389 -211h25v182h115v-1249q0 -75 -40 -115.5t-118 -40.5h-680v111h655q64 0 64 61v428h-25q-46 -87 -140 -144.5t-245 -57.5q-206 0 -342.5 139t-136.5 367
zM639 98q171 0 276 107.5t105 292.5v16q0 185 -105 292t-276 107t-276 -107t-105 -292v-16q0 -185 105 -292.5t276 -107.5z" />
    <glyph glyph-name="uni01EA" unicode="&#x1ea;" horiz-adv-x="1363" 
d="M766 -332q-67 0 -103 33.5t-36 97.5q0 42 18 119l12 53q-246 8 -386 158.5t-140 425.5v324q0 282 147 432.5t404 150.5t404 -150.5t147 -432.5v-324q0 -258 -124 -407t-345 -173l-21 -108q-8 -50 -8 -53q0 -39 45 -39h84v-107h-98zM682 90q200 0 310 120.5t110 340.5v332
q0 219 -110 339.5t-310 120.5t-310 -120.5t-110 -339.5v-332q0 -220 110 -340.5t310 -120.5z" />
    <glyph glyph-name="uni01EB" unicode="&#x1eb;" 
d="M709 -332q-67 0 -103.5 33.5t-36.5 97.5q0 37 19 119l12 53q-212 12 -340.5 152.5t-128.5 361.5v25q0 231 138.5 372.5t365.5 141.5t365.5 -141.5t138.5 -372.5v-25q0 -211 -117.5 -349t-314.5 -161l-21 -108q-8 -50 -8 -53q0 -39 45 -39h84v-107h-98zM635 82
q174 0 277.5 111t103.5 296v17q0 185 -103.5 296t-277.5 111t-277.5 -111t-103.5 -296v-17q0 -185 103.5 -296t277.5 -111z" />
    <glyph glyph-name="Aringacute" unicode="&#x1fa;" horiz-adv-x="1286" 
d="M643 1532q-84 0 -140.5 53.5t-56.5 138.5t56.5 139t140.5 54q15 0 23 -2l98 172h147l-143 -211q74 -54 74 -152q0 -85 -56.5 -138.5t-142.5 -53.5zM643 1626q45 0 72.5 27.5t27.5 70.5t-27.5 71t-72.5 28q-44 0 -71 -28t-27 -71t27 -70.5t71 -27.5zM57 0l469 1434h234
l469 -1434h-137l-123 381h-652l-122 -381h-138zM354 500h578l-277 856h-24z" />
    <glyph glyph-name="aringacute" unicode="&#x1fb;" horiz-adv-x="1175" 
d="M578 1114q-84 0 -140.5 54t-56.5 139t56.5 138.5t140.5 53.5q20 0 30 -2l92 160h140l-133 -199q69 -56 69 -151q0 -85 -56 -139t-142 -54zM578 1208q45 0 72.5 28t27.5 71t-27.5 70.5t-72.5 27.5q-44 0 -71.5 -27.5t-27.5 -70.5t27.5 -71t71.5 -28zM485 -29
q-163 0 -267.5 82.5t-104.5 227.5q0 144 102.5 220.5t265.5 76.5h365v79q0 121 -70.5 188.5t-202.5 67.5q-128 0 -206 -63t-105 -174l-119 35q38 140 146 226.5t284 86.5q187 0 291.5 -99t104.5 -274v-483q0 -62 57 -62h96v-106h-131q-63 0 -100 37.5t-37 103.5v15h-20
q-22 -39 -49 -68.5t-67.5 -57.5t-99.5 -43.5t-133 -15.5zM494 82q161 0 256.5 96.5t95.5 267.5v25h-363q-111 0 -179 -48t-68 -140q0 -95 71 -148t187 -53z" />
    <glyph glyph-name="AEacute" unicode="&#x1fc;" horiz-adv-x="1710" 
d="M784 1552l136 242h159l-168 -242h-127zM57 0l627 1434h907v-119h-653v-537h596v-119h-596v-540h661v-119h-792v381h-442l-164 -381h-144zM807 500v856h-23l-368 -856h391z" />
    <glyph glyph-name="aeacute" unicode="&#x1fd;" horiz-adv-x="1943" 
d="M891 1139l160 270h155l-188 -270h-127zM510 -29q-177 0 -287 80t-110 225q0 144 105.5 218.5t277.5 74.5h374v88q0 120 -76 188t-210 68q-131 0 -214.5 -62t-113.5 -171l-115 35q38 137 151 223t292 86q136 0 229.5 -56t132.5 -155h21q63 99 164 155t223 56
q208 0 334.5 -131t126.5 -354v-74h-820q9 -178 110.5 -280.5t264.5 -102.5q123 0 198 58.5t120 158.5l106 -55q-31 -60 -64.5 -104t-83 -85t-119 -62.5t-155.5 -21.5q-144 0 -254 67.5t-172 186.5h-22q-44 -113 -146 -183.5t-268 -70.5zM995 569h695q-6 165 -96 253.5
t-240 88.5q-148 0 -245 -91.5t-114 -250.5zM514 76q161 0 258.5 98t97.5 270v21h-372q-118 0 -191.5 -48t-73.5 -138q0 -93 78.5 -148t202.5 -55z" />
    <glyph glyph-name="Oslashacute" unicode="&#x1fe;" horiz-adv-x="1363" 
d="M586 1552l135 242h160l-168 -242h-127zM397 -172l-96 37l72 182q-242 145 -242 508v324q0 282 147 432.5t404 150.5q127 0 225 -37l62 156l94 -37l-64 -164q112 -69 173 -196t61 -305v-324q0 -282 -147 -433t-404 -151q-122 0 -217 33zM262 551q0 -265 158 -383l444 1143
q-74 32 -182 32q-200 0 -310 -120.5t-110 -339.5v-332zM682 90q200 0 310 120.5t110 340.5v332q0 255 -150 377l-442 -1141q82 -29 172 -29z" />
    <glyph glyph-name="oslashacute" unicode="&#x1ff;" 
d="M547 1139l160 270h155l-188 -270h-127zM344 -119l-84 47l74 131q-97 67 -150 177t-53 249v25q0 231 138.5 372.5t365.5 141.5q123 0 221 -43l68 119l84 -47l-68 -119q95 -67 147 -176.5t52 -247.5v-25q0 -231 -138.5 -372.5t-365.5 -141.5q-121 0 -217 41zM254 489
q0 -218 137 -327l410 719q-68 32 -166 32q-174 0 -277.5 -111t-103.5 -296v-17zM635 82q174 0 277.5 111t103.5 296v17q0 211 -133 325l-408 -718q73 -31 160 -31z" />
    <glyph glyph-name="uni0200" unicode="&#x200;" horiz-adv-x="1286" 
d="M492 1561l-189 241h164l145 -241h-120zM774 1561l-153 241h145l119 -241h-111zM57 0l469 1434h234l469 -1434h-137l-123 381h-652l-122 -381h-138zM354 500h578l-277 856h-24z" />
    <glyph glyph-name="uni0201" unicode="&#x201;" horiz-adv-x="1175" 
d="M410 1139l-172 270h145l147 -270h-120zM698 1139l-149 270h141l127 -270h-119zM485 -29q-163 0 -267.5 82.5t-104.5 227.5q0 144 102.5 220.5t265.5 76.5h365v79q0 121 -70.5 188.5t-202.5 67.5q-128 0 -206 -63t-105 -174l-119 35q38 140 146 226.5t284 86.5
q187 0 291.5 -99t104.5 -274v-483q0 -62 57 -62h96v-106h-131q-63 0 -100 37.5t-37 103.5v15h-20q-22 -39 -49 -68.5t-67.5 -57.5t-99.5 -43.5t-133 -15.5zM494 82q161 0 256.5 96.5t95.5 267.5v25h-363q-111 0 -179 -48t-68 -140q0 -95 71 -148t187 -53z" />
    <glyph glyph-name="uni0202" unicode="&#x202;" horiz-adv-x="1286" 
d="M358 1577v12q0 124 78 193t207 69q127 0 205 -69.5t78 -192.5v-12h-115v12q0 74 -43.5 119t-124.5 45q-82 0 -126 -45t-44 -119v-12h-115zM57 0l469 1434h234l469 -1434h-137l-123 381h-652l-122 -381h-138zM354 500h578l-277 856h-24z" />
    <glyph glyph-name="uni0203" unicode="&#x203;" horiz-adv-x="1175" 
d="M293 1139v12q0 124 78 193t207 69q127 0 204.5 -69t77.5 -193v-12h-115v12q0 74 -43 119t-124 45q-82 0 -126 -45t-44 -119v-12h-115zM485 -29q-163 0 -267.5 82.5t-104.5 227.5q0 144 102.5 220.5t265.5 76.5h365v79q0 121 -70.5 188.5t-202.5 67.5q-128 0 -206 -63
t-105 -174l-119 35q38 140 146 226.5t284 86.5q187 0 291.5 -99t104.5 -274v-483q0 -62 57 -62h96v-106h-131q-63 0 -100 37.5t-37 103.5v15h-20q-22 -39 -49 -68.5t-67.5 -57.5t-99.5 -43.5t-133 -15.5zM494 82q161 0 256.5 96.5t95.5 267.5v25h-363q-111 0 -179 -48
t-68 -140q0 -95 71 -148t187 -53z" />
    <glyph glyph-name="uni0204" unicode="&#x204;" horiz-adv-x="1161" 
d="M471 1561l-188 241h163l146 -241h-121zM754 1561l-154 241h145l119 -241h-110zM176 0v1434h866v-119h-735v-537h678v-119h-678v-540h744v-119h-875z" />
    <glyph glyph-name="uni0205" unicode="&#x205;" horiz-adv-x="1224" 
d="M457 1139l-172 270h145l148 -270h-121zM745 1139l-149 270h141l127 -270h-119zM639 -29q-229 0 -368.5 142t-139.5 372v25q0 228 139 371t355 143q212 0 344.5 -131.5t132.5 -355.5v-66h-848q6 -183 111.5 -286t273.5 -103q89 0 157 30.5t107.5 76.5t69.5 112l110 -49
q-131 -281 -444 -281zM256 578h721q-7 159 -103 247t-249 88q-151 0 -249 -87.5t-120 -247.5z" />
    <glyph glyph-name="uni0206" unicode="&#x206;" horiz-adv-x="1161" 
d="M338 1577v12q0 124 78 193t207 69q127 0 204.5 -69t77.5 -193v-12h-114v12q0 74 -43.5 119t-124.5 45q-82 0 -126 -45t-44 -119v-12h-115zM176 0v1434h866v-119h-735v-537h678v-119h-678v-540h744v-119h-875z" />
    <glyph glyph-name="uni0207" unicode="&#x207;" horiz-adv-x="1224" 
d="M340 1139v12q0 124 78 193t207 69q127 0 204.5 -69t77.5 -193v-12h-114v12q0 74 -43.5 119t-124.5 45q-82 0 -126 -45t-44 -119v-12h-115zM639 -29q-229 0 -368.5 142t-139.5 372v25q0 228 139 371t355 143q212 0 344.5 -131.5t132.5 -355.5v-66h-848q6 -183 111.5 -286
t273.5 -103q89 0 157 30.5t107.5 76.5t69.5 112l110 -49q-131 -281 -444 -281zM256 578h721q-7 159 -103 247t-249 88q-151 0 -249 -87.5t-120 -247.5z" />
    <glyph glyph-name="uni0208" unicode="&#x208;" horiz-adv-x="483" 
d="M90 1561l-188 241h164l145 -241h-121zM373 1561l-154 241h146l118 -241h-110zM176 0v1434h131v-1434h-131z" />
    <glyph glyph-name="uni0209" unicode="&#x209;" horiz-adv-x="483" 
d="M74 1139l-172 270h145l148 -270h-121zM362 1139l-149 270h141l127 -270h-119zM180 0v995h123v-995h-123z" />
    <glyph glyph-name="uni020A" unicode="&#x20a;" horiz-adv-x="483" 
d="M-43 1577v12q0 124 78 193t207 69q127 0 204.5 -69t77.5 -193v-12h-114v12q0 74 -43.5 119t-124.5 45q-82 0 -126 -45t-44 -119v-12h-115zM176 0v1434h131v-1434h-131z" />
    <glyph glyph-name="uni020B" unicode="&#x20b;" horiz-adv-x="483" 
d="M-43 1139v12q0 124 78 193t207 69q127 0 204.5 -69t77.5 -193v-12h-114v12q0 74 -43.5 119t-124.5 45q-82 0 -126 -45t-44 -119v-12h-115zM180 0v995h123v-995h-123z" />
    <glyph glyph-name="uni020C" unicode="&#x20c;" horiz-adv-x="1363" 
d="M530 1561l-188 241h164l145 -241h-121zM813 1561l-154 241h146l119 -241h-111zM682 -29q-257 0 -404 151t-147 433v324q0 282 147 432.5t404 150.5t404 -150.5t147 -432.5v-324q0 -282 -147 -433t-404 -151zM682 90q200 0 310 120.5t110 340.5v332q0 219 -110 339.5
t-310 120.5t-310 -120.5t-110 -339.5v-332q0 -220 110 -340.5t310 -120.5z" />
    <glyph glyph-name="uni020D" unicode="&#x20d;" 
d="M467 1139l-172 270h145l148 -270h-121zM756 1139l-150 270h142l126 -270h-118zM635 -29q-227 0 -365.5 141.5t-138.5 372.5v25q0 231 138.5 372.5t365.5 141.5t365.5 -141.5t138.5 -372.5v-25q0 -231 -138.5 -372.5t-365.5 -141.5zM635 82q174 0 277.5 111t103.5 296v17
q0 185 -103.5 296t-277.5 111t-277.5 -111t-103.5 -296v-17q0 -185 103.5 -296t277.5 -111z" />
    <glyph glyph-name="uni020E" unicode="&#x20e;" horiz-adv-x="1363" 
d="M397 1577v12q0 124 78 193t207 69q127 0 205 -69.5t78 -192.5v-12h-115v12q0 74 -43.5 119t-124.5 45q-82 0 -126 -45t-44 -119v-12h-115zM682 -29q-257 0 -404 151t-147 433v324q0 282 147 432.5t404 150.5t404 -150.5t147 -432.5v-324q0 -282 -147 -433t-404 -151z
M682 90q200 0 310 120.5t110 340.5v332q0 219 -110 339.5t-310 120.5t-310 -120.5t-110 -339.5v-332q0 -220 110 -340.5t310 -120.5z" />
    <glyph glyph-name="uni020F" unicode="&#x20f;" 
d="M350 1139v12q0 124 78 193t207 69q127 0 205 -69.5t78 -192.5v-12h-115v12q0 74 -43.5 119t-124.5 45q-82 0 -126 -45t-44 -119v-12h-115zM635 -29q-227 0 -365.5 141.5t-138.5 372.5v25q0 231 138.5 372.5t365.5 141.5t365.5 -141.5t138.5 -372.5v-25
q0 -231 -138.5 -372.5t-365.5 -141.5zM635 82q174 0 277.5 111t103.5 296v17q0 185 -103.5 296t-277.5 111t-277.5 -111t-103.5 -296v-17q0 -185 103.5 -296t277.5 -111z" />
    <glyph glyph-name="uni0210" unicode="&#x210;" horiz-adv-x="1292" 
d="M483 1561l-188 241h164l145 -241h-121zM766 1561l-154 241h146l119 -241h-111zM176 0v1434h561q202 0 327.5 -101.5t125.5 -279.5v-21q0 -138 -66 -223.5t-168 -114.5v-24q76 -3 123 -48.5t47 -134.5v-487h-131v473q0 135 -143 135h-545v-608h-131zM307 727h418
q160 0 247 75t87 214v10q0 140 -86 214.5t-248 74.5h-418v-588z" />
    <glyph glyph-name="uni0211" unicode="&#x211;" horiz-adv-x="755" 
d="M264 1139l-172 270h146l147 -270h-121zM553 1139l-150 270h142l127 -270h-119zM180 0v995h119v-125h25q28 68 85 98.5t156 30.5h117v-114h-131q-117 0 -182.5 -65.5t-65.5 -196.5v-623h-123z" />
    <glyph glyph-name="uni0212" unicode="&#x212;" horiz-adv-x="1292" 
d="M350 1577v12q0 124 78 193t207 69q127 0 205 -69.5t78 -192.5v-12h-115v12q0 74 -43.5 119t-124.5 45q-82 0 -126 -45t-44 -119v-12h-115zM176 0v1434h561q202 0 327.5 -101.5t125.5 -279.5v-21q0 -138 -66 -223.5t-168 -114.5v-24q76 -3 123 -48.5t47 -134.5v-487h-131
v473q0 135 -143 135h-545v-608h-131zM307 727h418q160 0 247 75t87 214v10q0 140 -86 214.5t-248 74.5h-418v-588z" />
    <glyph glyph-name="uni0213" unicode="&#x213;" horiz-adv-x="755" 
d="M147 1139v12q0 124 78 193t207 69q127 0 205 -69.5t78 -192.5v-12h-115v12q0 74 -43.5 119t-124.5 45q-82 0 -126 -45t-44 -119v-12h-115zM180 0v995h119v-125h25q28 68 85 98.5t156 30.5h117v-114h-131q-117 0 -182.5 -65.5t-65.5 -196.5v-623h-123z" />
    <glyph glyph-name="uni0214" unicode="&#x214;" horiz-adv-x="1359" 
d="M528 1561l-188 241h164l145 -241h-121zM811 1561l-154 241h146l119 -241h-111zM680 -29q-238 0 -377 126.5t-139 371.5v965h131v-965q0 -189 99.5 -284t285.5 -95t285.5 95t99.5 284v965h131v-965q0 -245 -139 -371.5t-377 -126.5z" />
    <glyph glyph-name="uni0215" unicode="&#x215;" horiz-adv-x="1251" 
d="M451 1139l-172 270h145l147 -270h-120zM739 1139l-149 270h141l127 -270h-119zM563 -20q-110 0 -198.5 44t-143.5 138.5t-55 226.5v606h123v-598q0 -157 79.5 -232t221.5 -75q160 0 259 105.5t99 302.5v497h123v-995h-119v184h-24q-94 -204 -365 -204z" />
    <glyph glyph-name="uni0216" unicode="&#x216;" horiz-adv-x="1359" 
d="M395 1577v12q0 124 78 193t207 69q127 0 205 -69.5t78 -192.5v-12h-115v12q0 74 -43.5 119t-124.5 45q-82 0 -126 -45t-44 -119v-12h-115zM680 -29q-238 0 -377 126.5t-139 371.5v965h131v-965q0 -189 99.5 -284t285.5 -95t285.5 95t99.5 284v965h131v-965
q0 -245 -139 -371.5t-377 -126.5z" />
    <glyph glyph-name="uni0217" unicode="&#x217;" horiz-adv-x="1251" 
d="M334 1139v12q0 124 77.5 193t206.5 69q127 0 205 -69.5t78 -192.5v-12h-115v12q0 74 -43.5 119t-124.5 45q-82 0 -125.5 -44.5t-43.5 -119.5v-12h-115zM563 -20q-110 0 -198.5 44t-143.5 138.5t-55 226.5v606h123v-598q0 -157 79.5 -232t221.5 -75q160 0 259 105.5
t99 302.5v497h123v-995h-119v184h-24q-94 -204 -365 -204z" />
    <glyph glyph-name="uni0218" unicode="&#x218;" horiz-adv-x="1261" 
d="M645 -29q-116 0 -212.5 31t-169 91.5t-112.5 158t-40 223.5v39h131v-39q0 -193 109 -291t294 -98q175 0 273 81.5t98 213.5q0 50 -16.5 90t-43 68t-71 51t-90.5 38t-111 31l-131 33q-95 24 -164.5 53.5t-127 75t-87 110.5t-29.5 150q0 173 131.5 277t344.5 104
q143 0 254.5 -47.5t179 -147t67.5 -237.5v-96h-131v96q0 160 -102 239t-268 79q-155 0 -250 -70.5t-95 -196.5q0 -51 15.5 -90t40.5 -66.5t68.5 -49.5t88.5 -37t111 -31l131 -33q74 -18 130 -38t112 -52t92.5 -72.5t59 -99t22.5 -131.5q0 -187 -137 -298.5t-365 -111.5z
M569 -512v78h43q34 0 49 14t15 47v37h-21q-43 0 -72.5 28t-29.5 72q0 43 29 72t73 29t73.5 -31t29.5 -82v-127q0 -137 -137 -137h-52z" />
    <glyph glyph-name="uni0219" unicode="&#x219;" horiz-adv-x="1081" 
d="M575 -29q-191 0 -314 90.5t-150 280.5l120 23q22 -152 115 -219.5t229 -67.5q125 0 199 50t74 138q0 43 -17.5 74t-54.5 51t-79 32t-107 23l-94 17q-334 58 -334 285q0 128 100 202t270 74q169 0 272.5 -76.5t131.5 -222.5l-115 -25q-37 218 -289 218q-116 0 -181.5 -44
t-65.5 -126q0 -78 57 -117.5t172 -59.5l94 -16q83 -14 143.5 -34t113 -52.5t79.5 -83.5t27 -119q0 -140 -106.5 -217.5t-289.5 -77.5zM475 -512v78h43q34 0 49 14t15 47v37h-21q-43 0 -72.5 28t-29.5 72q0 43 29 72t73 29t73.5 -31t29.5 -82v-127q0 -137 -138 -137h-51z" />
    <glyph glyph-name="uni021A" unicode="&#x21a;" horiz-adv-x="1204" 
d="M537 0v1315h-480v119h1090v-119h-479v-1315h-131zM518 -512v78h43q34 0 49 14t15 47v37h-21q-43 0 -72.5 28t-29.5 72q0 43 29 72t73 29t73.5 -31t29.5 -82v-127q0 -137 -138 -137h-51z" />
    <glyph glyph-name="uni021B" unicode="&#x21b;" horiz-adv-x="946" 
d="M541 0q-79 0 -119.5 41t-40.5 115v729h-320v110h320v373h123v-373h348v-110h-348v-713q0 -32 14 -46.5t47 -14.5h234v-111h-258zM449 -512v78h43q34 0 48.5 14t14.5 47v37h-20q-43 0 -73 28t-30 72q0 43 29.5 72t73.5 29t73 -31t29 -82v-127q0 -137 -137 -137h-51z" />
    <glyph glyph-name="uni022A" unicode="&#x22a;" horiz-adv-x="1363" 
d="M375 1888v107h614v-107h-614zM874 1561q-46 0 -75 29t-29 75t29 75t75 29t75.5 -29t29.5 -75t-29.5 -75t-75.5 -29zM489 1561q-46 0 -75 29t-29 75t29 75t75 29t75.5 -29t29.5 -75t-29.5 -75t-75.5 -29zM682 -29q-257 0 -404 151t-147 433v324q0 282 147 432.5t404 150.5
t404 -150.5t147 -432.5v-324q0 -282 -147 -433t-404 -151zM682 90q200 0 310 120.5t110 340.5v332q0 219 -110 339.5t-310 120.5t-310 -120.5t-110 -339.5v-332q0 -220 110 -340.5t310 -120.5z" />
    <glyph glyph-name="uni022B" unicode="&#x22b;" 
d="M328 1528v106h614v-106h-614zM819 1167q-46 0 -75 29.5t-29 75.5t29 75t75 29t75.5 -29t29.5 -75t-29.5 -75.5t-75.5 -29.5zM451 1167q-46 0 -75.5 29.5t-29.5 75.5t29.5 75t75.5 29t75 -29t29 -75t-29 -75.5t-75 -29.5zM635 -29q-227 0 -365.5 141.5t-138.5 372.5v25
q0 231 138.5 372.5t365.5 141.5t365.5 -141.5t138.5 -372.5v-25q0 -231 -138.5 -372.5t-365.5 -141.5zM635 82q174 0 277.5 111t103.5 296v17q0 185 -103.5 296t-277.5 111t-277.5 -111t-103.5 -296v-17q0 -185 103.5 -296t277.5 -111z" />
    <glyph glyph-name="uni022C" unicode="&#x22c;" horiz-adv-x="1363" 
d="M375 1905v106h614v-106h-614zM436 1563l-82 49l66 108q52 86 137 86q45 0 81 -22t81 -70q31 -34 48 -46.5t38 -12.5q36 0 61 43l62 98l82 -49l-66 -109q-52 -86 -137 -86q-44 0 -80.5 22.5t-81.5 70.5q-31 34 -48 46.5t-38 12.5q-36 0 -63 -45zM682 -29q-257 0 -404 151
t-147 433v324q0 282 147 432.5t404 150.5t404 -150.5t147 -432.5v-324q0 -282 -147 -433t-404 -151zM682 90q200 0 310 120.5t110 340.5v332q0 219 -110 339.5t-310 120.5t-310 -120.5t-110 -339.5v-332q0 -220 110 -340.5t310 -120.5z" />
    <glyph glyph-name="uni022D" unicode="&#x22d;" 
d="M328 1458v107h614v-107h-614zM410 1120l-86 47l61 115q46 84 131 84q43 0 74.5 -18t68.5 -62q4 -4 12 -13.5t11 -13.5t9.5 -11t10 -10.5t9.5 -8.5t9.5 -7.5t8.5 -5t9.5 -3.5t9.5 -1q33 0 55 39l57 105l86 -47l-61 -115q-46 -84 -131 -84q-43 0 -75 18t-69 62q-5 5 -15 17
t-14 16.5t-12 13t-12.5 12t-11 8t-12 6t-11.5 1.5q-33 0 -55 -39zM635 -29q-227 0 -365.5 141.5t-138.5 372.5v25q0 231 138.5 372.5t365.5 141.5t365.5 -141.5t138.5 -372.5v-25q0 -231 -138.5 -372.5t-365.5 -141.5zM635 82q174 0 277.5 111t103.5 296v17
q0 185 -103.5 296t-277.5 111t-277.5 -111t-103.5 -296v-17q0 -185 103.5 -296t277.5 -111z" />
    <glyph glyph-name="uni0230" unicode="&#x230;" horiz-adv-x="1363" 
d="M375 1868v106h614v-106h-614zM682 1561q-46 0 -76.5 30t-30.5 76t30.5 76.5t76.5 30.5t76 -30.5t30 -76.5t-30 -76t-76 -30zM682 -29q-257 0 -404 151t-147 433v324q0 282 147 432.5t404 150.5t404 -150.5t147 -432.5v-324q0 -282 -147 -433t-404 -151zM682 90
q200 0 310 120.5t110 340.5v332q0 219 -110 339.5t-310 120.5t-310 -120.5t-110 -339.5v-332q0 -220 110 -340.5t310 -120.5z" />
    <glyph glyph-name="uni0231" unicode="&#x231;" 
d="M328 1528v106h614v-106h-614zM635 1167q-46 0 -76.5 30.5t-30.5 76.5t30.5 76t76.5 30t76 -30t30 -76t-30 -76.5t-76 -30.5zM635 -29q-227 0 -365.5 141.5t-138.5 372.5v25q0 231 138.5 372.5t365.5 141.5t365.5 -141.5t138.5 -372.5v-25q0 -231 -138.5 -372.5
t-365.5 -141.5zM635 82q174 0 277.5 111t103.5 296v17q0 185 -103.5 296t-277.5 111t-277.5 -111t-103.5 -296v-17q0 -185 103.5 -296t277.5 -111z" />
    <glyph glyph-name="uni0232" unicode="&#x232;" horiz-adv-x="1236" 
d="M311 1585v107h615v-107h-615zM553 0v567l-520 867h155l418 -717h25l418 717h155l-520 -867v-567h-131z" />
    <glyph glyph-name="uni0233" unicode="&#x233;" horiz-adv-x="1251" 
d="M313 1184v106h615v-106h-615zM305 -410v111h582q33 0 47 14.5t14 46.5v410h-24q-98 -192 -361 -192q-171 0 -284 105.5t-113 301.5v608h123v-600q0 -157 79 -231t222 -74q160 0 259 104.5t99 301.5v499h123v-1249q0 -74 -40.5 -115t-119.5 -41h-606z" />
    <glyph glyph-name="uni0237" unicode="&#x237;" horiz-adv-x="487" 
d="M-20 -410v111h143q33 0 47 14.5t14 46.5v1233h123v-1249q0 -74 -40.5 -115t-119.5 -41h-167z" />
    <glyph glyph-name="uni0243" unicode="&#x243;" horiz-adv-x="1351" 
d="M98 0v119h205v217h-205v102h205v877h-205v119h711q185 0 304.5 -100t119.5 -259v-16q0 -72 -22.5 -130t-60 -95.5t-77 -60.5t-82.5 -36v-24q43 -11 83 -34t77 -60t59.5 -95.5t22.5 -130.5v-20q0 -171 -121.5 -272t-308.5 -101h-705zM434 782h365q140 0 221.5 70t81.5 186
v21q0 116 -81.5 186t-221.5 70h-365v-533zM434 119h357q151 0 231 70t80 194v16q0 124 -80 194.5t-231 70.5h-357v-226h254v-102h-254v-217z" />
    <glyph glyph-name="uni0251" unicode="&#x251;" horiz-adv-x="1359" 
d="M610 -29q-206 0 -342.5 141.5t-136.5 372.5v25q0 232 137 373t342 141q279 0 389 -211h25v182h119v-827q0 -62 57 -62h96v-106h-131q-66 0 -103.5 40.5t-37.5 109.5v32h-25q-110 -211 -389 -211zM639 82q171 0 276 109.5t105 297.5v17q0 188 -105 297.5t-276 109.5
t-276 -109.5t-105 -297.5v-17q0 -188 105 -297.5t276 -109.5z" />
    <glyph glyph-name="uni0259" unicode="&#x259;" horiz-adv-x="1224" 
d="M586 1024q229 0 368.5 -142t139.5 -372v-25q0 -228 -139 -371t-355 -143q-212 0 -344.5 132t-132.5 356v65h848q-6 183 -111.5 286t-273.5 103q-89 0 -157 -30.5t-107.5 -76.5t-69.5 -112l-111 49q131 281 445 281zM969 418h-721q7 -159 103 -247.5t249 -88.5
q151 0 249 88t120 248z" />
    <glyph glyph-name="uni02B9" unicode="&#x2b9;" horiz-adv-x="389" 
d="M115 932l39 502h133l-76 -502h-96z" />
    <glyph glyph-name="uni02BA" unicode="&#x2ba;" horiz-adv-x="704" 
d="M420 932l49 502h133l-84 -502h-98zM115 932l30 502h134l-68 -502h-96z" />
    <glyph glyph-name="uni02BB" unicode="&#x2bb;" horiz-adv-x="479" 
d="M328 1462v-86h-49q-66 0 -66 -65v-66h27q50 0 83 -31.5t33 -80.5t-33 -81t-83 -32t-83.5 34t-33.5 83v170q0 79 37.5 117t115.5 38h52z" />
    <glyph glyph-name="uni02BC" unicode="&#x2bc;" horiz-adv-x="479" 
d="M152 1020v86h49q65 0 65 65v66h-26q-50 0 -83.5 32t-33.5 81t33.5 80.5t83.5 31.5t83 -33t33 -83v-170q0 -80 -37.5 -118t-115.5 -38h-51z" />
    <glyph glyph-name="uni02BE" unicode="&#x2be;" horiz-adv-x="471" 
d="M111 995v95q80 0 124 39.5t44 119.5t-44 120t-124 40v94q126 -2 200 -66t74 -188q0 -123 -76 -188.5t-198 -65.5z" />
    <glyph glyph-name="uni02BF" unicode="&#x2bf;" horiz-adv-x="471" 
d="M360 995q-122 0 -198 65.5t-76 188.5q0 124 74 188t200 66v-94q-80 0 -123.5 -40t-43.5 -120t43.5 -119.5t123.5 -39.5v-95z" />
    <glyph glyph-name="circumflex" unicode="&#x2c6;" horiz-adv-x="917" 
d="M123 1139l258 270h156l258 -270h-152l-172 180h-25l-172 -180h-151z" />
    <glyph glyph-name="caron" unicode="&#x2c7;" horiz-adv-x="917" 
d="M381 1139l-258 270h151l172 -180h25l172 180h152l-258 -270h-156z" />
    <glyph glyph-name="uni02C8" unicode="&#x2c8;" horiz-adv-x="356" 
d="M123 1139v344h110v-344h-110z" />
    <glyph glyph-name="uni02C9" unicode="&#x2c9;" horiz-adv-x="860" 
d="M123 1184v106h614v-106h-614z" />
    <glyph glyph-name="uni02CA" unicode="&#x2ca;" horiz-adv-x="561" 
d="M123 1139l160 270h155l-188 -270h-127z" />
    <glyph glyph-name="uni02CB" unicode="&#x2cb;" horiz-adv-x="561" 
d="M311 1163l-188 271h158l157 -271h-127z" />
    <glyph glyph-name="uni02CC" unicode="&#x2cc;" horiz-adv-x="356" 
d="M123 -496v344h110v-344h-110z" />
    <glyph glyph-name="breve" unicode="&#x2d8;" horiz-adv-x="813" 
d="M408 1135q-129 0 -207 69t-78 193v12h115v-12q0 -74 44 -119t126 -45q81 0 124 45t43 119v12h115v-12q0 -124 -77.5 -193t-204.5 -69z" />
    <glyph glyph-name="dotaccent" unicode="&#x2d9;" horiz-adv-x="458" 
d="M229 1167q-46 0 -76 30.5t-30 76.5t30 76t76 30t76.5 -30t30.5 -76t-30.5 -76.5t-76.5 -30.5z" />
    <glyph glyph-name="ring" unicode="&#x2da;" horiz-adv-x="641" 
d="M319 1114q-84 0 -140 54t-56 139t56 138.5t140 53.5q86 0 142.5 -53.5t56.5 -138.5t-56.5 -139t-142.5 -54zM319 1208q45 0 73 28t28 71t-28 70.5t-73 27.5q-44 0 -71 -27.5t-27 -70.5t27 -71t71 -28z" />
    <glyph glyph-name="ogonek" unicode="&#x2db;" horiz-adv-x="483" 
d="M262 -332q-67 0 -103 33.5t-36 97.5q0 42 18 119l25 105h102l-28 -156q-2 -9 -4 -19.5t-3.5 -18t-1.5 -15.5q0 -39 45 -39h84v-107h-98z" />
    <glyph glyph-name="tilde" unicode="&#x2dc;" horiz-adv-x="868" 
d="M209 1120l-86 47l61 115q46 84 131 84q43 0 75 -18t69 -62q5 -5 15 -17t14 -16.5t12 -13t12.5 -12t11 -8t12 -6t11.5 -1.5q33 0 55 39l57 105l86 -47l-61 -115q-46 -84 -131 -84q-43 0 -74.5 18t-68.5 62q-5 5 -15 17t-14 16.5t-12 13t-12.5 12t-11 8t-12 6t-11.5 1.5
q-34 0 -56 -39z" />
    <glyph glyph-name="hungarumlaut" unicode="&#x2dd;" horiz-adv-x="825" 
d="M410 1139l147 270h145l-172 -270h-120zM123 1139l127 270h141l-149 -270h-119z" />
    <glyph glyph-name="gravecomb" unicode="&#x300;" horiz-adv-x="0" 
d="M311 1163l-188 271h158l157 -271h-127z" />
    <glyph glyph-name="acutecomb" unicode="&#x301;" horiz-adv-x="0" 
d="M123 1139l160 270h155l-188 -270h-127z" />
    <glyph glyph-name="uni0302" unicode="&#x302;" horiz-adv-x="0" 
d="M123 1139l258 270h156l258 -270h-152l-172 180h-25l-172 -180h-151z" />
    <glyph glyph-name="tildecomb" unicode="&#x303;" horiz-adv-x="0" 
d="M209 1120l-86 47l61 115q46 84 131 84q43 0 75 -18t69 -62q5 -5 15 -17t14 -16.5t12 -13t12.5 -12t11 -8t12 -6t11.5 -1.5q33 0 55 39l57 105l86 -47l-61 -115q-46 -84 -131 -84q-43 0 -74.5 18t-68.5 62q-5 5 -15 17t-14 16.5t-12 13t-12.5 12t-11 8t-12 6t-11.5 1.5
q-34 0 -56 -39z" />
    <glyph glyph-name="uni0304" unicode="&#x304;" horiz-adv-x="0" 
d="M123 1184v106h614v-106h-614z" />
    <glyph glyph-name="uni0306" unicode="&#x306;" horiz-adv-x="0" 
d="M408 1135q-129 0 -207 69t-78 193v12h115v-12q0 -74 44 -119t126 -45q81 0 124 45t43 119v12h115v-12q0 -124 -77.5 -193t-204.5 -69z" />
    <glyph glyph-name="uni0307" unicode="&#x307;" horiz-adv-x="0" 
d="M229 1167q-46 0 -76 30.5t-30 76.5t30 76t76 30t76.5 -30t30.5 -76t-30.5 -76.5t-76.5 -30.5z" />
    <glyph glyph-name="uni0308" unicode="&#x308;" horiz-adv-x="0" 
d="M596 1167q-46 0 -75 29.5t-29 75.5t29 75t75 29t75 -29t29 -75t-29 -75.5t-75 -29.5zM227 1167q-46 0 -75 29.5t-29 75.5t29 75t75 29t75.5 -29t29.5 -75t-29.5 -75.5t-75.5 -29.5z" />
    <glyph glyph-name="hookabovecomb" unicode="&#x309;" horiz-adv-x="0" 
d="M272 1122l-16 150h74q47 0 74.5 20t27.5 56q0 38 -28.5 57.5t-73.5 19.5q-80 0 -154 -57l-53 82q90 70 207 70q89 0 147 -42.5t58 -121.5q0 -76 -47 -118t-128 -42l9 -74h-97z" />
    <glyph glyph-name="uni030A" unicode="&#x30a;" horiz-adv-x="0" 
d="M319 1114q-84 0 -140 54t-56 139t56 138.5t140 53.5q86 0 142.5 -53.5t56.5 -138.5t-56.5 -139t-142.5 -54zM319 1208q45 0 73 28t28 71t-28 70.5t-73 27.5q-44 0 -71 -27.5t-27 -70.5t27 -71t71 -28z" />
    <glyph glyph-name="uni030B" unicode="&#x30b;" horiz-adv-x="0" 
d="M410 1139l147 270h145l-172 -270h-120zM123 1139l127 270h141l-149 -270h-119z" />
    <glyph glyph-name="uni030C" unicode="&#x30c;" horiz-adv-x="0" 
d="M381 1139l-258 270h151l172 -180h25l172 180h152l-258 -270h-156z" />
    <glyph glyph-name="uni030F" unicode="&#x30f;" horiz-adv-x="0" 
d="M295 1139l-172 270h145l148 -270h-121zM584 1139l-150 270h141l127 -270h-118z" />
    <glyph glyph-name="uni0311" unicode="&#x311;" horiz-adv-x="0" 
d="M123 1139v12q0 124 78 193t207 69q127 0 204.5 -69t77.5 -193v-12h-115v12q0 74 -43 119t-124 45q-82 0 -126 -45t-44 -119v-12h-115z" />
    <glyph glyph-name="uni0312" unicode="&#x312;" horiz-adv-x="0" 
d="M311 1530v-78h-43q-34 0 -48.5 -14t-14.5 -47v-39h20q43 0 73 -28.5t30 -72.5q0 -43 -29.5 -71.5t-73.5 -28.5t-73 31t-29 82v129q0 137 137 137h51z" />
    <glyph glyph-name="uni031B" unicode="&#x31b;" horiz-adv-x="0" 
d="M123 897v98h33q44 0 65 20.5t21 69.5v127h114v-135q0 -180 -182 -180h-51z" />
    <glyph glyph-name="dotbelowcomb" unicode="&#x323;" horiz-adv-x="0" 
d="M229 -385q-46 0 -76 30t-30 76t30 76.5t76 30.5t76.5 -30.5t30.5 -76.5t-30.5 -76t-76.5 -30z" />
    <glyph glyph-name="uni0324" unicode="&#x324;" horiz-adv-x="0" 
d="M596 -381q-46 0 -75 29.5t-29 75.5t29 75t75 29t75 -29t29 -75t-29 -75.5t-75 -29.5zM227 -381q-46 0 -75 29.5t-29 75.5t29 75t75 29t75.5 -29t29.5 -75t-29.5 -75.5t-75.5 -29.5z" />
    <glyph glyph-name="uni0326" unicode="&#x326;" horiz-adv-x="0" 
d="M139 -512v78h43q34 0 49 14t15 47v37h-21q-43 0 -72.5 28t-29.5 72q0 43 29 72t73 29t73.5 -31t29.5 -82v-127q0 -137 -138 -137h-51z" />
    <glyph glyph-name="uni0327" unicode="&#x327;" horiz-adv-x="0" 
d="M330 -414q-117 0 -207 70l53 82q74 -57 154 -57q45 0 73.5 18.5t28.5 54.5q0 35 -27.5 53.5t-74.5 18.5h-74l23 219h96l-15 -143q81 0 128 -41t47 -115q0 -76 -58 -118t-147 -42z" />
    <glyph glyph-name="uni0328" unicode="&#x328;" horiz-adv-x="0" 
d="M262 -332q-67 0 -103 33.5t-36 97.5q0 42 18 119l25 105h102l-28 -156q-2 -9 -4 -19.5t-3.5 -18t-1.5 -15.5q0 -39 45 -39h84v-107h-98z" />
    <glyph glyph-name="uni032E" unicode="&#x32e;" horiz-adv-x="0" 
d="M408 -426q-129 0 -207 69t-78 193v12h115v-12q0 -74 44 -119t126 -45q81 0 124 45t43 119v12h115v-12q0 -124 -77.5 -193t-204.5 -69z" />
    <glyph glyph-name="uni0331" unicode="&#x331;" horiz-adv-x="0" 
d="M123 -295v107h614v-107h-614z" />
    <glyph glyph-name="uni0394" unicode="&#x394;" 
d="M57 0l482 1434h192l481 -1434h-1155zM221 111h828l-404 1206h-20z" />
    <glyph glyph-name="uni03A9" unicode="&#x3a9;" 
d="M119 0v111h223v20q-199 114 -199 406v356q0 268 124.5 418.5t367.5 150.5t367 -150.5t124 -418.5v-356q0 -294 -196 -406v-20h221v-111h-426v119q149 44 214 150.5t65 271.5v348q0 216 -95 337.5t-274 121.5t-274 -121.5t-95 -337.5v-348q0 -165 65 -271.5t214 -150.5
v-119h-426z" />
    <glyph glyph-name="pi" unicode="&#x3c0;" horiz-adv-x="1241" 
d="M274 0v885h-143v110h954v-110h-143v-713q0 -31 14.5 -46t47.5 -15h81v-111h-106q-79 0 -119.5 41t-40.5 115v729h-422v-885h-123z" />
    <glyph glyph-name="uni0E3F" unicode="&#xe3f;" horiz-adv-x="1392" 
d="M98 0v119h205v1196h-205v119h598v237h123v-237h31q185 0 304.5 -100t119.5 -259v-16q0 -72 -22.5 -130t-60 -95.5t-77 -60.5t-82.5 -36v-24q43 -11 83 -34t77 -60t59.5 -95.5t22.5 -130.5v-20q0 -171 -121.5 -272t-308.5 -101h-25v-238h-123v238h-598zM434 782h262v533
h-262v-533zM840 1315h-21v-533h21q140 0 221.5 70t81.5 186v21q0 116 -81.5 186t-221.5 70zM434 119h262v545h-262v-545zM831 664h-12v-545h12q151 0 231.5 70t80.5 194v16q0 124 -80.5 194.5t-231.5 70.5z" />
    <glyph glyph-name="uni1E08" unicode="&#x1e08;" horiz-adv-x="1312" 
d="M588 1552l135 242h160l-168 -242h-127zM686 -414q-117 0 -207 70l53 82q74 -57 154 -57q45 0 73.5 18.5t28.5 54.5q0 35 -27.5 53.5t-74.5 18.5h-74l15 147q-232 18 -364 167.5t-132 414.5v324q0 282 148 432.5t405 150.5q246 0 380 -139t134 -383v-10h-131v14
q0 184 -96.5 291.5t-286.5 107.5q-200 0 -311 -120.5t-111 -339.5v-332q0 -219 111 -340t311 -121q190 0 286.5 107.5t96.5 291.5v31h131v-26q0 -234 -123.5 -372.5t-351.5 -150.5l-6 -69q81 0 127.5 -41t46.5 -115q0 -76 -58 -118t-147 -42z" />
    <glyph glyph-name="uni1E09" unicode="&#x1e09;" horiz-adv-x="1234" 
d="M547 1139l160 270h155l-188 -270h-127zM643 -414q-117 0 -207 70l53 82q74 -57 154 -57q45 0 73.5 18.5t28.5 54.5q0 35 -27.5 53.5t-74.5 18.5h-74l15 147q-202 18 -327.5 156t-125.5 358v21q0 234 141 375t363 141q104 0 189.5 -31.5t142 -86t91.5 -120.5t46 -141
l-121 -24q-16 127 -105 209.5t-243 82.5q-166 0 -273.5 -111.5t-107.5 -295.5v-17q0 -184 107.5 -295.5t273.5 -111.5q155 0 244.5 81t111.5 212l121 -25q-29 -150 -139.5 -257t-292.5 -120l-6 -71q81 0 127.5 -41t46.5 -115q0 -76 -58 -118t-147 -42z" />
    <glyph glyph-name="uni1E0C" unicode="&#x1e0c;" horiz-adv-x="1355" 
d="M98 0v119h205v1196h-205v119h545q286 0 440 -145.5t154 -440.5v-264q0 -295 -154 -439.5t-440 -144.5h-545zM434 119h209q230 0 346.5 110.5t116.5 348.5v276q0 238 -116.5 348.5t-346.5 110.5h-209v-1194zM649 -385q-46 0 -76 30t-30 76t30 76.5t76 30.5t76.5 -30.5
t30.5 -76.5t-30.5 -76t-76.5 -30z" />
    <glyph glyph-name="uni1E0D" unicode="&#x1e0d;" horiz-adv-x="1323" 
d="M610 -29q-205 0 -342 141t-137 373v25q0 231 136.5 372.5t342.5 141.5q151 0 245 -58t140 -145h25v613h123v-1434h-119v182h-25q-110 -211 -389 -211zM639 82q171 0 276 109.5t105 297.5v17q0 188 -105 297.5t-276 109.5t-276 -109.5t-105 -297.5v-17q0 -188 105 -297.5
t276 -109.5zM647 -385q-46 0 -76 30t-30 76t30 76.5t76 30.5t76.5 -30.5t30.5 -76.5t-30.5 -76t-76.5 -30z" />
    <glyph glyph-name="uni1E0E" unicode="&#x1e0e;" horiz-adv-x="1355" 
d="M98 0v119h205v1196h-205v119h545q286 0 440 -145.5t154 -440.5v-264q0 -295 -154 -439.5t-440 -144.5h-545zM434 119h209q230 0 346.5 110.5t116.5 348.5v276q0 238 -116.5 348.5t-346.5 110.5h-209v-1194zM342 -295v107h614v-107h-614z" />
    <glyph glyph-name="uni1E0F" unicode="&#x1e0f;" horiz-adv-x="1323" 
d="M610 -29q-205 0 -342 141t-137 373v25q0 231 136.5 372.5t342.5 141.5q151 0 245 -58t140 -145h25v613h123v-1434h-119v182h-25q-110 -211 -389 -211zM639 82q171 0 276 109.5t105 297.5v17q0 188 -105 297.5t-276 109.5t-276 -109.5t-105 -297.5v-17q0 -188 105 -297.5
t276 -109.5zM340 -295v107h614v-107h-614z" />
    <glyph glyph-name="uni1E14" unicode="&#x1e14;" horiz-adv-x="1161" 
d="M592 1835l-168 242h160l135 -242h-127zM315 1585v107h615v-107h-615zM176 0v1434h866v-119h-735v-537h678v-119h-678v-540h744v-119h-875z" />
    <glyph glyph-name="uni1E15" unicode="&#x1e15;" horiz-adv-x="1224" 
d="M586 1458l-189 271h158l158 -271h-127zM317 1184v106h615v-106h-615zM639 -29q-229 0 -368.5 142t-139.5 372v25q0 228 139 371t355 143q212 0 344.5 -131.5t132.5 -355.5v-66h-848q6 -183 111.5 -286t273.5 -103q89 0 157 30.5t107.5 76.5t69.5 112l110 -49
q-131 -281 -444 -281zM256 578h721q-7 159 -103 247t-249 88q-151 0 -249 -87.5t-120 -247.5z" />
    <glyph glyph-name="uni1E16" unicode="&#x1e16;" horiz-adv-x="1161" 
d="M526 1827l136 241h159l-168 -241h-127zM315 1585v107h615v-107h-615zM176 0v1434h866v-119h-735v-537h678v-119h-678v-540h744v-119h-875z" />
    <glyph glyph-name="uni1E17" unicode="&#x1e17;" horiz-adv-x="1224" 
d="M537 1434l159 270h156l-188 -270h-127zM317 1184v106h615v-106h-615zM639 -29q-229 0 -368.5 142t-139.5 372v25q0 228 139 371t355 143q212 0 344.5 -131.5t132.5 -355.5v-66h-848q6 -183 111.5 -286t273.5 -103q89 0 157 30.5t107.5 76.5t69.5 112l110 -49
q-131 -281 -444 -281zM256 578h721q-7 159 -103 247t-249 88q-151 0 -249 -87.5t-120 -247.5z" />
    <glyph glyph-name="uni1E1C" unicode="&#x1e1c;" horiz-adv-x="1161" 
d="M623 1540q-137 0 -215 69.5t-78 182.5v6h114v-6q0 -71 46 -112.5t133 -41.5q88 0 134 41.5t46 112.5v6h115v-6q0 -112 -79 -182t-216 -70zM176 0v1434h866v-119h-735v-537h678v-119h-678v-540h744v-119h-389l-11 -98q81 0 127.5 -41t46.5 -115q0 -76 -57.5 -118
t-146.5 -42q-117 0 -207 70l53 82q74 -57 154 -57q45 0 73.5 18.5t28.5 54.5q0 35 -27.5 53.5t-74.5 18.5h-74l18 174h-389z" />
    <glyph glyph-name="uni1E1D" unicode="&#x1e1d;" horiz-adv-x="1224" 
d="M625 1135q-129 0 -207 69t-78 193v12h115v-12q0 -74 44 -119t126 -45q81 0 124.5 45t43.5 119v12h114v-12q0 -124 -77.5 -193t-204.5 -69zM647 -414q-117 0 -207 70l54 82q74 -57 153 -57q46 0 74.5 18.5t28.5 54.5q0 34 -28 53t-75 19h-74l15 147q-209 17 -333 156
t-124 356v25q0 228 139 371t355 143q212 0 344.5 -131.5t132.5 -355.5v-66h-848q6 -183 111.5 -286t273.5 -103q89 0 157 30.5t107.5 76.5t69.5 112l110 -49q-121 -260 -399 -279l-6 -71q81 0 127.5 -41t46.5 -115q0 -76 -58 -118t-147 -42zM256 578h721q-7 159 -103 247
t-249 88q-151 0 -249 -87.5t-120 -247.5z" />
    <glyph glyph-name="uni1E20" unicode="&#x1e20;" horiz-adv-x="1349" 
d="M379 1585v107h614v-107h-614zM676 -29q-251 0 -398 151t-147 433v324q0 282 148 432.5t405 150.5q244 0 375 -136.5t131 -373.5v-10h-131v14q0 176 -93.5 281.5t-281.5 105.5q-200 0 -311 -120.5t-111 -339.5v-332q0 -219 111 -340t311 -121q189 0 284 110t95 306v41
h-473v115h600v-662h-119v162h-24q-94 -191 -371 -191z" />
    <glyph glyph-name="uni1E21" unicode="&#x1e21;" horiz-adv-x="1318" 
d="M373 1184v106h614v-106h-614zM131 494v24q0 229 137 367.5t342 138.5q279 0 389 -211h25v182h115v-1249q0 -75 -40 -115.5t-118 -40.5h-680v111h655q64 0 64 61v428h-25q-46 -87 -140 -144.5t-245 -57.5q-206 0 -342.5 139t-136.5 367zM639 98q171 0 276 107.5t105 292.5
v16q0 185 -105 292t-276 107t-276 -107t-105 -292v-16q0 -185 105 -292.5t276 -107.5z" />
    <glyph glyph-name="uni1E24" unicode="&#x1e24;" horiz-adv-x="1343" 
d="M176 0v1434h131v-656h729v656h131v-1434h-131v659h-729v-659h-131zM672 -385q-46 0 -76.5 30t-30.5 76t30.5 76.5t76.5 30.5t76 -30.5t30 -76.5t-30 -76t-76 -30z" />
    <glyph glyph-name="uni1E25" unicode="&#x1e25;" horiz-adv-x="1253" 
d="M180 0v1434h123v-613h25q99 193 360 193q171 0 284 -106t113 -302v-606h-122v598q0 157 -79 231t-222 74q-161 0 -260 -104t-99 -301v-498h-123zM633 -385q-46 0 -76.5 30t-30.5 76t30.5 76.5t76.5 30.5t76 -30.5t30 -76.5t-30 -76t-76 -30z" />
    <glyph glyph-name="uni1E2A" unicode="&#x1e2a;" horiz-adv-x="1343" 
d="M176 0v1434h131v-656h729v656h131v-1434h-131v659h-729v-659h-131zM672 -426q-129 0 -207 69t-78 193v12h115v-12q0 -74 44 -119t126 -45q81 0 124.5 45t43.5 119v12h114v-12q0 -124 -77.5 -193t-204.5 -69z" />
    <glyph glyph-name="uni1E2B" unicode="&#x1e2b;" horiz-adv-x="1253" 
d="M180 0v1434h123v-613h25q99 193 360 193q171 0 284 -106t113 -302v-606h-122v598q0 157 -79 231t-222 74q-161 0 -260 -104t-99 -301v-498h-123zM633 -426q-129 0 -207 69t-78 193v12h115v-12q0 -74 44 -119t126 -45q81 0 124.5 45t43.5 119v12h114v-12
q0 -124 -77.5 -193t-204.5 -69z" />
    <glyph glyph-name="uni1E2E" unicode="&#x1e2e;" horiz-adv-x="483" 
d="M145 1855l136 242h159l-168 -242h-127zM434 1561q-46 0 -75 29t-29 75t29 75t75 29t75.5 -29t29.5 -75t-29.5 -75t-75.5 -29zM49 1561q-46 0 -75 29t-29 75t29 75t75 29t75.5 -29t29.5 -75t-29.5 -75t-75.5 -29zM176 0v1434h131v-1434h-131z" />
    <glyph glyph-name="uni1E2F" unicode="&#x1e2f;" horiz-adv-x="483" 
d="M154 1483l159 270h156l-188 -270h-127zM426 1167q-46 0 -75 29.5t-29 75.5t29 75t75 29t75 -29t29 -75t-29 -75.5t-75 -29.5zM57 1167q-46 0 -75 29.5t-29 75.5t29 75t75 29t75.5 -29t29.5 -75t-29.5 -75.5t-75.5 -29.5zM180 0v995h123v-995h-123z" />
    <glyph glyph-name="uni1E36" unicode="&#x1e36;" horiz-adv-x="1120" 
d="M176 0v1434h131v-1315h754v-119h-885zM618 -385q-46 0 -76 30t-30 76t30 76.5t76 30.5t76.5 -30.5t30.5 -76.5t-30.5 -76t-76.5 -30z" />
    <glyph glyph-name="uni1E37" unicode="&#x1e37;" horiz-adv-x="483" 
d="M180 0v1434h123v-1434h-123zM242 -385q-46 0 -76.5 30t-30.5 76t30.5 76.5t76.5 30.5t76 -30.5t30 -76.5t-30 -76t-76 -30z" />
    <glyph glyph-name="uni1E38" unicode="&#x1e38;" horiz-adv-x="1120" 
d="M-68 1585v107h615v-107h-615zM176 0v1434h131v-1315h754v-119h-885zM618 -385q-46 0 -76 30t-30 76t30 76.5t76 30.5t76.5 -30.5t30.5 -76.5t-30.5 -76t-76.5 -30z" />
    <glyph glyph-name="uni1E39" unicode="&#x1e39;" horiz-adv-x="483" 
d="M-66 1585v107h615v-107h-615zM180 0v1434h123v-1434h-123zM242 -385q-46 0 -76.5 30t-30.5 76t30.5 76.5t76.5 30.5t76 -30.5t30 -76.5t-30 -76t-76 -30z" />
    <glyph glyph-name="uni1E3A" unicode="&#x1e3a;" horiz-adv-x="1120" 
d="M176 0v1434h131v-1315h754v-119h-885zM311 -295v107h615v-107h-615z" />
    <glyph glyph-name="uni1E3B" unicode="&#x1e3b;" horiz-adv-x="483" 
d="M180 0v1434h123v-1434h-123zM-66 -295v107h615v-107h-615z" />
    <glyph glyph-name="uni1E42" unicode="&#x1e42;" horiz-adv-x="1757" 
d="M176 0v1434h256l434 -1356h25l434 1356h256v-1434h-127v1356h-24l-435 -1356h-233l-434 1356h-25v-1356h-127zM879 -385q-46 0 -76.5 30t-30.5 76t30.5 76.5t76.5 30.5t76 -30.5t30 -76.5t-30 -76t-76 -30z" />
    <glyph glyph-name="uni1E43" unicode="&#x1e43;" horiz-adv-x="1765" 
d="M180 0v995h119v-131h25q84 152 290 152q113 0 190 -53t114 -136h24q82 189 315 189q152 0 246 -92.5t94 -241.5v-682h-122v670q0 107 -65.5 171t-180.5 64q-123 0 -201 -79t-78 -222v-604h-123v670q0 107 -65 171t-180 64q-123 0 -201 -79t-78 -222v-604h-123zM889 -385
q-46 0 -76.5 30t-30.5 76t30.5 76.5t76.5 30.5t76 -30.5t30 -76.5t-30 -76t-76 -30z" />
    <glyph glyph-name="uni1E44" unicode="&#x1e44;" horiz-adv-x="1353" 
d="M686 1561q-46 0 -76 30t-30 76t30 76.5t76 30.5t76.5 -30.5t30.5 -76.5t-30.5 -76t-76.5 -30zM176 0v1434h260l586 -1356h25v1356h131v-1434h-260l-586 1358h-25v-1358h-131z" />
    <glyph glyph-name="uni1E45" unicode="&#x1e45;" horiz-adv-x="1253" 
d="M635 1167q-46 0 -76.5 30.5t-30.5 76.5t30.5 76t76.5 30t76 -30t30 -76t-30 -76.5t-76 -30.5zM180 0v995h119v-184h25q95 205 364 205q82 0 153 -26t126 -75.5t86.5 -129t31.5 -179.5v-606h-122v598q0 157 -79.5 232t-221.5 75q-160 0 -259.5 -105t-99.5 -302v-498h-123z
" />
    <glyph glyph-name="uni1E46" unicode="&#x1e46;" horiz-adv-x="1353" 
d="M176 0v1434h260l586 -1356h25v1356h131v-1434h-260l-586 1358h-25v-1358h-131zM684 -385q-46 0 -76 30t-30 76t30 76.5t76 30.5t76.5 -30.5t30.5 -76.5t-30.5 -76t-76.5 -30z" />
    <glyph glyph-name="uni1E47" unicode="&#x1e47;" horiz-adv-x="1253" 
d="M180 0v995h119v-184h25q95 205 364 205q82 0 153 -26t126 -75.5t86.5 -129t31.5 -179.5v-606h-122v598q0 157 -79.5 232t-221.5 75q-160 0 -259.5 -105t-99.5 -302v-498h-123zM633 -385q-46 0 -76.5 30t-30.5 76t30.5 76.5t76.5 30.5t76 -30.5t30 -76.5t-30 -76t-76 -30z
" />
    <glyph glyph-name="uni1E48" unicode="&#x1e48;" horiz-adv-x="1353" 
d="M176 0v1434h260l586 -1356h25v1356h131v-1434h-260l-586 1358h-25v-1358h-131zM377 -295v107h614v-107h-614z" />
    <glyph glyph-name="uni1E49" unicode="&#x1e49;" horiz-adv-x="1253" 
d="M180 0v995h119v-184h25q95 205 364 205q82 0 153 -26t126 -75.5t86.5 -129t31.5 -179.5v-606h-122v598q0 157 -79.5 232t-221.5 75q-160 0 -259.5 -105t-99.5 -302v-498h-123zM326 -295v107h614v-107h-614z" />
    <glyph glyph-name="uni1E4C" unicode="&#x1e4c;" horiz-adv-x="1363" 
d="M586 1872l135 242h160l-168 -242h-127zM436 1563l-82 49l66 108q52 86 137 86q45 0 81 -22t81 -70q31 -34 48 -46.5t38 -12.5q36 0 61 43l62 98l82 -49l-66 -109q-52 -86 -137 -86q-44 0 -80.5 22.5t-81.5 70.5q-31 34 -48 46.5t-38 12.5q-36 0 -63 -45zM682 -29
q-257 0 -404 151t-147 433v324q0 282 147 432.5t404 150.5t404 -150.5t147 -432.5v-324q0 -282 -147 -433t-404 -151zM682 90q200 0 310 120.5t110 340.5v332q0 219 -110 339.5t-310 120.5t-310 -120.5t-110 -339.5v-332q0 -220 110 -340.5t310 -120.5z" />
    <glyph glyph-name="uni1E4D" unicode="&#x1e4d;" 
d="M547 1413l160 270h155l-188 -270h-127zM410 1120l-86 47l61 115q46 84 131 84q43 0 74.5 -18t68.5 -62q4 -4 12 -13.5t11 -13.5t9.5 -11t10 -10.5t9.5 -8.5t9.5 -7.5t8.5 -5t9.5 -3.5t9.5 -1q33 0 55 39l57 105l86 -47l-61 -115q-46 -84 -131 -84q-43 0 -75 18t-69 62
q-5 5 -15 17t-14 16.5t-12 13t-12.5 12t-11 8t-12 6t-11.5 1.5q-33 0 -55 -39zM635 -29q-227 0 -365.5 141.5t-138.5 372.5v25q0 231 138.5 372.5t365.5 141.5t365.5 -141.5t138.5 -372.5v-25q0 -231 -138.5 -372.5t-365.5 -141.5zM635 82q174 0 277.5 111t103.5 296v17
q0 185 -103.5 296t-277.5 111t-277.5 -111t-103.5 -296v-17q0 -185 103.5 -296t277.5 -111z" />
    <glyph glyph-name="uni1E4E" unicode="&#x1e4e;" horiz-adv-x="1363" 
d="M874 1880q-46 0 -75 29.5t-29 75.5t29 75t75 29t75.5 -29t29.5 -75t-29.5 -75.5t-75.5 -29.5zM489 1880q-46 0 -75 29.5t-29 75.5t29 75t75 29t75.5 -29t29.5 -75t-29.5 -75.5t-75.5 -29.5zM436 1563l-82 49l66 108q52 86 137 86q45 0 81 -22t81 -70q31 -34 48 -46.5
t38 -12.5q36 0 61 43l62 98l82 -49l-66 -109q-52 -86 -137 -86q-44 0 -80.5 22.5t-81.5 70.5q-31 34 -48 46.5t-38 12.5q-36 0 -63 -45zM682 -29q-257 0 -404 151t-147 433v324q0 282 147 432.5t404 150.5t404 -150.5t147 -432.5v-324q0 -282 -147 -433t-404 -151zM682 90
q200 0 310 120.5t110 340.5v332q0 219 -110 339.5t-310 120.5t-310 -120.5t-110 -339.5v-332q0 -220 110 -340.5t310 -120.5z" />
    <glyph glyph-name="uni1E4F" unicode="&#x1e4f;" 
d="M819 1442q-46 0 -75 29t-29 75t29 75.5t75 29.5t75.5 -29.5t29.5 -75.5t-29.5 -75t-75.5 -29zM451 1442q-46 0 -75.5 29t-29.5 75t29.5 75.5t75.5 29.5t75 -29.5t29 -75.5t-29 -75t-75 -29zM410 1120l-86 47l61 115q46 84 131 84q43 0 74.5 -18t68.5 -62q4 -4 12 -13.5
t11 -13.5t9.5 -11t10 -10.5t9.5 -8.5t9.5 -7.5t8.5 -5t9.5 -3.5t9.5 -1q33 0 55 39l57 105l86 -47l-61 -115q-46 -84 -131 -84q-43 0 -75 18t-69 62q-5 5 -15 17t-14 16.5t-12 13t-12.5 12t-11 8t-12 6t-11.5 1.5q-33 0 -55 -39zM635 -29q-227 0 -365.5 141.5t-138.5 372.5
v25q0 231 138.5 372.5t365.5 141.5t365.5 -141.5t138.5 -372.5v-25q0 -231 -138.5 -372.5t-365.5 -141.5zM635 82q174 0 277.5 111t103.5 296v17q0 185 -103.5 296t-277.5 111t-277.5 -111t-103.5 -296v-17q0 -185 103.5 -296t277.5 -111z" />
    <glyph glyph-name="uni1E50" unicode="&#x1e50;" horiz-adv-x="1363" 
d="M651 1835l-168 242h160l135 -242h-127zM375 1585v107h614v-107h-614zM682 -29q-257 0 -404 151t-147 433v324q0 282 147 432.5t404 150.5t404 -150.5t147 -432.5v-324q0 -282 -147 -433t-404 -151zM682 90q200 0 310 120.5t110 340.5v332q0 219 -110 339.5t-310 120.5
t-310 -120.5t-110 -339.5v-332q0 -220 110 -340.5t310 -120.5z" />
    <glyph glyph-name="uni1E51" unicode="&#x1e51;" 
d="M596 1458l-188 271h157l158 -271h-127zM328 1184v106h614v-106h-614zM635 -29q-227 0 -365.5 141.5t-138.5 372.5v25q0 231 138.5 372.5t365.5 141.5t365.5 -141.5t138.5 -372.5v-25q0 -231 -138.5 -372.5t-365.5 -141.5zM635 82q174 0 277.5 111t103.5 296v17
q0 185 -103.5 296t-277.5 111t-277.5 -111t-103.5 -296v-17q0 -185 103.5 -296t277.5 -111z" />
    <glyph glyph-name="uni1E52" unicode="&#x1e52;" horiz-adv-x="1363" 
d="M586 1827l135 241h160l-168 -241h-127zM375 1585v107h614v-107h-614zM682 -29q-257 0 -404 151t-147 433v324q0 282 147 432.5t404 150.5t404 -150.5t147 -432.5v-324q0 -282 -147 -433t-404 -151zM682 90q200 0 310 120.5t110 340.5v332q0 219 -110 339.5t-310 120.5
t-310 -120.5t-110 -339.5v-332q0 -220 110 -340.5t310 -120.5z" />
    <glyph glyph-name="uni1E53" unicode="&#x1e53;" 
d="M547 1434l160 270h155l-188 -270h-127zM328 1184v106h614v-106h-614zM635 -29q-227 0 -365.5 141.5t-138.5 372.5v25q0 231 138.5 372.5t365.5 141.5t365.5 -141.5t138.5 -372.5v-25q0 -231 -138.5 -372.5t-365.5 -141.5zM635 82q174 0 277.5 111t103.5 296v17
q0 185 -103.5 296t-277.5 111t-277.5 -111t-103.5 -296v-17q0 -185 103.5 -296t277.5 -111z" />
    <glyph glyph-name="uni1E5A" unicode="&#x1e5a;" horiz-adv-x="1292" 
d="M176 0v1434h561q202 0 327.5 -101.5t125.5 -279.5v-21q0 -138 -66 -223.5t-168 -114.5v-24q76 -3 123 -48.5t47 -134.5v-487h-131v473q0 135 -143 135h-545v-608h-131zM307 727h418q160 0 247 75t87 214v10q0 140 -86 214.5t-248 74.5h-418v-588zM653 -385q-46 0 -76 30
t-30 76t30 76.5t76 30.5t76.5 -30.5t30.5 -76.5t-30.5 -76t-76.5 -30z" />
    <glyph glyph-name="uni1E5B" unicode="&#x1e5b;" horiz-adv-x="755" 
d="M180 0v995h119v-125h25q28 68 85 98.5t156 30.5h117v-114h-131q-117 0 -182.5 -65.5t-65.5 -196.5v-623h-123zM242 -385q-46 0 -76.5 30t-30.5 76t30.5 76.5t76.5 30.5t76 -30.5t30 -76.5t-30 -76t-76 -30z" />
    <glyph glyph-name="uni1E5C" unicode="&#x1e5c;" horiz-adv-x="1292" 
d="M328 1585v107h614v-107h-614zM176 0v1434h561q202 0 327.5 -101.5t125.5 -279.5v-21q0 -138 -66 -223.5t-168 -114.5v-24q76 -3 123 -48.5t47 -134.5v-487h-131v473q0 135 -143 135h-545v-608h-131zM307 727h418q160 0 247 75t87 214v10q0 140 -86 214.5t-248 74.5h-418
v-588zM653 -385q-46 0 -76 30t-30 76t30 76.5t76 30.5t76.5 -30.5t30.5 -76.5t-30.5 -76t-76.5 -30z" />
    <glyph glyph-name="uni1E5D" unicode="&#x1e5d;" horiz-adv-x="755" 
d="M125 1184v106h614v-106h-614zM180 0v995h119v-125h25q28 68 85 98.5t156 30.5h117v-114h-131q-117 0 -182.5 -65.5t-65.5 -196.5v-623h-123zM242 -385q-46 0 -76.5 30t-30.5 76t30.5 76.5t76.5 30.5t76 -30.5t30 -76.5t-30 -76t-76 -30z" />
    <glyph glyph-name="uni1E5E" unicode="&#x1e5e;" horiz-adv-x="1292" 
d="M176 0v1434h561q202 0 327.5 -101.5t125.5 -279.5v-21q0 -138 -66 -223.5t-168 -114.5v-24q76 -3 123 -48.5t47 -134.5v-487h-131v473q0 135 -143 135h-545v-608h-131zM307 727h418q160 0 247 75t87 214v10q0 140 -86 214.5t-248 74.5h-418v-588zM346 -295v107h615v-107
h-615z" />
    <glyph glyph-name="uni1E5F" unicode="&#x1e5f;" horiz-adv-x="755" 
d="M180 0v995h119v-125h25q28 68 85 98.5t156 30.5h117v-114h-131q-117 0 -182.5 -65.5t-65.5 -196.5v-623h-123zM-66 -295v107h615v-107h-615z" />
    <glyph glyph-name="uni1E60" unicode="&#x1e60;" horiz-adv-x="1261" 
d="M629 1561q-46 0 -76.5 30t-30.5 76t30.5 76.5t76.5 30.5t76 -30.5t30 -76.5t-30 -76t-76 -30zM645 -29q-116 0 -212.5 31t-169 91.5t-112.5 158t-40 223.5v39h131v-39q0 -193 109 -291t294 -98q175 0 273 81.5t98 213.5q0 50 -16.5 90t-43 68t-71 51t-90.5 38t-111 31
l-131 33q-95 24 -164.5 53.5t-127 75t-87 110.5t-29.5 150q0 173 131.5 277t344.5 104q143 0 254.5 -47.5t179 -147t67.5 -237.5v-96h-131v96q0 160 -102 239t-268 79q-155 0 -250 -70.5t-95 -196.5q0 -51 15.5 -90t40.5 -66.5t68.5 -49.5t88.5 -37t111 -31l131 -33
q74 -18 130 -38t112 -52t92.5 -72.5t59 -99t22.5 -131.5q0 -187 -137 -298.5t-365 -111.5z" />
    <glyph glyph-name="uni1E61" unicode="&#x1e61;" horiz-adv-x="1081" 
d="M535 1167q-46 0 -76.5 30.5t-30.5 76.5t30.5 76t76.5 30t76 -30t30 -76t-30 -76.5t-76 -30.5zM575 -29q-191 0 -314 90.5t-150 280.5l120 23q22 -152 115 -219.5t229 -67.5q125 0 199 50t74 138q0 43 -17.5 74t-54.5 51t-79 32t-107 23l-94 17q-334 58 -334 285
q0 128 100 202t270 74q169 0 272.5 -76.5t131.5 -222.5l-115 -25q-37 218 -289 218q-116 0 -181.5 -44t-65.5 -126q0 -78 57 -117.5t172 -59.5l94 -16q83 -14 143.5 -34t113 -52.5t79.5 -83.5t27 -119q0 -140 -106.5 -217.5t-289.5 -77.5z" />
    <glyph glyph-name="uni1E62" unicode="&#x1e62;" horiz-adv-x="1261" 
d="M645 -29q-116 0 -212.5 31t-169 91.5t-112.5 158t-40 223.5v39h131v-39q0 -193 109 -291t294 -98q175 0 273 81.5t98 213.5q0 50 -16.5 90t-43 68t-71 51t-90.5 38t-111 31l-131 33q-95 24 -164.5 53.5t-127 75t-87 110.5t-29.5 150q0 173 131.5 277t344.5 104
q143 0 254.5 -47.5t179 -147t67.5 -237.5v-96h-131v96q0 160 -102 239t-268 79q-155 0 -250 -70.5t-95 -196.5q0 -51 15.5 -90t40.5 -66.5t68.5 -49.5t88.5 -37t111 -31l131 -33q74 -18 130 -38t112 -52t92.5 -72.5t59 -99t22.5 -131.5q0 -187 -137 -298.5t-365 -111.5z
M655 -385q-46 0 -76 30t-30 76t30 76.5t76 30.5t76.5 -30.5t30.5 -76.5t-30.5 -76t-76.5 -30z" />
    <glyph glyph-name="uni1E63" unicode="&#x1e63;" horiz-adv-x="1081" 
d="M575 -29q-191 0 -314 90.5t-150 280.5l120 23q22 -152 115 -219.5t229 -67.5q125 0 199 50t74 138q0 43 -17.5 74t-54.5 51t-79 32t-107 23l-94 17q-334 58 -334 285q0 128 100 202t270 74q169 0 272.5 -76.5t131.5 -222.5l-115 -25q-37 218 -289 218q-116 0 -181.5 -44
t-65.5 -126q0 -78 57 -117.5t172 -59.5l94 -16q83 -14 143.5 -34t113 -52.5t79.5 -83.5t27 -119q0 -140 -106.5 -217.5t-289.5 -77.5zM561 -385q-46 0 -76 30t-30 76t30 76.5t76 30.5t76.5 -30.5t30.5 -76.5t-30.5 -76t-76.5 -30z" />
    <glyph glyph-name="uni1E64" unicode="&#x1e64;" horiz-adv-x="1261" 
d="M696 1552l135 242h160l-168 -242h-127zM465 1561q-46 0 -76.5 30t-30.5 76t30.5 76.5t76.5 30.5t76 -30.5t30 -76.5t-30 -76t-76 -30zM645 -29q-116 0 -212.5 31t-169 91.5t-112.5 158t-40 223.5v39h131v-39q0 -193 109 -291t294 -98q175 0 273 81.5t98 213.5
q0 50 -16.5 90t-43 68t-71 51t-90.5 38t-111 31l-131 33q-95 24 -164.5 53.5t-127 75t-87 110.5t-29.5 150q0 173 131.5 277t344.5 104q143 0 254.5 -47.5t179 -147t67.5 -237.5v-96h-131v96q0 160 -102 239t-268 79q-155 0 -250 -70.5t-95 -196.5q0 -51 15.5 -90
t40.5 -66.5t68.5 -49.5t88.5 -37t111 -31l131 -33q74 -18 130 -38t112 -52t92.5 -72.5t59 -99t22.5 -131.5q0 -187 -137 -298.5t-365 -111.5z" />
    <glyph glyph-name="uni1E65" unicode="&#x1e65;" horiz-adv-x="1081" 
d="M590 1139l160 270h155l-188 -270h-127zM391 1167q-46 0 -76 30.5t-30 76.5t30 76t76 30t76.5 -30t30.5 -76t-30.5 -76.5t-76.5 -30.5zM575 -29q-191 0 -314 90.5t-150 280.5l120 23q22 -152 115 -219.5t229 -67.5q125 0 199 50t74 138q0 43 -17.5 74t-54.5 51t-79 32
t-107 23l-94 17q-334 58 -334 285q0 128 100 202t270 74q169 0 272.5 -76.5t131.5 -222.5l-115 -25q-37 218 -289 218q-116 0 -181.5 -44t-65.5 -126q0 -78 57 -117.5t172 -59.5l94 -16q83 -14 143.5 -34t113 -52.5t79.5 -83.5t27 -119q0 -140 -106.5 -217.5t-289.5 -77.5z
" />
    <glyph glyph-name="uni1E66" unicode="&#x1e66;" horiz-adv-x="1261" 
d="M629 1843q-46 0 -76.5 30.5t-30.5 76.5t30.5 76t76.5 30t76 -30t30 -76t-30 -76.5t-76 -30.5zM557 1552l-270 242h166l163 -156h25l164 156h166l-271 -242h-143zM645 -29q-116 0 -212.5 31t-169 91.5t-112.5 158t-40 223.5v39h131v-39q0 -193 109 -291t294 -98
q175 0 273 81.5t98 213.5q0 50 -16.5 90t-43 68t-71 51t-90.5 38t-111 31l-131 33q-95 24 -164.5 53.5t-127 75t-87 110.5t-29.5 150q0 173 131.5 277t344.5 104q143 0 254.5 -47.5t179 -147t67.5 -237.5v-96h-131v96q0 160 -102 239t-268 79q-155 0 -250 -70.5t-95 -196.5
q0 -51 15.5 -90t40.5 -66.5t68.5 -49.5t88.5 -37t111 -31l131 -33q74 -18 130 -38t112 -52t92.5 -72.5t59 -99t22.5 -131.5q0 -187 -137 -298.5t-365 -111.5z" />
    <glyph glyph-name="uni1E67" unicode="&#x1e67;" horiz-adv-x="1081" 
d="M535 1483q-46 0 -76.5 30t-30.5 76t30.5 76.5t76.5 30.5t76 -30.5t30 -76.5t-30 -76t-76 -30zM457 1139l-258 270h151l172 -180h25l172 180h151l-258 -270h-155zM575 -29q-191 0 -314 90.5t-150 280.5l120 23q22 -152 115 -219.5t229 -67.5q125 0 199 50t74 138
q0 43 -17.5 74t-54.5 51t-79 32t-107 23l-94 17q-334 58 -334 285q0 128 100 202t270 74q169 0 272.5 -76.5t131.5 -222.5l-115 -25q-37 218 -289 218q-116 0 -181.5 -44t-65.5 -126q0 -78 57 -117.5t172 -59.5l94 -16q83 -14 143.5 -34t113 -52.5t79.5 -83.5t27 -119
q0 -140 -106.5 -217.5t-289.5 -77.5z" />
    <glyph glyph-name="uni1E68" unicode="&#x1e68;" horiz-adv-x="1261" 
d="M629 1561q-46 0 -76.5 30t-30.5 76t30.5 76.5t76.5 30.5t76 -30.5t30 -76.5t-30 -76t-76 -30zM645 -29q-116 0 -212.5 31t-169 91.5t-112.5 158t-40 223.5v39h131v-39q0 -193 109 -291t294 -98q175 0 273 81.5t98 213.5q0 50 -16.5 90t-43 68t-71 51t-90.5 38t-111 31
l-131 33q-95 24 -164.5 53.5t-127 75t-87 110.5t-29.5 150q0 173 131.5 277t344.5 104q143 0 254.5 -47.5t179 -147t67.5 -237.5v-96h-131v96q0 160 -102 239t-268 79q-155 0 -250 -70.5t-95 -196.5q0 -51 15.5 -90t40.5 -66.5t68.5 -49.5t88.5 -37t111 -31l131 -33
q74 -18 130 -38t112 -52t92.5 -72.5t59 -99t22.5 -131.5q0 -187 -137 -298.5t-365 -111.5zM655 -385q-46 0 -76 30t-30 76t30 76.5t76 30.5t76.5 -30.5t30.5 -76.5t-30.5 -76t-76.5 -30z" />
    <glyph glyph-name="uni1E69" unicode="&#x1e69;" horiz-adv-x="1081" 
d="M535 1167q-46 0 -76.5 30.5t-30.5 76.5t30.5 76t76.5 30t76 -30t30 -76t-30 -76.5t-76 -30.5zM575 -29q-191 0 -314 90.5t-150 280.5l120 23q22 -152 115 -219.5t229 -67.5q125 0 199 50t74 138q0 43 -17.5 74t-54.5 51t-79 32t-107 23l-94 17q-334 58 -334 285
q0 128 100 202t270 74q169 0 272.5 -76.5t131.5 -222.5l-115 -25q-37 218 -289 218q-116 0 -181.5 -44t-65.5 -126q0 -78 57 -117.5t172 -59.5l94 -16q83 -14 143.5 -34t113 -52.5t79.5 -83.5t27 -119q0 -140 -106.5 -217.5t-289.5 -77.5zM561 -385q-46 0 -76 30t-30 76
t30 76.5t76 30.5t76.5 -30.5t30.5 -76.5t-30.5 -76t-76.5 -30z" />
    <glyph glyph-name="uni1E6C" unicode="&#x1e6c;" horiz-adv-x="1204" 
d="M537 0v1315h-480v119h1090v-119h-479v-1315h-131zM604 -385q-46 0 -76 30t-30 76t30 76.5t76 30.5t76.5 -30.5t30.5 -76.5t-30.5 -76t-76.5 -30z" />
    <glyph glyph-name="uni1E6D" unicode="&#x1e6d;" horiz-adv-x="946" 
d="M541 0q-79 0 -119.5 41t-40.5 115v729h-320v110h320v373h123v-373h348v-110h-348v-713q0 -32 14 -46.5t47 -14.5h234v-111h-258zM535 -385q-46 0 -76.5 30t-30.5 76t30.5 76.5t76.5 30.5t76 -30.5t30 -76.5t-30 -76t-76 -30z" />
    <glyph glyph-name="uni1E6E" unicode="&#x1e6e;" horiz-adv-x="1204" 
d="M537 0v1315h-480v119h1090v-119h-479v-1315h-131zM297 -295v107h614v-107h-614z" />
    <glyph glyph-name="uni1E6F" unicode="&#x1e6f;" horiz-adv-x="946" 
d="M541 0q-79 0 -119.5 41t-40.5 115v729h-320v110h320v373h123v-373h348v-110h-348v-713q0 -32 14 -46.5t47 -14.5h234v-111h-258zM369 -295v107h430v-107h-430z" />
    <glyph glyph-name="uni1E78" unicode="&#x1e78;" horiz-adv-x="1359" 
d="M584 1872l135 242h160l-168 -242h-127zM434 1563l-82 49l66 108q52 86 137 86q45 0 81 -22t81 -70q31 -34 48 -46.5t38 -12.5q36 0 61 43l62 98l82 -49l-66 -109q-52 -86 -137 -86q-44 0 -80.5 22.5t-81.5 70.5q-31 34 -48 46.5t-38 12.5q-36 0 -63 -45zM680 -29
q-238 0 -377 126.5t-139 371.5v965h131v-965q0 -189 99.5 -284t285.5 -95t285.5 95t99.5 284v965h131v-965q0 -245 -139 -371.5t-377 -126.5z" />
    <glyph glyph-name="uni1E79" unicode="&#x1e79;" horiz-adv-x="1251" 
d="M530 1413l160 270h156l-189 -270h-127zM393 1120l-86 47l62 115q46 84 131 84q43 0 74.5 -18t68.5 -62q5 -5 15 -17t14 -16.5t12 -13t12.5 -12t11 -8t12 -6t11.5 -1.5q33 0 55 39l58 105l86 -47l-62 -115q-46 -84 -131 -84q-43 0 -74.5 18t-68.5 62q-5 5 -15 17t-14 16.5
t-12 13t-12.5 12t-11 8t-12 6t-11.5 1.5q-33 0 -55 -39zM563 -20q-110 0 -198.5 44t-143.5 138.5t-55 226.5v606h123v-598q0 -157 79.5 -232t221.5 -75q160 0 259 105.5t99 302.5v497h123v-995h-119v184h-24q-94 -204 -365 -204z" />
    <glyph glyph-name="uni1E7A" unicode="&#x1e7a;" horiz-adv-x="1359" 
d="M872 1835q-46 0 -75 29t-29 75t29 75.5t75 29.5t75.5 -29.5t29.5 -75.5t-29.5 -75t-75.5 -29zM487 1835q-46 0 -75 29t-29 75t29 75.5t75 29.5t75.5 -29.5t29.5 -75.5t-29.5 -75t-75.5 -29zM373 1585v107h614v-107h-614zM680 -29q-238 0 -377 126.5t-139 371.5v965h131
v-965q0 -189 99.5 -284t285.5 -95t285.5 95t99.5 284v965h131v-965q0 -245 -139 -371.5t-377 -126.5z" />
    <glyph glyph-name="uni1E7B" unicode="&#x1e7b;" horiz-adv-x="1251" 
d="M803 1462q-46 0 -75.5 29.5t-29.5 75.5t29.5 75t75.5 29t75 -29t29 -75t-29 -75.5t-75 -29.5zM434 1462q-46 0 -75 29.5t-29 75.5t29 75t75 29t75.5 -29t29.5 -75t-29.5 -75.5t-75.5 -29.5zM311 1184v106h615v-106h-615zM563 -20q-110 0 -198.5 44t-143.5 138.5
t-55 226.5v606h123v-598q0 -157 79.5 -232t221.5 -75q160 0 259 105.5t99 302.5v497h123v-995h-119v184h-24q-94 -204 -365 -204z" />
    <glyph glyph-name="Wgrave" unicode="&#x1e80;" horiz-adv-x="1773" 
d="M856 1561l-168 241h160l135 -241h-127zM334 0l-252 1434h133l229 -1356h25l297 1356h242l297 -1356h24l230 1356h133l-252 -1434h-244l-297 1356h-25l-296 -1356h-244z" />
    <glyph glyph-name="wgrave" unicode="&#x1e81;" horiz-adv-x="1654" 
d="M788 1163l-188 271h158l157 -271h-127zM344 0l-225 995h127l196 -913h25l256 913h209l256 -913h24l197 913h127l-225 -995h-215l-256 913h-25l-256 -913h-215z" />
    <glyph glyph-name="Wacute" unicode="&#x1e82;" horiz-adv-x="1773" 
d="M791 1552l135 242h159l-167 -242h-127zM334 0l-252 1434h133l229 -1356h25l297 1356h242l297 -1356h24l230 1356h133l-252 -1434h-244l-297 1356h-25l-296 -1356h-244z" />
    <glyph glyph-name="wacute" unicode="&#x1e83;" horiz-adv-x="1654" 
d="M739 1139l160 270h156l-189 -270h-127zM344 0l-225 995h127l196 -913h25l256 913h209l256 -913h24l197 913h127l-225 -995h-215l-256 913h-25l-256 -913h-215z" />
    <glyph glyph-name="Wdieresis" unicode="&#x1e84;" horiz-adv-x="1773" 
d="M1079 1561q-46 0 -75 29t-29 75t29 75t75 29t75.5 -29t29.5 -75t-29.5 -75t-75.5 -29zM694 1561q-46 0 -75 29t-29 75t29 75t75 29t75.5 -29t29.5 -75t-29.5 -75t-75.5 -29zM334 0l-252 1434h133l229 -1356h25l297 1356h242l297 -1356h24l230 1356h133l-252 -1434h-244
l-297 1356h-25l-296 -1356h-244z" />
    <glyph glyph-name="wdieresis" unicode="&#x1e85;" horiz-adv-x="1654" 
d="M1012 1167q-46 0 -75.5 29.5t-29.5 75.5t29.5 75t75.5 29t75 -29t29 -75t-29 -75.5t-75 -29.5zM643 1167q-46 0 -75 29.5t-29 75.5t29 75t75 29t75.5 -29t29.5 -75t-29.5 -75.5t-75.5 -29.5zM344 0l-225 995h127l196 -913h25l256 913h209l256 -913h24l197 913h127
l-225 -995h-215l-256 913h-25l-256 -913h-215z" />
    <glyph glyph-name="uni1E8E" unicode="&#x1e8e;" horiz-adv-x="1236" 
d="M618 1561q-46 0 -76 30t-30 76t30 76.5t76 30.5t76.5 -30.5t30.5 -76.5t-30.5 -76t-76.5 -30zM553 0v567l-520 867h155l418 -717h25l418 717h155l-520 -867v-567h-131z" />
    <glyph glyph-name="uni1E8F" unicode="&#x1e8f;" horiz-adv-x="1251" 
d="M621 1167q-46 0 -76.5 30.5t-30.5 76.5t30.5 76t76.5 30t76 -30t30 -76t-30 -76.5t-76 -30.5zM305 -410v111h582q33 0 47 14.5t14 46.5v410h-24q-98 -192 -361 -192q-171 0 -284 105.5t-113 301.5v608h123v-600q0 -157 79 -231t222 -74q160 0 259 104.5t99 301.5v499h123
v-1249q0 -74 -40.5 -115t-119.5 -41h-606z" />
    <glyph glyph-name="uni1E92" unicode="&#x1e92;" horiz-adv-x="1183" 
d="M106 0v180l836 1114v21h-811v119h934v-181l-836 -1114v-20h856v-119h-979zM582 -385q-46 0 -76.5 30t-30.5 76t30.5 76.5t76.5 30.5t76 -30.5t30 -76.5t-30 -76t-76 -30z" />
    <glyph glyph-name="uni1E93" unicode="&#x1e93;" horiz-adv-x="1069" 
d="M131 0v168l670 696v21h-649v110h774v-168l-672 -696v-20h688v-111h-811zM537 -385q-46 0 -76.5 30t-30.5 76t30.5 76.5t76.5 30.5t76 -30.5t30 -76.5t-30 -76t-76 -30z" />
    <glyph glyph-name="uni1E97" unicode="&#x1e97;" horiz-adv-x="946" 
d="M627 1507q-46 0 -75.5 29.5t-29.5 75.5t29.5 75t75.5 29t75 -29t29 -75t-29 -75.5t-75 -29.5zM258 1507q-46 0 -75 29.5t-29 75.5t29 75t75 29t75 -29t29 -75t-29 -75.5t-75 -29.5zM541 0q-79 0 -119.5 41t-40.5 115v729h-320v110h320v373h123v-373h348v-110h-348v-713
q0 -32 14 -46.5t47 -14.5h234v-111h-258z" />
    <glyph glyph-name="uni1E9E" unicode="&#x1e9e;" horiz-adv-x="1280" 
d="M834 -29q-177 0 -282.5 99t-105.5 274h132q0 -124 69 -189t187 -65q113 0 176 57t63 154q0 46 -15 82t-45 62.5t-59 43.5t-73 37l-97 43q-172 76 -172 215q0 66 31 116t96 112l299 282v21h-381q-167 0 -264.5 -93.5t-97.5 -295.5v-926h-131v918q0 253 132 384.5
t361 131.5h517v-181l-365 -344q-66 -63 -66 -123q0 -37 24.5 -61.5t74.5 -46.5l96 -43q45 -20 78.5 -39t71 -48.5t61.5 -62.5t39.5 -80.5t15.5 -103.5q0 -147 -99 -238.5t-271 -91.5z" />
    <glyph glyph-name="uni1EA0" unicode="&#x1ea0;" horiz-adv-x="1286" 
d="M57 0l469 1434h234l469 -1434h-137l-123 381h-652l-122 -381h-138zM354 500h578l-277 856h-24zM643 -385q-46 0 -76 30t-30 76t30 76.5t76 30.5t76.5 -30.5t30.5 -76.5t-30.5 -76t-76.5 -30z" />
    <glyph glyph-name="uni1EA1" unicode="&#x1ea1;" horiz-adv-x="1175" 
d="M485 -29q-163 0 -267.5 82.5t-104.5 227.5q0 144 102.5 220.5t265.5 76.5h365v79q0 121 -70.5 188.5t-202.5 67.5q-128 0 -206 -63t-105 -174l-119 35q38 140 146 226.5t284 86.5q187 0 291.5 -99t104.5 -274v-483q0 -62 57 -62h96v-106h-131q-63 0 -100 37.5t-37 103.5
v15h-20q-22 -39 -49 -68.5t-67.5 -57.5t-99.5 -43.5t-133 -15.5zM494 82q161 0 256.5 96.5t95.5 267.5v25h-363q-111 0 -179 -48t-68 -140q0 -95 71 -148t187 -53zM588 -385q-46 0 -76.5 30t-30.5 76t30.5 76.5t76.5 30.5t76 -30.5t30 -76.5t-30 -76t-76 -30z" />
    <glyph glyph-name="uni1EA2" unicode="&#x1ea2;" horiz-adv-x="1286" 
d="M604 1532l-16 149h74q47 0 74.5 20t27.5 56q0 38 -28.5 58t-73.5 20q-80 0 -154 -57l-53 82q89 69 207 69q89 0 146.5 -42.5t57.5 -121.5q0 -76 -46.5 -117.5t-127.5 -41.5l8 -74h-96zM57 0l469 1434h234l469 -1434h-137l-123 381h-652l-122 -381h-138zM354 500h578
l-277 856h-24z" />
    <glyph glyph-name="uni1EA3" unicode="&#x1ea3;" horiz-adv-x="1175" 
d="M539 1122l-17 150h74q47 0 74.5 20t27.5 56q0 38 -28.5 57.5t-73.5 19.5q-80 0 -154 -57l-53 82q90 70 207 70q89 0 147 -42.5t58 -121.5q0 -76 -47 -118t-127 -42l8 -74h-96zM485 -29q-163 0 -267.5 82.5t-104.5 227.5q0 144 102.5 220.5t265.5 76.5h365v79
q0 121 -70.5 188.5t-202.5 67.5q-128 0 -206 -63t-105 -174l-119 35q38 140 146 226.5t284 86.5q187 0 291.5 -99t104.5 -274v-483q0 -62 57 -62h96v-106h-131q-63 0 -100 37.5t-37 103.5v15h-20q-22 -39 -49 -68.5t-67.5 -57.5t-99.5 -43.5t-133 -15.5zM494 82
q161 0 256.5 96.5t95.5 267.5v25h-363q-111 0 -179 -48t-68 -140q0 -95 71 -148t187 -53z" />
    <glyph glyph-name="uni1EA4" unicode="&#x1ea4;" horiz-adv-x="1286" 
d="M866 1759l117 250h147l-143 -250h-121zM301 1552l270 242h144l270 -242h-166l-164 156h-24l-164 -156h-166zM57 0l469 1434h234l469 -1434h-137l-123 381h-652l-122 -381h-138zM354 500h578l-277 856h-24z" />
    <glyph glyph-name="uni1EA5" unicode="&#x1ea5;" horiz-adv-x="1175" 
d="M846 1360l123 291h143l-149 -291h-117zM242 1139l258 270h155l258 -270h-151l-172 180h-25l-172 -180h-151zM485 -29q-163 0 -267.5 82.5t-104.5 227.5q0 144 102.5 220.5t265.5 76.5h365v79q0 121 -70.5 188.5t-202.5 67.5q-128 0 -206 -63t-105 -174l-119 35
q38 140 146 226.5t284 86.5q187 0 291.5 -99t104.5 -274v-483q0 -62 57 -62h96v-106h-131q-63 0 -100 37.5t-37 103.5v15h-20q-22 -39 -49 -68.5t-67.5 -57.5t-99.5 -43.5t-133 -15.5zM494 82q161 0 256.5 96.5t95.5 267.5v25h-363q-111 0 -179 -48t-68 -140q0 -95 71 -148
t187 -53z" />
    <glyph glyph-name="uni1EA6" unicode="&#x1ea6;" horiz-adv-x="1286" 
d="M915 1759l-149 250h147l121 -250h-119zM301 1552l270 242h144l270 -242h-166l-164 156h-24l-164 -156h-166zM57 0l469 1434h234l469 -1434h-137l-123 381h-652l-122 -381h-138zM354 500h578l-277 856h-24z" />
    <glyph glyph-name="uni1EA7" unicode="&#x1ea7;" horiz-adv-x="1175" 
d="M899 1360l-162 291h144l135 -291h-117zM242 1139l258 270h155l258 -270h-151l-172 180h-25l-172 -180h-151zM485 -29q-163 0 -267.5 82.5t-104.5 227.5q0 144 102.5 220.5t265.5 76.5h365v79q0 121 -70.5 188.5t-202.5 67.5q-128 0 -206 -63t-105 -174l-119 35
q38 140 146 226.5t284 86.5q187 0 291.5 -99t104.5 -274v-483q0 -62 57 -62h96v-106h-131q-63 0 -100 37.5t-37 103.5v15h-20q-22 -39 -49 -68.5t-67.5 -57.5t-99.5 -43.5t-133 -15.5zM494 82q161 0 256.5 96.5t95.5 267.5v25h-363q-111 0 -179 -48t-68 -140q0 -95 71 -148
t187 -53z" />
    <glyph glyph-name="uni1EA8" unicode="&#x1ea8;" horiz-adv-x="1286" 
d="M899 1749l-16 149h73q47 0 75 20t28 56q0 38 -29 58t-74 20q-79 0 -153 -57l-53 82q89 69 206 69q89 0 147 -42.5t58 -121.5q0 -76 -46.5 -117.5t-127.5 -41.5l8 -74h-96zM301 1552l270 242h144l270 -242h-166l-164 156h-24l-164 -156h-166zM57 0l469 1434h234l469 -1434
h-137l-123 381h-652l-122 -381h-138zM354 500h578l-277 856h-24z" />
    <glyph glyph-name="uni1EA9" unicode="&#x1ea9;" horiz-adv-x="1175" 
d="M836 1352l-17 149h74q47 0 74.5 20t27.5 56q0 38 -28.5 58t-73.5 20q-78 0 -154 -58l-53 82q90 70 207 70q89 0 147 -42.5t58 -121.5q0 -76 -47 -118t-127 -42l8 -73h-96zM242 1139l258 270h155l258 -270h-151l-172 180h-25l-172 -180h-151zM485 -29q-163 0 -267.5 82.5
t-104.5 227.5q0 144 102.5 220.5t265.5 76.5h365v79q0 121 -70.5 188.5t-202.5 67.5q-128 0 -206 -63t-105 -174l-119 35q38 140 146 226.5t284 86.5q187 0 291.5 -99t104.5 -274v-483q0 -62 57 -62h96v-106h-131q-63 0 -100 37.5t-37 103.5v15h-20q-22 -39 -49 -68.5
t-67.5 -57.5t-99.5 -43.5t-133 -15.5zM494 82q161 0 256.5 96.5t95.5 267.5v25h-363q-111 0 -179 -48t-68 -140q0 -95 71 -148t187 -53z" />
    <glyph glyph-name="uni1EAA" unicode="&#x1eaa;" horiz-adv-x="1286" 
d="M397 1890l-82 49l66 109q52 86 137 86q45 0 81 -22t81 -70q32 -35 48.5 -47.5t37.5 -12.5q36 0 61 43l62 99l82 -49l-66 -109q-52 -86 -137 -86q-45 0 -81 22t-81 70q-32 35 -48.5 47.5t-37.5 12.5q-36 0 -63 -45zM301 1552l270 242h144l270 -242h-166l-164 156h-24
l-164 -156h-166zM57 0l469 1434h234l469 -1434h-137l-123 381h-652l-122 -381h-138zM354 500h578l-277 856h-24z" />
    <glyph glyph-name="uni1EAB" unicode="&#x1eab;" horiz-adv-x="1175" 
d="M352 1503l-86 47l62 115q46 84 131 84q43 0 74.5 -18t68.5 -62q5 -5 15 -17t14 -16.5t12 -13t12.5 -12t11 -8t12 -6t11.5 -1.5q33 0 55 39l58 105l86 -47l-62 -115q-46 -84 -131 -84q-43 0 -74.5 18t-68.5 62q-5 5 -15 17t-14 16.5t-12 13t-12.5 12t-11 8t-12 6
t-11.5 1.5q-33 0 -55 -39zM242 1139l258 270h155l258 -270h-151l-172 180h-25l-172 -180h-151zM485 -29q-163 0 -267.5 82.5t-104.5 227.5q0 144 102.5 220.5t265.5 76.5h365v79q0 121 -70.5 188.5t-202.5 67.5q-128 0 -206 -63t-105 -174l-119 35q38 140 146 226.5
t284 86.5q187 0 291.5 -99t104.5 -274v-483q0 -62 57 -62h96v-106h-131q-63 0 -100 37.5t-37 103.5v15h-20q-22 -39 -49 -68.5t-67.5 -57.5t-99.5 -43.5t-133 -15.5zM494 82q161 0 256.5 96.5t95.5 267.5v25h-363q-111 0 -179 -48t-68 -140q0 -95 71 -148t187 -53z" />
    <glyph glyph-name="uni1EAC" unicode="&#x1eac;" horiz-adv-x="1286" 
d="M301 1552l270 242h144l270 -242h-166l-164 156h-24l-164 -156h-166zM57 0l469 1434h234l469 -1434h-137l-123 381h-652l-122 -381h-138zM354 500h578l-277 856h-24zM643 -385q-46 0 -76 30t-30 76t30 76.5t76 30.5t76.5 -30.5t30.5 -76.5t-30.5 -76t-76.5 -30z" />
    <glyph glyph-name="uni1EAD" unicode="&#x1ead;" horiz-adv-x="1175" 
d="M242 1139l258 270h155l258 -270h-151l-172 180h-25l-172 -180h-151zM485 -29q-163 0 -267.5 82.5t-104.5 227.5q0 144 102.5 220.5t265.5 76.5h365v79q0 121 -70.5 188.5t-202.5 67.5q-128 0 -206 -63t-105 -174l-119 35q38 140 146 226.5t284 86.5q187 0 291.5 -99
t104.5 -274v-483q0 -62 57 -62h96v-106h-131q-63 0 -100 37.5t-37 103.5v15h-20q-22 -39 -49 -68.5t-67.5 -57.5t-99.5 -43.5t-133 -15.5zM494 82q161 0 256.5 96.5t95.5 267.5v25h-363q-111 0 -179 -48t-68 -140q0 -95 71 -148t187 -53zM588 -385q-46 0 -76.5 30t-30.5 76
t30.5 76.5t76.5 30.5t76 -30.5t30 -76.5t-30 -76t-76 -30z" />
    <glyph glyph-name="uni1EAE" unicode="&#x1eae;" horiz-adv-x="1286" 
d="M547 1839l135 242h160l-168 -242h-127zM643 1540q-137 0 -215 69.5t-78 182.5v6h115v-6q0 -71 45.5 -112.5t132.5 -41.5q88 0 134 41.5t46 112.5v6h115v-6q0 -112 -79 -182t-216 -70zM57 0l469 1434h234l469 -1434h-137l-123 381h-652l-122 -381h-138zM354 500h578
l-277 856h-24z" />
    <glyph glyph-name="uni1EAF" unicode="&#x1eaf;" horiz-adv-x="1175" 
d="M489 1470l160 271h156l-189 -271h-127zM578 1135q-129 0 -207 69t-78 193v12h115v-12q0 -74 44 -119t126 -45q81 0 124 45t43 119v12h115v-12q0 -124 -77.5 -193t-204.5 -69zM485 -29q-163 0 -267.5 82.5t-104.5 227.5q0 144 102.5 220.5t265.5 76.5h365v79
q0 121 -70.5 188.5t-202.5 67.5q-128 0 -206 -63t-105 -174l-119 35q38 140 146 226.5t284 86.5q187 0 291.5 -99t104.5 -274v-483q0 -62 57 -62h96v-106h-131q-63 0 -100 37.5t-37 103.5v15h-20q-22 -39 -49 -68.5t-67.5 -57.5t-99.5 -43.5t-133 -15.5zM494 82
q161 0 256.5 96.5t95.5 267.5v25h-363q-111 0 -179 -48t-68 -140q0 -95 71 -148t187 -53z" />
    <glyph glyph-name="uni1EB0" unicode="&#x1eb0;" horiz-adv-x="1286" 
d="M614 1839l-168 242h160l135 -242h-127zM643 1540q-137 0 -215 69.5t-78 182.5v6h115v-6q0 -71 45.5 -112.5t132.5 -41.5q88 0 134 41.5t46 112.5v6h115v-6q0 -112 -79 -182t-216 -70zM57 0l469 1434h234l469 -1434h-137l-123 381h-652l-122 -381h-138zM354 500h578
l-277 856h-24z" />
    <glyph glyph-name="uni1EB1" unicode="&#x1eb1;" horiz-adv-x="1175" 
d="M537 1470l-189 271h158l158 -271h-127zM578 1135q-129 0 -207 69t-78 193v12h115v-12q0 -74 44 -119t126 -45q81 0 124 45t43 119v12h115v-12q0 -124 -77.5 -193t-204.5 -69zM485 -29q-163 0 -267.5 82.5t-104.5 227.5q0 144 102.5 220.5t265.5 76.5h365v79
q0 121 -70.5 188.5t-202.5 67.5q-128 0 -206 -63t-105 -174l-119 35q38 140 146 226.5t284 86.5q187 0 291.5 -99t104.5 -274v-483q0 -62 57 -62h96v-106h-131q-63 0 -100 37.5t-37 103.5v15h-20q-22 -39 -49 -68.5t-67.5 -57.5t-99.5 -43.5t-133 -15.5zM494 82
q161 0 256.5 96.5t95.5 267.5v25h-363q-111 0 -179 -48t-68 -140q0 -95 71 -148t187 -53z" />
    <glyph glyph-name="uni1EB2" unicode="&#x1eb2;" horiz-adv-x="1286" 
d="M600 1817l-16 149h73q47 0 75 20t28 56q0 38 -29 58t-74 20q-77 0 -153 -58l-53 82q90 70 206 70q89 0 147 -42.5t58 -121.5q0 -76 -47 -118t-127 -42l8 -73h-96zM643 1540q-137 0 -215 69.5t-78 182.5v6h115v-6q0 -71 45.5 -112.5t132.5 -41.5q88 0 134 41.5t46 112.5v6
h115v-6q0 -112 -79 -182t-216 -70zM57 0l469 1434h234l469 -1434h-137l-123 381h-652l-122 -381h-138zM354 500h578l-277 856h-24z" />
    <glyph glyph-name="uni1EB3" unicode="&#x1eb3;" horiz-adv-x="1175" 
d="M530 1442l-16 149h74q47 0 74.5 20t27.5 56q0 38 -28.5 58t-73.5 20q-80 0 -154 -57l-53 81q90 70 207 70q89 0 147 -42.5t58 -121.5q0 -75 -47 -117t-128 -42l9 -74h-97zM578 1135q-129 0 -207 69t-78 193v12h115v-12q0 -74 44 -119t126 -45q81 0 124 45t43 119v12h115
v-12q0 -124 -77.5 -193t-204.5 -69zM485 -29q-163 0 -267.5 82.5t-104.5 227.5q0 144 102.5 220.5t265.5 76.5h365v79q0 121 -70.5 188.5t-202.5 67.5q-128 0 -206 -63t-105 -174l-119 35q38 140 146 226.5t284 86.5q187 0 291.5 -99t104.5 -274v-483q0 -62 57 -62h96v-106
h-131q-63 0 -100 37.5t-37 103.5v15h-20q-22 -39 -49 -68.5t-67.5 -57.5t-99.5 -43.5t-133 -15.5zM494 82q161 0 256.5 96.5t95.5 267.5v25h-363q-111 0 -179 -48t-68 -140q0 -95 71 -148t187 -53z" />
    <glyph glyph-name="uni1EB4" unicode="&#x1eb4;" horiz-adv-x="1286" 
d="M397 1876l-82 49l66 109q52 86 137 86q45 0 81 -22t81 -70q32 -35 48.5 -47.5t37.5 -12.5q36 0 61 43l62 98l82 -49l-66 -108q-52 -86 -137 -86q-45 0 -81 22t-81 70q-31 34 -48 46.5t-38 12.5q-36 0 -63 -45zM643 1540q-137 0 -215 69.5t-78 182.5v6h115v-6
q0 -71 45.5 -112.5t132.5 -41.5q88 0 134 41.5t46 112.5v6h115v-6q0 -112 -79 -182t-216 -70zM57 0l469 1434h234l469 -1434h-137l-123 381h-652l-122 -381h-138zM354 500h578l-277 856h-24z" />
    <glyph glyph-name="uni1EB5" unicode="&#x1eb5;" horiz-adv-x="1175" 
d="M352 1491l-86 47l62 115q46 84 131 84q43 0 74.5 -18t68.5 -62q5 -5 15 -17t14 -16.5t12 -13t12.5 -12t11 -8t12 -6t11.5 -1.5q33 0 55 39l58 104l86 -47l-62 -114q-46 -84 -131 -84q-43 0 -74.5 18t-68.5 62q-4 5 -11.5 14t-11 13t-10 11t-10 10.5t-9 8.5t-9 7t-8.5 4.5
t-9.5 3.5t-9.5 1q-33 0 -55 -39zM578 1135q-129 0 -207 69t-78 193v12h115v-12q0 -74 44 -119t126 -45q81 0 124 45t43 119v12h115v-12q0 -124 -77.5 -193t-204.5 -69zM485 -29q-163 0 -267.5 82.5t-104.5 227.5q0 144 102.5 220.5t265.5 76.5h365v79q0 121 -70.5 188.5
t-202.5 67.5q-128 0 -206 -63t-105 -174l-119 35q38 140 146 226.5t284 86.5q187 0 291.5 -99t104.5 -274v-483q0 -62 57 -62h96v-106h-131q-63 0 -100 37.5t-37 103.5v15h-20q-22 -39 -49 -68.5t-67.5 -57.5t-99.5 -43.5t-133 -15.5zM494 82q161 0 256.5 96.5t95.5 267.5
v25h-363q-111 0 -179 -48t-68 -140q0 -95 71 -148t187 -53z" />
    <glyph glyph-name="uni1EB6" unicode="&#x1eb6;" horiz-adv-x="1286" 
d="M643 1540q-137 0 -215 69.5t-78 182.5v6h115v-6q0 -71 45.5 -112.5t132.5 -41.5q88 0 134 41.5t46 112.5v6h115v-6q0 -112 -79 -182t-216 -70zM57 0l469 1434h234l469 -1434h-137l-123 381h-652l-122 -381h-138zM354 500h578l-277 856h-24zM643 -385q-46 0 -76 30t-30 76
t30 76.5t76 30.5t76.5 -30.5t30.5 -76.5t-30.5 -76t-76.5 -30z" />
    <glyph glyph-name="uni1EB7" unicode="&#x1eb7;" horiz-adv-x="1175" 
d="M578 1135q-129 0 -207 69t-78 193v12h115v-12q0 -74 44 -119t126 -45q81 0 124 45t43 119v12h115v-12q0 -124 -77.5 -193t-204.5 -69zM485 -29q-163 0 -267.5 82.5t-104.5 227.5q0 144 102.5 220.5t265.5 76.5h365v79q0 121 -70.5 188.5t-202.5 67.5q-128 0 -206 -63
t-105 -174l-119 35q38 140 146 226.5t284 86.5q187 0 291.5 -99t104.5 -274v-483q0 -62 57 -62h96v-106h-131q-63 0 -100 37.5t-37 103.5v15h-20q-22 -39 -49 -68.5t-67.5 -57.5t-99.5 -43.5t-133 -15.5zM494 82q161 0 256.5 96.5t95.5 267.5v25h-363q-111 0 -179 -48
t-68 -140q0 -95 71 -148t187 -53zM588 -385q-46 0 -76.5 30t-30.5 76t30.5 76.5t76.5 30.5t76 -30.5t30 -76.5t-30 -76t-76 -30z" />
    <glyph glyph-name="uni1EB8" unicode="&#x1eb8;" horiz-adv-x="1161" 
d="M176 0v1434h866v-119h-735v-537h678v-119h-678v-540h744v-119h-875zM612 -385q-46 0 -76 30t-30 76t30 76.5t76 30.5t76.5 -30.5t30.5 -76.5t-30.5 -76t-76.5 -30z" />
    <glyph glyph-name="uni1EB9" unicode="&#x1eb9;" horiz-adv-x="1224" 
d="M639 -29q-229 0 -368.5 142t-139.5 372v25q0 228 139 371t355 143q212 0 344.5 -131.5t132.5 -355.5v-66h-848q6 -183 111.5 -286t273.5 -103q89 0 157 30.5t107.5 76.5t69.5 112l110 -49q-131 -281 -444 -281zM256 578h721q-7 159 -103 247t-249 88q-151 0 -249 -87.5
t-120 -247.5zM639 -385q-46 0 -76.5 30t-30.5 76t30.5 76.5t76.5 30.5t76 -30.5t30 -76.5t-30 -76t-76 -30z" />
    <glyph glyph-name="uni1EBA" unicode="&#x1eba;" horiz-adv-x="1161" 
d="M584 1532l-17 149h74q47 0 74.5 20t27.5 56q0 38 -28.5 58t-73.5 20q-80 0 -154 -57l-53 82q89 69 207 69q89 0 147 -42.5t58 -121.5q0 -76 -46.5 -117.5t-127.5 -41.5l8 -74h-96zM176 0v1434h866v-119h-735v-537h678v-119h-678v-540h744v-119h-875z" />
    <glyph glyph-name="uni1EBB" unicode="&#x1ebb;" horiz-adv-x="1224" 
d="M586 1122l-17 150h74q47 0 74.5 20t27.5 56q0 38 -28.5 57.5t-73.5 19.5q-80 0 -154 -57l-53 82q90 70 207 70q89 0 147 -42.5t58 -121.5q0 -76 -47 -118t-127 -42l8 -74h-96zM639 -29q-229 0 -368.5 142t-139.5 372v25q0 228 139 371t355 143q212 0 344.5 -131.5
t132.5 -355.5v-66h-848q6 -183 111.5 -286t273.5 -103q89 0 157 30.5t107.5 76.5t69.5 112l110 -49q-131 -281 -444 -281zM256 578h721q-7 159 -103 247t-249 88q-151 0 -249 -87.5t-120 -247.5z" />
    <glyph glyph-name="uni1EBC" unicode="&#x1ebc;" horiz-adv-x="1161" 
d="M377 1563l-82 49l65 108q52 86 138 86q45 0 80.5 -22t80.5 -70q31 -34 48 -46.5t38 -12.5q37 0 62 43l61 98l82 -49l-65 -109q-52 -86 -137 -86q-44 0 -80.5 22.5t-81.5 70.5q-31 34 -48 46.5t-38 12.5q-37 0 -64 -45zM176 0v1434h866v-119h-735v-537h678v-119h-678v-540
h744v-119h-875z" />
    <glyph glyph-name="uni1EBD" unicode="&#x1ebd;" horiz-adv-x="1224" 
d="M399 1120l-86 47l62 115q46 84 131 84q43 0 74.5 -18t68.5 -62q5 -5 15 -17t14 -16.5t12 -13t12.5 -12t11 -8t12 -6t11.5 -1.5q34 0 56 39l57 105l86 -47l-62 -115q-46 -84 -131 -84q-43 0 -74.5 18t-68.5 62q-5 5 -15 17t-14 16.5t-12 13t-12.5 12t-11 8t-12 6
t-11.5 1.5q-33 0 -55 -39zM639 -29q-229 0 -368.5 142t-139.5 372v25q0 228 139 371t355 143q212 0 344.5 -131.5t132.5 -355.5v-66h-848q6 -183 111.5 -286t273.5 -103q89 0 157 30.5t107.5 76.5t69.5 112l110 -49q-131 -281 -444 -281zM256 578h721q-7 159 -103 247
t-249 88q-151 0 -249 -87.5t-120 -247.5z" />
    <glyph glyph-name="uni1EBE" unicode="&#x1ebe;" horiz-adv-x="1161" 
d="M846 1759l117 250h147l-143 -250h-121zM281 1552l270 242h143l271 -242h-166l-164 156h-25l-164 -156h-165zM176 0v1434h866v-119h-735v-537h678v-119h-678v-540h744v-119h-875z" />
    <glyph glyph-name="uni1EBF" unicode="&#x1ebf;" horiz-adv-x="1224" 
d="M893 1360l123 291h143l-149 -291h-117zM289 1139l258 270h155l259 -270h-152l-172 180h-25l-172 -180h-151zM639 -29q-229 0 -368.5 142t-139.5 372v25q0 228 139 371t355 143q212 0 344.5 -131.5t132.5 -355.5v-66h-848q6 -183 111.5 -286t273.5 -103q89 0 157 30.5
t107.5 76.5t69.5 112l110 -49q-131 -281 -444 -281zM256 578h721q-7 159 -103 247t-249 88q-151 0 -249 -87.5t-120 -247.5z" />
    <glyph glyph-name="uni1EC0" unicode="&#x1ec0;" horiz-adv-x="1161" 
d="M895 1759l-150 250h148l121 -250h-119zM281 1552l270 242h143l271 -242h-166l-164 156h-25l-164 -156h-165zM176 0v1434h866v-119h-735v-537h678v-119h-678v-540h744v-119h-875z" />
    <glyph glyph-name="uni1EC1" unicode="&#x1ec1;" horiz-adv-x="1224" 
d="M946 1360l-162 291h144l135 -291h-117zM289 1139l258 270h155l259 -270h-152l-172 180h-25l-172 -180h-151zM639 -29q-229 0 -368.5 142t-139.5 372v25q0 228 139 371t355 143q212 0 344.5 -131.5t132.5 -355.5v-66h-848q6 -183 111.5 -286t273.5 -103q89 0 157 30.5
t107.5 76.5t69.5 112l110 -49q-131 -281 -444 -281zM256 578h721q-7 159 -103 247t-249 88q-151 0 -249 -87.5t-120 -247.5z" />
    <glyph glyph-name="uni1EC2" unicode="&#x1ec2;" horiz-adv-x="1161" 
d="M879 1749l-17 149h74q47 0 74.5 20t27.5 56q0 38 -28.5 58t-73.5 20q-80 0 -154 -57l-53 82q89 69 207 69q89 0 147 -42.5t58 -121.5q0 -76 -46.5 -117.5t-127.5 -41.5l8 -74h-96zM281 1552l270 242h143l271 -242h-166l-164 156h-25l-164 -156h-165zM176 0v1434h866v-119
h-735v-537h678v-119h-678v-540h744v-119h-875z" />
    <glyph glyph-name="uni1EC3" unicode="&#x1ec3;" horiz-adv-x="1224" 
d="M883 1352l-17 149h74q47 0 74.5 20t27.5 56q0 38 -28.5 58t-73.5 20q-78 0 -154 -58l-53 82q90 70 207 70q89 0 147 -42.5t58 -121.5q0 -76 -47 -118t-127 -42l8 -73h-96zM289 1139l258 270h155l259 -270h-152l-172 180h-25l-172 -180h-151zM639 -29q-229 0 -368.5 142
t-139.5 372v25q0 228 139 371t355 143q212 0 344.5 -131.5t132.5 -355.5v-66h-848q6 -183 111.5 -286t273.5 -103q89 0 157 30.5t107.5 76.5t69.5 112l110 -49q-131 -281 -444 -281zM256 578h721q-7 159 -103 247t-249 88q-151 0 -249 -87.5t-120 -247.5z" />
    <glyph glyph-name="uni1EC4" unicode="&#x1ec4;" horiz-adv-x="1161" 
d="M377 1890l-82 49l65 109q52 86 138 86q45 0 80.5 -22t80.5 -70q32 -35 48.5 -47.5t37.5 -12.5q37 0 62 43l61 99l82 -49l-65 -109q-52 -86 -137 -86q-45 0 -81 22t-81 70q-32 35 -48.5 47.5t-37.5 12.5q-37 0 -64 -45zM281 1552l270 242h143l271 -242h-166l-164 156h-25
l-164 -156h-165zM176 0v1434h866v-119h-735v-537h678v-119h-678v-540h744v-119h-875z" />
    <glyph glyph-name="uni1EC5" unicode="&#x1ec5;" horiz-adv-x="1224" 
d="M399 1503l-86 47l62 115q46 84 131 84q43 0 74.5 -18t68.5 -62q5 -5 15 -17t14 -16.5t12 -13t12.5 -12t11 -8t12 -6t11.5 -1.5q34 0 56 39l57 105l86 -47l-62 -115q-46 -84 -131 -84q-43 0 -74.5 18t-68.5 62q-5 5 -15 17t-14 16.5t-12 13t-12.5 12t-11 8t-12 6
t-11.5 1.5q-33 0 -55 -39zM289 1139l258 270h155l259 -270h-152l-172 180h-25l-172 -180h-151zM639 -29q-229 0 -368.5 142t-139.5 372v25q0 228 139 371t355 143q212 0 344.5 -131.5t132.5 -355.5v-66h-848q6 -183 111.5 -286t273.5 -103q89 0 157 30.5t107.5 76.5
t69.5 112l110 -49q-131 -281 -444 -281zM256 578h721q-7 159 -103 247t-249 88q-151 0 -249 -87.5t-120 -247.5z" />
    <glyph glyph-name="uni1EC6" unicode="&#x1ec6;" horiz-adv-x="1161" 
d="M281 1552l270 242h143l271 -242h-166l-164 156h-25l-164 -156h-165zM176 0v1434h866v-119h-735v-537h678v-119h-678v-540h744v-119h-875zM612 -385q-46 0 -76 30t-30 76t30 76.5t76 30.5t76.5 -30.5t30.5 -76.5t-30.5 -76t-76.5 -30z" />
    <glyph glyph-name="uni1EC7" unicode="&#x1ec7;" horiz-adv-x="1224" 
d="M289 1139l258 270h155l259 -270h-152l-172 180h-25l-172 -180h-151zM639 -29q-229 0 -368.5 142t-139.5 372v25q0 228 139 371t355 143q212 0 344.5 -131.5t132.5 -355.5v-66h-848q6 -183 111.5 -286t273.5 -103q89 0 157 30.5t107.5 76.5t69.5 112l110 -49
q-131 -281 -444 -281zM256 578h721q-7 159 -103 247t-249 88q-151 0 -249 -87.5t-120 -247.5zM639 -385q-46 0 -76.5 30t-30.5 76t30.5 76.5t76.5 30.5t76 -30.5t30 -76.5t-30 -76t-76 -30z" />
    <glyph glyph-name="uni1EC8" unicode="&#x1ec8;" horiz-adv-x="483" 
d="M203 1532l-17 149h74q47 0 74.5 20t27.5 56q0 38 -28.5 58t-73.5 20q-80 0 -154 -57l-53 82q89 69 207 69q89 0 147 -42.5t58 -121.5q0 -76 -46.5 -117.5t-127.5 -41.5l8 -74h-96zM176 0v1434h131v-1434h-131z" />
    <glyph glyph-name="uni1EC9" unicode="&#x1ec9;" horiz-adv-x="483" 
d="M203 1122l-17 150h74q47 0 74.5 20t27.5 56q0 38 -28.5 57.5t-73.5 19.5q-80 0 -154 -57l-53 82q90 70 207 70q89 0 147 -42.5t58 -121.5q0 -76 -47 -118t-127 -42l8 -74h-96zM180 0v995h123v-995h-123z" />
    <glyph glyph-name="uni1ECA" unicode="&#x1eca;" horiz-adv-x="483" 
d="M176 0v1434h131v-1434h-131zM242 -385q-46 0 -76.5 30t-30.5 76t30.5 76.5t76.5 30.5t76 -30.5t30 -76.5t-30 -76t-76 -30z" />
    <glyph glyph-name="uni1ECB" unicode="&#x1ecb;" horiz-adv-x="483" 
d="M242 1167q-46 0 -76.5 30.5t-30.5 76.5t30.5 76t76.5 30t76 -30t30 -76t-30 -76.5t-76 -30.5zM180 0v995h123v-995h-123zM242 -385q-46 0 -76.5 30t-30.5 76t30.5 76.5t76.5 30.5t76 -30.5t30 -76.5t-30 -76t-76 -30z" />
    <glyph glyph-name="uni1ECC" unicode="&#x1ecc;" horiz-adv-x="1363" 
d="M682 -29q-257 0 -404 151t-147 433v324q0 282 147 432.5t404 150.5t404 -150.5t147 -432.5v-324q0 -282 -147 -433t-404 -151zM682 90q200 0 310 120.5t110 340.5v332q0 219 -110 339.5t-310 120.5t-310 -120.5t-110 -339.5v-332q0 -220 110 -340.5t310 -120.5zM682 -385
q-46 0 -76.5 30t-30.5 76t30.5 76.5t76.5 30.5t76 -30.5t30 -76.5t-30 -76t-76 -30z" />
    <glyph glyph-name="uni1ECD" unicode="&#x1ecd;" 
d="M635 -29q-227 0 -365.5 141.5t-138.5 372.5v25q0 231 138.5 372.5t365.5 141.5t365.5 -141.5t138.5 -372.5v-25q0 -231 -138.5 -372.5t-365.5 -141.5zM635 82q174 0 277.5 111t103.5 296v17q0 185 -103.5 296t-277.5 111t-277.5 -111t-103.5 -296v-17q0 -185 103.5 -296
t277.5 -111zM635 -385q-46 0 -76.5 30t-30.5 76t30.5 76.5t76.5 30.5t76 -30.5t30 -76.5t-30 -76t-76 -30z" />
    <glyph glyph-name="uni1ECE" unicode="&#x1ece;" horiz-adv-x="1363" 
d="M643 1532l-16 149h73q47 0 75 20t28 56q0 38 -29 58t-74 20q-79 0 -153 -57l-53 82q89 69 206 69q89 0 147 -42.5t58 -121.5q0 -76 -46.5 -117.5t-127.5 -41.5l8 -74h-96zM682 -29q-257 0 -404 151t-147 433v324q0 282 147 432.5t404 150.5t404 -150.5t147 -432.5v-324
q0 -282 -147 -433t-404 -151zM682 90q200 0 310 120.5t110 340.5v332q0 219 -110 339.5t-310 120.5t-310 -120.5t-110 -339.5v-332q0 -220 110 -340.5t310 -120.5z" />
    <glyph glyph-name="uni1ECF" unicode="&#x1ecf;" 
d="M596 1122l-16 150h73q47 0 75 20t28 56q0 38 -29 57.5t-74 19.5q-79 0 -153 -57l-54 82q90 70 207 70q89 0 147 -42.5t58 -121.5q0 -76 -47 -118t-127 -42l8 -74h-96zM635 -29q-227 0 -365.5 141.5t-138.5 372.5v25q0 231 138.5 372.5t365.5 141.5t365.5 -141.5
t138.5 -372.5v-25q0 -231 -138.5 -372.5t-365.5 -141.5zM635 82q174 0 277.5 111t103.5 296v17q0 185 -103.5 296t-277.5 111t-277.5 -111t-103.5 -296v-17q0 -185 103.5 -296t277.5 -111z" />
    <glyph glyph-name="uni1ED0" unicode="&#x1ed0;" horiz-adv-x="1363" 
d="M905 1759l117 250h147l-143 -250h-121zM340 1552l270 242h144l270 -242h-166l-164 156h-24l-164 -156h-166zM682 -29q-257 0 -404 151t-147 433v324q0 282 147 432.5t404 150.5t404 -150.5t147 -432.5v-324q0 -282 -147 -433t-404 -151zM682 90q200 0 310 120.5
t110 340.5v332q0 219 -110 339.5t-310 120.5t-310 -120.5t-110 -339.5v-332q0 -220 110 -340.5t310 -120.5z" />
    <glyph glyph-name="uni1ED1" unicode="&#x1ed1;" 
d="M903 1360l123 291h143l-149 -291h-117zM299 1139l258 270h156l258 -270h-152l-172 180h-24l-172 -180h-152zM635 -29q-227 0 -365.5 141.5t-138.5 372.5v25q0 231 138.5 372.5t365.5 141.5t365.5 -141.5t138.5 -372.5v-25q0 -231 -138.5 -372.5t-365.5 -141.5zM635 82
q174 0 277.5 111t103.5 296v17q0 185 -103.5 296t-277.5 111t-277.5 -111t-103.5 -296v-17q0 -185 103.5 -296t277.5 -111z" />
    <glyph glyph-name="uni1ED2" unicode="&#x1ed2;" horiz-adv-x="1363" 
d="M954 1759l-149 250h147l121 -250h-119zM340 1552l270 242h144l270 -242h-166l-164 156h-24l-164 -156h-166zM682 -29q-257 0 -404 151t-147 433v324q0 282 147 432.5t404 150.5t404 -150.5t147 -432.5v-324q0 -282 -147 -433t-404 -151zM682 90q200 0 310 120.5
t110 340.5v332q0 219 -110 339.5t-310 120.5t-310 -120.5t-110 -339.5v-332q0 -220 110 -340.5t310 -120.5z" />
    <glyph glyph-name="uni1ED3" unicode="&#x1ed3;" 
d="M956 1360l-161 291h143l135 -291h-117zM299 1139l258 270h156l258 -270h-152l-172 180h-24l-172 -180h-152zM635 -29q-227 0 -365.5 141.5t-138.5 372.5v25q0 231 138.5 372.5t365.5 141.5t365.5 -141.5t138.5 -372.5v-25q0 -231 -138.5 -372.5t-365.5 -141.5zM635 82
q174 0 277.5 111t103.5 296v17q0 185 -103.5 296t-277.5 111t-277.5 -111t-103.5 -296v-17q0 -185 103.5 -296t277.5 -111z" />
    <glyph glyph-name="uni1ED4" unicode="&#x1ed4;" horiz-adv-x="1363" 
d="M938 1749l-16 149h73q47 0 75 20t28 56q0 38 -29 58t-74 20q-79 0 -153 -57l-54 82q89 69 207 69q89 0 147 -42.5t58 -121.5q0 -76 -46.5 -117.5t-127.5 -41.5l8 -74h-96zM340 1552l270 242h144l270 -242h-166l-164 156h-24l-164 -156h-166zM682 -29q-257 0 -404 151
t-147 433v324q0 282 147 432.5t404 150.5t404 -150.5t147 -432.5v-324q0 -282 -147 -433t-404 -151zM682 90q200 0 310 120.5t110 340.5v332q0 219 -110 339.5t-310 120.5t-310 -120.5t-110 -339.5v-332q0 -220 110 -340.5t310 -120.5z" />
    <glyph glyph-name="uni1ED5" unicode="&#x1ed5;" 
d="M893 1352l-16 149h73q47 0 75 20t28 56q0 38 -29 58t-74 20q-77 0 -153 -58l-54 82q90 70 207 70q89 0 147 -42.5t58 -121.5q0 -76 -47 -118t-127 -42l8 -73h-96zM299 1139l258 270h156l258 -270h-152l-172 180h-24l-172 -180h-152zM635 -29q-227 0 -365.5 141.5
t-138.5 372.5v25q0 231 138.5 372.5t365.5 141.5t365.5 -141.5t138.5 -372.5v-25q0 -231 -138.5 -372.5t-365.5 -141.5zM635 82q174 0 277.5 111t103.5 296v17q0 185 -103.5 296t-277.5 111t-277.5 -111t-103.5 -296v-17q0 -185 103.5 -296t277.5 -111z" />
    <glyph glyph-name="uni1ED6" unicode="&#x1ed6;" horiz-adv-x="1363" 
d="M436 1890l-82 49l66 109q52 86 137 86q45 0 81 -22t81 -70q32 -35 48.5 -47.5t37.5 -12.5q36 0 61 43l62 99l82 -49l-66 -109q-52 -86 -137 -86q-45 0 -81 22t-81 70q-32 35 -48.5 47.5t-37.5 12.5q-36 0 -63 -45zM340 1552l270 242h144l270 -242h-166l-164 156h-24
l-164 -156h-166zM682 -29q-257 0 -404 151t-147 433v324q0 282 147 432.5t404 150.5t404 -150.5t147 -432.5v-324q0 -282 -147 -433t-404 -151zM682 90q200 0 310 120.5t110 340.5v332q0 219 -110 339.5t-310 120.5t-310 -120.5t-110 -339.5v-332q0 -220 110 -340.5
t310 -120.5z" />
    <glyph glyph-name="uni1ED7" unicode="&#x1ed7;" 
d="M410 1503l-86 47l61 115q46 84 131 84q43 0 74.5 -18t68.5 -62q4 -4 12 -13.5t11 -13.5t9.5 -11t10 -10.5t9.5 -8.5t9.5 -7.5t8.5 -5t9.5 -3.5t9.5 -1q33 0 55 39l57 105l86 -47l-61 -115q-46 -84 -131 -84q-43 0 -75 18t-69 62q-5 5 -15 17t-14 16.5t-12 13t-12.5 12
t-11 8t-12 6t-11.5 1.5q-33 0 -55 -39zM299 1139l258 270h156l258 -270h-152l-172 180h-24l-172 -180h-152zM635 -29q-227 0 -365.5 141.5t-138.5 372.5v25q0 231 138.5 372.5t365.5 141.5t365.5 -141.5t138.5 -372.5v-25q0 -231 -138.5 -372.5t-365.5 -141.5zM635 82
q174 0 277.5 111t103.5 296v17q0 185 -103.5 296t-277.5 111t-277.5 -111t-103.5 -296v-17q0 -185 103.5 -296t277.5 -111z" />
    <glyph glyph-name="uni1ED8" unicode="&#x1ed8;" horiz-adv-x="1363" 
d="M340 1552l270 242h144l270 -242h-166l-164 156h-24l-164 -156h-166zM682 -29q-257 0 -404 151t-147 433v324q0 282 147 432.5t404 150.5t404 -150.5t147 -432.5v-324q0 -282 -147 -433t-404 -151zM682 90q200 0 310 120.5t110 340.5v332q0 219 -110 339.5t-310 120.5
t-310 -120.5t-110 -339.5v-332q0 -220 110 -340.5t310 -120.5zM682 -385q-46 0 -76.5 30t-30.5 76t30.5 76.5t76.5 30.5t76 -30.5t30 -76.5t-30 -76t-76 -30z" />
    <glyph glyph-name="uni1ED9" unicode="&#x1ed9;" 
d="M299 1139l258 270h156l258 -270h-152l-172 180h-24l-172 -180h-152zM635 -29q-227 0 -365.5 141.5t-138.5 372.5v25q0 231 138.5 372.5t365.5 141.5t365.5 -141.5t138.5 -372.5v-25q0 -231 -138.5 -372.5t-365.5 -141.5zM635 82q174 0 277.5 111t103.5 296v17
q0 185 -103.5 296t-277.5 111t-277.5 -111t-103.5 -296v-17q0 -185 103.5 -296t277.5 -111zM635 -385q-46 0 -76.5 30t-30.5 76t30.5 76.5t76.5 30.5t76 -30.5t30 -76.5t-30 -76t-76 -30z" />
    <glyph glyph-name="uni1EDA" unicode="&#x1eda;" horiz-adv-x="1363" 
d="M586 1552l135 242h160l-168 -242h-127zM682 -29q-257 0 -404 151t-147 433v324q0 282 147 432.5t404 150.5q224 0 365 -114q65 9 94.5 49.5t29.5 130.5v69h115v-73q0 -119 -39.5 -179.5t-122.5 -78.5q109 -149 109 -387v-324q0 -282 -147 -433t-404 -151zM682 90
q200 0 310 120.5t110 340.5v332q0 219 -110 339.5t-310 120.5t-310 -120.5t-110 -339.5v-332q0 -220 110 -340.5t310 -120.5z" />
    <glyph glyph-name="uni1EDB" unicode="&#x1edb;" horiz-adv-x="1290" 
d="M547 1139l160 270h155l-188 -270h-127zM635 -29q-227 0 -365.5 141.5t-138.5 372.5v25q0 231 138.5 372.5t365.5 141.5q205 0 336 -115q70 6 102.5 47t32.5 134v69h115v-74q0 -123 -42 -184.5t-130 -75.5q90 -133 90 -315v-25q0 -231 -138.5 -372.5t-365.5 -141.5z
M635 82q174 0 277.5 111t103.5 296v17q0 185 -103.5 296t-277.5 111t-277.5 -111t-103.5 -296v-17q0 -185 103.5 -296t277.5 -111z" />
    <glyph glyph-name="uni1EDC" unicode="&#x1edc;" horiz-adv-x="1363" 
d="M651 1561l-168 241h160l135 -241h-127zM682 -29q-257 0 -404 151t-147 433v324q0 282 147 432.5t404 150.5q224 0 365 -114q65 9 94.5 49.5t29.5 130.5v69h115v-73q0 -119 -39.5 -179.5t-122.5 -78.5q109 -149 109 -387v-324q0 -282 -147 -433t-404 -151zM682 90
q200 0 310 120.5t110 340.5v332q0 219 -110 339.5t-310 120.5t-310 -120.5t-110 -339.5v-332q0 -220 110 -340.5t310 -120.5z" />
    </font>
</defs>
</svg>
