<svg xmlns="http://www.w3.org/2000/svg" xmlns:xlink="http://www.w3.org/1999/xlink" width="1028" zoomAndPan="magnify" viewBox="0 0 770.88 740.249982" height="987" preserveAspectRatio="xMidYMid meet" version="1.0"><defs><clipPath id="539e29bb29"><path d="M 0.332031 0 L 770.429688 0 L 770.429688 739.5 L 0.332031 739.5 Z M 0.332031 0 " clip-rule="nonzero"/></clipPath><clipPath id="b5a67c04f6"><path d="M 0.332031 0 L 770 0 L 770 739 L 0.332031 739 Z M 0.332031 0 " clip-rule="nonzero"/></clipPath></defs><g clip-path="url(#539e29bb29)"><path fill="#ffffff" d="M 0.332031 0 L 770.550781 0 L 770.550781 739.5 L 0.332031 739.5 Z M 0.332031 0 " fill-opacity="1" fill-rule="nonzero"/><path fill="#ffffff" d="M 0.332031 0 L 770.550781 0 L 770.550781 739.5 L 0.332031 739.5 Z M 0.332031 0 " fill-opacity="1" fill-rule="nonzero"/></g><g clip-path="url(#b5a67c04f6)"><path fill="#434552" d="M 465.667969 396.253906 C 465.78125 395.910156 465.894531 395.566406 466.003906 395.222656 C 468.496094 387.421875 475.78125 382.15625 483.972656 382.15625 L 769.546875 382.15625 C 769.652344 382.15625 769.738281 382.074219 769.742188 381.96875 C 769.875 377.8125 769.964844 373.640625 769.964844 369.449219 C 769.964844 365.261719 769.875 361.089844 769.742188 356.933594 C 769.738281 356.828125 769.652344 356.746094 769.546875 356.746094 L 483.972656 356.746094 C 475.6875 356.746094 468.472656 351.316406 465.925781 343.4375 C 465.878906 343.296875 465.835938 343.160156 465.789062 343.019531 C 463.203125 335.167969 465.863281 326.546875 472.554688 321.679688 L 703.492188 153.753906 C 703.578125 153.691406 703.597656 153.574219 703.539062 153.488281 C 698.835938 146.578125 693.910156 139.835938 688.777344 133.257812 C 688.714844 133.175781 688.59375 133.160156 688.511719 133.222656 L 457.570312 301.148438 C 450.941406 305.96875 441.945312 305.96875 435.324219 301.128906 C 435.082031 300.953125 434.835938 300.773438 434.585938 300.59375 C 427.996094 295.878906 425.269531 287.410156 427.773438 279.703125 L 516.015625 8.050781 C 516.050781 7.949219 515.996094 7.84375 515.898438 7.808594 C 508.070312 4.984375 500.121094 2.402344 492.066406 0.0820312 C 491.964844 0.0546875 491.859375 0.109375 491.824219 0.210938 L 403.757812 271.316406 C 401.15625 279.332031 393.683594 284.757812 385.25 284.757812 C 385.0625 284.757812 384.871094 284.757812 384.683594 284.761719 C 376.453125 284.816406 369.074219 279.734375 366.5 271.917969 L 277.117188 0.671875 C 277.085938 0.570312 276.980469 0.515625 276.878906 0.546875 C 268.832031 2.898438 260.886719 5.488281 253.070312 8.347656 C 252.972656 8.382812 252.921875 8.492188 252.953125 8.589844 L 342.347656 279.886719 C 344.890625 287.601562 342.164062 296.078125 335.578125 300.835938 C 335.46875 300.914062 335.355469 300.996094 335.246094 301.078125 C 328.617188 305.90625 319.625 305.90625 312.996094 301.074219 L 82.222656 132.914062 C 82.140625 132.851562 82.019531 132.871094 81.957031 132.953125 C 76.816406 139.523438 71.890625 146.265625 67.179688 153.167969 C 67.121094 153.257812 67.140625 153.375 67.226562 153.4375 L 297.992188 321.59375 C 304.636719 326.433594 307.371094 335.007812 304.78125 342.804688 C 304.691406 343.074219 304.601562 343.339844 304.515625 343.609375 C 302.003906 351.410156 294.800781 356.746094 286.597656 356.746094 L 0.953125 356.746094 C 0.847656 356.746094 0.761719 356.828125 0.757812 356.933594 C 0.625 361.089844 0.53125 365.261719 0.53125 369.449219 C 0.53125 373.640625 0.625 377.8125 0.757812 381.96875 C 0.761719 382.074219 0.847656 382.15625 0.953125 382.15625 L 286.523438 382.15625 C 294.816406 382.15625 302.023438 387.597656 304.578125 395.480469 C 304.609375 395.574219 304.636719 395.664062 304.667969 395.753906 C 307.257812 403.65625 304.675781 412.328125 297.945312 417.21875 L 67.007812 585.148438 C 66.921875 585.207031 66.898438 585.328125 66.960938 585.414062 C 71.664062 592.320312 76.585938 599.066406 81.71875 605.640625 C 81.785156 605.726562 81.902344 605.742188 81.988281 605.679688 L 313.039062 437.671875 C 319.601562 432.898438 328.507812 432.875 335.046875 437.679688 C 335.28125 437.851562 335.511719 438.019531 335.746094 438.1875 C 342.410156 442.984375 345.21875 451.527344 342.683594 459.332031 L 254.480469 730.851562 C 254.449219 730.949219 254.5 731.058594 254.601562 731.09375 C 262.429688 733.917969 270.375 736.496094 278.433594 738.820312 C 278.53125 738.847656 278.640625 738.792969 278.671875 738.691406 L 366.90625 467.066406 C 369.457031 459.21875 376.851562 454.128906 385.109375 454.144531 C 385.15625 454.144531 385.203125 454.144531 385.25 454.144531 C 385.4375 454.144531 385.625 454.140625 385.8125 454.140625 C 394.046875 454.085938 401.425781 459.167969 404 466.984375 L 493.378906 738.230469 C 493.410156 738.332031 493.519531 738.386719 493.621094 738.355469 C 501.664062 736 509.609375 733.414062 517.425781 730.554688 C 517.527344 730.519531 517.578125 730.410156 517.546875 730.3125 L 428.148438 459.015625 C 425.609375 451.300781 428.335938 442.824219 434.921875 438.066406 C 435.035156 437.984375 435.148438 437.898438 435.265625 437.816406 C 441.886719 432.988281 450.878906 433 457.503906 437.824219 L 688.277344 605.988281 C 688.359375 606.046875 688.480469 606.03125 688.542969 605.949219 C 693.683594 599.378906 698.609375 592.636719 703.320312 585.730469 C 703.378906 585.644531 703.355469 585.527344 703.273438 585.464844 L 472.503906 417.308594 C 465.910156 412.503906 463.078125 403.984375 465.667969 396.253906 Z M 465.667969 396.253906 " fill-opacity="1" fill-rule="evenodd"/></g></svg>