<?xml version="1.0" encoding="UTF-8"?>
<svg width="1028px" height="987px" viewBox="0 0 1028 987" version="1.1" xmlns="http://www.w3.org/2000/svg" xmlns:xlink="http://www.w3.org/1999/xlink">
    <title>Stroke 1 Copy 2</title>
    <g id="Page-1" stroke="none" stroke-width="1" fill="none" fill-rule="evenodd">
        <path d="M621.076934,528.873101 C621.230432,528.415367 621.380765,527.956051 621.527933,527.495944 C624.851876,517.08821 634.576843,510.058543 645.510805,510.058543 L1026.6621,510.058543 C1026.80135,510.058543 1026.91608,509.947864 1026.92083,509.807935 C1027.09964,504.258197 1027.22149,498.693439 1027.22149,493.100223 C1027.22149,487.507003 1027.09964,481.943035 1026.92083,476.393297 C1026.91608,476.253368 1026.80135,476.14269 1026.6621,476.14269 L645.512387,476.14269 C634.45183,476.14269 624.824975,468.895618 621.4227,458.380368 C621.362567,458.194586 621.302434,458.008804 621.241509,457.823813 C617.787014,447.343347 621.340412,435.835943 630.269405,429.343066 L938.499665,205.214309 C938.613601,205.1313 938.640503,204.973188 938.562172,204.856976 C932.284579,195.637454 925.711859,186.635338 918.861419,177.859321 C918.775966,177.748643 918.616139,177.726507 918.502993,177.808725 L610.273525,401.937482 C601.421281,408.374229 589.418373,408.372648 580.581953,401.913765 C580.254385,401.675016 579.926026,401.437057 579.596085,401.199889 C570.798436,394.904652 567.158793,383.602794 570.499352,373.317596 L688.279771,10.7450254 C688.323288,10.6122111 688.252078,10.4675385 688.120734,10.4201048 C677.670212,6.6507105 667.06461,3.20860837 656.31184,0.110400223 C656.177331,0.0716627389 656.03491,0.146766024 655.991393,0.280370815 L538.449133,362.123254 C534.974857,372.819543 525.000654,380.061871 513.746246,380.061871 L513.746246,380.061871 C513.494636,380.061871 513.243026,380.063453 512.992207,380.065034 C502.00286,380.139346 492.155253,373.355543 488.718955,362.925674 L369.42492,0.89542719 C369.381402,0.76261296 369.23819,0.688300236 369.104473,0.727828281 C358.366736,3.8710984 347.762716,7.32743062 337.329601,11.1403058 C337.198258,11.18853 337.127839,11.3332027 337.172147,11.4660169 L456.485963,373.559508 C459.879534,383.854983 456.239892,395.16949 447.450155,401.520856 C447.302195,401.627582 447.155027,401.735098 447.007068,401.842615 C438.159571,408.289639 426.156663,408.286476 417.309958,401.840243 L109.302033,177.399215 C109.188888,177.316996 109.029851,177.339132 108.943607,177.44902 C102.083672,186.217921 95.510161,195.220829 89.2230739,204.433235 C89.1439512,204.549447 89.1716442,204.70835 89.2847896,204.790568 L397.286384,429.227644 C406.152079,435.687317 409.804381,447.130686 406.344347,457.535258 C406.225663,457.893382 406.108562,458.252297 405.992251,458.612002 C402.636659,469.023689 393.023255,476.14269 382.075843,476.14269 L0.829604685,476.14269 C0.690348792,476.14269 0.574829699,476.253368 0.570873566,476.392507 C0.391265113,481.943035 0.269416207,487.507003 0.269416207,493.100223 C0.269416207,498.693439 0.391265113,504.258197 0.570873566,509.807935 C0.574829699,509.947864 0.690348792,510.058543 0.829604685,510.058543 L381.978522,510.057752 C393.047783,510.057752 402.666726,517.320635 406.07533,527.843791 C406.1141,527.965537 406.154453,528.086493 406.194014,528.207449 C409.653257,538.755112 406.202718,550.325762 397.219921,556.857376 L88.9912445,780.986133 C88.8773079,781.069142 88.8496149,781.227254 88.9287376,781.342676 C95.2063299,790.562197 101.77905,799.565104 108.628699,808.341121 C108.714943,808.451799 108.873979,808.473935 108.987916,808.390926 L417.368508,584.152281 C426.126596,577.784313 438.013986,577.75111 446.740425,584.163349 C447.051377,584.391821 447.362329,584.617922 447.674863,584.842441 C456.569833,591.243612 460.316292,602.644291 456.932215,613.062303 L339.211138,975.455416 C339.167621,975.589021 339.23804,975.732903 339.370175,975.780337 C349.819114,979.549731 360.425508,982.991833 371.178278,986.090042 C371.312787,986.128779 371.455207,986.053676 371.497934,985.920861 L489.265693,623.387028 C492.667967,612.912887 502.535355,606.118806 513.557143,606.13778 C513.61965,606.13857 513.683739,606.13857 513.746246,606.13857 C513.997065,606.13857 514.247092,606.136989 514.497911,606.135408 C525.487258,606.060305 535.334074,612.845689 538.771954,623.274768 L658.065198,985.305015 C658.108716,985.437829 658.251136,985.512141 658.385645,985.472613 C669.123382,982.330134 679.728193,978.873802 690.161308,975.060926 C690.292651,975.012702 690.362279,974.867239 690.318762,974.734425 L571.003363,612.641724 C567.612166,602.34625 571.250226,591.030952 580.040754,584.678795 C580.194252,584.568907 580.346168,584.458228 580.498875,584.346759 C589.340832,577.904479 601.338994,577.917127 610.180952,584.359408 L918.189667,808.801227 C918.302022,808.883445 918.461849,808.8621 918.548093,808.751422 C925.406446,799.98252 931.979957,790.980403 938.267835,781.767207 C938.346958,781.651785 938.319265,781.492882 938.20612,781.409873 L630.202942,556.972798 C621.403711,550.560558 617.620856,539.193083 621.076934,528.873101 Z" id="Stroke-1-Copy-2" fill="#E7E2DA"></path>
    </g>
</svg>